<svg width="781" height="912" viewBox="0 0 781 912" fill="none" xmlns="http://www.w3.org/2000/svg">
<circle cx="269.894" cy="406.024" r="224.047" transform="rotate(-103.201 269.894 406.024)" fill="url(#paint0_linear_236_901)" stroke="white"/>
<circle cx="269.894" cy="406.024" r="63.4418" transform="rotate(-103.201 269.894 406.024)" fill="#ED3B02"/>
<circle cx="269.894" cy="406.024" r="63.4418" transform="rotate(-103.201 269.894 406.024)" fill="#ED3B02"/>
<circle cx="269.895" cy="406.024" r="7.10759" transform="rotate(-103.201 269.895 406.024)" fill="black"/>
<mask id="mask0_236_901" style="mask-type:alpha" maskUnits="userSpaceOnUse" x="192" y="229" width="259" height="258">
<path d="M292.517 233.886C305.349 231.283 318.488 230.685 331.362 232.129C383.278 237.391 428.041 278.168 438.113 327.898C453.154 390.155 409.975 458.03 348.139 471.005C286.984 486.881 218.126 445.287 203.914 382.835C190.821 333.813 212.782 277.384 256.943 249.586C267.832 242.568 279.867 237.26 292.517 233.886C279.685 236.48 267.23 241.108 255.762 247.635C209.25 273.286 182.664 331.677 195.152 384.89C208.151 452.593 283.357 500.317 350.88 482.688C419.198 468.452 465.338 392.263 446.875 325.843C434.397 272.627 384.62 232.149 331.553 229.857C318.378 229.11 305.165 230.504 292.517 233.886Z" fill="#D1D1D1"/>
</mask>
<g mask="url(#mask0_236_901)">
<path d="M393.165 300.587C378.109 304.118 363.042 294.777 359.51 279.721L350.536 241.465C347.005 226.41 356.346 211.342 371.402 207.811L419.909 196.432C434.965 192.901 450.032 202.243 453.564 217.298L462.538 255.554C466.069 270.609 456.727 285.677 441.672 289.208L393.165 300.587Z" fill="#D1D1D1"/>
<path d="M372.629 311.567C354.348 315.855 336.052 304.511 331.763 286.23L322.789 247.974C318.501 229.693 329.845 211.396 348.126 207.108L373.259 213.538C373.259 213.538 375.508 223.128 378.283 234.957L387.257 273.213C390.032 285.042 392.281 294.631 392.281 294.631L372.629 311.567ZM418.539 190.591C436.82 186.302 455.117 197.646 459.405 215.928L468.379 254.184C472.667 272.465 461.324 290.761 443.042 295.05L440.302 283.367C452.131 280.592 459.471 268.753 456.696 256.924L447.722 218.668C444.948 206.839 433.109 199.499 421.28 202.274L418.539 190.591ZM468.379 254.184C472.667 272.465 461.324 290.761 443.042 295.05L372.629 311.567C354.348 315.855 336.052 304.511 331.763 286.23L387.257 273.213C390.032 285.042 392.281 294.631 392.281 294.631L440.302 283.367C452.131 280.592 459.471 268.753 456.696 256.924L468.379 254.184ZM322.789 247.974C318.501 229.693 329.845 211.396 348.126 207.108L418.539 190.591C436.82 186.302 455.117 197.646 459.405 215.928L447.722 218.668C444.948 206.839 433.109 199.499 421.28 202.274L373.259 213.538C373.259 213.538 375.508 223.128 378.283 234.957L322.789 247.974Z" fill="#D1D1D1"/>
</g>
<mask id="mask1_236_901" style="mask-type:alpha" maskUnits="userSpaceOnUse" x="225" y="249" width="202" height="199">
<path d="M303.734 252.887C313.582 250.984 323.636 250.62 333.46 251.807C373.083 256.184 406.777 287.447 414.208 325.124C425.326 372.314 392.606 423.321 346.01 433.11C299.921 445.063 247.932 413.926 236.906 366.714C226.808 329.663 243.085 286.678 276.628 265.138C284.899 259.706 294.067 255.562 303.734 252.887C293.885 254.782 284.298 258.246 275.448 263.188C239.552 282.58 218.651 327.527 228.143 368.77C237.956 421.233 296.295 458.499 348.75 444.793C401.828 433.743 437.51 374.422 422.97 323.069C413.133 281.906 374.425 250.943 333.65 249.535C323.525 249.045 313.398 250.205 303.734 252.887Z" fill="#D1D1D1"/>
</mask>
<g mask="url(#mask1_236_901)">
<path d="M387.196 302.47C372.141 306.002 357.073 296.66 353.542 281.605L349.664 265.075C346.132 250.02 355.474 234.952 370.53 231.42L394.91 225.701C409.966 222.17 425.033 231.511 428.565 246.567L432.442 263.097C435.974 278.152 426.632 293.22 411.577 296.751L387.196 302.47Z" fill="#D1D1D1"/>
<path d="M366.661 313.45C348.379 317.739 330.083 306.395 325.795 288.113L321.917 271.583C317.629 253.302 328.973 235.006 347.254 230.717L372.387 237.148C372.387 237.148 374.636 246.737 377.411 258.566L381.288 275.096C384.063 286.925 386.313 296.515 386.313 296.515L366.661 313.45ZM393.54 219.86C411.822 215.571 430.118 226.915 434.406 245.197L438.284 261.726C442.572 280.008 431.229 298.304 412.947 302.593L410.207 290.91C422.036 288.135 429.376 276.296 426.601 264.467L422.724 247.937C419.949 236.108 408.11 228.768 396.281 231.543L393.54 219.86ZM438.284 261.726C442.572 280.008 431.229 298.304 412.947 302.593L366.661 313.45C348.379 317.739 330.083 306.395 325.795 288.113L381.288 275.096C384.063 286.925 386.313 296.515 386.313 296.515L410.207 290.91C422.036 288.135 429.376 276.296 426.601 264.467L438.284 261.726ZM321.917 271.583C317.629 253.302 328.973 235.006 347.254 230.717L393.54 219.86C411.822 215.571 430.118 226.915 434.406 245.197L422.724 247.937C419.949 236.108 408.11 228.768 396.281 231.543L372.387 237.148C372.387 237.148 374.636 246.737 377.411 258.566L321.917 271.583Z" fill="#D1D1D1"/>
</g>
<mask id="mask2_236_901" style="mask-type:alpha" maskUnits="userSpaceOnUse" x="260" y="268" width="144" height="142">
<path d="M316.254 271.196C323.173 269.981 330.197 269.846 337.026 270.781C364.578 274.29 387.402 296.211 392.24 322.05C399.507 354.446 377.056 388.888 345.424 395.548C314.131 403.649 278.706 382.782 270.809 350.535C263.652 325.239 274.347 295.456 297.465 280.061C303.166 276.187 309.518 273.184 316.254 271.196C309.336 272.405 302.565 274.727 296.285 278.111C270.814 291.358 255.495 323.102 262.046 352.59C268.73 390.088 310.505 417.085 348.165 407.231C386.278 399.31 411.69 356.554 401.003 319.995C393.758 290.669 365.92 269.048 337.216 268.509C330.086 268.271 322.989 269.202 316.254 271.196Z" fill="#D1D1D1"/>
</mask>
<g mask="url(#mask2_236_901)">
<path d="M380.438 304.534C366.709 307.755 352.969 299.236 349.749 285.507C346.529 271.779 355.047 258.039 368.776 254.819L374.269 253.53C387.998 250.31 401.738 258.828 404.958 272.557C408.178 286.285 399.66 300.025 385.931 303.246L380.438 304.534Z" fill="#D1D1D1"/>
<path d="M359.903 315.514C342.948 319.491 325.979 308.971 322.002 292.016C318.025 275.061 328.546 258.093 345.5 254.116L373.035 259.982C373.035 259.982 375.032 268.496 377.496 278.999C379.96 289.501 381.957 298.015 381.957 298.015L359.903 315.514ZM372.899 247.689C389.854 243.712 406.822 254.232 410.799 271.187C414.777 288.141 404.256 305.11 387.301 309.087L384.561 297.404C395.063 294.941 401.58 284.43 399.117 273.927C396.653 263.425 386.142 256.908 375.64 259.372L372.899 247.689ZM410.799 271.187C414.777 288.141 404.256 305.11 387.301 309.087L359.903 315.514C342.948 319.491 325.979 308.971 322.002 292.016L377.496 278.999C379.96 289.501 381.957 298.015 381.957 298.015L384.561 297.404C395.063 294.941 401.58 284.43 399.117 273.927L410.799 271.187ZM322.002 292.016C318.025 275.061 328.546 258.093 345.5 254.116L372.899 247.689C389.854 243.712 406.822 254.232 410.799 271.187L399.117 273.927C396.653 263.425 386.142 256.908 375.64 259.372L373.035 259.982C373.035 259.982 375.032 268.496 377.496 278.999L322.002 292.016Z" fill="#D1D1D1"/>
</g>
<mask id="mask3_236_901" style="mask-type:alpha" maskUnits="userSpaceOnUse" x="89" y="334" width="259" height="257">
<path d="M225.92 589.794C212.832 590.152 199.785 588.481 187.351 584.845C137.114 570.735 100.03 522.867 98.6595 472.146C94.5479 408.23 148.755 348.79 211.901 346.642C274.876 341.519 335.555 394.335 338.816 458.3C343.284 508.843 311.947 560.655 263.664 580.445C251.731 585.486 238.962 588.646 225.92 589.794C239.007 589.445 252.072 587.028 264.492 582.57C314.722 565.299 350.953 512.35 347.801 457.782C346.638 388.853 280.758 328.907 211.21 334.662C141.462 336.938 82.908 404.058 89.6744 472.664C92.815 527.233 134.891 575.667 186.773 587.051C199.623 590.052 212.879 590.951 225.92 589.794Z" fill="#D1D1D1"/>
</mask>
<g mask="url(#mask3_236_901)">
<path d="M138.242 506.779C153.68 505.889 166.917 517.683 167.807 533.121L170.069 572.35C170.959 587.789 159.165 601.026 143.727 601.916L93.9854 604.783C78.547 605.674 65.3102 593.88 64.4202 578.441L62.1585 539.212C61.2684 523.774 73.0621 510.537 88.5004 509.647L138.242 506.779Z" fill="#D1D1D1"/>
<path d="M160.359 499.494C179.106 498.413 195.179 512.734 196.26 531.481L198.522 570.71C199.602 589.457 185.282 605.53 166.535 606.611L142.882 595.954C142.882 595.954 142.315 586.121 141.616 573.991L139.354 534.762C138.655 522.631 138.088 512.798 138.088 512.798L160.359 499.494ZM94.3307 610.773C75.5842 611.854 59.5109 597.533 58.4301 578.787L56.1684 539.558C55.0876 520.811 69.4085 504.738 88.1551 503.657L88.8458 515.637C76.7156 516.336 67.4492 526.737 68.1485 538.867L70.4102 578.096C71.1096 590.226 81.5099 599.493 93.64 598.793L94.3307 610.773ZM56.1684 539.558C55.0876 520.811 69.4085 504.738 88.1551 503.657L160.359 499.494C179.106 498.413 195.179 512.734 196.26 531.481L139.354 534.762C138.655 522.631 138.088 512.798 138.088 512.798L88.8458 515.637C76.7156 516.336 67.4492 526.737 68.1485 538.867L56.1684 539.558ZM198.522 570.71C199.602 589.457 185.282 605.53 166.535 606.611L94.3307 610.773C75.5842 611.854 59.5109 597.533 58.4301 578.787L70.4102 578.096C71.1096 590.226 81.5099 599.493 93.64 598.793L142.882 595.954C142.882 595.954 142.315 586.121 141.616 573.991L198.522 570.71Z" fill="#D1D1D1"/>
</g>
<mask id="mask4_236_901" style="mask-type:alpha" maskUnits="userSpaceOnUse" x="112" y="372" width="201" height="198">
<path d="M218.139 569.147C208.11 569.328 198.143 567.958 188.67 565.099C150.389 553.974 122.574 517.382 121.732 478.989C118.894 430.59 159.898 385.969 207.484 384.339C254.941 380.49 300.802 420.102 303.545 468.507C307.121 506.743 283.695 546.288 246.947 561.74C237.865 565.668 228.121 568.175 218.139 569.147C228.166 568.974 238.206 567.21 247.775 563.864C286.471 550.933 314.79 510.25 312.53 467.989C311.885 414.62 260.824 367.878 206.793 372.359C152.605 374.117 107.254 426.418 112.747 479.507C115.359 521.748 148.166 558.906 188.091 567.305C197.981 569.529 208.157 570.127 218.139 569.147Z" fill="#D1D1D1"/>
</mask>
<g mask="url(#mask4_236_901)">
<path d="M144.446 505.95C159.884 505.06 173.121 516.854 174.011 532.292L174.989 549.243C175.879 564.681 164.085 577.918 148.647 578.808L123.646 580.249C108.207 581.139 94.9704 569.346 94.0803 553.907L93.1031 536.957C92.213 521.519 104.007 508.282 119.445 507.392L144.446 505.95Z" fill="#D1D1D1"/>
<path d="M166.563 498.665C185.31 497.584 201.383 511.905 202.464 530.652L203.441 547.602C204.522 566.349 190.201 582.422 171.455 583.503L147.802 572.847C147.802 572.847 147.235 563.013 146.536 550.883L145.559 533.933C144.859 521.803 144.292 511.969 144.292 511.969L166.563 498.665ZM123.991 586.239C105.244 587.32 89.1711 572.999 88.0903 554.253L87.113 537.302C86.0322 518.556 100.353 502.482 119.1 501.402L119.79 513.382C107.66 514.081 98.3938 524.481 99.0931 536.612L100.07 553.562C100.77 565.692 111.17 574.959 123.3 574.259L123.991 586.239ZM87.113 537.302C86.0322 518.556 100.353 502.482 119.1 501.402L166.563 498.665C185.31 497.584 201.383 511.905 202.464 530.652L145.559 533.933C144.859 521.803 144.292 511.969 144.292 511.969L119.79 513.382C107.66 514.081 98.3938 524.481 99.0931 536.612L87.113 537.302ZM203.441 547.602C204.522 566.349 190.201 582.422 171.455 583.503L123.991 586.239C105.244 587.32 89.1711 572.999 88.0903 554.253L100.07 553.562C100.77 565.692 111.17 574.959 123.3 574.259L147.802 572.847C147.802 572.847 147.235 563.013 146.536 550.883L203.441 547.602Z" fill="#D1D1D1"/>
</g>
<mask id="mask5_236_901" style="mask-type:alpha" maskUnits="userSpaceOnUse" x="133" y="409" width="144" height="141">
<path d="M208.952 548.958C201.927 548.964 194.984 547.89 188.418 545.794C161.88 537.6 143.166 512.081 142.842 485.794C141.255 452.632 169.294 422.563 201.6 421.441C233.82 418.843 265.129 445.49 267.364 478.615C270.063 504.765 254.406 532.265 228.985 543.455C222.703 546.292 215.93 548.157 208.952 548.958C215.975 548.956 223.045 547.833 229.813 545.58C257.182 536.91 277.732 508.273 276.349 478.097C276.212 440.008 239.703 406.231 200.909 409.461C162.001 410.711 129.615 448.46 133.857 486.312C135.951 516.447 159.656 542.533 187.84 548C194.823 549.461 201.975 549.763 208.952 548.958Z" fill="#D1D1D1"/>
</mask>
<g mask="url(#mask5_236_901)">
<path d="M151.457 505.079C165.535 504.268 177.605 515.022 178.417 529.1C179.229 543.178 168.474 555.248 154.397 556.06L148.763 556.385C134.686 557.196 122.615 546.442 121.804 532.364C120.992 518.286 131.746 506.216 145.824 505.404L151.457 505.079Z" fill="#D1D1D1"/>
<path d="M173.575 497.794C190.961 496.792 205.867 510.074 206.87 527.46C207.872 544.846 194.591 559.752 177.205 560.755L151.089 550.24C151.089 550.24 150.585 541.51 149.964 530.74C149.343 519.971 148.84 511.24 148.84 511.24L173.575 497.794ZM149.109 562.375C131.723 563.377 116.816 550.095 115.814 532.709C114.811 515.323 128.093 500.417 145.479 499.414L146.17 511.394C135.4 512.015 127.173 521.249 127.794 532.019C128.415 542.788 137.648 551.015 148.418 550.394L149.109 562.375ZM115.814 532.709C114.811 515.323 128.093 500.417 145.479 499.414L173.575 497.794C190.961 496.792 205.867 510.074 206.87 527.46L149.964 530.74C149.343 519.971 148.84 511.24 148.84 511.24L146.17 511.394C135.4 512.015 127.173 521.249 127.794 532.019L115.814 532.709ZM206.87 527.46C207.872 544.846 194.591 559.752 177.205 560.755L149.109 562.375C131.723 563.377 116.816 550.095 115.814 532.709L127.794 532.019C128.415 542.788 137.648 551.015 148.418 550.394L151.089 550.24C151.089 550.24 150.585 541.51 149.964 530.74L206.87 527.46Z" fill="#D1D1D1"/>
</g>
<circle cx="384.553" cy="355.681" r="224.047" transform="rotate(-28.2014 384.553 355.681)" fill="url(#paint1_linear_236_901)" stroke="white"/>
<circle cx="384.553" cy="355.681" r="63.4418" transform="rotate(-28.2014 384.553 355.681)" fill="#ED3B02"/>
<circle cx="384.553" cy="355.681" r="63.4418" transform="rotate(-28.2014 384.553 355.681)" fill="#ED3B02"/>
<circle cx="384.553" cy="355.682" r="7.10759" transform="rotate(-28.2014 384.553 355.682)" fill="black"/>
<mask id="mask6_236_901" style="mask-type:alpha" maskUnits="userSpaceOnUse" x="316" y="263" width="258" height="259">
<path d="M556.68 332.981C562.516 344.702 566.494 357.239 568.432 370.048C576.786 421.556 548.984 475.348 503.555 497.948C447.312 528.59 370.574 504.45 342.037 448.079C310.874 393.116 333.23 315.839 389.875 285.948C433.837 260.614 494.028 267.221 532.309 302.682C541.906 311.384 550.147 321.635 556.68 332.981C550.853 321.258 543.16 310.425 533.887 301.037C497.072 262.748 433.79 252.181 385.622 278.016C323.591 308.095 296.958 393.091 331.461 453.75C362.894 516.055 448.429 540.904 507.808 505.879C555.981 480.054 582.196 421.496 570.676 369.644C567.987 356.724 563.221 344.322 556.68 332.981Z" fill="#D1D1D1"/>
</mask>
<g mask="url(#mask6_236_901)">
<path d="M518.302 447.462C510.994 433.834 516.118 416.862 529.746 409.554L564.376 390.985C578.004 383.677 594.976 388.801 602.284 402.429L625.83 446.339C633.138 459.967 628.014 476.939 614.386 484.247L579.756 502.816C566.128 510.124 549.155 505 541.848 491.372L518.302 447.462Z" fill="#D1D1D1"/>
<path d="M502.381 430.469C493.508 413.92 499.729 393.311 516.278 384.437L550.908 365.868C567.456 356.994 588.065 363.216 596.939 379.765L597.233 405.705C597.233 405.705 588.552 410.36 577.844 416.102L543.215 434.671C532.507 440.413 523.826 445.068 523.826 445.068L502.381 430.469ZM631.118 443.503C639.991 460.052 633.77 480.661 617.221 489.535L582.591 508.104C566.043 516.978 545.434 510.756 536.56 494.208L547.135 488.537C552.877 499.245 566.212 503.27 576.92 497.529L611.55 478.959C622.258 473.217 626.284 459.882 620.542 449.174L631.118 443.503ZM582.591 508.104C566.043 516.978 545.434 510.756 536.56 494.208L502.381 430.469C493.508 413.92 499.729 393.311 516.278 384.437L543.215 434.671C532.507 440.413 523.826 445.068 523.826 445.068L547.135 488.537C552.877 499.245 566.212 503.27 576.92 497.529L582.591 508.104ZM550.908 365.868C567.456 356.994 588.065 363.216 596.939 379.765L631.118 443.503C639.991 460.052 633.77 480.661 617.221 489.535L611.55 478.959C622.258 473.217 626.284 459.882 620.542 449.174L597.233 405.705C597.233 405.705 588.552 410.36 577.844 416.102L550.908 365.868Z" fill="#D1D1D1"/>
</g>
<mask id="mask7_236_901" style="mask-type:alpha" maskUnits="userSpaceOnUse" x="355" y="294" width="200" height="201">
<path d="M541.231 348.733C545.617 357.753 548.572 367.371 549.967 377.167C555.994 416.573 534.517 457.21 500.048 474.14C457.343 497.093 399.605 478.689 378.09 436.214C354.616 394.789 371.235 336.513 413.985 313.643C447.16 294.3 492.893 298.897 522.381 325.722C529.769 332.306 536.145 340.088 541.231 348.733C536.851 339.711 531.023 331.347 523.959 324.077C495.937 294.424 447.113 285.867 409.732 305.711C361.596 328.768 340.699 394.764 367.514 441.885C391.925 490.294 458.46 509.407 504.301 482.071C541.515 461.916 561.405 416.513 552.211 376.763C550.064 366.856 546.322 357.374 541.231 348.733Z" fill="#D1D1D1"/>
</mask>
<g mask="url(#mask7_236_901)">
<path d="M514.938 442.185C507.63 428.556 512.754 411.584 526.382 404.277L541.345 396.253C554.974 388.945 571.946 394.069 579.254 407.697L591.088 429.767C598.396 443.395 593.272 460.367 579.644 467.675L564.681 475.699C551.052 483.007 534.08 477.883 526.772 464.255L514.938 442.185Z" fill="#D1D1D1"/>
<path d="M499.017 425.191C490.144 408.642 496.365 388.034 512.914 379.16L527.877 371.136C544.426 362.262 565.035 368.484 573.908 385.033L574.202 410.973C574.202 410.973 565.522 415.628 554.814 421.37L539.851 429.393C529.143 435.135 520.462 439.79 520.462 439.79L499.017 425.191ZM596.376 426.931C605.25 443.48 599.028 464.089 582.479 472.963L567.516 480.986C550.968 489.86 530.359 483.639 521.485 467.09L532.06 461.419C537.802 472.127 551.137 476.153 561.845 470.411L576.808 462.387C587.516 456.645 591.542 443.31 585.8 432.602L596.376 426.931ZM567.516 480.986C550.968 489.86 530.359 483.639 521.485 467.09L499.017 425.191C490.144 408.642 496.365 388.034 512.914 379.16L539.851 429.393C529.143 435.135 520.462 439.79 520.462 439.79L532.06 461.419C537.802 472.127 551.137 476.153 561.845 470.411L567.516 480.986ZM527.877 371.136C544.426 362.262 565.035 368.484 573.908 385.033L596.376 426.931C605.25 443.48 599.028 464.089 582.479 472.963L576.808 462.387C587.516 456.645 591.542 443.31 585.8 432.602L574.202 410.973C574.202 410.973 565.522 415.628 554.814 421.37L527.877 371.136Z" fill="#D1D1D1"/>
</g>
<mask id="mask8_236_901" style="mask-type:alpha" maskUnits="userSpaceOnUse" x="395" y="326" width="142" height="144">
<path d="M526.786 365.566C529.75 371.934 531.699 378.684 532.562 385.522C536.304 413.044 521.038 440.763 497.331 452.125C467.92 467.528 428.84 454.757 414.22 425.927C398.297 397.796 409.283 358.177 438.388 342.203C460.97 328.744 492.506 331.366 513.36 349.712C518.578 354.215 523.121 359.573 526.786 365.566C523.827 359.196 519.832 353.257 514.938 348.066C495.55 326.893 460.922 320.311 434.135 334.271C399.644 350.433 384.38 397.771 403.645 431.598C421.16 466.362 469.037 479.842 501.584 460.057C528.035 445.469 541.715 412.984 534.806 385.118C533.191 378.17 530.455 371.555 526.786 365.566Z" fill="#D1D1D1"/>
</mask>
<g mask="url(#mask8_236_901)">
<path d="M511.195 436.191C504.531 423.764 509.204 408.287 521.631 401.623C534.058 394.96 549.535 399.632 556.198 412.059L558.865 417.032C565.529 429.459 560.857 444.935 548.429 451.599C536.002 458.263 520.526 453.591 513.862 441.164L511.195 436.191Z" fill="#D1D1D1"/>
<path d="M495.275 419.197C487.045 403.85 492.815 384.736 508.163 376.507C523.51 368.277 542.624 374.047 550.853 389.395L552.313 417.51C552.313 417.51 544.606 421.642 535.099 426.74C525.592 431.838 517.885 435.971 517.885 435.971L495.275 419.197ZM564.153 414.196C572.382 429.544 566.612 448.657 551.265 456.887C535.917 465.117 516.804 459.347 508.574 443.999L519.15 438.328C524.247 447.835 536.087 451.409 545.594 446.311C555.101 441.214 558.675 429.374 553.577 419.867L564.153 414.196ZM551.265 456.887C535.917 465.117 516.804 459.347 508.574 443.999L495.275 419.197C487.045 403.85 492.815 384.736 508.163 376.507L535.099 426.74C525.592 431.838 517.885 435.971 517.885 435.971L519.15 438.328C524.247 447.835 536.087 451.409 545.594 446.311L551.265 456.887ZM508.163 376.507C523.51 368.277 542.624 374.047 550.853 389.395L564.153 414.196C572.382 429.544 566.612 448.657 551.265 456.887L545.594 446.311C555.101 441.214 558.675 429.374 553.577 419.867L552.313 417.51C552.313 417.51 544.606 421.642 535.099 426.74L508.163 376.507Z" fill="#D1D1D1"/>
</g>
<mask id="mask9_236_901" style="mask-type:alpha" maskUnits="userSpaceOnUse" x="188" y="191" width="258" height="260">
<path d="M195.664 360.768C191.93 348.219 190.167 335.184 190.461 322.233C191.089 270.056 227.727 221.846 276.365 207.395C337.04 186.881 408.483 223.857 426.902 284.295C448.149 343.798 412.838 416.079 351.897 435.785C304.233 453.182 246.075 436.322 214.462 394.807C206.505 384.585 200.148 373.069 195.664 360.768C199.388 373.319 205.104 385.313 212.625 396.157C242.307 440.205 302.829 461.497 354.723 444.33C421.002 425.366 461.854 346.216 438.295 280.527C418.045 213.745 338.057 174.558 273.54 198.85C221.643 216.007 185.749 269.185 188.181 322.246C188.608 335.435 191.171 348.472 195.664 360.768Z" fill="#D1D1D1"/>
</mask>
<g mask="url(#mask9_236_901)">
<path d="M253.157 254.592C258.012 269.274 250.046 285.113 235.365 289.968L198.057 302.306C183.375 307.161 167.537 299.196 162.682 284.514L147.038 237.209C142.182 222.527 150.148 206.689 164.83 201.834L202.137 189.496C216.819 184.64 232.657 192.606 237.513 207.288L253.157 254.592Z" fill="#D1D1D1"/>
<path d="M265.918 274.071C271.814 291.899 262.141 311.131 244.313 317.027L207.006 329.365C189.178 335.261 169.946 325.588 164.05 307.76L168.221 282.155C168.221 282.155 177.573 279.062 189.109 275.247L226.416 262.909C237.952 259.094 247.303 256.002 247.303 256.002L265.918 274.071ZM141.341 239.093C135.445 221.265 145.118 202.033 162.946 196.137L200.253 183.799C218.081 177.903 237.313 187.576 243.209 205.404L231.816 209.172C228.001 197.636 215.557 191.377 204.021 195.192L166.714 207.53C155.178 211.345 148.919 223.789 152.734 235.325L141.341 239.093ZM200.253 183.799C218.081 177.903 237.313 187.576 243.209 205.404L265.918 274.071C271.814 291.899 262.141 311.131 244.313 317.027L226.416 262.909C237.952 259.094 247.303 256.002 247.303 256.002L231.816 209.172C228.001 197.636 215.557 191.377 204.021 195.192L200.253 183.799ZM207.006 329.365C189.178 335.261 169.946 325.588 164.05 307.76L141.341 239.093C135.445 221.265 145.118 202.033 162.946 196.137L166.714 207.53C155.178 211.345 148.919 223.789 152.734 235.325L168.221 282.155C168.221 282.155 177.573 279.062 189.109 275.247L207.006 329.365Z" fill="#D1D1D1"/>
</g>
<mask id="mask10_236_901" style="mask-type:alpha" maskUnits="userSpaceOnUse" x="207" y="217" width="199" height="201">
<path d="M213.592 347.909C210.822 338.269 209.566 328.287 209.875 318.396C210.714 278.541 238.86 242.203 275.727 231.452C321.742 216.185 375.455 244.243 389.346 289.785C405.347 334.629 378.954 389.18 332.908 404.358C296.901 417.708 252.64 405.315 228.204 373.819C222.059 366.063 217.116 357.3 213.592 347.909C216.356 357.55 220.658 366.791 226.366 375.168C248.872 409.198 295.498 426.023 335.734 412.902C387.118 398.467 419.052 337.047 400.739 286.017C385.016 234.131 322.759 203.862 272.901 222.908C232.775 236.364 205.374 277.67 207.595 318.409C208.007 328.537 210.063 338.521 213.592 347.909Z" fill="#D1D1D1"/>
</mask>
<g mask="url(#mask10_236_901)">
<path d="M255.563 260.371C260.419 275.053 252.453 290.891 237.771 295.746L221.651 301.077C206.969 305.933 191.131 297.967 186.275 283.285L178.412 259.509C173.557 244.827 181.523 228.989 196.204 224.133L212.324 218.802C227.006 213.947 242.845 221.913 247.7 236.595L255.563 260.371Z" fill="#D1D1D1"/>
<path d="M268.324 279.849C274.22 297.677 264.547 316.909 246.719 322.805L230.599 328.136C212.771 334.032 193.539 324.359 187.643 306.531L191.815 280.927C191.815 280.927 201.166 277.834 212.702 274.019L228.822 268.688C240.358 264.873 249.71 261.78 249.71 261.78L268.324 279.849ZM172.716 261.393C166.82 243.565 176.493 224.333 194.321 218.437L210.441 213.106C228.269 207.21 247.501 216.883 253.397 234.711L242.003 238.479C238.188 226.943 225.744 220.684 214.208 224.499L198.088 229.83C186.553 233.645 180.294 246.089 184.109 257.625L172.716 261.393ZM210.441 213.106C228.269 207.21 247.501 216.883 253.397 234.711L268.324 279.849C274.22 297.677 264.547 316.909 246.719 322.805L228.822 268.688C240.358 264.873 249.71 261.78 249.71 261.78L242.003 238.479C238.188 226.943 225.744 220.684 214.208 224.499L210.441 213.106ZM230.599 328.136C212.771 334.032 193.539 324.359 187.643 306.531L172.716 261.393C166.82 243.565 176.493 224.333 194.321 218.437L198.088 229.83C186.553 233.645 180.294 246.089 184.109 257.625L191.815 280.927C191.815 280.927 201.166 277.834 212.702 274.019L230.599 328.136Z" fill="#D1D1D1"/>
</g>
<mask id="mask11_236_901" style="mask-type:alpha" maskUnits="userSpaceOnUse" x="226" y="240" width="142" height="144">
<path d="M230.716 333.809C228.892 327.026 228.133 320.042 228.458 313.157C229.504 285.402 249.31 260.721 274.617 253.605C306.239 243.489 342.54 262.79 351.985 293.704C362.834 324.154 345.198 361.293 313.78 372.025C289.22 381.401 258.604 373.395 241.216 351.736C236.851 346.403 233.296 340.343 230.716 333.809C232.536 340.593 235.45 347.131 239.379 353.086C254.837 377.278 287.817 389.716 316.606 380.57C353.362 370.58 376.539 326.572 363.378 289.937C352.101 252.678 307.256 231.166 271.791 245.06C243.226 254.882 224.164 284.531 226.178 313.169C226.574 320.292 228.132 327.279 230.716 333.809Z" fill="#D1D1D1"/>
</mask>
<g mask="url(#mask11_236_901)">
<path d="M258.219 266.918C262.647 280.306 255.383 294.748 241.995 299.176C228.607 303.603 214.164 296.339 209.737 282.951L207.965 277.594C203.537 264.206 210.801 249.764 224.189 245.336C237.577 240.909 252.02 248.172 256.447 261.561L258.219 266.918Z" fill="#D1D1D1"/>
<path d="M270.98 286.396C276.448 302.93 267.477 320.766 250.943 326.234C234.409 331.703 216.573 322.732 211.105 306.197L214.501 278.25C214.501 278.25 222.804 275.504 233.046 272.117C243.288 268.73 251.591 265.984 251.591 265.984L270.98 286.396ZM202.268 279.478C196.8 262.944 205.771 245.108 222.305 239.64C238.839 234.172 256.676 243.142 262.144 259.677L250.751 263.444C247.364 253.203 236.315 247.646 226.073 251.033C215.831 254.42 210.274 265.468 213.661 275.71L202.268 279.478ZM222.305 239.64C238.839 234.172 256.676 243.142 262.144 259.677L270.98 286.396C276.448 302.93 267.477 320.766 250.943 326.234L233.046 272.117C243.288 268.73 251.591 265.984 251.591 265.984L250.751 263.444C247.364 253.203 236.315 247.646 226.073 251.033L222.305 239.64ZM250.943 326.234C234.409 331.703 216.573 322.732 211.105 306.197L202.268 279.478C196.8 262.944 205.771 245.108 222.305 239.64L226.073 251.033C215.831 254.42 210.274 265.468 213.661 275.71L214.501 278.25C214.501 278.25 222.804 275.504 233.046 272.117L250.943 326.234Z" fill="#D1D1D1"/>
</g>
<circle cx="518.553" cy="374.682" r="224.047" transform="rotate(31.4796 518.553 374.682)" fill="url(#paint2_linear_236_901)" stroke="white"/>
<circle cx="518.553" cy="374.682" r="63.4418" transform="rotate(31.4796 518.553 374.682)" fill="#ED3B02"/>
<circle cx="518.553" cy="374.682" r="63.4418" transform="rotate(31.4796 518.553 374.682)" fill="#ED3B02"/>
<circle cx="518.552" cy="374.682" r="7.10759" transform="rotate(31.4796 518.552 374.682)" fill="black"/>
<mask id="mask12_236_901" style="mask-type:alpha" maskUnits="userSpaceOnUse" x="388" y="316" width="258" height="259">
<path d="M625.04 511.808C617.869 522.763 609.055 532.526 598.976 540.664C558.73 573.878 498.26 577.033 455.818 549.226C400.975 516.144 383.075 437.716 417.33 384.625C449.044 329.978 527.037 310.266 581.435 344.074C625.497 369.235 650.178 424.528 638.892 475.474C636.225 488.152 631.537 500.441 625.04 511.808C632.219 500.86 637.686 488.751 641.109 476.006C655.576 424.898 632.753 364.937 586.135 336.399C528.856 298.036 442.04 317.952 407.096 378.359C369.18 436.945 390.909 523.325 451.118 556.901C497.731 585.449 561.513 578.518 600.457 542.397C610.252 533.554 618.552 523.18 625.04 511.808Z" fill="#D1D1D1"/>
</mask>
<g mask="url(#mask12_236_901)">
<path d="M506.843 536.471C514.918 523.283 532.156 519.138 545.344 527.213L578.855 547.732C592.043 555.808 596.188 573.045 588.113 586.233L562.095 628.724C554.019 641.912 536.782 646.057 523.594 637.982L490.083 617.463C476.895 609.387 472.75 592.15 480.825 578.962L506.843 536.471Z" fill="#D1D1D1"/>
<path d="M513.476 514.149C523.281 498.135 544.212 493.102 560.226 502.907L593.738 523.427C609.752 533.232 614.785 554.163 604.979 570.178L582.735 583.526C582.735 583.526 574.334 578.383 563.972 572.038L530.461 551.519C520.099 545.174 511.699 540.03 511.699 540.03L513.476 514.149ZM567.212 631.857C557.406 647.872 536.475 652.905 520.461 643.099L486.95 622.58C470.936 612.774 465.903 591.843 475.708 575.829L485.942 582.095C479.597 592.457 482.854 606.001 493.216 612.346L526.727 632.865C537.089 639.21 550.633 635.953 556.978 625.591L567.212 631.857ZM486.95 622.58C470.936 612.774 465.903 591.843 475.708 575.829L513.476 514.149C523.281 498.135 544.212 493.102 560.226 502.907L530.461 551.519C520.099 545.174 511.699 540.03 511.699 540.03L485.942 582.095C479.597 592.457 482.854 606.001 493.216 612.346L486.95 622.58ZM593.738 523.427C609.752 533.232 614.785 554.163 604.979 570.178L567.212 631.857C557.406 647.872 536.475 652.905 520.461 643.099L526.727 632.865C537.089 639.21 550.633 635.953 556.978 625.591L582.735 583.526C582.735 583.526 574.334 578.383 563.972 572.038L593.738 523.427Z" fill="#D1D1D1"/>
</g>
<mask id="mask13_236_901" style="mask-type:alpha" maskUnits="userSpaceOnUse" x="420" y="355" width="200" height="201">
<path d="M603.643 506.423C598.072 514.764 591.261 522.169 583.509 528.319C552.535 553.414 506.614 555.388 474.6 534.18C433.228 508.903 419.968 449.772 445.772 409.757C469.681 368.582 528.377 353.509 569.699 378.867C603.144 397.74 622.263 439.539 613.992 478.536C612.038 488.236 608.539 497.669 603.643 506.423C609.221 498.088 613.499 488.835 616.209 479.068C627.66 439.909 610.399 393.443 574.399 371.192C530.196 341.279 462.678 356.556 435.538 403.491C406.073 449.001 423.162 516.084 469.9 541.855C506.085 563.804 555.319 558.054 584.991 530.052C592.459 523.197 598.755 515.18 603.643 506.423Z" fill="#D1D1D1"/>
</mask>
<g mask="url(#mask13_236_901)">
<path d="M509.701 530.902C517.776 517.714 535.013 513.57 548.201 521.645L562.681 530.511C575.869 538.586 580.014 555.823 571.939 569.011L558.862 590.368C550.787 603.556 533.549 607.701 520.361 599.626L505.881 590.76C492.693 582.685 488.548 565.447 496.624 552.259L509.701 530.902Z" fill="#D1D1D1"/>
<path d="M516.333 508.581C526.139 492.567 547.07 487.534 563.084 497.339L577.564 506.205C593.578 516.011 598.611 536.942 588.805 552.956L566.561 566.305C566.561 566.305 558.161 561.161 547.799 554.816L533.319 545.95C522.957 539.605 514.557 534.462 514.557 534.462L516.333 508.581ZM563.979 593.502C554.173 609.516 533.242 614.549 517.228 604.743L502.748 595.877C486.734 586.071 481.701 565.14 491.507 549.126L501.741 555.392C495.396 565.755 498.652 579.298 509.015 585.643L523.494 594.509C533.856 600.854 547.4 597.597 553.745 587.235L563.979 593.502ZM502.748 595.877C486.734 586.071 481.701 565.14 491.507 549.126L516.333 508.581C526.139 492.567 547.07 487.534 563.084 497.339L533.319 545.95C522.957 539.605 514.557 534.462 514.557 534.462L501.741 555.392C495.396 565.755 498.652 579.298 509.015 585.643L502.748 595.877ZM577.564 506.205C593.578 516.011 598.611 536.942 588.805 552.956L563.979 593.502C554.173 609.516 533.242 614.549 517.228 604.743L523.494 594.509C533.856 600.854 547.4 597.597 553.745 587.235L566.561 566.305C566.561 566.305 558.161 561.161 547.799 554.816L577.564 506.205Z" fill="#D1D1D1"/>
</g>
<mask id="mask14_236_901" style="mask-type:alpha" maskUnits="userSpaceOnUse" x="452" y="395" width="142" height="143">
<path d="M581.821 502.452C577.82 508.225 572.977 513.315 567.51 517.512C545.642 534.636 514.007 535.45 492.232 520.721C464.089 503.109 455.385 462.927 472.892 435.753C489.136 407.806 528.882 397.29 557.364 414.35C580.383 427.049 594.039 455.596 588.729 482.858C587.476 489.636 585.144 496.263 581.821 502.452C585.826 496.682 588.937 490.235 590.947 483.39C599.437 455.965 587.638 422.751 562.064 406.675C530.702 385.06 482.133 395.78 462.658 429.486C441.49 462.156 454.022 510.289 487.532 528.397C513.478 543.866 548.425 539.276 568.992 519.245C574.175 514.343 578.503 508.642 581.821 502.452Z" fill="#D1D1D1"/>
</mask>
<g mask="url(#mask14_236_901)">
<path d="M512.985 524.646C520.349 512.62 536.067 508.84 548.093 516.204C560.119 523.568 563.898 539.286 556.535 551.312L553.588 556.124C546.225 568.15 530.507 571.929 518.481 564.566C506.455 557.202 502.675 541.484 510.039 529.458L512.985 524.646Z" fill="#D1D1D1"/>
<path d="M519.618 502.324C528.712 487.472 548.124 482.805 562.976 491.898C577.828 500.992 582.495 520.404 573.401 535.256L549.868 550.709C549.868 550.709 542.41 546.143 533.211 540.51C524.011 534.876 516.553 530.31 516.553 530.31L519.618 502.324ZM558.705 559.257C549.611 574.109 530.199 578.777 515.348 569.683C500.496 560.589 495.828 541.177 504.922 526.325L515.156 532.591C509.523 541.791 512.414 553.815 521.614 559.449C530.814 565.082 542.838 562.19 548.471 552.991L558.705 559.257ZM515.348 569.683C500.496 560.589 495.828 541.177 504.922 526.325L519.618 502.324C528.712 487.472 548.124 482.805 562.976 491.898L533.211 540.51C524.011 534.876 516.553 530.31 516.553 530.31L515.156 532.591C509.523 541.791 512.414 553.815 521.614 559.449L515.348 569.683ZM562.976 491.898C577.828 500.992 582.495 520.404 573.401 535.256L558.705 559.257C549.611 574.109 530.199 578.777 515.348 569.683L521.614 559.449C530.814 565.082 542.838 562.19 548.471 552.991L549.868 550.709C549.868 550.709 542.41 546.143 533.211 540.51L562.976 491.898Z" fill="#D1D1D1"/>
</g>
<mask id="mask15_236_901" style="mask-type:alpha" maskUnits="userSpaceOnUse" x="385" y="169" width="258" height="258">
<path d="M418.808 214.196C427.756 204.638 438.118 196.536 449.446 190.252C494.804 164.453 554.915 171.744 591.943 206.435C640.281 248.454 644.428 328.793 601.554 375.202C560.915 423.581 480.694 429.589 432.92 386.93C393.84 354.567 379.036 295.853 398.914 247.606C403.721 235.577 410.453 224.276 418.808 214.196C409.853 223.746 402.385 234.735 396.822 246.701C373.782 294.561 385.954 357.553 426.97 393.683C476.799 441.324 565.746 436.632 610.558 383.135C657.983 331.941 651.432 243.111 597.893 199.682C556.884 163.544 492.86 159.404 448.284 188.29C437.115 195.316 427.154 204.109 418.808 214.196Z" fill="#D1D1D1"/>
</mask>
<g mask="url(#mask15_236_901)">
<path d="M539.485 210.226C529.262 221.829 511.569 222.948 499.966 212.725L470.483 186.749C458.88 176.526 457.761 158.833 467.983 147.23L500.921 109.846C511.143 98.2428 528.837 97.1238 540.44 107.347L569.923 133.323C581.526 143.546 582.645 161.239 572.422 172.842L539.485 210.226Z" fill="#D1D1D1"/>
<path d="M529.113 231.075C516.7 245.164 495.215 246.523 481.126 234.11L451.642 208.133C437.553 195.72 436.194 174.235 448.607 160.146L472.816 150.821C472.816 150.821 480.206 157.333 489.323 165.365L518.807 191.341C527.923 199.373 535.314 205.885 535.314 205.885L529.113 231.075ZM496.419 105.879C508.832 91.79 530.317 90.4313 544.406 102.845L573.89 128.821C587.979 141.234 589.338 162.719 576.924 176.808L567.92 168.875C575.953 159.759 575.073 145.857 565.957 137.825L536.473 111.849C527.356 103.816 513.455 104.696 505.422 113.812L496.419 105.879ZM573.89 128.821C587.979 141.234 589.338 162.719 576.924 176.808L529.113 231.075C516.7 245.164 495.215 246.523 481.126 234.11L518.807 191.341C527.923 199.373 535.314 205.885 535.314 205.885L567.92 168.875C575.953 159.759 575.073 145.857 565.957 137.825L573.89 128.821ZM451.642 208.133C437.553 195.72 436.194 174.235 448.607 160.146L496.419 105.879C508.832 91.79 530.317 90.4313 544.406 102.845L536.473 111.849C527.356 103.816 513.455 104.696 505.422 113.812L472.816 150.821C472.816 150.821 480.206 157.333 489.323 165.365L451.642 208.133Z" fill="#D1D1D1"/>
</g>
<mask id="mask16_236_901" style="mask-type:alpha" maskUnits="userSpaceOnUse" x="412" y="188" width="200" height="200">
<path d="M438.959 223.181C445.882 215.923 453.865 209.799 462.559 205.074C497.386 185.678 542.963 191.63 570.854 218.028C607.263 250.042 610.157 310.573 577.856 345.554C547.223 382.005 486.809 386.759 450.463 354.674C420.762 330.331 409.116 285.867 423.969 248.873C427.562 239.653 432.631 230.963 438.959 223.181C432.031 230.433 426.226 238.812 421.877 247.968C403.862 284.575 412.876 333.317 444.514 361.427C482.914 398.495 552.054 395.056 586.86 353.487C623.713 313.722 618.414 244.7 576.803 211.275C544.932 183.43 495.442 180.629 461.397 203.112C452.862 208.58 445.281 215.395 438.959 223.181Z" fill="#D1D1D1"/>
</mask>
<g mask="url(#mask16_236_901)">
<path d="M535.712 215.22C525.489 226.823 507.796 227.942 496.193 217.72L483.453 206.496C471.85 196.273 470.731 178.58 480.954 166.977L497.509 148.187C507.732 136.584 525.425 135.465 537.028 145.687L549.767 156.911C561.37 167.134 562.489 184.827 552.267 196.43L535.712 215.22Z" fill="#D1D1D1"/>
<path d="M525.34 236.069C512.926 250.159 491.442 251.517 477.352 239.104L464.613 227.88C450.523 215.467 449.165 193.982 461.578 179.893L485.787 170.568C485.787 170.568 493.177 177.079 502.294 185.111L515.033 196.335C524.15 204.368 531.54 210.879 531.54 210.879L525.34 236.069ZM493.007 144.22C505.42 130.131 526.905 128.772 540.994 141.185L553.734 152.409C567.823 164.823 569.182 186.307 556.769 200.397L547.765 192.464C555.797 183.347 554.918 169.445 545.801 161.413L533.061 150.189C523.945 142.157 510.043 143.036 502.011 152.153L493.007 144.22ZM553.734 152.409C567.823 164.823 569.182 186.307 556.769 200.397L525.34 236.069C512.926 250.159 491.442 251.517 477.352 239.104L515.033 196.335C524.15 204.368 531.54 210.879 531.54 210.879L547.765 192.464C555.797 183.347 554.918 169.445 545.801 161.413L553.734 152.409ZM464.613 227.88C450.523 215.467 449.165 193.982 461.578 179.893L493.007 144.22C505.42 130.131 526.905 128.772 540.994 141.185L533.061 150.189C523.945 142.157 510.043 143.036 502.011 152.153L485.787 170.568C485.787 170.568 493.177 177.079 502.294 185.111L464.613 227.88Z" fill="#D1D1D1"/>
</g>
<mask id="mask17_236_901" style="mask-type:alpha" maskUnits="userSpaceOnUse" x="440" y="205" width="143" height="143">
<path d="M459.775 230.845C464.709 225.846 470.355 221.664 476.462 218.469C500.95 205.361 532.253 209.999 551.172 228.253C575.867 250.443 577.531 291.523 555.613 315.282C534.804 340.019 493.842 343.543 468.718 321.84C448.226 305.372 439.682 274.902 449.6 248.959C452.001 242.497 455.437 236.37 459.775 230.845C454.837 235.84 450.665 241.656 447.508 248.053C434.428 273.61 440.34 308.358 462.768 328.593C489.946 355.278 539.635 353.07 564.616 323.214C591.087 294.671 587.018 245.1 557.121 221.5C534.222 201.799 499.006 200.312 475.301 216.507C469.352 220.445 464.108 225.317 459.775 230.845Z" fill="#D1D1D1"/>
</mask>
<g mask="url(#mask17_236_901)">
<path d="M531.401 220.818C522.079 231.399 505.945 232.419 495.365 223.097C484.784 213.775 483.764 197.641 493.086 187.061L496.816 182.827C506.138 172.246 522.272 171.226 532.852 180.548C543.433 189.87 544.453 206.004 535.131 216.584L531.401 220.818Z" fill="#D1D1D1"/>
<path d="M521.029 241.667C509.517 254.734 489.591 255.994 476.524 244.481C463.457 232.969 462.197 213.043 473.71 199.977L499.549 188.8C499.549 188.8 506.111 194.581 514.205 201.713C522.299 208.844 528.861 214.625 528.861 214.625L521.029 241.667ZM492.314 178.861C503.826 165.794 523.752 164.534 536.819 176.046C549.886 187.558 551.146 207.484 539.633 220.551L530.629 212.618C537.761 204.524 536.98 192.181 528.886 185.05C520.792 177.919 508.449 178.699 501.318 186.793L492.314 178.861ZM536.819 176.046C549.886 187.558 551.146 207.484 539.633 220.551L521.029 241.667C509.517 254.734 489.591 255.994 476.524 244.481L514.205 201.713C522.299 208.844 528.861 214.625 528.861 214.625L530.629 212.618C537.761 204.524 536.98 192.181 528.886 185.05L536.819 176.046ZM476.524 244.481C463.457 232.969 462.197 213.043 473.71 199.977L492.314 178.861C503.826 165.794 523.752 164.534 536.819 176.046L528.886 185.05C520.792 177.919 508.449 178.699 501.318 186.793L499.549 188.8C499.549 188.8 506.111 194.581 514.205 201.713L476.524 244.481Z" fill="#D1D1D1"/>
</g>
<path d="M477.455 799.406C478.655 843.406 467.288 887.073 461.455 903.406C428.454 908.573 361.854 915.806 359.454 903.406C356.454 887.906 368.954 858.906 378.954 839.906C386.954 824.706 393.954 793.573 396.454 779.906C410.954 751.406 422.954 685.906 422.954 670.906C422.954 661.29 428.121 655.74 426.454 652.406C418.454 638.406 420.454 643.906 410.954 634.906C398.759 623.352 395.454 622.406 388.454 616.406C381.454 610.406 382.454 608.406 381.954 605.406C381.554 603.006 384.454 599.906 385.954 598.906C394.954 593.906 397.954 589.906 401.454 586.906C402.815 586.521 406.954 582.406 410.954 579.406C413.287 577.657 410.454 569.406 410.954 565.906C411.354 563.106 409.788 561.74 408.954 561.406C407.954 557.906 409.187 557.464 403.954 549.906C399.454 543.406 397.954 539.906 395.455 537.406C393.455 535.406 390.621 528.24 389.455 524.906C387.955 521.74 384.855 514.606 384.455 511.406C383.955 507.406 384.455 508.406 384.955 505.906C385.355 503.906 388.121 502.073 389.455 501.406C390.621 500.739 393.455 499.606 395.455 500.406C397.455 501.206 400.621 504.739 401.955 506.406L410.955 516.906C419.455 525.406 418.455 526.406 420.955 531.906C422.593 535.511 426.455 544.073 427.455 548.406L442.455 564.906C445.955 568.406 454.155 577.506 458.955 585.906C464.955 596.406 463.455 582.906 466.955 589.406C469.755 594.606 475.455 598.906 477.955 600.406C478.288 601.073 480.055 603.006 484.455 605.406C488.855 607.806 491.955 616.406 492.955 620.406C493.955 626.573 495.755 641.206 494.955 650.406C494.155 659.606 491.288 677.906 489.955 685.906C485.288 705.406 476.255 755.406 477.455 799.406Z" fill="#ED3B02" stroke="#FDEBE6" stroke-width="2"/>
<path d="M412.954 547.407C414.454 546.073 417.654 543.707 418.454 544.907C419.254 546.107 418.121 547.406 417.454 547.906" stroke="#FDEBE6" stroke-width="2"/>
<path d="M388.454 520.906C391.787 521.89 398.454 522.981 400.454 521.406C402.954 519.438 405.454 515.842 406.454 511.906" stroke="#FDEBE6" stroke-width="2"/>
<path d="M461.954 589.406C465.787 595.24 473.454 609.106 473.454 617.906" stroke="#FDEBE6" stroke-width="2"/>
<path d="M449.954 774.406C450.59 762.256 454.238 735.246 463.741 724.406" stroke="#FDEBE6" stroke-width="2"/>
<path d="M411.928 577.406C412.928 580.073 414.528 587.006 412.928 593.406C410.928 601.406 408.596 586.906 410.928 584.906" stroke="#FDEBE6" stroke-width="2"/>
<defs>
<linearGradient id="paint0_linear_236_901" x1="89.5719" y1="249.92" x2="474.435" y2="618.462" gradientUnits="userSpaceOnUse">
<stop/>
<stop offset="1" stop-color="#323131"/>
</linearGradient>
<linearGradient id="paint1_linear_236_901" x1="204.23" y1="199.578" x2="589.093" y2="568.119" gradientUnits="userSpaceOnUse">
<stop/>
<stop offset="1" stop-color="#323131"/>
</linearGradient>
<linearGradient id="paint2_linear_236_901" x1="338.231" y1="218.578" x2="723.094" y2="587.12" gradientUnits="userSpaceOnUse">
<stop/>
<stop offset="1" stop-color="#323131"/>
</linearGradient>
</defs>
</svg>
