<svg width="306" height="227" viewBox="0 0 306 227" fill="none" xmlns="http://www.w3.org/2000/svg">
<mask id="path-1-inside-1_196_629" fill="white">
<path d="M0 1.24609H224.288V1.59825H224.64V13.0662H224.992V13.4184L225.279 13.5026C226.361 13.8433 227.337 14.3026 228.344 14.827C228.562 14.938 228.784 15.049 229.006 15.16L234.34 17.828V18.1801L234.711 18.2299C235.319 18.383 235.771 18.6395 236.31 18.961L236.869 19.294C237.336 19.5926 237.336 19.5926 237.688 19.9447L238.14 20.1093L238.568 20.2969L238.748 20.8251C239.276 21.0433 239.276 21.0433 239.804 21.1773V21.5294H240.332V21.8854L240.807 21.9275C241.392 22.0615 241.392 22.0615 241.897 22.4021L242.272 22.7658V23.1179L243.156 23.294L243.332 23.8261H243.86V24.1782L244.564 24.3543V24.7065H245.092V25.0586L245.513 25.2232C245.976 25.4108 245.976 25.4108 246.328 25.5868V25.939H246.856V26.295L247.74 26.6471V26.9993L248.134 27.1409C248.601 27.3438 248.949 27.5428 249.324 27.8797V28.2357L250.208 28.5878V28.94L250.912 29.116V29.4682L251.234 29.6213C251.617 29.8204 251.617 29.8204 252.148 30.1725V30.5285L252.443 30.6586C252.933 30.9228 253.342 31.2405 253.778 31.585L254.253 31.9601L254.617 32.2893V32.6452H254.969V32.9974H255.321V33.3496L255.65 33.5141L256.381 33.8778V34.2299L257.085 34.5821V34.9381H257.613C257.903 35.2137 257.903 35.2137 258.21 35.585C258.776 36.2778 259.392 36.8979 260.031 37.5256C260.368 37.8548 260.704 38.1878 261.041 38.5209L261.386 38.8539C262.055 39.5199 262.637 40.2013 263.188 40.9668C263.525 41.407 263.919 41.7783 264.313 42.1687C264.711 42.6204 265.09 43.0836 265.472 43.5467L265.794 43.941C266.639 44.9745 267.447 46.0309 268.239 47.1065C268.56 47.5429 268.866 47.9601 269.249 48.3429V48.8711H269.605C269.903 49.2654 270.19 49.6711 270.462 50.0845L270.719 50.4635C270.902 50.7353 271.082 51.0032 271.262 51.275C271.541 51.6922 271.824 52.1094 272.104 52.5267C272.919 53.7362 273.734 54.9496 274.468 56.2128C274.648 56.5152 274.836 56.8176 275.023 57.1161C276.152 58.8961 277.109 60.7525 278.065 62.6281L278.276 63.0377C278.926 64.32 279.562 65.6023 280.143 66.9114C280.392 67.4626 280.645 68.0061 280.901 68.5497C281.272 69.3573 281.624 70.1765 281.949 71.0071C282.137 71.4894 282.34 71.964 282.542 72.4387C283.377 74.4406 284.107 76.4732 284.769 78.5363C284.896 79.011 284.896 79.011 285.122 79.21C285.125 79.5622 285.129 79.9143 285.122 80.2665H285.474L285.558 80.5842C285.741 81.254 285.921 81.9239 286.105 82.5937C286.354 83.5162 286.614 84.4349 286.882 85.3497C287.215 86.4981 287.498 87.6579 287.777 88.8215L287.907 89.3689C288.037 89.9201 288.167 90.4713 288.294 91.0263L288.424 91.5966C288.776 93.1775 289.044 94.7622 289.296 96.3622C289.361 96.7871 289.43 97.2158 289.499 97.6407C290.337 102.908 290.444 108.144 290.444 113.465C290.444 114.062 290.444 114.663 290.444 115.264C290.46 118.785 290.417 122.269 290.058 125.775L290 126.341C289.22 133.771 287.448 140.917 285.122 147.999C285.003 148.362 284.884 148.73 284.766 149.097C284.303 150.525 283.824 151.934 283.224 153.312C283.009 153.802 282.814 154.299 282.619 154.797C282.179 155.93 281.678 157.036 281.119 158.116C280.928 158.498 280.763 158.893 280.625 159.298C280.354 160.079 279.94 160.776 279.531 161.488C279.328 161.882 279.206 162.207 279.125 162.636H278.773L278.712 163.023C278.306 164.768 277.093 166.418 276.183 167.941C275.877 168.462 275.578 168.986 275.291 169.518C274.924 170.188 274.507 170.82 274.071 171.448C273.845 171.796 273.657 172.144 273.481 172.516H273.129V173.044H272.777L272.701 173.377C272.601 173.752 272.601 173.752 272.425 174.104H272.073L272.008 174.418C271.889 174.824 271.744 175.08 271.503 175.425L271.262 175.777L271.002 176.14L270.738 176.523C270.118 177.407 269.49 178.284 268.847 179.157C268.572 179.536 268.304 179.922 268.04 180.309L267.665 180.807H267.313V181.335H266.957L266.429 182.391H266.077L265.954 182.766C265.675 183.386 265.277 183.85 264.829 184.355L264.301 184.967L264.034 185.274C263.682 185.687 263.341 186.112 263 186.537C261.332 188.585 259.457 190.452 257.59 192.317C257.215 192.692 256.84 193.067 256.465 193.442L255.405 194.502C254.639 195.264 253.844 195.976 253.029 196.68C252.814 196.872 252.596 197.059 252.382 197.251L251.762 197.794L251.444 198.074C250.882 198.564 250.404 198.923 249.68 199.149V199.501C249.42 199.731 249.42 199.731 249.083 199.964L248.75 200.202L248.444 200.386H248.092V200.738C247.725 201.021 247.35 201.293 246.967 201.553L246.646 201.779C246.367 201.966 246.083 202.146 245.8 202.322H245.448V202.678H244.916V203.031C244.557 203.291 244.185 203.536 243.807 203.769L243.125 204.194L242.781 204.409C242.146 204.807 241.522 205.224 240.898 205.637C240.508 205.852 240.508 205.852 239.98 205.852V206.204C239.574 206.491 239.574 206.491 239.1 206.732H238.568V207.088L238.178 207.298L237.654 207.582L237.141 207.861C236.808 208.045 236.479 208.24 236.157 208.443C235.748 208.673 235.748 208.673 235.22 208.673V209.029L234.868 209.197C233.992 209.626 233.131 210.066 232.281 210.548L231.853 210.789C231.573 210.95 231.294 211.111 231.015 211.276L230.62 211.501L230.268 211.704C229.932 211.85 229.932 211.85 229.224 211.85V212.202C226.591 213.568 226.591 213.568 225.168 213.79V214.143L224.816 214.495C224.758 214.992 224.758 214.992 224.762 215.582L224.754 216.275L224.751 217.025C224.747 217.281 224.743 217.538 224.739 217.79C224.731 218.464 224.728 219.138 224.72 219.811C224.712 220.891 224.701 221.97 224.689 223.05C224.685 223.425 224.682 223.804 224.678 224.179L224.67 224.872L224.666 225.484C224.64 225.959 224.64 225.959 224.464 226.311L156.225 226.487V226.667H151.741C144.237 226.671 136.733 226.671 129.229 226.671H128.85L116.315 226.675C112.017 226.675 107.72 226.678 103.423 226.678C98.3836 226.682 93.3479 226.682 88.3084 226.682H87.9372C85.9627 226.682 83.9844 226.682 82.0061 226.682C80.024 226.686 78.038 226.686 76.052 226.686C74.9768 226.686 73.9015 226.686 72.8225 226.686C71.8391 226.686 70.8556 226.686 69.8722 226.686C69.5164 226.686 69.1567 226.686 68.8008 226.686C68.3187 226.686 67.8365 226.686 67.3505 226.686L66.922 226.69C66.5967 226.686 66.2715 226.678 65.9462 226.667L65.7702 226.487C65.4258 226.472 65.0776 226.468 64.7332 226.468L64.0444 226.464L63.2791 226.468H62.4717C61.7332 226.468 60.9909 226.468 60.2485 226.468C59.4526 226.468 58.6529 226.468 57.8531 226.468C56.4718 226.468 55.0866 226.468 53.7014 226.472C51.7001 226.472 49.6988 226.472 47.6975 226.472C44.4527 226.472 41.2039 226.476 37.9591 226.476C34.806 226.476 31.6491 226.479 28.4961 226.479H24.9833C16.8903 226.483 8.79717 226.483 0.707906 226.487L0.528059 225.959H0V1.24609Z"/>
</mask>
<path d="M0 1.24609H224.288V1.59825H224.64V13.0662H224.992V13.4184L225.279 13.5026C226.361 13.8433 227.337 14.3026 228.344 14.827C228.562 14.938 228.784 15.049 229.006 15.16L234.34 17.828V18.1801L234.711 18.2299C235.319 18.383 235.771 18.6395 236.31 18.961L236.869 19.294C237.336 19.5926 237.336 19.5926 237.688 19.9447L238.14 20.1093L238.568 20.2969L238.748 20.8251C239.276 21.0433 239.276 21.0433 239.804 21.1773V21.5294H240.332V21.8854L240.807 21.9275C241.392 22.0615 241.392 22.0615 241.897 22.4021L242.272 22.7658V23.1179L243.156 23.294L243.332 23.8261H243.86V24.1782L244.564 24.3543V24.7065H245.092V25.0586L245.513 25.2232C245.976 25.4108 245.976 25.4108 246.328 25.5868V25.939H246.856V26.295L247.74 26.6471V26.9993L248.134 27.1409C248.601 27.3438 248.949 27.5428 249.324 27.8797V28.2357L250.208 28.5878V28.94L250.912 29.116V29.4682L251.234 29.6213C251.617 29.8204 251.617 29.8204 252.148 30.1725V30.5285L252.443 30.6586C252.933 30.9228 253.342 31.2405 253.778 31.585L254.253 31.9601L254.617 32.2893V32.6452H254.969V32.9974H255.321V33.3496L255.65 33.5141L256.381 33.8778V34.2299L257.085 34.5821V34.9381H257.613C257.903 35.2137 257.903 35.2137 258.21 35.585C258.776 36.2778 259.392 36.8979 260.031 37.5256C260.368 37.8548 260.704 38.1878 261.041 38.5209L261.386 38.8539C262.055 39.5199 262.637 40.2013 263.188 40.9668C263.525 41.407 263.919 41.7783 264.313 42.1687C264.711 42.6204 265.09 43.0836 265.472 43.5467L265.794 43.941C266.639 44.9745 267.447 46.0309 268.239 47.1065C268.56 47.5429 268.866 47.9601 269.249 48.3429V48.8711H269.605C269.903 49.2654 270.19 49.6711 270.462 50.0845L270.719 50.4635C270.902 50.7353 271.082 51.0032 271.262 51.275C271.541 51.6922 271.824 52.1094 272.104 52.5267C272.919 53.7362 273.734 54.9496 274.468 56.2128C274.648 56.5152 274.836 56.8176 275.023 57.1161C276.152 58.8961 277.109 60.7525 278.065 62.6281L278.276 63.0377C278.926 64.32 279.562 65.6023 280.143 66.9114C280.392 67.4626 280.645 68.0061 280.901 68.5497C281.272 69.3573 281.624 70.1765 281.949 71.0071C282.137 71.4894 282.34 71.964 282.542 72.4387C283.377 74.4406 284.107 76.4732 284.769 78.5363C284.896 79.011 284.896 79.011 285.122 79.21C285.125 79.5622 285.129 79.9143 285.122 80.2665H285.474L285.558 80.5842C285.741 81.254 285.921 81.9239 286.105 82.5937C286.354 83.5162 286.614 84.4349 286.882 85.3497C287.215 86.4981 287.498 87.6579 287.777 88.8215L287.907 89.3689C288.037 89.9201 288.167 90.4713 288.294 91.0263L288.424 91.5966C288.776 93.1775 289.044 94.7622 289.296 96.3622C289.361 96.7871 289.43 97.2158 289.499 97.6407C290.337 102.908 290.444 108.144 290.444 113.465C290.444 114.062 290.444 114.663 290.444 115.264C290.46 118.785 290.417 122.269 290.058 125.775L290 126.341C289.22 133.771 287.448 140.917 285.122 147.999C285.003 148.362 284.884 148.73 284.766 149.097C284.303 150.525 283.824 151.934 283.224 153.312C283.009 153.802 282.814 154.299 282.619 154.797C282.179 155.93 281.678 157.036 281.119 158.116C280.928 158.498 280.763 158.893 280.625 159.298C280.354 160.079 279.94 160.776 279.531 161.488C279.328 161.882 279.206 162.207 279.125 162.636H278.773L278.712 163.023C278.306 164.768 277.093 166.418 276.183 167.941C275.877 168.462 275.578 168.986 275.291 169.518C274.924 170.188 274.507 170.82 274.071 171.448C273.845 171.796 273.657 172.144 273.481 172.516H273.129V173.044H272.777L272.701 173.377C272.601 173.752 272.601 173.752 272.425 174.104H272.073L272.008 174.418C271.889 174.824 271.744 175.08 271.503 175.425L271.262 175.777L271.002 176.14L270.738 176.523C270.118 177.407 269.49 178.284 268.847 179.157C268.572 179.536 268.304 179.922 268.04 180.309L267.665 180.807H267.313V181.335H266.957L266.429 182.391H266.077L265.954 182.766C265.675 183.386 265.277 183.85 264.829 184.355L264.301 184.967L264.034 185.274C263.682 185.687 263.341 186.112 263 186.537C261.332 188.585 259.457 190.452 257.59 192.317C257.215 192.692 256.84 193.067 256.465 193.442L255.405 194.502C254.639 195.264 253.844 195.976 253.029 196.68C252.814 196.872 252.596 197.059 252.382 197.251L251.762 197.794L251.444 198.074C250.882 198.564 250.404 198.923 249.68 199.149V199.501C249.42 199.731 249.42 199.731 249.083 199.964L248.75 200.202L248.444 200.386H248.092V200.738C247.725 201.021 247.35 201.293 246.967 201.553L246.646 201.779C246.367 201.966 246.083 202.146 245.8 202.322H245.448V202.678H244.916V203.031C244.557 203.291 244.185 203.536 243.807 203.769L243.125 204.194L242.781 204.409C242.146 204.807 241.522 205.224 240.898 205.637C240.508 205.852 240.508 205.852 239.98 205.852V206.204C239.574 206.491 239.574 206.491 239.1 206.732H238.568V207.088L238.178 207.298L237.654 207.582L237.141 207.861C236.808 208.045 236.479 208.24 236.157 208.443C235.748 208.673 235.748 208.673 235.22 208.673V209.029L234.868 209.197C233.992 209.626 233.131 210.066 232.281 210.548L231.853 210.789C231.573 210.95 231.294 211.111 231.015 211.276L230.62 211.501L230.268 211.704C229.932 211.85 229.932 211.85 229.224 211.85V212.202C226.591 213.568 226.591 213.568 225.168 213.79V214.143L224.816 214.495C224.758 214.992 224.758 214.992 224.762 215.582L224.754 216.275L224.751 217.025C224.747 217.281 224.743 217.538 224.739 217.79C224.731 218.464 224.728 219.138 224.72 219.811C224.712 220.891 224.701 221.97 224.689 223.05C224.685 223.425 224.682 223.804 224.678 224.179L224.67 224.872L224.666 225.484C224.64 225.959 224.64 225.959 224.464 226.311L156.225 226.487V226.667H151.741C144.237 226.671 136.733 226.671 129.229 226.671H128.85L116.315 226.675C112.017 226.675 107.72 226.678 103.423 226.678C98.3836 226.682 93.3479 226.682 88.3084 226.682H87.9372C85.9627 226.682 83.9844 226.682 82.0061 226.682C80.024 226.686 78.038 226.686 76.052 226.686C74.9768 226.686 73.9015 226.686 72.8225 226.686C71.8391 226.686 70.8556 226.686 69.8722 226.686C69.5164 226.686 69.1567 226.686 68.8008 226.686C68.3187 226.686 67.8365 226.686 67.3505 226.686L66.922 226.69C66.5967 226.686 66.2715 226.678 65.9462 226.667L65.7702 226.487C65.4258 226.472 65.0776 226.468 64.7332 226.468L64.0444 226.464L63.2791 226.468H62.4717C61.7332 226.468 60.9909 226.468 60.2485 226.468C59.4526 226.468 58.6529 226.468 57.8531 226.468C56.4718 226.468 55.0866 226.468 53.7014 226.472C51.7001 226.472 49.6988 226.472 47.6975 226.472C44.4527 226.472 41.2039 226.476 37.9591 226.476C34.806 226.476 31.6491 226.479 28.4961 226.479H24.9833C16.8903 226.483 8.79717 226.483 0.707906 226.487L0.528059 225.959H0V1.24609Z" fill="#FDEBE6" stroke="black" stroke-width="2" mask="url(#path-1-inside-1_196_629)"/>
<mask id="path-2-inside-2_196_629" fill="white">
<path d="M0 1.24609H224.288V1.59825H224.64V13.0662H224.992V13.4184L225.279 13.5026C226.361 13.8433 227.337 14.3026 228.344 14.827C228.562 14.938 228.784 15.049 229.006 15.16L234.34 17.828V18.1801L234.711 18.2299C235.319 18.383 235.771 18.6395 236.31 18.961L236.869 19.294C237.336 19.5926 237.336 19.5926 237.688 19.9447L238.14 20.1093L238.568 20.2969L238.748 20.8251C239.276 21.0433 239.276 21.0433 239.804 21.1773V21.5294H240.332V21.8854L240.807 21.9275C241.392 22.0615 241.392 22.0615 241.897 22.4021L242.272 22.7658V23.1179L243.156 23.294L243.332 23.8261H243.86V24.1782L244.564 24.3543V24.7065H245.092V25.0586L245.513 25.2232C245.976 25.4108 245.976 25.4108 246.328 25.5868V25.939H246.856V26.295L247.74 26.6471V26.9993L248.134 27.1409C248.601 27.3438 248.949 27.5428 249.324 27.8797V28.2357L250.208 28.5878V28.94L250.912 29.116V29.4682L251.234 29.6213C251.617 29.8204 251.617 29.8204 252.148 30.1725V30.5285L252.443 30.6586C252.933 30.9228 253.342 31.2405 253.778 31.585L254.253 31.9601L254.617 32.2893V32.6452H254.969V32.9974H255.321V33.3496L255.65 33.5141L256.381 33.8778V34.2299L257.085 34.5821V34.9381H257.613C257.903 35.2137 257.903 35.2137 258.21 35.585C258.776 36.2778 259.392 36.8979 260.031 37.5256C260.368 37.8548 260.704 38.1878 261.041 38.5209L261.386 38.8539C262.055 39.5199 262.637 40.2013 263.188 40.9668C263.525 41.407 263.919 41.7783 264.313 42.1687C264.711 42.6204 265.09 43.0836 265.472 43.5467L265.794 43.941C266.639 44.9745 267.447 46.0309 268.239 47.1065C268.56 47.5429 268.866 47.9601 269.249 48.3429V48.8711H269.605C269.903 49.2654 270.19 49.6711 270.462 50.0845L270.719 50.4635C270.902 50.7353 271.082 51.0032 271.262 51.275C271.541 51.6922 271.824 52.1094 272.104 52.5267C272.919 53.7362 273.734 54.9496 274.468 56.2128C274.648 56.5152 274.836 56.8176 275.023 57.1161C276.152 58.8961 277.109 60.7525 278.065 62.6281L278.276 63.0377C278.926 64.32 279.562 65.6023 280.143 66.9114C280.392 67.4626 280.645 68.0061 280.901 68.5497C281.272 69.3573 281.624 70.1765 281.949 71.0071C282.137 71.4894 282.34 71.964 282.542 72.4387C283.377 74.4406 284.107 76.4732 284.769 78.5363C284.896 79.011 284.896 79.011 285.122 79.21C285.125 79.5622 285.129 79.9143 285.122 80.2665H285.474L285.558 80.5842C285.741 81.254 285.921 81.9239 286.105 82.5937C286.354 83.5162 286.614 84.4349 286.882 85.3497C287.215 86.4981 287.498 87.6579 287.777 88.8215L287.907 89.3689C288.037 89.9201 288.167 90.4713 288.294 91.0263L288.424 91.5966C288.776 93.1775 289.044 94.7622 289.296 96.3622C289.361 96.7871 289.43 97.2158 289.499 97.6407C290.337 102.908 290.444 108.144 290.444 113.465C290.444 114.062 290.444 114.663 290.444 115.264C290.46 118.785 290.417 122.269 290.058 125.775L290 126.341C289.22 133.771 287.448 140.917 285.122 147.999C285.003 148.362 284.884 148.73 284.766 149.097C284.303 150.525 283.824 151.934 283.224 153.312C283.009 153.802 282.814 154.299 282.619 154.797C282.179 155.93 281.678 157.036 281.119 158.116C280.928 158.498 280.763 158.893 280.625 159.298C280.354 160.079 279.94 160.776 279.531 161.488C279.328 161.882 279.206 162.207 279.125 162.636H278.773L278.712 163.023C278.306 164.768 277.093 166.418 276.183 167.941C275.877 168.462 275.578 168.986 275.291 169.518C274.924 170.188 274.507 170.82 274.071 171.448C273.845 171.796 273.657 172.144 273.481 172.516H273.129V173.044H272.777L272.701 173.377C272.601 173.752 272.601 173.752 272.425 174.104H272.073L272.008 174.418C271.889 174.824 271.744 175.08 271.503 175.425L271.262 175.777L271.002 176.14L270.738 176.523C270.118 177.407 269.49 178.284 268.847 179.157C268.572 179.536 268.304 179.922 268.04 180.309L267.665 180.807H267.313V181.335H266.957L266.429 182.391H266.077L265.954 182.766C265.675 183.386 265.277 183.85 264.829 184.355L264.301 184.967L264.034 185.274C263.682 185.687 263.341 186.112 263 186.537C261.332 188.585 259.457 190.452 257.59 192.317C257.215 192.692 256.84 193.067 256.465 193.442L255.405 194.502C254.639 195.264 253.844 195.976 253.029 196.68C252.814 196.872 252.596 197.059 252.382 197.251L251.762 197.794L251.444 198.074C250.882 198.564 250.404 198.923 249.68 199.149V199.501C249.42 199.731 249.42 199.731 249.083 199.964L248.75 200.202L248.444 200.386H248.092V200.738C247.725 201.021 247.35 201.293 246.967 201.553L246.646 201.779C246.367 201.966 246.083 202.146 245.8 202.322H245.448V202.678H244.916V203.031C244.557 203.291 244.185 203.536 243.807 203.769L243.125 204.194L242.781 204.409C242.146 204.807 241.522 205.224 240.898 205.637C240.508 205.852 240.508 205.852 239.98 205.852V206.204C239.574 206.491 239.574 206.491 239.1 206.732H238.568V207.088L238.178 207.298L237.654 207.582L237.141 207.861C236.808 208.045 236.479 208.24 236.157 208.443C235.748 208.673 235.748 208.673 235.22 208.673V209.029L234.868 209.197C233.992 209.626 233.131 210.066 232.281 210.548L231.853 210.789C231.573 210.95 231.294 211.111 231.015 211.276L230.62 211.501L230.268 211.704C229.932 211.85 229.932 211.85 229.224 211.85V212.202C226.591 213.568 226.591 213.568 225.168 213.79V214.143L224.816 214.495C224.758 214.992 224.758 214.992 224.762 215.582L224.754 216.275L224.751 217.025C224.747 217.281 224.743 217.538 224.739 217.79C224.731 218.464 224.728 219.138 224.72 219.811C224.712 220.891 224.701 221.97 224.689 223.05C224.685 223.425 224.682 223.804 224.678 224.179L224.67 224.872L224.666 225.484C224.64 225.959 224.64 225.959 224.464 226.311L156.225 226.487V226.667H151.741C144.237 226.671 136.733 226.671 129.229 226.671H128.85L116.315 226.675C112.017 226.675 107.72 226.678 103.423 226.678C98.3836 226.682 93.3479 226.682 88.3084 226.682H87.9372C85.9627 226.682 83.9844 226.682 82.0061 226.682C80.024 226.686 78.038 226.686 76.052 226.686C74.9768 226.686 73.9015 226.686 72.8225 226.686C71.8391 226.686 70.8556 226.686 69.8722 226.686C69.5164 226.686 69.1567 226.686 68.8008 226.686C68.3187 226.686 67.8365 226.686 67.3505 226.686L66.922 226.69C66.5967 226.686 66.2715 226.678 65.9462 226.667L65.7702 226.487C65.4258 226.472 65.0776 226.468 64.7332 226.468L64.0444 226.464L63.2791 226.468H62.4717C61.7332 226.468 60.9909 226.468 60.2485 226.468C59.4526 226.468 58.6529 226.468 57.8531 226.468C56.4718 226.468 55.0866 226.468 53.7014 226.472C51.7001 226.472 49.6988 226.472 47.6975 226.472C44.4527 226.472 41.2039 226.476 37.9591 226.476C34.806 226.476 31.6491 226.479 28.4961 226.479H24.9833C16.8903 226.483 8.79717 226.483 0.707906 226.487L0.528059 225.959H0V1.24609Z"/>
</mask>
<path d="M0 1.24609H224.288V1.59825H224.64V13.0662H224.992V13.4184L225.279 13.5026C226.361 13.8433 227.337 14.3026 228.344 14.827C228.562 14.938 228.784 15.049 229.006 15.16L234.34 17.828V18.1801L234.711 18.2299C235.319 18.383 235.771 18.6395 236.31 18.961L236.869 19.294C237.336 19.5926 237.336 19.5926 237.688 19.9447L238.14 20.1093L238.568 20.2969L238.748 20.8251C239.276 21.0433 239.276 21.0433 239.804 21.1773V21.5294H240.332V21.8854L240.807 21.9275C241.392 22.0615 241.392 22.0615 241.897 22.4021L242.272 22.7658V23.1179L243.156 23.294L243.332 23.8261H243.86V24.1782L244.564 24.3543V24.7065H245.092V25.0586L245.513 25.2232C245.976 25.4108 245.976 25.4108 246.328 25.5868V25.939H246.856V26.295L247.74 26.6471V26.9993L248.134 27.1409C248.601 27.3438 248.949 27.5428 249.324 27.8797V28.2357L250.208 28.5878V28.94L250.912 29.116V29.4682L251.234 29.6213C251.617 29.8204 251.617 29.8204 252.148 30.1725V30.5285L252.443 30.6586C252.933 30.9228 253.342 31.2405 253.778 31.585L254.253 31.9601L254.617 32.2893V32.6452H254.969V32.9974H255.321V33.3496L255.65 33.5141L256.381 33.8778V34.2299L257.085 34.5821V34.9381H257.613C257.903 35.2137 257.903 35.2137 258.21 35.585C258.776 36.2778 259.392 36.8979 260.031 37.5256C260.368 37.8548 260.704 38.1878 261.041 38.5209L261.386 38.8539C262.055 39.5199 262.637 40.2013 263.188 40.9668C263.525 41.407 263.919 41.7783 264.313 42.1687C264.711 42.6204 265.09 43.0836 265.472 43.5467L265.794 43.941C266.639 44.9745 267.447 46.0309 268.239 47.1065C268.56 47.5429 268.866 47.9601 269.249 48.3429V48.8711H269.605C269.903 49.2654 270.19 49.6711 270.462 50.0845L270.719 50.4635C270.902 50.7353 271.082 51.0032 271.262 51.275C271.541 51.6922 271.824 52.1094 272.104 52.5267C272.919 53.7362 273.734 54.9496 274.468 56.2128C274.648 56.5152 274.836 56.8176 275.023 57.1161C276.152 58.8961 277.109 60.7525 278.065 62.6281L278.276 63.0377C278.926 64.32 279.562 65.6023 280.143 66.9114C280.392 67.4626 280.645 68.0061 280.901 68.5497C281.272 69.3573 281.624 70.1765 281.949 71.0071C282.137 71.4894 282.34 71.964 282.542 72.4387C283.377 74.4406 284.107 76.4732 284.769 78.5363C284.896 79.011 284.896 79.011 285.122 79.21C285.125 79.5622 285.129 79.9143 285.122 80.2665H285.474L285.558 80.5842C285.741 81.254 285.921 81.9239 286.105 82.5937C286.354 83.5162 286.614 84.4349 286.882 85.3497C287.215 86.4981 287.498 87.6579 287.777 88.8215L287.907 89.3689C288.037 89.9201 288.167 90.4713 288.294 91.0263L288.424 91.5966C288.776 93.1775 289.044 94.7622 289.296 96.3622C289.361 96.7871 289.43 97.2158 289.499 97.6407C290.337 102.908 290.444 108.144 290.444 113.465C290.444 114.062 290.444 114.663 290.444 115.264C290.46 118.785 290.417 122.269 290.058 125.775L290 126.341C289.22 133.771 287.448 140.917 285.122 147.999C285.003 148.362 284.884 148.73 284.766 149.097C284.303 150.525 283.824 151.934 283.224 153.312C283.009 153.802 282.814 154.299 282.619 154.797C282.179 155.93 281.678 157.036 281.119 158.116C280.928 158.498 280.763 158.893 280.625 159.298C280.354 160.079 279.94 160.776 279.531 161.488C279.328 161.882 279.206 162.207 279.125 162.636H278.773L278.712 163.023C278.306 164.768 277.093 166.418 276.183 167.941C275.877 168.462 275.578 168.986 275.291 169.518C274.924 170.188 274.507 170.82 274.071 171.448C273.845 171.796 273.657 172.144 273.481 172.516H273.129V173.044H272.777L272.701 173.377C272.601 173.752 272.601 173.752 272.425 174.104H272.073L272.008 174.418C271.889 174.824 271.744 175.08 271.503 175.425L271.262 175.777L271.002 176.14L270.738 176.523C270.118 177.407 269.49 178.284 268.847 179.157C268.572 179.536 268.304 179.922 268.04 180.309L267.665 180.807H267.313V181.335H266.957L266.429 182.391H266.077L265.954 182.766C265.675 183.386 265.277 183.85 264.829 184.355L264.301 184.967L264.034 185.274C263.682 185.687 263.341 186.112 263 186.537C261.332 188.585 259.457 190.452 257.59 192.317C257.215 192.692 256.84 193.067 256.465 193.442L255.405 194.502C254.639 195.264 253.844 195.976 253.029 196.68C252.814 196.872 252.596 197.059 252.382 197.251L251.762 197.794L251.444 198.074C250.882 198.564 250.404 198.923 249.68 199.149V199.501C249.42 199.731 249.42 199.731 249.083 199.964L248.75 200.202L248.444 200.386H248.092V200.738C247.725 201.021 247.35 201.293 246.967 201.553L246.646 201.779C246.367 201.966 246.083 202.146 245.8 202.322H245.448V202.678H244.916V203.031C244.557 203.291 244.185 203.536 243.807 203.769L243.125 204.194L242.781 204.409C242.146 204.807 241.522 205.224 240.898 205.637C240.508 205.852 240.508 205.852 239.98 205.852V206.204C239.574 206.491 239.574 206.491 239.1 206.732H238.568V207.088L238.178 207.298L237.654 207.582L237.141 207.861C236.808 208.045 236.479 208.24 236.157 208.443C235.748 208.673 235.748 208.673 235.22 208.673V209.029L234.868 209.197C233.992 209.626 233.131 210.066 232.281 210.548L231.853 210.789C231.573 210.95 231.294 211.111 231.015 211.276L230.62 211.501L230.268 211.704C229.932 211.85 229.932 211.85 229.224 211.85V212.202C226.591 213.568 226.591 213.568 225.168 213.79V214.143L224.816 214.495C224.758 214.992 224.758 214.992 224.762 215.582L224.754 216.275L224.751 217.025C224.747 217.281 224.743 217.538 224.739 217.79C224.731 218.464 224.728 219.138 224.72 219.811C224.712 220.891 224.701 221.97 224.689 223.05C224.685 223.425 224.682 223.804 224.678 224.179L224.67 224.872L224.666 225.484C224.64 225.959 224.64 225.959 224.464 226.311L156.225 226.487V226.667H151.741C144.237 226.671 136.733 226.671 129.229 226.671H128.85L116.315 226.675C112.017 226.675 107.72 226.678 103.423 226.678C98.3836 226.682 93.3479 226.682 88.3084 226.682H87.9372C85.9627 226.682 83.9844 226.682 82.0061 226.682C80.024 226.686 78.038 226.686 76.052 226.686C74.9768 226.686 73.9015 226.686 72.8225 226.686C71.8391 226.686 70.8556 226.686 69.8722 226.686C69.5164 226.686 69.1567 226.686 68.8008 226.686C68.3187 226.686 67.8365 226.686 67.3505 226.686L66.922 226.69C66.5967 226.686 66.2715 226.678 65.9462 226.667L65.7702 226.487C65.4258 226.472 65.0776 226.468 64.7332 226.468L64.0444 226.464L63.2791 226.468H62.4717C61.7332 226.468 60.9909 226.468 60.2485 226.468C59.4526 226.468 58.6529 226.468 57.8531 226.468C56.4718 226.468 55.0866 226.468 53.7014 226.472C51.7001 226.472 49.6988 226.472 47.6975 226.472C44.4527 226.472 41.2039 226.476 37.9591 226.476C34.806 226.476 31.6491 226.479 28.4961 226.479H24.9833C16.8903 226.483 8.79717 226.483 0.707906 226.487L0.528059 225.959H0V1.24609Z" fill="#FDEBE6" stroke="black" stroke-width="2" mask="url(#path-2-inside-2_196_629)"/>
<mask id="path-3-inside-3_196_629" fill="white">
<path d="M225.016 13.269C225.273 13.3534 225.525 13.4339 225.781 13.5182L226.21 13.6601C226.657 13.8172 227.074 14.0089 227.495 14.2274L227.946 14.4612L228.367 14.6797C228.585 14.7909 228.807 14.9021 229.029 15.0132L234.361 17.6851V18.0378L234.732 18.0877C235.34 18.241 235.792 18.4978 236.331 18.8198L236.889 19.1533C237.356 19.4524 237.356 19.4524 237.708 19.805L238.159 19.9699L238.588 20.1577L238.767 20.6867C239.295 20.9052 239.295 20.9052 239.823 21.0394V21.3921H240.351V21.7486L240.825 21.7907C241.411 21.9249 241.411 21.9249 241.915 22.2661L242.29 22.6303V22.9829L243.174 23.1593L243.35 23.6921H243.878V24.0448L244.582 24.2211V24.5738H245.109V24.9265L245.53 25.0913C245.993 25.2792 245.993 25.2792 246.345 25.4555V25.8082H246.873V26.1647L247.756 26.5173V26.87L248.15 27.0119C248.617 27.215 248.965 27.4144 249.34 27.7517V28.1082L250.223 28.4609V28.8136L250.927 28.9899V29.3426L251.249 29.4959C251.631 29.6953 251.631 29.6953 252.163 30.0479V30.4044L252.457 30.5348C252.947 30.7993 253.356 31.1175 253.792 31.4625L254.267 31.8381L254.63 32.1678V32.5243H254.982V32.877H255.334V33.2297L255.663 33.3945L256.393 33.7587V34.1114L257.097 34.464V34.8205H257.625C257.916 35.0965 257.916 35.0965 258.222 35.4684C258.788 36.1622 259.404 36.7833 260.042 37.4119C260.379 37.7416 260.716 38.0751 261.052 38.4086L261.396 38.7421C262.066 39.4091 262.647 40.0915 263.198 40.8582C263.535 41.299 263.929 41.6709 264.323 42.0619C264.72 42.5142 265.099 42.9781 265.482 43.4419L265.803 43.8367C266.648 44.8718 267.455 45.9298 268.247 47.007C268.568 47.444 268.874 47.8618 269.257 48.2452V48.7742H269.613C269.911 49.169 270.198 49.5754 270.469 49.9894L270.726 50.3689C270.909 50.6411 271.089 50.9094 271.269 51.1816C271.548 51.5994 271.831 52.0173 272.11 52.4351C272.925 53.6465 273.74 54.8617 274.474 56.1267C274.654 56.4295 274.841 56.7324 275.029 57.0314C276.157 58.8139 277.113 60.6731 278.07 62.5515L278.28 62.9617C278.93 64.2459 279.565 65.5301 280.147 66.8411C280.395 67.3931 280.648 67.9375 280.904 68.4818C281.275 69.2907 281.627 70.111 281.952 70.9429C282.14 71.4259 282.342 71.9012 282.545 72.3766C283.379 74.3814 284.11 76.417 284.771 78.4832C284.897 78.9585 284.897 78.9585 285.123 79.1579C285.127 79.5106 285.131 79.8632 285.123 80.2159H285.475L285.559 80.5341L285.957 82.0061L286.106 82.5466C286.355 83.4705 286.615 84.3905 286.883 85.3067C287.215 86.4567 287.498 87.6182 287.778 88.7836L287.908 89.3318C288.038 89.8838 288.168 90.4358 288.294 90.9917L288.424 91.5628C288.776 93.146 289.044 94.7331 289.296 96.3354C289.361 96.7609 289.43 97.1903 289.499 97.6158C290.337 102.891 290.444 108.135 290.444 113.463C290.444 114.061 290.444 114.663 290.444 115.265C290.459 118.792 290.417 122.28 290.057 125.791L290 126.359C289.22 133.799 287.449 140.956 285.123 148.048C285.005 148.412 284.886 148.78 284.767 149.148C284.305 150.578 283.826 151.989 283.226 153.369C283.012 153.86 282.817 154.358 282.622 154.856C282.182 155.991 281.681 157.099 281.122 158.18C280.931 158.563 280.766 158.958 280.629 159.365C280.357 160.147 279.944 160.844 279.535 161.557C279.332 161.952 279.21 162.278 279.129 162.707H278.777L278.716 163.094C278.311 164.843 277.098 166.495 276.188 168.02C275.882 168.542 275.583 169.067 275.297 169.6C274.929 170.271 274.512 170.903 274.076 171.532C273.851 171.881 273.663 172.23 273.487 172.601H273.135V173.13H272.784L272.707 173.464C272.608 173.84 272.608 173.84 272.432 174.192H272.08L272.015 174.507C271.896 174.913 271.751 175.17 271.51 175.515L271.269 175.867L271.009 176.232L270.745 176.615C270.125 177.5 269.498 178.378 268.855 179.252C268.58 179.632 268.312 180.019 268.048 180.406L267.673 180.905H267.321V181.434H266.966L266.438 182.492H266.086L265.964 182.867C265.684 183.488 265.286 183.952 264.839 184.458L264.311 185.071L264.043 185.378C263.691 185.792 263.351 186.218 263.011 186.643C261.343 188.694 259.469 190.565 257.602 192.432C257.227 192.807 256.852 193.183 256.477 193.559L255.418 194.621C254.653 195.383 253.857 196.096 253.043 196.802C252.828 196.993 252.61 197.181 252.396 197.373L251.776 197.917L251.459 198.197C250.897 198.688 250.419 199.048 249.696 199.274V199.627C249.436 199.857 249.436 199.857 249.099 200.091L248.766 200.328L248.46 200.512H248.108V200.865C247.741 201.149 247.366 201.421 246.984 201.682L246.662 201.908C246.383 202.096 246.1 202.276 245.817 202.452H245.465V202.809H244.933V203.161C244.574 203.422 244.203 203.667 243.824 203.901L243.143 204.327L242.799 204.541C242.164 204.94 241.541 205.358 240.917 205.772C240.527 205.987 240.527 205.987 239.999 205.987V206.339C239.594 206.627 239.594 206.627 239.119 206.868H238.588V207.225L238.198 207.436L237.673 207.719L237.161 207.999C236.828 208.183 236.499 208.379 236.178 208.582C235.769 208.812 235.769 208.812 235.241 208.812V209.168L234.889 209.337C234.013 209.766 233.152 210.207 232.303 210.69L231.875 210.932C231.596 211.093 231.316 211.254 231.037 211.419L230.643 211.645L230.291 211.848C229.955 211.994 229.955 211.994 229.247 211.994V212.346C226.615 213.715 226.615 213.715 225.192 213.937V214.29H224.84C224.837 184.358 224.837 184.358 224.833 159V130.763C224.833 121.533 224.833 112.298 224.829 103.067C224.825 96.3316 224.825 89.5963 224.825 82.861V69.2102C224.825 64.9014 224.825 60.5888 224.821 56.2762C224.821 51.3234 224.821 46.3706 224.821 41.414V41.0575C224.821 39.0833 224.821 37.1129 224.821 35.1387C224.818 33.4137 224.818 31.6886 224.821 29.9674C224.821 28.9861 224.821 28.0085 224.818 27.0272C224.818 22.4386 224.867 17.8538 225.016 13.269Z"/>
</mask>
<path d="M225.016 13.269C225.273 13.3534 225.525 13.4339 225.781 13.5182L226.21 13.6601C226.657 13.8172 227.074 14.0089 227.495 14.2274L227.946 14.4612L228.367 14.6797C228.585 14.7909 228.807 14.9021 229.029 15.0132L234.361 17.6851V18.0378L234.732 18.0877C235.34 18.241 235.792 18.4978 236.331 18.8198L236.889 19.1533C237.356 19.4524 237.356 19.4524 237.708 19.805L238.159 19.9699L238.588 20.1577L238.767 20.6867C239.295 20.9052 239.295 20.9052 239.823 21.0394V21.3921H240.351V21.7486L240.825 21.7907C241.411 21.9249 241.411 21.9249 241.915 22.2661L242.29 22.6303V22.9829L243.174 23.1593L243.35 23.6921H243.878V24.0448L244.582 24.2211V24.5738H245.109V24.9265L245.53 25.0913C245.993 25.2792 245.993 25.2792 246.345 25.4555V25.8082H246.873V26.1647L247.756 26.5173V26.87L248.15 27.0119C248.617 27.215 248.965 27.4144 249.34 27.7517V28.1082L250.223 28.4609V28.8136L250.927 28.9899V29.3426L251.249 29.4959C251.631 29.6953 251.631 29.6953 252.163 30.0479V30.4044L252.457 30.5348C252.947 30.7993 253.356 31.1175 253.792 31.4625L254.267 31.8381L254.63 32.1678V32.5243H254.982V32.877H255.334V33.2297L255.663 33.3945L256.393 33.7587V34.1114L257.097 34.464V34.8205H257.625C257.916 35.0965 257.916 35.0965 258.222 35.4684C258.788 36.1622 259.404 36.7833 260.042 37.4119C260.379 37.7416 260.716 38.0751 261.052 38.4086L261.396 38.7421C262.066 39.4091 262.647 40.0915 263.198 40.8582C263.535 41.299 263.929 41.6709 264.323 42.0619C264.72 42.5142 265.099 42.9781 265.482 43.4419L265.803 43.8367C266.648 44.8718 267.455 45.9298 268.247 47.007C268.568 47.444 268.874 47.8618 269.257 48.2452V48.7742H269.613C269.911 49.169 270.198 49.5754 270.469 49.9894L270.726 50.3689C270.909 50.6411 271.089 50.9094 271.269 51.1816C271.548 51.5994 271.831 52.0173 272.11 52.4351C272.925 53.6465 273.74 54.8617 274.474 56.1267C274.654 56.4295 274.841 56.7324 275.029 57.0314C276.157 58.8139 277.113 60.6731 278.07 62.5515L278.28 62.9617C278.93 64.2459 279.565 65.5301 280.147 66.8411C280.395 67.3931 280.648 67.9375 280.904 68.4818C281.275 69.2907 281.627 70.111 281.952 70.9429C282.14 71.4259 282.342 71.9012 282.545 72.3766C283.379 74.3814 284.11 76.417 284.771 78.4832C284.897 78.9585 284.897 78.9585 285.123 79.1579C285.127 79.5106 285.131 79.8632 285.123 80.2159H285.475L285.559 80.5341L285.957 82.0061L286.106 82.5466C286.355 83.4705 286.615 84.3905 286.883 85.3067C287.215 86.4567 287.498 87.6182 287.778 88.7836L287.908 89.3318C288.038 89.8838 288.168 90.4358 288.294 90.9917L288.424 91.5628C288.776 93.146 289.044 94.7331 289.296 96.3354C289.361 96.7609 289.43 97.1903 289.499 97.6158C290.337 102.891 290.444 108.135 290.444 113.463C290.444 114.061 290.444 114.663 290.444 115.265C290.459 118.792 290.417 122.28 290.057 125.791L290 126.359C289.22 133.799 287.449 140.956 285.123 148.048C285.005 148.412 284.886 148.78 284.767 149.148C284.305 150.578 283.826 151.989 283.226 153.369C283.012 153.86 282.817 154.358 282.622 154.856C282.182 155.991 281.681 157.099 281.122 158.18C280.931 158.563 280.766 158.958 280.629 159.365C280.357 160.147 279.944 160.844 279.535 161.557C279.332 161.952 279.21 162.278 279.129 162.707H278.777L278.716 163.094C278.311 164.843 277.098 166.495 276.188 168.02C275.882 168.542 275.583 169.067 275.297 169.6C274.929 170.271 274.512 170.903 274.076 171.532C273.851 171.881 273.663 172.23 273.487 172.601H273.135V173.13H272.784L272.707 173.464C272.608 173.84 272.608 173.84 272.432 174.192H272.08L272.015 174.507C271.896 174.913 271.751 175.17 271.51 175.515L271.269 175.867L271.009 176.232L270.745 176.615C270.125 177.5 269.498 178.378 268.855 179.252C268.58 179.632 268.312 180.019 268.048 180.406L267.673 180.905H267.321V181.434H266.966L266.438 182.492H266.086L265.964 182.867C265.684 183.488 265.286 183.952 264.839 184.458L264.311 185.071L264.043 185.378C263.691 185.792 263.351 186.218 263.011 186.643C261.343 188.694 259.469 190.565 257.602 192.432C257.227 192.807 256.852 193.183 256.477 193.559L255.418 194.621C254.653 195.383 253.857 196.096 253.043 196.802C252.828 196.993 252.61 197.181 252.396 197.373L251.776 197.917L251.459 198.197C250.897 198.688 250.419 199.048 249.696 199.274V199.627C249.436 199.857 249.436 199.857 249.099 200.091L248.766 200.328L248.46 200.512H248.108V200.865C247.741 201.149 247.366 201.421 246.984 201.682L246.662 201.908C246.383 202.096 246.1 202.276 245.817 202.452H245.465V202.809H244.933V203.161C244.574 203.422 244.203 203.667 243.824 203.901L243.143 204.327L242.799 204.541C242.164 204.94 241.541 205.358 240.917 205.772C240.527 205.987 240.527 205.987 239.999 205.987V206.339C239.594 206.627 239.594 206.627 239.119 206.868H238.588V207.225L238.198 207.436L237.673 207.719L237.161 207.999C236.828 208.183 236.499 208.379 236.178 208.582C235.769 208.812 235.769 208.812 235.241 208.812V209.168L234.889 209.337C234.013 209.766 233.152 210.207 232.303 210.69L231.875 210.932C231.596 211.093 231.316 211.254 231.037 211.419L230.643 211.645L230.291 211.848C229.955 211.994 229.955 211.994 229.247 211.994V212.346C226.615 213.715 226.615 213.715 225.192 213.937V214.29H224.84C224.837 184.358 224.837 184.358 224.833 159V130.763C224.833 121.533 224.833 112.298 224.829 103.067C224.825 96.3316 224.825 89.5963 224.825 82.861V69.2102C224.825 64.9014 224.825 60.5888 224.821 56.2762C224.821 51.3234 224.821 46.3706 224.821 41.414V41.0575C224.821 39.0833 224.821 37.1129 224.821 35.1387C224.818 33.4137 224.818 31.6886 224.821 29.9674C224.821 28.9861 224.821 28.0085 224.818 27.0272C224.818 22.4386 224.867 17.8538 225.016 13.269Z" fill="#070706" stroke="black" stroke-width="2" mask="url(#path-3-inside-3_196_629)"/>
<mask id="path-4-inside-4_196_629" fill="white">
<path d="M266.416 48.2136H266.769C267.045 48.5622 267.313 48.9222 267.566 49.2938L268.046 49.9794L268.295 50.3356C268.517 50.6573 268.748 50.9752 268.978 51.2931C270.128 52.875 271.202 54.4991 272.249 56.1537L272.483 56.5253C274.393 59.5627 276.184 62.6881 277.753 65.9132C277.975 66.3652 278.213 66.8133 278.455 67.2576C280.345 70.6819 281.711 74.3666 283.03 78.0398L283.256 78.6679C286.236 86.9987 288.043 95.7126 288.86 104.514L288.925 105.189C289.447 111.156 289.477 117.265 288.86 123.225L288.756 124.351C287.59 136.378 284.173 148.091 279.141 159.053L278.884 159.609C277.703 162.167 276.407 164.638 274.988 167.07C274.742 167.491 274.5 167.913 274.259 168.334C273.273 170.046 272.207 171.689 271.095 173.321C270.849 173.681 270.608 174.041 270.366 174.401C268.456 177.236 266.37 179.955 264.118 182.529L263.781 182.916C263.102 183.697 262.412 184.463 261.717 185.229C261.484 185.49 261.253 185.75 261.023 186.015C260.31 186.842 259.57 187.627 258.795 188.401L258.446 188.753C258.204 188.998 257.959 189.24 257.717 189.481C257.349 189.849 256.985 190.22 256.617 190.588C255.405 191.806 254.196 192.978 252.808 194.001L252.455 193.648L252.808 193.116C252.754 192.737 252.754 192.737 252.632 192.411L251.746 192.235C252.275 191.588 252.793 190.994 253.429 190.458C254.3 189.707 255.109 188.903 255.922 188.091C256.175 187.834 256.432 187.577 256.689 187.325C257.61 186.401 258.5 185.459 259.347 184.467C259.597 184.191 259.846 183.916 260.099 183.64C263.363 180.024 266.293 176.125 269.02 172.092C269.235 171.774 269.449 171.46 269.668 171.146C273.335 165.818 276.265 159.927 278.731 153.963C278.93 153.484 279.134 153.013 279.337 152.538C281.435 147.624 282.923 142.377 284.089 137.167L284.173 136.8C284.986 133.18 285.611 129.564 286.033 125.872L286.106 125.259C286.62 121.004 286.762 116.737 286.915 112.458H286.562L286.57 113.052C286.578 114.458 286.562 115.829 286.386 117.223C285.627 117.453 285.044 117.338 284.265 117.223L284.089 116.695L283.747 116.626L283.383 116.518L283.03 115.634C282.693 115.458 282.693 115.458 282.321 115.458L281.791 115.634V115.281L280.733 114.929L280.368 114.852C280.023 114.753 280.023 114.753 279.67 114.4L279.13 114.167L278.612 113.868C278.543 113.577 278.485 113.282 278.432 112.987C277.991 112.688 277.991 112.688 277.55 112.458V112.106H277.02L276.844 111.221L276.832 111.677C276.733 115.706 276.614 119.744 276.134 123.754H275.781C275.808 123.198 275.835 122.643 275.858 122.088L275.881 121.628C275.923 120.747 275.969 119.866 276.027 118.985C276.13 117.338 276.173 115.695 276.169 114.044V113.634C276.153 107.138 275.766 100.382 274.098 94.0847C273.983 93.6213 273.906 93.1578 273.837 92.6905H273.484L273.308 93.0429L273.005 92.905L272.591 92.7211L272.149 92.5258C271.889 92.4109 271.628 92.2998 271.363 92.1964C270.681 91.9283 270.27 91.6295 269.775 91.1009C269.48 90.9209 269.185 90.7447 268.889 90.5724C267.969 89.9557 267.229 89.2816 266.519 88.4313C266.224 88.0674 266.224 88.0674 265.764 87.669C265.292 87.1443 265.085 86.6425 264.82 85.9952C264.605 85.5394 264.302 85.2713 263.942 84.9227C263.762 84.5129 263.585 84.1031 263.413 83.6894L263.067 83.2796C262.649 82.7357 262.442 82.2148 262.201 81.5751C262.047 81.1729 261.89 80.7746 261.725 80.3762L261.579 80.0239C261.484 79.794 261.391 79.5681 261.296 79.3382C260.13 76.4809 260.295 72.2063 260.628 69.1651C260.747 68.3493 260.927 67.5487 261.115 66.7444L261.38 65.4421C261.56 64.5994 261.786 63.7874 262.043 62.9639C262.251 62.24 262.396 61.5008 262.55 60.7615C262.83 59.4286 263.16 58.1033 263.482 56.7781C263.578 56.3682 263.673 55.9546 263.766 55.5409C264.068 54.2118 264.479 53.1049 265.135 51.9098C265.457 51.1438 265.445 50.4122 265.472 49.5887C265.534 49.0946 265.534 49.0946 265.725 48.7537C265.963 48.5086 265.963 48.5086 266.416 48.2136Z"/>
</mask>
<path d="M266.416 48.2136H266.769C267.045 48.5622 267.313 48.9222 267.566 49.2938L268.046 49.9794L268.295 50.3356C268.517 50.6573 268.748 50.9752 268.978 51.2931C270.128 52.875 271.202 54.4991 272.249 56.1537L272.483 56.5253C274.393 59.5627 276.184 62.6881 277.753 65.9132C277.975 66.3652 278.213 66.8133 278.455 67.2576C280.345 70.6819 281.711 74.3666 283.03 78.0398L283.256 78.6679C286.236 86.9987 288.043 95.7126 288.86 104.514L288.925 105.189C289.447 111.156 289.477 117.265 288.86 123.225L288.756 124.351C287.59 136.378 284.173 148.091 279.141 159.053L278.884 159.609C277.703 162.167 276.407 164.638 274.988 167.07C274.742 167.491 274.5 167.913 274.259 168.334C273.273 170.046 272.207 171.689 271.095 173.321C270.849 173.681 270.608 174.041 270.366 174.401C268.456 177.236 266.37 179.955 264.118 182.529L263.781 182.916C263.102 183.697 262.412 184.463 261.717 185.229C261.484 185.49 261.253 185.75 261.023 186.015C260.31 186.842 259.57 187.627 258.795 188.401L258.446 188.753C258.204 188.998 257.959 189.24 257.717 189.481C257.349 189.849 256.985 190.22 256.617 190.588C255.405 191.806 254.196 192.978 252.808 194.001L252.455 193.648L252.808 193.116C252.754 192.737 252.754 192.737 252.632 192.411L251.746 192.235C252.275 191.588 252.793 190.994 253.429 190.458C254.3 189.707 255.109 188.903 255.922 188.091C256.175 187.834 256.432 187.577 256.689 187.325C257.61 186.401 258.5 185.459 259.347 184.467C259.597 184.191 259.846 183.916 260.099 183.64C263.363 180.024 266.293 176.125 269.02 172.092C269.235 171.774 269.449 171.46 269.668 171.146C273.335 165.818 276.265 159.927 278.731 153.963C278.93 153.484 279.134 153.013 279.337 152.538C281.435 147.624 282.923 142.377 284.089 137.167L284.173 136.8C284.986 133.18 285.611 129.564 286.033 125.872L286.106 125.259C286.62 121.004 286.762 116.737 286.915 112.458H286.562L286.57 113.052C286.578 114.458 286.562 115.829 286.386 117.223C285.627 117.453 285.044 117.338 284.265 117.223L284.089 116.695L283.747 116.626L283.383 116.518L283.03 115.634C282.693 115.458 282.693 115.458 282.321 115.458L281.791 115.634V115.281L280.733 114.929L280.368 114.852C280.023 114.753 280.023 114.753 279.67 114.4L279.13 114.167L278.612 113.868C278.543 113.577 278.485 113.282 278.432 112.987C277.991 112.688 277.991 112.688 277.55 112.458V112.106H277.02L276.844 111.221L276.832 111.677C276.733 115.706 276.614 119.744 276.134 123.754H275.781C275.808 123.198 275.835 122.643 275.858 122.088L275.881 121.628C275.923 120.747 275.969 119.866 276.027 118.985C276.13 117.338 276.173 115.695 276.169 114.044V113.634C276.153 107.138 275.766 100.382 274.098 94.0847C273.983 93.6213 273.906 93.1578 273.837 92.6905H273.484L273.308 93.0429L273.005 92.905L272.591 92.7211L272.149 92.5258C271.889 92.4109 271.628 92.2998 271.363 92.1964C270.681 91.9283 270.27 91.6295 269.775 91.1009C269.48 90.9209 269.185 90.7447 268.889 90.5724C267.969 89.9557 267.229 89.2816 266.519 88.4313C266.224 88.0674 266.224 88.0674 265.764 87.669C265.292 87.1443 265.085 86.6425 264.82 85.9952C264.605 85.5394 264.302 85.2713 263.942 84.9227C263.762 84.5129 263.585 84.1031 263.413 83.6894L263.067 83.2796C262.649 82.7357 262.442 82.2148 262.201 81.5751C262.047 81.1729 261.89 80.7746 261.725 80.3762L261.579 80.0239C261.484 79.794 261.391 79.5681 261.296 79.3382C260.13 76.4809 260.295 72.2063 260.628 69.1651C260.747 68.3493 260.927 67.5487 261.115 66.7444L261.38 65.4421C261.56 64.5994 261.786 63.7874 262.043 62.9639C262.251 62.24 262.396 61.5008 262.55 60.7615C262.83 59.4286 263.16 58.1033 263.482 56.7781C263.578 56.3682 263.673 55.9546 263.766 55.5409C264.068 54.2118 264.479 53.1049 265.135 51.9098C265.457 51.1438 265.445 50.4122 265.472 49.5887C265.534 49.0946 265.534 49.0946 265.725 48.7537C265.963 48.5086 265.963 48.5086 266.416 48.2136Z" fill="black" stroke="black" stroke-width="2" mask="url(#path-4-inside-4_196_629)"/>
<path d="M281.085 74.345C281.29 74.7254 281.445 75.0766 281.597 75.4973L281.6 75.5032L281.776 75.9709C281.982 76.5268 282.184 77.0863 282.378 77.6448L282.38 77.6516L282.622 78.3147C285.659 86.769 287.533 95.5957 288.362 104.536V104.538L288.427 105.213C288.946 111.154 288.976 117.231 288.363 123.155L288.362 123.16L288.258 124.284C287.099 136.252 283.698 147.914 278.687 158.834L278.43 159.39C277.256 161.934 275.967 164.391 274.555 166.811V166.812C274.309 167.235 274.066 167.657 273.825 168.078C272.848 169.776 271.789 171.408 270.681 173.034C270.435 173.396 270.193 173.757 269.952 174.116C268.053 176.935 265.979 179.638 263.742 182.197V182.198L263.404 182.584L263.403 182.585C262.728 183.362 262.041 184.125 261.347 184.891L261.345 184.893C261.112 185.152 260.875 185.417 260.644 185.686C259.94 186.502 259.21 187.278 258.442 188.045L258.44 188.047L258.09 188.4L257.364 189.126C257.179 189.311 256.995 189.497 256.812 189.682C256.629 189.867 256.446 190.051 256.263 190.234L256.262 190.235C255.291 191.211 254.334 192.141 253.295 192.988C253.273 192.839 253.258 192.727 253.231 192.621C253.2 192.499 253.157 192.388 253.099 192.235L253.002 191.975L252.729 191.92L252.676 191.909C252.95 191.598 253.227 191.306 253.531 191.031L253.752 190.839L253.756 190.835C254.643 190.071 255.464 189.253 256.276 188.443L256.278 188.44C256.529 188.185 256.785 187.93 257.04 187.679L257.044 187.676C257.967 186.75 258.862 185.8 259.717 184.799L259.718 184.8C259.968 184.524 260.216 184.249 260.467 183.975L260.47 183.972C263.343 180.788 265.957 177.389 268.398 173.877L269.434 172.365L270.079 171.425L270.08 171.423C273.772 166.056 276.717 160.128 279.192 154.143L279.796 152.724C281.911 147.77 283.407 142.488 284.577 137.261L284.576 137.26L284.661 136.897V136.894C285.477 133.258 286.11 129.624 286.53 125.911L286.607 125.244V125.243C287.062 121.25 287.257 117.267 287.253 113.262L287.239 111.544L287.231 111.012V111.011C287.037 98.4623 284.11 86.3531 279.806 74.6604C279.889 74.639 279.966 74.6164 280.041 74.5852C280.167 74.5324 280.282 74.4599 280.42 74.3733C280.59 74.3001 280.627 74.287 280.663 74.2795C280.698 74.2723 280.739 74.2692 280.888 74.2659L281.085 74.345Z" fill="black" stroke="black"/>
<path d="M277.294 160.441L277.317 160.537L276.85 161.004L277.435 161.296C277.239 161.855 277.005 162.381 276.714 162.922L276.713 162.923L276.39 163.531L276.042 164.174L276.039 164.179L275.865 164.508C274.267 167.461 272.544 170.307 270.651 173.076L270.65 173.077C270.408 173.434 270.17 173.792 269.933 174.146C268.037 176.963 265.965 179.662 263.727 182.216V182.217L263.39 182.603L263.389 182.604C262.715 183.379 262.028 184.141 261.336 184.905L261.334 184.907C261.101 185.166 260.864 185.43 260.633 185.699C259.931 186.514 259.2 187.289 258.433 188.055L258.431 188.057L258.083 188.408L258.082 188.409C257.842 188.652 257.602 188.888 257.357 189.133C257.172 189.317 256.988 189.503 256.805 189.688C256.622 189.872 256.44 190.056 256.257 190.238L256.256 190.239C255.287 191.214 254.332 192.143 253.294 192.987C253.273 192.839 253.257 192.729 253.23 192.623C253.2 192.501 253.156 192.39 253.098 192.236L253.001 191.977L252.728 191.922L252.677 191.911C253.015 191.528 253.359 191.173 253.75 190.845L253.754 190.841C254.639 190.078 255.46 189.262 256.271 188.452L256.273 188.449C256.524 188.195 256.779 187.941 257.034 187.69L257.038 187.687C257.963 186.759 258.86 185.808 259.717 184.805C259.963 184.533 260.209 184.263 260.458 183.992L260.461 183.989C263.74 180.357 266.681 176.444 269.414 172.403C269.627 172.087 269.84 171.775 270.057 171.464L270.058 171.462C272.492 167.928 274.47 164.132 276.393 160.342L277.294 160.441Z" fill="black" stroke="black"/>
<mask id="path-7-inside-5_196_629" fill="white">
<path d="M255.162 127.119L255.503 127.292C255.399 128.454 255.199 129.553 254.929 130.685L254.817 131.155C254.599 132.084 254.317 132.994 253.965 133.882H253.624C253.939 132.423 254.284 130.975 254.628 129.526L254.762 128.966L254.884 128.458C254.984 128.014 255.077 127.567 255.162 127.119Z"/>
</mask>
<path d="M255.162 127.119L255.503 127.292C255.399 128.454 255.199 129.553 254.929 130.685L254.817 131.155C254.599 132.084 254.317 132.994 253.965 133.882H253.624C253.939 132.423 254.284 130.975 254.628 129.526L254.762 128.966L254.884 128.458C254.984 128.014 255.077 127.567 255.162 127.119Z" fill="black"/>
<path d="M255.162 127.119L255.615 126.227L254.429 125.625L254.18 126.932L255.162 127.119ZM255.503 127.292L256.499 127.381L256.559 126.707L255.956 126.4L255.503 127.292ZM254.929 130.685L253.956 130.452L253.955 130.455L254.929 130.685ZM254.817 131.155L253.844 130.925L253.844 130.926L254.817 131.155ZM253.965 133.882V134.882H254.644L254.895 134.251L253.965 133.882ZM253.624 133.882L252.647 133.671L252.385 134.882H253.624V133.882ZM254.628 129.526L253.656 129.295L253.656 129.295L254.628 129.526ZM254.762 128.966L253.79 128.732L253.789 128.734L254.762 128.966ZM254.884 128.458L255.856 128.692L255.858 128.685L255.86 128.678L254.884 128.458ZM255.162 127.119L254.709 128.011L255.05 128.184L255.503 127.292L255.956 126.4L255.615 126.227L255.162 127.119ZM255.503 127.292L254.507 127.203C254.408 128.306 254.218 129.355 253.956 130.453L254.929 130.685L255.901 130.917C256.18 129.75 256.39 128.603 256.499 127.381L255.503 127.292ZM254.929 130.685L253.955 130.455L253.844 130.925L254.817 131.155L255.791 131.385L255.902 130.915L254.929 130.685ZM254.817 131.155L253.844 130.926C253.636 131.81 253.369 132.674 253.036 133.514L253.965 133.882L254.895 134.251C255.266 133.315 255.562 132.358 255.791 131.384L254.817 131.155ZM253.965 133.882V132.882H253.624V133.882V134.882H253.965V133.882ZM253.624 133.882L254.602 134.093C254.914 132.646 255.256 131.208 255.601 129.758L254.628 129.526L253.656 129.295C253.311 130.741 252.964 132.2 252.647 133.671L253.624 133.882ZM254.628 129.526L255.601 129.758L255.735 129.197L254.762 128.966L253.789 128.734L253.656 129.295L254.628 129.526ZM254.762 128.966L255.734 129.2L255.856 128.692L254.884 128.458L253.912 128.224L253.79 128.732L254.762 128.966ZM254.884 128.458L255.86 128.678C255.962 128.223 256.057 127.764 256.144 127.306L255.162 127.119L254.18 126.932C254.096 127.369 254.006 127.806 253.909 128.238L254.884 128.458Z" fill="black" mask="url(#path-7-inside-5_196_629)"/>
<mask id="path-9-inside-6_196_629" fill="white">
<path d="M259.796 166.448H260.145C259.876 167.264 259.44 167.891 258.944 168.576L258.717 168.899C257.804 170.181 257.804 170.181 257.354 170.704H257.006C257.252 169.907 257.645 169.507 258.225 168.93C258.41 168.641 258.581 168.345 258.751 168.045C258.925 167.76 259.103 167.475 259.285 167.191L259.55 166.767L259.796 166.448ZM266.426 154.923H266.775C266.54 155.881 266.195 156.693 265.73 157.559L265.54 157.924C265.378 158.228 265.207 158.525 265.029 158.825L264.681 159.002C264.787 158.325 264.988 157.809 265.306 157.205C265.658 156.547 265.658 156.547 265.73 155.808H266.252L266.426 154.923Z"/>
</mask>
<path d="M259.796 166.448H260.145C259.876 167.264 259.44 167.891 258.944 168.576L258.717 168.899C257.804 170.181 257.804 170.181 257.354 170.704H257.006C257.252 169.907 257.645 169.507 258.225 168.93C258.41 168.641 258.581 168.345 258.751 168.045C258.925 167.76 259.103 167.475 259.285 167.191L259.55 166.767L259.796 166.448ZM266.426 154.923H266.775C266.54 155.881 266.195 156.693 265.73 157.559L265.54 157.924C265.378 158.228 265.207 158.525 265.029 158.825L264.681 159.002C264.787 158.325 264.988 157.809 265.306 157.205C265.658 156.547 265.658 156.547 265.73 155.808H266.252L266.426 154.923Z" fill="black"/>
<path d="M259.796 166.448V165.448H259.304L259.004 165.838L259.796 166.448ZM260.145 166.448L261.094 166.761L261.527 165.448H260.145V166.448ZM258.944 168.576L258.134 167.989L258.126 168.001L258.944 168.576ZM258.717 168.899L259.532 169.479L259.535 169.474L258.717 168.899ZM257.354 170.704V171.704H257.812L258.112 171.356L257.354 170.704ZM257.006 170.704L256.05 170.409L255.65 171.704H257.006V170.704ZM258.225 168.93L258.931 169.638L259.007 169.562L259.066 169.471L258.225 168.93ZM258.751 168.045L257.898 167.523L257.89 167.537L257.881 167.551L258.751 168.045ZM259.285 167.191L260.128 167.729L260.133 167.721L259.285 167.191ZM259.55 166.767L258.758 166.157L258.728 166.195L258.703 166.237L259.55 166.767ZM266.426 154.923V153.923H265.604L265.445 154.73L266.426 154.923ZM266.775 154.923L267.746 155.161L268.049 153.923H266.775V154.923ZM265.73 157.559L264.849 157.085L264.845 157.092L264.842 157.099L265.73 157.559ZM265.54 157.924L266.422 158.397L266.428 158.384L265.54 157.924ZM265.029 158.825L265.482 159.716L265.741 159.585L265.889 159.335L265.029 158.825ZM264.681 159.002L263.693 158.847L263.39 160.779L265.134 159.893L264.681 159.002ZM265.306 157.205L264.424 156.733L264.421 156.739L265.306 157.205ZM265.73 155.808V154.808H264.822L264.734 155.711L265.73 155.808ZM266.252 155.808V156.808H267.075L267.233 156.001L266.252 155.808ZM259.796 166.448V167.448H260.145V166.448V165.448H259.796V166.448ZM260.145 166.448L259.195 166.135C258.979 166.788 258.63 167.305 258.134 167.989L258.944 168.576L259.754 169.162C260.25 168.477 260.772 167.739 261.094 166.761L260.145 166.448ZM258.944 168.576L258.126 168.001L257.899 168.324L258.717 168.899L259.535 169.474L259.762 169.151L258.944 168.576ZM258.717 168.899L257.902 168.319C256.991 169.599 257.014 169.566 256.596 170.051L257.354 170.704L258.112 171.356C258.595 170.795 258.618 170.762 259.532 169.479L258.717 168.899ZM257.354 170.704V169.704H257.006V170.704V171.704H257.354V170.704ZM257.006 170.704L257.961 170.999C258.128 170.459 258.357 170.21 258.931 169.638L258.225 168.93L257.519 168.222C256.934 168.805 256.376 169.355 256.05 170.409L257.006 170.704ZM258.225 168.93L259.066 169.471C259.268 169.157 259.45 168.839 259.621 168.539L258.751 168.045L257.881 167.551C257.711 167.851 257.553 168.126 257.384 168.389L258.225 168.93ZM258.751 168.045L259.604 168.567C259.775 168.287 259.95 168.008 260.128 167.729L259.285 167.191L258.442 166.653C258.257 166.943 258.076 167.233 257.898 167.523L258.751 168.045ZM259.285 167.191L260.133 167.721L260.398 167.298L259.55 166.767L258.703 166.237L258.437 166.66L259.285 167.191ZM259.55 166.767L260.342 167.378L260.588 167.058L259.796 166.448L259.004 165.838L258.758 166.157L259.55 166.767ZM266.426 154.923V155.923H266.775V154.923V153.923H266.426V154.923ZM266.775 154.923L265.803 154.685C265.594 155.541 265.286 156.273 264.849 157.085L265.73 157.559L266.61 158.033C267.105 157.113 267.486 156.221 267.746 155.161L266.775 154.923ZM265.73 157.559L264.842 157.099L264.652 157.464L265.54 157.924L266.428 158.384L266.618 158.019L265.73 157.559ZM265.54 157.924L264.659 157.452C264.505 157.739 264.343 158.022 264.169 158.315L265.029 158.825L265.889 159.335C266.072 159.028 266.25 158.718 266.422 158.397L265.54 157.924ZM265.029 158.825L264.576 157.933L264.228 158.11L264.681 159.002L265.134 159.893L265.482 159.716L265.029 158.825ZM264.681 159.002L265.669 159.157C265.753 158.616 265.908 158.207 266.19 157.671L265.306 157.205L264.421 156.739C264.067 157.411 263.82 158.033 263.693 158.847L264.681 159.002ZM265.306 157.205L266.187 157.677C266.345 157.382 266.491 157.118 266.58 156.827C266.668 156.536 266.693 156.236 266.725 155.905L265.73 155.808L264.734 155.711C264.695 156.119 264.683 156.188 264.666 156.246C264.648 156.305 264.618 156.37 264.424 156.733L265.306 157.205ZM265.73 155.808V156.808H266.252V155.808V154.808H265.73V155.808ZM266.252 155.808L267.233 156.001L267.408 155.116L266.426 154.923L265.445 154.73L265.271 155.615L266.252 155.808Z" fill="black" mask="url(#path-9-inside-6_196_629)"/>
<mask id="path-11-inside-7_196_629" fill="white">
<path d="M254.869 141.773L255.224 141.949C254.881 143.041 254.468 144.079 253.979 145.118H253.624C253.99 143.98 254.41 142.876 254.869 141.773ZM263.039 161.303L263.394 161.654C263.197 162.006 263 162.353 262.804 162.701L262.472 163.289L262.149 163.766L261.617 163.942C261.86 163.292 262.16 162.72 262.526 162.128L262.815 161.658L263.039 161.303Z"/>
</mask>
<path d="M254.869 141.773L255.224 141.949C254.881 143.041 254.468 144.079 253.979 145.118H253.624C253.99 143.98 254.41 142.876 254.869 141.773ZM263.039 161.303L263.394 161.654C263.197 162.006 263 162.353 262.804 162.701L262.472 163.289L262.149 163.766L261.617 163.942C261.86 163.292 262.16 162.72 262.526 162.128L262.815 161.658L263.039 161.303Z" fill="black"/>
<path d="M254.869 141.773L255.313 140.877L254.356 140.403L253.946 141.389L254.869 141.773ZM255.224 141.949L256.178 142.248L256.434 141.432L255.667 141.053L255.224 141.949ZM253.979 145.118V146.118H254.613L254.883 145.544L253.979 145.118ZM253.624 145.118L252.672 144.811L252.252 146.118H253.624V145.118ZM263.039 161.303L263.743 160.593L262.857 159.715L262.193 160.77L263.039 161.303ZM263.394 161.654L264.266 162.143L264.637 161.479L264.097 160.944L263.394 161.654ZM262.804 162.701L261.933 162.208L261.933 162.21L262.804 162.701ZM262.472 163.289L263.3 163.85L263.323 163.816L263.344 163.78L262.472 163.289ZM262.149 163.766L262.462 164.716L262.785 164.609L262.976 164.327L262.149 163.766ZM261.617 163.942L260.68 163.591L259.949 165.545L261.931 164.891L261.617 163.942ZM262.526 162.128L263.377 162.654L263.378 162.652L262.526 162.128ZM262.815 161.658L261.969 161.126L261.964 161.134L262.815 161.658ZM254.869 141.773L254.425 142.669L254.78 142.845L255.224 141.949L255.667 141.053L255.313 140.877L254.869 141.773ZM255.224 141.949L254.27 141.649C253.941 142.694 253.546 143.69 253.074 144.691L253.979 145.118L254.883 145.544C255.391 144.468 255.82 143.387 256.178 142.248L255.224 141.949ZM253.979 145.118V144.118H253.624V145.118V146.118H253.979V145.118ZM253.624 145.118L254.576 145.424C254.932 144.319 255.341 143.242 255.792 142.157L254.869 141.773L253.946 141.389C253.479 142.511 253.049 143.641 252.672 144.811L253.624 145.118ZM263.039 161.303L262.335 162.014L262.69 162.365L263.394 161.654L264.097 160.944L263.743 160.593L263.039 161.303ZM263.394 161.654L262.521 161.166C262.326 161.515 262.13 161.861 261.933 162.208L262.804 162.701L263.674 163.193C263.871 162.846 264.068 162.496 264.266 162.143L263.394 161.654ZM262.804 162.701L261.933 162.21L261.601 162.798L262.472 163.289L263.344 163.78L263.675 163.192L262.804 162.701ZM262.472 163.289L261.645 162.727L261.321 163.205L262.149 163.766L262.976 164.327L263.3 163.85L262.472 163.289ZM262.149 163.766L261.835 162.816L261.303 162.992L261.617 163.942L261.931 164.891L262.462 164.716L262.149 163.766ZM261.617 163.942L262.554 164.292C262.768 163.72 263.035 163.206 263.377 162.654L262.526 162.128L261.676 161.602C261.285 162.233 260.952 162.865 260.68 163.591L261.617 163.942ZM262.526 162.128L263.378 162.652L263.667 162.182L262.815 161.658L261.964 161.134L261.675 161.604L262.526 162.128ZM262.815 161.658L263.662 162.191L263.885 161.836L263.039 161.303L262.193 160.77L261.969 161.126L262.815 161.658Z" fill="black" mask="url(#path-11-inside-7_196_629)"/>
<mask id="path-13-inside-8_196_629" fill="white">
<path d="M253.249 145.529L253.625 145.704C253.232 147.075 253.232 147.075 252.816 147.581C252.591 147.786 252.358 147.973 252.122 148.159C252.42 147.246 252.824 146.393 253.249 145.529Z"/>
</mask>
<path d="M253.249 145.529L253.625 145.704C253.232 147.075 253.232 147.075 252.816 147.581C252.591 147.786 252.358 147.973 252.122 148.159C252.42 147.246 252.824 146.393 253.249 145.529Z" fill="black"/>
<path d="M253.249 145.529L253.671 144.623L252.783 144.209L252.351 145.088L253.249 145.529ZM253.625 145.704L254.586 145.979L254.821 145.159L254.047 144.798L253.625 145.704ZM252.816 147.581L253.491 148.319L253.543 148.271L253.588 148.216L252.816 147.581ZM252.122 148.159L251.171 147.849L250.147 150.987L252.74 148.945L252.122 148.159ZM253.249 145.529L252.826 146.436L253.202 146.611L253.625 145.704L254.047 144.798L253.671 144.623L253.249 145.529ZM253.625 145.704L252.663 145.429C252.457 146.151 252.38 146.411 252.311 146.571C252.273 146.659 252.257 146.686 252.044 146.945L252.816 147.581L253.588 148.216C253.791 147.969 253.984 147.743 254.148 147.362C254.281 147.053 254.4 146.628 254.586 145.979L253.625 145.704ZM252.816 147.581L252.141 146.843C251.946 147.022 251.738 147.189 251.503 147.374L252.122 148.159L252.74 148.945C252.979 148.757 253.237 148.551 253.491 148.319L252.816 147.581ZM252.122 148.159L253.072 148.47C253.346 147.63 253.722 146.833 254.146 145.97L253.249 145.529L252.351 145.088C251.926 145.954 251.493 146.862 251.171 147.849L252.122 148.159Z" fill="black" mask="url(#path-13-inside-8_196_629)"/>
<mask id="mask0_196_629" style="mask-type:alpha" maskUnits="userSpaceOnUse" x="113" y="27" width="164" height="165">
<path d="M259.817 63.2402C264.25 70.1046 267.578 77.5807 269.666 85.3426C278.39 116.532 265.127 151.188 239.292 168.16C207.465 190.753 159.724 181.936 138.214 150.419C115.27 119.928 122.248 71.8836 153.862 48.9945C178.23 29.9767 215.309 28.5417 242.047 46.8167C248.727 51.2868 254.739 56.8388 259.817 63.2402C255.391 56.3735 249.847 50.1741 243.399 44.9809C217.749 23.7124 177.092 21.6212 148.618 41.68C111.687 65.4514 101.467 121.704 128.461 157.41C153.611 194.438 210.167 202.819 244.536 175.475C272.674 154.948 283.747 115.772 271.839 84.6514C268.991 76.8772 264.899 69.6372 259.817 63.2402Z" fill="#D1D1D1"/>
</mask>
<g mask="url(#mask0_196_629)">
<path d="M251.465 145.694C242.455 133.126 245.339 115.633 257.907 106.623L260.692 104.627C273.259 95.6168 290.752 98.5011 299.762 111.069L305.584 119.19C314.594 131.758 311.71 149.251 299.142 158.261L296.357 160.257C283.789 169.267 266.297 166.383 257.287 153.815L251.465 145.694Z" fill="#D1D1D1"/>
<path d="M233.479 130.903C222.538 115.642 226.04 94.4012 241.301 83.4605L244.086 81.4642C259.347 70.5234 280.588 74.0257 291.529 89.2868L295.177 114.971C295.177 114.971 287.172 120.71 277.297 127.79L274.512 129.786C264.637 136.865 256.632 142.604 256.632 142.604L233.479 130.903ZM310.461 115.695C321.401 130.956 317.899 152.196 302.638 163.137L299.853 165.133C284.592 176.074 263.351 172.572 252.411 157.311L262.163 150.319C269.243 160.194 282.987 162.46 292.861 155.381L295.646 153.384C305.521 146.305 307.787 132.561 300.708 122.686L310.461 115.695ZM299.853 165.133C284.592 176.074 263.351 172.572 252.411 157.311L233.479 130.903C222.538 115.642 226.04 94.4012 241.301 83.4605L274.512 129.786C264.637 136.865 256.632 142.604 256.632 142.604L262.163 150.319C269.243 160.194 282.987 162.46 292.861 155.381L299.853 165.133ZM244.086 81.4642C259.347 70.5234 280.588 74.0257 291.529 89.2868L310.461 115.695C321.401 130.956 317.899 152.196 302.638 163.137L295.646 153.384C305.521 146.305 307.787 132.561 300.708 122.686L295.177 114.971C295.177 114.971 287.172 120.71 277.297 127.79L244.086 81.4642Z" fill="#D1D1D1"/>
</g>
<mask id="mask1_196_629" style="mask-type:alpha" maskUnits="userSpaceOnUse" x="137" y="46" width="128" height="128">
<path d="M251.536 74.2272C254.854 79.5387 257.314 85.2918 258.824 91.2346C265.132 115.128 254.718 141.139 235.204 153.721C211.128 170.466 175.598 163.663 159.551 140.172C142.455 117.432 147.419 81.5996 171.007 64.1739C189.188 49.7315 217.165 48.2197 237.769 61.8646C242.912 65.2033 247.571 69.3793 251.536 74.2272C248.222 68.914 244.032 64.0905 239.121 60.0288C219.605 43.3904 188.05 41.376 165.763 56.8594C136.858 75.1674 128.652 119.208 149.798 147.163C169.485 176.165 213.829 182.532 240.448 161.035C262.266 144.9 270.489 114.368 260.997 90.5434C258.727 84.5883 255.504 79.0714 251.536 74.2272Z" fill="#D1D1D1"/>
</mask>
<g mask="url(#mask1_196_629)">
<path d="M245.903 138.438C238.581 128.225 240.925 114.009 251.139 106.687C261.353 99.3644 275.568 101.708 282.891 111.922L285.821 116.009C293.143 126.223 290.799 140.439 280.585 147.761C270.371 155.083 256.156 152.739 248.833 142.525L245.903 138.438Z" fill="#D1D1D1"/>
<path d="M227.918 123.648C218.665 110.741 221.627 92.777 234.534 83.524C247.44 74.271 265.404 77.2331 274.657 90.1399L285.821 116.009C285.96 116.203 286.096 116.399 286.229 116.598L267.744 129.849L249.26 143.101C249.115 142.911 248.973 142.719 248.833 142.525L227.918 123.648ZM290.697 112.513C299.95 125.42 296.988 143.384 284.081 152.637C271.174 161.89 253.21 158.928 243.957 146.021L253.71 139.029C259.101 146.55 269.569 148.276 277.089 142.884C284.61 137.493 286.336 127.026 280.944 119.505L290.697 112.513ZM284.081 152.637C271.174 161.89 253.21 158.928 243.957 146.021L227.918 123.648C218.665 110.741 221.627 92.777 234.534 83.524L267.744 129.849C260.224 135.241 254.127 139.612 254.127 139.612L253.71 139.029C259.101 146.55 269.569 148.276 277.089 142.884L284.081 152.637ZM234.534 83.524C247.44 74.271 265.404 77.2331 274.657 90.1399L290.697 112.513C299.95 125.42 296.988 143.384 284.081 152.637L277.089 142.884C284.61 137.493 286.336 127.026 280.944 119.505L281.362 120.087C281.362 120.087 275.265 124.458 267.744 129.849L234.534 83.524Z" fill="#D1D1D1"/>
</g>
<mask id="mask2_196_629" style="mask-type:alpha" maskUnits="userSpaceOnUse" x="162" y="65" width="92" height="93">
<path d="M243.962 85.8C246.186 89.5868 247.792 93.6478 248.735 97.8043C252.671 114.534 245.055 132.055 231.746 140.325C215.281 151.329 191.744 146.504 181.062 130.893C169.707 115.765 172.694 91.9243 188.401 79.8637C200.506 69.9143 219.545 68.327 234.125 77.4252C237.759 79.6528 241.089 82.4777 243.962 85.8C241.741 82.0124 238.879 78.5401 235.478 75.5894C221.985 63.4977 199.368 61.5588 183.157 72.5492C162.133 85.4922 155.904 117.541 171.309 137.885C185.631 159.006 217.983 163.395 236.99 147.64C252.603 135.816 258.028 113.774 250.908 97.1131C249.206 92.9443 246.836 89.1195 243.962 85.8Z" fill="#D1D1D1"/>
</mask>
<g mask="url(#mask2_196_629)">
<path d="M240.021 130.73C234.897 123.583 236.537 113.636 243.684 108.513C250.831 103.389 260.778 105.029 265.902 112.176L267.952 115.036C273.075 122.182 271.435 132.13 264.288 137.253C257.142 142.377 247.194 140.737 242.071 133.59L240.021 130.73Z" fill="#D1D1D1"/>
<path d="M222.035 115.94C214.981 106.1 217.239 92.4041 227.079 85.3498L227.079 85.3498C236.919 78.2955 250.614 80.5538 257.668 90.3937L267.952 115.036C269.838 117.666 270.877 120.809 270.931 124.045L260.29 131.675L249.646 139.305L249.647 139.304C246.599 138.214 243.957 136.22 242.071 133.59L222.035 115.94ZM272.828 111.54C279.882 121.38 277.624 135.075 267.784 142.129L267.784 142.129C257.944 149.184 244.249 146.926 237.195 137.086L246.947 130.094C250.14 134.547 256.339 135.57 260.792 132.377C265.246 129.184 266.268 122.985 263.075 118.532L272.828 111.54ZM267.784 142.129C257.944 149.184 244.249 146.926 237.195 137.086L222.035 115.94C214.981 106.1 217.239 92.4041 227.079 85.3498L260.29 131.675C255.836 134.868 252.225 137.456 252.225 137.456L246.947 130.094C250.14 134.547 256.339 135.57 260.792 132.377L267.784 142.129ZM227.079 85.3498C236.919 78.2955 250.614 80.5538 257.668 90.3937L272.828 111.54C279.882 121.38 277.624 135.075 267.784 142.129L260.792 132.377C265.246 129.184 266.268 122.985 263.075 118.532L268.354 125.894C268.354 125.894 264.743 128.482 260.29 131.675L227.079 85.3498Z" fill="#D1D1D1"/>
</g>
</svg>
