<svg width="520" height="375" viewBox="0 0 520 375" fill="none" xmlns="http://www.w3.org/2000/svg">
<rect x="318" y="6" width="43" height="276" fill="#FDEBE6"/>
<ellipse cx="339.5" cy="6" rx="21.5" ry="6" fill="#FDEBE6"/>
<ellipse cx="344" cy="265.5" rx="176" ry="25.5" fill="#FDEBE6"/>
<ellipse cx="344" cy="293.5" rx="176" ry="27.5" fill="#FDEBE6"/>
<rect x="168" y="266" width="352" height="27" fill="#FDEBE6"/>
<ellipse cx="152" cy="240" rx="36" ry="32" fill="#4C4C4C"/>
<ellipse cx="339.5" cy="80" rx="21.5" ry="6" fill="#FDEBE6"/>
<path d="M342 238.5C390.59 238.5 434.573 240.402 466.402 243.477C482.32 245.014 495.183 246.843 504.058 248.87C508.499 249.884 511.916 250.943 514.211 252.026C515.36 252.569 516.201 253.105 516.747 253.624C517.293 254.144 517.5 254.602 517.5 255C517.5 255.398 517.293 255.856 516.747 256.376C516.201 256.895 515.36 257.431 514.211 257.974C511.916 259.057 508.499 260.116 504.058 261.13C495.183 263.157 482.32 264.986 466.402 266.523C434.573 269.598 390.59 271.5 342 271.5C293.41 271.5 249.427 269.598 217.598 266.523C201.68 264.986 188.817 263.157 179.942 261.13C175.501 260.116 172.084 259.057 169.789 257.974C168.64 257.431 167.799 256.895 167.253 256.376C166.707 255.856 166.5 255.398 166.5 255C166.5 254.602 166.707 254.144 167.253 253.624C167.799 253.105 168.64 252.569 169.789 252.026C172.084 250.943 175.501 249.884 179.942 248.87C188.817 246.843 201.68 245.014 217.598 243.477C249.427 240.402 293.41 238.5 342 238.5Z" fill="black" stroke="#FDEBE6"/>
<path d="M342 221.5C390.59 221.5 434.573 223.402 466.402 226.477C482.32 228.014 495.183 229.843 504.058 231.87C508.499 232.884 511.916 233.943 514.211 235.026C515.36 235.569 516.201 236.105 516.747 236.624C517.293 237.144 517.5 237.602 517.5 238C517.5 238.398 517.293 238.856 516.747 239.376C516.201 239.895 515.36 240.431 514.211 240.974C511.916 242.057 508.499 243.116 504.058 244.13C495.183 246.157 482.32 247.986 466.402 249.523C434.573 252.598 390.59 254.5 342 254.5C293.41 254.5 249.427 252.598 217.598 249.523C201.68 247.986 188.817 246.157 179.942 244.13C175.501 243.116 172.084 242.057 169.789 240.974C168.64 240.431 167.799 239.895 167.253 239.376C166.707 238.856 166.5 238.398 166.5 238C166.5 237.602 166.707 237.144 167.253 236.624C167.799 236.105 168.64 235.569 169.789 235.026C172.084 233.943 175.501 232.884 179.942 231.87C188.817 229.843 201.68 228.014 217.598 226.477C249.427 223.402 293.41 221.5 342 221.5Z" fill="black" stroke="#FDEBE6"/>
<path d="M342 204.5C390.59 204.5 434.573 206.402 466.402 209.477C482.32 211.014 495.183 212.843 504.058 214.87C508.499 215.884 511.916 216.943 514.211 218.026C515.36 218.569 516.201 219.105 516.747 219.624C517.293 220.144 517.5 220.602 517.5 221C517.5 221.398 517.293 221.856 516.747 222.376C516.201 222.895 515.36 223.431 514.211 223.974C511.916 225.057 508.499 226.116 504.058 227.13C495.183 229.157 482.32 230.986 466.402 232.523C434.573 235.598 390.59 237.5 342 237.5C293.41 237.5 249.427 235.598 217.598 232.523C201.68 230.986 188.817 229.157 179.942 227.13C175.501 226.116 172.084 225.057 169.789 223.974C168.64 223.431 167.799 222.895 167.253 222.376C166.707 221.856 166.5 221.398 166.5 221C166.5 220.602 166.707 220.144 167.253 219.624C167.799 219.105 168.64 218.569 169.789 218.026C172.084 216.943 175.501 215.884 179.942 214.87C188.817 212.843 201.68 211.014 217.598 209.477C249.427 206.402 293.41 204.5 342 204.5Z" fill="black" stroke="#FDEBE6"/>
<path d="M342 187.5C390.59 187.5 434.573 189.402 466.402 192.477C482.32 194.014 495.183 195.843 504.058 197.87C508.499 198.884 511.916 199.943 514.211 201.026C515.36 201.569 516.201 202.105 516.747 202.624C517.293 203.144 517.5 203.602 517.5 204C517.5 204.398 517.293 204.856 516.747 205.376C516.201 205.895 515.36 206.431 514.211 206.974C511.916 208.057 508.499 209.116 504.058 210.13C495.183 212.157 482.32 213.986 466.402 215.523C434.573 218.598 390.59 220.5 342 220.5C293.41 220.5 249.427 218.598 217.598 215.523C201.68 213.986 188.817 212.157 179.942 210.13C175.501 209.116 172.084 208.057 169.789 206.974C168.64 206.431 167.799 205.895 167.253 205.376C166.707 204.856 166.5 204.398 166.5 204C166.5 203.602 166.707 203.144 167.253 202.624C167.799 202.105 168.64 201.569 169.789 201.026C172.084 199.943 175.501 198.884 179.942 197.87C188.817 195.843 201.68 194.014 217.598 192.477C249.427 189.402 293.41 187.5 342 187.5Z" fill="black" stroke="#FDEBE6"/>
<path d="M342 167.5C390.59 167.5 434.573 169.402 466.402 172.477C482.32 174.014 495.183 175.843 504.058 177.87C508.499 178.884 511.916 179.943 514.211 181.026C515.36 181.569 516.201 182.105 516.747 182.624C517.293 183.144 517.5 183.602 517.5 184C517.5 184.398 517.293 184.856 516.747 185.376C516.201 185.895 515.36 186.431 514.211 186.974C511.916 188.057 508.499 189.116 504.058 190.13C495.183 192.157 482.32 193.986 466.402 195.523C434.573 198.598 390.59 200.5 342 200.5C293.41 200.5 249.427 198.598 217.598 195.523C201.68 193.986 188.817 192.157 179.942 190.13C175.501 189.116 172.084 188.057 169.789 186.974C168.64 186.431 167.799 185.895 167.253 185.376C166.707 184.856 166.5 184.398 166.5 184C166.5 183.602 166.707 183.144 167.253 182.624C167.799 182.105 168.64 181.569 169.789 181.026C172.084 179.943 175.501 178.884 179.942 177.87C188.817 175.843 201.68 174.014 217.598 172.477C249.427 169.402 293.41 167.5 342 167.5Z" fill="black" stroke="#FDEBE6"/>
<path d="M342 150.5C390.59 150.5 434.573 152.402 466.402 155.477C482.32 157.014 495.183 158.843 504.058 160.87C508.499 161.884 511.916 162.943 514.211 164.026C515.36 164.569 516.201 165.105 516.747 165.624C517.293 166.144 517.5 166.602 517.5 167C517.5 167.398 517.293 167.856 516.747 168.376C516.201 168.895 515.36 169.431 514.211 169.974C511.916 171.057 508.499 172.116 504.058 173.13C495.183 175.157 482.32 176.986 466.402 178.523C434.573 181.598 390.59 183.5 342 183.5C293.41 183.5 249.427 181.598 217.598 178.523C201.68 176.986 188.817 175.157 179.942 173.13C175.501 172.116 172.084 171.057 169.789 169.974C168.64 169.431 167.799 168.895 167.253 168.376C166.707 167.856 166.5 167.398 166.5 167C166.5 166.602 166.707 166.144 167.253 165.624C167.799 165.105 168.64 164.569 169.789 164.026C172.084 162.943 175.501 161.884 179.942 160.87C188.817 158.843 201.68 157.014 217.598 155.477C249.427 152.402 293.41 150.5 342 150.5Z" fill="black" stroke="#FDEBE6"/>
<path d="M338 133.5C386.59 133.5 430.573 135.402 462.402 138.477C478.32 140.014 491.183 141.843 500.058 143.87C504.499 144.884 507.916 145.943 510.211 147.026C511.36 147.569 512.201 148.105 512.747 148.624C513.293 149.144 513.5 149.602 513.5 150C513.5 150.398 513.293 150.856 512.747 151.376C512.201 151.895 511.36 152.431 510.211 152.974C507.916 154.057 504.499 155.116 500.058 156.13C491.183 158.157 478.32 159.986 462.402 161.523C430.573 164.598 386.59 166.5 338 166.5C289.41 166.5 245.427 164.598 213.598 161.523C197.68 159.986 184.817 158.157 175.942 156.13C171.501 155.116 168.084 154.057 165.789 152.974C164.64 152.431 163.799 151.895 163.253 151.376C162.707 150.856 162.5 150.398 162.5 150C162.5 149.602 162.707 149.144 163.253 148.624C163.799 148.105 164.64 147.569 165.789 147.026C168.084 145.943 171.501 144.884 175.942 143.87C184.817 141.843 197.68 140.014 213.598 138.477C245.427 135.402 289.41 133.5 338 133.5Z" fill="black" stroke="#FDEBE6"/>
<path d="M338 116.5C386.59 116.5 430.573 118.402 462.402 121.477C478.32 123.014 491.183 124.843 500.058 126.87C504.499 127.884 507.916 128.943 510.211 130.026C511.36 130.569 512.201 131.105 512.747 131.624C513.293 132.144 513.5 132.602 513.5 133C513.5 133.398 513.293 133.856 512.747 134.376C512.201 134.895 511.36 135.431 510.211 135.974C507.916 137.057 504.499 138.116 500.058 139.13C491.183 141.157 478.32 142.986 462.402 144.523C430.573 147.598 386.59 149.5 338 149.5C289.41 149.5 245.427 147.598 213.598 144.523C197.68 142.986 184.817 141.157 175.942 139.13C171.501 138.116 168.084 137.057 165.789 135.974C164.64 135.431 163.799 134.895 163.253 134.376C162.707 133.856 162.5 133.398 162.5 133C162.5 132.602 162.707 132.144 163.253 131.624C163.799 131.105 164.64 130.569 165.789 130.026C168.084 128.943 171.501 127.884 175.942 126.87C184.817 124.843 197.68 123.014 213.598 121.477C245.427 118.402 289.41 116.5 338 116.5Z" fill="black" stroke="#FDEBE6"/>
<path d="M338 99.5C386.59 99.5 430.573 101.402 462.402 104.477C478.32 106.014 491.183 107.843 500.058 109.87C504.499 110.884 507.916 111.943 510.211 113.026C511.36 113.569 512.201 114.105 512.747 114.624C513.293 115.144 513.5 115.602 513.5 116C513.5 116.398 513.293 116.856 512.747 117.376C512.201 117.895 511.36 118.431 510.211 118.974C507.916 120.057 504.499 121.116 500.058 122.13C491.183 124.157 478.32 125.986 462.402 127.523C430.573 130.598 386.59 132.5 338 132.5C289.41 132.5 245.427 130.598 213.598 127.523C197.68 125.986 184.817 124.157 175.942 122.13C171.501 121.116 168.084 120.057 165.789 118.974C164.64 118.431 163.799 117.895 163.253 117.376C162.707 116.856 162.5 116.398 162.5 116C162.5 115.602 162.707 115.144 163.253 114.624C163.799 114.105 164.64 113.569 165.789 113.026C168.084 111.943 171.501 110.884 175.942 109.87C184.817 107.843 197.68 106.014 213.598 104.477C245.427 101.402 289.41 99.5 338 99.5Z" fill="black" stroke="#FDEBE6"/>
<path d="M338 79.5C386.59 79.5 430.573 81.4022 462.402 84.4766C478.32 86.014 491.183 87.8434 500.058 89.8701C504.499 90.8844 507.916 91.9429 510.211 93.0264C511.36 93.5688 512.201 94.1045 512.747 94.624C513.293 95.1436 513.5 95.6016 513.5 96C513.5 96.3984 513.293 96.8564 512.747 97.376C512.201 97.8955 511.36 98.4312 510.211 98.9736C507.916 100.057 504.499 101.116 500.058 102.13C491.183 104.157 478.32 105.986 462.402 107.523C430.573 110.598 386.59 112.5 338 112.5C289.41 112.5 245.427 110.598 213.598 107.523C197.68 105.986 184.817 104.157 175.942 102.13C171.501 101.116 168.084 100.057 165.789 98.9736C164.64 98.4312 163.799 97.8955 163.253 97.376C162.707 96.8564 162.5 96.3984 162.5 96C162.5 95.6016 162.707 95.1436 163.253 94.624C163.799 94.1045 164.64 93.5688 165.789 93.0264C168.084 91.9429 171.501 90.8844 175.942 89.8701C184.817 87.8434 197.68 86.014 213.598 84.4766C245.427 81.4022 289.41 79.5 338 79.5Z" fill="black" stroke="#FDEBE6"/>
<path d="M338 62.5C386.59 62.5 430.573 64.4022 462.402 67.4766C478.32 69.014 491.183 70.8434 500.058 72.8701C504.499 73.8844 507.916 74.9429 510.211 76.0264C511.36 76.5688 512.201 77.1045 512.747 77.624C513.293 78.1436 513.5 78.6016 513.5 79C513.5 79.3984 513.293 79.8564 512.747 80.376C512.201 80.8955 511.36 81.4312 510.211 81.9736C507.916 83.0571 504.499 84.1156 500.058 85.1299C491.183 87.1566 478.32 88.986 462.402 90.5234C430.573 93.5978 386.59 95.5 338 95.5C289.41 95.5 245.427 93.5978 213.598 90.5234C197.68 88.986 184.817 87.1566 175.942 85.1299C171.501 84.1156 168.084 83.0571 165.789 81.9736C164.64 81.4312 163.799 80.8955 163.253 80.376C162.707 79.8564 162.5 79.3984 162.5 79C162.5 78.6016 162.707 78.1436 163.253 77.624C163.799 77.1045 164.64 76.5688 165.789 76.0264C168.084 74.9429 171.501 73.8844 175.942 72.8701C184.817 70.8434 197.68 69.014 213.598 67.4766C245.427 64.4022 289.41 62.5 338 62.5Z" fill="black" stroke="#FDEBE6"/>
<ellipse cx="151.5" cy="239.5" rx="151.5" ry="135.5" fill="black"/>
<path d="M151.5 220.5C163.707 220.5 173.5 229.284 173.5 240C173.5 250.716 163.707 259.5 151.5 259.5C139.293 259.5 129.5 250.716 129.5 240C129.5 229.284 139.293 220.5 151.5 220.5Z" fill="#ED3B02" stroke="black"/>
<ellipse cx="339.5" cy="64" rx="21.5" ry="6" fill="#FDEBE6"/>
<path d="M162.719 257.271L166.5 254.903L168.302 253.279L169.703 251.723L170.389 250.873L172.101 248.076L277.5 314.5L274 319.5L266.5 328L253.5 340L246.5 345.5L238.5 350.5L230.5 355.5L222.239 359.371L162.719 257.271Z" fill="#FDEBE6"/>
<path d="M162.719 257.271L166.5 254.903L168.302 253.279L169.703 251.723L170.389 250.872L172.101 248.075L277.5 314.499L274 319.499L266.5 327.999L253.5 339.999L246.5 345.499L238.5 350.499L230.5 355.499L222.239 359.371L162.719 257.271Z" fill="#FDEBE6"/>
<path d="M167.499 254.001L168.999 252.501L258.447 335.451L257.769 336.078L257.128 336.676L255.585 338.097L254.019 339.539L253.5 340L252.945 340.461L252.39 340.871L252.503 340.996L167.499 254.001Z" fill="black"/>
<path d="M139.487 222.627L135.762 225.082L133.998 226.748L132.634 228.336L131.969 229.202L130.322 232.038L23.4073 168.082L26.7901 163.002L34.0905 154.33L46.8081 142.031L53.6784 136.37L61.5601 131.185L69.4417 126.001L77.611 121.938L139.487 222.627Z" fill="#FDEBE6"/>
<path d="M134.387 226.713L132.877 228.202L44 144.64L44.6823 144.018L45.327 143.425L46.7273 141.685L48.456 140.583L48.9787 140.125L49.5365 139.668L50.094 139.262L49.9824 139.136L134.387 226.713Z" fill="black"/>
</svg>
