<svg width="677" height="565" viewBox="0 0 677 565" fill="none" xmlns="http://www.w3.org/2000/svg">
<path fill-rule="evenodd" clip-rule="evenodd" d="M499.219 291.126C496.02 291.566 492.734 292.449 489.528 293.731C485.67 295.273 471.946 302.498 457.687 310.492C449.805 314.911 441.891 319.384 438.881 321.122C437.295 322.038 433.921 323.987 431.383 325.452C428.844 326.918 426.352 328.355 425.845 328.646C422.411 330.613 415.822 334.636 412.794 336.614C401.61 343.923 394.619 350.566 378.418 369.28C372.664 375.927 370.848 378.62 369.64 382.29C368.956 384.371 368.788 388.354 369.29 390.609C370.026 393.914 372.125 396.529 375.304 398.104L377.135 399.01H380.146C382.718 399.01 383.395 398.929 384.774 398.457C387.057 397.677 389.103 396.608 391.191 395.106C392.182 394.393 393.03 393.81 393.076 393.81C393.122 393.81 393.228 394.148 393.312 394.561C393.396 394.974 393.936 396.3 394.511 397.508C395.428 399.432 395.832 399.975 397.78 401.899C400.348 404.436 402.518 405.705 406.637 407.079C410.394 408.332 412.617 408.634 419.075 408.769C426.732 408.929 433.296 408.304 441.42 406.641C446.403 405.621 453.844 403.513 456.941 402.245C457.316 402.091 457.337 402.213 457.202 403.779C456.935 406.861 456.24 412.342 455.534 416.922C455.151 419.401 454.711 422.767 454.556 424.402C454.226 427.881 454.397 433.781 454.9 436.271C455.609 439.775 457.289 443.826 459.19 446.621C460.542 448.606 462.479 452.4 463.582 455.221C464.218 456.846 464.963 458.749 465.238 459.448C466.617 462.953 468.839 465.641 471.411 466.913C472.839 467.619 473.028 467.652 475.564 467.64C478.528 467.626 479.471 467.336 481.263 465.889C483.148 464.367 485.216 461.208 486.073 458.543L486.476 457.292L487.114 459.047C489.353 465.197 492.672 467.999 497.719 467.999C499.955 467.999 501.453 467.552 503.258 466.344C505.09 465.119 506.547 463.259 507.392 461.066C508.256 458.827 508.553 457.198 508.72 453.785C508.877 450.591 508.584 447.896 507.719 444.579C507.392 443.325 507.216 442.226 507.326 442.127C507.436 442.029 508.564 441.133 509.833 440.136C511.102 439.14 512.897 437.669 513.821 436.868L515.501 435.411H520.636C528.581 435.411 539.998 434.562 543.731 433.692C545.056 433.384 545.141 433.394 546.762 434.044C549.942 435.319 554.83 436.277 560.826 436.799C569.09 437.518 603.351 438.141 613.203 437.751C632.133 437.002 646.105 433.507 656.175 427.002C660.306 424.334 664.865 422.625 670.426 421.661C674.499 420.955 684.496 420.389 692.876 420.389H697.999V419.002V331.155L690.904 417.618C671.73 417.624 663.805 419.181 654.736 424.725C646.812 429.568 637.974 432.393 626.396 433.781C618.044 434.782 616.618 434.834 598.09 434.815C572.681 434.788 560.314 434.309 553.543 433.087C551.261 432.676 547.834 431.715 547.175 431.301C546.263 430.729 536.238 401.143 536.774 400.606C536.831 400.549 537.594 400.824 538.469 401.217C553.471 407.968 567.487 410.994 591.514 412.669C597.708 413.101 615.064 413.288 619.895 412.975C632.738 412.142 642.499 409.98 648.044 406.741C649.782 405.725 651.159 404.536 651.159 404.049C651.159 403.519 650.124 403.722 647.552 404.757C636.769 409.094 624.681 410.69 605.012 410.371C578.537 409.942 559.69 406.86 543.29 400.278C537.65 398.014 536.305 397.385 529.215 393.697L526.677 392.376L529.446 392.564C533.972 392.871 534.279 392.852 534.363 392.263C534.415 391.896 534.246 391.659 533.752 391.403C532.944 390.984 529.057 390.278 524.742 389.766C523.043 389.564 518.955 388.986 515.657 388.48C502.222 386.423 496.47 386.023 490.807 386.755C484.01 387.633 478.802 389.368 469.108 393.979C454.87 400.753 445.815 403.486 430.921 405.506C429.525 405.695 425.876 405.912 422.812 405.986C414.406 406.192 410.364 405.693 405.809 403.89C399.271 401.302 395.242 395.829 395.55 389.954C395.637 388.29 395.773 387.8 396.617 386.094C398.303 382.685 401.201 380.527 405.93 379.159C410.58 377.814 416.26 376.87 419.846 376.847C421.79 376.835 422.343 376.918 423.363 377.375C426.667 378.858 428.113 382.715 427.562 388.575C426.946 395.122 427.027 396.024 428.138 394.979C428.907 394.255 429.501 392.603 430.002 389.798C431.039 383.983 429.502 378.299 426.263 375.968C423.693 374.118 421.335 373.691 416.846 374.261C414.173 374.6 410.956 375.139 409.669 375.463C409.23 375.573 409.096 375.541 409.211 375.354C409.301 375.208 409.487 375.089 409.625 375.089C409.763 375.089 412.898 373.75 416.591 372.113C436.222 363.414 449.277 358.451 458.882 356.035C463.958 354.758 472.99 353.382 480.991 352.666C484.814 352.323 489.596 351.622 493.566 350.822C506.569 348.2 517.012 341.786 525.508 331.204C528.746 327.17 531.92 321.818 533.129 318.35C533.687 316.75 533.633 316.189 532.945 316.454C532.758 316.526 531.064 318.904 529.18 321.739C525.181 327.757 522.769 330.78 519.147 334.313C513.675 339.653 508.601 343.008 502.084 345.597C497.659 347.355 492.965 348.422 485.721 349.315C484.135 349.511 482.501 349.726 482.091 349.794L481.344 349.917L482.724 348C485.998 343.452 488.151 337.652 488.957 331.207C489.199 329.277 489.125 327.044 488.79 326.171C488.617 325.719 487.851 325.791 487.588 326.284C487.463 326.517 487.195 327.999 486.992 329.577C486.336 334.678 485.247 338.4 483.178 342.617C481.689 345.652 480.169 347.701 478.235 349.279C477.185 350.136 476.762 350.329 475.64 350.462C468.814 351.273 458.837 353.022 455.832 353.935C454.377 354.378 454.289 354.374 454.565 353.884C455.061 353.004 456.637 349.236 457.103 347.817C457.716 345.952 457.939 343.546 457.585 342.635C457.361 342.061 457.276 342.008 457.02 342.288C456.854 342.469 456.441 343.419 456.102 344.399C455.221 346.946 453.163 351.459 451.925 353.559L450.865 355.358L448.392 356.222C440.379 359.022 426.091 364.72 422.446 366.568L421.585 367.005L420.971 366.02C419.43 363.548 418.622 362.434 417.453 361.17C414.89 358.396 413.744 358.754 415.434 361.8C417.441 365.415 418.815 367.993 418.756 368.034C418.721 368.059 417.29 368.735 415.577 369.537C410.416 371.952 407.565 373.549 402.425 376.905C399.476 378.83 395.746 382.344 394.786 384.103C393.926 385.676 393.033 387.987 392.693 389.519C392.404 390.82 392.309 390.951 390.848 392.061C388.554 393.806 386.909 394.739 384.812 395.485C378.629 397.683 373.475 395.543 372.086 390.2C371.634 388.462 371.641 385.585 372.101 383.789C372.791 381.102 374.868 377.511 377.425 374.586C378.167 373.738 380.891 370.618 383.477 367.653C395.072 354.36 403.344 346.398 410.732 341.42C415.195 338.413 421.033 334.803 428.037 330.721C430.512 329.279 433.367 327.611 434.382 327.014C440.929 323.169 459.572 312.678 468.762 307.669C489.986 296.1 495.179 293.964 502.076 293.967C505.666 293.969 508.993 294.616 517.563 296.981C528.086 299.886 540.63 303.074 559.326 307.597C572.979 310.901 597.392 316.976 614.515 321.332C628.489 324.888 630.423 325.402 641.668 328.549C650.32 330.971 657.693 332.85 660.735 333.41C664.834 334.164 677.006 333.904 695.865 332.661L697.999 332.499V331.155C697.999 329.891 697.96 329.79 697.48 329.796C696.581 329.807 684.542 330.448 677.81 330.844C670.506 331.274 664.623 331.187 661.427 330.602C658.746 330.111 653.353 328.757 646.545 326.864C641.301 325.406 630.413 322.425 625.202 321.022C621.713 320.082 606.743 316.264 602.935 315.342C601.222 314.927 592.552 312.75 583.669 310.502C574.786 308.255 565.181 305.856 562.326 305.171C541.742 300.235 539.746 299.737 526.1 296.118C514.034 292.919 508.928 291.642 506.834 291.301C504.924 290.991 500.88 290.898 499.219 291.126ZM501.551 389.424C508.566 389.982 518.282 391.612 521.122 392.707C522.806 393.357 533.028 398.44 533.632 398.928C533.776 399.045 533.967 399.623 534.056 400.214C534.631 404.059 540.071 421.108 543.621 430.192C543.811 430.678 543.814 430.91 543.632 431.022C542.868 431.496 531.314 432.387 523.793 432.554L517.217 432.699L513.759 429.029C511.857 427.01 505.513 420.522 499.661 414.611L489.022 403.864L485.333 398.317C483.304 395.266 481.521 392.54 481.372 392.258C481.109 391.766 481.17 391.725 483.021 391.16C485.475 390.41 488.796 389.684 490.89 389.439C493.28 389.16 498.138 389.153 501.551 389.424ZM482.328 398.366L485.965 403.847L485.269 406.294C484.106 410.384 481.386 418.252 480.424 420.306C479.174 422.98 478.741 423.521 477.469 423.999C476.868 424.225 476.3 424.519 476.207 424.653C475.798 425.239 476.058 425.74 476.989 426.157L477.948 426.587L480.232 433.368C482.825 441.065 483.938 445.143 484.348 448.442C485.042 454.03 483.678 459.155 480.655 462.308C478.781 464.263 477.539 464.868 475.453 464.841C473.399 464.814 471.999 464.217 470.542 462.747C469.136 461.33 468.081 459.286 466.322 454.574C464.954 450.91 463.426 447.859 461.325 444.602C456.974 437.852 456.076 430.638 458.038 418.193C459.198 410.834 459.613 407.782 459.918 404.36C460.175 401.49 460.253 401.139 460.676 400.977C460.935 400.877 463.172 399.833 465.647 398.657C473.568 394.892 477.981 392.885 478.341 392.885C478.542 392.885 480.239 395.219 482.328 398.366ZM490.865 409.282L493.759 412.273L488.8 419.728C486.072 423.828 483.415 427.901 482.895 428.778L481.949 430.373L481.17 428.197L480.391 426.021L481.364 424.418C482.441 422.644 483.656 419.797 485.057 415.766C486.141 412.648 487.567 407.56 487.567 406.813C487.567 406.525 487.658 406.29 487.769 406.29C487.881 406.29 489.274 407.637 490.865 409.282ZM502.901 421.658C505.572 424.453 509.151 428.189 510.855 429.96L513.955 433.18L513.047 433.982C511.663 435.206 506.16 439.572 506.003 439.572C505.926 439.572 505.365 438.936 504.756 438.159C502.683 435.517 499.099 433.941 497.623 435.022C496.885 435.563 497.292 436.169 498.991 437.06C501.153 438.193 502.754 439.827 503.791 441.956C507.267 449.097 506.861 458.661 502.902 462.901C500.021 465.986 495.837 466.156 492.916 463.308C491.732 462.154 490.151 459.67 489.307 457.639C488.973 456.834 488.393 455.542 488.018 454.767C487.529 453.756 487.336 453.015 487.336 452.148C487.336 448.551 486.112 442.538 484.1 436.25L483.148 433.276L485.073 430.357C486.131 428.751 488.969 424.45 491.378 420.798L495.758 414.158L496.902 415.367C497.531 416.031 500.23 418.862 502.901 421.658Z" fill="#ED3B02"/>
<path d="M412.999 370.773C416.999 369.106 426.299 366.073 431.499 367.273C436.699 368.473 438.666 370.106 438.999 370.773C440.166 371.773 441.899 376.173 439.499 385.773" stroke="#ED3B02" stroke-linecap="round"/>
<path d="M451.999 354.999C453.666 352.166 456.999 345.599 456.999 341.999" stroke="#ED3B02" stroke-linecap="round"/>
<circle cx="282.428" cy="282.429" r="234.976" transform="rotate(-103.201 282.428 282.429)" fill="url(#paint0_linear_268_1321)"/>
<circle cx="282.428" cy="282.429" r="66.3882" transform="rotate(-103.201 282.428 282.429)" fill="#ED3B02"/>
<circle cx="282.428" cy="282.429" r="66.3882" transform="rotate(-103.201 282.428 282.429)" fill="#ED3B02"/>
<circle cx="282.428" cy="282.428" r="7.43768" transform="rotate(-103.201 282.428 282.428)" fill="black"/>
<mask id="mask0_268_1321" style="mask-type:alpha" maskUnits="userSpaceOnUse" x="201" y="97" width="271" height="270">
<path d="M306.101 102.297C319.524 99.554 333.276 98.9103 346.754 100.405C401.108 105.842 448.066 148.506 458.661 200.627C474.481 265.872 429.228 337.093 364.37 350.699C300.226 367.353 228.023 323.685 213.179 258.211C199.492 206.815 222.581 147.72 268.847 118.68C280.255 111.348 292.858 105.809 306.101 102.297C292.677 105.029 279.654 109.888 267.666 116.73C219.048 143.622 191.335 204.678 204.417 260.266C218.048 330.991 296.6 380.789 367.11 362.382C438.45 347.515 486.664 267.98 467.423 198.572C454.422 142.965 402.449 100.601 346.945 98.1329C333.165 97.3353 319.34 98.7751 306.101 102.297Z" fill="#D1D1D1"/>
</mask>
<g mask="url(#mask0_268_1321)">
<path d="M410.156 172.392C395.101 175.924 380.033 166.582 376.502 151.526L366.517 108.962C362.985 93.9064 372.327 78.8387 387.383 75.3072L440.675 62.8062C455.73 59.2746 470.798 68.6165 474.329 83.6718L484.314 126.236C487.845 141.292 478.504 156.359 463.448 159.891L410.156 172.392Z" fill="#D1D1D1"/>
<path d="M389.621 183.372C371.339 187.66 353.043 176.317 348.755 158.035L338.77 115.47C334.482 97.1889 345.825 78.8925 364.107 74.6041L389.24 81.0344C389.24 81.0344 391.489 90.6239 394.264 102.453L404.248 145.018C407.023 156.847 409.273 166.436 409.273 166.436L389.621 183.372ZM439.305 56.9648C457.586 52.6764 475.882 64.0201 480.171 82.3015L490.155 124.866C494.444 143.148 483.1 161.444 464.819 165.732L462.078 154.05C473.907 151.275 481.247 139.436 478.472 127.607L468.488 85.042C465.713 73.2128 453.874 65.8728 442.045 68.6476L439.305 56.9648ZM490.155 124.866C494.444 143.148 483.1 161.444 464.819 165.732L389.621 183.372C371.339 187.66 353.043 176.317 348.755 158.035L404.248 145.018C407.023 156.847 409.273 166.436 409.273 166.436L462.078 154.05C473.907 151.275 481.247 139.436 478.472 127.607L490.155 124.866ZM338.77 115.47C334.482 97.1889 345.825 78.8925 364.107 74.6041L439.305 56.9648C457.586 52.6764 475.882 64.0201 480.171 82.3015L468.488 85.042C465.713 73.2128 453.874 65.8728 442.045 68.6476L389.24 81.0344C389.24 81.0344 391.489 90.6239 394.264 102.453L338.77 115.47Z" fill="#D1D1D1"/>
</g>
<mask id="mask1_268_1321" style="mask-type:alpha" maskUnits="userSpaceOnUse" x="236" y="118" width="210" height="208">
<path d="M317.838 122.179C328.139 120.17 338.662 119.77 348.949 120.997C390.439 125.508 425.814 158.216 433.646 197.724C445.36 247.202 411.051 300.771 362.14 311.044C313.763 323.592 259.212 290.868 247.702 241.341C237.15 202.472 254.29 157.445 289.446 134.954C298.115 129.282 307.718 124.96 317.838 122.179C307.536 124.181 297.514 127.822 288.265 133.004C250.757 153.347 228.992 200.335 238.94 243.396C249.237 298.174 310.137 337.028 364.881 322.727C420.274 311.193 457.544 249.31 442.408 195.668C432.17 152.675 391.781 120.267 349.139 118.725C338.551 118.195 327.955 119.391 317.838 122.179Z" fill="#D1D1D1"/>
</mask>
<g mask="url(#mask1_268_1321)">
<path d="M403.91 174.363C388.855 177.894 373.787 168.552 370.255 153.497L365.604 133.667C362.072 118.612 371.414 103.545 386.469 100.013L414.515 93.4343C429.57 89.9028 444.638 99.2446 448.169 114.3L452.821 134.13C456.352 149.185 447.01 164.253 431.955 167.784L403.91 174.363Z" fill="#D1D1D1"/>
<path d="M383.375 185.343C365.093 189.631 346.797 178.287 342.509 160.006L337.857 140.176C333.569 121.895 344.912 103.598 363.194 99.31L388.327 105.74C388.327 105.74 390.576 115.33 393.351 127.159L398.002 146.988C400.777 158.818 403.026 168.407 403.026 168.407L383.375 185.343ZM413.144 87.5929C431.426 83.3046 449.722 94.6482 454.011 112.93L458.662 132.759C462.95 151.041 451.607 169.337 433.325 173.626L430.585 161.943C442.414 159.168 449.754 147.329 446.979 135.5L442.328 115.67C439.553 103.841 427.714 96.501 415.885 99.2758L413.144 87.5929ZM458.662 132.759C462.95 151.041 451.607 169.337 433.325 173.626L383.375 185.343C365.093 189.631 346.797 178.287 342.509 160.006L398.002 146.988C400.777 158.818 403.026 168.407 403.026 168.407L430.585 161.943C442.414 159.168 449.754 147.329 446.979 135.5L458.662 132.759ZM337.857 140.176C333.569 121.895 344.912 103.598 363.194 99.31L413.144 87.5929C431.426 83.3046 449.722 94.6482 454.011 112.93L442.328 115.67C439.553 103.841 427.714 96.501 415.885 99.2758L388.327 105.74C388.327 105.74 390.576 115.33 393.351 127.159L337.857 140.176Z" fill="#D1D1D1"/>
</g>
<mask id="mask2_268_1321" style="mask-type:alpha" maskUnits="userSpaceOnUse" x="272" y="138" width="150" height="148">
<path d="M330.941 141.338C338.176 140.049 345.528 139.889 352.681 140.852C381.54 144.454 405.54 167.386 410.659 194.507C418.342 228.503 394.78 264.738 361.529 271.737C328.634 280.254 291.417 258.276 283.181 224.41C275.706 197.842 287.005 166.63 311.251 150.57C317.23 146.527 323.887 143.401 330.941 141.338C323.705 142.622 316.629 145.067 310.071 148.619C283.472 162.532 267.549 195.705 274.419 226.465C281.441 265.583 325.008 293.69 364.269 283.42C404.002 275.16 430.526 230.611 419.421 192.451C411.896 161.845 382.882 139.213 352.872 138.579C345.418 138.314 337.992 139.27 330.941 141.338Z" fill="#D1D1D1"/>
</mask>
<g mask="url(#mask2_268_1321)">
<path d="M398.105 176.225C383.739 179.595 369.361 170.681 365.991 156.315C362.622 141.948 371.536 127.571 385.902 124.201L391.65 122.852C406.017 119.482 420.394 128.396 423.764 142.763C427.134 157.129 418.22 171.507 403.854 174.877L398.105 176.225Z" fill="#D1D1D1"/>
<path d="M377.57 187.205C359.978 191.332 342.371 180.415 338.245 162.823C334.118 145.231 345.034 127.624 362.626 123.498L389.007 129.635C389.007 129.635 391.125 138.666 393.738 149.806C396.351 160.946 398.47 169.977 398.47 169.977L377.57 187.205ZM390.28 117.011C407.872 112.884 425.479 123.8 429.606 141.392C433.733 158.985 422.816 176.591 405.224 180.718L402.484 169.035C413.624 166.422 420.536 155.273 417.923 144.133C415.31 132.993 404.161 126.08 393.021 128.694L390.28 117.011ZM429.606 141.392C433.733 158.985 422.816 176.591 405.224 180.718L377.57 187.205C359.978 191.332 342.371 180.415 338.245 162.823L393.738 149.806C396.351 160.946 398.47 169.977 398.47 169.977L402.484 169.035C413.624 166.422 420.536 155.273 417.923 144.133L429.606 141.392ZM338.245 162.823C334.118 145.231 345.034 127.624 362.626 123.498L390.28 117.011C407.872 112.884 425.479 123.8 429.606 141.392L417.923 144.133C415.31 132.993 404.161 126.08 393.021 128.694L389.007 129.635C389.007 129.635 391.125 138.666 393.738 149.806L338.245 162.823Z" fill="#D1D1D1"/>
</g>
<mask id="mask3_268_1321" style="mask-type:alpha" maskUnits="userSpaceOnUse" x="93" y="207" width="271" height="269">
<path d="M236.411 474.731C222.716 475.125 209.058 473.394 196.037 469.604C143.429 454.901 104.506 404.798 103.031 351.631C98.6673 284.638 155.493 222.26 221.725 220.009C287.777 214.633 351.395 270.067 354.759 337.118C359.404 390.102 326.497 444.347 275.927 464.998C263.428 470.26 250.06 473.548 236.411 474.731C250.105 474.347 263.769 471.801 276.755 467.122C329.273 448.991 367.072 393.61 363.744 336.6C362.478 264.585 293.659 202.021 221.034 208.029C148.2 210.407 87.0275 280.466 94.0464 352.149C97.2918 409.164 141.206 459.834 195.459 471.809C208.897 474.965 222.763 475.924 236.411 474.731Z" fill="#D1D1D1"/>
</mask>
<g mask="url(#mask3_268_1321)">
<path d="M145.959 387.787C161.397 386.896 174.634 398.69 175.524 414.129L178.04 457.776C178.93 473.214 167.137 486.451 151.698 487.341L97.0502 490.492C81.6118 491.382 68.375 479.588 67.4849 464.15L64.9685 420.502C64.0784 405.064 75.8721 391.827 91.3104 390.937L145.959 387.787Z" fill="#D1D1D1"/>
<path d="M168.076 380.501C186.822 379.421 202.896 393.742 203.976 412.488L206.493 456.136C207.574 474.882 193.253 490.955 174.506 492.036L150.854 481.38C150.854 481.38 150.287 471.547 149.587 459.416L147.071 415.769C146.372 403.639 145.805 393.805 145.805 393.805L168.076 380.501ZM97.3955 496.482C78.6489 497.563 62.5757 483.242 61.4949 464.495L58.9784 420.848C57.8976 402.101 72.2185 386.028 90.9651 384.947L91.6558 396.927C79.5257 397.627 70.2592 408.027 70.9585 420.157L73.475 463.805C74.1743 475.935 84.5747 485.201 96.7048 484.502L97.3955 496.482ZM58.9784 420.848C57.8976 402.101 72.2185 386.028 90.9651 384.947L168.076 380.501C186.822 379.421 202.896 393.742 203.976 412.488L147.071 415.769C146.372 403.639 145.805 393.805 145.805 393.805L91.6558 396.927C79.5257 397.627 70.2592 408.027 70.9585 420.157L58.9784 420.848ZM206.493 456.136C207.574 474.882 193.253 490.955 174.506 492.036L97.3955 496.482C78.6489 497.563 62.5757 483.242 61.4949 464.495L73.475 463.805C74.1743 475.935 84.5747 485.201 96.7048 484.502L150.854 481.38C150.854 481.38 150.287 471.547 149.587 459.416L206.493 456.136Z" fill="#D1D1D1"/>
</g>
<mask id="mask4_268_1321" style="mask-type:alpha" maskUnits="userSpaceOnUse" x="117" y="247" width="210" height="207">
<path d="M228.267 453.127C217.774 453.335 207.339 451.919 197.416 448.942C157.32 437.363 128.096 399.059 127.174 358.794C124.143 308.038 167.152 261.167 217.101 259.458C266.915 255.415 315.027 297.033 317.848 347.801C321.56 387.905 296.932 429.314 258.433 445.424C248.917 449.522 238.714 452.128 228.267 453.127C238.759 452.927 249.259 451.064 259.26 447.549C299.708 433.959 329.228 391.413 326.834 347.283C326.11 291.551 272.798 242.803 216.41 247.477C159.859 249.314 112.503 303.866 118.189 359.312C120.882 403.425 155.096 442.296 196.838 451.148C207.177 453.49 217.821 454.134 228.267 453.127Z" fill="#D1D1D1"/>
</mask>
<g mask="url(#mask4_268_1321)">
<path d="M152.451 386.92C167.889 386.03 181.126 397.824 182.016 413.262L183.188 433.596C184.078 449.035 172.285 462.271 156.846 463.162L128.088 464.82C112.649 465.71 99.4126 453.916 98.5225 438.478L97.3502 418.143C96.4601 402.705 108.254 389.468 123.692 388.578L152.451 386.92Z" fill="#D1D1D1"/>
<path d="M174.568 379.635C193.315 378.554 209.388 392.875 210.469 411.622L211.641 431.956C212.722 450.702 198.401 466.776 179.654 467.857L156.002 457.2C156.002 457.2 155.435 447.367 154.736 435.237L153.563 414.903C152.864 402.772 152.297 392.939 152.297 392.939L174.568 379.635ZM128.433 470.81C109.687 471.89 93.6133 457.57 92.5325 438.823L91.3601 418.489C90.2793 399.742 104.6 383.669 123.347 382.588L124.037 394.568C111.907 395.268 102.641 405.668 103.34 417.798L104.513 438.132C105.212 450.262 115.612 459.529 127.742 458.83L128.433 470.81ZM91.3601 418.489C90.2793 399.742 104.6 383.669 123.347 382.588L174.568 379.635C193.315 378.554 209.388 392.875 210.469 411.622L153.563 414.903C152.864 402.772 152.297 392.939 152.297 392.939L124.037 394.568C111.907 395.268 102.641 405.668 103.34 417.798L91.3601 418.489ZM211.641 431.956C212.722 450.702 198.401 466.776 179.654 467.857L128.433 470.81C109.687 471.89 93.6133 457.57 92.5325 438.823L104.513 438.132C105.212 450.262 115.612 459.529 127.742 458.83L156.002 457.2C156.002 457.2 155.435 447.367 154.736 435.237L211.641 431.956Z" fill="#D1D1D1"/>
</g>
<mask id="mask5_268_1321" style="mask-type:alpha" maskUnits="userSpaceOnUse" x="139" y="286" width="151" height="147">
<path d="M218.653 431.999C211.304 432.025 204.033 430.919 197.153 428.74C169.343 420.229 149.644 393.511 149.265 365.914C147.542 331.103 176.985 299.46 210.944 298.283C244.813 295.549 277.697 323.599 279.986 358.378C282.781 385.836 266.283 414.64 239.636 426.291C233.051 429.246 225.957 431.18 218.653 431.999C226.001 431.979 233.393 430.787 240.464 428.415C269.059 419.284 290.45 389.343 288.972 357.86C288.78 318.117 250.696 282.937 210.253 286.303C169.691 287.607 135.903 326.931 140.28 366.432C142.43 397.877 167.12 425.161 196.574 430.946C203.872 432.489 211.351 432.824 218.653 431.999Z" fill="#D1D1D1"/>
</mask>
<g mask="url(#mask5_268_1321)">
<path d="M158.489 386.083C173.22 385.234 185.851 396.487 186.7 411.219C187.55 425.951 176.296 438.581 161.564 439.431L155.67 439.771C140.938 440.62 128.307 429.366 127.458 414.635C126.608 399.903 137.862 387.272 152.594 386.423L158.489 386.083Z" fill="#D1D1D1"/>
<path d="M180.606 378.798C198.646 377.758 214.113 391.539 215.153 409.579C216.193 427.618 202.412 443.086 184.372 444.126L159.44 433.543C159.44 433.543 158.906 424.283 158.248 412.859C157.589 401.436 157.055 392.176 157.055 392.176L180.606 378.798ZM156.015 445.761C137.975 446.801 122.508 433.02 121.468 414.98C120.428 396.94 134.209 381.473 152.249 380.433L152.939 392.413C141.516 393.071 132.789 402.866 133.448 414.289C134.106 425.713 143.901 434.439 155.324 433.781L156.015 445.761ZM121.468 414.98C120.428 396.94 134.209 381.473 152.249 380.433L180.606 378.798C198.646 377.758 214.113 391.539 215.153 409.579L158.248 412.859C157.589 401.436 157.055 392.176 157.055 392.176L152.939 392.413C141.516 393.071 132.789 402.866 133.448 414.289L121.468 414.98ZM215.153 409.579C216.193 427.618 202.412 443.086 184.372 444.126L156.015 445.761C137.975 446.801 122.508 433.02 121.468 414.98L133.448 414.289C134.106 425.713 143.901 434.439 155.324 433.781L159.44 433.543C159.44 433.543 158.906 424.283 158.248 412.859L215.153 409.579Z" fill="#D1D1D1"/>
</g>
<path d="M674.221 331.039C678.555 330.873 689.121 330.439 696.721 330.039C699.221 360.373 702.122 420.539 693.722 418.539C685.322 416.539 669.999 429.833 663.499 431.999C646.499 435.499 574.722 446.539 544.722 431.539C541.722 430.039 538.222 405.539 534.722 398.539C529.222 394.539 513.722 390.039 502.222 388.539C493.022 387.339 483.388 390.039 479.722 391.539L450.222 403.539C442.222 405.539 423.222 409.139 411.222 407.539C390.722 403.539 395.722 391.539 392.222 394.039C388.722 396.539 387.722 396.039 384.722 398.039C381.722 400.039 378.222 399.039 375.722 398.539C373.222 398.039 372.722 397.039 370.722 395.539C368.722 394.039 368.221 390.039 368.221 389.539C368.221 389.039 367.721 387.539 368.221 384.539C368.721 381.539 369.721 379.539 371.221 377.539C372.721 375.539 369.221 380.039 378.721 368.039C388.221 356.039 386.721 359.039 395.721 350.039C404.721 341.039 414.221 336.039 420.221 331.539C426.221 327.039 456.221 311.039 459.721 309.039C463.221 307.039 461.721 308.539 468.721 304.039C475.721 299.539 480.721 299.039 485.221 295.539C488.821 292.739 495.721 291.373 498.721 291.039C501.721 290.873 509.221 291.139 515.221 293.539C522.721 296.539 535.221 299.039 536.221 299.539C537.021 299.939 543.888 301.373 547.221 302.039C551.221 303.539 556.221 303.539 560.721 305.039C564.964 306.453 574.221 308.539 576.221 309.039C578.221 309.539 581.721 310.039 587.221 312.039C592.721 314.039 595.221 314.039 599.221 315.039C603.221 316.039 609.721 318.039 611.721 318.039C613.721 318.039 625.721 322.039 627.221 322.539C628.421 322.939 635.388 324.706 638.721 325.539L648.221 328.039L653.721 329.539C659.221 331.039 659.721 331.039 662.221 331.039C663.87 331.039 670.888 331.206 674.221 331.039Z" fill="#FDEBE6"/>
<path d="M392.222 394.039C388.722 396.539 387.722 396.039 384.722 398.039C381.722 400.039 378.222 399.039 375.722 398.539C373.222 398.039 372.722 397.039 370.722 395.539C368.722 394.039 368.221 390.039 368.221 389.539C368.221 389.039 367.721 387.539 368.221 384.539C368.721 381.539 369.721 379.539 371.221 377.539C372.721 375.539 369.221 380.039 378.721 368.039C388.221 356.039 386.721 359.039 395.721 350.039C404.721 341.039 414.221 336.039 420.221 331.539C426.221 327.039 456.221 311.039 459.721 309.039C463.221 307.039 461.721 308.539 468.721 304.039C475.721 299.539 480.721 299.039 485.221 295.539C488.821 292.739 495.721 291.373 498.721 291.039C501.721 290.873 509.221 291.139 515.221 293.539C522.721 296.539 535.221 299.039 536.221 299.539C537.021 299.939 543.888 301.373 547.221 302.039C551.221 303.539 556.221 303.539 560.721 305.039C564.964 306.453 574.221 308.539 576.221 309.039C578.221 309.539 581.721 310.039 587.221 312.039C592.721 314.039 595.221 314.039 599.221 315.039C603.221 316.039 609.721 318.039 611.721 318.039C613.721 318.039 625.721 322.039 627.221 322.539C628.421 322.939 635.388 324.706 638.721 325.539L648.221 328.039L653.721 329.539C659.221 331.039 659.721 331.039 662.221 331.039C663.87 331.039 670.888 331.206 674.221 331.039C678.555 330.873 689.121 330.439 696.721 330.039C699.221 360.373 702.122 420.539 693.722 418.539C685.322 416.539 669.999 429.833 663.499 431.999C646.499 435.499 574.722 446.539 544.722 431.539C541.722 430.039 538.222 405.539 534.722 398.539C529.222 394.539 513.722 390.039 502.222 388.539C493.022 387.339 483.388 390.039 479.722 391.539L450.222 403.539C442.222 405.539 423.222 409.139 411.222 407.539C390.722 403.539 395.722 391.539 392.222 394.039ZM392.222 394.039C392.055 389.039 396.622 377.239 416.222 370.039C436.248 362.683 439.905 359.335 451.222 356.173C453.75 355.467 456.661 354.77 460.222 354.039C467.505 352.545 473.545 351.574 478.222 350.964M531.722 317.539C530.888 319.706 527.322 326.339 519.722 335.539C512.122 344.739 495.888 349.039 488.722 350.039C487.122 350.039 483.562 350.267 478.222 350.964M478.222 350.964C481.888 347.822 488.822 338.639 487.222 327.039M451.222 356.424C454.888 353.282 454.599 352.099 452.999 340.499M414.499 370.699C418.166 367.557 417.999 360.499 409.999 357.499M417.999 369.381C426.499 366.055 433.175 375.999 433.999 384.999C434.499 390.459 426.277 396.631 424.499 388.999" stroke="#ED3B02" stroke-width="2" stroke-linecap="round"/>
<defs>
<linearGradient id="paint0_linear_268_1321" x1="93.7315" y1="119.075" x2="496.468" y2="504.733" gradientUnits="userSpaceOnUse">
<stop/>
<stop offset="1" stop-color="#323131"/>
</linearGradient>
</defs>
</svg>
