<svg width="407" height="408" viewBox="0 0 407 408" fill="none" xmlns="http://www.w3.org/2000/svg">
<path d="M63.2164 340H55.8964C53.3964 340 51.5364 339.5 50.3164 338.5C49.1164 337.5 48.5164 335.96 48.5164 333.88V324.55C48.5164 322.47 49.1164 320.93 50.3164 319.93C51.5364 318.91 53.3964 318.4 55.8964 318.4H63.2164C63.5964 318.4 63.8664 318.49 64.0264 318.67C64.2064 318.83 64.2964 319.1 64.2964 319.48V323.11C64.2964 323.49 64.2064 323.77 64.0264 323.95C63.8664 324.11 63.5964 324.19 63.2164 324.19H57.1864C56.5664 324.19 56.1064 324.32 55.8064 324.58C55.5064 324.82 55.3564 325.19 55.3564 325.69V332.83C55.3564 333.33 55.5064 333.7 55.8064 333.94C56.1064 334.16 56.5664 334.27 57.1864 334.27H63.2164C63.5964 334.27 63.8664 334.36 64.0264 334.54C64.2064 334.7 64.2964 334.97 64.2964 335.35V338.92C64.2964 339.3 64.2064 339.58 64.0264 339.76C63.8664 339.92 63.5964 340 63.2164 340ZM78.6343 340H73.7743C73.3943 340 73.1143 339.92 72.9343 339.76C72.7743 339.58 72.6943 339.3 72.6943 338.92V335.08L68.1043 328.93C67.6443 328.31 67.3343 327.77 67.1743 327.31C67.0343 326.85 66.9643 326.16 66.9643 325.24V319.48C66.9643 319.1 67.0443 318.83 67.2043 318.67C67.3843 318.49 67.6643 318.4 68.0443 318.4H72.6643C73.0443 318.4 73.3143 318.49 73.4743 318.67C73.6543 318.83 73.7443 319.1 73.7443 319.48V324.4C73.7443 324.6 73.7543 324.81 73.7743 325.03C73.7943 325.25 73.8743 325.46 74.0143 325.66L75.3943 327.82C75.4943 328 75.5943 328.13 75.6943 328.21C75.8143 328.29 75.9543 328.33 76.1143 328.33H76.4143C76.5743 328.33 76.7043 328.29 76.8043 328.21C76.9243 328.13 77.0343 328 77.1343 327.82L78.5143 325.66C78.6543 325.46 78.7343 325.25 78.7543 325.03C78.7743 324.81 78.7843 324.6 78.7843 324.4V319.48C78.7843 319.1 78.8643 318.83 79.0243 318.67C79.2043 318.49 79.4843 318.4 79.8643 318.4H84.3343C84.7143 318.4 84.9843 318.49 85.1443 318.67C85.3243 318.83 85.4143 319.1 85.4143 319.48V325.24C85.4143 326.16 85.3343 326.85 85.1743 327.31C85.0143 327.77 84.7143 328.31 84.2743 328.93L79.7143 335.11V338.92C79.7143 339.3 79.6243 339.58 79.4443 339.76C79.2843 339.92 79.0143 340 78.6343 340ZM94.5666 340H89.9166C89.5366 340 89.2566 339.92 89.0766 339.76C88.9166 339.58 88.8366 339.3 88.8366 338.92V319.48C88.8366 319.1 88.9166 318.83 89.0766 318.67C89.2566 318.49 89.5366 318.4 89.9166 318.4H94.5666C94.9466 318.4 95.2166 318.49 95.3766 318.67C95.5566 318.83 95.6466 319.1 95.6466 319.48V326.38H96.8466L99.9366 319.39C100.077 319.03 100.267 318.78 100.507 318.64C100.747 318.48 101.057 318.4 101.437 318.4H106.057C106.397 318.4 106.627 318.49 106.747 318.67C106.867 318.83 106.857 319.07 106.717 319.39L103.657 326.38C104.777 326.44 105.667 326.84 106.327 327.58C107.007 328.3 107.347 329.26 107.347 330.46V338.92C107.347 339.3 107.257 339.58 107.077 339.76C106.917 339.92 106.647 340 106.267 340H101.647C101.267 340 100.987 339.92 100.807 339.76C100.647 339.58 100.567 339.3 100.567 338.92V333.07C100.567 332.75 100.487 332.5 100.327 332.32C100.167 332.14 99.9266 332.05 99.6066 332.05H95.6466V338.92C95.6466 339.3 95.5566 339.58 95.3766 339.76C95.2166 339.92 94.9466 340 94.5666 340ZM126.219 340H112.299C111.919 340 111.639 339.92 111.459 339.76C111.299 339.58 111.219 339.3 111.219 338.92V319.48C111.219 319.1 111.299 318.83 111.459 318.67C111.639 318.49 111.919 318.4 112.299 318.4H126.219C126.599 318.4 126.869 318.49 127.029 318.67C127.209 318.83 127.299 319.1 127.299 319.48V322.99C127.299 323.37 127.209 323.65 127.029 323.83C126.869 323.99 126.599 324.07 126.219 324.07H117.939V326.38H123.789C124.169 326.38 124.439 326.47 124.599 326.65C124.779 326.81 124.869 327.08 124.869 327.46V330.67C124.869 331.05 124.779 331.33 124.599 331.51C124.439 331.67 124.169 331.75 123.789 331.75H117.939V334.33H126.219C126.599 334.33 126.869 334.42 127.029 334.6C127.209 334.76 127.299 335.03 127.299 335.41V338.92C127.299 339.3 127.209 339.58 127.029 339.76C126.869 339.92 126.599 340 126.219 340ZM147.198 340H131.928C131.548 340 131.268 339.92 131.088 339.76C130.928 339.58 130.848 339.3 130.848 338.92V319.48C130.848 319.1 130.928 318.83 131.088 318.67C131.268 318.49 131.548 318.4 131.928 318.4H136.578C136.958 318.4 137.228 318.49 137.388 318.67C137.568 318.83 137.658 319.1 137.658 319.48V334.33H141.768V329.47C141.768 329.09 141.848 328.82 142.008 328.66C142.188 328.48 142.468 328.39 142.848 328.39H147.198C147.578 328.39 147.848 328.48 148.008 328.66C148.188 328.82 148.278 329.09 148.278 329.47V338.92C148.278 339.3 148.188 339.58 148.008 339.76C147.848 339.92 147.578 340 147.198 340ZM164.308 340H152.788C152.408 340 152.128 339.92 151.948 339.76C151.788 339.58 151.708 339.3 151.708 338.92V319.48C151.708 319.1 151.788 318.83 151.948 318.67C152.128 318.49 152.408 318.4 152.788 318.4H162.358C164.318 318.4 165.768 318.78 166.708 319.54C167.648 320.28 168.118 321.43 168.118 322.99V324.43C168.118 325.27 167.968 325.96 167.668 326.5C167.388 327.02 166.948 327.41 166.348 327.67C167.628 327.79 168.578 328.23 169.198 328.99C169.818 329.75 170.128 330.86 170.128 332.32V335.08C170.128 336.76 169.648 338 168.688 338.8C167.748 339.6 166.288 340 164.308 340ZM158.458 323.5V326.74H161.008C161.388 326.74 161.668 326.64 161.848 326.44C162.048 326.24 162.148 325.94 162.148 325.54V324.7C162.148 324.3 162.048 324 161.848 323.8C161.668 323.6 161.388 323.5 161.008 323.5H158.458ZM158.458 331.36V334.9H162.358C162.738 334.9 163.018 334.8 163.198 334.6C163.398 334.4 163.498 334.1 163.498 333.7V332.53C163.498 332.13 163.398 331.84 163.198 331.66C163.018 331.46 162.738 331.36 162.358 331.36H158.458ZM191.836 334.33C191.836 335.25 191.696 336.09 191.416 336.85C191.156 337.59 190.676 338.23 189.976 338.77C189.296 339.29 188.356 339.7 187.156 340C185.956 340.3 184.426 340.45 182.566 340.45C180.706 340.45 179.176 340.3 177.976 340C176.776 339.7 175.826 339.29 175.126 338.77C174.446 338.23 173.966 337.59 173.686 336.85C173.426 336.09 173.296 335.25 173.296 334.33V319.48C173.296 319.1 173.376 318.83 173.536 318.67C173.716 318.49 173.996 318.4 174.376 318.4H179.086C179.466 318.4 179.736 318.49 179.896 318.67C180.076 318.83 180.166 319.1 180.166 319.48V333.16C180.166 333.56 180.316 333.9 180.616 334.18C180.916 334.44 181.586 334.57 182.626 334.57C183.686 334.57 184.366 334.44 184.666 334.18C184.966 333.9 185.116 333.56 185.116 333.16V319.48C185.116 319.1 185.196 318.83 185.356 318.67C185.536 318.49 185.816 318.4 186.196 318.4H190.756C191.136 318.4 191.406 318.49 191.566 318.67C191.746 318.83 191.836 319.1 191.836 319.48V334.33ZM207.019 340H196.909C196.529 340 196.249 339.92 196.069 339.76C195.909 339.58 195.829 339.3 195.829 338.92V319.48C195.829 319.1 195.909 318.83 196.069 318.67C196.249 318.49 196.529 318.4 196.909 318.4H207.019C209.519 318.4 211.369 318.9 212.569 319.9C213.789 320.9 214.399 322.44 214.399 324.52V333.88C214.399 335.96 213.789 337.5 212.569 338.5C211.369 339.5 209.519 340 207.019 340ZM202.639 324.13V334.33H206.209C206.689 334.33 207.039 334.21 207.259 333.97C207.499 333.73 207.619 333.36 207.619 332.86V325.57C207.619 325.07 207.499 324.71 207.259 324.49C207.039 324.25 206.689 324.13 206.209 324.13H202.639ZM230.68 340H226.03C225.65 340 225.37 339.92 225.19 339.76C225.03 339.58 224.95 339.3 224.95 338.92V319.48C224.95 319.1 225.03 318.83 225.19 318.67C225.37 318.49 225.65 318.4 226.03 318.4H230.68C231.06 318.4 231.33 318.49 231.49 318.67C231.67 318.83 231.76 319.1 231.76 319.48V326.38H232.96L236.05 319.39C236.19 319.03 236.38 318.78 236.62 318.64C236.86 318.48 237.17 318.4 237.55 318.4H242.17C242.51 318.4 242.74 318.49 242.86 318.67C242.98 318.83 242.97 319.07 242.83 319.39L239.77 326.38C240.89 326.44 241.78 326.84 242.44 327.58C243.12 328.3 243.46 329.26 243.46 330.46V338.92C243.46 339.3 243.37 339.58 243.19 339.76C243.03 339.92 242.76 340 242.38 340H237.76C237.38 340 237.1 339.92 236.92 339.76C236.76 339.58 236.68 339.3 236.68 338.92V333.07C236.68 332.75 236.6 332.5 236.44 332.32C236.28 332.14 236.04 332.05 235.72 332.05H231.76V338.92C231.76 339.3 231.67 339.58 231.49 339.76C231.33 339.92 231.06 340 230.68 340ZM265.633 334.33C265.633 335.25 265.493 336.09 265.213 336.85C264.953 337.59 264.473 338.23 263.773 338.77C263.093 339.29 262.143 339.7 260.923 340C259.723 340.3 258.193 340.45 256.333 340.45C254.473 340.45 252.933 340.3 251.713 340C250.493 339.7 249.533 339.29 248.833 338.77C248.153 338.23 247.673 337.59 247.393 336.85C247.133 336.09 247.003 335.25 247.003 334.33V324.1C247.003 323.18 247.133 322.35 247.393 321.61C247.673 320.85 248.153 320.2 248.833 319.66C249.533 319.12 250.493 318.7 251.713 318.4C252.933 318.1 254.473 317.95 256.333 317.95C258.193 317.95 259.723 318.1 260.923 318.4C262.143 318.7 263.093 319.12 263.773 319.66C264.473 320.2 264.953 320.85 265.213 321.61C265.493 322.35 265.633 323.18 265.633 324.1V334.33ZM253.813 333.25C253.813 333.65 253.963 333.99 254.263 334.27C254.563 334.53 255.253 334.66 256.333 334.66C257.413 334.66 258.103 334.53 258.403 334.27C258.703 333.99 258.853 333.65 258.853 333.25V325.18C258.853 324.8 258.703 324.48 258.403 324.22C258.103 323.94 257.413 323.8 256.333 323.8C255.253 323.8 254.563 323.94 254.263 324.22C253.963 324.48 253.813 324.8 253.813 325.18V333.25ZM275.002 340H270.532C270.152 340 269.872 339.92 269.692 339.76C269.532 339.58 269.452 339.3 269.452 338.92V319.48C269.452 319.1 269.532 318.83 269.692 318.67C269.872 318.49 270.152 318.4 270.532 318.4H275.362C275.682 318.4 275.942 318.47 276.142 318.61C276.362 318.75 276.562 318.98 276.742 319.3L279.442 324.19C279.542 324.37 279.622 324.5 279.682 324.58C279.762 324.66 279.862 324.7 279.982 324.7H280.252C280.372 324.7 280.462 324.66 280.522 324.58C280.602 324.5 280.692 324.37 280.792 324.19L283.462 319.3C283.642 318.98 283.832 318.75 284.032 318.61C284.252 318.47 284.522 318.4 284.842 318.4H289.702C290.082 318.4 290.352 318.49 290.512 318.67C290.692 318.83 290.782 319.1 290.782 319.48V338.92C290.782 339.3 290.692 339.58 290.512 339.76C290.352 339.92 290.082 340 289.702 340H285.082C284.702 340 284.422 339.92 284.242 339.76C284.082 339.58 284.002 339.3 284.002 338.92V328.36L282.232 331.63C282.052 331.97 281.832 332.22 281.572 332.38C281.332 332.52 281.022 332.59 280.642 332.59H279.442C279.062 332.59 278.742 332.52 278.482 332.38C278.242 332.22 278.032 331.97 277.852 331.63L276.082 328.36V338.92C276.082 339.3 275.992 339.58 275.812 339.76C275.652 339.92 275.382 340 275.002 340ZM300.461 340H295.991C295.611 340 295.331 339.92 295.151 339.76C294.991 339.58 294.911 339.3 294.911 338.92V319.48C294.911 319.1 294.991 318.83 295.151 318.67C295.331 318.49 295.611 318.4 295.991 318.4H300.821C301.141 318.4 301.401 318.47 301.601 318.61C301.821 318.75 302.021 318.98 302.201 319.3L304.901 324.19C305.001 324.37 305.081 324.5 305.141 324.58C305.221 324.66 305.321 324.7 305.441 324.7H305.711C305.831 324.7 305.921 324.66 305.981 324.58C306.061 324.5 306.151 324.37 306.251 324.19L308.921 319.3C309.101 318.98 309.291 318.75 309.491 318.61C309.711 318.47 309.981 318.4 310.301 318.4H315.161C315.541 318.4 315.811 318.49 315.971 318.67C316.151 318.83 316.241 319.1 316.241 319.48V338.92C316.241 339.3 316.151 339.58 315.971 339.76C315.811 339.92 315.541 340 315.161 340H310.541C310.161 340 309.881 339.92 309.701 339.76C309.541 339.58 309.461 339.3 309.461 338.92V328.36L307.691 331.63C307.511 331.97 307.291 332.22 307.031 332.38C306.791 332.52 306.481 332.59 306.101 332.59H304.901C304.521 332.59 304.201 332.52 303.941 332.38C303.701 332.22 303.491 331.97 303.311 331.63L301.541 328.36V338.92C301.541 339.3 301.451 339.58 301.271 339.76C301.111 339.92 300.841 340 300.461 340ZM335.37 340H321.45C321.07 340 320.79 339.92 320.61 339.76C320.45 339.58 320.37 339.3 320.37 338.92V319.48C320.37 319.1 320.45 318.83 320.61 318.67C320.79 318.49 321.07 318.4 321.45 318.4H335.37C335.75 318.4 336.02 318.49 336.18 318.67C336.36 318.83 336.45 319.1 336.45 319.48V322.99C336.45 323.37 336.36 323.65 336.18 323.83C336.02 323.99 335.75 324.07 335.37 324.07H327.09V326.38H332.94C333.32 326.38 333.59 326.47 333.75 326.65C333.93 326.81 334.02 327.08 334.02 327.46V330.67C334.02 331.05 333.93 331.33 333.75 331.51C333.59 331.67 333.32 331.75 332.94 331.75H327.09V334.33H335.37C335.75 334.33 336.02 334.42 336.18 334.6C336.36 334.76 336.45 335.03 336.45 335.41V338.92C336.45 339.3 336.36 339.58 336.18 339.76C336.02 339.92 335.75 340 335.37 340ZM346.779 323.8V327.64H349.029C349.549 327.64 349.899 327.51 350.079 327.25C350.259 326.97 350.349 326.63 350.349 326.23V325.21C350.349 324.81 350.259 324.48 350.079 324.22C349.899 323.94 349.549 323.8 349.029 323.8H346.779ZM345.699 340H341.079C340.699 340 340.419 339.92 340.239 339.76C340.079 339.58 339.999 339.3 339.999 338.92V319.48C339.999 319.1 340.079 318.83 340.239 318.67C340.419 318.49 340.699 318.4 341.079 318.4H351.069C353.309 318.4 354.849 318.87 355.689 319.81C356.549 320.73 356.979 321.93 356.979 323.41V324.79C356.979 325.63 356.849 326.35 356.589 326.95C356.349 327.53 355.919 327.95 355.299 328.21C356.379 328.33 357.249 328.77 357.909 329.53C358.589 330.29 358.929 331.3 358.929 332.56V338.92C358.929 339.3 358.839 339.58 358.659 339.76C358.499 339.92 358.229 340 357.849 340H353.199C352.819 340 352.539 339.92 352.359 339.76C352.199 339.58 352.119 339.3 352.119 338.92V334.33C352.119 333.89 352.029 333.57 351.849 333.37C351.689 333.15 351.399 333.04 350.979 333.04H346.779V338.92C346.779 339.3 346.689 339.58 346.509 339.76C346.349 339.92 346.079 340 345.699 340ZM100.353 376H95.7027C95.3227 376 95.0427 375.92 94.8627 375.76C94.7027 375.58 94.6227 375.3 94.6227 374.92V355.48C94.6227 355.1 94.7027 354.83 94.8627 354.67C95.0427 354.49 95.3227 354.4 95.7027 354.4H100.353C100.733 354.4 101.003 354.49 101.163 354.67C101.343 354.83 101.433 355.1 101.433 355.48V361.99H106.443V355.48C106.443 355.1 106.523 354.83 106.683 354.67C106.863 354.49 107.143 354.4 107.523 354.4H112.173C112.553 354.4 112.823 354.49 112.983 354.67C113.163 354.83 113.253 355.1 113.253 355.48V374.92C113.253 375.3 113.163 375.58 112.983 375.76C112.823 375.92 112.553 376 112.173 376H107.523C107.143 376 106.863 375.92 106.683 375.76C106.523 375.58 106.443 375.3 106.443 374.92V368.26H101.433V374.92C101.433 375.3 101.343 375.58 101.163 375.76C101.003 375.92 100.733 376 100.353 376ZM134.036 370.33C134.036 371.25 133.906 372.09 133.646 372.85C133.386 373.59 132.926 374.23 132.266 374.77C131.626 375.29 130.736 375.7 129.596 376C128.456 376.3 127.006 376.45 125.246 376.45C123.506 376.45 122.066 376.3 120.926 376C119.806 375.7 118.916 375.29 118.256 374.77C117.616 374.23 117.166 373.59 116.906 372.85C116.666 372.09 116.546 371.25 116.546 370.33V365.47C116.546 365.09 116.626 364.82 116.786 364.66C116.966 364.48 117.246 364.39 117.626 364.39H121.976C122.356 364.39 122.626 364.48 122.786 364.66C122.966 364.82 123.056 365.09 123.056 365.47V369.13C123.056 369.53 123.176 369.87 123.416 370.15C123.676 370.41 124.266 370.54 125.186 370.54C126.046 370.54 126.586 370.41 126.806 370.15C127.046 369.87 127.166 369.53 127.166 369.13V355.48C127.166 355.1 127.246 354.83 127.406 354.67C127.586 354.49 127.866 354.4 128.246 354.4H132.956C133.336 354.4 133.606 354.49 133.766 354.67C133.946 354.83 134.036 355.1 134.036 355.48V370.33ZM153.041 376H139.121C138.741 376 138.461 375.92 138.281 375.76C138.121 375.58 138.041 375.3 138.041 374.92V355.48C138.041 355.1 138.121 354.83 138.281 354.67C138.461 354.49 138.741 354.4 139.121 354.4H153.041C153.421 354.4 153.691 354.49 153.851 354.67C154.031 354.83 154.121 355.1 154.121 355.48V358.99C154.121 359.37 154.031 359.65 153.851 359.83C153.691 359.99 153.421 360.07 153.041 360.07H144.761V362.38H150.611C150.991 362.38 151.261 362.47 151.421 362.65C151.601 362.81 151.691 363.08 151.691 363.46V366.67C151.691 367.05 151.601 367.33 151.421 367.51C151.261 367.67 150.991 367.75 150.611 367.75H144.761V370.33H153.041C153.421 370.33 153.691 370.42 153.851 370.6C154.031 370.76 154.121 371.03 154.121 371.41V374.92C154.121 375.3 154.031 375.58 153.851 375.76C153.691 375.92 153.421 376 153.041 376ZM163.22 376H158.75C158.37 376 158.09 375.92 157.91 375.76C157.75 375.58 157.67 375.3 157.67 374.92V355.48C157.67 355.1 157.75 354.83 157.91 354.67C158.09 354.49 158.37 354.4 158.75 354.4H163.58C163.9 354.4 164.16 354.47 164.36 354.61C164.58 354.75 164.78 354.98 164.96 355.3L167.66 360.19C167.76 360.37 167.84 360.5 167.9 360.58C167.98 360.66 168.08 360.7 168.2 360.7H168.47C168.59 360.7 168.68 360.66 168.74 360.58C168.82 360.5 168.91 360.37 169.01 360.19L171.68 355.3C171.86 354.98 172.05 354.75 172.25 354.61C172.47 354.47 172.74 354.4 173.06 354.4H177.92C178.3 354.4 178.57 354.49 178.73 354.67C178.91 354.83 179 355.1 179 355.48V374.92C179 375.3 178.91 375.58 178.73 375.76C178.57 375.92 178.3 376 177.92 376H173.3C172.92 376 172.64 375.92 172.46 375.76C172.3 375.58 172.22 375.3 172.22 374.92V364.36L170.45 367.63C170.27 367.97 170.05 368.22 169.79 368.38C169.55 368.52 169.24 368.59 168.86 368.59H167.66C167.28 368.59 166.96 368.52 166.7 368.38C166.46 368.22 166.25 367.97 166.07 367.63L164.3 364.36V374.92C164.3 375.3 164.21 375.58 164.03 375.76C163.87 375.92 163.6 376 163.22 376ZM199.774 376H194.914C194.534 376 194.254 375.92 194.074 375.76C193.914 375.58 193.834 375.3 193.834 374.92V360.19H189.424C189.044 360.19 188.764 360.11 188.584 359.95C188.424 359.77 188.344 359.49 188.344 359.11V355.48C188.344 355.1 188.424 354.83 188.584 354.67C188.764 354.49 189.044 354.4 189.424 354.4H205.264C205.644 354.4 205.914 354.49 206.074 354.67C206.254 354.83 206.344 355.1 206.344 355.48V359.11C206.344 359.49 206.254 359.77 206.074 359.95C205.914 360.11 205.644 360.19 205.264 360.19H200.854V374.92C200.854 375.3 200.764 375.58 200.584 375.76C200.424 375.92 200.154 376 199.774 376ZM209.861 376C209.481 376 209.201 375.92 209.021 375.76C208.861 375.58 208.781 375.3 208.781 374.92V371.35C208.781 370.97 208.861 370.7 209.021 370.54C209.201 370.36 209.481 370.27 209.861 370.27H212.831V360.19H209.861C209.481 360.19 209.201 360.11 209.021 359.95C208.861 359.77 208.781 359.49 208.781 359.11V355.48C208.781 355.1 208.861 354.83 209.021 354.67C209.201 354.49 209.481 354.4 209.861 354.4H222.641C223.021 354.4 223.291 354.49 223.451 354.67C223.631 354.83 223.721 355.1 223.721 355.48V359.11C223.721 359.49 223.631 359.77 223.451 359.95C223.291 360.11 223.021 360.19 222.641 360.19H219.731V370.27H222.641C223.021 370.27 223.291 370.36 223.451 370.54C223.631 370.7 223.721 370.97 223.721 371.35V374.92C223.721 375.3 223.631 375.58 223.451 375.76C223.291 375.92 223.021 376 222.641 376H209.861ZM243.775 376H228.505C228.125 376 227.845 375.92 227.665 375.76C227.505 375.58 227.425 375.3 227.425 374.92V355.48C227.425 355.1 227.505 354.83 227.665 354.67C227.845 354.49 228.125 354.4 228.505 354.4H233.155C233.535 354.4 233.805 354.49 233.965 354.67C234.145 354.83 234.235 355.1 234.235 355.48V370.33H238.345V365.47C238.345 365.09 238.425 364.82 238.585 364.66C238.765 364.48 239.045 364.39 239.425 364.39H243.775C244.155 364.39 244.425 364.48 244.585 364.66C244.765 364.82 244.855 365.09 244.855 365.47V374.92C244.855 375.3 244.765 375.58 244.585 375.76C244.425 375.92 244.155 376 243.775 376ZM265.92 376H255.81C255.43 376 255.15 375.92 254.97 375.76C254.81 375.58 254.73 375.3 254.73 374.92V355.48C254.73 355.1 254.81 354.83 254.97 354.67C255.15 354.49 255.43 354.4 255.81 354.4H265.92C268.42 354.4 270.27 354.9 271.47 355.9C272.69 356.9 273.3 358.44 273.3 360.52V369.88C273.3 371.96 272.69 373.5 271.47 374.5C270.27 375.5 268.42 376 265.92 376ZM261.54 360.13V370.33H265.11C265.59 370.33 265.94 370.21 266.16 369.97C266.4 369.73 266.52 369.36 266.52 368.86V361.57C266.52 361.07 266.4 360.71 266.16 360.49C265.94 360.25 265.59 360.13 265.11 360.13H261.54ZM277.713 376C277.333 376 277.053 375.92 276.873 375.76C276.713 375.58 276.633 375.3 276.633 374.92V371.35C276.633 370.97 276.713 370.7 276.873 370.54C277.053 370.36 277.333 370.27 277.713 370.27H280.683V360.19H277.713C277.333 360.19 277.053 360.11 276.873 359.95C276.713 359.77 276.633 359.49 276.633 359.11V355.48C276.633 355.1 276.713 354.83 276.873 354.67C277.053 354.49 277.333 354.4 277.713 354.4H290.493C290.873 354.4 291.143 354.49 291.303 354.67C291.483 354.83 291.573 355.1 291.573 355.48V359.11C291.573 359.49 291.483 359.77 291.303 359.95C291.143 360.11 290.873 360.19 290.493 360.19H287.583V370.27H290.493C290.873 370.27 291.143 370.36 291.303 370.54C291.483 370.7 291.573 370.97 291.573 371.35V374.92C291.573 375.3 291.483 375.58 291.303 375.76C291.143 375.92 290.873 376 290.493 376H277.713ZM311.777 376H302.327C299.827 376 297.967 375.5 296.747 374.5C295.547 373.5 294.947 371.96 294.947 369.88V360.52C294.947 358.44 295.547 356.9 296.747 355.9C297.967 354.9 299.827 354.4 302.327 354.4H309.827C310.207 354.4 310.477 354.49 310.637 354.67C310.817 354.83 310.907 355.1 310.907 355.48V359.11C310.907 359.49 310.817 359.77 310.637 359.95C310.477 360.11 310.207 360.19 309.827 360.19H303.587C302.967 360.19 302.507 360.32 302.207 360.58C301.907 360.82 301.757 361.19 301.757 361.69V368.86C301.757 369.36 301.867 369.73 302.087 369.97C302.327 370.21 302.677 370.33 303.137 370.33H306.047V365.65C306.047 365.27 306.127 365 306.287 364.84C306.467 364.66 306.747 364.57 307.127 364.57H311.777C312.157 364.57 312.427 364.66 312.587 364.84C312.767 365 312.857 365.27 312.857 365.65V374.92C312.857 375.3 312.767 375.58 312.587 375.76C312.427 375.92 312.157 376 311.777 376Z" fill="#ED3B02"/>
<path d="M93.9967 37.368V51H46.8607V39.672C47.6927 39.576 48.6527 39.464 49.7407 39.336C50.8287 39.176 51.9807 39 53.1967 38.808C54.4447 38.616 55.7247 38.408 57.0367 38.184C58.3487 37.928 59.6447 37.656 60.9247 37.368C64.6047 37.368 68.2847 37.368 71.9647 37.368C75.6447 37.368 79.3087 37.368 82.9567 37.368C86.6367 37.368 90.3167 37.368 93.9967 37.368ZM58.7647 37.848C60.5567 37.432 62.4287 36.984 64.3807 36.504C66.3647 35.992 68.2047 35.416 69.9007 34.776C71.6287 34.136 73.0207 33.432 74.0767 32.664C75.1647 31.864 75.7087 30.984 75.7087 30.024C75.7087 29.256 75.4527 28.616 74.9407 28.104C74.4607 27.592 73.8207 27.224 73.0207 27C72.2527 26.744 71.4367 26.616 70.5727 26.616C69.6767 26.616 68.8127 26.744 67.9807 27C67.1487 27.256 66.4607 27.64 65.9167 28.152C65.4047 28.664 65.1487 29.288 65.1487 30.024C65.1487 30.888 65.5327 31.752 66.3007 32.616C67.0687 33.448 68.4287 34.152 70.3807 34.728L46.1887 30.6C45.9327 28.328 46.2047 26.296 47.0047 24.504C47.8367 22.68 49.0687 21.08 50.7007 19.704C52.3327 18.328 54.2367 17.192 56.4127 16.296C58.6207 15.4 60.9727 14.728 63.4687 14.28C65.9967 13.8 68.5567 13.56 71.1487 13.56C74.0607 13.56 76.8767 13.832 79.5967 14.376C82.3167 14.888 84.7487 15.672 86.8927 16.728C89.0687 17.752 90.7807 19.048 92.0287 20.616C93.3087 22.184 93.9487 24.008 93.9487 26.088C93.9487 28.872 92.7327 31.16 90.3007 32.952C87.9007 34.744 84.1087 36.04 78.9247 36.84C73.7407 37.64 67.0207 37.976 58.7647 37.848ZM95.7022 51V37.512H113.222V51H95.7022Z" fill="#ED3B02"/>
<path d="M313.75 135.312C302.343 135.312 291.678 138.453 282.471 143.839L242.151 81.875H299.059C298.982 84.8319 298.294 89.7778 294.915 93.6669C291.435 97.6628 285.809 99.6875 278.179 99.6875C277.392 99.6875 276.638 100 276.082 100.557C275.527 101.114 275.214 101.869 275.214 102.656C275.214 103.444 275.527 104.199 276.082 104.755C276.638 105.312 277.392 105.625 278.179 105.625C287.599 105.625 294.731 102.917 299.379 97.5737C306.274 89.6412 304.893 78.9538 304.827 78.5025C304.73 77.7921 304.379 77.141 303.84 76.6695C303.3 76.198 302.609 75.938 301.893 75.9375H236.679C236.396 75.5129 236.009 75.1686 235.555 74.9382C235.1 74.7078 234.594 74.5991 234.085 74.6226C233.576 74.6461 233.082 74.8011 232.651 75.0725C232.219 75.3439 231.865 75.7224 231.623 76.1713C231.381 76.6201 231.259 77.1241 231.269 77.6342C231.279 78.1442 231.421 78.643 231.68 79.0821C231.94 79.5212 232.308 79.8855 232.75 80.1398C233.191 80.3941 233.691 80.5296 234.2 80.5331L250.984 106.326H156.927L138.65 75.9375H171.464C172.25 75.9375 173.004 75.6247 173.56 75.068C174.116 74.5112 174.429 73.7561 174.429 72.9688C174.429 72.1814 174.116 71.4263 173.56 70.8695C173.004 70.3128 172.25 70 171.464 70H118.107C117.321 70 116.567 70.3128 116.011 70.8695C115.455 71.4263 115.143 72.1814 115.143 72.9688C115.143 73.7561 115.455 74.5112 116.011 75.068C116.567 75.6247 117.321 75.9375 118.107 75.9375H131.826C131.885 76.0741 131.897 76.2225 131.974 76.3531L152.202 109.971L134.096 141.974C125.463 137.603 115.925 135.321 106.25 135.312C71.9236 135.312 44 163.278 44 197.656C44 232.034 71.9236 260 106.25 260C139.379 260 166.466 233.928 168.026 200.625H233.714C233.886 204.063 233.145 208.748 229.896 212.435C226.387 216.419 220.689 218.438 212.964 218.438C212.178 218.438 211.424 218.75 210.868 219.307C210.312 219.864 210 220.619 210 221.406C210 222.194 210.312 222.949 210.868 223.505C211.424 224.062 212.178 224.375 212.964 224.375C222.497 224.375 229.707 221.662 234.39 216.312C241.161 208.569 239.886 198.286 239.833 197.852C239.739 197.138 239.389 196.481 238.848 196.006C238.307 195.531 237.612 195.269 236.892 195.269H213.605L255.383 113.094L277.497 147.081C261.786 158.403 251.5 176.828 251.5 197.656C251.5 232.034 279.424 260 313.75 260C348.076 260 376 232.034 376 197.656C376 163.278 348.076 135.312 313.75 135.312ZM249.158 111.562L208.559 192.123L160.502 111.562H249.158ZM155.712 115.808L203.526 195.269H168.381C167.992 185.132 165.135 175.244 160.06 166.465C154.985 157.686 147.844 150.281 139.26 144.896L155.712 115.808ZM162.453 195.269H110.762L136.337 150.055C144.01 154.922 150.393 161.576 154.94 169.45C159.488 177.323 162.066 186.182 162.453 195.269ZM106.25 254.062C75.1961 254.062 49.9286 228.757 49.9286 197.656C49.9286 166.556 75.1961 141.25 106.25 141.25C115.202 141.25 123.644 143.411 131.174 147.146L103.096 196.772C102.84 197.223 102.706 197.733 102.709 198.252C102.712 198.771 102.852 199.281 103.114 199.728C103.641 200.637 104.62 201.201 105.675 200.619H162.394C160.55 230.651 136.112 254.062 106.25 254.062ZM313.75 254.062C282.696 254.062 257.429 228.757 257.429 197.656C257.429 178.912 266.642 162.316 280.74 152.056L311.847 199.859C312.278 200.516 312.951 200.977 313.72 201.139C314.488 201.301 315.29 201.153 315.949 200.726C316.606 200.294 317.065 199.62 317.227 198.85C317.39 198.08 317.241 197.278 316.815 196.617L285.708 148.814C294.226 143.861 303.9 141.251 313.75 141.25C344.804 141.25 370.071 166.556 370.071 197.656C370.071 228.757 344.804 254.062 313.75 254.062Z" fill="#ED3B02"/>
</svg>
