<svg width="353" height="450" viewBox="0 0 353 450" fill="none" xmlns="http://www.w3.org/2000/svg">
<path d="M39.5277 322.879V326.719H41.7777C42.2977 326.719 42.6477 326.589 42.8277 326.329C43.0077 326.049 43.0977 325.709 43.0977 325.309V324.289C43.0977 323.889 43.0077 323.559 42.8277 323.299C42.6477 323.019 42.2977 322.879 41.7777 322.879H39.5277ZM38.4477 339.079H33.8277C33.4477 339.079 33.1677 338.999 32.9877 338.839C32.8277 338.659 32.7477 338.379 32.7477 337.999V318.559C32.7477 318.179 32.8277 317.909 32.9877 317.749C33.1677 317.569 33.4477 317.479 33.8277 317.479H43.8177C46.0577 317.479 47.5977 317.949 48.4377 318.889C49.2977 319.809 49.7277 321.009 49.7277 322.489V323.869C49.7277 324.709 49.5977 325.429 49.3377 326.029C49.0977 326.609 48.6677 327.029 48.0477 327.289C49.1277 327.409 49.9977 327.849 50.6577 328.609C51.3377 329.369 51.6777 330.379 51.6777 331.639V337.999C51.6777 338.379 51.5877 338.659 51.4077 338.839C51.2477 338.999 50.9777 339.079 50.5977 339.079H45.9477C45.5677 339.079 45.2877 338.999 45.1077 338.839C44.9477 338.659 44.8677 338.379 44.8677 337.999V333.409C44.8677 332.969 44.7777 332.649 44.5977 332.449C44.4377 332.229 44.1477 332.119 43.7277 332.119H39.5277V337.999C39.5277 338.379 39.4377 338.659 39.2577 338.839C39.0977 338.999 38.8277 339.079 38.4477 339.079ZM55.6427 339.079C55.2627 339.079 54.9827 338.999 54.8027 338.839C54.6427 338.659 54.5627 338.379 54.5627 337.999V334.429C54.5627 334.049 54.6427 333.779 54.8027 333.619C54.9827 333.439 55.2627 333.349 55.6427 333.349H58.6127V323.269H55.6427C55.2627 323.269 54.9827 323.189 54.8027 323.029C54.6427 322.849 54.5627 322.569 54.5627 322.189V318.559C54.5627 318.179 54.6427 317.909 54.8027 317.749C54.9827 317.569 55.2627 317.479 55.6427 317.479H68.4227C68.8027 317.479 69.0727 317.569 69.2327 317.749C69.4127 317.909 69.5027 318.179 69.5027 318.559V322.189C69.5027 322.569 69.4127 322.849 69.2327 323.029C69.0727 323.189 68.8027 323.269 68.4227 323.269H65.5127V333.349H68.4227C68.8027 333.349 69.0727 333.439 69.2327 333.619C69.4127 333.779 69.5027 334.049 69.5027 334.429V337.999C69.5027 338.379 69.4127 338.659 69.2327 338.839C69.0727 338.999 68.8027 339.079 68.4227 339.079H55.6427ZM78.7867 339.079H74.2867C73.9067 339.079 73.6267 338.999 73.4467 338.839C73.2867 338.659 73.2067 338.379 73.2067 337.999V318.559C73.2067 318.179 73.2867 317.909 73.4467 317.749C73.6267 317.569 73.9067 317.479 74.2867 317.479H77.4067C77.7867 317.479 78.1067 317.539 78.3667 317.659C78.6467 317.779 78.9167 317.989 79.1767 318.289L84.9967 324.949V318.559C84.9967 318.179 85.0767 317.909 85.2367 317.749C85.4167 317.569 85.6967 317.479 86.0767 317.479H90.5767C90.9567 317.479 91.2267 317.569 91.3867 317.749C91.5667 317.909 91.6567 318.179 91.6567 318.559V337.999C91.6567 338.379 91.5667 338.659 91.3867 338.839C91.2267 338.999 90.9567 339.079 90.5767 339.079H86.0767C85.6967 339.079 85.4167 338.999 85.2367 338.839C85.0767 338.659 84.9967 338.379 84.9967 337.999V334.309L79.8667 328.099V337.999C79.8667 338.379 79.7767 338.659 79.5967 338.839C79.4367 338.999 79.1667 339.079 78.7867 339.079ZM112.295 339.079H102.845C100.345 339.079 98.4846 338.579 97.2646 337.579C96.0646 336.579 95.4646 335.039 95.4646 332.959V323.599C95.4646 321.519 96.0646 319.979 97.2646 318.979C98.4846 317.979 100.345 317.479 102.845 317.479H110.345C110.725 317.479 110.995 317.569 111.155 317.749C111.335 317.909 111.425 318.179 111.425 318.559V322.189C111.425 322.569 111.335 322.849 111.155 323.029C110.995 323.189 110.725 323.269 110.345 323.269H104.105C103.485 323.269 103.025 323.399 102.725 323.659C102.425 323.899 102.275 324.269 102.275 324.769V331.939C102.275 332.439 102.385 332.809 102.605 333.049C102.845 333.289 103.195 333.409 103.655 333.409H106.565V328.729C106.565 328.349 106.645 328.079 106.805 327.919C106.985 327.739 107.265 327.649 107.645 327.649H112.295C112.675 327.649 112.945 327.739 113.105 327.919C113.285 328.079 113.375 328.349 113.375 328.729V337.999C113.375 338.379 113.285 338.659 113.105 338.839C112.945 338.999 112.675 339.079 112.295 339.079ZM133.68 339.079H128.82C128.44 339.079 128.16 338.999 127.98 338.839C127.82 338.659 127.74 338.379 127.74 337.999V323.269H123.33C122.95 323.269 122.67 323.189 122.49 323.029C122.33 322.849 122.25 322.569 122.25 322.189V318.559C122.25 318.179 122.33 317.909 122.49 317.749C122.67 317.569 122.95 317.479 123.33 317.479H139.17C139.55 317.479 139.82 317.569 139.98 317.749C140.16 317.909 140.25 318.179 140.25 318.559V322.189C140.25 322.569 140.16 322.849 139.98 323.029C139.82 323.189 139.55 323.269 139.17 323.269H134.76V337.999C134.76 338.379 134.67 338.659 134.49 338.839C134.33 338.999 134.06 339.079 133.68 339.079ZM143.768 339.079C143.388 339.079 143.108 338.999 142.928 338.839C142.768 338.659 142.688 338.379 142.688 337.999V334.429C142.688 334.049 142.768 333.779 142.928 333.619C143.108 333.439 143.388 333.349 143.768 333.349H146.738V323.269H143.768C143.388 323.269 143.108 323.189 142.928 323.029C142.768 322.849 142.688 322.569 142.688 322.189V318.559C142.688 318.179 142.768 317.909 142.928 317.749C143.108 317.569 143.388 317.479 143.768 317.479H156.548C156.928 317.479 157.198 317.569 157.358 317.749C157.538 317.909 157.628 318.179 157.628 318.559V322.189C157.628 322.569 157.538 322.849 157.358 323.029C157.198 323.189 156.928 323.269 156.548 323.269H153.638V333.349H156.548C156.928 333.349 157.198 333.439 157.358 333.619C157.538 333.779 157.628 334.049 157.628 334.429V337.999C157.628 338.379 157.538 338.659 157.358 338.839C157.198 338.999 156.928 339.079 156.548 339.079H143.768ZM177.682 339.079H162.412C162.032 339.079 161.752 338.999 161.572 338.839C161.412 338.659 161.332 338.379 161.332 337.999V318.559C161.332 318.179 161.412 317.909 161.572 317.749C161.752 317.569 162.032 317.479 162.412 317.479H167.062C167.442 317.479 167.712 317.569 167.872 317.749C168.052 317.909 168.142 318.179 168.142 318.559V333.409H172.252V328.549C172.252 328.169 172.332 327.899 172.492 327.739C172.672 327.559 172.952 327.469 173.332 327.469H177.682C178.062 327.469 178.332 327.559 178.492 327.739C178.672 327.899 178.762 328.169 178.762 328.549V337.999C178.762 338.379 178.672 338.659 178.492 338.839C178.332 338.999 178.062 339.079 177.682 339.079ZM206.936 333.409C206.936 334.329 206.796 335.169 206.516 335.929C206.256 336.669 205.776 337.309 205.076 337.849C204.396 338.369 203.446 338.779 202.226 339.079C201.026 339.379 199.496 339.529 197.636 339.529C195.776 339.529 194.236 339.379 193.016 339.079C191.796 338.779 190.836 338.369 190.136 337.849C189.456 337.309 188.976 336.669 188.696 335.929C188.436 335.169 188.306 334.329 188.306 333.409V323.179C188.306 322.259 188.436 321.429 188.696 320.689C188.976 319.929 189.456 319.279 190.136 318.739C190.836 318.199 191.796 317.779 193.016 317.479C194.236 317.179 195.776 317.029 197.636 317.029C199.496 317.029 201.026 317.179 202.226 317.479C203.446 317.779 204.396 318.199 205.076 318.739C205.776 319.279 206.256 319.929 206.516 320.689C206.796 321.429 206.936 322.259 206.936 323.179V333.409ZM195.116 332.329C195.116 332.729 195.266 333.069 195.566 333.349C195.866 333.609 196.556 333.739 197.636 333.739C198.716 333.739 199.406 333.609 199.706 333.349C200.006 333.069 200.156 332.729 200.156 332.329V324.259C200.156 323.879 200.006 323.559 199.706 323.299C199.406 323.019 198.716 322.879 197.636 322.879C196.556 322.879 195.866 323.019 195.566 323.299C195.266 323.559 195.116 323.879 195.116 324.259V332.329ZM220.776 339.079H211.296C210.916 339.079 210.636 338.999 210.456 338.839C210.296 338.659 210.216 338.379 210.216 337.999V334.489C210.216 334.109 210.296 333.839 210.456 333.679C210.636 333.499 210.916 333.409 211.296 333.409H219.366C219.626 333.409 219.816 333.329 219.936 333.169C220.076 332.989 220.146 332.779 220.146 332.539C220.146 332.199 220.076 331.949 219.936 331.789C219.816 331.629 219.626 331.539 219.366 331.519L214.866 330.889C213.466 330.689 212.336 330.229 211.476 329.509C210.636 328.789 210.216 327.589 210.216 325.909V322.759C210.216 321.059 210.766 319.759 211.866 318.859C212.966 317.939 214.486 317.479 216.426 317.479H224.826C225.206 317.479 225.476 317.569 225.636 317.749C225.816 317.909 225.906 318.179 225.906 318.559V322.129C225.906 322.509 225.816 322.789 225.636 322.969C225.476 323.129 225.206 323.209 224.826 323.209H217.836C217.576 323.209 217.376 323.299 217.236 323.479C217.096 323.639 217.026 323.849 217.026 324.109C217.026 324.369 217.096 324.589 217.236 324.769C217.376 324.949 217.576 325.049 217.836 325.069L222.306 325.669C223.706 325.869 224.836 326.329 225.696 327.049C226.556 327.769 226.986 328.969 226.986 330.649V333.799C226.986 335.499 226.426 336.809 225.306 337.729C224.206 338.629 222.696 339.079 220.776 339.079ZM242.736 339.079H238.086C237.706 339.079 237.426 338.999 237.246 338.839C237.086 338.659 237.006 338.379 237.006 337.999V318.559C237.006 318.179 237.086 317.909 237.246 317.749C237.426 317.569 237.706 317.479 238.086 317.479H247.266C249.986 317.479 251.846 318.019 252.846 319.099C253.846 320.179 254.346 321.589 254.346 323.329V327.169C254.346 328.909 253.846 330.319 252.846 331.399C251.846 332.479 249.986 333.019 247.266 333.019H243.816V337.999C243.816 338.379 243.726 338.659 243.546 338.839C243.386 338.999 243.116 339.079 242.736 339.079ZM243.756 323.089V327.619H246.456C247.036 327.619 247.416 327.469 247.596 327.169C247.776 326.869 247.866 326.529 247.866 326.149V324.559C247.866 324.179 247.776 323.839 247.596 323.539C247.416 323.239 247.036 323.089 246.456 323.089H243.756ZM267.842 316.159V315.109C267.842 314.729 267.732 314.439 267.512 314.239C267.292 314.019 266.812 313.909 266.072 313.909C265.332 313.909 264.862 314.019 264.662 314.239C264.462 314.439 264.362 314.729 264.362 315.109V316.159C264.362 316.599 264.462 316.929 264.662 317.149C264.862 317.349 265.332 317.449 266.072 317.449C266.812 317.449 267.292 317.349 267.512 317.149C267.732 316.929 267.842 316.599 267.842 316.159ZM264.992 323.779L263.582 328.339H268.292L266.882 323.779C266.822 323.599 266.742 323.469 266.642 323.389C266.542 323.309 266.432 323.269 266.312 323.269H265.562C265.442 323.269 265.332 323.309 265.232 323.389C265.132 323.469 265.052 323.599 264.992 323.779ZM263.282 337.999C263.282 338.379 263.192 338.659 263.012 338.839C262.852 338.999 262.582 339.079 262.202 339.079H257.792C257.412 339.079 257.132 338.999 256.952 338.839C256.792 338.659 256.712 338.379 256.712 337.999V330.079C256.712 329.479 256.802 328.789 256.982 328.009C257.182 327.229 257.482 326.319 257.882 325.279L260.402 318.679C260.082 318.319 259.852 317.909 259.712 317.449C259.592 316.989 259.532 316.489 259.532 315.949V314.209C259.532 313.569 259.622 312.989 259.802 312.469C260.002 311.929 260.342 311.479 260.822 311.119C261.322 310.739 261.992 310.449 262.832 310.249C263.672 310.029 264.742 309.919 266.042 309.919C267.342 309.919 268.412 310.029 269.252 310.249C270.092 310.449 270.752 310.739 271.232 311.119C271.732 311.479 272.072 311.929 272.252 312.469C272.452 312.989 272.552 313.569 272.552 314.209V315.949C272.552 316.489 272.482 316.989 272.342 317.449C272.222 317.909 272.002 318.319 271.682 318.679L274.202 325.279C274.602 326.319 274.892 327.229 275.072 328.009C275.272 328.789 275.372 329.479 275.372 330.079V337.999C275.372 338.379 275.282 338.659 275.102 338.839C274.942 338.999 274.672 339.079 274.292 339.079H269.762C269.362 339.079 269.062 338.999 268.862 338.839C268.682 338.659 268.592 338.379 268.592 337.999V333.799H263.282V337.999ZM297.548 336.109C297.548 336.489 297.458 336.769 297.278 336.949C297.118 337.109 296.848 337.189 296.468 337.189H292.748C292.368 337.189 292.088 337.109 291.908 336.949C291.748 336.769 291.668 336.489 291.668 336.109V331.069H286.778C286.398 331.069 286.118 330.989 285.938 330.829C285.778 330.649 285.698 330.369 285.698 329.989V326.569C285.698 326.189 285.778 325.919 285.938 325.759C286.118 325.579 286.398 325.489 286.778 325.489H291.668V320.449C291.668 320.069 291.748 319.799 291.908 319.639C292.088 319.459 292.368 319.369 292.748 319.369H296.468C296.848 319.369 297.118 319.459 297.278 319.639C297.458 319.799 297.548 320.069 297.548 320.449V325.489H302.438C302.818 325.489 303.088 325.579 303.248 325.759C303.428 325.919 303.518 326.189 303.518 326.569V329.989C303.518 330.369 303.428 330.649 303.248 330.829C303.088 330.989 302.818 331.069 302.438 331.069H297.548V336.109ZM318.049 334.069H312.979C311.039 334.069 309.639 333.669 308.779 332.869C307.939 332.049 307.519 330.789 307.519 329.089V318.559C307.519 318.179 307.599 317.909 307.759 317.749C307.939 317.569 308.219 317.479 308.599 317.479H313.249C313.629 317.479 313.899 317.569 314.059 317.749C314.239 317.909 314.329 318.179 314.329 318.559V326.779C314.329 327.099 314.409 327.349 314.569 327.529C314.749 327.709 314.979 327.799 315.259 327.799H318.049V318.559C318.049 318.179 318.129 317.909 318.289 317.749C318.469 317.569 318.749 317.479 319.129 317.479H323.749C324.129 317.479 324.399 317.569 324.559 317.749C324.739 317.909 324.829 318.179 324.829 318.559V337.999C324.829 338.379 324.739 338.659 324.559 338.839C324.399 338.999 324.129 339.079 323.749 339.079H319.129C318.749 339.079 318.469 338.999 318.289 338.839C318.129 338.659 318.049 338.379 318.049 337.999V334.069ZM339.168 339.079H329.628C329.248 339.079 328.968 338.999 328.788 338.839C328.628 338.659 328.548 338.379 328.548 337.999V334.489C328.548 334.109 328.628 333.839 328.788 333.679C328.968 333.499 329.248 333.409 329.628 333.409H337.368C337.608 333.409 337.798 333.359 337.938 333.259C338.098 333.139 338.178 332.959 338.178 332.719V331.549C338.178 331.309 338.098 331.139 337.938 331.039C337.798 330.919 337.608 330.859 337.368 330.859H329.928C329.548 330.859 329.268 330.779 329.088 330.619C328.928 330.439 328.848 330.159 328.848 329.779V318.559C328.848 318.179 328.928 317.909 329.088 317.749C329.268 317.569 329.548 317.479 329.928 317.479H342.858C343.238 317.479 343.508 317.569 343.668 317.749C343.848 317.909 343.938 318.179 343.938 318.559V322.129C343.938 322.509 343.848 322.789 343.668 322.969C343.508 323.129 343.238 323.209 342.858 323.209H335.658V325.159H339.768C341.388 325.159 342.668 325.559 343.608 326.359C344.548 327.159 345.018 328.349 345.018 329.929V334.099C345.018 335.619 344.488 336.829 343.428 337.729C342.388 338.629 340.968 339.079 339.168 339.079ZM110.448 375.079H100.908C100.528 375.079 100.248 374.999 100.068 374.839C99.9077 374.659 99.8277 374.379 99.8277 373.999V370.489C99.8277 370.109 99.9077 369.839 100.068 369.679C100.248 369.499 100.528 369.409 100.908 369.409H108.648C108.888 369.409 109.078 369.359 109.218 369.259C109.378 369.139 109.458 368.959 109.458 368.719V367.549C109.458 367.309 109.378 367.139 109.218 367.039C109.078 366.919 108.888 366.859 108.648 366.859H101.208C100.828 366.859 100.548 366.779 100.368 366.619C100.208 366.439 100.128 366.159 100.128 365.779V354.559C100.128 354.179 100.208 353.909 100.368 353.749C100.548 353.569 100.828 353.479 101.208 353.479H114.138C114.518 353.479 114.788 353.569 114.948 353.749C115.128 353.909 115.218 354.179 115.218 354.559V358.129C115.218 358.509 115.128 358.789 114.948 358.969C114.788 359.129 114.518 359.209 114.138 359.209H106.938V361.159H111.048C112.668 361.159 113.948 361.559 114.888 362.359C115.828 363.159 116.298 364.349 116.298 365.929V370.099C116.298 371.619 115.768 372.829 114.708 373.729C113.668 374.629 112.248 375.079 110.448 375.079ZM137.672 369.409C137.672 370.329 137.542 371.169 137.282 371.929C137.022 372.669 136.552 373.309 135.872 373.849C135.192 374.369 134.252 374.779 133.052 375.079C131.872 375.379 130.362 375.529 128.522 375.529C126.682 375.529 125.162 375.379 123.962 375.079C122.782 374.779 121.852 374.369 121.172 373.849C120.492 373.309 120.012 372.669 119.732 371.929C119.472 371.169 119.342 370.329 119.342 369.409V359.179C119.342 358.259 119.472 357.429 119.732 356.689C120.012 355.929 120.492 355.279 121.172 354.739C121.852 354.199 122.782 353.779 123.962 353.479C125.162 353.179 126.682 353.029 128.522 353.029C130.362 353.029 131.872 353.179 133.052 353.479C134.252 353.779 135.192 354.199 135.872 354.739C136.552 355.279 137.022 355.929 137.282 356.689C137.542 357.429 137.672 358.259 137.672 359.179V369.409ZM126.122 368.329C126.122 368.729 126.262 369.069 126.542 369.349C126.842 369.609 127.502 369.739 128.522 369.739C129.542 369.739 130.192 369.609 130.472 369.349C130.772 369.069 130.922 368.729 130.922 368.329V360.259C130.922 359.879 130.772 359.559 130.472 359.299C130.192 359.019 129.542 358.879 128.522 358.879C127.502 358.879 126.842 359.019 126.542 359.299C126.262 359.559 126.122 359.879 126.122 360.259V368.329ZM157.807 375.079H150.907C150.527 375.079 150.247 374.999 150.067 374.839C149.907 374.659 149.827 374.379 149.827 373.999V370.459C149.827 370.079 149.907 369.809 150.067 369.649C150.247 369.469 150.527 369.379 150.907 369.379H156.517C157.257 369.379 157.757 369.269 158.017 369.049C158.277 368.809 158.407 368.319 158.407 367.579V366.919C157.927 367.059 157.367 367.169 156.727 367.249C156.107 367.329 155.397 367.369 154.597 367.369C151.897 367.369 150.047 366.919 149.047 366.019C148.047 365.099 147.547 363.749 147.547 361.969V359.089C147.547 358.169 147.667 357.339 147.907 356.599C148.167 355.859 148.617 355.229 149.257 354.709C149.917 354.169 150.807 353.759 151.927 353.479C153.047 353.179 154.467 353.029 156.187 353.029C158.027 353.029 159.527 353.179 160.687 353.479C161.867 353.759 162.787 354.169 163.447 354.709C164.107 355.229 164.557 355.859 164.797 356.599C165.057 357.339 165.187 358.169 165.187 359.089V368.929C165.187 370.749 164.657 372.229 163.597 373.369C162.557 374.509 160.627 375.079 157.807 375.079ZM158.407 361.339V359.569C158.407 359.249 158.287 358.989 158.047 358.789C157.807 358.569 157.257 358.459 156.397 358.459C155.497 358.459 154.927 358.569 154.687 358.789C154.447 358.989 154.327 359.249 154.327 359.569V361.339C154.327 361.639 154.447 361.899 154.687 362.119C154.927 362.319 155.497 362.419 156.397 362.419C157.257 362.419 157.807 362.319 158.047 362.119C158.287 361.899 158.407 361.639 158.407 361.339ZM187.008 369.409C187.008 370.329 186.878 371.169 186.618 371.929C186.358 372.669 185.888 373.309 185.208 373.849C184.528 374.369 183.588 374.779 182.388 375.079C181.208 375.379 179.698 375.529 177.858 375.529C176.018 375.529 174.498 375.379 173.298 375.079C172.118 374.779 171.188 374.369 170.508 373.849C169.828 373.309 169.348 372.669 169.068 371.929C168.808 371.169 168.678 370.329 168.678 369.409V359.179C168.678 358.259 168.808 357.429 169.068 356.689C169.348 355.929 169.828 355.279 170.508 354.739C171.188 354.199 172.118 353.779 173.298 353.479C174.498 353.179 176.018 353.029 177.858 353.029C179.698 353.029 181.208 353.179 182.388 353.479C183.588 353.779 184.528 354.199 185.208 354.739C185.888 355.279 186.358 355.929 186.618 356.689C186.878 357.429 187.008 358.259 187.008 359.179V369.409ZM175.458 368.329C175.458 368.729 175.598 369.069 175.878 369.349C176.178 369.609 176.838 369.739 177.858 369.739C178.878 369.739 179.528 369.609 179.808 369.349C180.108 369.069 180.258 368.729 180.258 368.329V360.259C180.258 359.879 180.108 359.559 179.808 359.299C179.528 359.019 178.878 358.879 177.858 358.879C176.838 358.879 176.178 359.019 175.878 359.299C175.598 359.559 175.458 359.879 175.458 360.259V368.329ZM211.643 353.479C212.023 353.479 212.293 353.569 212.453 353.749C212.633 353.909 212.723 354.179 212.723 354.559V362.149C212.723 363.089 212.623 363.889 212.423 364.549C212.243 365.209 211.963 365.759 211.583 366.199C211.203 366.639 210.713 367.009 210.113 367.309C209.533 367.589 208.843 367.849 208.043 368.089L205.823 368.749V373.999C205.823 374.379 205.733 374.659 205.553 374.839C205.393 374.999 205.123 375.079 204.743 375.079H199.883C199.503 375.079 199.223 374.999 199.043 374.839C198.883 374.659 198.803 374.379 198.803 373.999V368.569C198.803 367.629 198.893 366.829 199.073 366.169C199.273 365.509 199.563 364.959 199.943 364.519C200.323 364.079 200.803 363.719 201.383 363.439C201.983 363.139 202.683 362.869 203.483 362.629L205.913 361.969V359.269H197.693C197.313 359.269 197.033 359.189 196.853 359.029C196.693 358.849 196.613 358.569 196.613 358.189V354.559C196.613 354.179 196.693 353.909 196.853 353.749C197.033 353.569 197.313 353.479 197.693 353.479H211.643ZM226.551 375.079H217.011C216.631 375.079 216.351 374.999 216.171 374.839C216.011 374.659 215.931 374.379 215.931 373.999V370.489C215.931 370.109 216.011 369.839 216.171 369.679C216.351 369.499 216.631 369.409 217.011 369.409H224.751C224.991 369.409 225.181 369.359 225.321 369.259C225.481 369.139 225.561 368.959 225.561 368.719V367.549C225.561 367.309 225.481 367.139 225.321 367.039C225.181 366.919 224.991 366.859 224.751 366.859H217.311C216.931 366.859 216.651 366.779 216.471 366.619C216.311 366.439 216.231 366.159 216.231 365.779V354.559C216.231 354.179 216.311 353.909 216.471 353.749C216.651 353.569 216.931 353.479 217.311 353.479H230.241C230.621 353.479 230.891 353.569 231.051 353.749C231.231 353.909 231.321 354.179 231.321 354.559V358.129C231.321 358.509 231.231 358.789 231.051 358.969C230.891 359.129 230.621 359.209 230.241 359.209H223.041V361.159H227.151C228.771 361.159 230.051 361.559 230.991 362.359C231.931 363.159 232.401 364.349 232.401 365.929V370.099C232.401 371.619 231.871 372.829 230.811 373.729C229.771 374.629 228.351 375.079 226.551 375.079ZM256.223 375.079H242.963C242.583 375.079 242.303 374.999 242.123 374.839C241.963 374.659 241.883 374.379 241.883 373.999V370.369C241.883 369.989 241.963 369.719 242.123 369.559C242.303 369.379 242.583 369.289 242.963 369.289H246.323V359.269H243.563C243.183 359.269 242.903 359.189 242.723 359.029C242.563 358.849 242.483 358.569 242.483 358.189V354.559C242.483 354.179 242.563 353.909 242.723 353.749C242.903 353.569 243.183 353.479 243.563 353.479H252.263C252.643 353.479 252.913 353.569 253.073 353.749C253.253 353.909 253.343 354.179 253.343 354.559V369.289H256.223C256.603 369.289 256.873 369.379 257.033 369.559C257.213 369.719 257.303 369.989 257.303 370.369V373.999C257.303 374.379 257.213 374.659 257.033 374.839C256.873 374.999 256.603 375.079 256.223 375.079ZM269.973 370.069H264.903C262.963 370.069 261.563 369.669 260.703 368.869C259.863 368.049 259.443 366.789 259.443 365.089V354.559C259.443 354.179 259.523 353.909 259.683 353.749C259.863 353.569 260.143 353.479 260.523 353.479H265.173C265.553 353.479 265.823 353.569 265.983 353.749C266.163 353.909 266.253 354.179 266.253 354.559V362.779C266.253 363.099 266.333 363.349 266.493 363.529C266.673 363.709 266.903 363.799 267.183 363.799H269.973V354.559C269.973 354.179 270.053 353.909 270.213 353.749C270.393 353.569 270.673 353.479 271.053 353.479H275.673C276.053 353.479 276.323 353.569 276.483 353.749C276.663 353.909 276.753 354.179 276.753 354.559V373.999C276.753 374.379 276.663 374.659 276.483 374.839C276.323 374.999 276.053 375.079 275.673 375.079H271.053C270.673 375.079 270.393 374.999 270.213 374.839C270.053 374.659 269.973 374.379 269.973 373.999V370.069Z" fill="#ED3B02"/>
<path d="M25.7455 51C25.7455 49.272 25.7455 47.56 25.7455 45.864C25.7455 44.136 25.7455 42.424 25.7455 40.728C25.7455 39.032 25.7455 37.336 25.7455 35.64C25.7455 33.912 25.7455 32.184 25.7455 30.456C25.7455 30.424 25.7455 30.408 25.7455 30.408C25.7455 30.408 25.7295 30.408 25.6975 30.408C24.7695 30.408 23.8255 30.408 22.8655 30.408C21.9375 30.408 21.0095 30.408 20.0815 30.408L26.8975 15H45.6655C45.6655 16.632 45.6655 18.264 45.6655 19.896C45.6655 21.528 45.6655 23.16 45.6655 24.792C45.6655 27.704 45.6655 30.616 45.6655 33.528C45.6655 36.44 45.6655 39.352 45.6655 42.264C45.6655 45.176 45.6655 48.088 45.6655 51H25.7455ZM47.5694 51V37.512H65.0894V51H47.5694Z" fill="#ED3B02"/>
<path d="M243.188 183.861C244.52 185.744 246.07 187.506 247.827 189.106V189.105L255.982 196.534C254.99 199.658 253.572 202.821 251.692 206.035L251.238 206.798C249.069 210.377 246.619 213.544 243.88 216.33L235.057 213.506C221.407 209.137 206.575 214.139 198.399 225.664L188.818 239.169V239.17C180.069 251.507 181.117 268.137 191.123 279.277C185.997 279.625 180.684 279.801 175.185 279.801C137.202 279.801 108.26 271.513 88.2422 254.998C77.9102 246.474 72 234.082 72 221.078V209.517C72.0003 195.456 83.9155 183.847 98.877 183.847L243.188 183.861ZM264.425 144.575C266.991 138.77 273.097 135.65 279.051 136.817L280.465 137.175L288.751 139.716C296.015 141.943 301.61 147.927 303.42 155.479C308.039 174.76 302.594 198.722 286.173 227.655C270.026 256.103 252.682 272.771 234.354 278.609L233.48 278.879C226.793 280.882 219.606 279.439 214.178 275.09L212.651 273.745L206.342 267.666C201.846 263.334 200.897 256.463 203.9 251.073L204.741 249.744L214.276 236.305C217.351 231.971 222.579 229.934 227.604 230.938L229.117 231.335L246.719 236.968L248.166 237.432L249.396 236.538C256.792 231.168 262.944 224.415 267.854 216.312H267.855C272.06 209.371 274.849 202.273 276.166 195.025L276.175 194.976L276.182 194.927L276.688 191.496L276.921 189.916L275.74 188.841L261.013 175.428C257.059 171.825 255.599 166.2 257.205 161.118L257.77 159.635L264.425 144.575ZM175.185 31C210.314 31 238.579 58.2967 238.579 91.7109C238.579 125.125 210.314 152.422 175.185 152.422C140.055 152.422 111.79 125.125 111.79 91.7109C111.79 58.2967 140.055 31 175.185 31Z" stroke="#ED3B02" stroke-width="6"/>
</svg>
