<svg width="339" height="408" viewBox="0 0 339 408" fill="none" xmlns="http://www.w3.org/2000/svg">
<path d="M49.8863 31.272C49.8543 31.272 49.8383 31.288 49.8383 31.32C49.8383 31.32 49.8383 31.336 49.8383 31.368C49.8383 31.368 49.8543 31.368 49.8863 31.368C52.0303 31.624 53.7583 32.152 55.0703 32.952C56.4143 33.72 57.4063 34.696 58.0463 35.88C58.6863 37.064 59.0063 38.392 59.0063 39.864C59.0063 41.912 58.3183 43.72 56.9423 45.288C55.5663 46.856 53.7103 48.168 51.3743 49.224C49.0383 50.28 46.3983 51.08 43.4543 51.624C40.5423 52.168 37.5343 52.44 34.4303 52.44C31.6143 52.44 28.8303 52.216 26.0783 51.768C23.3263 51.32 20.7663 50.632 18.3983 49.704C16.0623 48.776 14.0303 47.608 12.3023 46.2C10.6063 44.792 9.37431 43.144 8.60631 41.256C7.83831 39.336 7.67831 37.16 8.12631 34.728L28.0463 32.52C27.8543 33.384 27.9023 34.12 28.1903 34.728C28.4783 35.336 28.9263 35.832 29.5343 36.216C30.1423 36.6 30.8463 36.888 31.6463 37.08C32.4783 37.24 33.3103 37.32 34.1423 37.32C34.8463 37.32 35.5343 37.256 36.2063 37.128C36.8783 37 37.4703 36.824 37.9823 36.6C38.5263 36.376 38.9423 36.104 39.2303 35.784C39.5503 35.432 39.7103 35.048 39.7103 34.632C39.7103 34.088 39.5663 33.672 39.2783 33.384C39.0223 33.096 38.5103 32.904 37.7423 32.808C36.9743 32.712 35.8383 32.664 34.3343 32.664V31.752C35.8063 31.752 36.8943 31.688 37.5983 31.56C38.3343 31.4 38.8143 31.176 39.0383 30.888C39.2943 30.568 39.4223 30.168 39.4223 29.688C39.4223 29.304 39.2783 28.968 38.9903 28.68C38.7023 28.36 38.3023 28.088 37.7903 27.864C37.2783 27.64 36.7023 27.48 36.0623 27.384C35.4543 27.256 34.8143 27.192 34.1423 27.192C33.0223 27.192 31.9343 27.368 30.8783 27.72C29.8543 28.072 29.0543 28.648 28.4783 29.448C27.9343 30.216 27.7903 31.24 28.0463 32.52L7.64631 29.256C7.61431 27.048 8.09431 25.096 9.08631 23.4C10.0783 21.704 11.4383 20.232 13.1663 18.984C14.9263 17.736 16.9263 16.712 19.1663 15.912C21.4383 15.112 23.8543 14.52 26.4143 14.136C28.9743 13.752 31.5663 13.56 34.1903 13.56C37.2303 13.56 40.1743 13.8 43.0223 14.28C45.8703 14.76 48.4143 15.464 50.6543 16.392C52.9263 17.32 54.7183 18.44 56.0303 19.752C57.3743 21.064 58.0463 22.568 58.0463 24.264C58.0463 25.992 57.3263 27.512 55.8863 28.824C54.4783 30.136 52.4783 30.952 49.8863 31.272ZM60.4366 51V37.512H77.9566V51H60.4366Z" fill="#ED3B02"/>
<path d="M15.2631 340H7.46309C7.08309 340 6.76309 339.93 6.50309 339.79C6.26309 339.65 6.07309 339.39 5.93309 339.01L2.99309 331.66C2.81309 331.22 2.66309 330.84 2.54309 330.52C2.42309 330.18 2.32309 329.86 2.24309 329.56C2.16309 329.26 2.10309 328.95 2.06309 328.63C2.04309 328.29 2.03309 327.88 2.03309 327.4V319.48C2.03309 319.1 2.11309 318.83 2.27309 318.67C2.45309 318.49 2.73309 318.4 3.11309 318.4H7.88309C8.26309 318.4 8.55309 318.49 8.75309 318.67C8.95309 318.83 9.05309 319.1 9.05309 319.48V327.76C9.05309 327.96 9.07309 328.16 9.11309 328.36C9.15309 328.56 9.21309 328.77 9.29309 328.99L10.7031 333.19C10.7631 333.39 10.8331 333.53 10.9131 333.61C10.9931 333.67 11.1131 333.7 11.2731 333.7H11.6031C11.7631 333.7 11.8831 333.67 11.9631 333.61C12.0431 333.53 12.1131 333.39 12.1731 333.19L13.5831 328.96C13.6631 328.74 13.7231 328.53 13.7631 328.33C13.8031 328.13 13.8231 327.93 13.8231 327.73V319.48C13.8231 319.1 13.9031 318.83 14.0631 318.67C14.2431 318.49 14.5231 318.4 14.9031 318.4H19.6131C19.9931 318.4 20.2631 318.49 20.4231 318.67C20.6031 318.83 20.6931 319.1 20.6931 319.48V327.4C20.6931 327.88 20.6731 328.29 20.6331 328.63C20.6131 328.95 20.5631 329.26 20.4831 329.56C20.4031 329.86 20.3031 330.18 20.1831 330.52C20.0631 330.84 19.9131 331.22 19.7331 331.66L16.7931 339.01C16.6531 339.39 16.4531 339.65 16.1931 339.79C15.9531 339.93 15.6431 340 15.2631 340ZM24.9971 340C24.6171 340 24.3371 339.92 24.1571 339.76C23.9971 339.58 23.9171 339.3 23.9171 338.92V335.35C23.9171 334.97 23.9971 334.7 24.1571 334.54C24.3371 334.36 24.6171 334.27 24.9971 334.27H27.9671V324.19H24.9971C24.6171 324.19 24.3371 324.11 24.1571 323.95C23.9971 323.77 23.9171 323.49 23.9171 323.11V319.48C23.9171 319.1 23.9971 318.83 24.1571 318.67C24.3371 318.49 24.6171 318.4 24.9971 318.4H37.7771C38.1571 318.4 38.4271 318.49 38.5872 318.67C38.7671 318.83 38.8571 319.1 38.8571 319.48V323.11C38.8571 323.49 38.7671 323.77 38.5872 323.95C38.4271 324.11 38.1571 324.19 37.7771 324.19H34.8671V334.27H37.7771C38.1571 334.27 38.4271 334.36 38.5872 334.54C38.7671 334.7 38.8571 334.97 38.8571 335.35V338.92C38.8571 339.3 38.7671 339.58 38.5872 339.76C38.4271 339.92 38.1571 340 37.7771 340H24.9971ZM65.7995 340H56.3495C53.8495 340 51.9895 339.5 50.7695 338.5C49.5695 337.5 48.9695 335.96 48.9695 333.88V324.52C48.9695 322.44 49.5695 320.9 50.7695 319.9C51.9895 318.9 53.8495 318.4 56.3495 318.4H63.8495C64.2295 318.4 64.4995 318.49 64.6595 318.67C64.8395 318.83 64.9295 319.1 64.9295 319.48V323.11C64.9295 323.49 64.8395 323.77 64.6595 323.95C64.4995 324.11 64.2295 324.19 63.8495 324.19H57.6095C56.9895 324.19 56.5295 324.32 56.2295 324.58C55.9295 324.82 55.7795 325.19 55.7795 325.69V332.86C55.7795 333.36 55.8895 333.73 56.1095 333.97C56.3495 334.21 56.6995 334.33 57.1595 334.33H60.0695V329.65C60.0695 329.27 60.1495 329 60.3095 328.84C60.4895 328.66 60.7695 328.57 61.1495 328.57H65.7995C66.1795 328.57 66.4495 328.66 66.6095 328.84C66.7895 329 66.8795 329.27 66.8795 329.65V338.92C66.8795 339.3 66.7895 339.58 66.6095 339.76C66.4495 339.92 66.1795 340 65.7995 340ZM71.1397 340C70.7597 340 70.4797 339.92 70.2997 339.76C70.1397 339.58 70.0597 339.3 70.0597 338.92V335.35C70.0597 334.97 70.1397 334.7 70.2997 334.54C70.4797 334.36 70.7597 334.27 71.1397 334.27H74.1097V324.19H71.1397C70.7597 324.19 70.4797 324.11 70.2997 323.95C70.1397 323.77 70.0597 323.49 70.0597 323.11V319.48C70.0597 319.1 70.1397 318.83 70.2997 318.67C70.4797 318.49 70.7597 318.4 71.1397 318.4H83.9197C84.2997 318.4 84.5697 318.49 84.7297 318.67C84.9097 318.83 84.9997 319.1 84.9997 319.48V323.11C84.9997 323.49 84.9097 323.77 84.7297 323.95C84.5697 324.11 84.2997 324.19 83.9197 324.19H81.0097V334.27H83.9197C84.2997 334.27 84.5697 334.36 84.7297 334.54C84.9097 334.7 84.9997 334.97 84.9997 335.35V338.92C84.9997 339.3 84.9097 339.58 84.7297 339.76C84.5697 339.92 84.2997 340 83.9197 340H71.1397ZM101.484 340H93.6838C93.3038 340 92.9838 339.93 92.7238 339.79C92.4838 339.65 92.2938 339.39 92.1538 339.01L89.2138 331.66C89.0338 331.22 88.8838 330.84 88.7638 330.52C88.6438 330.18 88.5438 329.86 88.4638 329.56C88.3838 329.26 88.3238 328.95 88.2838 328.63C88.2638 328.29 88.2538 327.88 88.2538 327.4V319.48C88.2538 319.1 88.3338 318.83 88.4938 318.67C88.6738 318.49 88.9538 318.4 89.3338 318.4H94.1038C94.4838 318.4 94.7738 318.49 94.9738 318.67C95.1738 318.83 95.2738 319.1 95.2738 319.48V327.76C95.2738 327.96 95.2938 328.16 95.3338 328.36C95.3738 328.56 95.4338 328.77 95.5138 328.99L96.9238 333.19C96.9838 333.39 97.0538 333.53 97.1338 333.61C97.2138 333.67 97.3338 333.7 97.4938 333.7H97.8238C97.9838 333.7 98.1038 333.67 98.1838 333.61C98.2638 333.53 98.3338 333.39 98.3938 333.19L99.8038 328.96C99.8838 328.74 99.9438 328.53 99.9838 328.33C100.024 328.13 100.044 327.93 100.044 327.73V319.48C100.044 319.1 100.124 318.83 100.284 318.67C100.464 318.49 100.744 318.4 101.124 318.4H105.834C106.214 318.4 106.484 318.49 106.644 318.67C106.824 318.83 106.914 319.1 106.914 319.48V327.4C106.914 327.88 106.894 328.29 106.854 328.63C106.834 328.95 106.784 329.26 106.704 329.56C106.624 329.86 106.524 330.18 106.404 330.52C106.284 330.84 106.134 331.22 105.954 331.66L103.014 339.01C102.874 339.39 102.674 339.65 102.414 339.79C102.174 339.93 101.864 340 101.484 340ZM125.618 340H111.698C111.318 340 111.038 339.92 110.858 339.76C110.698 339.58 110.618 339.3 110.618 338.92V319.48C110.618 319.1 110.698 318.83 110.858 318.67C111.038 318.49 111.318 318.4 111.698 318.4H125.618C125.998 318.4 126.268 318.49 126.428 318.67C126.608 318.83 126.698 319.1 126.698 319.48V322.99C126.698 323.37 126.608 323.65 126.428 323.83C126.268 323.99 125.998 324.07 125.618 324.07H117.338V326.38H123.188C123.568 326.38 123.838 326.47 123.998 326.65C124.178 326.81 124.268 327.08 124.268 327.46V330.67C124.268 331.05 124.178 331.33 123.998 331.51C123.838 331.67 123.568 331.75 123.188 331.75H117.338V334.33H125.618C125.998 334.33 126.268 334.42 126.428 334.6C126.608 334.76 126.698 335.03 126.698 335.41V338.92C126.698 339.3 126.608 339.58 126.428 339.76C126.268 339.92 125.998 340 125.618 340ZM137.027 323.8V327.64H139.277C139.797 327.64 140.147 327.51 140.327 327.25C140.507 326.97 140.597 326.63 140.597 326.23V325.21C140.597 324.81 140.507 324.48 140.327 324.22C140.147 323.94 139.797 323.8 139.277 323.8H137.027ZM135.947 340H131.327C130.947 340 130.667 339.92 130.487 339.76C130.327 339.58 130.247 339.3 130.247 338.92V319.48C130.247 319.1 130.327 318.83 130.487 318.67C130.667 318.49 130.947 318.4 131.327 318.4H141.317C143.557 318.4 145.097 318.87 145.937 319.81C146.797 320.73 147.227 321.93 147.227 323.41V324.79C147.227 325.63 147.097 326.35 146.837 326.95C146.597 327.53 146.167 327.95 145.547 328.21C146.627 328.33 147.497 328.77 148.157 329.53C148.837 330.29 149.177 331.3 149.177 332.56V338.92C149.177 339.3 149.087 339.58 148.907 339.76C148.747 339.92 148.477 340 148.097 340H143.447C143.067 340 142.787 339.92 142.607 339.76C142.447 339.58 142.367 339.3 142.367 338.92V334.33C142.367 333.89 142.277 333.57 142.097 333.37C141.937 333.15 141.647 333.04 141.227 333.04H137.027V338.92C137.027 339.3 136.937 339.58 136.757 339.76C136.597 339.92 136.327 340 135.947 340ZM170.47 340H160.36C159.98 340 159.7 339.92 159.52 339.76C159.36 339.58 159.28 339.3 159.28 338.92V319.48C159.28 319.1 159.36 318.83 159.52 318.67C159.7 318.49 159.98 318.4 160.36 318.4H170.47C172.97 318.4 174.82 318.9 176.02 319.9C177.24 320.9 177.85 322.44 177.85 324.52V333.88C177.85 335.96 177.24 337.5 176.02 338.5C174.82 339.5 172.97 340 170.47 340ZM166.09 324.13V334.33H169.66C170.14 334.33 170.49 334.21 170.71 333.97C170.95 333.73 171.07 333.36 171.07 332.86V325.57C171.07 325.07 170.95 324.71 170.71 324.49C170.49 324.25 170.14 324.13 169.66 324.13H166.09ZM182.263 340C181.883 340 181.603 339.92 181.423 339.76C181.263 339.58 181.183 339.3 181.183 338.92V335.35C181.183 334.97 181.263 334.7 181.423 334.54C181.603 334.36 181.883 334.27 182.263 334.27H185.233V324.19H182.263C181.883 324.19 181.603 324.11 181.423 323.95C181.263 323.77 181.183 323.49 181.183 323.11V319.48C181.183 319.1 181.263 318.83 181.423 318.67C181.603 318.49 181.883 318.4 182.263 318.4H195.043C195.423 318.4 195.693 318.49 195.853 318.67C196.033 318.83 196.123 319.1 196.123 319.48V323.11C196.123 323.49 196.033 323.77 195.853 323.95C195.693 324.11 195.423 324.19 195.043 324.19H192.133V334.27H195.043C195.423 334.27 195.693 334.36 195.853 334.54C196.033 334.7 196.123 334.97 196.123 335.35V338.92C196.123 339.3 196.033 339.58 195.853 339.76C195.693 339.92 195.423 340 195.043 340H182.263ZM216.327 340H206.877C204.377 340 202.517 339.5 201.297 338.5C200.097 337.5 199.497 335.96 199.497 333.88V324.52C199.497 322.44 200.097 320.9 201.297 319.9C202.517 318.9 204.377 318.4 206.877 318.4H214.377C214.757 318.4 215.027 318.49 215.187 318.67C215.367 318.83 215.457 319.1 215.457 319.48V323.11C215.457 323.49 215.367 323.77 215.187 323.95C215.027 324.11 214.757 324.19 214.377 324.19H208.137C207.517 324.19 207.057 324.32 206.757 324.58C206.457 324.82 206.307 325.19 206.307 325.69V332.86C206.307 333.36 206.417 333.73 206.637 333.97C206.877 334.21 207.227 334.33 207.687 334.33H210.597V329.65C210.597 329.27 210.677 329 210.837 328.84C211.017 328.66 211.297 328.57 211.677 328.57H216.327C216.707 328.57 216.977 328.66 217.137 328.84C217.317 329 217.407 329.27 217.407 329.65V338.92C217.407 339.3 217.317 339.58 217.137 339.76C216.977 339.92 216.707 340 216.327 340ZM242.805 340H228.885C228.505 340 228.225 339.92 228.045 339.76C227.885 339.58 227.805 339.3 227.805 338.92V319.48C227.805 319.1 227.885 318.83 228.045 318.67C228.225 318.49 228.505 318.4 228.885 318.4H242.805C243.185 318.4 243.455 318.49 243.615 318.67C243.795 318.83 243.885 319.1 243.885 319.48V322.99C243.885 323.37 243.795 323.65 243.615 323.83C243.455 323.99 243.185 324.07 242.805 324.07H234.525V326.38H240.375C240.755 326.38 241.025 326.47 241.185 326.65C241.365 326.81 241.455 327.08 241.455 327.46V330.67C241.455 331.05 241.365 331.33 241.185 331.51C241.025 331.67 240.755 331.75 240.375 331.75H234.525V334.33H242.805C243.185 334.33 243.455 334.42 243.615 334.6C243.795 334.76 243.885 335.03 243.885 335.41V338.92C243.885 339.3 243.795 339.58 243.615 339.76C243.455 339.92 243.185 340 242.805 340ZM257.634 340H252.774C252.394 340 252.114 339.92 251.934 339.76C251.774 339.58 251.694 339.3 251.694 338.92V324.19H247.284C246.904 324.19 246.624 324.11 246.444 323.95C246.284 323.77 246.204 323.49 246.204 323.11V319.48C246.204 319.1 246.284 318.83 246.444 318.67C246.624 318.49 246.904 318.4 247.284 318.4H263.124C263.504 318.4 263.774 318.49 263.934 318.67C264.114 318.83 264.204 319.1 264.204 319.48V323.11C264.204 323.49 264.114 323.77 263.934 323.95C263.774 324.11 263.504 324.19 263.124 324.19H258.714V338.92C258.714 339.3 258.624 339.58 258.444 339.76C258.284 339.92 258.014 340 257.634 340ZM283.587 340H274.107C273.727 340 273.447 339.92 273.267 339.76C273.107 339.58 273.027 339.3 273.027 338.92V335.41C273.027 335.03 273.107 334.76 273.267 334.6C273.447 334.42 273.727 334.33 274.107 334.33H282.177C282.437 334.33 282.627 334.25 282.747 334.09C282.887 333.91 282.957 333.7 282.957 333.46C282.957 333.12 282.887 332.87 282.747 332.71C282.627 332.55 282.437 332.46 282.177 332.44L277.677 331.81C276.277 331.61 275.147 331.15 274.287 330.43C273.447 329.71 273.027 328.51 273.027 326.83V323.68C273.027 321.98 273.577 320.68 274.677 319.78C275.777 318.86 277.297 318.4 279.237 318.4H287.637C288.017 318.4 288.287 318.49 288.447 318.67C288.627 318.83 288.717 319.1 288.717 319.48V323.05C288.717 323.43 288.627 323.71 288.447 323.89C288.287 324.05 288.017 324.13 287.637 324.13H280.647C280.387 324.13 280.187 324.22 280.047 324.4C279.907 324.56 279.837 324.77 279.837 325.03C279.837 325.29 279.907 325.51 280.047 325.69C280.187 325.87 280.387 325.97 280.647 325.99L285.117 326.59C286.517 326.79 287.647 327.25 288.507 327.97C289.367 328.69 289.797 329.89 289.797 331.57V334.72C289.797 336.42 289.237 337.73 288.117 338.65C287.017 339.55 285.507 340 283.587 340ZM311.379 334.33C311.379 335.25 311.239 336.09 310.959 336.85C310.699 337.59 310.219 338.23 309.519 338.77C308.839 339.29 307.889 339.7 306.669 340C305.469 340.3 303.939 340.45 302.079 340.45C300.219 340.45 298.679 340.3 297.459 340C296.239 339.7 295.279 339.29 294.579 338.77C293.899 338.23 293.419 337.59 293.139 336.85C292.879 336.09 292.749 335.25 292.749 334.33V324.1C292.749 323.18 292.879 322.35 293.139 321.61C293.419 320.85 293.899 320.2 294.579 319.66C295.279 319.12 296.239 318.7 297.459 318.4C298.679 318.1 300.219 317.95 302.079 317.95C303.939 317.95 305.469 318.1 306.669 318.4C307.889 318.7 308.839 319.12 309.519 319.66C310.219 320.2 310.699 320.85 310.959 321.61C311.239 322.35 311.379 323.18 311.379 324.1V334.33ZM299.559 333.25C299.559 333.65 299.709 333.99 300.009 334.27C300.309 334.53 300.999 334.66 302.079 334.66C303.159 334.66 303.849 334.53 304.149 334.27C304.449 333.99 304.599 333.65 304.599 333.25V325.18C304.599 324.8 304.449 324.48 304.149 324.22C303.849 323.94 303.159 323.8 302.079 323.8C300.999 323.8 300.309 323.94 300.009 324.22C299.709 324.48 299.559 324.8 299.559 325.18V333.25ZM320.748 340H316.278C315.898 340 315.618 339.92 315.438 339.76C315.278 339.58 315.198 339.3 315.198 338.92V319.48C315.198 319.1 315.278 318.83 315.438 318.67C315.618 318.49 315.898 318.4 316.278 318.4H321.108C321.428 318.4 321.688 318.47 321.888 318.61C322.108 318.75 322.308 318.98 322.488 319.3L325.188 324.19C325.288 324.37 325.368 324.5 325.428 324.58C325.508 324.66 325.608 324.7 325.728 324.7H325.998C326.118 324.7 326.208 324.66 326.268 324.58C326.348 324.5 326.438 324.37 326.538 324.19L329.208 319.3C329.388 318.98 329.578 318.75 329.778 318.61C329.998 318.47 330.268 318.4 330.588 318.4H335.448C335.828 318.4 336.098 318.49 336.258 318.67C336.438 318.83 336.528 319.1 336.528 319.48V338.92C336.528 339.3 336.438 339.58 336.258 339.76C336.098 339.92 335.828 340 335.448 340H330.828C330.448 340 330.168 339.92 329.988 339.76C329.828 339.58 329.748 339.3 329.748 338.92V328.36L327.978 331.63C327.798 331.97 327.578 332.22 327.318 332.38C327.078 332.52 326.768 332.59 326.388 332.59H325.188C324.808 332.59 324.488 332.52 324.228 332.38C323.988 332.22 323.778 331.97 323.598 331.63L321.828 328.36V338.92C321.828 339.3 321.738 339.58 321.558 339.76C321.398 339.92 321.128 340 320.748 340ZM32.2766 376H22.1666C21.7866 376 21.5066 375.92 21.3266 375.76C21.1666 375.58 21.0866 375.3 21.0866 374.92V355.48C21.0866 355.1 21.1666 354.83 21.3266 354.67C21.5066 354.49 21.7866 354.4 22.1666 354.4H32.2766C34.7766 354.4 36.6266 354.9 37.8266 355.9C39.0466 356.9 39.6566 358.44 39.6566 360.52V369.88C39.6566 371.96 39.0466 373.5 37.8266 374.5C36.6266 375.5 34.7766 376 32.2766 376ZM27.8966 360.13V370.33H31.4666C31.9466 370.33 32.2966 370.21 32.5166 369.97C32.7566 369.73 32.8766 369.36 32.8766 368.86V361.57C32.8766 361.07 32.7566 360.71 32.5166 360.49C32.2966 360.25 31.9466 360.13 31.4666 360.13H27.8966ZM61.8594 370.33C61.8594 371.25 61.7194 372.09 61.4394 372.85C61.1794 373.59 60.6994 374.23 59.9994 374.77C59.3194 375.29 58.3794 375.7 57.1794 376C55.9794 376.3 54.4494 376.45 52.5894 376.45C50.7294 376.45 49.1994 376.3 47.9994 376C46.7994 375.7 45.8494 375.29 45.1494 374.77C44.4694 374.23 43.9894 373.59 43.7094 372.85C43.4494 372.09 43.3194 371.25 43.3194 370.33V355.48C43.3194 355.1 43.3994 354.83 43.5594 354.67C43.7394 354.49 44.0194 354.4 44.3994 354.4H49.1094C49.4894 354.4 49.7594 354.49 49.9194 354.67C50.0994 354.83 50.1894 355.1 50.1894 355.48V369.16C50.1894 369.56 50.3394 369.9 50.6394 370.18C50.9394 370.44 51.6094 370.57 52.6494 370.57C53.7094 370.57 54.3894 370.44 54.6894 370.18C54.9894 369.9 55.1394 369.56 55.1394 369.16V355.48C55.1394 355.1 55.2194 354.83 55.3794 354.67C55.5594 354.49 55.8394 354.4 56.2194 354.4H60.7794C61.1594 354.4 61.4294 354.49 61.5894 354.67C61.7694 354.83 61.8594 355.1 61.8594 355.48V370.33ZM78.3205 376H73.6705C73.2905 376 73.0105 375.92 72.8305 375.76C72.6705 375.58 72.5905 375.3 72.5905 374.92V355.48C72.5905 355.1 72.6705 354.83 72.8305 354.67C73.0105 354.49 73.2905 354.4 73.6705 354.4H78.3205C78.7005 354.4 78.9705 354.49 79.1305 354.67C79.3105 354.83 79.4005 355.1 79.4005 355.48V362.38H80.6005L83.6905 355.39C83.8305 355.03 84.0205 354.78 84.2605 354.64C84.5005 354.48 84.8105 354.4 85.1905 354.4H89.8105C90.1505 354.4 90.3805 354.49 90.5005 354.67C90.6205 354.83 90.6105 355.07 90.4705 355.39L87.4105 362.38C88.5305 362.44 89.4205 362.84 90.0805 363.58C90.7605 364.3 91.1005 365.26 91.1005 366.46V374.92C91.1005 375.3 91.0105 375.58 90.8305 375.76C90.6705 375.92 90.4005 376 90.0205 376H85.4005C85.0205 376 84.7405 375.92 84.5605 375.76C84.4005 375.58 84.3205 375.3 84.3205 374.92V369.07C84.3205 368.75 84.2405 368.5 84.0805 368.32C83.9205 368.14 83.6805 368.05 83.3605 368.05H79.4005V374.92C79.4005 375.3 79.3105 375.58 79.1305 375.76C78.9705 375.92 78.7005 376 78.3205 376ZM102.803 360.7L101.393 365.26H106.103L104.693 360.7C104.613 360.52 104.523 360.39 104.423 360.31C104.343 360.23 104.243 360.19 104.123 360.19H103.373C103.253 360.19 103.143 360.23 103.043 360.31C102.963 360.39 102.883 360.52 102.803 360.7ZM101.093 374.92C101.093 375.3 101.003 375.58 100.823 375.76C100.663 375.92 100.393 376 100.013 376H95.6033C95.2233 376 94.9433 375.92 94.7633 375.76C94.6033 375.58 94.5233 375.3 94.5233 374.92V367C94.5233 366.4 94.6133 365.71 94.7933 364.93C94.9933 364.15 95.2933 363.24 95.6933 362.2L98.3033 355.39C98.4233 355.05 98.6033 354.8 98.8433 354.64C99.1033 354.48 99.4333 354.4 99.8333 354.4H107.903C108.283 354.4 108.593 354.48 108.833 354.64C109.093 354.8 109.283 355.05 109.403 355.39L112.013 362.2C112.413 363.24 112.703 364.15 112.883 364.93C113.083 365.71 113.183 366.4 113.183 367V374.92C113.183 375.3 113.093 375.58 112.913 375.76C112.753 375.92 112.483 376 112.103 376H107.573C107.173 376 106.873 375.92 106.673 375.76C106.493 375.58 106.403 375.3 106.403 374.92V370.72H101.093V374.92ZM122.467 376H117.967C117.587 376 117.307 375.92 117.127 375.76C116.967 375.58 116.887 375.3 116.887 374.92V355.48C116.887 355.1 116.967 354.83 117.127 354.67C117.307 354.49 117.587 354.4 117.967 354.4H121.087C121.467 354.4 121.787 354.46 122.047 354.58C122.327 354.7 122.597 354.91 122.857 355.21L128.677 361.87V355.48C128.677 355.1 128.757 354.83 128.917 354.67C129.097 354.49 129.377 354.4 129.757 354.4H134.257C134.637 354.4 134.907 354.49 135.067 354.67C135.247 354.83 135.337 355.1 135.337 355.48V374.92C135.337 375.3 135.247 375.58 135.067 375.76C134.907 375.92 134.637 376 134.257 376H129.757C129.377 376 129.097 375.92 128.917 375.76C128.757 375.58 128.677 375.3 128.677 374.92V371.23L123.547 365.02V374.92C123.547 375.3 123.457 375.58 123.277 375.76C123.117 375.92 122.847 376 122.467 376ZM156.121 376H151.261C150.881 376 150.601 375.92 150.421 375.76C150.261 375.58 150.181 375.3 150.181 374.92V360.19H145.771C145.391 360.19 145.111 360.11 144.931 359.95C144.771 359.77 144.691 359.49 144.691 359.11V355.48C144.691 355.1 144.771 354.83 144.931 354.67C145.111 354.49 145.391 354.4 145.771 354.4H161.611C161.991 354.4 162.261 354.49 162.421 354.67C162.601 354.83 162.691 355.1 162.691 355.48V359.11C162.691 359.49 162.601 359.77 162.421 359.95C162.261 360.11 161.991 360.19 161.611 360.19H157.201V374.92C157.201 375.3 157.111 375.58 156.931 375.76C156.771 375.92 156.501 376 156.121 376ZM172.237 360.7L170.827 365.26H175.537L174.127 360.7C174.047 360.52 173.957 360.39 173.857 360.31C173.777 360.23 173.677 360.19 173.557 360.19H172.807C172.687 360.19 172.577 360.23 172.477 360.31C172.397 360.39 172.317 360.52 172.237 360.7ZM170.527 374.92C170.527 375.3 170.437 375.58 170.257 375.76C170.097 375.92 169.827 376 169.447 376H165.037C164.657 376 164.377 375.92 164.197 375.76C164.037 375.58 163.957 375.3 163.957 374.92V367C163.957 366.4 164.047 365.71 164.227 364.93C164.427 364.15 164.727 363.24 165.127 362.2L167.737 355.39C167.857 355.05 168.037 354.8 168.277 354.64C168.537 354.48 168.867 354.4 169.267 354.4H177.337C177.717 354.4 178.027 354.48 178.267 354.64C178.527 354.8 178.717 355.05 178.837 355.39L181.447 362.2C181.847 363.24 182.137 364.15 182.317 364.93C182.517 365.71 182.617 366.4 182.617 367V374.92C182.617 375.3 182.527 375.58 182.347 375.76C182.187 375.92 181.917 376 181.537 376H177.007C176.607 376 176.307 375.92 176.107 375.76C175.927 375.58 175.837 375.3 175.837 374.92V370.72H170.527V374.92ZM202.821 376H193.371C190.871 376 189.011 375.5 187.791 374.5C186.591 373.5 185.991 371.96 185.991 369.88V360.52C185.991 358.44 186.591 356.9 187.791 355.9C189.011 354.9 190.871 354.4 193.371 354.4H200.871C201.251 354.4 201.521 354.49 201.681 354.67C201.861 354.83 201.951 355.1 201.951 355.48V359.11C201.951 359.49 201.861 359.77 201.681 359.95C201.521 360.11 201.251 360.19 200.871 360.19H194.631C194.011 360.19 193.551 360.32 193.251 360.58C192.951 360.82 192.801 361.19 192.801 361.69V368.86C192.801 369.36 192.911 369.73 193.131 369.97C193.371 370.21 193.721 370.33 194.181 370.33H197.091V365.65C197.091 365.27 197.171 365 197.331 364.84C197.511 364.66 197.791 364.57 198.171 364.57H202.821C203.201 364.57 203.471 364.66 203.631 364.84C203.811 365 203.901 365.27 203.901 365.65V374.92C203.901 375.3 203.811 375.58 203.631 375.76C203.471 375.92 203.201 376 202.821 376ZM222.561 376H208.641C208.261 376 207.981 375.92 207.801 375.76C207.641 375.58 207.561 375.3 207.561 374.92V355.48C207.561 355.1 207.641 354.83 207.801 354.67C207.981 354.49 208.261 354.4 208.641 354.4H222.561C222.941 354.4 223.211 354.49 223.371 354.67C223.551 354.83 223.641 355.1 223.641 355.48V358.99C223.641 359.37 223.551 359.65 223.371 359.83C223.211 359.99 222.941 360.07 222.561 360.07H214.281V362.38H220.131C220.511 362.38 220.781 362.47 220.941 362.65C221.121 362.81 221.211 363.08 221.211 363.46V366.67C221.211 367.05 221.121 367.33 220.941 367.51C220.781 367.67 220.511 367.75 220.131 367.75H214.281V370.33H222.561C222.941 370.33 223.211 370.42 223.371 370.6C223.551 370.76 223.641 371.03 223.641 371.41V374.92C223.641 375.3 223.551 375.58 223.371 375.76C223.211 375.92 222.941 376 222.561 376ZM234.528 376C234.148 376 233.868 375.92 233.688 375.76C233.528 375.58 233.448 375.3 233.448 374.92V371.35C233.448 370.97 233.528 370.7 233.688 370.54C233.868 370.36 234.148 370.27 234.528 370.27H237.498V360.19H234.528C234.148 360.19 233.868 360.11 233.688 359.95C233.528 359.77 233.448 359.49 233.448 359.11V355.48C233.448 355.1 233.528 354.83 233.688 354.67C233.868 354.49 234.148 354.4 234.528 354.4H247.308C247.688 354.4 247.958 354.49 248.118 354.67C248.298 354.83 248.388 355.1 248.388 355.48V359.11C248.388 359.49 248.298 359.77 248.118 359.95C247.958 360.11 247.688 360.19 247.308 360.19H244.398V370.27H247.308C247.688 370.27 247.958 370.36 248.118 370.54C248.298 370.7 248.388 370.97 248.388 371.35V374.92C248.388 375.3 248.298 375.58 248.118 375.76C247.958 375.92 247.688 376 247.308 376H234.528ZM257.642 376H253.172C252.792 376 252.512 375.92 252.332 375.76C252.172 375.58 252.092 375.3 252.092 374.92V355.48C252.092 355.1 252.172 354.83 252.332 354.67C252.512 354.49 252.792 354.4 253.172 354.4H258.002C258.322 354.4 258.582 354.47 258.782 354.61C259.002 354.75 259.202 354.98 259.382 355.3L262.082 360.19C262.182 360.37 262.262 360.5 262.322 360.58C262.402 360.66 262.502 360.7 262.622 360.7H262.892C263.012 360.7 263.102 360.66 263.162 360.58C263.242 360.5 263.332 360.37 263.432 360.19L266.102 355.3C266.282 354.98 266.472 354.75 266.672 354.61C266.892 354.47 267.162 354.4 267.482 354.4H272.342C272.722 354.4 272.992 354.49 273.152 354.67C273.332 354.83 273.422 355.1 273.422 355.48V374.92C273.422 375.3 273.332 375.58 273.152 375.76C272.992 375.92 272.722 376 272.342 376H267.722C267.342 376 267.062 375.92 266.882 375.76C266.722 375.58 266.642 375.3 266.642 374.92V364.36L264.872 367.63C264.692 367.97 264.472 368.22 264.212 368.38C263.972 368.52 263.662 368.59 263.282 368.59H262.082C261.702 368.59 261.382 368.52 261.122 368.38C260.882 368.22 260.672 367.97 260.492 367.63L258.722 364.36V374.92C258.722 375.3 258.632 375.58 258.452 375.76C258.292 375.92 258.022 376 257.642 376ZM295.851 370.33C295.851 371.25 295.711 372.09 295.431 372.85C295.171 373.59 294.691 374.23 293.991 374.77C293.311 375.29 292.361 375.7 291.141 376C289.941 376.3 288.411 376.45 286.551 376.45C284.691 376.45 283.151 376.3 281.931 376C280.711 375.7 279.751 375.29 279.051 374.77C278.371 374.23 277.891 373.59 277.611 372.85C277.351 372.09 277.221 371.25 277.221 370.33V360.1C277.221 359.18 277.351 358.35 277.611 357.61C277.891 356.85 278.371 356.2 279.051 355.66C279.751 355.12 280.711 354.7 281.931 354.4C283.151 354.1 284.691 353.95 286.551 353.95C288.411 353.95 289.941 354.1 291.141 354.4C292.361 354.7 293.311 355.12 293.991 355.66C294.691 356.2 295.171 356.85 295.431 357.61C295.711 358.35 295.851 359.18 295.851 360.1V370.33ZM284.031 369.25C284.031 369.65 284.181 369.99 284.481 370.27C284.781 370.53 285.471 370.66 286.551 370.66C287.631 370.66 288.321 370.53 288.621 370.27C288.921 369.99 289.071 369.65 289.071 369.25V361.18C289.071 360.8 288.921 360.48 288.621 360.22C288.321 359.94 287.631 359.8 286.551 359.8C285.471 359.8 284.781 359.94 284.481 360.22C284.181 360.48 284.031 360.8 284.031 361.18V369.25ZM310.861 376H300.751C300.371 376 300.091 375.92 299.911 375.76C299.751 375.58 299.671 375.3 299.671 374.92V355.48C299.671 355.1 299.751 354.83 299.911 354.67C300.091 354.49 300.371 354.4 300.751 354.4H310.861C313.361 354.4 315.211 354.9 316.411 355.9C317.631 356.9 318.241 358.44 318.241 360.52V369.88C318.241 371.96 317.631 373.5 316.411 374.5C315.211 375.5 313.361 376 310.861 376ZM306.481 360.13V370.33H310.051C310.531 370.33 310.881 370.21 311.101 369.97C311.341 369.73 311.461 369.36 311.461 368.86V361.57C311.461 361.07 311.341 360.71 311.101 360.49C310.881 360.25 310.531 360.13 310.051 360.13H306.481Z" fill="#ED3B02"/>
<path d="M90.1035 167.192L108.885 167.603C128.627 168.035 131.14 168.366 137.998 170.733C146.964 173.829 158.884 179.397 169.031 185.254L175.94 189.243L176.637 189.645H177.44L194.086 189.647C202.978 189.649 208.221 189.893 211.739 190.627C214.997 191.306 216.631 192.372 218.342 194.209C220.613 196.648 220.615 201.279 217.243 204.677C210.761 211.207 199.612 214.47 184.062 213.347C178.576 212.95 174.247 213.049 171.201 214.086C169.605 214.629 168.152 215.498 167.122 216.878C166.08 218.275 165.699 219.889 165.699 221.494C165.699 223.026 165.929 224.612 166.714 226.054C167.531 227.555 168.791 228.608 170.326 229.318C172.955 230.535 176.74 230.883 181.597 230.911L182.582 230.913C195.599 230.885 207.959 229.219 214.82 226.316H214.821C222.953 222.872 231.109 215.11 234.324 207.526V207.525L236.37 202.693L259.471 191.882L259.472 191.881C266.084 188.783 272.473 185.915 277.432 183.789C279.913 182.725 282.02 181.855 283.609 181.237C284.406 180.928 285.051 180.69 285.537 180.525C286.092 180.337 286.258 180.307 286.197 180.316C288.2 180.018 291.317 180.386 294.531 181.346C297.755 182.309 300.499 183.696 301.914 184.993C307.167 189.813 308.113 197.733 303.822 204.377V204.378C303.432 204.982 302.439 206.051 300.626 207.59C298.878 209.074 296.561 210.836 293.741 212.827C288.106 216.807 280.597 221.61 271.904 226.817C254.523 237.229 232.543 249.172 211.635 259.25C196.007 266.784 187.086 270.824 179.986 272.933C173.065 274.988 167.836 275.217 159.501 274.862C152.124 274.549 147.667 274.051 141.355 271.85C134.869 269.587 126.429 265.526 111.181 257.898L90.6787 247.644L90.3887 206.794L90.1035 167.192ZM72.4561 159.523V255.062H33V159.523H72.4561ZM122.655 64.3232C128.965 66.1626 159.482 74.9472 195.216 85.21C215.074 90.9146 233.166 96.1376 246.316 99.957C252.892 101.867 258.23 103.425 261.934 104.517C263.147 104.874 264.181 105.184 265.026 105.437C264.989 105.571 264.952 105.711 264.912 105.855C264.357 107.863 263.539 110.724 262.541 114.163C260.546 121.038 257.842 130.183 255.104 139.341C252.365 148.499 249.595 157.663 247.469 164.574C246.405 168.031 245.504 170.916 244.851 172.952C244.771 173.199 244.694 173.433 244.623 173.652C243.641 173.391 242.397 173.055 240.916 172.648C236.884 171.541 231.14 169.934 224.249 167.988C210.469 164.098 192.125 158.864 173.768 153.592C155.41 148.32 137.042 143.011 123.216 138.974C116.302 136.955 110.529 135.255 106.462 134.037C104.902 133.57 103.599 133.173 102.582 132.859C102.619 132.718 102.658 132.571 102.698 132.418C103.22 130.45 103.995 127.645 104.946 124.27C106.847 117.522 109.437 108.54 112.076 99.5107C114.716 90.4811 117.402 81.4123 119.496 74.4922C120.544 71.0306 121.441 68.1167 122.108 66.0166C122.315 65.3663 122.498 64.7999 122.655 64.3232ZM206.665 120.016C206.665 105.919 192.366 96.0196 179.01 100.618C174.447 102.188 170.772 104.679 168.253 108.152C165.73 111.63 164.534 115.862 164.534 120.617C164.534 125.805 167.332 130.775 171.072 134.354C174.823 137.943 179.956 140.557 185.235 140.557C197.259 140.557 206.665 131.814 206.665 120.016Z" stroke="#ED3B02" stroke-width="6"/>
</svg>
