<svg width="43" height="38" viewBox="0 0 43 38" fill="none" xmlns="http://www.w3.org/2000/svg">
<path d="M32.981 6.574C32.4707 6.574 31.9719 6.70772 31.5476 6.95825C31.1233 7.20878 30.7927 7.56487 30.5974 7.98148C30.4021 8.3981 30.351 8.85653 30.4506 9.29881C30.5501 9.74108 30.7958 10.1473 31.1567 10.4662C31.5175 10.7851 31.9772 11.0022 32.4777 11.0902C32.9781 11.1782 33.4969 11.133 33.9683 10.9604C34.4398 10.7879 34.8427 10.4956 35.1262 10.1207C35.4097 9.74576 35.561 9.30494 35.561 8.854C35.561 8.24931 35.2892 7.66938 34.8053 7.2418C34.3215 6.81421 33.6653 6.574 32.981 6.574ZM42.871 11.172C42.8292 9.59557 42.4951 8.03586 41.882 6.555C41.3353 5.28795 40.4845 4.14063 39.388 3.192C38.3234 2.21811 37.0221 1.47094 35.5825 1.007C33.9112 0.448705 32.1443 0.146699 30.358 0.114C28.079 -1.04308e-07 27.348 0 21.5 0C15.652 0 14.921 -1.04308e-07 12.642 0.114C10.8557 0.146699 9.08879 0.448705 7.4175 1.007C5.9806 1.47563 4.68041 2.22217 3.612 3.192C2.50997 4.13284 1.66448 5.28283 1.1395 6.555C0.507746 8.03195 0.166002 9.59339 0.129 11.172C-1.19209e-07 13.186 0 13.832 0 19C0 24.168 -1.19209e-07 24.814 0.129 26.828C0.166002 28.4066 0.507746 29.968 1.1395 31.445C1.66448 32.7172 2.50997 33.8672 3.612 34.808C4.68041 35.7778 5.9806 36.5244 7.4175 36.993C9.08879 37.5513 10.8557 37.8533 12.642 37.886C14.921 38 15.652 38 21.5 38C27.348 38 28.079 38 30.358 37.886C32.1443 37.8533 33.9112 37.5513 35.5825 36.993C37.0221 36.5291 38.3234 35.7819 39.388 34.808C40.4893 33.8629 41.3409 32.7146 41.882 31.445C42.4951 29.9641 42.8292 28.4044 42.871 26.828C42.871 24.814 43 24.168 43 19C43 13.832 43 13.186 42.871 11.172ZM39.001 26.6C38.9853 27.8061 38.7382 29.001 38.27 30.134C37.9267 30.9609 37.3753 31.708 36.6575 32.319C35.9601 32.947 35.1164 33.4332 34.185 33.744C32.903 34.1577 31.5508 34.3762 30.186 34.39C28.036 34.485 27.2405 34.504 21.586 34.504C15.9315 34.504 15.136 34.504 12.986 34.39C11.5689 34.4134 10.1579 34.2206 8.815 33.82C7.92443 33.4933 7.11942 33.0083 6.45 32.395C5.73639 31.7846 5.19191 31.0369 4.859 30.21C4.33409 29.0608 4.04295 27.8387 3.999 26.6C3.999 24.7 3.87 23.997 3.87 19C3.87 14.003 3.87 13.3 3.999 11.4C4.00864 10.167 4.26334 8.9451 4.7515 7.79C5.13 6.98803 5.71097 6.27315 6.45 5.7C7.1032 5.04672 7.91047 4.52788 8.815 4.18C10.1255 3.76208 11.5068 3.54365 12.9 3.534C15.05 3.534 15.8455 3.42 21.5 3.42C27.1545 3.42 27.95 3.42 30.1 3.534C31.4648 3.54783 32.817 3.76627 34.099 4.18C35.076 4.50044 35.9529 5.02141 36.6575 5.7C37.3621 6.28364 37.9126 6.99719 38.27 7.79C38.7478 8.94697 38.9952 10.1684 39.001 11.4C39.1085 13.3 39.13 14.003 39.13 19C39.13 23.997 39.1085 24.7 39.001 26.6ZM21.5 9.253C19.3195 9.25676 17.1892 9.8316 15.3782 10.9049C13.5672 11.9782 12.1569 13.5018 11.3254 15.2831C10.4939 17.0645 10.2786 19.0237 10.7066 20.9132C11.1346 22.8026 12.1867 24.5376 13.7301 25.8989C15.2734 27.2601 17.2387 28.1865 19.3776 28.5611C21.5166 28.9356 23.7331 28.7415 25.7473 28.0032C27.7614 27.2649 29.4827 26.0156 30.6937 24.4132C31.9047 22.8107 32.551 20.927 32.551 19C32.5538 17.7177 32.2698 16.4476 31.7152 15.2626C31.1605 14.0777 30.3463 13.0013 29.3193 12.0955C28.2922 11.1897 27.0727 10.4722 25.7308 9.98437C24.3888 9.49654 22.951 9.24799 21.5 9.253ZM21.5 25.327C20.084 25.327 18.6998 24.9559 17.5224 24.2607C16.345 23.5655 15.4274 22.5773 14.8855 21.4212C14.3436 20.2651 14.2018 18.993 14.4781 17.7657C14.7543 16.5383 15.4362 15.411 16.4375 14.5261C17.4387 13.6413 18.7144 13.0387 20.1033 12.7946C21.4921 12.5504 22.9316 12.6757 24.2398 13.1546C25.5481 13.6335 26.6662 14.4444 27.4529 15.4849C28.2396 16.5254 28.6595 17.7486 28.6595 19C28.6595 19.8309 28.4743 20.6536 28.1145 21.4212C27.7547 22.1889 27.2274 22.8863 26.5625 23.4739C25.8977 24.0614 25.1085 24.5274 24.2398 24.8454C23.3712 25.1633 22.4402 25.327 21.5 25.327Z" fill="#ED3B02"/>
</svg>
