<svg width="304" height="226" viewBox="0 0 304 226" fill="none" xmlns="http://www.w3.org/2000/svg">
<path d="M0 0H224.288V0.352154H224.64V11.8201H224.992V12.1723L225.279 12.2565C226.361 12.5972 227.337 13.0565 228.344 13.5809C228.562 13.6919 228.784 13.8029 229.006 13.9139L234.34 16.5819V16.934L234.711 16.9838C235.319 17.1369 235.771 17.3934 236.31 17.7149L236.869 18.0479C237.336 18.3465 237.336 18.3465 237.688 18.6986L238.14 18.8632L238.568 19.0508L238.748 19.579C239.276 19.7972 239.276 19.7972 239.804 19.9312V20.2833H240.332V20.6393L240.807 20.6814C241.392 20.8154 241.392 20.8154 241.897 21.1561L242.272 21.5197V21.8718L243.156 22.0479L243.332 22.58H243.86V22.9321L244.564 23.1082V23.4604H245.092V23.8125L245.513 23.9771C245.976 24.1647 245.976 24.1647 246.328 24.3408V24.6929H246.856V25.0489L247.74 25.401V25.7532L248.134 25.8948C248.601 26.0977 248.949 26.2967 249.324 26.6336V26.9896L250.208 27.3417V27.6939L250.912 27.87V28.2221L251.234 28.3752C251.617 28.5743 251.617 28.5743 252.148 28.9264V29.2824L252.443 29.4125C252.933 29.6767 253.342 29.9944 253.778 30.3389L254.253 30.714L254.617 31.0432V31.3992H254.969V31.7513H255.321V32.1035L255.65 32.2681L256.381 32.6317V32.9838L257.085 33.336V33.692H257.613C257.903 33.9676 257.903 33.9676 258.21 34.3389C258.776 35.0317 259.392 35.6518 260.031 36.2796C260.368 36.6087 260.704 36.9418 261.041 37.2748L261.386 37.6078C262.055 38.2738 262.637 38.9552 263.188 39.7207C263.525 40.1609 263.919 40.5322 264.313 40.9226C264.711 41.3743 265.09 41.8375 265.472 42.3006L265.794 42.6949C266.639 43.7284 267.447 44.7848 268.239 45.8604C268.56 46.2968 268.866 46.714 269.249 47.0968V47.625H269.605C269.903 48.0193 270.19 48.425 270.462 48.8384L270.719 49.2174C270.902 49.4892 271.082 49.7571 271.262 50.0289C271.541 50.4461 271.824 50.8633 272.104 51.2806C272.919 52.4901 273.734 53.7035 274.468 54.9667C274.648 55.2691 274.836 55.5715 275.023 55.87C276.152 57.65 277.109 59.5064 278.065 61.382L278.276 61.7916C278.926 63.0739 279.562 64.3562 280.143 65.6653C280.392 66.2165 280.645 66.76 280.901 67.3036C281.272 68.1112 281.624 68.9304 281.949 69.761C282.137 70.2433 282.34 70.7179 282.542 71.1926C283.377 73.1945 284.107 75.2271 284.769 77.2902C284.896 77.7649 284.896 77.7649 285.122 77.9639C285.125 78.3161 285.129 78.6682 285.122 79.0204H285.474L285.558 79.3381C285.741 80.0079 285.921 80.6778 286.105 81.3476C286.354 82.2701 286.614 83.1888 286.882 84.1036C287.215 85.252 287.498 86.4118 287.777 87.5754L287.907 88.1228C288.037 88.674 288.167 89.2252 288.294 89.7802L288.424 90.3505C288.776 91.9314 289.044 93.5161 289.296 95.1161C289.361 95.541 289.43 95.9697 289.499 96.3946C290.337 101.662 290.444 106.898 290.444 112.219C290.444 112.816 290.444 113.417 290.444 114.018C290.46 117.539 290.417 121.022 290.058 124.529L290 125.095C289.22 132.525 287.448 139.671 285.122 146.753C285.003 147.116 284.884 147.484 284.766 147.851C284.303 149.279 283.824 150.688 283.224 152.066C283.009 152.556 282.814 153.053 282.619 153.551C282.179 154.684 281.678 155.79 281.119 156.869C280.928 157.252 280.763 157.646 280.625 158.052C280.354 158.833 279.94 159.53 279.531 160.242C279.328 160.636 279.206 160.961 279.125 161.39H278.773L278.712 161.777C278.306 163.522 277.093 165.172 276.183 166.695C275.877 167.216 275.578 167.74 275.291 168.272C274.924 168.942 274.507 169.574 274.071 170.202C273.845 170.55 273.657 170.898 273.481 171.269H273.129V171.798H272.777L272.701 172.131C272.601 172.506 272.601 172.506 272.425 172.858H272.073L272.008 173.172C271.889 173.578 271.744 173.834 271.503 174.179L271.262 174.531L271.002 174.894L270.738 175.277C270.118 176.161 269.49 177.038 268.847 177.911C268.572 178.29 268.304 178.676 268.04 179.063L267.665 179.56H267.313V180.089H266.957L266.429 181.145H266.077L265.954 181.52C265.675 182.14 265.277 182.604 264.829 183.109L264.301 183.721L264.034 184.027C263.682 184.441 263.341 184.866 263 185.291C261.332 187.338 259.457 189.206 257.59 191.071C257.215 191.446 256.84 191.821 256.465 192.196L255.405 193.256C254.639 194.018 253.844 194.73 253.029 195.434C252.814 195.626 252.596 195.813 252.382 196.005L251.762 196.548L251.444 196.827C250.882 197.317 250.404 197.677 249.68 197.903V198.255C249.42 198.485 249.42 198.485 249.083 198.718L248.75 198.956L248.444 199.139H248.092V199.492C247.725 199.775 247.35 200.047 246.967 200.307L246.646 200.533C246.367 200.72 246.083 200.9 245.8 201.076H245.448V201.432H244.916V201.784C244.557 202.045 244.185 202.29 243.807 202.523L243.125 202.948L242.781 203.162C242.146 203.561 241.522 203.978 240.898 204.391C240.508 204.605 240.508 204.605 239.98 204.605V204.958C239.574 205.245 239.574 205.245 239.1 205.486H238.568V205.842L238.178 206.052L237.654 206.336L237.141 206.615C236.808 206.799 236.479 206.994 236.157 207.197C235.748 207.427 235.748 207.427 235.22 207.427V207.783L234.868 207.951C233.992 208.38 233.131 208.82 232.281 209.302L231.853 209.543C231.573 209.704 231.294 209.865 231.015 210.029L230.62 210.255L230.268 210.458C229.932 210.604 229.932 210.604 229.224 210.604V210.956C226.591 212.322 226.591 212.322 225.168 212.544V212.896L224.816 213.249C224.758 213.746 224.758 213.746 224.762 214.336L224.754 215.029L224.751 215.779C224.747 216.035 224.743 216.292 224.739 216.544C224.731 217.218 224.728 217.892 224.72 218.565C224.712 219.645 224.701 220.724 224.689 221.804C224.685 222.179 224.682 222.558 224.678 222.933L224.67 223.626L224.666 224.238C224.64 224.713 224.64 224.713 224.464 225.065L156.225 225.241V225.421H151.741C144.237 225.425 136.733 225.425 129.229 225.425H128.85L116.315 225.429C112.017 225.429 107.72 225.432 103.423 225.432C98.3836 225.436 93.3479 225.436 88.3084 225.436H87.9372C85.9627 225.436 83.9844 225.436 82.0061 225.436C80.024 225.44 78.038 225.44 76.052 225.44C74.9768 225.44 73.9015 225.44 72.8225 225.44C71.8391 225.44 70.8556 225.44 69.8722 225.44C69.5164 225.44 69.1567 225.44 68.8008 225.44C68.3187 225.44 67.8365 225.44 67.3505 225.44L66.922 225.444C66.5967 225.44 66.2715 225.432 65.9462 225.421L65.7702 225.241C65.4258 225.226 65.0776 225.222 64.7332 225.222L64.0444 225.218L63.2791 225.222H62.4717C61.7332 225.222 60.9909 225.222 60.2485 225.222C59.4526 225.222 58.6529 225.222 57.8531 225.222C56.4718 225.222 55.0866 225.222 53.7014 225.226C51.7001 225.226 49.6988 225.226 47.6975 225.226C44.4527 225.226 41.2039 225.229 37.9591 225.229C34.806 225.229 31.6491 225.233 28.4961 225.233H24.9833C16.8903 225.237 8.79717 225.237 0.707906 225.241L0.528059 224.713H0V0Z" fill="#ED3B02"/>
<path d="M0 0H224.288V0.352154H224.64V11.8201H224.992V12.1723L225.279 12.2565C226.361 12.5972 227.337 13.0565 228.344 13.5809C228.562 13.6919 228.784 13.8029 229.006 13.9139L234.34 16.5819V16.934L234.711 16.9838C235.319 17.1369 235.771 17.3934 236.31 17.7149L236.869 18.0479C237.336 18.3465 237.336 18.3465 237.688 18.6986L238.14 18.8632L238.568 19.0508L238.748 19.579C239.276 19.7972 239.276 19.7972 239.804 19.9312V20.2833H240.332V20.6393L240.807 20.6814C241.392 20.8154 241.392 20.8154 241.897 21.1561L242.272 21.5197V21.8718L243.156 22.0479L243.332 22.58H243.86V22.9321L244.564 23.1082V23.4604H245.092V23.8125L245.513 23.9771C245.976 24.1647 245.976 24.1647 246.328 24.3408V24.6929H246.856V25.0489L247.74 25.401V25.7532L248.134 25.8948C248.601 26.0977 248.949 26.2967 249.324 26.6336V26.9896L250.208 27.3417V27.6939L250.912 27.87V28.2221L251.234 28.3752C251.617 28.5743 251.617 28.5743 252.148 28.9264V29.2824L252.443 29.4125C252.933 29.6767 253.342 29.9944 253.778 30.3389L254.253 30.714L254.617 31.0432V31.3992H254.969V31.7513H255.321V32.1035L255.65 32.2681L256.381 32.6317V32.9838L257.085 33.336V33.692H257.613C257.903 33.9676 257.903 33.9676 258.21 34.3389C258.776 35.0317 259.392 35.6518 260.031 36.2796C260.368 36.6087 260.704 36.9418 261.041 37.2748L261.386 37.6078C262.055 38.2738 262.637 38.9552 263.188 39.7207C263.525 40.1609 263.919 40.5322 264.313 40.9226C264.711 41.3743 265.09 41.8375 265.472 42.3006L265.794 42.6949C266.639 43.7284 267.447 44.7848 268.239 45.8604C268.56 46.2968 268.866 46.714 269.249 47.0968V47.625H269.605C269.903 48.0193 270.19 48.425 270.462 48.8384L270.719 49.2174C270.902 49.4892 271.082 49.7571 271.262 50.0289C271.541 50.4461 271.824 50.8633 272.104 51.2806C272.919 52.4901 273.734 53.7035 274.468 54.9667C274.648 55.2691 274.836 55.5715 275.023 55.87C276.152 57.65 277.109 59.5064 278.065 61.382L278.276 61.7916C278.926 63.0739 279.562 64.3562 280.143 65.6653C280.392 66.2165 280.645 66.76 280.901 67.3036C281.272 68.1112 281.624 68.9304 281.949 69.761C282.137 70.2433 282.34 70.7179 282.542 71.1926C283.377 73.1945 284.107 75.2271 284.769 77.2902C284.896 77.7649 284.896 77.7649 285.122 77.9639C285.125 78.3161 285.129 78.6682 285.122 79.0204H285.474L285.558 79.3381C285.741 80.0079 285.921 80.6778 286.105 81.3476C286.354 82.2701 286.614 83.1888 286.882 84.1036C287.215 85.252 287.498 86.4118 287.777 87.5754L287.907 88.1228C288.037 88.674 288.167 89.2252 288.294 89.7802L288.424 90.3505C288.776 91.9314 289.044 93.5161 289.296 95.1161C289.361 95.541 289.43 95.9697 289.499 96.3946C290.337 101.662 290.444 106.898 290.444 112.219C290.444 112.816 290.444 113.417 290.444 114.018C290.46 117.539 290.417 121.022 290.058 124.529L290 125.095C289.22 132.525 287.448 139.671 285.122 146.753C285.003 147.116 284.884 147.484 284.766 147.851C284.303 149.279 283.824 150.688 283.224 152.066C283.009 152.556 282.814 153.053 282.619 153.551C282.179 154.684 281.678 155.79 281.119 156.869C280.928 157.252 280.763 157.646 280.625 158.052C280.354 158.833 279.94 159.53 279.531 160.242C279.328 160.636 279.206 160.961 279.125 161.39H278.773L278.712 161.777C278.306 163.522 277.093 165.172 276.183 166.695C275.877 167.216 275.578 167.74 275.291 168.272C274.924 168.942 274.507 169.574 274.071 170.202C273.845 170.55 273.657 170.898 273.481 171.269H273.129V171.798H272.777L272.701 172.131C272.601 172.506 272.601 172.506 272.425 172.858H272.073L272.008 173.172C271.889 173.578 271.744 173.834 271.503 174.179L271.262 174.531L271.002 174.894L270.738 175.277C270.118 176.161 269.49 177.038 268.847 177.911C268.572 178.29 268.304 178.676 268.04 179.063L267.665 179.56H267.313V180.089H266.957L266.429 181.145H266.077L265.954 181.52C265.675 182.14 265.277 182.604 264.829 183.109L264.301 183.721L264.034 184.027C263.682 184.441 263.341 184.866 263 185.291C261.332 187.338 259.457 189.206 257.59 191.071C257.215 191.446 256.84 191.821 256.465 192.196L255.405 193.256C254.639 194.018 253.844 194.73 253.029 195.434C252.814 195.626 252.596 195.813 252.382 196.005L251.762 196.548L251.444 196.827C250.882 197.317 250.404 197.677 249.68 197.903V198.255C249.42 198.485 249.42 198.485 249.083 198.718L248.75 198.956L248.444 199.139H248.092V199.492C247.725 199.775 247.35 200.047 246.967 200.307L246.646 200.533C246.367 200.72 246.083 200.9 245.8 201.076H245.448V201.432H244.916V201.784C244.557 202.045 244.185 202.29 243.807 202.523L243.125 202.948L242.781 203.162C242.146 203.561 241.522 203.978 240.898 204.391C240.508 204.605 240.508 204.605 239.98 204.605V204.958C239.574 205.245 239.574 205.245 239.1 205.486H238.568V205.842L238.178 206.052L237.654 206.336L237.141 206.615C236.808 206.799 236.479 206.994 236.157 207.197C235.748 207.427 235.748 207.427 235.22 207.427V207.783L234.868 207.951C233.992 208.38 233.131 208.82 232.281 209.302L231.853 209.543C231.573 209.704 231.294 209.865 231.015 210.029L230.62 210.255L230.268 210.458C229.932 210.604 229.932 210.604 229.224 210.604V210.956C226.591 212.322 226.591 212.322 225.168 212.544V212.896L224.816 213.249C224.758 213.746 224.758 213.746 224.762 214.336L224.754 215.029L224.751 215.779C224.747 216.035 224.743 216.292 224.739 216.544C224.731 217.218 224.728 217.892 224.72 218.565C224.712 219.645 224.701 220.724 224.689 221.804C224.685 222.179 224.682 222.558 224.678 222.933L224.67 223.626L224.666 224.238C224.64 224.713 224.64 224.713 224.464 225.065L156.225 225.241V225.421H151.741C144.237 225.425 136.733 225.425 129.229 225.425H128.85L116.315 225.429C112.017 225.429 107.72 225.432 103.423 225.432C98.3836 225.436 93.3479 225.436 88.3084 225.436H87.9372C85.9627 225.436 83.9844 225.436 82.0061 225.436C80.024 225.44 78.038 225.44 76.052 225.44C74.9768 225.44 73.9015 225.44 72.8225 225.44C71.8391 225.44 70.8556 225.44 69.8722 225.44C69.5164 225.44 69.1567 225.44 68.8008 225.44C68.3187 225.44 67.8365 225.44 67.3505 225.44L66.922 225.444C66.5967 225.44 66.2715 225.432 65.9462 225.421L65.7702 225.241C65.4258 225.226 65.0776 225.222 64.7332 225.222L64.0444 225.218L63.2791 225.222H62.4717C61.7332 225.222 60.9909 225.222 60.2485 225.222C59.4526 225.222 58.6529 225.222 57.8531 225.222C56.4718 225.222 55.0866 225.222 53.7014 225.226C51.7001 225.226 49.6988 225.226 47.6975 225.226C44.4527 225.226 41.2039 225.229 37.9591 225.229C34.806 225.229 31.6491 225.233 28.4961 225.233H24.9833C16.8903 225.237 8.79717 225.237 0.707906 225.241L0.528059 224.713H0V0Z" fill="#ED3B02"/>
<path d="M225.016 12.0232C225.273 12.1075 225.525 12.188 225.781 12.2724L226.21 12.4142C226.657 12.5714 227.074 12.763 227.495 12.9815L227.946 13.2154L228.367 13.4339C228.585 13.5451 228.807 13.6562 229.029 13.7674L234.361 16.4393V16.792L234.732 16.8418C235.34 16.9951 235.792 17.252 236.331 17.574L236.889 17.9075C237.356 18.2065 237.356 18.2065 237.708 18.5592L238.159 18.724L238.588 18.9119L238.767 19.4409C239.295 19.6594 239.295 19.6594 239.823 19.7935V20.1462H240.351V20.5027L240.825 20.5449C241.411 20.6791 241.411 20.6791 241.915 21.0202L242.29 21.3844V21.7371L243.174 21.9134L243.35 22.4463H243.878V22.7989L244.581 22.9753V23.328H245.109V23.6806L245.53 23.8455C245.993 24.0333 245.993 24.0333 246.345 24.2096V24.5623H246.873V24.9188L247.756 25.2715V25.6242L248.15 25.766C248.617 25.9692 248.965 26.1685 249.34 26.5059V26.8624L250.223 27.215V27.5677L250.927 27.7441V28.0967L251.249 28.2501C251.631 28.4494 251.631 28.4494 252.163 28.8021V29.1586L252.457 29.2889C252.947 29.5534 253.356 29.8716 253.792 30.2166L254.267 30.5923L254.63 30.922V31.2785H254.982V31.6311H255.334V31.9838L255.663 32.1487L256.393 32.5128V32.8655L257.097 33.2182V33.5747H257.625C257.916 33.8507 257.916 33.8507 258.222 34.2225C258.788 34.9164 259.404 35.5374 260.042 36.1661C260.379 36.4958 260.716 36.8293 261.052 37.1628L261.396 37.4963C262.066 38.1633 262.647 38.8456 263.198 39.6123C263.535 40.0532 263.929 40.425 264.323 40.816C264.72 41.2684 265.099 41.7322 265.482 42.196L265.803 42.5909C266.648 43.6259 267.455 44.6839 268.247 45.7611C268.568 46.1981 268.874 46.616 269.257 46.9993V47.5283H269.613C269.911 47.9232 270.198 48.3295 270.469 48.7435L270.726 49.123C270.909 49.3952 271.089 49.6636 271.269 49.9357C271.548 50.3536 271.831 50.7714 272.11 51.1893C272.925 52.4006 273.74 53.6158 274.474 54.8808C274.654 55.1837 274.841 55.4865 275.029 55.7855C276.157 57.5681 277.113 59.4273 278.07 61.3057L278.28 61.7158C278.93 63 279.565 64.2842 280.147 65.5952C280.395 66.1473 280.648 66.6916 280.904 67.236C281.275 68.0448 281.627 68.8652 281.952 69.697C282.14 70.18 282.342 70.6554 282.545 71.1307C283.379 73.1356 284.109 75.1711 284.771 77.2374C284.897 77.7127 284.897 77.7127 285.123 77.912C285.127 78.2647 285.131 78.6174 285.123 78.9701H285.475L285.559 79.2882L285.957 80.7603L286.106 81.3008C286.355 82.2246 286.615 83.1447 286.883 84.0608C287.215 85.2109 287.498 86.3724 287.778 87.5378L287.908 88.0859C288.038 88.6379 288.168 89.19 288.294 89.7458L288.424 90.317C288.776 91.9002 289.044 93.4872 289.296 95.0896C289.361 95.5151 289.43 95.9444 289.499 96.3699C290.337 101.645 290.444 106.889 290.444 112.217C290.444 112.815 290.444 113.417 290.444 114.019C290.459 117.546 290.417 121.034 290.057 124.546L290 125.113C289.22 132.554 287.449 139.711 285.123 146.802C285.005 147.167 284.886 147.535 284.767 147.903C284.305 149.333 283.826 150.743 283.226 152.123C283.012 152.614 282.817 153.112 282.622 153.611C282.182 154.745 281.681 155.853 281.122 156.934C280.931 157.318 280.766 157.712 280.629 158.119C280.357 158.901 279.944 159.598 279.535 160.311C279.332 160.706 279.21 161.032 279.129 161.461H278.777L278.716 161.849C278.311 163.597 277.098 165.249 276.188 166.775C275.882 167.296 275.583 167.821 275.297 168.354C274.929 169.025 274.512 169.657 274.076 170.286C273.851 170.635 273.663 170.984 273.487 171.355H273.135V171.885H272.784L272.707 172.218C272.608 172.594 272.608 172.594 272.432 172.946H272.08L272.015 173.261C271.896 173.667 271.751 173.924 271.51 174.269L271.269 174.622L271.009 174.986L270.745 175.369C270.125 176.255 269.498 177.132 268.855 178.006C268.58 178.386 268.312 178.773 268.048 179.16L267.673 179.659H267.321V180.188H266.966L266.438 181.246H266.086L265.963 181.621C265.684 182.242 265.286 182.706 264.839 183.212L264.311 183.826L264.043 184.132C263.691 184.546 263.351 184.972 263.011 185.397C261.343 187.448 259.469 189.319 257.602 191.186C257.227 191.561 256.852 191.937 256.477 192.313L255.418 193.375C254.653 194.138 253.857 194.851 253.042 195.556C252.828 195.748 252.61 195.935 252.396 196.127L251.776 196.671L251.459 196.951C250.897 197.442 250.419 197.802 249.696 198.028V198.381C249.435 198.611 249.435 198.611 249.099 198.845L248.766 199.083L248.46 199.267H248.108V199.619C247.741 199.903 247.366 200.175 246.984 200.436L246.662 200.662C246.383 200.85 246.1 201.03 245.817 201.206H245.465V201.563H244.933V201.916C244.574 202.176 244.203 202.422 243.824 202.655L243.143 203.081L242.799 203.296C242.164 203.694 241.541 204.112 240.917 204.526C240.527 204.741 240.527 204.741 239.999 204.741V205.093C239.594 205.381 239.594 205.381 239.119 205.622H238.588V205.979L238.198 206.19L237.673 206.473L237.161 206.753C236.828 206.937 236.499 207.133 236.178 207.336C235.769 207.566 235.769 207.566 235.241 207.566V207.923L234.889 208.091C234.013 208.521 233.152 208.961 232.303 209.444L231.875 209.686C231.595 209.847 231.316 210.008 231.037 210.173L230.643 210.399L230.291 210.602C229.955 210.748 229.955 210.748 229.247 210.748V211.1C226.615 212.469 226.615 212.469 225.192 212.691V213.044H224.84C224.837 183.113 224.837 183.113 224.833 157.755V129.518C224.833 120.287 224.833 111.052 224.829 101.821C224.825 95.0858 224.825 88.3504 224.825 81.6151V67.9643C224.825 63.6555 224.825 59.3429 224.821 55.0303C224.821 50.0776 224.821 45.1248 224.821 40.1682V39.8117C224.821 37.8375 224.821 35.8671 224.821 33.8929C224.818 32.1678 224.818 30.4428 224.821 28.7216C224.821 27.7402 224.821 26.7627 224.818 25.7813C224.818 21.1927 224.867 16.608 225.016 12.0232Z" fill="#070706"/>
<path d="M266.416 46.9675H266.769C267.045 47.3161 267.313 47.6761 267.566 48.0477L268.046 48.7333L268.295 49.0895C268.517 49.4112 268.748 49.7291 268.978 50.0471C270.128 51.6289 271.202 53.253 272.249 54.9076L272.483 55.2792C274.393 58.3166 276.184 61.442 277.753 64.6671C277.975 65.1191 278.213 65.5672 278.455 66.0115C280.345 69.4358 281.711 73.1205 283.03 76.7937L283.256 77.4219C286.236 85.7527 288.043 94.4665 288.86 103.268L288.925 103.943C289.447 109.91 289.477 116.019 288.86 121.979L288.756 123.105C287.59 135.132 284.173 146.845 279.141 157.807L278.884 158.363C277.703 160.921 276.407 163.392 274.988 165.824C274.742 166.245 274.5 166.667 274.259 167.088C273.273 168.8 272.207 170.443 271.095 172.075C270.849 172.435 270.608 172.795 270.366 173.155C268.456 175.99 266.37 178.709 264.118 181.283L263.781 181.67C263.102 182.451 262.412 183.217 261.717 183.983C261.483 184.244 261.253 184.504 261.023 184.768C260.31 185.596 259.57 186.381 258.795 187.155L258.446 187.507C258.204 187.752 257.959 187.994 257.717 188.235C257.349 188.603 256.985 188.974 256.616 189.342C255.405 190.56 254.196 191.732 252.808 192.755L252.455 192.402L252.808 191.87C252.754 191.491 252.754 191.491 252.632 191.165L251.746 190.989C252.275 190.341 252.793 189.748 253.429 189.212C254.3 188.461 255.109 187.656 255.922 186.844C256.175 186.588 256.432 186.331 256.689 186.078C257.61 185.155 258.5 184.213 259.347 183.221C259.597 182.945 259.846 182.669 260.099 182.394C263.363 178.778 266.293 174.879 269.02 170.846C269.235 170.528 269.449 170.214 269.668 169.899C273.335 164.572 276.265 158.681 278.731 152.717C278.93 152.238 279.133 151.767 279.337 151.292C281.435 146.378 282.923 141.13 284.089 135.921L284.173 135.554C284.986 131.934 285.611 128.318 286.033 124.626L286.106 124.013C286.62 119.758 286.762 115.491 286.915 111.212H286.562L286.57 111.806C286.578 113.212 286.562 114.583 286.386 115.977C285.627 116.207 285.044 116.092 284.265 115.977L284.089 115.449L283.747 115.38L283.383 115.272L283.03 114.388C282.693 114.211 282.693 114.211 282.321 114.211L281.791 114.388V114.035L280.733 113.683L280.368 113.606C280.023 113.507 280.023 113.507 279.67 113.154L279.13 112.921L278.612 112.622C278.543 112.331 278.485 112.036 278.432 111.741C277.991 111.442 277.991 111.442 277.55 111.212V110.86H277.02L276.844 109.975L276.832 110.431C276.733 114.46 276.614 118.497 276.134 122.508H275.781C275.808 121.952 275.835 121.397 275.858 120.842L275.881 120.382C275.923 119.501 275.969 118.62 276.027 117.739C276.13 116.092 276.173 114.449 276.169 112.798V112.388C276.153 105.892 275.766 99.1355 274.098 92.8386C273.983 92.3752 273.906 91.9117 273.837 91.4444H273.484L273.308 91.7968L273.005 91.6589L272.59 91.475L272.149 91.2797C271.889 91.1648 271.628 91.0537 271.363 90.9503C270.681 90.6822 270.27 90.3834 269.775 89.8549C269.48 89.6748 269.185 89.4986 268.889 89.3263C267.969 88.7096 267.229 88.0355 266.519 87.1852C266.224 86.8213 266.224 86.8213 265.764 86.4229C265.292 85.8982 265.085 85.3964 264.82 84.7491C264.605 84.2933 264.302 84.0252 263.942 83.6767C263.762 83.2668 263.585 82.857 263.413 82.4433L263.067 82.0335C262.649 81.4896 262.442 80.9687 262.201 80.329C262.047 79.9268 261.89 79.5285 261.725 79.1301L261.579 78.7778C261.483 78.5479 261.391 78.322 261.296 78.0921C260.13 75.2348 260.295 70.9602 260.628 67.919C260.747 67.1032 260.927 66.3026 261.115 65.4983L261.38 64.196C261.56 63.3533 261.786 62.5413 262.043 61.7178C262.251 60.9939 262.396 60.2547 262.55 59.5154C262.83 58.1825 263.159 56.8572 263.482 55.532C263.578 55.1221 263.673 54.7085 263.765 54.2948C264.068 52.9657 264.479 51.8588 265.135 50.6637C265.457 49.8977 265.445 49.1661 265.472 48.3426C265.534 47.8485 265.534 47.8485 265.725 47.5076C265.963 47.2625 265.963 47.2625 266.416 46.9675Z" fill="black"/>
<path d="M280.978 72.5178L281.438 72.7017C281.703 73.1691 281.887 73.5829 282.067 74.081L282.244 74.5484C282.451 75.1078 282.654 75.671 282.85 76.2342L283.092 76.897C286.144 85.3947 288.028 94.2641 288.86 103.245L288.925 103.919C289.447 109.888 289.477 115.999 288.86 121.96L288.756 123.087C287.59 135.117 284.173 146.833 279.141 157.798L278.884 158.354C277.703 160.913 276.407 163.384 274.988 165.817C274.742 166.238 274.5 166.66 274.259 167.081C273.273 168.794 272.207 170.437 271.095 172.07C270.849 172.43 270.608 172.79 270.366 173.15C268.456 175.985 266.37 178.705 264.118 181.28L263.781 181.667C263.102 182.448 262.412 183.215 261.717 183.981C261.483 184.241 261.25 184.502 261.023 184.766C260.31 185.594 259.57 186.379 258.795 187.153L258.446 187.506C258.204 187.751 257.959 187.992 257.717 188.234C257.349 188.601 256.985 188.973 256.616 189.341C255.405 190.559 254.196 191.732 252.808 192.755L252.455 192.402L252.808 191.87C252.754 191.49 252.754 191.49 252.632 191.165L251.746 190.988C252.275 190.341 252.793 189.747 253.429 189.211C254.3 188.46 255.109 187.655 255.922 186.843C256.175 186.586 256.432 186.33 256.689 186.077C257.61 185.153 258.5 184.211 259.347 183.219C259.597 182.943 259.846 182.667 260.099 182.391C263.363 178.774 266.293 174.874 269.02 170.84C269.235 170.522 269.449 170.208 269.668 169.893C273.335 164.564 276.265 158.672 278.731 152.706C278.93 152.227 279.133 151.756 279.337 151.281C281.435 146.366 282.923 141.117 284.089 135.906L284.173 135.538C284.986 131.918 285.615 128.301 286.033 124.608L286.11 123.941C286.628 119.401 286.808 114.873 286.739 110.306L286.731 109.773C286.536 97.1069 283.54 84.8775 279.141 73.0542L279.471 72.9814C279.855 72.8933 279.855 72.8933 280.188 72.6826C280.553 72.5255 280.553 72.5255 280.978 72.5178Z" fill="black"/>
<path d="M276.105 158.562L277.695 158.737L277.871 159.445L277.695 159.621L278.047 159.797C277.818 160.547 277.526 161.22 277.155 161.912L276.829 162.524L276.481 163.166L276.304 163.499C274.699 166.467 272.968 169.328 271.064 172.112C270.823 172.468 270.585 172.824 270.348 173.179C268.44 176.013 266.356 178.729 264.104 181.299L263.766 181.685C263.088 182.466 262.399 183.23 261.706 183.995C261.472 184.255 261.238 184.516 261.012 184.779C260.3 185.606 259.56 186.39 258.787 187.162L258.438 187.514C258.197 187.759 257.951 188 257.71 188.241C257.342 188.608 256.978 188.979 256.611 189.346C255.4 190.562 254.194 191.733 252.807 192.754L252.454 192.402L252.807 191.87C252.753 191.492 252.753 191.492 252.631 191.167L251.746 190.991C252.274 190.344 252.791 189.751 253.427 189.216C254.297 188.466 255.105 187.663 255.917 186.852C256.17 186.596 256.427 186.34 256.683 186.087C257.603 185.166 258.492 184.225 259.338 183.234C259.587 182.959 259.836 182.684 260.089 182.408C263.349 178.798 266.276 174.904 268.999 170.877C269.214 170.559 269.428 170.246 269.647 169.932C272.125 166.333 274.132 162.455 276.105 158.562Z" fill="black"/>
<path d="M255.162 125.873L255.503 126.046C255.399 127.208 255.199 128.307 254.929 129.439L254.817 129.909C254.599 130.838 254.317 131.748 253.965 132.636H253.624C253.939 131.177 254.284 129.728 254.628 128.28L254.762 127.72L254.884 127.212C254.984 126.768 255.077 126.32 255.162 125.873Z" fill="black"/>
<path d="M259.796 165.202H260.145C259.876 166.018 259.44 166.645 258.944 167.33L258.717 167.653C257.804 168.934 257.804 168.934 257.354 169.458H257.005C257.252 168.661 257.645 168.261 258.225 167.684C258.41 167.395 258.581 167.099 258.751 166.799C258.925 166.514 259.103 166.229 259.285 165.945L259.55 165.521L259.796 165.202ZM266.426 153.677H266.775C266.54 154.635 266.195 155.447 265.73 156.313L265.54 156.678C265.378 156.982 265.207 157.279 265.029 157.579L264.681 157.756C264.787 157.078 264.987 156.563 265.306 155.959C265.658 155.301 265.658 155.301 265.73 154.562H266.252L266.426 153.677Z" fill="black"/>
<path d="M254.869 140.527L255.224 140.702C254.881 141.795 254.468 142.833 253.979 143.872H253.624C253.99 142.734 254.41 141.63 254.869 140.527ZM263.039 160.057L263.394 160.408C263.197 160.76 263 161.107 262.804 161.455L262.472 162.043L262.149 162.52L261.617 162.695C261.86 162.046 262.16 161.474 262.526 160.882L262.815 160.412L263.039 160.057Z" fill="black"/>
<path d="M253.249 144.283L253.624 144.459C253.232 145.829 253.232 145.829 252.816 146.335C252.591 146.541 252.358 146.727 252.122 146.914C252.42 146 252.824 145.147 253.249 144.283Z" fill="black"/>
<path d="M49.49 120.342C49.49 121.814 49.282 123.158 48.866 124.374C48.45 125.558 47.714 126.582 46.658 127.446C45.634 128.278 44.21 128.934 42.386 129.414C40.562 129.894 38.242 130.134 35.426 130.134C32.642 130.134 30.338 129.894 28.514 129.414C26.722 128.934 25.298 128.278 24.242 127.446C23.218 126.582 22.498 125.558 22.082 124.374C21.698 123.158 21.506 121.814 21.506 120.342V112.566C21.506 111.958 21.634 111.526 21.89 111.27C22.178 110.982 22.626 110.838 23.234 110.838H30.194C30.802 110.838 31.234 110.982 31.49 111.27C31.778 111.526 31.922 111.958 31.922 112.566V118.422C31.922 119.062 32.114 119.606 32.498 120.054C32.914 120.47 33.858 120.678 35.33 120.678C36.706 120.678 37.57 120.47 37.922 120.054C38.306 119.606 38.498 119.062 38.498 118.422V96.5821C38.498 95.9741 38.626 95.5421 38.882 95.2861C39.17 94.9981 39.618 94.8541 40.226 94.8541H47.762C48.37 94.8541 48.802 94.9981 49.058 95.2861C49.346 95.5421 49.49 95.9741 49.49 96.5821V120.342ZM68.4249 104.934L66.1689 112.23H73.7049L71.4489 104.934C71.3209 104.646 71.1769 104.438 71.0169 104.31C70.8889 104.182 70.7289 104.118 70.5369 104.118H69.3369C69.1449 104.118 68.9689 104.182 68.8089 104.31C68.6809 104.438 68.5529 104.646 68.4249 104.934ZM65.6889 127.686C65.6889 128.294 65.5449 128.742 65.2569 129.03C65.0009 129.286 64.5689 129.414 63.9609 129.414H56.9049C56.2969 129.414 55.8489 129.286 55.5609 129.03C55.3049 128.742 55.1769 128.294 55.1769 127.686V115.014C55.1769 114.054 55.3209 112.95 55.6089 111.702C55.9289 110.454 56.4089 108.998 57.0489 107.334L61.2249 96.4381C61.4169 95.8941 61.7049 95.4941 62.0889 95.2381C62.5049 94.9821 63.0329 94.8541 63.6729 94.8541H76.5849C77.1929 94.8541 77.6889 94.9821 78.0729 95.2381C78.4889 95.4941 78.7929 95.8941 78.9849 96.4381L83.1609 107.334C83.8009 108.998 84.2649 110.454 84.5529 111.702C84.8729 112.95 85.0329 114.054 85.0329 115.014V127.686C85.0329 128.294 84.8889 128.742 84.6009 129.03C84.3449 129.286 83.9129 129.414 83.3049 129.414H76.0569C75.4169 129.414 74.9369 129.286 74.6169 129.03C74.3289 128.742 74.1849 128.294 74.1849 127.686V120.966H65.6889V127.686ZM115.391 129.414H91.5834C90.9754 129.414 90.5274 129.286 90.2394 129.03C89.9834 128.742 89.8554 128.294 89.8554 127.686V121.254C89.8554 120.646 89.9514 120.118 90.1434 119.67C90.3354 119.19 90.6394 118.726 91.0554 118.278L102.719 104.118H92.4474C91.8394 104.118 91.3914 103.99 91.1034 103.734C90.8474 103.446 90.7194 102.998 90.7194 102.39V96.5821C90.7194 95.9741 90.8474 95.5421 91.1034 95.2861C91.3914 94.9981 91.8394 94.8541 92.4474 94.8541H114.527C115.135 94.8541 115.567 94.9981 115.823 95.2861C116.111 95.5421 116.255 95.9741 116.255 96.5821V103.734C116.255 104.374 116.159 104.934 115.967 105.414C115.775 105.862 115.471 106.31 115.055 106.758L103.919 120.246H115.391C115.999 120.246 116.431 120.39 116.687 120.678C116.975 120.934 117.119 121.366 117.119 121.974V127.686C117.119 128.294 116.975 128.742 116.687 129.03C116.431 129.286 115.999 129.414 115.391 129.414ZM146.845 129.414H123.037C122.429 129.414 121.981 129.286 121.693 129.03C121.437 128.742 121.309 128.294 121.309 127.686V121.254C121.309 120.646 121.405 120.118 121.597 119.67C121.789 119.19 122.093 118.726 122.509 118.278L134.173 104.118H123.901C123.293 104.118 122.845 103.99 122.557 103.734C122.301 103.446 122.173 102.998 122.173 102.39V96.5821C122.173 95.9741 122.301 95.5421 122.557 95.2861C122.845 94.9981 123.293 94.8541 123.901 94.8541H145.981C146.589 94.8541 147.021 94.9981 147.277 95.2861C147.565 95.5421 147.709 95.9741 147.709 96.5821V103.734C147.709 104.374 147.613 104.934 147.421 105.414C147.229 105.862 146.925 106.31 146.509 106.758L135.373 120.246H146.845C147.453 120.246 147.885 120.39 148.141 120.678C148.429 120.934 148.573 121.366 148.573 121.974V127.686C148.573 128.294 148.429 128.742 148.141 129.03C147.885 129.286 147.453 129.414 146.845 129.414Z" fill="#FDEBE6"/>
<mask id="mask0_196_627" style="mask-type:alpha" maskUnits="userSpaceOnUse" x="111" y="33" width="164" height="165">
<path d="M257.857 68.9934C262.289 75.8577 265.617 83.3339 267.706 91.0958C276.429 122.285 263.166 156.941 237.332 173.913C205.505 196.506 157.764 187.689 136.253 156.172C113.31 125.681 120.287 77.6367 151.902 54.7477C176.269 35.7298 213.349 34.2949 240.087 52.5699C246.767 57.04 252.779 62.592 257.857 68.9934C253.43 62.1266 247.887 55.9272 241.439 50.7341C215.788 29.4656 175.131 27.3744 146.658 47.4331C109.727 71.2046 99.5071 127.457 126.501 163.163C151.65 200.191 208.206 208.572 242.576 181.228C270.714 160.702 281.786 121.525 269.879 90.4046C267.031 82.6304 262.939 75.3904 257.857 68.9934Z" fill="#D1D1D1"/>
</mask>
<g mask="url(#mask0_196_627)">
<path d="M249.504 151.447C240.494 138.879 243.379 121.386 255.947 112.376L258.731 110.38C271.299 101.37 288.792 104.254 297.802 116.822L303.624 124.944C312.634 137.512 309.75 155.004 297.182 164.014L294.397 166.01C281.829 175.02 264.337 172.136 255.327 159.568L249.504 151.447Z" fill="#D1D1D1"/>
<path d="M231.518 136.656C220.578 121.395 224.08 100.154 239.341 89.2136L242.126 87.2173C257.387 76.2766 278.628 79.7789 289.568 95.04L293.217 120.724C293.217 120.724 285.211 126.463 275.337 133.543L272.552 135.539C262.677 142.618 254.672 148.357 254.672 148.357L231.518 136.656ZM308.5 121.448C319.441 136.709 315.939 157.95 300.678 168.89L297.893 170.887C282.632 181.827 261.391 178.325 250.45 163.064L260.203 156.072C267.282 165.947 281.026 168.213 290.901 161.134L293.686 159.138C303.561 152.058 305.827 138.314 298.747 128.439L308.5 121.448ZM297.893 170.887C282.632 181.827 261.391 178.325 250.45 163.064L231.518 136.656C220.578 121.395 224.08 100.154 239.341 89.2136L272.552 135.539C262.677 142.618 254.672 148.357 254.672 148.357L260.203 156.072C267.282 165.947 281.026 168.213 290.901 161.134L297.893 170.887ZM242.126 87.2173C257.387 76.2766 278.628 79.7789 289.568 95.04L308.5 121.448C319.441 136.709 315.939 157.95 300.678 168.89L293.686 159.138C303.561 152.058 305.827 138.314 298.747 128.439L293.217 120.724C293.217 120.724 285.211 126.463 275.337 133.543L242.126 87.2173Z" fill="#D1D1D1"/>
</g>
<mask id="mask1_196_627" style="mask-type:alpha" maskUnits="userSpaceOnUse" x="135" y="52" width="128" height="128">
<path d="M249.576 79.9803C252.894 85.2919 255.353 91.045 256.864 96.9878C263.172 120.882 252.758 146.892 233.243 159.474C209.167 176.219 173.638 169.417 157.591 145.925C140.495 123.185 145.458 87.3527 169.047 69.9271C187.228 55.4847 215.205 53.9729 235.809 67.6178C240.952 70.9565 245.611 75.1325 249.576 79.9803C246.262 74.6671 242.072 69.8437 237.161 65.782C217.644 49.1436 186.089 47.1292 163.803 62.6126C134.898 80.9206 126.692 124.961 147.838 152.917C167.525 181.918 211.869 188.286 238.487 166.788C260.306 150.653 268.529 120.121 259.037 96.2966C256.767 90.3415 253.544 84.8246 249.576 79.9803Z" fill="#D1D1D1"/>
</mask>
<g mask="url(#mask1_196_627)">
<path d="M243.943 144.192C236.621 133.978 238.965 119.762 249.179 112.44C259.392 105.118 273.608 107.462 280.93 117.675L283.86 121.762C291.183 131.976 288.839 146.192 278.625 153.514C268.411 160.836 254.195 158.492 246.873 148.279L243.943 144.192Z" fill="#D1D1D1"/>
<path d="M225.957 129.401C216.704 116.494 219.666 98.5302 232.573 89.2772C245.48 80.0242 263.444 82.9863 272.697 95.8931L283.86 121.762C283.999 121.956 284.136 122.153 284.268 122.351L265.784 135.603L247.299 148.854C247.154 148.665 247.012 148.473 246.873 148.279L225.957 129.401ZM288.737 118.266C297.99 131.173 295.028 149.137 282.121 158.39C269.214 167.643 251.25 164.681 241.997 151.774L251.75 144.783C257.141 152.303 267.608 154.029 275.129 148.638C282.65 143.246 284.375 132.779 278.984 125.258L288.737 118.266ZM282.121 158.39C269.214 167.643 251.25 164.681 241.997 151.774L225.957 129.401C216.704 116.494 219.666 98.5302 232.573 89.2772L265.784 135.603C258.263 140.994 252.167 145.365 252.167 145.365L251.75 144.783C257.141 152.303 267.608 154.029 275.129 148.638L282.121 158.39ZM232.573 89.2772C245.48 80.0242 263.444 82.9863 272.697 95.8931L288.737 118.266C297.99 131.173 295.028 149.137 282.121 158.39L275.129 148.638C282.65 143.246 284.375 132.779 278.984 125.258L279.401 125.84C279.401 125.84 273.305 130.211 265.784 135.603L232.573 89.2772Z" fill="#D1D1D1"/>
</g>
<mask id="mask2_196_627" style="mask-type:alpha" maskUnits="userSpaceOnUse" x="160" y="71" width="93" height="92">
<path d="M242.001 91.5532C244.226 95.34 245.832 99.401 246.775 103.557C250.711 120.287 243.095 137.809 229.786 146.079C213.321 157.082 189.784 152.257 179.101 136.646C167.747 121.518 170.733 97.6775 186.441 85.6169C198.546 75.6674 217.585 74.0802 232.165 83.1784C235.799 85.406 239.129 88.2309 242.001 91.5532C239.78 87.7655 236.919 84.2933 233.517 81.3426C220.024 69.2509 197.407 67.312 181.197 78.3023C160.173 91.2454 153.944 123.294 169.349 143.638C183.67 164.759 216.022 169.149 235.03 153.393C250.643 141.569 256.067 119.527 248.948 102.866C247.245 98.6975 244.875 94.8727 242.001 91.5532Z" fill="#D1D1D1"/>
</mask>
<g mask="url(#mask2_196_627)">
<path d="M238.06 136.483C232.937 129.336 234.577 119.389 241.724 114.266C248.871 109.142 258.818 110.782 263.941 117.929L265.991 120.789C271.115 127.936 269.475 137.883 262.328 143.006C255.181 148.13 245.234 146.49 240.111 139.343L238.06 136.483Z" fill="#D1D1D1"/>
<path d="M220.075 121.693C213.02 111.853 215.278 98.1573 225.118 91.103L225.118 91.103C234.958 84.0487 248.654 86.3069 255.708 96.1469L265.991 120.789C267.877 123.419 268.917 126.562 268.971 129.798L258.329 137.428L247.686 145.059L247.687 145.057C244.639 143.967 241.996 141.973 240.111 139.343L220.075 121.693ZM270.868 117.293C277.922 127.133 275.664 140.828 265.824 147.883L265.824 147.883C255.984 154.937 242.289 152.679 235.234 142.839L244.987 135.847C248.18 140.301 254.379 141.323 258.832 138.13C263.286 134.937 264.308 128.738 261.115 124.285L270.868 117.293ZM265.824 147.883C255.984 154.937 242.289 152.679 235.234 142.839L220.075 121.693C213.02 111.853 215.278 98.1573 225.118 91.103L258.329 137.428C253.876 140.621 250.265 143.21 250.265 143.21L244.987 135.847C248.18 140.301 254.379 141.323 258.832 138.13L265.824 147.883ZM225.118 91.103C234.958 84.0487 248.654 86.3069 255.708 96.1469L270.868 117.293C277.922 127.133 275.664 140.828 265.824 147.883L258.832 138.13C263.286 134.937 264.308 128.738 261.115 124.285L266.393 131.647C266.393 131.647 262.783 134.236 258.329 137.428L225.118 91.103Z" fill="#D1D1D1"/>
</g>
</svg>
