<svg width="306" height="226" viewBox="0 0 306 226" fill="none" xmlns="http://www.w3.org/2000/svg">
<path d="M0 0H224.288V0.352154H224.64V11.8201H224.992V12.1723L225.279 12.2565C226.362 12.5972 227.337 13.0565 228.344 13.5809C228.562 13.6919 228.784 13.8029 229.006 13.9139L234.34 16.5819V16.934L234.711 16.9838C235.319 17.1369 235.771 17.3934 236.31 17.7149L236.869 18.0479C237.336 18.3465 237.336 18.3465 237.688 18.6986L238.14 18.8632L238.568 19.0508L238.748 19.579C239.276 19.7972 239.276 19.7972 239.804 19.9312V20.2833H240.332V20.6393L240.807 20.6814C241.392 20.8154 241.392 20.8154 241.897 21.1561L242.272 21.5197V21.8718L243.156 22.0479L243.332 22.58H243.86V22.9321L244.564 23.1082V23.4604H245.092V23.8125L245.513 23.9771C245.976 24.1647 245.976 24.1647 246.328 24.3408V24.6929H246.856V25.0489L247.74 25.401V25.7532L248.134 25.8948C248.601 26.0977 248.949 26.2967 249.324 26.6336V26.9896L250.208 27.3417V27.6939L250.912 27.87V28.2221L251.234 28.3752C251.617 28.5743 251.617 28.5743 252.148 28.9264V29.2824L252.443 29.4125C252.933 29.6767 253.342 29.9944 253.778 30.3389L254.253 30.714L254.617 31.0432V31.3992H254.969V31.7513H255.321V32.1035L255.65 32.2681L256.381 32.6317V32.9838L257.085 33.336V33.692H257.613C257.903 33.9676 257.903 33.9676 258.21 34.3389C258.776 35.0317 259.392 35.6518 260.031 36.2796C260.368 36.6087 260.705 36.9418 261.041 37.2748L261.386 37.6078C262.055 38.2738 262.637 38.9552 263.188 39.7207C263.525 40.1609 263.919 40.5322 264.313 40.9226C264.711 41.3743 265.09 41.8375 265.472 42.3006L265.794 42.6949C266.639 43.7284 267.447 44.7848 268.239 45.8604C268.56 46.2968 268.866 46.714 269.249 47.0968V47.625H269.605C269.903 48.0193 270.19 48.425 270.462 48.8384L270.719 49.2174C270.902 49.4892 271.082 49.7571 271.262 50.0289C271.541 50.4461 271.824 50.8633 272.104 51.2806C272.919 52.4901 273.734 53.7035 274.468 54.9667C274.648 55.2691 274.836 55.5715 275.023 55.8701C276.152 57.65 277.109 59.5064 278.065 61.382L278.276 61.7916C278.926 63.0739 279.562 64.3562 280.143 65.6653C280.392 66.2165 280.644 66.76 280.901 67.3036C281.272 68.1112 281.624 68.9304 281.949 69.761C282.137 70.2433 282.34 70.7179 282.542 71.1926C283.377 73.1945 284.107 75.2271 284.769 77.2902C284.896 77.7649 284.896 77.7649 285.122 77.9639C285.125 78.3161 285.129 78.6682 285.122 79.0204H285.474L285.558 79.3381C285.741 80.0079 285.921 80.6778 286.105 81.3476C286.354 82.2701 286.614 83.1888 286.882 84.1036C287.215 85.252 287.498 86.4118 287.777 87.5754L287.907 88.1228C288.037 88.674 288.167 89.2252 288.294 89.7802L288.424 90.3505C288.776 91.9314 289.044 93.5161 289.296 95.1161C289.361 95.541 289.43 95.9697 289.499 96.3946C290.337 101.662 290.444 106.898 290.444 112.219C290.444 112.816 290.444 113.417 290.444 114.018C290.459 117.539 290.417 121.022 290.058 124.529L290 125.095C289.22 132.525 287.448 139.671 285.122 146.753C285.003 147.116 284.884 147.484 284.766 147.851C284.303 149.279 283.824 150.688 283.224 152.066C283.009 152.556 282.814 153.053 282.619 153.551C282.179 154.684 281.678 155.79 281.119 156.869C280.928 157.252 280.763 157.646 280.625 158.052C280.354 158.833 279.94 159.53 279.531 160.242C279.328 160.636 279.206 160.961 279.125 161.39H278.773L278.712 161.777C278.306 163.522 277.093 165.172 276.183 166.695C275.877 167.216 275.578 167.74 275.291 168.272C274.924 168.942 274.507 169.574 274.071 170.202C273.845 170.55 273.657 170.898 273.481 171.269H273.129V171.798H272.777L272.701 172.131C272.601 172.506 272.601 172.506 272.425 172.858H272.073L272.008 173.172C271.889 173.578 271.744 173.834 271.503 174.179L271.262 174.531L271.002 174.894L270.738 175.277C270.118 176.161 269.49 177.038 268.847 177.911C268.572 178.29 268.304 178.676 268.04 179.063L267.665 179.56H267.313V180.089H266.957L266.429 181.145H266.077L265.954 181.52C265.675 182.14 265.277 182.604 264.829 183.109L264.301 183.721L264.034 184.027C263.682 184.441 263.341 184.866 263 185.291C261.332 187.338 259.457 189.206 257.59 191.071C257.215 191.446 256.84 191.821 256.465 192.196L255.405 193.256C254.639 194.018 253.844 194.73 253.029 195.434C252.814 195.626 252.596 195.813 252.382 196.005L251.762 196.548L251.444 196.827C250.882 197.317 250.404 197.677 249.68 197.903V198.255C249.42 198.485 249.42 198.485 249.083 198.718L248.75 198.956L248.444 199.139H248.092V199.492C247.725 199.775 247.35 200.047 246.967 200.307L246.646 200.533C246.367 200.72 246.083 200.9 245.8 201.076H245.448V201.432H244.916V201.784C244.557 202.045 244.185 202.29 243.807 202.523L243.125 202.948L242.781 203.162C242.146 203.561 241.522 203.978 240.898 204.391C240.508 204.605 240.508 204.606 239.98 204.606V204.958C239.574 205.245 239.574 205.245 239.1 205.486H238.568V205.842L238.178 206.052L237.654 206.336L237.141 206.615C236.808 206.799 236.479 206.994 236.157 207.197C235.748 207.427 235.748 207.427 235.22 207.427V207.783L234.868 207.951C233.992 208.38 233.131 208.82 232.281 209.302L231.853 209.543C231.573 209.704 231.294 209.865 231.015 210.029L230.62 210.255L230.268 210.458C229.932 210.604 229.932 210.604 229.224 210.604V210.956C226.591 212.322 226.591 212.322 225.168 212.544V212.896L224.816 213.249C224.758 213.746 224.758 213.746 224.762 214.336L224.754 215.028L224.751 215.779C224.747 216.035 224.743 216.292 224.739 216.544C224.731 217.218 224.728 217.892 224.72 218.565C224.712 219.645 224.701 220.724 224.689 221.804C224.685 222.179 224.682 222.558 224.678 222.933L224.67 223.626L224.666 224.238C224.64 224.713 224.64 224.713 224.464 225.065L156.225 225.241V225.421H151.741C144.237 225.425 136.733 225.425 129.229 225.425H128.85L116.315 225.429C112.017 225.429 107.72 225.432 103.423 225.432C98.3836 225.436 93.3479 225.436 88.3084 225.436H87.9372C85.9627 225.436 83.9844 225.436 82.0061 225.436C80.024 225.44 78.038 225.44 76.052 225.44C74.9768 225.44 73.9015 225.44 72.8225 225.44C71.8391 225.44 70.8556 225.44 69.8722 225.44C69.5164 225.44 69.1567 225.44 68.8008 225.44C68.3187 225.44 67.8365 225.44 67.3505 225.44L66.922 225.444C66.5967 225.44 66.2715 225.432 65.9462 225.421L65.7702 225.241C65.4258 225.226 65.0776 225.222 64.7332 225.222L64.0444 225.218L63.2791 225.222H62.4717C61.7332 225.222 60.9909 225.222 60.2485 225.222C59.4526 225.222 58.6529 225.222 57.8531 225.222C56.4718 225.222 55.0866 225.222 53.7014 225.226C51.7001 225.226 49.6988 225.226 47.6975 225.226C44.4527 225.226 41.2039 225.229 37.9591 225.229C34.806 225.229 31.6491 225.233 28.4961 225.233H24.9833C16.8903 225.237 8.79717 225.237 0.707906 225.241L0.528059 224.713H0V0Z" fill="#ED3B02"/>
<path d="M0 0H224.288V0.352154H224.64V11.8201H224.992V12.1723L225.279 12.2565C226.362 12.5972 227.337 13.0565 228.344 13.5809C228.562 13.6919 228.784 13.8029 229.006 13.9139L234.34 16.5819V16.934L234.711 16.9838C235.319 17.1369 235.771 17.3934 236.31 17.7149L236.869 18.0479C237.336 18.3465 237.336 18.3465 237.688 18.6986L238.14 18.8632L238.568 19.0508L238.748 19.579C239.276 19.7972 239.276 19.7972 239.804 19.9312V20.2833H240.332V20.6393L240.807 20.6814C241.392 20.8154 241.392 20.8154 241.897 21.1561L242.272 21.5197V21.8718L243.156 22.0479L243.332 22.58H243.86V22.9321L244.564 23.1082V23.4604H245.092V23.8125L245.513 23.9771C245.976 24.1647 245.976 24.1647 246.328 24.3408V24.6929H246.856V25.0489L247.74 25.401V25.7532L248.134 25.8948C248.601 26.0977 248.949 26.2967 249.324 26.6336V26.9896L250.208 27.3417V27.6939L250.912 27.87V28.2221L251.234 28.3752C251.617 28.5743 251.617 28.5743 252.148 28.9264V29.2824L252.443 29.4125C252.933 29.6767 253.342 29.9944 253.778 30.3389L254.253 30.714L254.617 31.0432V31.3992H254.969V31.7513H255.321V32.1035L255.65 32.2681L256.381 32.6317V32.9838L257.085 33.336V33.692H257.613C257.903 33.9676 257.903 33.9676 258.21 34.3389C258.776 35.0317 259.392 35.6518 260.031 36.2796C260.368 36.6087 260.705 36.9418 261.041 37.2748L261.386 37.6078C262.055 38.2738 262.637 38.9552 263.188 39.7207C263.525 40.1609 263.919 40.5322 264.313 40.9226C264.711 41.3743 265.09 41.8375 265.472 42.3006L265.794 42.6949C266.639 43.7284 267.447 44.7848 268.239 45.8604C268.56 46.2968 268.866 46.714 269.249 47.0968V47.625H269.605C269.903 48.0193 270.19 48.425 270.462 48.8384L270.719 49.2174C270.902 49.4892 271.082 49.7571 271.262 50.0289C271.541 50.4461 271.824 50.8633 272.104 51.2806C272.919 52.4901 273.734 53.7035 274.468 54.9667C274.648 55.2691 274.836 55.5715 275.023 55.8701C276.152 57.65 277.109 59.5064 278.065 61.382L278.276 61.7916C278.926 63.0739 279.562 64.3562 280.143 65.6653C280.392 66.2165 280.644 66.76 280.901 67.3036C281.272 68.1112 281.624 68.9304 281.949 69.761C282.137 70.2433 282.34 70.7179 282.542 71.1926C283.377 73.1945 284.107 75.2271 284.769 77.2902C284.896 77.7649 284.896 77.7649 285.122 77.9639C285.125 78.3161 285.129 78.6682 285.122 79.0204H285.474L285.558 79.3381C285.741 80.0079 285.921 80.6778 286.105 81.3476C286.354 82.2701 286.614 83.1888 286.882 84.1036C287.215 85.252 287.498 86.4118 287.777 87.5754L287.907 88.1228C288.037 88.674 288.167 89.2252 288.294 89.7802L288.424 90.3505C288.776 91.9314 289.044 93.5161 289.296 95.1161C289.361 95.541 289.43 95.9697 289.499 96.3946C290.337 101.662 290.444 106.898 290.444 112.219C290.444 112.816 290.444 113.417 290.444 114.018C290.459 117.539 290.417 121.022 290.058 124.529L290 125.095C289.22 132.525 287.448 139.671 285.122 146.753C285.003 147.116 284.884 147.484 284.766 147.851C284.303 149.279 283.824 150.688 283.224 152.066C283.009 152.556 282.814 153.053 282.619 153.551C282.179 154.684 281.678 155.79 281.119 156.869C280.928 157.252 280.763 157.646 280.625 158.052C280.354 158.833 279.94 159.53 279.531 160.242C279.328 160.636 279.206 160.961 279.125 161.39H278.773L278.712 161.777C278.306 163.522 277.093 165.172 276.183 166.695C275.877 167.216 275.578 167.74 275.291 168.272C274.924 168.942 274.507 169.574 274.071 170.202C273.845 170.55 273.657 170.898 273.481 171.269H273.129V171.798H272.777L272.701 172.131C272.601 172.506 272.601 172.506 272.425 172.858H272.073L272.008 173.172C271.889 173.578 271.744 173.834 271.503 174.179L271.262 174.531L271.002 174.894L270.738 175.277C270.118 176.161 269.49 177.038 268.847 177.911C268.572 178.29 268.304 178.676 268.04 179.063L267.665 179.56H267.313V180.089H266.957L266.429 181.145H266.077L265.954 181.52C265.675 182.14 265.277 182.604 264.829 183.109L264.301 183.721L264.034 184.027C263.682 184.441 263.341 184.866 263 185.291C261.332 187.338 259.457 189.206 257.59 191.071C257.215 191.446 256.84 191.821 256.465 192.196L255.405 193.256C254.639 194.018 253.844 194.73 253.029 195.434C252.814 195.626 252.596 195.813 252.382 196.005L251.762 196.548L251.444 196.827C250.882 197.317 250.404 197.677 249.68 197.903V198.255C249.42 198.485 249.42 198.485 249.083 198.718L248.75 198.956L248.444 199.139H248.092V199.492C247.725 199.775 247.35 200.047 246.967 200.307L246.646 200.533C246.367 200.72 246.083 200.9 245.8 201.076H245.448V201.432H244.916V201.784C244.557 202.045 244.185 202.29 243.807 202.523L243.125 202.948L242.781 203.162C242.146 203.561 241.522 203.978 240.898 204.391C240.508 204.605 240.508 204.606 239.98 204.606V204.958C239.574 205.245 239.574 205.245 239.1 205.486H238.568V205.842L238.178 206.052L237.654 206.336L237.141 206.615C236.808 206.799 236.479 206.994 236.157 207.197C235.748 207.427 235.748 207.427 235.22 207.427V207.783L234.868 207.951C233.992 208.38 233.131 208.82 232.281 209.302L231.853 209.543C231.573 209.704 231.294 209.865 231.015 210.029L230.62 210.255L230.268 210.458C229.932 210.604 229.932 210.604 229.224 210.604V210.956C226.591 212.322 226.591 212.322 225.168 212.544V212.896L224.816 213.249C224.758 213.746 224.758 213.746 224.762 214.336L224.754 215.028L224.751 215.779C224.747 216.035 224.743 216.292 224.739 216.544C224.731 217.218 224.728 217.892 224.72 218.565C224.712 219.645 224.701 220.724 224.689 221.804C224.685 222.179 224.682 222.558 224.678 222.933L224.67 223.626L224.666 224.238C224.64 224.713 224.64 224.713 224.464 225.065L156.225 225.241V225.421H151.741C144.237 225.425 136.733 225.425 129.229 225.425H128.85L116.315 225.429C112.017 225.429 107.72 225.432 103.423 225.432C98.3836 225.436 93.3479 225.436 88.3084 225.436H87.9372C85.9627 225.436 83.9844 225.436 82.0061 225.436C80.024 225.44 78.038 225.44 76.052 225.44C74.9768 225.44 73.9015 225.44 72.8225 225.44C71.8391 225.44 70.8556 225.44 69.8722 225.44C69.5164 225.44 69.1567 225.44 68.8008 225.44C68.3187 225.44 67.8365 225.44 67.3505 225.44L66.922 225.444C66.5967 225.44 66.2715 225.432 65.9462 225.421L65.7702 225.241C65.4258 225.226 65.0776 225.222 64.7332 225.222L64.0444 225.218L63.2791 225.222H62.4717C61.7332 225.222 60.9909 225.222 60.2485 225.222C59.4526 225.222 58.6529 225.222 57.8531 225.222C56.4718 225.222 55.0866 225.222 53.7014 225.226C51.7001 225.226 49.6988 225.226 47.6975 225.226C44.4527 225.226 41.2039 225.229 37.9591 225.229C34.806 225.229 31.6491 225.233 28.4961 225.233H24.9833C16.8903 225.237 8.79717 225.237 0.707906 225.241L0.528059 224.713H0V0Z" fill="#ED3B02"/>
<path d="M225.016 12.0229C225.273 12.1073 225.525 12.1878 225.781 12.2721L226.21 12.414C226.657 12.5711 227.074 12.7628 227.495 12.9813L227.946 13.2151L228.367 13.4336C228.585 13.5448 228.807 13.656 229.029 13.7672L234.361 16.4391V16.7917L234.732 16.8416C235.34 16.9949 235.792 17.2517 236.331 17.5737L236.889 17.9073C237.356 18.2063 237.356 18.2063 237.708 18.5589L238.159 18.7238L238.588 18.9116L238.767 19.4406C239.295 19.6591 239.295 19.6591 239.823 19.7933V20.146H240.351V20.5025L240.825 20.5446C241.411 20.6788 241.411 20.6788 241.915 21.02L242.29 21.3842V21.7368L243.174 21.9132L243.35 22.446H243.878V22.7987L244.581 22.975V23.3277H245.109V23.6804L245.53 23.8452C245.993 24.0331 245.993 24.0331 246.345 24.2094V24.5621H246.873V24.9186L247.756 25.2713V25.6239L248.15 25.7658C248.617 25.9689 248.965 26.1683 249.34 26.5056V26.8621L250.223 27.2148V27.5675L250.927 27.7438V28.0965L251.249 28.2498C251.631 28.4492 251.631 28.4492 252.163 28.8018V29.1583L252.457 29.2887C252.947 29.5532 253.356 29.8714 253.792 30.2164L254.267 30.592L254.63 30.9217V31.2782H254.982V31.6309H255.334V31.9836L255.663 32.1484L256.393 32.5126V32.8653L257.097 33.2179V33.5744H257.625C257.916 33.8504 257.916 33.8504 258.222 34.2223C258.788 34.9161 259.404 35.5372 260.042 36.1658C260.379 36.4955 260.716 36.829 261.052 37.1625L261.396 37.496C262.066 38.163 262.647 38.8454 263.198 39.6121C263.535 40.0529 263.929 40.4248 264.323 40.8158C264.72 41.2681 265.099 41.732 265.482 42.1958L265.803 42.5906C266.648 43.6257 267.455 44.6837 268.247 45.7609C268.568 46.1979 268.874 46.6157 269.257 46.9991V47.5281H269.613C269.911 47.9229 270.198 48.3293 270.469 48.7433L270.726 49.1228C270.909 49.395 271.089 49.6633 271.269 49.9355C271.548 50.3533 271.831 50.7712 272.11 51.189C272.925 52.4004 273.74 53.6156 274.474 54.8806C274.654 55.1834 274.841 55.4863 275.029 55.7853C276.157 57.5678 277.113 59.427 278.07 61.3054L278.28 61.7156C278.93 62.9998 279.565 64.284 280.147 65.595C280.395 66.147 280.648 66.6914 280.904 67.2357C281.275 68.0446 281.627 68.8649 281.952 69.6968C282.14 70.1798 282.342 70.6551 282.545 71.1305C283.379 73.1353 284.109 75.1709 284.771 77.2371C284.897 77.7125 284.897 77.7125 285.123 77.9118C285.127 78.2645 285.131 78.6171 285.123 78.9698H285.475L285.559 79.288L285.957 80.76L286.106 81.3005C286.355 82.2244 286.615 83.1444 286.883 84.0606C287.215 85.2106 287.498 86.3721 287.778 87.5375L287.908 88.0857C288.038 88.6377 288.168 89.1897 288.294 89.7456L288.424 90.3167C288.776 91.8999 289.044 93.487 289.296 95.0893C289.361 95.5149 289.43 95.9442 289.499 96.3697C290.337 101.644 290.444 106.889 290.444 112.217C290.444 112.815 290.444 113.417 290.444 114.019C290.459 117.546 290.417 121.034 290.057 124.545L290 125.113C289.22 132.553 287.449 139.71 285.123 146.802C285.005 147.166 284.886 147.534 284.767 147.902C284.305 149.332 283.826 150.743 283.226 152.123C283.012 152.614 282.817 153.112 282.622 153.61C282.182 154.745 281.681 155.853 281.122 156.934C280.931 157.317 280.766 157.712 280.629 158.118C280.357 158.9 279.944 159.598 279.535 160.311C279.332 160.706 279.21 161.032 279.129 161.461H278.777L278.716 161.848C278.311 163.596 277.098 165.249 276.188 166.774C275.882 167.296 275.583 167.821 275.297 168.354C274.929 169.025 274.512 169.657 274.076 170.286C273.851 170.635 273.663 170.983 273.487 171.355H273.135V171.884H272.784L272.707 172.218C272.608 172.593 272.608 172.593 272.432 172.946H272.08L272.015 173.26C271.896 173.667 271.751 173.924 271.51 174.269L271.269 174.621L271.009 174.986L270.745 175.369C270.125 176.254 269.498 177.132 268.855 178.006C268.58 178.386 268.312 178.773 268.048 179.16L267.673 179.658H267.321V180.187H266.966L266.438 181.245H266.086L265.963 181.621C265.684 182.242 265.286 182.706 264.839 183.212L264.311 183.825L264.043 184.132C263.691 184.546 263.351 184.972 263.011 185.397C261.343 187.448 259.469 189.319 257.602 191.186C257.227 191.561 256.852 191.937 256.477 192.313L255.418 193.374C254.653 194.137 253.857 194.85 253.042 195.556C252.828 195.747 252.61 195.935 252.396 196.127L251.776 196.671L251.459 196.951C250.897 197.442 250.419 197.802 249.696 198.028V198.381C249.435 198.611 249.435 198.611 249.099 198.845L248.766 199.082L248.46 199.266H248.108V199.619C247.741 199.903 247.366 200.175 246.984 200.436L246.662 200.662C246.383 200.85 246.1 201.03 245.817 201.206H245.465V201.563H244.933V201.915C244.574 202.176 244.203 202.421 243.824 202.655L243.143 203.081L242.799 203.295C242.164 203.694 241.541 204.112 240.917 204.526C240.527 204.741 240.527 204.741 239.999 204.741V205.093C239.594 205.381 239.594 205.381 239.119 205.622H238.588V205.979L238.198 206.19L237.673 206.473L237.161 206.753C236.828 206.937 236.499 207.133 236.178 207.336C235.769 207.566 235.769 207.566 235.241 207.566V207.922L234.889 208.091C234.013 208.52 233.152 208.961 232.303 209.444L231.875 209.686C231.595 209.847 231.316 210.008 231.037 210.172L230.643 210.399L230.291 210.602C229.955 210.747 229.955 210.747 229.247 210.747V211.1C226.615 212.469 226.615 212.469 225.192 212.691V213.044H224.84C224.837 183.112 224.837 183.112 224.833 157.754V129.517C224.833 120.286 224.833 111.052 224.829 101.821C224.825 95.0855 224.825 88.3502 224.825 81.6149V67.9641C224.825 63.6553 224.825 59.3427 224.821 55.0301C224.821 50.0773 224.821 45.1245 224.821 40.1679V39.8114C224.821 37.8372 224.821 35.8668 224.821 33.8926C224.818 32.1676 224.818 30.4425 224.821 28.7213C224.821 27.74 224.821 26.7625 224.818 25.7811C224.818 21.1925 224.867 16.6077 225.016 12.0229Z" fill="#070706"/>
<path d="M266.416 46.9675H266.769C267.045 47.3161 267.313 47.6761 267.566 48.0477L268.046 48.7333L268.295 49.0895C268.517 49.4112 268.748 49.7291 268.978 50.0471C270.128 51.6289 271.202 53.253 272.249 54.9076L272.483 55.2792C274.393 58.3166 276.184 61.442 277.753 64.6671C277.975 65.1191 278.213 65.5672 278.455 66.0115C280.345 69.4358 281.711 73.1205 283.03 76.7937L283.256 77.4219C286.236 85.7527 288.043 94.4665 288.86 103.268L288.925 103.943C289.447 109.91 289.477 116.019 288.86 121.979L288.756 123.105C287.59 135.132 284.173 146.845 279.141 157.807L278.884 158.363C277.703 160.921 276.407 163.392 274.988 165.824C274.742 166.245 274.5 166.667 274.259 167.088C273.273 168.8 272.207 170.443 271.095 172.075C270.849 172.435 270.608 172.795 270.366 173.155C268.456 175.99 266.37 178.709 264.118 181.283L263.781 181.67C263.102 182.451 262.412 183.217 261.717 183.983C261.484 184.244 261.253 184.504 261.023 184.768C260.31 185.596 259.57 186.381 258.795 187.155L258.446 187.507C258.204 187.752 257.959 187.994 257.717 188.235C257.349 188.603 256.985 188.974 256.617 189.342C255.405 190.56 254.196 191.732 252.808 192.755L252.455 192.402L252.808 191.87C252.754 191.491 252.754 191.491 252.632 191.165L251.746 190.989C252.275 190.341 252.793 189.748 253.429 189.212C254.3 188.461 255.109 187.656 255.922 186.844C256.175 186.588 256.432 186.331 256.689 186.078C257.61 185.155 258.5 184.213 259.347 183.221C259.597 182.945 259.846 182.669 260.099 182.394C263.363 178.778 266.293 174.879 269.02 170.846C269.235 170.528 269.449 170.214 269.668 169.899C273.335 164.572 276.265 158.681 278.731 152.717C278.93 152.238 279.134 151.767 279.337 151.292C281.435 146.378 282.923 141.13 284.089 135.921L284.173 135.554C284.986 131.934 285.611 128.318 286.033 124.626L286.106 124.013C286.62 119.758 286.762 115.491 286.915 111.212H286.562L286.57 111.806C286.578 113.212 286.562 114.583 286.386 115.977C285.627 116.207 285.044 116.092 284.265 115.977L284.089 115.449L283.747 115.38L283.383 115.272L283.03 114.388C282.693 114.211 282.693 114.211 282.321 114.211L281.791 114.388V114.035L280.733 113.683L280.368 113.606C280.023 113.507 280.023 113.507 279.67 113.154L279.13 112.921L278.612 112.622C278.543 112.331 278.485 112.036 278.432 111.741C277.991 111.442 277.991 111.442 277.55 111.212V110.86H277.02L276.844 109.975L276.832 110.431C276.733 114.46 276.614 118.497 276.134 122.508H275.781C275.808 121.952 275.835 121.397 275.858 120.842L275.881 120.382C275.923 119.501 275.969 118.62 276.027 117.739C276.13 116.092 276.173 114.449 276.169 112.798V112.388C276.153 105.892 275.766 99.1355 274.098 92.8386C273.983 92.3752 273.906 91.9117 273.837 91.4444H273.484L273.308 91.7968L273.005 91.6589L272.591 91.475L272.149 91.2797C271.889 91.1648 271.628 91.0537 271.363 90.9503C270.681 90.6822 270.27 90.3834 269.775 89.8549C269.48 89.6748 269.185 89.4986 268.889 89.3263C267.969 88.7096 267.229 88.0355 266.519 87.1852C266.224 86.8213 266.224 86.8213 265.764 86.4229C265.292 85.8982 265.085 85.3964 264.82 84.7491C264.605 84.2933 264.302 84.0252 263.942 83.6767C263.762 83.2668 263.585 82.857 263.413 82.4433L263.067 82.0335C262.649 81.4896 262.442 80.9687 262.201 80.329C262.047 79.9268 261.89 79.5285 261.725 79.1301L261.579 78.7778C261.484 78.5479 261.391 78.322 261.296 78.0921C260.13 75.2348 260.295 70.9602 260.628 67.919C260.747 67.1032 260.927 66.3026 261.115 65.4983L261.38 64.196C261.56 63.3533 261.786 62.5413 262.043 61.7178C262.251 60.9939 262.396 60.2547 262.55 59.5154C262.83 58.1825 263.16 56.8572 263.482 55.532C263.578 55.1221 263.673 54.7085 263.766 54.2948C264.068 52.9657 264.479 51.8588 265.135 50.6637C265.457 49.8977 265.445 49.1661 265.472 48.3426C265.534 47.8485 265.534 47.8485 265.725 47.5076C265.963 47.2625 265.963 47.2625 266.416 46.9675Z" fill="black"/>
<path d="M280.978 72.5178L281.439 72.7017C281.703 73.1691 281.887 73.5829 282.068 74.081L282.244 74.5484C282.451 75.1078 282.654 75.671 282.85 76.2342L283.092 76.897C286.144 85.3947 288.028 94.2641 288.86 103.245L288.925 103.919C289.447 109.888 289.477 115.999 288.86 121.96L288.756 123.087C287.59 135.117 284.173 146.833 279.141 157.798L278.884 158.354C277.703 160.913 276.407 163.384 274.988 165.817C274.742 166.238 274.5 166.66 274.259 167.081C273.273 168.794 272.207 170.437 271.095 172.07C270.849 172.43 270.608 172.79 270.366 173.15C268.456 175.985 266.37 178.705 264.118 181.28L263.781 181.667C263.102 182.448 262.412 183.215 261.717 183.981C261.484 184.241 261.25 184.502 261.023 184.766C260.31 185.594 259.57 186.379 258.795 187.153L258.446 187.506C258.204 187.751 257.959 187.992 257.717 188.234C257.349 188.601 256.985 188.973 256.617 189.341C255.405 190.559 254.196 191.732 252.808 192.755L252.455 192.402L252.808 191.87C252.754 191.49 252.754 191.49 252.632 191.165L251.746 190.988C252.275 190.341 252.793 189.747 253.429 189.211C254.3 188.46 255.109 187.655 255.922 186.843C256.175 186.586 256.432 186.33 256.689 186.077C257.61 185.153 258.5 184.211 259.347 183.219C259.597 182.943 259.846 182.667 260.099 182.391C263.363 178.774 266.293 174.874 269.02 170.84C269.235 170.522 269.449 170.208 269.668 169.893C273.335 164.564 276.265 158.672 278.731 152.706C278.93 152.227 279.134 151.756 279.337 151.281C281.435 146.366 282.923 141.117 284.089 135.906L284.173 135.538C284.986 131.918 285.615 128.301 286.033 124.608L286.11 123.941C286.628 119.401 286.808 114.873 286.739 110.306L286.731 109.773C286.536 97.1069 283.54 84.8775 279.141 73.0542L279.471 72.9814C279.855 72.8933 279.855 72.8933 280.188 72.6826C280.553 72.5255 280.553 72.5255 280.978 72.5178Z" fill="black"/>
<path d="M276.105 158.562L277.695 158.737L277.871 159.445L277.695 159.621L278.047 159.797C277.818 160.547 277.527 161.22 277.155 161.912L276.829 162.524L276.481 163.166L276.304 163.499C274.699 166.467 272.968 169.328 271.064 172.112C270.823 172.468 270.585 172.824 270.348 173.179C268.44 176.013 266.356 178.729 264.104 181.299L263.767 181.685C263.088 182.466 262.399 183.23 261.706 183.995C261.472 184.255 261.238 184.516 261.012 184.779C260.3 185.606 259.56 186.39 258.787 187.162L258.438 187.514C258.197 187.759 257.951 188 257.71 188.241C257.342 188.608 256.978 188.979 256.611 189.346C255.4 190.562 254.194 191.733 252.807 192.754L252.454 192.402L252.807 191.87C252.753 191.492 252.753 191.492 252.631 191.167L251.746 190.991C252.274 190.344 252.791 189.751 253.427 189.216C254.297 188.466 255.105 187.663 255.917 186.852C256.17 186.596 256.427 186.34 256.684 186.087C257.603 185.166 258.492 184.225 259.338 183.234C259.587 182.959 259.836 182.684 260.089 182.408C263.349 178.798 266.276 174.904 268.999 170.877C269.214 170.559 269.428 170.246 269.647 169.932C272.125 166.333 274.132 162.455 276.105 158.562Z" fill="black"/>
<path d="M255.162 125.873L255.503 126.046C255.399 127.208 255.199 128.307 254.929 129.439L254.817 129.909C254.599 130.838 254.317 131.748 253.965 132.636H253.624C253.939 131.177 254.284 129.728 254.628 128.28L254.762 127.72L254.884 127.212C254.984 126.768 255.077 126.32 255.162 125.873Z" fill="black"/>
<path d="M259.796 165.202H260.145C259.876 166.018 259.44 166.645 258.944 167.33L258.717 167.653C257.805 168.934 257.805 168.934 257.354 169.458H257.006C257.252 168.661 257.645 168.261 258.225 167.684C258.41 167.395 258.581 167.099 258.751 166.799C258.925 166.514 259.103 166.229 259.285 165.945L259.55 165.521L259.796 165.202ZM266.426 153.677H266.775C266.54 154.635 266.195 155.447 265.73 156.313L265.54 156.678C265.378 156.982 265.207 157.279 265.029 157.579L264.681 157.756C264.787 157.078 264.988 156.563 265.306 155.959C265.658 155.301 265.658 155.301 265.73 154.562H266.252L266.426 153.677Z" fill="black"/>
<path d="M254.869 140.527L255.224 140.702C254.881 141.795 254.468 142.833 253.979 143.872H253.624C253.99 142.734 254.41 141.63 254.869 140.527ZM263.039 160.057L263.394 160.408C263.197 160.76 263 161.107 262.804 161.455L262.472 162.043L262.149 162.52L261.617 162.695C261.86 162.046 262.16 161.474 262.526 160.882L262.815 160.412L263.039 160.057Z" fill="black"/>
<path d="M253.249 144.283L253.625 144.458C253.232 145.829 253.232 145.829 252.816 146.335C252.591 146.54 252.358 146.727 252.122 146.913C252.42 146 252.824 145.147 253.249 144.283Z" fill="black"/>
<path d="M11.225 30C10.9083 30 10.675 29.9333 10.525 29.8C10.3917 29.65 10.325 29.4167 10.325 29.1V26.125C10.325 25.8083 10.3917 25.5833 10.525 25.45C10.675 25.3 10.9083 25.225 11.225 25.225H13.7V16.825H11.225C10.9083 16.825 10.675 16.7583 10.525 16.625C10.3917 16.475 10.325 16.2417 10.325 15.925V12.9C10.325 12.5833 10.3917 12.3583 10.525 12.225C10.675 12.075 10.9083 12 11.225 12H21.875C22.1917 12 22.4167 12.075 22.55 12.225C22.7 12.3583 22.775 12.5833 22.775 12.9V15.925C22.775 16.2417 22.7 16.475 22.55 16.625C22.4167 16.7583 22.1917 16.825 21.875 16.825H19.45V25.225H21.875C22.1917 25.225 22.4167 25.3 22.55 25.45C22.7 25.5833 22.775 25.8083 22.775 26.125V29.1C22.775 29.4167 22.7 29.65 22.55 29.8C22.4167 29.9333 22.1917 30 21.875 30H11.225ZM30.4867 30H26.7617C26.4451 30 26.2117 29.9333 26.0617 29.8C25.9284 29.65 25.8617 29.4167 25.8617 29.1V12.9C25.8617 12.5833 25.9284 12.3583 26.0617 12.225C26.2117 12.075 26.4451 12 26.7617 12H30.7867C31.0534 12 31.2701 12.0583 31.4367 12.175C31.6201 12.2917 31.7867 12.4833 31.9367 12.75L34.1867 16.825C34.2701 16.975 34.3367 17.0833 34.3867 17.15C34.4534 17.2167 34.5367 17.25 34.6367 17.25H34.8617C34.9617 17.25 35.0367 17.2167 35.0867 17.15C35.1534 17.0833 35.2284 16.975 35.3117 16.825L37.5367 12.75C37.6867 12.4833 37.8451 12.2917 38.0117 12.175C38.1951 12.0583 38.4201 12 38.6867 12H42.7367C43.0534 12 43.2784 12.075 43.4117 12.225C43.5617 12.3583 43.6367 12.5833 43.6367 12.9V29.1C43.6367 29.4167 43.5617 29.65 43.4117 29.8C43.2784 29.9333 43.0534 30 42.7367 30H38.8867C38.5701 30 38.3367 29.9333 38.1867 29.8C38.0534 29.65 37.9867 29.4167 37.9867 29.1V20.3L36.5117 23.025C36.3617 23.3083 36.1784 23.5167 35.9617 23.65C35.7617 23.7667 35.5034 23.825 35.1867 23.825H34.1867C33.8701 23.825 33.6034 23.7667 33.3867 23.65C33.1867 23.5167 33.0117 23.3083 32.8617 23.025L31.3867 20.3V29.1C31.3867 29.4167 31.3117 29.65 31.1617 29.8C31.0284 29.9333 30.8034 30 30.4867 30ZM51.8525 30H47.9775C47.6609 30 47.4275 29.9333 47.2775 29.8C47.1442 29.65 47.0775 29.4167 47.0775 29.1V12.9C47.0775 12.5833 47.1442 12.3583 47.2775 12.225C47.4275 12.075 47.6609 12 47.9775 12H55.6275C57.8942 12 59.4442 12.45 60.2775 13.35C61.1109 14.25 61.5275 15.425 61.5275 16.875V20.075C61.5275 21.525 61.1109 22.7 60.2775 23.6C59.4442 24.5 57.8942 24.95 55.6275 24.95H52.7525V29.1C52.7525 29.4167 52.6775 29.65 52.5275 29.8C52.3942 29.9333 52.1692 30 51.8525 30ZM52.7025 16.675V20.45H54.9525C55.4359 20.45 55.7525 20.325 55.9025 20.075C56.0525 19.825 56.1275 19.5417 56.1275 19.225V17.9C56.1275 17.5833 56.0525 17.3 55.9025 17.05C55.7525 16.8 55.4359 16.675 54.9525 16.675H52.7025ZM69.7686 16.5V19.7H71.6436C72.0769 19.7 72.3686 19.5917 72.5186 19.375C72.6686 19.1417 72.7436 18.8583 72.7436 18.525V17.675C72.7436 17.3417 72.6686 17.0667 72.5186 16.85C72.3686 16.6167 72.0769 16.5 71.6436 16.5H69.7686ZM68.8686 30H65.0186C64.7019 30 64.4686 29.9333 64.3186 29.8C64.1852 29.65 64.1186 29.4167 64.1186 29.1V12.9C64.1186 12.5833 64.1852 12.3583 64.3186 12.225C64.4686 12.075 64.7019 12 65.0186 12H73.3436C75.2102 12 76.4936 12.3917 77.1936 13.175C77.9102 13.9417 78.2686 14.9417 78.2686 16.175V17.325C78.2686 18.025 78.1602 18.625 77.9436 19.125C77.7436 19.6083 77.3852 19.9583 76.8686 20.175C77.7686 20.275 78.4936 20.6417 79.0436 21.275C79.6102 21.9083 79.8936 22.75 79.8936 23.8V29.1C79.8936 29.4167 79.8186 29.65 79.6686 29.8C79.5352 29.9333 79.3102 30 78.9936 30H75.1186C74.8019 30 74.5686 29.9333 74.4186 29.8C74.2852 29.65 74.2186 29.4167 74.2186 29.1V25.275C74.2186 24.9083 74.1436 24.6417 73.9936 24.475C73.8602 24.2917 73.6186 24.2 73.2686 24.2H69.7686V29.1C69.7686 29.4167 69.6936 29.65 69.5436 29.8C69.4102 29.9333 69.1852 30 68.8686 30ZM97.8256 25.275C97.8256 26.0417 97.7089 26.7417 97.4756 27.375C97.2589 27.9917 96.8589 28.525 96.2756 28.975C95.7089 29.4083 94.9173 29.75 93.9006 30C92.9006 30.25 91.6256 30.375 90.0756 30.375C88.5256 30.375 87.2423 30.25 86.2256 30C85.2089 29.75 84.4089 29.4083 83.8256 28.975C83.2589 28.525 82.8589 27.9917 82.6256 27.375C82.4089 26.7417 82.3006 26.0417 82.3006 25.275V16.75C82.3006 15.9833 82.4089 15.2917 82.6256 14.675C82.8589 14.0417 83.2589 13.5 83.8256 13.05C84.4089 12.6 85.2089 12.25 86.2256 12C87.2423 11.75 88.5256 11.625 90.0756 11.625C91.6256 11.625 92.9006 11.75 93.9006 12C94.9173 12.25 95.7089 12.6 96.2756 13.05C96.8589 13.5 97.2589 14.0417 97.4756 14.675C97.7089 15.2917 97.8256 15.9833 97.8256 16.75V25.275ZM87.9756 24.375C87.9756 24.7083 88.1006 24.9917 88.3506 25.225C88.6006 25.4417 89.1756 25.55 90.0756 25.55C90.9756 25.55 91.5506 25.4417 91.8006 25.225C92.0506 24.9917 92.1756 24.7083 92.1756 24.375V17.65C92.1756 17.3333 92.0506 17.0667 91.8006 16.85C91.5506 16.6167 90.9756 16.5 90.0756 16.5C89.1756 16.5 88.6006 16.6167 88.3506 16.85C88.1006 17.0667 87.9756 17.3333 87.9756 17.65V24.375ZM111.658 30H105.158C104.842 30 104.575 29.9417 104.358 29.825C104.158 29.7083 104 29.4917 103.883 29.175L101.433 23.05C101.283 22.6833 101.158 22.3667 101.058 22.1C100.958 21.8167 100.875 21.55 100.808 21.3C100.742 21.05 100.692 20.7917 100.658 20.525C100.642 20.2417 100.633 19.9 100.633 19.5V12.9C100.633 12.5833 100.7 12.3583 100.833 12.225C100.983 12.075 101.217 12 101.533 12H105.508C105.825 12 106.067 12.075 106.233 12.225C106.4 12.3583 106.483 12.5833 106.483 12.9V19.8C106.483 19.9667 106.5 20.1333 106.533 20.3C106.567 20.4667 106.617 20.6417 106.683 20.825L107.858 24.325C107.908 24.4917 107.967 24.6083 108.033 24.675C108.1 24.725 108.2 24.75 108.333 24.75H108.608C108.742 24.75 108.842 24.725 108.908 24.675C108.975 24.6083 109.033 24.4917 109.083 24.325L110.258 20.8C110.325 20.6167 110.375 20.4417 110.408 20.275C110.442 20.1083 110.458 19.9417 110.458 19.775V12.9C110.458 12.5833 110.525 12.3583 110.658 12.225C110.808 12.075 111.042 12 111.358 12H115.283C115.6 12 115.825 12.075 115.958 12.225C116.108 12.3583 116.183 12.5833 116.183 12.9V19.5C116.183 19.9 116.167 20.2417 116.133 20.525C116.117 20.7917 116.075 21.05 116.008 21.3C115.942 21.55 115.858 21.8167 115.758 22.1C115.658 22.3667 115.533 22.6833 115.383 23.05L112.933 29.175C112.817 29.4917 112.65 29.7083 112.433 29.825C112.233 29.9417 111.975 30 111.658 30ZM119.77 30C119.453 30 119.22 29.9333 119.07 29.8C118.937 29.65 118.87 29.4167 118.87 29.1V26.125C118.87 25.8083 118.937 25.5833 119.07 25.45C119.22 25.3 119.453 25.225 119.77 25.225H122.245V16.825H119.77C119.453 16.825 119.22 16.7583 119.07 16.625C118.937 16.475 118.87 16.2417 118.87 15.925V12.9C118.87 12.5833 118.937 12.3583 119.07 12.225C119.22 12.075 119.453 12 119.77 12H130.42C130.737 12 130.962 12.075 131.095 12.225C131.245 12.3583 131.32 12.5833 131.32 12.9V15.925C131.32 16.2417 131.245 16.475 131.095 16.625C130.962 16.7583 130.737 16.825 130.42 16.825H127.995V25.225H130.42C130.737 25.225 130.962 25.3 131.095 25.45C131.245 25.5833 131.32 25.8083 131.32 26.125V29.1C131.32 29.4167 131.245 29.65 131.095 29.8C130.962 29.9333 130.737 30 130.42 30H119.77ZM142.757 30H134.857C134.54 30 134.307 29.9333 134.157 29.8C134.023 29.65 133.957 29.4167 133.957 29.1V26.175C133.957 25.8583 134.023 25.6333 134.157 25.5C134.307 25.35 134.54 25.275 134.857 25.275H141.582C141.798 25.275 141.957 25.2083 142.057 25.075C142.173 24.925 142.232 24.75 142.232 24.55C142.232 24.2667 142.173 24.0583 142.057 23.925C141.957 23.7917 141.798 23.7167 141.582 23.7L137.832 23.175C136.665 23.0083 135.723 22.625 135.007 22.025C134.307 21.425 133.957 20.425 133.957 19.025V16.4C133.957 14.9833 134.415 13.9 135.332 13.15C136.248 12.3833 137.515 12 139.132 12H146.132C146.448 12 146.673 12.075 146.807 12.225C146.957 12.3583 147.032 12.5833 147.032 12.9V15.875C147.032 16.1917 146.957 16.425 146.807 16.575C146.673 16.7083 146.448 16.775 146.132 16.775H140.307C140.09 16.775 139.923 16.85 139.807 17C139.69 17.1333 139.632 17.3083 139.632 17.525C139.632 17.7417 139.69 17.925 139.807 18.075C139.923 18.225 140.09 18.3083 140.307 18.325L144.032 18.825C145.198 18.9917 146.14 19.375 146.857 19.975C147.573 20.575 147.932 21.575 147.932 22.975V25.6C147.932 27.0167 147.465 28.1083 146.532 28.875C145.615 29.625 144.357 30 142.757 30ZM157.191 17.25L156.016 21.05H159.941L158.766 17.25C158.7 17.1 158.625 16.9917 158.541 16.925C158.475 16.8583 158.391 16.825 158.291 16.825H157.666C157.566 16.825 157.475 16.8583 157.391 16.925C157.325 16.9917 157.258 17.1 157.191 17.25ZM155.766 29.1C155.766 29.4167 155.691 29.65 155.541 29.8C155.408 29.9333 155.183 30 154.866 30H151.191C150.875 30 150.641 29.9333 150.491 29.8C150.358 29.65 150.291 29.4167 150.291 29.1V22.5C150.291 22 150.366 21.425 150.516 20.775C150.683 20.125 150.933 19.3667 151.266 18.5L153.441 12.825C153.541 12.5417 153.691 12.3333 153.891 12.2C154.108 12.0667 154.383 12 154.716 12H161.441C161.758 12 162.016 12.0667 162.216 12.2C162.433 12.3333 162.591 12.5417 162.691 12.825L164.866 18.5C165.2 19.3667 165.441 20.125 165.591 20.775C165.758 21.425 165.841 22 165.841 22.5V29.1C165.841 29.4167 165.766 29.65 165.616 29.8C165.483 29.9333 165.258 30 164.941 30H161.166C160.833 30 160.583 29.9333 160.416 29.8C160.266 29.65 160.191 29.4167 160.191 29.1V25.6H155.766V29.1ZM176.427 30H172.377C172.06 30 171.827 29.9333 171.677 29.8C171.544 29.65 171.477 29.4167 171.477 29.1V16.825H167.802C167.485 16.825 167.252 16.7583 167.102 16.625C166.969 16.475 166.902 16.2417 166.902 15.925V12.9C166.902 12.5833 166.969 12.3583 167.102 12.225C167.252 12.075 167.485 12 167.802 12H181.002C181.319 12 181.544 12.075 181.677 12.225C181.827 12.3583 181.902 12.5833 181.902 12.9V15.925C181.902 16.2417 181.827 16.475 181.677 16.625C181.544 16.7583 181.319 16.825 181.002 16.825H177.327V29.1C177.327 29.4167 177.252 29.65 177.102 29.8C176.969 29.9333 176.744 30 176.427 30ZM184.833 30C184.517 30 184.283 29.9333 184.133 29.8C184 29.65 183.933 29.4167 183.933 29.1V26.125C183.933 25.8083 184 25.5833 184.133 25.45C184.283 25.3 184.517 25.225 184.833 25.225H187.308V16.825H184.833C184.517 16.825 184.283 16.7583 184.133 16.625C184 16.475 183.933 16.2417 183.933 15.925V12.9C183.933 12.5833 184 12.3583 184.133 12.225C184.283 12.075 184.517 12 184.833 12H195.483C195.8 12 196.025 12.075 196.158 12.225C196.308 12.3583 196.383 12.5833 196.383 12.9V15.925C196.383 16.2417 196.308 16.475 196.158 16.625C196.025 16.7583 195.8 16.825 195.483 16.825H193.058V25.225H195.483C195.8 25.225 196.025 25.3 196.158 25.45C196.308 25.5833 196.383 25.8083 196.383 26.125V29.1C196.383 29.4167 196.308 29.65 196.158 29.8C196.025 29.9333 195.8 30 195.483 30H184.833ZM214.72 25.275C214.72 26.0417 214.603 26.7417 214.37 27.375C214.153 27.9917 213.753 28.525 213.17 28.975C212.603 29.4083 211.812 29.75 210.795 30C209.795 30.25 208.52 30.375 206.97 30.375C205.42 30.375 204.137 30.25 203.12 30C202.103 29.75 201.303 29.4083 200.72 28.975C200.153 28.525 199.753 27.9917 199.52 27.375C199.303 26.7417 199.195 26.0417 199.195 25.275V16.75C199.195 15.9833 199.303 15.2917 199.52 14.675C199.753 14.0417 200.153 13.5 200.72 13.05C201.303 12.6 202.103 12.25 203.12 12C204.137 11.75 205.42 11.625 206.97 11.625C208.52 11.625 209.795 11.75 210.795 12C211.812 12.25 212.603 12.6 213.17 13.05C213.753 13.5 214.153 14.0417 214.37 14.675C214.603 15.2917 214.72 15.9833 214.72 16.75V25.275ZM204.87 24.375C204.87 24.7083 204.995 24.9917 205.245 25.225C205.495 25.4417 206.07 25.55 206.97 25.55C207.87 25.55 208.445 25.4417 208.695 25.225C208.945 24.9917 209.07 24.7083 209.07 24.375V17.65C209.07 17.3333 208.945 17.0667 208.695 16.85C208.445 16.6167 207.87 16.5 206.97 16.5C206.07 16.5 205.495 16.6167 205.245 16.85C204.995 17.0667 204.87 17.3333 204.87 17.65V24.375ZM15.375 60H11.625C11.3083 60 11.075 59.9333 10.925 59.8C10.7917 59.65 10.725 59.4167 10.725 59.1V42.9C10.725 42.5833 10.7917 42.3583 10.925 42.225C11.075 42.075 11.3083 42 11.625 42H14.225C14.5417 42 14.8083 42.05 15.025 42.15C15.2583 42.25 15.4833 42.425 15.7 42.675L20.55 48.225V42.9C20.55 42.5833 20.6167 42.3583 20.75 42.225C20.9 42.075 21.1333 42 21.45 42H25.2C25.5167 42 25.7417 42.075 25.875 42.225C26.025 42.3583 26.1 42.5833 26.1 42.9V59.1C26.1 59.4167 26.025 59.65 25.875 59.8C25.7417 59.9333 25.5167 60 25.2 60H21.45C21.1333 60 20.9 59.9333 20.75 59.8C20.6167 59.65 20.55 59.4167 20.55 59.1V56.025L16.275 50.85V59.1C16.275 59.4167 16.2 59.65 16.05 59.8C15.9167 59.9333 15.6917 60 15.375 60ZM37.8982 60H29.9982C29.6816 60 29.4482 59.9333 29.2982 59.8C29.1649 59.65 29.0982 59.4167 29.0982 59.1V56.175C29.0982 55.8583 29.1649 55.6333 29.2982 55.5C29.4482 55.35 29.6816 55.275 29.9982 55.275H36.7232C36.9399 55.275 37.0982 55.2083 37.1982 55.075C37.3149 54.925 37.3732 54.75 37.3732 54.55C37.3732 54.2667 37.3149 54.0583 37.1982 53.925C37.0982 53.7917 36.9399 53.7167 36.7232 53.7L32.9732 53.175C31.8066 53.0083 30.8649 52.625 30.1482 52.025C29.4482 51.425 29.0982 50.425 29.0982 49.025V46.4C29.0982 44.9833 29.5566 43.9 30.4732 43.15C31.3899 42.3833 32.6566 42 34.2732 42H41.2732C41.5899 42 41.8149 42.075 41.9482 42.225C42.0982 42.3583 42.1732 42.5833 42.1732 42.9V45.875C42.1732 46.1917 42.0982 46.425 41.9482 46.575C41.8149 46.7083 41.5899 46.775 41.2732 46.775H35.4482C35.2316 46.775 35.0649 46.85 34.9482 47C34.8316 47.1333 34.7732 47.3083 34.7732 47.525C34.7732 47.7417 34.8316 47.925 34.9482 48.075C35.0649 48.225 35.2316 48.3083 35.4482 48.325L39.1732 48.825C40.3399 48.9917 41.2816 49.375 41.9982 49.975C42.7149 50.575 43.0732 51.575 43.0732 52.975V55.6C43.0732 57.0167 42.6066 58.1083 41.6732 58.875C40.7566 59.625 39.4982 60 37.8982 60ZM55.133 60H46.708C46.3913 60 46.158 59.9333 46.008 59.8C45.8747 59.65 45.808 59.4167 45.808 59.1V42.9C45.808 42.5833 45.8747 42.3583 46.008 42.225C46.158 42.075 46.3913 42 46.708 42H55.133C57.2163 42 58.758 42.4167 59.758 43.25C60.7747 44.0833 61.283 45.3667 61.283 47.1V54.9C61.283 56.6333 60.7747 57.9167 59.758 58.75C58.758 59.5833 57.2163 60 55.133 60ZM51.483 46.775V55.275H54.458C54.858 55.275 55.1497 55.175 55.333 54.975C55.533 54.775 55.633 54.4667 55.633 54.05V47.975C55.633 47.5583 55.533 47.2583 55.333 47.075C55.1497 46.875 54.858 46.775 54.458 46.775H51.483ZM70.1104 46.5V49.7H71.9854C72.4187 49.7 72.7104 49.5917 72.8604 49.375C73.0104 49.1417 73.0854 48.8583 73.0854 48.525V47.675C73.0854 47.3417 73.0104 47.0667 72.8604 46.85C72.7104 46.6167 72.4187 46.5 71.9854 46.5H70.1104ZM69.2104 60H65.3604C65.0437 60 64.8104 59.9333 64.6604 59.8C64.527 59.65 64.4604 59.4167 64.4604 59.1V42.9C64.4604 42.5833 64.527 42.3583 64.6604 42.225C64.8104 42.075 65.0437 42 65.3604 42H73.6854C75.552 42 76.8354 42.3917 77.5354 43.175C78.252 43.9417 78.6104 44.9417 78.6104 46.175V47.325C78.6104 48.025 78.502 48.625 78.2854 49.125C78.0854 49.6083 77.727 49.9583 77.2104 50.175C78.1104 50.275 78.8354 50.6417 79.3854 51.275C79.952 51.9083 80.2354 52.75 80.2354 53.8V59.1C80.2354 59.4167 80.1604 59.65 80.0104 59.8C79.877 59.9333 79.652 60 79.3354 60H75.4604C75.1437 60 74.9104 59.9333 74.7604 59.8C74.627 59.65 74.5604 59.4167 74.5604 59.1V55.275C74.5604 54.9083 74.4854 54.6417 74.3354 54.475C74.202 54.2917 73.9604 54.2 73.6104 54.2H70.1104V59.1C70.1104 59.4167 70.0354 59.65 69.8854 59.8C69.752 59.9333 69.527 60 69.2104 60ZM95.5395 60H83.9395C83.6228 60 83.3895 59.9333 83.2395 59.8C83.1061 59.65 83.0395 59.4167 83.0395 59.1V42.9C83.0395 42.5833 83.1061 42.3583 83.2395 42.225C83.3895 42.075 83.6228 42 83.9395 42H95.5395C95.8561 42 96.0811 42.075 96.2145 42.225C96.3645 42.3583 96.4395 42.5833 96.4395 42.9V45.825C96.4395 46.1417 96.3645 46.375 96.2145 46.525C96.0811 46.6583 95.8561 46.725 95.5395 46.725H88.6395V48.65H93.5145C93.8311 48.65 94.0561 48.725 94.1895 48.875C94.3395 49.0083 94.4145 49.2333 94.4145 49.55V52.225C94.4145 52.5417 94.3395 52.775 94.1895 52.925C94.0561 53.0583 93.8311 53.125 93.5145 53.125H88.6395V55.275H95.5395C95.8561 55.275 96.0811 55.35 96.2145 55.5C96.3645 55.6333 96.4395 55.8583 96.4395 56.175V59.1C96.4395 59.4167 96.3645 59.65 96.2145 59.8C96.0811 59.9333 95.8561 60 95.5395 60ZM110.047 60H103.547C103.23 60 102.964 59.9417 102.747 59.825C102.547 59.7083 102.389 59.4917 102.272 59.175L99.8219 53.05C99.6719 52.6833 99.5469 52.3667 99.4469 52.1C99.3469 51.8167 99.2635 51.55 99.1969 51.3C99.1302 51.05 99.0802 50.7917 99.0469 50.525C99.0302 50.2417 99.0219 49.9 99.0219 49.5V42.9C99.0219 42.5833 99.0885 42.3583 99.2219 42.225C99.3719 42.075 99.6052 42 99.9219 42H103.897C104.214 42 104.455 42.075 104.622 42.225C104.789 42.3583 104.872 42.5833 104.872 42.9V49.8C104.872 49.9667 104.889 50.1333 104.922 50.3C104.955 50.4667 105.005 50.6417 105.072 50.825L106.247 54.325C106.297 54.4917 106.355 54.6083 106.422 54.675C106.489 54.725 106.589 54.75 106.722 54.75H106.997C107.13 54.75 107.23 54.725 107.297 54.675C107.364 54.6083 107.422 54.4917 107.472 54.325L108.647 50.8C108.714 50.6167 108.764 50.4417 108.797 50.275C108.83 50.1083 108.847 49.9417 108.847 49.775V42.9C108.847 42.5833 108.914 42.3583 109.047 42.225C109.197 42.075 109.43 42 109.747 42H113.672C113.989 42 114.214 42.075 114.347 42.225C114.497 42.3583 114.572 42.5833 114.572 42.9V49.5C114.572 49.9 114.555 50.2417 114.522 50.525C114.505 50.7917 114.464 51.05 114.397 51.3C114.33 51.55 114.247 51.8167 114.147 52.1C114.047 52.3667 113.922 52.6833 113.772 53.05L111.322 59.175C111.205 59.4917 111.039 59.7083 110.822 59.825C110.622 59.9417 110.364 60 110.047 60ZM130.159 60H118.559C118.242 60 118.009 59.9333 117.859 59.8C117.725 59.65 117.659 59.4167 117.659 59.1V42.9C117.659 42.5833 117.725 42.3583 117.859 42.225C118.009 42.075 118.242 42 118.559 42H130.159C130.475 42 130.7 42.075 130.834 42.225C130.984 42.3583 131.059 42.5833 131.059 42.9V45.825C131.059 46.1417 130.984 46.375 130.834 46.525C130.7 46.6583 130.475 46.725 130.159 46.725H123.259V48.65H128.134C128.45 48.65 128.675 48.725 128.809 48.875C128.959 49.0083 129.034 49.2333 129.034 49.55V52.225C129.034 52.5417 128.959 52.775 128.809 52.925C128.675 53.0583 128.45 53.125 128.134 53.125H123.259V55.275H130.159C130.475 55.275 130.7 55.35 130.834 55.5C130.984 55.6333 131.059 55.8583 131.059 56.175V59.1C131.059 59.4167 130.984 59.65 130.834 59.8C130.7 59.9333 130.475 60 130.159 60ZM142.516 60H138.466C138.149 60 137.916 59.9333 137.766 59.8C137.633 59.65 137.566 59.4167 137.566 59.1V46.825H133.891C133.574 46.825 133.341 46.7583 133.191 46.625C133.058 46.475 132.991 46.2417 132.991 45.925V42.9C132.991 42.5833 133.058 42.3583 133.191 42.225C133.341 42.075 133.574 42 133.891 42H147.091C147.408 42 147.633 42.075 147.766 42.225C147.916 42.3583 147.991 42.5833 147.991 42.9V45.925C147.991 46.2417 147.916 46.475 147.766 46.625C147.633 46.7583 147.408 46.825 147.091 46.825H143.416V59.1C143.416 59.4167 143.341 59.65 143.191 59.8C143.058 59.9333 142.833 60 142.516 60ZM15.35 90H11.625C11.3083 90 11.075 89.9333 10.925 89.8C10.7917 89.65 10.725 89.4167 10.725 89.1V72.9C10.725 72.5833 10.7917 72.3583 10.925 72.225C11.075 72.075 11.3083 72 11.625 72H15.65C15.9167 72 16.1333 72.0583 16.3 72.175C16.4833 72.2917 16.65 72.4833 16.8 72.75L19.05 76.825C19.1333 76.975 19.2 77.0833 19.25 77.15C19.3167 77.2167 19.4 77.25 19.5 77.25H19.725C19.825 77.25 19.9 77.2167 19.95 77.15C20.0167 77.0833 20.0917 76.975 20.175 76.825L22.4 72.75C22.55 72.4833 22.7083 72.2917 22.875 72.175C23.0583 72.0583 23.2833 72 23.55 72H27.6C27.9167 72 28.1417 72.075 28.275 72.225C28.425 72.3583 28.5 72.5833 28.5 72.9V89.1C28.5 89.4167 28.425 89.65 28.275 89.8C28.1417 89.9333 27.9167 90 27.6 90H23.75C23.4333 90 23.2 89.9333 23.05 89.8C22.9167 89.65 22.85 89.4167 22.85 89.1V80.3L21.375 83.025C21.225 83.3083 21.0417 83.5167 20.825 83.65C20.625 83.7667 20.3667 83.825 20.05 83.825H19.05C18.7333 83.825 18.4667 83.7667 18.25 83.65C18.05 83.5167 17.875 83.3083 17.725 83.025L16.25 80.3V89.1C16.25 89.4167 16.175 89.65 16.025 89.8C15.8917 89.9333 15.6667 90 15.35 90ZM47.2658 85.275C47.2658 86.0417 47.1492 86.7417 46.9158 87.375C46.6992 87.9917 46.2992 88.525 45.7158 88.975C45.1492 89.4083 44.3658 89.75 43.3658 90C42.3658 90.25 41.0908 90.375 39.5408 90.375C37.9908 90.375 36.7158 90.25 35.7158 90C34.7158 89.75 33.9242 89.4083 33.3408 88.975C32.7742 88.525 32.3742 87.9917 32.1408 87.375C31.9242 86.7417 31.8158 86.0417 31.8158 85.275V72.9C31.8158 72.5833 31.8825 72.3583 32.0158 72.225C32.1658 72.075 32.3992 72 32.7158 72H36.6408C36.9575 72 37.1825 72.075 37.3158 72.225C37.4658 72.3583 37.5408 72.5833 37.5408 72.9V84.3C37.5408 84.6333 37.6658 84.9167 37.9158 85.15C38.1658 85.3667 38.7242 85.475 39.5908 85.475C40.4742 85.475 41.0408 85.3667 41.2908 85.15C41.5408 84.9167 41.6658 84.6333 41.6658 84.3V72.9C41.6658 72.5833 41.7325 72.3583 41.8658 72.225C42.0158 72.075 42.2492 72 42.5658 72H46.3658C46.6825 72 46.9075 72.075 47.0408 72.225C47.1908 72.3583 47.2658 72.5833 47.2658 72.9V85.275ZM58.9432 90H51.0432C50.7265 90 50.4932 89.9333 50.3432 89.8C50.2098 89.65 50.1432 89.4167 50.1432 89.1V86.175C50.1432 85.8583 50.2098 85.6333 50.3432 85.5C50.4932 85.35 50.7265 85.275 51.0432 85.275H57.7682C57.9848 85.275 58.1432 85.2083 58.2432 85.075C58.3598 84.925 58.4182 84.75 58.4182 84.55C58.4182 84.2667 58.3598 84.0583 58.2432 83.925C58.1432 83.7917 57.9848 83.7167 57.7682 83.7L54.0182 83.175C52.8515 83.0083 51.9098 82.625 51.1932 82.025C50.4932 81.425 50.1432 80.425 50.1432 79.025V76.4C50.1432 74.9833 50.6015 73.9 51.5182 73.15C52.4348 72.3833 53.7015 72 55.3182 72H62.3182C62.6348 72 62.8598 72.075 62.9932 72.225C63.1432 72.3583 63.2182 72.5833 63.2182 72.9V75.875C63.2182 76.1917 63.1432 76.425 62.9932 76.575C62.8598 76.7083 62.6348 76.775 62.3182 76.775H56.4932C56.2765 76.775 56.1098 76.85 55.9932 77C55.8765 77.1333 55.8182 77.3083 55.8182 77.525C55.8182 77.7417 55.8765 77.925 55.9932 78.075C56.1098 78.225 56.2765 78.3083 56.4932 78.325L60.2182 78.825C61.3848 78.9917 62.3265 79.375 63.0432 79.975C63.7598 80.575 64.1182 81.575 64.1182 82.975V85.6C64.1182 87.0167 63.6515 88.1083 62.7182 88.875C61.8015 89.625 60.5432 90 58.9432 90ZM67.3529 90C67.0363 90 66.8029 89.9333 66.6529 89.8C66.5196 89.65 66.4529 89.4167 66.4529 89.1V86.125C66.4529 85.8083 66.5196 85.5833 66.6529 85.45C66.8029 85.3 67.0363 85.225 67.3529 85.225H69.8279V76.825H67.3529C67.0363 76.825 66.8029 76.7583 66.6529 76.625C66.5196 76.475 66.4529 76.2417 66.4529 75.925V72.9C66.4529 72.5833 66.5196 72.3583 66.6529 72.225C66.8029 72.075 67.0363 72 67.3529 72H78.0029C78.3196 72 78.5446 72.075 78.6779 72.225C78.8279 72.3583 78.9029 72.5833 78.9029 72.9V75.925C78.9029 76.2417 78.8279 76.475 78.6779 76.625C78.5446 76.7583 78.3196 76.825 78.0029 76.825H75.5779V85.225H78.0029C78.3196 85.225 78.5446 85.3 78.6779 85.45C78.8279 85.5833 78.9029 85.8083 78.9029 86.125V89.1C78.9029 89.4167 78.8279 89.65 78.6779 89.8C78.5446 89.9333 78.3196 90 78.0029 90H67.3529ZM86.7646 90H82.8896C82.573 90 82.3396 89.9333 82.1896 89.8C82.0563 89.65 81.9896 89.4167 81.9896 89.1V72.9C81.9896 72.5833 82.0563 72.3583 82.1896 72.225C82.3396 72.075 82.573 72 82.8896 72H86.7646C87.0813 72 87.3063 72.075 87.4396 72.225C87.5896 72.3583 87.6646 72.5833 87.6646 72.9V78.65H88.6646L91.2396 72.825C91.3563 72.525 91.5146 72.3167 91.7146 72.2C91.9146 72.0667 92.173 72 92.4896 72H96.3396C96.623 72 96.8146 72.075 96.9146 72.225C97.0146 72.3583 97.0063 72.5583 96.8896 72.825L94.3396 78.65C95.273 78.7 96.0146 79.0333 96.5646 79.65C97.1313 80.25 97.4146 81.05 97.4146 82.05V89.1C97.4146 89.4167 97.3396 89.65 97.1896 89.8C97.0563 89.9333 96.8313 90 96.5146 90H92.6646C92.348 90 92.1146 89.9333 91.9646 89.8C91.8313 89.65 91.7646 89.4167 91.7646 89.1V84.225C91.7646 83.9583 91.698 83.75 91.5646 83.6C91.4313 83.45 91.2313 83.375 90.9646 83.375H87.6646V89.1C87.6646 89.4167 87.5896 89.65 87.4396 89.8C87.3063 89.9333 87.0813 90 86.7646 90ZM110.882 90H107.157C106.841 90 106.607 89.9333 106.457 89.8C106.324 89.65 106.257 89.4167 106.257 89.1V72.9C106.257 72.5833 106.324 72.3583 106.457 72.225C106.607 72.075 106.841 72 107.157 72H111.182C111.449 72 111.666 72.0583 111.832 72.175C112.016 72.2917 112.182 72.4833 112.332 72.75L114.582 76.825C114.666 76.975 114.732 77.0833 114.782 77.15C114.849 77.2167 114.932 77.25 115.032 77.25H115.257C115.357 77.25 115.432 77.2167 115.482 77.15C115.549 77.0833 115.624 76.975 115.707 76.825L117.932 72.75C118.082 72.4833 118.241 72.2917 118.407 72.175C118.591 72.0583 118.816 72 119.082 72H123.132C123.449 72 123.674 72.075 123.807 72.225C123.957 72.3583 124.032 72.5833 124.032 72.9V89.1C124.032 89.4167 123.957 89.65 123.807 89.8C123.674 89.9333 123.449 90 123.132 90H119.282C118.966 90 118.732 89.9333 118.582 89.8C118.449 89.65 118.382 89.4167 118.382 89.1V80.3L116.907 83.025C116.757 83.3083 116.574 83.5167 116.357 83.65C116.157 83.7667 115.899 83.825 115.582 83.825H114.582C114.266 83.825 113.999 83.7667 113.782 83.65C113.582 83.5167 113.407 83.3083 113.257 83.025L111.782 80.3V89.1C111.782 89.4167 111.707 89.65 111.557 89.8C111.424 89.9333 111.199 90 110.882 90ZM139.973 90H128.373C128.056 90 127.823 89.9333 127.673 89.8C127.54 89.65 127.473 89.4167 127.473 89.1V72.9C127.473 72.5833 127.54 72.3583 127.673 72.225C127.823 72.075 128.056 72 128.373 72H139.973C140.29 72 140.515 72.075 140.648 72.225C140.798 72.3583 140.873 72.5833 140.873 72.9V75.825C140.873 76.1417 140.798 76.375 140.648 76.525C140.515 76.6583 140.29 76.725 139.973 76.725H133.073V78.65H137.948C138.265 78.65 138.49 78.725 138.623 78.875C138.773 79.0083 138.848 79.2333 138.848 79.55V82.225C138.848 82.5417 138.773 82.775 138.623 82.925C138.49 83.0583 138.265 83.125 137.948 83.125H133.073V85.275H139.973C140.29 85.275 140.515 85.35 140.648 85.5C140.798 85.6333 140.873 85.8583 140.873 86.175V89.1C140.873 89.4167 140.798 89.65 140.648 89.8C140.515 89.9333 140.29 90 139.973 90ZM153.155 90H144.73C144.414 90 144.18 89.9333 144.03 89.8C143.897 89.65 143.83 89.4167 143.83 89.1V72.9C143.83 72.5833 143.897 72.3583 144.03 72.225C144.18 72.075 144.414 72 144.73 72H153.155C155.239 72 156.78 72.4167 157.78 73.25C158.797 74.0833 159.305 75.3667 159.305 77.1V84.9C159.305 86.6333 158.797 87.9167 157.78 88.75C156.78 89.5833 155.239 90 153.155 90ZM149.505 76.775V85.275H152.48C152.88 85.275 153.172 85.175 153.355 84.975C153.555 84.775 153.655 84.4667 153.655 84.05V77.975C153.655 77.5583 153.555 77.2583 153.355 77.075C153.172 76.875 152.88 76.775 152.48 76.775H149.505ZM15.5 120H11.625C11.3083 120 11.075 119.933 10.925 119.8C10.7917 119.65 10.725 119.417 10.725 119.1V102.9C10.725 102.583 10.7917 102.358 10.925 102.225C11.075 102.075 11.3083 102 11.625 102H15.5C15.8167 102 16.0417 102.075 16.175 102.225C16.325 102.358 16.4 102.583 16.4 102.9V108.65H17.4L19.975 102.825C20.0917 102.525 20.25 102.317 20.45 102.2C20.65 102.067 20.9083 102 21.225 102H25.075C25.3583 102 25.55 102.075 25.65 102.225C25.75 102.358 25.7417 102.558 25.625 102.825L23.075 108.65C24.0083 108.7 24.75 109.033 25.3 109.65C25.8667 110.25 26.15 111.05 26.15 112.05V119.1C26.15 119.417 26.075 119.65 25.925 119.8C25.7917 119.933 25.5667 120 25.25 120H21.4C21.0833 120 20.85 119.933 20.7 119.8C20.5667 119.65 20.5 119.417 20.5 119.1V114.225C20.5 113.958 20.4333 113.75 20.3 113.6C20.1667 113.45 19.9667 113.375 19.7 113.375H16.4V119.1C16.4 119.417 16.325 119.65 16.175 119.8C16.0417 119.933 15.8167 120 15.5 120ZM44.6273 115.275C44.6273 116.042 44.5107 116.742 44.2773 117.375C44.0607 117.992 43.6607 118.525 43.0773 118.975C42.5107 119.408 41.719 119.75 40.7023 120C39.7023 120.25 38.4273 120.375 36.8773 120.375C35.3273 120.375 34.044 120.25 33.0273 120C32.0107 119.75 31.2107 119.408 30.6273 118.975C30.0607 118.525 29.6607 117.992 29.4273 117.375C29.2107 116.742 29.1023 116.042 29.1023 115.275V106.75C29.1023 105.983 29.2107 105.292 29.4273 104.675C29.6607 104.042 30.0607 103.5 30.6273 103.05C31.2107 102.6 32.0107 102.25 33.0273 102C34.044 101.75 35.3273 101.625 36.8773 101.625C38.4273 101.625 39.7023 101.75 40.7023 102C41.719 102.25 42.5107 102.6 43.0773 103.05C43.6607 103.5 44.0607 104.042 44.2773 104.675C44.5107 105.292 44.6273 105.983 44.6273 106.75V115.275ZM34.7773 114.375C34.7773 114.708 34.9023 114.992 35.1523 115.225C35.4023 115.442 35.9773 115.55 36.8773 115.55C37.7773 115.55 38.3523 115.442 38.6023 115.225C38.8523 114.992 38.9773 114.708 38.9773 114.375V107.65C38.9773 107.333 38.8523 107.067 38.6023 106.85C38.3523 106.617 37.7773 106.5 36.8773 106.5C35.9773 106.5 35.4023 106.617 35.1523 106.85C34.9023 107.067 34.7773 107.333 34.7773 107.65V114.375ZM52.435 120H48.71C48.3933 120 48.16 119.933 48.01 119.8C47.8766 119.65 47.81 119.417 47.81 119.1V102.9C47.81 102.583 47.8766 102.358 48.01 102.225C48.16 102.075 48.3933 102 48.71 102H52.735C53.0016 102 53.2183 102.058 53.385 102.175C53.5683 102.292 53.735 102.483 53.885 102.75L56.135 106.825C56.2183 106.975 56.285 107.083 56.335 107.15C56.4016 107.217 56.485 107.25 56.585 107.25H56.81C56.91 107.25 56.985 107.217 57.035 107.15C57.1016 107.083 57.1766 106.975 57.26 106.825L59.485 102.75C59.635 102.483 59.7933 102.292 59.96 102.175C60.1433 102.058 60.3683 102 60.635 102H64.685C65.0016 102 65.2266 102.075 65.36 102.225C65.51 102.358 65.585 102.583 65.585 102.9V119.1C65.585 119.417 65.51 119.65 65.36 119.8C65.2266 119.933 65.0016 120 64.685 120H60.835C60.5183 120 60.285 119.933 60.135 119.8C60.0016 119.65 59.935 119.417 59.935 119.1V110.3L58.46 113.025C58.31 113.308 58.1266 113.517 57.91 113.65C57.71 113.767 57.4516 113.825 57.135 113.825H56.135C55.8183 113.825 55.5516 113.767 55.335 113.65C55.135 113.517 54.96 113.308 54.81 113.025L53.335 110.3V119.1C53.335 119.417 53.26 119.65 53.11 119.8C52.9766 119.933 52.7516 120 52.435 120ZM73.8008 120H69.9258C69.6091 120 69.3758 119.933 69.2258 119.8C69.0924 119.65 69.0258 119.417 69.0258 119.1V102.9C69.0258 102.583 69.0924 102.358 69.2258 102.225C69.3758 102.075 69.6091 102 69.9258 102H77.5758C79.8424 102 81.3924 102.45 82.2258 103.35C83.0591 104.25 83.4758 105.425 83.4758 106.875V110.075C83.4758 111.525 83.0591 112.7 82.2258 113.6C81.3924 114.5 79.8424 114.95 77.5758 114.95H74.7008V119.1C74.7008 119.417 74.6258 119.65 74.4758 119.8C74.3424 119.933 74.1174 120 73.8008 120ZM74.6508 106.675V110.45H76.9008C77.3841 110.45 77.7008 110.325 77.8508 110.075C78.0008 109.825 78.0758 109.542 78.0758 109.225V107.9C78.0758 107.583 78.0008 107.3 77.8508 107.05C77.7008 106.8 77.3841 106.675 76.9008 106.675H74.6508ZM99.6918 120H86.9668C86.6501 120 86.4168 119.933 86.2668 119.8C86.1335 119.65 86.0668 119.417 86.0668 119.1V102.9C86.0668 102.583 86.1335 102.358 86.2668 102.225C86.4168 102.075 86.6501 102 86.9668 102H90.8418C91.1585 102 91.3835 102.075 91.5168 102.225C91.6668 102.358 91.7418 102.583 91.7418 102.9V115.275H95.1668V111.225C95.1668 110.908 95.2335 110.683 95.3668 110.55C95.5168 110.4 95.7501 110.325 96.0668 110.325H99.6918C100.008 110.325 100.233 110.4 100.367 110.55C100.517 110.683 100.592 110.908 100.592 111.225V119.1C100.592 119.417 100.517 119.65 100.367 119.8C100.233 119.933 100.008 120 99.6918 120ZM115.95 120H104.35C104.033 120 103.8 119.933 103.65 119.8C103.516 119.65 103.45 119.417 103.45 119.1V102.9C103.45 102.583 103.516 102.358 103.65 102.225C103.8 102.075 104.033 102 104.35 102H115.95C116.266 102 116.491 102.075 116.625 102.225C116.775 102.358 116.85 102.583 116.85 102.9V105.825C116.85 106.142 116.775 106.375 116.625 106.525C116.491 106.658 116.266 106.725 115.95 106.725H109.05V108.65H113.925C114.241 108.65 114.466 108.725 114.6 108.875C114.75 109.008 114.825 109.233 114.825 109.55V112.225C114.825 112.542 114.75 112.775 114.6 112.925C114.466 113.058 114.241 113.125 113.925 113.125H109.05V115.275H115.95C116.266 115.275 116.491 115.35 116.625 115.5C116.775 115.633 116.85 115.858 116.85 116.175V119.1C116.85 119.417 116.775 119.65 116.625 119.8C116.491 119.933 116.266 120 115.95 120ZM124.582 120H120.707C120.39 120 120.157 119.933 120.007 119.8C119.874 119.65 119.807 119.417 119.807 119.1V102.9C119.807 102.583 119.874 102.358 120.007 102.225C120.157 102.075 120.39 102 120.707 102H124.582C124.899 102 125.124 102.075 125.257 102.225C125.407 102.358 125.482 102.583 125.482 102.9V108.65H126.482L129.057 102.825C129.174 102.525 129.332 102.317 129.532 102.2C129.732 102.067 129.99 102 130.307 102H134.157C134.44 102 134.632 102.075 134.732 102.225C134.832 102.358 134.824 102.558 134.707 102.825L132.157 108.65C133.09 108.7 133.832 109.033 134.382 109.65C134.949 110.25 135.232 111.05 135.232 112.05V119.1C135.232 119.417 135.157 119.65 135.007 119.8C134.874 119.933 134.649 120 134.332 120H130.482C130.165 120 129.932 119.933 129.782 119.8C129.649 119.65 129.582 119.417 129.582 119.1V114.225C129.582 113.958 129.515 113.75 129.382 113.6C129.249 113.45 129.049 113.375 128.782 113.375H125.482V119.1C125.482 119.417 125.407 119.65 125.257 119.8C125.124 119.933 124.899 120 124.582 120ZM146.809 120H138.909C138.593 120 138.359 119.933 138.209 119.8C138.076 119.65 138.009 119.417 138.009 119.1V116.175C138.009 115.858 138.076 115.633 138.209 115.5C138.359 115.35 138.593 115.275 138.909 115.275H145.634C145.851 115.275 146.009 115.208 146.109 115.075C146.226 114.925 146.284 114.75 146.284 114.55C146.284 114.267 146.226 114.058 146.109 113.925C146.009 113.792 145.851 113.717 145.634 113.7L141.884 113.175C140.718 113.008 139.776 112.625 139.059 112.025C138.359 111.425 138.009 110.425 138.009 109.025V106.4C138.009 104.983 138.468 103.9 139.384 103.15C140.301 102.383 141.568 102 143.184 102H150.184C150.501 102 150.726 102.075 150.859 102.225C151.009 102.358 151.084 102.583 151.084 102.9V105.875C151.084 106.192 151.009 106.425 150.859 106.575C150.726 106.708 150.501 106.775 150.184 106.775H144.359C144.143 106.775 143.976 106.85 143.859 107C143.743 107.133 143.684 107.308 143.684 107.525C143.684 107.742 143.743 107.925 143.859 108.075C143.976 108.225 144.143 108.308 144.359 108.325L148.084 108.825C149.251 108.992 150.193 109.375 150.909 109.975C151.626 110.575 151.984 111.575 151.984 112.975V115.6C151.984 117.017 151.518 118.108 150.584 118.875C149.668 119.625 148.409 120 146.809 120ZM167.219 120H155.619C155.302 120 155.069 119.933 154.919 119.8C154.786 119.65 154.719 119.417 154.719 119.1V102.9C154.719 102.583 154.786 102.358 154.919 102.225C155.069 102.075 155.302 102 155.619 102H167.219C167.536 102 167.761 102.075 167.894 102.225C168.044 102.358 168.119 102.583 168.119 102.9V105.825C168.119 106.142 168.044 106.375 167.894 106.525C167.761 106.658 167.536 106.725 167.219 106.725H160.319V108.65H165.194C165.511 108.65 165.736 108.725 165.869 108.875C166.019 109.008 166.094 109.233 166.094 109.55V112.225C166.094 112.542 166.019 112.775 165.869 112.925C165.736 113.058 165.511 113.125 165.194 113.125H160.319V115.275H167.219C167.536 115.275 167.761 115.35 167.894 115.5C168.044 115.633 168.119 115.858 168.119 116.175V119.1C168.119 119.417 168.044 119.65 167.894 119.8C167.761 119.933 167.536 120 167.219 120ZM15.5 150H11.625C11.3083 150 11.075 149.933 10.925 149.8C10.7917 149.65 10.725 149.417 10.725 149.1V132.9C10.725 132.583 10.7917 132.358 10.925 132.225C11.075 132.075 11.3083 132 11.625 132H15.5C15.8167 132 16.0417 132.075 16.175 132.225C16.325 132.358 16.4 132.583 16.4 132.9V138.325H20.575V132.9C20.575 132.583 20.6417 132.358 20.775 132.225C20.925 132.075 21.1583 132 21.475 132H25.35C25.6667 132 25.8917 132.075 26.025 132.225C26.175 132.358 26.25 132.583 26.25 132.9V149.1C26.25 149.417 26.175 149.65 26.025 149.8C25.8917 149.933 25.6667 150 25.35 150H21.475C21.1583 150 20.925 149.933 20.775 149.8C20.6417 149.65 20.575 149.417 20.575 149.1V143.55H16.4V149.1C16.4 149.417 16.325 149.65 16.175 149.8C16.0417 149.933 15.8167 150 15.5 150ZM36.2197 137.25L35.0447 141.05H38.9697L37.7947 137.25C37.7281 137.1 37.6531 136.992 37.5697 136.925C37.5031 136.858 37.4197 136.825 37.3197 136.825H36.6947C36.5947 136.825 36.5031 136.858 36.4197 136.925C36.3531 136.992 36.2864 137.1 36.2197 137.25ZM34.7947 149.1C34.7947 149.417 34.7197 149.65 34.5697 149.8C34.4364 149.933 34.2114 150 33.8947 150H30.2197C29.9031 150 29.6697 149.933 29.5197 149.8C29.3864 149.65 29.3197 149.417 29.3197 149.1V142.5C29.3197 142 29.3947 141.425 29.5447 140.775C29.7114 140.125 29.9614 139.367 30.2947 138.5L32.4697 132.825C32.5697 132.542 32.7197 132.333 32.9197 132.2C33.1364 132.067 33.4114 132 33.7447 132H40.4697C40.7864 132 41.0447 132.067 41.2447 132.2C41.4614 132.333 41.6197 132.542 41.7197 132.825L43.8947 138.5C44.2281 139.367 44.4697 140.125 44.6197 140.775C44.7864 141.425 44.8697 142 44.8697 142.5V149.1C44.8697 149.417 44.7947 149.65 44.6447 149.8C44.5114 149.933 44.2864 150 43.9697 150H40.1947C39.8614 150 39.6114 149.933 39.4447 149.8C39.2947 149.65 39.2197 149.417 39.2197 149.1V145.6H34.7947V149.1ZM53.6064 136.5V139.7H55.4814C55.9148 139.7 56.2064 139.592 56.3564 139.375C56.5064 139.142 56.5814 138.858 56.5814 138.525V137.675C56.5814 137.342 56.5064 137.067 56.3564 136.85C56.2064 136.617 55.9148 136.5 55.4814 136.5H53.6064ZM52.7064 150H48.8564C48.5398 150 48.3064 149.933 48.1564 149.8C48.0231 149.65 47.9564 149.417 47.9564 149.1V132.9C47.9564 132.583 48.0231 132.358 48.1564 132.225C48.3064 132.075 48.5398 132 48.8564 132H57.1814C59.0481 132 60.3314 132.392 61.0314 133.175C61.7481 133.942 62.1064 134.942 62.1064 136.175V137.325C62.1064 138.025 61.9981 138.625 61.7814 139.125C61.5814 139.608 61.2231 139.958 60.7064 140.175C61.6064 140.275 62.3314 140.642 62.8814 141.275C63.4481 141.908 63.7314 142.75 63.7314 143.8V149.1C63.7314 149.417 63.6564 149.65 63.5064 149.8C63.3731 149.933 63.1481 150 62.8314 150H58.9564C58.6398 150 58.4064 149.933 58.2564 149.8C58.1231 149.65 58.0564 149.417 58.0564 149.1V145.275C58.0564 144.908 57.9814 144.642 57.8314 144.475C57.6981 144.292 57.4564 144.2 57.1064 144.2H53.6064V149.1C53.6064 149.417 53.5314 149.65 53.3814 149.8C53.2481 149.933 53.0231 150 52.7064 150ZM71.1605 150H67.4355C67.1189 150 66.8855 149.933 66.7355 149.8C66.6022 149.65 66.5355 149.417 66.5355 149.1V132.9C66.5355 132.583 66.6022 132.358 66.7355 132.225C66.8855 132.075 67.1189 132 67.4355 132H71.4605C71.7272 132 71.9439 132.058 72.1105 132.175C72.2939 132.292 72.4605 132.483 72.6105 132.75L74.8605 136.825C74.9439 136.975 75.0105 137.083 75.0605 137.15C75.1272 137.217 75.2105 137.25 75.3105 137.25H75.5355C75.6355 137.25 75.7105 137.217 75.7605 137.15C75.8272 137.083 75.9022 136.975 75.9855 136.825L78.2105 132.75C78.3605 132.483 78.5189 132.292 78.6855 132.175C78.8689 132.058 79.0939 132 79.3605 132H83.4105C83.7272 132 83.9522 132.075 84.0855 132.225C84.2355 132.358 84.3105 132.583 84.3105 132.9V149.1C84.3105 149.417 84.2355 149.65 84.0855 149.8C83.9522 149.933 83.7272 150 83.4105 150H79.5605C79.2439 150 79.0105 149.933 78.8605 149.8C78.7272 149.65 78.6605 149.417 78.6605 149.1V140.3L77.1855 143.025C77.0355 143.308 76.8522 143.517 76.6355 143.65C76.4355 143.767 76.1772 143.825 75.8605 143.825H74.8605C74.5439 143.825 74.2772 143.767 74.0605 143.65C73.8605 143.517 73.6855 143.308 73.5355 143.025L72.0605 140.3V149.1C72.0605 149.417 71.9855 149.65 71.8355 149.8C71.7022 149.933 71.4772 150 71.1605 150ZM103.001 145.275C103.001 146.042 102.885 146.742 102.651 147.375C102.435 147.992 102.035 148.525 101.451 148.975C100.885 149.408 100.093 149.75 99.0764 150C98.0764 150.25 96.8014 150.375 95.2514 150.375C93.7014 150.375 92.418 150.25 91.4014 150C90.3847 149.75 89.5847 149.408 89.0014 148.975C88.4347 148.525 88.0347 147.992 87.8014 147.375C87.5847 146.742 87.4764 146.042 87.4764 145.275V136.75C87.4764 135.983 87.5847 135.292 87.8014 134.675C88.0347 134.042 88.4347 133.5 89.0014 133.05C89.5847 132.6 90.3847 132.25 91.4014 132C92.418 131.75 93.7014 131.625 95.2514 131.625C96.8014 131.625 98.0764 131.75 99.0764 132C100.093 132.25 100.885 132.6 101.451 133.05C102.035 133.5 102.435 134.042 102.651 134.675C102.885 135.292 103.001 135.983 103.001 136.75V145.275ZM93.1514 144.375C93.1514 144.708 93.2764 144.992 93.5264 145.225C93.7764 145.442 94.3514 145.55 95.2514 145.55C96.1514 145.55 96.7264 145.442 96.9764 145.225C97.2264 144.992 97.3514 144.708 97.3514 144.375V137.65C97.3514 137.333 97.2264 137.067 96.9764 136.85C96.7264 136.617 96.1514 136.5 95.2514 136.5C94.3514 136.5 93.7764 136.617 93.5264 136.85C93.2764 137.067 93.1514 137.333 93.1514 137.65V144.375ZM110.834 150H107.084C106.767 150 106.534 149.933 106.384 149.8C106.251 149.65 106.184 149.417 106.184 149.1V132.9C106.184 132.583 106.251 132.358 106.384 132.225C106.534 132.075 106.767 132 107.084 132H109.684C110.001 132 110.267 132.05 110.484 132.15C110.717 132.25 110.942 132.425 111.159 132.675L116.009 138.225V132.9C116.009 132.583 116.076 132.358 116.209 132.225C116.359 132.075 116.592 132 116.909 132H120.659C120.976 132 121.201 132.075 121.334 132.225C121.484 132.358 121.559 132.583 121.559 132.9V149.1C121.559 149.417 121.484 149.65 121.334 149.8C121.201 149.933 120.976 150 120.659 150H116.909C116.592 150 116.359 149.933 116.209 149.8C116.076 149.65 116.009 149.417 116.009 149.1V146.025L111.734 140.85V149.1C111.734 149.417 111.659 149.65 111.509 149.8C111.376 149.933 111.151 150 110.834 150ZM125.507 150C125.191 150 124.957 149.933 124.807 149.8C124.674 149.65 124.607 149.417 124.607 149.1V146.125C124.607 145.808 124.674 145.583 124.807 145.45C124.957 145.3 125.191 145.225 125.507 145.225H127.982V136.825H125.507C125.191 136.825 124.957 136.758 124.807 136.625C124.674 136.475 124.607 136.242 124.607 135.925V132.9C124.607 132.583 124.674 132.358 124.807 132.225C124.957 132.075 125.191 132 125.507 132H136.157C136.474 132 136.699 132.075 136.832 132.225C136.982 132.358 137.057 132.583 137.057 132.9V135.925C137.057 136.242 136.982 136.475 136.832 136.625C136.699 136.758 136.474 136.825 136.157 136.825H133.732V145.225H136.157C136.474 145.225 136.699 145.3 136.832 145.45C136.982 145.583 137.057 145.808 137.057 146.125V149.1C137.057 149.417 136.982 149.65 136.832 149.8C136.699 149.933 136.474 150 136.157 150H125.507ZM152.644 150H141.044C140.727 150 140.494 149.933 140.344 149.8C140.211 149.65 140.144 149.417 140.144 149.1V132.9C140.144 132.583 140.211 132.358 140.344 132.225C140.494 132.075 140.727 132 141.044 132H152.644C152.961 132 153.186 132.075 153.319 132.225C153.469 132.358 153.544 132.583 153.544 132.9V135.825C153.544 136.142 153.469 136.375 153.319 136.525C153.186 136.658 152.961 136.725 152.644 136.725H145.744V138.65H150.619C150.936 138.65 151.161 138.725 151.294 138.875C151.444 139.008 151.519 139.233 151.519 139.55V142.225C151.519 142.542 151.444 142.775 151.294 142.925C151.161 143.058 150.936 143.125 150.619 143.125H145.744V145.275H152.644C152.961 145.275 153.186 145.35 153.319 145.5C153.469 145.633 153.544 145.858 153.544 146.175V149.1C153.544 149.417 153.469 149.65 153.319 149.8C153.186 149.933 152.961 150 152.644 150ZM162.151 136.5V139.7H164.026C164.46 139.7 164.751 139.592 164.901 139.375C165.051 139.142 165.126 138.858 165.126 138.525V137.675C165.126 137.342 165.051 137.067 164.901 136.85C164.751 136.617 164.46 136.5 164.026 136.5H162.151ZM161.251 150H157.401C157.085 150 156.851 149.933 156.701 149.8C156.568 149.65 156.501 149.417 156.501 149.1V132.9C156.501 132.583 156.568 132.358 156.701 132.225C156.851 132.075 157.085 132 157.401 132H165.726C167.593 132 168.876 132.392 169.576 133.175C170.293 133.942 170.651 134.942 170.651 136.175V137.325C170.651 138.025 170.543 138.625 170.326 139.125C170.126 139.608 169.768 139.958 169.251 140.175C170.151 140.275 170.876 140.642 171.426 141.275C171.993 141.908 172.276 142.75 172.276 143.8V149.1C172.276 149.417 172.201 149.65 172.051 149.8C171.918 149.933 171.693 150 171.376 150H167.501C167.185 150 166.951 149.933 166.801 149.8C166.668 149.65 166.601 149.417 166.601 149.1V145.275C166.601 144.908 166.526 144.642 166.376 144.475C166.243 144.292 166.001 144.2 165.651 144.2H162.151V149.1C162.151 149.417 162.076 149.65 161.926 149.8C161.793 149.933 161.568 150 161.251 150ZM195.946 145.275C195.946 146.042 195.829 146.742 195.596 147.375C195.379 147.992 194.979 148.525 194.396 148.975C193.829 149.408 193.037 149.75 192.021 150C191.021 150.25 189.746 150.375 188.196 150.375C186.646 150.375 185.362 150.25 184.346 150C183.329 149.75 182.529 149.408 181.946 148.975C181.379 148.525 180.979 147.992 180.746 147.375C180.529 146.742 180.421 146.042 180.421 145.275V136.75C180.421 135.983 180.529 135.292 180.746 134.675C180.979 134.042 181.379 133.5 181.946 133.05C182.529 132.6 183.329 132.25 184.346 132C185.362 131.75 186.646 131.625 188.196 131.625C189.746 131.625 191.021 131.75 192.021 132C193.037 132.25 193.829 132.6 194.396 133.05C194.979 133.5 195.379 134.042 195.596 134.675C195.829 135.292 195.946 135.983 195.946 136.75V145.275ZM186.096 144.375C186.096 144.708 186.221 144.992 186.471 145.225C186.721 145.442 187.296 145.55 188.196 145.55C189.096 145.55 189.671 145.442 189.921 145.225C190.171 144.992 190.296 144.708 190.296 144.375V137.65C190.296 137.333 190.171 137.067 189.921 136.85C189.671 136.617 189.096 136.5 188.196 136.5C187.296 136.5 186.721 136.617 186.471 136.85C186.221 137.067 186.096 137.333 186.096 137.65V144.375ZM212.878 150H205.003C202.92 150 201.37 149.583 200.353 148.75C199.353 147.917 198.853 146.633 198.853 144.9V137.1C198.853 135.367 199.353 134.083 200.353 133.25C201.37 132.417 202.92 132 205.003 132H211.253C211.57 132 211.795 132.075 211.928 132.225C212.078 132.358 212.153 132.583 212.153 132.9V135.925C212.153 136.242 212.078 136.475 211.928 136.625C211.795 136.758 211.57 136.825 211.253 136.825H206.053C205.537 136.825 205.153 136.933 204.903 137.15C204.653 137.35 204.528 137.658 204.528 138.075V144.05C204.528 144.467 204.62 144.775 204.803 144.975C205.003 145.175 205.295 145.275 205.678 145.275H208.103V141.375C208.103 141.058 208.17 140.833 208.303 140.7C208.453 140.55 208.687 140.475 209.003 140.475H212.878C213.195 140.475 213.42 140.55 213.553 140.7C213.703 140.833 213.778 141.058 213.778 141.375V149.1C213.778 149.417 213.703 149.65 213.553 149.8C213.42 149.933 213.195 150 212.878 150ZM23.225 180H11.625C11.3083 180 11.075 179.933 10.925 179.8C10.7917 179.65 10.725 179.417 10.725 179.1V162.9C10.725 162.583 10.7917 162.358 10.925 162.225C11.075 162.075 11.3083 162 11.625 162H23.225C23.5417 162 23.7667 162.075 23.9 162.225C24.05 162.358 24.125 162.583 24.125 162.9V165.825C24.125 166.142 24.05 166.375 23.9 166.525C23.7667 166.658 23.5417 166.725 23.225 166.725H16.325V168.65H21.2C21.5167 168.65 21.7417 168.725 21.875 168.875C22.025 169.008 22.1 169.233 22.1 169.55V172.225C22.1 172.542 22.025 172.775 21.875 172.925C21.7417 173.058 21.5167 173.125 21.2 173.125H16.325V175.275H23.225C23.5417 175.275 23.7667 175.35 23.9 175.5C24.05 175.633 24.125 175.858 24.125 176.175V179.1C24.125 179.417 24.05 179.65 23.9 179.8C23.7667 179.933 23.5417 180 23.225 180ZM31.8574 180H27.9824C27.6658 180 27.4324 179.933 27.2824 179.8C27.1491 179.65 27.0824 179.417 27.0824 179.1V162.9C27.0824 162.583 27.1491 162.358 27.2824 162.225C27.4324 162.075 27.6658 162 27.9824 162H31.8574C32.1741 162 32.3991 162.075 32.5324 162.225C32.6824 162.358 32.7574 162.583 32.7574 162.9V168.65H33.7574L36.3324 162.825C36.4491 162.525 36.6074 162.317 36.8074 162.2C37.0074 162.067 37.2658 162 37.5824 162H41.4324C41.7158 162 41.9074 162.075 42.0074 162.225C42.1074 162.358 42.0991 162.558 41.9824 162.825L39.4324 168.65C40.3658 168.7 41.1074 169.033 41.6574 169.65C42.2241 170.25 42.5074 171.05 42.5074 172.05V179.1C42.5074 179.417 42.4324 179.65 42.2824 179.8C42.1491 179.933 41.9241 180 41.6074 180H37.7574C37.4408 180 37.2074 179.933 37.0574 179.8C36.9241 179.65 36.8574 179.417 36.8574 179.1V174.225C36.8574 173.958 36.7908 173.75 36.6574 173.6C36.5241 173.45 36.3241 173.375 36.0574 173.375H32.7574V179.1C32.7574 179.417 32.6824 179.65 32.5324 179.8C32.3991 179.933 32.1741 180 31.8574 180ZM54.0848 180H46.1848C45.8681 180 45.6348 179.933 45.4848 179.8C45.3514 179.65 45.2848 179.417 45.2848 179.1V176.175C45.2848 175.858 45.3514 175.633 45.4848 175.5C45.6348 175.35 45.8681 175.275 46.1848 175.275H52.9098C53.1264 175.275 53.2848 175.208 53.3848 175.075C53.5014 174.925 53.5598 174.75 53.5598 174.55C53.5598 174.267 53.5014 174.058 53.3848 173.925C53.2848 173.792 53.1264 173.717 52.9098 173.7L49.1598 173.175C47.9931 173.008 47.0514 172.625 46.3348 172.025C45.6348 171.425 45.2848 170.425 45.2848 169.025V166.4C45.2848 164.983 45.7431 163.9 46.6598 163.15C47.5764 162.383 48.8431 162 50.4598 162H57.4598C57.7764 162 58.0014 162.075 58.1348 162.225C58.2848 162.358 58.3598 162.583 58.3598 162.9V165.875C58.3598 166.192 58.2848 166.425 58.1348 166.575C58.0014 166.708 57.7764 166.775 57.4598 166.775H51.6348C51.4181 166.775 51.2514 166.85 51.1348 167C51.0181 167.133 50.9598 167.308 50.9598 167.525C50.9598 167.742 51.0181 167.925 51.1348 168.075C51.2514 168.225 51.4181 168.308 51.6348 168.325L55.3598 168.825C56.5264 168.992 57.4681 169.375 58.1848 169.975C58.9014 170.575 59.2598 171.575 59.2598 172.975V175.6C59.2598 177.017 58.7931 178.108 57.8598 178.875C56.9431 179.625 55.6848 180 54.0848 180ZM66.7695 180H62.8945C62.5779 180 62.3445 179.933 62.1945 179.8C62.0612 179.65 61.9945 179.417 61.9945 179.1V162.9C61.9945 162.583 62.0612 162.358 62.1945 162.225C62.3445 162.075 62.5779 162 62.8945 162H70.5445C72.8112 162 74.3612 162.45 75.1945 163.35C76.0279 164.25 76.4445 165.425 76.4445 166.875V170.075C76.4445 171.525 76.0279 172.7 75.1945 173.6C74.3612 174.5 72.8112 174.95 70.5445 174.95H67.6695V179.1C67.6695 179.417 67.5945 179.65 67.4445 179.8C67.3112 179.933 67.0862 180 66.7695 180ZM67.6195 166.675V170.45H69.8695C70.3529 170.45 70.6695 170.325 70.8195 170.075C70.9695 169.825 71.0445 169.542 71.0445 169.225V167.9C71.0445 167.583 70.9695 167.3 70.8195 167.05C70.6695 166.8 70.3529 166.675 69.8695 166.675H67.6195ZM84.6855 166.5V169.7H86.5605C86.9939 169.7 87.2855 169.592 87.4355 169.375C87.5855 169.142 87.6605 168.858 87.6605 168.525V167.675C87.6605 167.342 87.5855 167.067 87.4355 166.85C87.2855 166.617 86.9939 166.5 86.5605 166.5H84.6855ZM83.7855 180H79.9355C79.6189 180 79.3855 179.933 79.2355 179.8C79.1022 179.65 79.0355 179.417 79.0355 179.1V162.9C79.0355 162.583 79.1022 162.358 79.2355 162.225C79.3855 162.075 79.6189 162 79.9355 162H88.2605C90.1272 162 91.4105 162.392 92.1105 163.175C92.8272 163.942 93.1855 164.942 93.1855 166.175V167.325C93.1855 168.025 93.0772 168.625 92.8605 169.125C92.6605 169.608 92.3022 169.958 91.7855 170.175C92.6855 170.275 93.4105 170.642 93.9605 171.275C94.5272 171.908 94.8105 172.75 94.8105 173.8V179.1C94.8105 179.417 94.7355 179.65 94.5855 179.8C94.4522 179.933 94.2272 180 93.9105 180H90.0355C89.7189 180 89.4855 179.933 89.3355 179.8C89.2022 179.65 89.1355 179.417 89.1355 179.1V175.275C89.1355 174.908 89.0605 174.642 88.9105 174.475C88.7772 174.292 88.5355 174.2 88.1855 174.2H84.6855V179.1C84.6855 179.417 84.6105 179.65 84.4605 179.8C84.3272 179.933 84.1022 180 83.7855 180ZM110.115 180H98.5146C98.198 180 97.9646 179.933 97.8146 179.8C97.6813 179.65 97.6146 179.417 97.6146 179.1V162.9C97.6146 162.583 97.6813 162.358 97.8146 162.225C97.9646 162.075 98.198 162 98.5146 162H110.115C110.431 162 110.656 162.075 110.79 162.225C110.94 162.358 111.015 162.583 111.015 162.9V165.825C111.015 166.142 110.94 166.375 110.79 166.525C110.656 166.658 110.431 166.725 110.115 166.725H103.215V168.65H108.09C108.406 168.65 108.631 168.725 108.765 168.875C108.915 169.008 108.99 169.233 108.99 169.55V172.225C108.99 172.542 108.915 172.775 108.765 172.925C108.631 173.058 108.406 173.125 108.09 173.125H103.215V175.275H110.115C110.431 175.275 110.656 175.35 110.79 175.5C110.94 175.633 111.015 175.858 111.015 176.175V179.1C111.015 179.417 110.94 179.65 110.79 179.8C110.656 179.933 110.431 180 110.115 180ZM122.322 180H114.422C114.105 180 113.872 179.933 113.722 179.8C113.589 179.65 113.522 179.417 113.522 179.1V176.175C113.522 175.858 113.589 175.633 113.722 175.5C113.872 175.35 114.105 175.275 114.422 175.275H121.147C121.364 175.275 121.522 175.208 121.622 175.075C121.739 174.925 121.797 174.75 121.797 174.55C121.797 174.267 121.739 174.058 121.622 173.925C121.522 173.792 121.364 173.717 121.147 173.7L117.397 173.175C116.23 173.008 115.289 172.625 114.572 172.025C113.872 171.425 113.522 170.425 113.522 169.025V166.4C113.522 164.983 113.98 163.9 114.897 163.15C115.814 162.383 117.08 162 118.697 162H125.697C126.014 162 126.239 162.075 126.372 162.225C126.522 162.358 126.597 162.583 126.597 162.9V165.875C126.597 166.192 126.522 166.425 126.372 166.575C126.239 166.708 126.014 166.775 125.697 166.775H119.872C119.655 166.775 119.489 166.85 119.372 167C119.255 167.133 119.197 167.308 119.197 167.525C119.197 167.742 119.255 167.925 119.372 168.075C119.489 168.225 119.655 168.308 119.872 168.325L123.597 168.825C124.764 168.992 125.705 169.375 126.422 169.975C127.139 170.575 127.497 171.575 127.497 172.975V175.6C127.497 177.017 127.03 178.108 126.097 178.875C125.18 179.625 123.922 180 122.322 180ZM138.46 180H130.56C130.243 180 130.01 179.933 129.86 179.8C129.726 179.65 129.66 179.417 129.66 179.1V176.175C129.66 175.858 129.726 175.633 129.86 175.5C130.01 175.35 130.243 175.275 130.56 175.275H137.285C137.501 175.275 137.66 175.208 137.76 175.075C137.876 174.925 137.935 174.75 137.935 174.55C137.935 174.267 137.876 174.058 137.76 173.925C137.66 173.792 137.501 173.717 137.285 173.7L133.535 173.175C132.368 173.008 131.426 172.625 130.71 172.025C130.01 171.425 129.66 170.425 129.66 169.025V166.4C129.66 164.983 130.118 163.9 131.035 163.15C131.951 162.383 133.218 162 134.835 162H141.835C142.151 162 142.376 162.075 142.51 162.225C142.66 162.358 142.735 162.583 142.735 162.9V165.875C142.735 166.192 142.66 166.425 142.51 166.575C142.376 166.708 142.151 166.775 141.835 166.775H136.01C135.793 166.775 135.626 166.85 135.51 167C135.393 167.133 135.335 167.308 135.335 167.525C135.335 167.742 135.393 167.925 135.51 168.075C135.626 168.225 135.793 168.308 136.01 168.325L139.735 168.825C140.901 168.992 141.843 169.375 142.56 169.975C143.276 170.575 143.635 171.575 143.635 172.975V175.6C143.635 177.017 143.168 178.108 142.235 178.875C141.318 179.625 140.06 180 138.46 180ZM146.87 180C146.553 180 146.32 179.933 146.17 179.8C146.036 179.65 145.97 179.417 145.97 179.1V176.125C145.97 175.808 146.036 175.583 146.17 175.45C146.32 175.3 146.553 175.225 146.87 175.225H149.345V166.825H146.87C146.553 166.825 146.32 166.758 146.17 166.625C146.036 166.475 145.97 166.242 145.97 165.925V162.9C145.97 162.583 146.036 162.358 146.17 162.225C146.32 162.075 146.553 162 146.87 162H157.52C157.836 162 158.061 162.075 158.195 162.225C158.345 162.358 158.42 162.583 158.42 162.9V165.925C158.42 166.242 158.345 166.475 158.195 166.625C158.061 166.758 157.836 166.825 157.52 166.825H155.095V175.225H157.52C157.836 175.225 158.061 175.3 158.195 175.45C158.345 175.583 158.42 175.808 158.42 176.125V179.1C158.42 179.417 158.345 179.65 158.195 179.8C158.061 179.933 157.836 180 157.52 180H146.87ZM172.156 180H165.656C165.34 180 165.073 179.942 164.856 179.825C164.656 179.708 164.498 179.492 164.381 179.175L161.931 173.05C161.781 172.683 161.656 172.367 161.556 172.1C161.456 171.817 161.373 171.55 161.306 171.3C161.24 171.05 161.19 170.792 161.156 170.525C161.14 170.242 161.131 169.9 161.131 169.5V162.9C161.131 162.583 161.198 162.358 161.331 162.225C161.481 162.075 161.715 162 162.031 162H166.006C166.323 162 166.565 162.075 166.731 162.225C166.898 162.358 166.981 162.583 166.981 162.9V169.8C166.981 169.967 166.998 170.133 167.031 170.3C167.065 170.467 167.115 170.642 167.181 170.825L168.356 174.325C168.406 174.492 168.465 174.608 168.531 174.675C168.598 174.725 168.698 174.75 168.831 174.75H169.106C169.24 174.75 169.34 174.725 169.406 174.675C169.473 174.608 169.531 174.492 169.581 174.325L170.756 170.8C170.823 170.617 170.873 170.442 170.906 170.275C170.94 170.108 170.956 169.942 170.956 169.775V162.9C170.956 162.583 171.023 162.358 171.156 162.225C171.306 162.075 171.54 162 171.856 162H175.781C176.098 162 176.323 162.075 176.456 162.225C176.606 162.358 176.681 162.583 176.681 162.9V169.5C176.681 169.9 176.665 170.242 176.631 170.525C176.615 170.792 176.573 171.05 176.506 171.3C176.44 171.55 176.356 171.817 176.256 172.1C176.156 172.367 176.031 172.683 175.881 173.05L173.431 179.175C173.315 179.492 173.148 179.708 172.931 179.825C172.731 179.942 172.473 180 172.156 180ZM188.268 180H184.218C183.901 180 183.668 179.933 183.518 179.8C183.385 179.65 183.318 179.417 183.318 179.1V166.825H179.643C179.326 166.825 179.093 166.758 178.943 166.625C178.81 166.475 178.743 166.242 178.743 165.925V162.9C178.743 162.583 178.81 162.358 178.943 162.225C179.093 162.075 179.326 162 179.643 162H192.843C193.16 162 193.385 162.075 193.518 162.225C193.668 162.358 193.743 162.583 193.743 162.9V165.925C193.743 166.242 193.668 166.475 193.518 166.625C193.385 166.758 193.16 166.825 192.843 166.825H189.168V179.1C189.168 179.417 189.093 179.65 188.943 179.8C188.81 179.933 188.585 180 188.268 180ZM26.05 205.275C26.05 206.042 25.9333 206.742 25.7 207.375C25.4833 207.992 25.0833 208.525 24.5 208.975C23.9333 209.408 23.15 209.75 22.15 210C21.15 210.25 19.875 210.375 18.325 210.375C16.775 210.375 15.5 210.25 14.5 210C13.5 209.75 12.7083 209.408 12.125 208.975C11.5583 208.525 11.1583 207.992 10.925 207.375C10.7083 206.742 10.6 206.042 10.6 205.275V192.9C10.6 192.583 10.6667 192.358 10.8 192.225C10.95 192.075 11.1833 192 11.5 192H15.425C15.7417 192 15.9667 192.075 16.1 192.225C16.25 192.358 16.325 192.583 16.325 192.9V204.3C16.325 204.633 16.45 204.917 16.7 205.15C16.95 205.367 17.5083 205.475 18.375 205.475C19.2583 205.475 19.825 205.367 20.075 205.15C20.325 204.917 20.45 204.633 20.45 204.3V192.9C20.45 192.583 20.5167 192.358 20.65 192.225C20.8 192.075 21.0333 192 21.35 192H25.15C25.4667 192 25.6917 192.075 25.825 192.225C25.975 192.358 26.05 192.583 26.05 192.9V205.275ZM38.7023 210H30.2773C29.9607 210 29.7273 209.933 29.5773 209.8C29.444 209.65 29.3773 209.417 29.3773 209.1V192.9C29.3773 192.583 29.444 192.358 29.5773 192.225C29.7273 192.075 29.9607 192 30.2773 192H38.7023C40.7857 192 42.3273 192.417 43.3273 193.25C44.344 194.083 44.8523 195.367 44.8523 197.1V204.9C44.8523 206.633 44.344 207.917 43.3273 208.75C42.3273 209.583 40.7857 210 38.7023 210ZM35.0523 196.775V205.275H38.0273C38.4273 205.275 38.719 205.175 38.9023 204.975C39.1023 204.775 39.2023 204.467 39.2023 204.05V197.975C39.2023 197.558 39.1023 197.258 38.9023 197.075C38.719 196.875 38.4273 196.775 38.0273 196.775H35.0523ZM56.4076 210H52.3576C52.041 210 51.8076 209.933 51.6576 209.8C51.5243 209.65 51.4576 209.417 51.4576 209.1V196.825H47.7826C47.466 196.825 47.2326 196.758 47.0826 196.625C46.9493 196.475 46.8826 196.242 46.8826 195.925V192.9C46.8826 192.583 46.9493 192.358 47.0826 192.225C47.2326 192.075 47.466 192 47.7826 192H60.9826C61.2993 192 61.5243 192.075 61.6576 192.225C61.8076 192.358 61.8826 192.583 61.8826 192.9V195.925C61.8826 196.242 61.8076 196.475 61.6576 196.625C61.5243 196.758 61.2993 196.825 60.9826 196.825H57.3076V209.1C57.3076 209.417 57.2326 209.65 57.0826 209.8C56.9493 209.933 56.7243 210 56.4076 210ZM69.9639 196.5V199.7H71.8389C72.2722 199.7 72.5639 199.592 72.7139 199.375C72.8639 199.142 72.9389 198.858 72.9389 198.525V197.675C72.9389 197.342 72.8639 197.067 72.7139 196.85C72.5639 196.617 72.2722 196.5 71.8389 196.5H69.9639ZM69.0639 210H65.2139C64.8972 210 64.6639 209.933 64.5139 209.8C64.3805 209.65 64.3139 209.417 64.3139 209.1V192.9C64.3139 192.583 64.3805 192.358 64.5139 192.225C64.6639 192.075 64.8972 192 65.2139 192H73.5389C75.4055 192 76.6889 192.392 77.3889 193.175C78.1055 193.942 78.4639 194.942 78.4639 196.175V197.325C78.4639 198.025 78.3555 198.625 78.1389 199.125C77.9389 199.608 77.5805 199.958 77.0639 200.175C77.9639 200.275 78.6889 200.642 79.2389 201.275C79.8055 201.908 80.0889 202.75 80.0889 203.8V209.1C80.0889 209.417 80.0139 209.65 79.8639 209.8C79.7305 209.933 79.5055 210 79.1889 210H75.3139C74.9972 210 74.7639 209.933 74.6139 209.8C74.4805 209.65 74.4139 209.417 74.4139 209.1V205.275C74.4139 204.908 74.3389 204.642 74.1889 204.475C74.0555 204.292 73.8139 204.2 73.4639 204.2H69.9639V209.1C69.9639 209.417 69.8889 209.65 69.7389 209.8C69.6055 209.933 69.3805 210 69.0639 210ZM91.2611 210H87.2111C86.8945 210 86.6611 209.933 86.5111 209.8C86.3778 209.65 86.3111 209.417 86.3111 209.1V205.9L82.4861 200.775C82.1028 200.258 81.8445 199.808 81.7111 199.425C81.5945 199.042 81.5361 198.467 81.5361 197.7V192.9C81.5361 192.583 81.6028 192.358 81.7361 192.225C81.8861 192.075 82.1195 192 82.4361 192H86.2861C86.6028 192 86.8278 192.075 86.9611 192.225C87.1111 192.358 87.1861 192.583 87.1861 192.9V197C87.1861 197.167 87.1945 197.342 87.2111 197.525C87.2278 197.708 87.2945 197.883 87.4111 198.05L88.5611 199.85C88.6445 200 88.7278 200.108 88.8111 200.175C88.9111 200.242 89.0278 200.275 89.1611 200.275H89.4111C89.5445 200.275 89.6528 200.242 89.7361 200.175C89.8361 200.108 89.9278 200 90.0111 199.85L91.1611 198.05C91.2778 197.883 91.3445 197.708 91.3611 197.525C91.3778 197.342 91.3861 197.167 91.3861 197V192.9C91.3861 192.583 91.4528 192.358 91.5861 192.225C91.7361 192.075 91.9695 192 92.2861 192H96.0111C96.3278 192 96.5528 192.075 96.6861 192.225C96.8361 192.358 96.9111 192.583 96.9111 192.9V197.7C96.9111 198.467 96.8445 199.042 96.7111 199.425C96.5778 199.808 96.3278 200.258 95.9611 200.775L92.1611 205.925V209.1C92.1611 209.417 92.0861 209.65 91.9361 209.8C91.8028 209.933 91.5778 210 91.2611 210ZM104.538 210H100.663C100.346 210 100.113 209.933 99.9631 209.8C99.8298 209.65 99.7631 209.417 99.7631 209.1V192.9C99.7631 192.583 99.8298 192.358 99.9631 192.225C100.113 192.075 100.346 192 100.663 192H104.538C104.855 192 105.08 192.075 105.213 192.225C105.363 192.358 105.438 192.583 105.438 192.9V198.65H106.438L109.013 192.825C109.13 192.525 109.288 192.317 109.488 192.2C109.688 192.067 109.946 192 110.263 192H114.113C114.396 192 114.588 192.075 114.688 192.225C114.788 192.358 114.78 192.558 114.663 192.825L112.113 198.65C113.046 198.7 113.788 199.033 114.338 199.65C114.905 200.25 115.188 201.05 115.188 202.05V209.1C115.188 209.417 115.113 209.65 114.963 209.8C114.83 209.933 114.605 210 114.288 210H110.438C110.121 210 109.888 209.933 109.738 209.8C109.605 209.65 109.538 209.417 109.538 209.1V204.225C109.538 203.958 109.471 203.75 109.338 203.6C109.205 203.45 109.005 203.375 108.738 203.375H105.438V209.1C105.438 209.417 105.363 209.65 105.213 209.8C105.08 209.933 104.855 210 104.538 210ZM124.015 210H118.965C118.649 210 118.415 209.933 118.265 209.8C118.132 209.65 118.065 209.417 118.065 209.1V204.025C118.065 203.708 118.132 203.483 118.265 203.35C118.415 203.2 118.649 203.125 118.965 203.125H124.015C124.332 203.125 124.557 203.2 124.69 203.35C124.84 203.483 124.915 203.708 124.915 204.025V209.1C124.915 209.417 124.84 209.65 124.69 209.8C124.557 209.933 124.332 210 124.015 210Z" fill="#FDEBE6"/>
<mask id="mask0_209_695" style="mask-type:alpha" maskUnits="userSpaceOnUse" x="113" y="30" width="164" height="165">
<path d="M259.817 66.1499C264.25 73.0142 267.577 80.4904 269.666 88.2523C278.39 119.442 265.127 154.098 239.292 171.07C207.465 193.662 159.724 184.846 138.213 153.328C138.213 153.328 138.213 153.328 138.213 153.328C115.27 122.838 122.247 74.7932 153.862 51.9042C178.23 32.8863 215.309 31.4514 242.047 49.7264C248.727 54.1965 254.739 59.7485 259.817 66.1499C255.39 59.2831 249.847 53.0837 243.399 47.8906C217.749 26.6221 177.091 24.5309 148.618 44.5896C111.687 68.3611 101.467 124.614 128.461 160.32C153.611 197.348 210.167 205.728 244.536 178.384C272.674 157.858 283.747 118.682 271.839 87.5611C268.991 79.7869 264.899 72.5469 259.817 66.1499Z" fill="#D1D1D1"/>
</mask>
<g mask="url(#mask0_209_695)">
<path d="M251.465 148.603C242.455 136.035 245.339 118.543 257.907 109.533L260.691 107.537C273.259 98.5265 290.752 101.411 299.762 113.979L305.584 122.1C314.594 134.668 311.71 152.16 299.142 161.17L296.357 163.167C283.789 172.177 266.297 169.293 257.287 156.725L251.465 148.603Z" fill="#D1D1D1"/>
<path d="M233.479 133.813C222.538 118.552 226.04 97.3109 241.301 86.3701L244.086 84.3738C259.347 73.4331 280.588 76.9354 291.529 92.1965L295.177 117.881C295.177 117.881 287.172 123.62 277.297 130.699L274.512 132.696C264.637 139.775 256.632 145.514 256.632 145.514L233.479 133.813ZM310.46 118.604C321.401 133.865 317.899 155.106 302.638 166.047L299.853 168.043C284.592 178.984 263.351 175.482 252.41 160.22L262.163 153.229C269.242 163.104 282.986 165.37 292.861 158.29L295.646 156.294C305.521 149.215 307.787 135.471 300.708 125.596L310.46 118.604ZM299.853 168.043C284.592 178.984 263.351 175.482 252.41 160.22L233.479 133.813C222.538 118.552 226.04 97.3109 241.301 86.3701L274.512 132.696C264.637 139.775 256.632 145.514 256.632 145.514L262.163 153.229C269.242 163.104 282.986 165.37 292.861 158.29L299.853 168.043ZM244.086 84.3738C259.347 73.4331 280.588 76.9354 291.529 92.1965L310.46 118.604C321.401 133.865 317.899 155.106 302.638 166.047L295.646 156.294C305.521 149.215 307.787 135.471 300.708 125.596L295.177 117.881C295.177 117.881 287.172 123.62 277.297 130.699L244.086 84.3738Z" fill="#D1D1D1"/>
</g>
<mask id="mask1_209_695" style="mask-type:alpha" maskUnits="userSpaceOnUse" x="137" y="49" width="128" height="128">
<path d="M251.536 77.1368C254.854 82.4484 257.314 88.2015 258.824 94.1443C265.132 118.038 254.718 144.049 235.204 156.63C211.127 173.376 175.598 166.573 159.551 143.081C159.551 143.081 159.551 143.081 159.551 143.081C142.455 120.342 147.419 84.5092 171.007 67.0836C189.188 52.6412 217.165 51.1294 237.769 64.7743C242.912 68.1129 247.571 72.289 251.536 77.1368C248.222 71.8236 244.032 67.0002 239.121 62.9385C219.605 46.3001 188.05 44.2857 165.763 59.7691C136.858 78.0771 128.652 122.118 149.798 150.073C149.798 150.073 149.798 150.073 149.798 150.073C169.485 179.075 213.829 185.442 240.448 163.945C262.266 147.809 270.489 117.278 260.997 93.4531C258.727 87.498 255.504 81.9811 251.536 77.1368Z" fill="#D1D1D1"/>
</mask>
<g mask="url(#mask1_209_695)">
<path d="M245.903 141.348C238.581 131.134 240.925 116.919 251.139 109.596V109.596C261.353 102.274 275.568 104.618 282.891 114.832L285.821 118.919C293.143 129.133 290.799 143.348 280.585 150.67V150.67C270.371 157.993 256.156 155.649 248.833 145.435L245.903 141.348Z" fill="#D1D1D1"/>
<path d="M227.917 126.558C218.665 113.651 221.627 95.6867 234.533 86.4337C247.44 77.1807 265.404 80.1428 274.657 93.0496L285.821 118.919C285.96 119.113 286.096 119.309 286.229 119.507L267.744 132.759L249.26 146.011C249.115 145.821 248.972 145.629 248.833 145.435L227.917 126.558ZM290.697 115.423C299.95 128.33 296.988 146.294 284.081 155.547C271.174 164.8 253.21 161.838 243.957 148.931L253.71 141.939C259.101 149.46 269.569 151.186 277.089 145.794C284.61 140.403 286.336 129.935 280.944 122.415L290.697 115.423ZM284.081 155.547C271.174 164.8 253.21 161.838 243.957 148.931L227.917 126.558C218.665 113.651 221.627 95.6867 234.533 86.4337L267.744 132.759C260.224 138.151 254.127 142.521 254.127 142.521L253.71 141.939C259.101 149.46 269.569 151.186 277.089 145.794L284.081 155.547ZM234.533 86.4337C247.44 77.1807 265.404 80.1428 274.657 93.0496L290.697 115.423C299.95 128.33 296.988 146.294 284.081 155.547L277.089 145.794C284.61 140.403 286.336 129.935 280.944 122.415L281.361 122.997C281.361 122.997 275.265 127.368 267.744 132.759L234.533 86.4337Z" fill="#D1D1D1"/>
</g>
<mask id="mask2_209_695" style="mask-type:alpha" maskUnits="userSpaceOnUse" x="162" y="68" width="92" height="93">
<path d="M243.962 88.7097C246.186 92.4965 247.792 96.5575 248.735 100.714C252.671 117.443 245.055 134.965 231.746 143.235C215.281 154.239 191.744 149.413 181.062 133.803C181.062 133.803 181.062 133.803 181.062 133.803C169.707 118.675 172.693 94.834 188.401 82.7734C200.506 72.8239 219.545 71.2367 234.125 80.3349C237.759 82.5625 241.089 85.3874 243.962 88.7097C241.741 84.922 238.879 81.4497 235.477 78.4991C221.985 66.4074 199.368 64.4685 183.157 75.4588C162.133 88.4019 155.904 120.451 171.309 140.795C171.309 140.795 171.309 140.795 171.309 140.795C185.63 161.915 217.982 166.305 236.99 150.55C252.603 138.726 258.028 116.683 250.908 100.023C249.205 95.854 246.836 92.0291 243.962 88.7097Z" fill="#D1D1D1"/>
</mask>
<g mask="url(#mask2_209_695)">
<path d="M240.021 133.64C234.897 126.493 236.537 116.546 243.684 111.422V111.422C250.831 106.299 260.778 107.939 265.902 115.086L267.952 117.945C273.075 125.092 271.435 135.039 264.288 140.163V140.163C257.142 145.286 247.194 143.646 242.071 136.499L240.021 133.64Z" fill="#D1D1D1"/>
<path d="M222.035 118.849C214.98 109.009 217.239 95.3138 227.079 88.2595L227.079 88.2595C236.919 81.2052 250.614 83.4634 257.668 93.3033L267.952 117.945C269.837 120.576 270.877 123.719 270.931 126.955L260.289 134.585L249.646 142.215L249.647 142.214C246.599 141.123 243.957 139.13 242.071 136.499L222.035 118.849ZM272.828 114.449C279.882 124.289 277.624 137.985 267.784 145.039L267.784 145.039C257.944 152.093 244.249 149.835 237.195 139.995L246.947 133.004C250.14 137.457 256.339 138.479 260.792 135.286C265.246 132.094 266.268 125.895 263.075 121.441L272.828 114.449ZM267.784 145.039C257.944 152.093 244.249 149.835 237.195 139.995L222.035 118.849C214.98 109.009 217.239 95.3138 227.079 88.2595L260.289 134.585C255.836 137.778 252.225 140.366 252.225 140.366L246.947 133.004C250.14 137.457 256.339 138.479 260.792 135.286L267.784 145.039ZM227.079 88.2595C236.919 81.2052 250.614 83.4634 257.668 93.3033L272.828 114.449C279.882 124.289 277.624 137.985 267.784 145.039L260.792 135.286C265.246 132.094 266.268 125.895 263.075 121.441L268.354 128.804C268.354 128.804 264.743 131.392 260.289 134.585L227.079 88.2595Z" fill="#D1D1D1"/>
</g>
</svg>
