<svg width="1480" height="1653" viewBox="0 0 1480 1653" fill="none" xmlns="http://www.w3.org/2000/svg">
<rect x="946.714" y="67.6436" width="511.255" height="294.366" rx="31" transform="rotate(28.7808 946.714 67.6436)" stroke="#FDEBE6" stroke-width="6"/>
<rect x="965.086" y="110.051" width="439.704" height="197.744" rx="27" transform="rotate(28.7808 965.086 110.051)" stroke="#FDEBE6" stroke-width="6"/>
<rect x="975.676" y="189.85" width="343.557" height="76.7309" rx="27" transform="rotate(28.7808 975.676 189.85)" stroke="#FDEBE6" stroke-width="6"/>
<circle cx="1209.82" cy="362.666" r="28.313" transform="rotate(28.7808 1209.82 362.666)" stroke="#FDEBE6" stroke-width="3"/>
<path d="M1209.4 334.796L1210.04 348.33" stroke="#FDEBE6" stroke-width="3" stroke-linecap="round"/>
<path d="M1233.85 348.656L1222.65 356.28" stroke="#FDEBE6" stroke-width="3" stroke-linecap="round"/>
<path d="M1198.69 369.311L1187.49 376.934" stroke="#FDEBE6" stroke-width="3" stroke-linecap="round"/>
<path d="M1233.42 375.704L1221.54 369.194" stroke="#FDEBE6" stroke-width="3" stroke-linecap="round"/>
<path d="M1198.15 356.326L1186.26 349.816" stroke="#FDEBE6" stroke-width="3" stroke-linecap="round"/>
<path d="M1215.97 389.172L1212.68 376.026" stroke="#FDEBE6" stroke-width="3" stroke-linecap="round"/>
<path d="M899.632 329.211L866.166 343.751C860.83 346.069 860.486 353.506 865.585 356.306L1194.14 536.785C1199.27 539.603 1205.38 535.257 1204.41 529.486L1198.29 493.201C1197.93 491.091 1196.63 489.26 1194.76 488.23L905.792 329.496C903.893 328.454 901.619 328.348 899.632 329.211Z" stroke="#FDEBE6" stroke-width="6"/>
<circle cx="1007.96" cy="251.775" r="28.313" transform="rotate(28.7808 1007.96 251.775)" stroke="#FDEBE6" stroke-width="3"/>
<path d="M1007.53 223.906L1008.18 237.44" stroke="#FDEBE6" stroke-width="3" stroke-linecap="round"/>
<path d="M928.032 373.642L920.931 385.183" stroke="#FDEBE6" stroke-width="3" stroke-linecap="round"/>
<path d="M983.926 403.998L976.825 415.538" stroke="#FDEBE6" stroke-width="3" stroke-linecap="round"/>
<path d="M1041.77 437.244L1034.67 448.784" stroke="#FDEBE6" stroke-width="3" stroke-linecap="round"/>
<path d="M1155.51 500.846L1148.41 512.387" stroke="#FDEBE6" stroke-width="3" stroke-linecap="round"/>
<path d="M1031.99 237.765L1020.79 245.388" stroke="#FDEBE6" stroke-width="3" stroke-linecap="round"/>
<path d="M996.834 258.42L985.633 266.044" stroke="#FDEBE6" stroke-width="3" stroke-linecap="round"/>
<path d="M1031.56 264.813L1019.68 258.303" stroke="#FDEBE6" stroke-width="3" stroke-linecap="round"/>
<path d="M996.285 245.436L984.402 238.926" stroke="#FDEBE6" stroke-width="3" stroke-linecap="round"/>
<path d="M1014.1 278.281L1010.82 265.135" stroke="#FDEBE6" stroke-width="3" stroke-linecap="round"/>
<path d="M1097.66 467.602L1090.56 479.142" stroke="#FDEBE6" stroke-width="3" stroke-linecap="round"/>
<path d="M963 412C963.2 412 879.351 527.402 856.997 526.925C803.36 525.78 784.589 459.912 739.522 443.384C711.069 432.949 677.557 431.631 641.635 431.016C623.878 430.713 616.384 435.861 607.231 444.932C575.818 476.065 571.537 498.643 564.088 533.463C555.451 573.839 569.145 588.725 580.573 604.614C586.663 613.081 596.427 618.48 609.973 626.847C632.499 640.761 658.665 658.684 678.302 678.433C706.652 706.946 714.274 749.55 717.839 773.141C720.672 791.886 716.645 807.879 713.96 815.391C705.762 838.331 668.979 870.55 642.111 884.935C620.66 896.42 601.567 897.066 582.328 897.599C539.577 898.782 502.216 895.554 487.031 892.259C470.926 888.764 456.871 875.577 446.38 861.808C435.312 847.281 426.702 834.904 424.181 822.69C421.527 809.83 431.734 797.09 444.593 784.122C455.791 772.829 476.4 769.135 509.335 767.995C519.263 767.652 524.73 770.796 530.521 774.791C559.164 794.551 580.984 839.995 592.472 874.863C597.651 890.582 596.751 917.809 595.094 941.154C593.934 957.498 581.551 969.921 571.246 979.749C566.51 984.265 545.489 992.644 512.096 1005.81C458.43 1026.96 423.968 1034.72 407.506 1037.51C348.5 1047.5 301.5 1047.5 301.5 1047.5C246 1053.5 149 1022.5 116.5 1112.5C87.7444 1192.13 387.5 1112.5 369.74 1364C351.567 1621.36 7.883 1648.32 5.00049 1648" stroke="#FDEBE6" stroke-width="10" stroke-linecap="round"/>
<path d="M1101 490C1097.84 490.259 996.752 506.62 968.5 579.5C963.889 591.396 963 602 965.438 620.746C967.176 634.115 970.331 644.319 987.151 661.967C1012.89 688.969 1039.53 701.706 1044.94 708.557C1058.43 725.638 1060.81 754.226 1061.07 771.477C1061.28 785.141 1050.67 796.491 1027.91 819.56C1009.73 837.993 993.996 840.387 980.961 842.847C971.712 844.593 963.021 842.291 956.386 838.093C946.23 831.667 941.403 820.745 938.336 814.494C935.617 808.949 935.84 800.539 936.238 791.466C936.535 784.706 940.899 780.299 945.027 776.72C953.701 769.197 967.509 767.644 988.839 767.322C993.402 767.254 995.557 768.603 997.607 770.161C1008.89 778.733 1014.18 801.498 1019.98 814.548C1025.35 826.631 1041.75 834.687 1055.87 841.653C1072.07 849.644 1097.61 850.968 1121.45 845.629C1147.28 839.843 1142 825.5 1167.61 823.25C1201.53 820.269 1193.5 827 1212.12 848.588C1229.86 869.145 1257.29 872.862 1273.57 876.847C1337.5 892.5 1472.11 903.188 1474.5 904" stroke="#FDEBE6" stroke-width="10" stroke-linecap="round"/>
</svg>
