<svg width="308" height="226" viewBox="0 0 308 226" fill="none" xmlns="http://www.w3.org/2000/svg">
<path d="M0 0H224.288V0.352154H224.64V11.8201H224.992V12.1723L225.279 12.2565C226.361 12.5972 227.337 13.0565 228.344 13.5809C228.562 13.6919 228.784 13.8029 229.006 13.9139L234.34 16.5819V16.934L234.711 16.9838C235.319 17.1369 235.771 17.3934 236.31 17.7149L236.869 18.0479C237.336 18.3465 237.336 18.3465 237.688 18.6986L238.14 18.8632L238.568 19.0508L238.748 19.579C239.276 19.7972 239.276 19.7972 239.804 19.9312V20.2833H240.332V20.6393L240.807 20.6814C241.392 20.8154 241.392 20.8154 241.897 21.1561L242.272 21.5197V21.8718L243.156 22.0479L243.332 22.58H243.86V22.9321L244.564 23.1082V23.4604H245.092V23.8125L245.513 23.9771C245.976 24.1647 245.976 24.1647 246.328 24.3408V24.6929H246.856V25.0489L247.74 25.401V25.7532L248.134 25.8948C248.601 26.0977 248.949 26.2967 249.324 26.6336V26.9896L250.208 27.3417V27.6939L250.912 27.87V28.2221L251.234 28.3752C251.617 28.5743 251.617 28.5743 252.148 28.9264V29.2824L252.443 29.4125C252.933 29.6767 253.342 29.9944 253.778 30.3389L254.253 30.714L254.617 31.0432V31.3992H254.969V31.7513H255.321V32.1035L255.65 32.2681L256.381 32.6317V32.9838L257.085 33.336V33.692H257.613C257.903 33.9676 257.903 33.9676 258.21 34.3389C258.776 35.0317 259.392 35.6518 260.031 36.2796C260.368 36.6087 260.704 36.9418 261.041 37.2748L261.386 37.6078C262.055 38.2738 262.637 38.9552 263.188 39.7207C263.525 40.1609 263.919 40.5322 264.313 40.9226C264.711 41.3743 265.09 41.8375 265.472 42.3006L265.794 42.6949C266.639 43.7284 267.447 44.7848 268.239 45.8604C268.56 46.2968 268.866 46.714 269.249 47.0968V47.625H269.605C269.903 48.0193 270.19 48.425 270.462 48.8384L270.719 49.2174C270.902 49.4892 271.082 49.7571 271.262 50.0289C271.541 50.4461 271.824 50.8633 272.104 51.2806C272.919 52.4901 273.734 53.7035 274.468 54.9667C274.648 55.2691 274.836 55.5715 275.023 55.87C276.152 57.65 277.109 59.5064 278.065 61.382L278.276 61.7916C278.926 63.0739 279.562 64.3562 280.143 65.6653C280.392 66.2165 280.645 66.76 280.901 67.3036C281.272 68.1112 281.624 68.9304 281.949 69.761C282.137 70.2433 282.34 70.7179 282.542 71.1926C283.377 73.1945 284.107 75.2271 284.769 77.2902C284.896 77.7649 284.896 77.7649 285.122 77.9639C285.125 78.3161 285.129 78.6682 285.122 79.0204H285.474L285.558 79.3381C285.741 80.0079 285.921 80.6778 286.105 81.3476C286.354 82.2701 286.614 83.1888 286.882 84.1036C287.215 85.252 287.498 86.4118 287.777 87.5754L287.907 88.1228C288.037 88.674 288.167 89.2252 288.294 89.7802L288.424 90.3505C288.776 91.9314 289.044 93.5161 289.296 95.1161C289.361 95.541 289.43 95.9697 289.499 96.3946C290.337 101.662 290.444 106.898 290.444 112.219C290.444 112.816 290.444 113.417 290.444 114.018C290.46 117.539 290.417 121.022 290.058 124.529L290 125.095C289.22 132.525 287.448 139.671 285.122 146.753C285.003 147.116 284.884 147.484 284.766 147.851C284.303 149.279 283.824 150.688 283.224 152.066C283.009 152.556 282.814 153.053 282.619 153.551C282.179 154.684 281.678 155.79 281.119 156.869C280.928 157.252 280.763 157.646 280.625 158.052C280.354 158.833 279.94 159.53 279.531 160.242C279.328 160.636 279.206 160.961 279.125 161.39H278.773L278.712 161.777C278.306 163.522 277.093 165.172 276.183 166.695C275.877 167.216 275.578 167.74 275.291 168.272C274.924 168.942 274.507 169.574 274.071 170.202C273.845 170.55 273.657 170.898 273.481 171.269H273.129V171.798H272.777L272.701 172.131C272.601 172.506 272.601 172.506 272.425 172.858H272.073L272.008 173.172C271.889 173.578 271.744 173.834 271.503 174.179L271.262 174.531L271.002 174.894L270.738 175.277C270.118 176.161 269.49 177.038 268.847 177.911C268.572 178.29 268.304 178.676 268.04 179.063L267.665 179.56H267.313V180.089H266.957L266.429 181.145H266.077L265.954 181.52C265.675 182.14 265.277 182.604 264.829 183.109L264.301 183.721L264.034 184.027C263.682 184.441 263.341 184.866 263 185.291C261.332 187.338 259.457 189.206 257.59 191.071C257.215 191.446 256.84 191.821 256.465 192.196L255.405 193.256C254.639 194.018 253.844 194.73 253.029 195.434C252.814 195.626 252.596 195.813 252.382 196.005L251.762 196.548L251.444 196.827C250.882 197.317 250.404 197.677 249.68 197.903V198.255C249.42 198.485 249.42 198.485 249.083 198.718L248.75 198.956L248.444 199.139H248.092V199.492C247.725 199.775 247.35 200.047 246.967 200.307L246.646 200.533C246.367 200.72 246.083 200.9 245.8 201.076H245.448V201.432H244.916V201.784C244.557 202.045 244.185 202.29 243.807 202.523L243.125 202.948L242.781 203.162C242.146 203.561 241.522 203.978 240.898 204.391C240.508 204.605 240.508 204.605 239.98 204.605V204.958C239.574 205.245 239.574 205.245 239.1 205.486H238.568V205.842L238.178 206.052L237.654 206.336L237.141 206.615C236.808 206.799 236.479 206.994 236.157 207.197C235.748 207.427 235.748 207.427 235.22 207.427V207.783L234.868 207.951C233.992 208.38 233.131 208.82 232.281 209.302L231.853 209.543C231.573 209.704 231.294 209.865 231.015 210.029L230.62 210.255L230.268 210.458C229.932 210.604 229.932 210.604 229.224 210.604V210.956C226.591 212.322 226.591 212.322 225.168 212.544V212.896L224.816 213.249C224.758 213.746 224.758 213.746 224.762 214.336L224.754 215.029L224.751 215.779C224.747 216.035 224.743 216.292 224.739 216.544C224.731 217.218 224.728 217.892 224.72 218.565C224.712 219.645 224.701 220.724 224.689 221.804C224.685 222.179 224.682 222.558 224.678 222.933L224.67 223.626L224.666 224.238C224.64 224.713 224.64 224.713 224.464 225.065L156.225 225.241V225.421H151.741C144.237 225.425 136.733 225.425 129.229 225.425H128.85L116.315 225.429C112.017 225.429 107.72 225.432 103.423 225.432C98.3836 225.436 93.3479 225.436 88.3084 225.436H87.9372C85.9627 225.436 83.9844 225.436 82.0061 225.436C80.024 225.44 78.038 225.44 76.052 225.44C74.9768 225.44 73.9015 225.44 72.8225 225.44C71.8391 225.44 70.8556 225.44 69.8722 225.44C69.5164 225.44 69.1567 225.44 68.8008 225.44C68.3187 225.44 67.8365 225.44 67.3505 225.44L66.922 225.444C66.5967 225.44 66.2715 225.432 65.9462 225.421L65.7702 225.241C65.4258 225.226 65.0776 225.222 64.7332 225.222L64.0444 225.218L63.2791 225.222H62.4717C61.7332 225.222 60.9909 225.222 60.2485 225.222C59.4526 225.222 58.6529 225.222 57.8531 225.222C56.4718 225.222 55.0866 225.222 53.7014 225.226C51.7001 225.226 49.6988 225.226 47.6975 225.226C44.4527 225.226 41.2039 225.229 37.9591 225.229C34.806 225.229 31.6491 225.233 28.4961 225.233H24.9833C16.8903 225.237 8.79717 225.237 0.707906 225.241L0.528059 224.713H0V0Z" fill="#ED3B02"/>
<path d="M0 0H224.288V0.352154H224.64V11.8201H224.992V12.1723L225.279 12.2565C226.361 12.5972 227.337 13.0565 228.344 13.5809C228.562 13.6919 228.784 13.8029 229.006 13.9139L234.34 16.5819V16.934L234.711 16.9838C235.319 17.1369 235.771 17.3934 236.31 17.7149L236.869 18.0479C237.336 18.3465 237.336 18.3465 237.688 18.6986L238.14 18.8632L238.568 19.0508L238.748 19.579C239.276 19.7972 239.276 19.7972 239.804 19.9312V20.2833H240.332V20.6393L240.807 20.6814C241.392 20.8154 241.392 20.8154 241.897 21.1561L242.272 21.5197V21.8718L243.156 22.0479L243.332 22.58H243.86V22.9321L244.564 23.1082V23.4604H245.092V23.8125L245.513 23.9771C245.976 24.1647 245.976 24.1647 246.328 24.3408V24.6929H246.856V25.0489L247.74 25.401V25.7532L248.134 25.8948C248.601 26.0977 248.949 26.2967 249.324 26.6336V26.9896L250.208 27.3417V27.6939L250.912 27.87V28.2221L251.234 28.3752C251.617 28.5743 251.617 28.5743 252.148 28.9264V29.2824L252.443 29.4125C252.933 29.6767 253.342 29.9944 253.778 30.3389L254.253 30.714L254.617 31.0432V31.3992H254.969V31.7513H255.321V32.1035L255.65 32.2681L256.381 32.6317V32.9838L257.085 33.336V33.692H257.613C257.903 33.9676 257.903 33.9676 258.21 34.3389C258.776 35.0317 259.392 35.6518 260.031 36.2796C260.368 36.6087 260.704 36.9418 261.041 37.2748L261.386 37.6078C262.055 38.2738 262.637 38.9552 263.188 39.7207C263.525 40.1609 263.919 40.5322 264.313 40.9226C264.711 41.3743 265.09 41.8375 265.472 42.3006L265.794 42.6949C266.639 43.7284 267.447 44.7848 268.239 45.8604C268.56 46.2968 268.866 46.714 269.249 47.0968V47.625H269.605C269.903 48.0193 270.19 48.425 270.462 48.8384L270.719 49.2174C270.902 49.4892 271.082 49.7571 271.262 50.0289C271.541 50.4461 271.824 50.8633 272.104 51.2806C272.919 52.4901 273.734 53.7035 274.468 54.9667C274.648 55.2691 274.836 55.5715 275.023 55.87C276.152 57.65 277.109 59.5064 278.065 61.382L278.276 61.7916C278.926 63.0739 279.562 64.3562 280.143 65.6653C280.392 66.2165 280.645 66.76 280.901 67.3036C281.272 68.1112 281.624 68.9304 281.949 69.761C282.137 70.2433 282.34 70.7179 282.542 71.1926C283.377 73.1945 284.107 75.2271 284.769 77.2902C284.896 77.7649 284.896 77.7649 285.122 77.9639C285.125 78.3161 285.129 78.6682 285.122 79.0204H285.474L285.558 79.3381C285.741 80.0079 285.921 80.6778 286.105 81.3476C286.354 82.2701 286.614 83.1888 286.882 84.1036C287.215 85.252 287.498 86.4118 287.777 87.5754L287.907 88.1228C288.037 88.674 288.167 89.2252 288.294 89.7802L288.424 90.3505C288.776 91.9314 289.044 93.5161 289.296 95.1161C289.361 95.541 289.43 95.9697 289.499 96.3946C290.337 101.662 290.444 106.898 290.444 112.219C290.444 112.816 290.444 113.417 290.444 114.018C290.46 117.539 290.417 121.022 290.058 124.529L290 125.095C289.22 132.525 287.448 139.671 285.122 146.753C285.003 147.116 284.884 147.484 284.766 147.851C284.303 149.279 283.824 150.688 283.224 152.066C283.009 152.556 282.814 153.053 282.619 153.551C282.179 154.684 281.678 155.79 281.119 156.869C280.928 157.252 280.763 157.646 280.625 158.052C280.354 158.833 279.94 159.53 279.531 160.242C279.328 160.636 279.206 160.961 279.125 161.39H278.773L278.712 161.777C278.306 163.522 277.093 165.172 276.183 166.695C275.877 167.216 275.578 167.74 275.291 168.272C274.924 168.942 274.507 169.574 274.071 170.202C273.845 170.55 273.657 170.898 273.481 171.269H273.129V171.798H272.777L272.701 172.131C272.601 172.506 272.601 172.506 272.425 172.858H272.073L272.008 173.172C271.889 173.578 271.744 173.834 271.503 174.179L271.262 174.531L271.002 174.894L270.738 175.277C270.118 176.161 269.49 177.038 268.847 177.911C268.572 178.29 268.304 178.676 268.04 179.063L267.665 179.56H267.313V180.089H266.957L266.429 181.145H266.077L265.954 181.52C265.675 182.14 265.277 182.604 264.829 183.109L264.301 183.721L264.034 184.027C263.682 184.441 263.341 184.866 263 185.291C261.332 187.338 259.457 189.206 257.59 191.071C257.215 191.446 256.84 191.821 256.465 192.196L255.405 193.256C254.639 194.018 253.844 194.73 253.029 195.434C252.814 195.626 252.596 195.813 252.382 196.005L251.762 196.548L251.444 196.827C250.882 197.317 250.404 197.677 249.68 197.903V198.255C249.42 198.485 249.42 198.485 249.083 198.718L248.75 198.956L248.444 199.139H248.092V199.492C247.725 199.775 247.35 200.047 246.967 200.307L246.646 200.533C246.367 200.72 246.083 200.9 245.8 201.076H245.448V201.432H244.916V201.784C244.557 202.045 244.185 202.29 243.807 202.523L243.125 202.948L242.781 203.162C242.146 203.561 241.522 203.978 240.898 204.391C240.508 204.605 240.508 204.605 239.98 204.605V204.958C239.574 205.245 239.574 205.245 239.1 205.486H238.568V205.842L238.178 206.052L237.654 206.336L237.141 206.615C236.808 206.799 236.479 206.994 236.157 207.197C235.748 207.427 235.748 207.427 235.22 207.427V207.783L234.868 207.951C233.992 208.38 233.131 208.82 232.281 209.302L231.853 209.543C231.573 209.704 231.294 209.865 231.015 210.029L230.62 210.255L230.268 210.458C229.932 210.604 229.932 210.604 229.224 210.604V210.956C226.591 212.322 226.591 212.322 225.168 212.544V212.896L224.816 213.249C224.758 213.746 224.758 213.746 224.762 214.336L224.754 215.029L224.751 215.779C224.747 216.035 224.743 216.292 224.739 216.544C224.731 217.218 224.728 217.892 224.72 218.565C224.712 219.645 224.701 220.724 224.689 221.804C224.685 222.179 224.682 222.558 224.678 222.933L224.67 223.626L224.666 224.238C224.64 224.713 224.64 224.713 224.464 225.065L156.225 225.241V225.421H151.741C144.237 225.425 136.733 225.425 129.229 225.425H128.85L116.315 225.429C112.017 225.429 107.72 225.432 103.423 225.432C98.3836 225.436 93.3479 225.436 88.3084 225.436H87.9372C85.9627 225.436 83.9844 225.436 82.0061 225.436C80.024 225.44 78.038 225.44 76.052 225.44C74.9768 225.44 73.9015 225.44 72.8225 225.44C71.8391 225.44 70.8556 225.44 69.8722 225.44C69.5164 225.44 69.1567 225.44 68.8008 225.44C68.3187 225.44 67.8365 225.44 67.3505 225.44L66.922 225.444C66.5967 225.44 66.2715 225.432 65.9462 225.421L65.7702 225.241C65.4258 225.226 65.0776 225.222 64.7332 225.222L64.0444 225.218L63.2791 225.222H62.4717C61.7332 225.222 60.9909 225.222 60.2485 225.222C59.4526 225.222 58.6529 225.222 57.8531 225.222C56.4718 225.222 55.0866 225.222 53.7014 225.226C51.7001 225.226 49.6988 225.226 47.6975 225.226C44.4527 225.226 41.2039 225.229 37.9591 225.229C34.806 225.229 31.6491 225.233 28.4961 225.233H24.9833C16.8903 225.237 8.79717 225.237 0.707906 225.241L0.528059 224.713H0V0Z" fill="#ED3B02"/>
<path d="M225.016 12.0229C225.273 12.1073 225.525 12.1878 225.781 12.2721L226.21 12.414C226.657 12.5711 227.074 12.7628 227.495 12.9813L227.946 13.2151L228.367 13.4336C228.585 13.5448 228.807 13.656 229.029 13.7672L234.361 16.4391V16.7917L234.732 16.8416C235.34 16.9949 235.792 17.2517 236.331 17.5737L236.889 17.9073C237.356 18.2063 237.356 18.2063 237.708 18.5589L238.159 18.7238L238.588 18.9116L238.767 19.4406C239.295 19.6591 239.295 19.6591 239.823 19.7933V20.146H240.351V20.5025L240.825 20.5446C241.411 20.6788 241.411 20.6788 241.915 21.02L242.29 21.3842V21.7368L243.174 21.9132L243.35 22.446H243.878V22.7987L244.581 22.975V23.3277H245.109V23.6804L245.53 23.8452C245.993 24.0331 245.993 24.0331 246.345 24.2094V24.5621H246.873V24.9186L247.756 25.2713V25.6239L248.15 25.7658C248.617 25.9689 248.965 26.1683 249.34 26.5056V26.8621L250.223 27.2148V27.5675L250.927 27.7438V28.0965L251.249 28.2498C251.631 28.4492 251.631 28.4492 252.163 28.8018V29.1583L252.457 29.2887C252.947 29.5532 253.356 29.8714 253.792 30.2164L254.267 30.592L254.63 30.9217V31.2782H254.982V31.6309H255.334V31.9836L255.663 32.1484L256.393 32.5126V32.8653L257.097 33.2179V33.5744H257.625C257.916 33.8504 257.916 33.8504 258.222 34.2223C258.788 34.9161 259.404 35.5372 260.042 36.1658C260.379 36.4955 260.716 36.829 261.052 37.1625L261.396 37.496C262.066 38.163 262.647 38.8454 263.198 39.6121C263.535 40.0529 263.929 40.4248 264.323 40.8158C264.72 41.2681 265.099 41.732 265.482 42.1958L265.803 42.5906C266.648 43.6257 267.455 44.6837 268.247 45.7609C268.568 46.1979 268.874 46.6157 269.257 46.9991V47.5281H269.613C269.911 47.9229 270.198 48.3293 270.469 48.7433L270.726 49.1228C270.909 49.395 271.089 49.6633 271.269 49.9355C271.548 50.3533 271.831 50.7712 272.11 51.189C272.925 52.4004 273.74 53.6156 274.474 54.8806C274.654 55.1834 274.841 55.4863 275.029 55.7853C276.157 57.5678 277.113 59.427 278.07 61.3054L278.28 61.7156C278.93 62.9998 279.565 64.284 280.147 65.595C280.395 66.147 280.648 66.6914 280.904 67.2357C281.275 68.0446 281.627 68.8649 281.952 69.6968C282.14 70.1798 282.342 70.6551 282.545 71.1305C283.379 73.1353 284.109 75.1709 284.771 77.2371C284.897 77.7125 284.897 77.7124 285.123 77.9118C285.127 78.2645 285.131 78.6171 285.123 78.9698H285.475L285.559 79.288L285.957 80.76L286.106 81.3005C286.355 82.2244 286.615 83.1444 286.883 84.0606C287.215 85.2106 287.498 86.3721 287.778 87.5375L287.908 88.0857C288.038 88.6377 288.168 89.1897 288.294 89.7456L288.424 90.3167C288.776 91.8999 289.044 93.487 289.296 95.0893C289.361 95.5149 289.43 95.9442 289.499 96.3697C290.337 101.644 290.444 106.889 290.444 112.217C290.444 112.815 290.444 113.417 290.444 114.019C290.459 117.546 290.417 121.034 290.057 124.545L290 125.113C289.22 132.553 287.449 139.71 285.123 146.802C285.005 147.166 284.886 147.534 284.767 147.902C284.305 149.332 283.826 150.743 283.226 152.123C283.012 152.614 282.817 153.112 282.622 153.61C282.182 154.745 281.681 155.853 281.122 156.934C280.931 157.317 280.766 157.712 280.629 158.118C280.357 158.9 279.944 159.598 279.535 160.311C279.332 160.706 279.21 161.032 279.129 161.461H278.777L278.716 161.848C278.311 163.596 277.098 165.249 276.188 166.774C275.882 167.296 275.583 167.821 275.297 168.354C274.929 169.025 274.512 169.657 274.076 170.286C273.851 170.635 273.663 170.983 273.487 171.355H273.135V171.884H272.784L272.707 172.218C272.608 172.593 272.608 172.593 272.432 172.946H272.08L272.015 173.26C271.896 173.667 271.751 173.924 271.51 174.269L271.269 174.621L271.009 174.986L270.745 175.369C270.125 176.254 269.498 177.132 268.855 178.006C268.58 178.386 268.312 178.773 268.048 179.16L267.673 179.658H267.321V180.187H266.966L266.438 181.245H266.086L265.963 181.621C265.684 182.242 265.286 182.706 264.839 183.212L264.311 183.825L264.043 184.132C263.691 184.546 263.351 184.972 263.011 185.397C261.343 187.448 259.469 189.319 257.602 191.186C257.227 191.561 256.852 191.937 256.477 192.313L255.418 193.374C254.653 194.137 253.857 194.85 253.042 195.556C252.828 195.747 252.61 195.935 252.396 196.127L251.776 196.671L251.459 196.951C250.897 197.442 250.419 197.802 249.696 198.028V198.381C249.435 198.611 249.435 198.611 249.099 198.845L248.766 199.082L248.46 199.266H248.108V199.619C247.741 199.903 247.366 200.175 246.984 200.436L246.662 200.662C246.383 200.85 246.1 201.03 245.817 201.206H245.465V201.563H244.933V201.915C244.574 202.176 244.203 202.421 243.824 202.655L243.143 203.081L242.799 203.295C242.164 203.694 241.541 204.112 240.917 204.526C240.527 204.741 240.527 204.741 239.999 204.741V205.093C239.594 205.381 239.594 205.381 239.119 205.622H238.588V205.979L238.198 206.19L237.673 206.473L237.161 206.753C236.828 206.937 236.499 207.133 236.178 207.336C235.769 207.566 235.769 207.566 235.241 207.566V207.922L234.889 208.091C234.013 208.52 233.152 208.961 232.303 209.444L231.875 209.686C231.595 209.847 231.316 210.008 231.037 210.172L230.643 210.399L230.291 210.602C229.955 210.747 229.955 210.747 229.247 210.747V211.1C226.615 212.469 226.615 212.469 225.192 212.691V213.044H224.84C224.837 183.112 224.837 183.112 224.833 157.754V129.517C224.833 120.286 224.833 111.052 224.829 101.821C224.825 95.0855 224.825 88.3502 224.825 81.6149V67.9641C224.825 63.6553 224.825 59.3427 224.821 55.0301C224.821 50.0773 224.821 45.1245 224.821 40.1679V39.8114C224.821 37.8372 224.821 35.8668 224.821 33.8926C224.818 32.1676 224.818 30.4425 224.821 28.7213C224.821 27.74 224.821 26.7625 224.818 25.7811C224.818 21.1925 224.867 16.6077 225.016 12.0229Z" fill="#070706"/>
<path d="M266.416 46.9675H266.769C267.045 47.3161 267.313 47.6761 267.566 48.0477L268.046 48.7333L268.295 49.0895C268.517 49.4112 268.748 49.7291 268.978 50.0471C270.128 51.6289 271.202 53.253 272.249 54.9076L272.483 55.2792C274.393 58.3166 276.184 61.442 277.753 64.6671C277.975 65.1191 278.213 65.5672 278.455 66.0115C280.346 69.4358 281.711 73.1205 283.03 76.7937L283.256 77.4219C286.237 85.7527 288.043 94.4665 288.86 103.268L288.925 103.943C289.447 109.91 289.477 116.019 288.86 121.979L288.756 123.105C287.59 135.132 284.173 146.845 279.141 157.807L278.884 158.363C277.703 160.921 276.407 163.392 274.988 165.824C274.742 166.245 274.501 166.667 274.259 167.088C273.273 168.8 272.207 170.443 271.095 172.075C270.849 172.435 270.608 172.795 270.366 173.155C268.456 175.99 266.37 178.709 264.118 181.283L263.781 181.67C263.102 182.451 262.412 183.217 261.717 183.983C261.484 184.244 261.253 184.504 261.023 184.768C260.31 185.596 259.57 186.381 258.795 187.155L258.446 187.507C258.204 187.752 257.959 187.994 257.717 188.235C257.349 188.603 256.985 188.974 256.617 189.342C255.405 190.56 254.196 191.732 252.808 192.755L252.455 192.402L252.808 191.87C252.754 191.491 252.754 191.491 252.632 191.165L251.746 190.989C252.275 190.341 252.793 189.748 253.429 189.212C254.3 188.461 255.109 187.656 255.922 186.844C256.175 186.588 256.432 186.331 256.689 186.078C257.61 185.155 258.5 184.213 259.347 183.221C259.597 182.945 259.846 182.669 260.099 182.394C263.363 178.778 266.293 174.879 269.02 170.846C269.235 170.528 269.449 170.214 269.668 169.899C273.335 164.572 276.265 158.681 278.731 152.717C278.93 152.238 279.134 151.767 279.337 151.292C281.435 146.378 282.923 141.13 284.089 135.921L284.173 135.554C284.986 131.934 285.611 128.318 286.033 124.626L286.106 124.013C286.62 119.758 286.762 115.491 286.915 111.212H286.563L286.57 111.806C286.578 113.212 286.563 114.583 286.386 115.977C285.627 116.207 285.044 116.092 284.265 115.977L284.089 115.449L283.747 115.38L283.383 115.272L283.03 114.388C282.693 114.211 282.693 114.211 282.321 114.211L281.791 114.388V114.035L280.733 113.683L280.369 113.606C280.023 113.507 280.023 113.507 279.67 113.154L279.13 112.921L278.612 112.622C278.543 112.331 278.485 112.036 278.432 111.741C277.991 111.442 277.991 111.442 277.55 111.212V110.86H277.02L276.844 109.975L276.832 110.431C276.733 114.46 276.614 118.497 276.134 122.508H275.782C275.808 121.952 275.835 121.397 275.858 120.842L275.881 120.382C275.923 119.501 275.969 118.62 276.027 117.739C276.131 116.092 276.173 114.449 276.169 112.798V112.388C276.154 105.892 275.766 99.1355 274.098 92.8386C273.983 92.3752 273.906 91.9117 273.837 91.4444H273.484L273.308 91.7968L273.005 91.6589L272.591 91.475L272.149 91.2797C271.889 91.1648 271.628 91.0537 271.363 90.9503C270.681 90.6822 270.27 90.3834 269.775 89.8549C269.48 89.6748 269.185 89.4986 268.889 89.3263C267.969 88.7096 267.229 88.0355 266.519 87.1852C266.224 86.8213 266.224 86.8213 265.764 86.4229C265.292 85.8982 265.085 85.3964 264.82 84.7491C264.605 84.2933 264.302 84.0252 263.942 83.6767C263.762 83.2668 263.585 82.857 263.413 82.4433L263.068 82.0335C262.649 81.4896 262.442 80.9687 262.201 80.329C262.047 79.9268 261.89 79.5285 261.725 79.1301L261.579 78.7778C261.484 78.5479 261.391 78.322 261.296 78.0921C260.13 75.2348 260.295 70.9602 260.628 67.919C260.747 67.1032 260.927 66.3026 261.115 65.4983L261.38 64.196C261.56 63.3533 261.787 62.5413 262.043 61.7178C262.251 60.9939 262.396 60.2547 262.55 59.5154C262.83 58.1825 263.16 56.8572 263.482 55.532C263.578 55.1221 263.673 54.7085 263.766 54.2948C264.069 52.9657 264.479 51.8588 265.135 50.6637C265.457 49.8977 265.445 49.1661 265.472 48.3426C265.534 47.8485 265.534 47.8485 265.725 47.5076C265.963 47.2625 265.963 47.2625 266.416 46.9675Z" fill="black"/>
<path d="M280.978 72.5178L281.439 72.7017C281.703 73.1691 281.887 73.5829 282.068 74.081L282.244 74.5484C282.451 75.1078 282.654 75.671 282.85 76.2342L283.092 76.897C286.144 85.3947 288.028 94.2641 288.86 103.245L288.925 103.919C289.447 109.888 289.477 115.999 288.86 121.96L288.756 123.087C287.59 135.117 284.173 146.833 279.141 157.798L278.884 158.354C277.703 160.913 276.407 163.384 274.988 165.817C274.742 166.238 274.501 166.66 274.259 167.081C273.273 168.794 272.207 170.437 271.095 172.07C270.849 172.43 270.608 172.79 270.366 173.15C268.456 175.985 266.37 178.705 264.118 181.28L263.781 181.667C263.102 182.448 262.412 183.215 261.717 183.981C261.484 184.241 261.25 184.502 261.023 184.766C260.31 185.594 259.57 186.379 258.795 187.153L258.446 187.506C258.204 187.751 257.959 187.992 257.717 188.234C257.349 188.601 256.985 188.973 256.617 189.341C255.405 190.559 254.196 191.732 252.808 192.755L252.455 192.402L252.808 191.87C252.754 191.49 252.754 191.49 252.632 191.165L251.746 190.988C252.275 190.341 252.793 189.747 253.429 189.211C254.3 188.46 255.109 187.655 255.922 186.843C256.175 186.586 256.432 186.33 256.689 186.077C257.61 185.153 258.5 184.211 259.347 183.219C259.597 182.943 259.846 182.667 260.099 182.391C263.363 178.774 266.293 174.874 269.02 170.84C269.235 170.522 269.449 170.208 269.668 169.893C273.335 164.564 276.265 158.672 278.731 152.706C278.93 152.227 279.134 151.756 279.337 151.281C281.435 146.366 282.923 141.117 284.089 135.906L284.173 135.538C284.986 131.918 285.615 128.301 286.033 124.608L286.11 123.941C286.628 119.401 286.808 114.873 286.739 110.306L286.731 109.773C286.536 97.1069 283.54 84.8775 279.141 73.0542L279.471 72.9814C279.855 72.8933 279.855 72.8933 280.188 72.6826C280.553 72.5255 280.553 72.5255 280.978 72.5178Z" fill="black"/>
<path d="M276.105 158.562L277.695 158.737L277.871 159.445L277.695 159.621L278.048 159.797C277.818 160.547 277.527 161.22 277.155 161.912L276.829 162.524L276.481 163.166L276.305 163.499C274.699 166.467 272.968 169.328 271.064 172.112C270.823 172.468 270.585 172.824 270.348 173.179C268.44 176.013 266.356 178.729 264.104 181.299L263.767 181.685C263.089 182.466 262.399 183.23 261.706 183.995C261.472 184.255 261.238 184.516 261.012 184.779C260.3 185.606 259.56 186.39 258.787 187.162L258.438 187.514C258.197 187.759 257.952 188 257.71 188.241C257.342 188.608 256.979 188.979 256.611 189.346C255.4 190.562 254.194 191.733 252.807 192.754L252.454 192.402L252.807 191.87C252.753 191.492 252.753 191.492 252.631 191.167L251.746 190.991C252.274 190.344 252.792 189.751 253.427 189.216C254.297 188.466 255.105 187.663 255.917 186.852C256.17 186.596 256.427 186.34 256.684 186.087C257.603 185.166 258.492 184.225 259.338 183.234C259.587 182.959 259.836 182.684 260.089 182.408C263.349 178.798 266.276 174.904 268.999 170.877C269.214 170.559 269.428 170.246 269.647 169.932C272.125 166.333 274.133 162.455 276.105 158.562Z" fill="black"/>
<path d="M255.162 125.873L255.503 126.046C255.399 127.208 255.199 128.307 254.929 129.439L254.817 129.909C254.599 130.838 254.317 131.748 253.965 132.636H253.624C253.939 131.177 254.284 129.728 254.628 128.28L254.762 127.72L254.884 127.212C254.984 126.768 255.077 126.32 255.162 125.873Z" fill="black"/>
<path d="M259.796 165.202H260.145C259.876 166.018 259.44 166.645 258.944 167.33L258.717 167.653C257.805 168.934 257.805 168.934 257.354 169.458H257.006C257.252 168.661 257.645 168.261 258.225 167.684C258.41 167.395 258.581 167.099 258.751 166.799C258.925 166.514 259.103 166.229 259.285 165.945L259.55 165.521L259.796 165.202ZM266.426 153.677H266.775C266.54 154.635 266.195 155.447 265.73 156.313L265.54 156.678C265.378 156.982 265.207 157.279 265.029 157.579L264.681 157.756C264.787 157.078 264.988 156.563 265.306 155.959C265.658 155.301 265.658 155.301 265.73 154.562H266.252L266.426 153.677Z" fill="black"/>
<path d="M254.869 140.527L255.224 140.702C254.881 141.795 254.468 142.833 253.979 143.872H253.624C253.99 142.734 254.41 141.63 254.869 140.527ZM263.039 160.057L263.394 160.408C263.197 160.76 263 161.107 262.804 161.455L262.472 162.043L262.149 162.52L261.617 162.695C261.86 162.046 262.16 161.474 262.526 160.882L262.815 160.412L263.039 160.057Z" fill="black"/>
<path d="M253.249 144.283L253.625 144.458C253.232 145.829 253.232 145.829 252.816 146.335C252.591 146.54 252.358 146.727 252.122 146.913C252.42 146 252.824 145.147 253.249 144.283Z" fill="black"/>
<path d="M30.48 107.752H23.04C22.432 107.752 21.984 107.624 21.696 107.368C21.44 107.08 21.312 106.632 21.312 106.024V74.92C21.312 74.312 21.44 73.88 21.696 73.624C21.984 73.336 22.432 73.192 23.04 73.192H30.48C31.088 73.192 31.52 73.336 31.776 73.624C32.064 73.88 32.208 74.312 32.208 74.92V85.96H34.128L39.072 74.776C39.296 74.2 39.6 73.8 39.984 73.576C40.368 73.32 40.864 73.192 41.472 73.192H48.864C49.408 73.192 49.776 73.336 49.968 73.624C50.16 73.88 50.144 74.264 49.92 74.776L45.024 85.96C46.816 86.056 48.24 86.696 49.296 87.88C50.384 89.032 50.928 90.568 50.928 92.488V106.024C50.928 106.632 50.784 107.08 50.496 107.368C50.24 107.624 49.808 107.752 49.2 107.752H41.808C41.2 107.752 40.752 107.624 40.464 107.368C40.208 107.08 40.08 106.632 40.08 106.024V96.664C40.08 96.152 39.952 95.752 39.696 95.464C39.44 95.176 39.056 95.032 38.544 95.032H32.208V106.024C32.208 106.632 32.064 107.08 31.776 107.368C31.52 107.624 31.088 107.752 30.48 107.752ZM83.2845 107.752H58.8525C58.2445 107.752 57.7965 107.624 57.5085 107.368C57.2525 107.08 57.1245 106.632 57.1245 106.024V74.92C57.1245 74.312 57.2525 73.88 57.5085 73.624C57.7965 73.336 58.2445 73.192 58.8525 73.192H66.2925C66.9005 73.192 67.3325 73.336 67.5885 73.624C67.8765 73.88 68.0205 74.312 68.0205 74.92V98.68H74.5965V90.904C74.5965 90.296 74.7245 89.864 74.9805 89.608C75.2685 89.32 75.7165 89.176 76.3245 89.176H83.2845C83.8925 89.176 84.3245 89.32 84.5805 89.608C84.8685 89.864 85.0125 90.296 85.0125 90.904V106.024C85.0125 106.632 84.8685 107.08 84.5805 107.368C84.3245 107.624 83.8925 107.752 83.2845 107.752ZM103.028 83.272L100.772 90.568H108.308L106.052 83.272C105.924 82.984 105.78 82.776 105.62 82.648C105.492 82.52 105.332 82.456 105.14 82.456H103.94C103.748 82.456 103.572 82.52 103.412 82.648C103.284 82.776 103.156 82.984 103.028 83.272ZM100.292 106.024C100.292 106.632 100.148 107.08 99.8595 107.368C99.6035 107.624 99.1715 107.752 98.5635 107.752H91.5075C90.8995 107.752 90.4515 107.624 90.1635 107.368C89.9075 107.08 89.7795 106.632 89.7795 106.024V93.352C89.7795 92.392 89.9235 91.288 90.2115 90.04C90.5315 88.792 91.0115 87.336 91.6515 85.672L95.8275 74.776C96.0195 74.232 96.3075 73.832 96.6915 73.576C97.1075 73.32 97.6355 73.192 98.2755 73.192H111.188C111.796 73.192 112.292 73.32 112.676 73.576C113.092 73.832 113.396 74.232 113.588 74.776L117.764 85.672C118.404 87.336 118.868 88.792 119.156 90.04C119.476 91.288 119.636 92.392 119.636 93.352V106.024C119.636 106.632 119.492 107.08 119.204 107.368C118.948 107.624 118.516 107.752 117.908 107.752H110.66C110.02 107.752 109.54 107.624 109.22 107.368C108.932 107.08 108.788 106.632 108.788 106.024V99.304H100.292V106.024ZM141.594 107.752H126.426C125.818 107.752 125.37 107.624 125.082 107.368C124.826 107.08 124.698 106.632 124.698 106.024V100.408C124.698 99.8 124.826 99.368 125.082 99.112C125.37 98.824 125.818 98.68 126.426 98.68H139.338C139.754 98.68 140.058 98.552 140.25 98.296C140.474 98.008 140.586 97.672 140.586 97.288C140.586 96.744 140.474 96.344 140.25 96.088C140.058 95.832 139.754 95.688 139.338 95.656L132.138 94.648C129.898 94.328 128.09 93.592 126.714 92.44C125.37 91.288 124.698 89.368 124.698 86.68V81.64C124.698 78.92 125.578 76.84 127.338 75.4C129.098 73.928 131.53 73.192 134.634 73.192H148.074C148.682 73.192 149.114 73.336 149.37 73.624C149.658 73.88 149.802 74.312 149.802 74.92V80.632C149.802 81.24 149.658 81.688 149.37 81.976C149.114 82.232 148.682 82.36 148.074 82.36H136.89C136.474 82.36 136.154 82.504 135.93 82.792C135.706 83.048 135.594 83.384 135.594 83.8C135.594 84.216 135.706 84.568 135.93 84.856C136.154 85.144 136.474 85.304 136.89 85.336L144.042 86.296C146.282 86.616 148.09 87.352 149.466 88.504C150.842 89.656 151.53 91.576 151.53 94.264V99.304C151.53 102.024 150.634 104.12 148.842 105.592C147.082 107.032 144.666 107.752 141.594 107.752ZM157.117 95.416C156.509 95.416 156.061 95.288 155.773 95.032C155.517 94.744 155.389 94.296 155.389 93.688V87.256C155.389 86.648 155.517 86.216 155.773 85.96C156.061 85.672 156.509 85.528 157.117 85.528H169.981C170.589 85.528 171.021 85.672 171.277 85.96C171.565 86.216 171.709 86.648 171.709 87.256V93.688C171.709 94.296 171.565 94.744 171.277 95.032C171.021 95.288 170.589 95.416 169.981 95.416H157.117ZM37.344 165.752H22.176C21.568 165.752 21.12 165.624 20.832 165.368C20.576 165.08 20.448 164.632 20.448 164.024V158.408C20.448 157.8 20.576 157.368 20.832 157.112C21.12 156.824 21.568 156.68 22.176 156.68H35.088C35.504 156.68 35.808 156.552 36 156.296C36.224 156.008 36.336 155.672 36.336 155.288C36.336 154.744 36.224 154.344 36 154.088C35.808 153.832 35.504 153.688 35.088 153.656L27.888 152.648C25.648 152.328 23.84 151.592 22.464 150.44C21.12 149.288 20.448 147.368 20.448 144.68V139.64C20.448 136.92 21.328 134.84 23.088 133.4C24.848 131.928 27.28 131.192 30.384 131.192H43.824C44.432 131.192 44.864 131.336 45.12 131.624C45.408 131.88 45.552 132.312 45.552 132.92V138.632C45.552 139.24 45.408 139.688 45.12 139.976C44.864 140.232 44.432 140.36 43.824 140.36H32.64C32.224 140.36 31.904 140.504 31.68 140.792C31.456 141.048 31.344 141.384 31.344 141.8C31.344 142.216 31.456 142.568 31.68 142.856C31.904 143.144 32.224 143.304 32.64 143.336L39.792 144.296C42.032 144.616 43.84 145.352 45.216 146.504C46.592 147.656 47.28 149.576 47.28 152.264V157.304C47.28 160.024 46.384 162.12 44.592 163.592C42.832 165.032 40.416 165.752 37.344 165.752ZM53.4908 165.752C52.8828 165.752 52.4348 165.624 52.1468 165.368C51.8908 165.08 51.7628 164.632 51.7628 164.024V158.312C51.7628 157.704 51.8908 157.272 52.1468 157.016C52.4348 156.728 52.8828 156.584 53.4908 156.584H58.2428V140.456H53.4908C52.8828 140.456 52.4348 140.328 52.1468 140.072C51.8908 139.784 51.7628 139.336 51.7628 138.728V132.92C51.7628 132.312 51.8908 131.88 52.1468 131.624C52.4348 131.336 52.8828 131.192 53.4908 131.192H73.9388C74.5468 131.192 74.9788 131.336 75.2348 131.624C75.5228 131.88 75.6667 132.312 75.6667 132.92V138.728C75.6667 139.336 75.5228 139.784 75.2348 140.072C74.9788 140.328 74.5468 140.456 73.9388 140.456H69.2828V156.584H73.9388C74.5468 156.584 74.9788 156.728 75.2348 157.016C75.5228 157.272 75.6667 157.704 75.6667 158.312V164.024C75.6667 164.632 75.5228 165.08 75.2348 165.368C74.9788 165.624 74.5468 165.752 73.9388 165.752H53.4908ZM97.6253 165.752H82.4573C81.8493 165.752 81.4013 165.624 81.1133 165.368C80.8573 165.08 80.7293 164.632 80.7293 164.024V158.408C80.7293 157.8 80.8573 157.368 81.1133 157.112C81.4013 156.824 81.8493 156.68 82.4573 156.68H95.3693C95.7853 156.68 96.0893 156.552 96.2813 156.296C96.5053 156.008 96.6173 155.672 96.6173 155.288C96.6173 154.744 96.5053 154.344 96.2813 154.088C96.0893 153.832 95.7853 153.688 95.3693 153.656L88.1693 152.648C85.9293 152.328 84.1213 151.592 82.7453 150.44C81.4013 149.288 80.7293 147.368 80.7293 144.68V139.64C80.7293 136.92 81.6093 134.84 83.3693 133.4C85.1293 131.928 87.5613 131.192 90.6653 131.192H104.105C104.713 131.192 105.145 131.336 105.401 131.624C105.689 131.88 105.833 132.312 105.833 132.92V138.632C105.833 139.24 105.689 139.688 105.401 139.976C105.145 140.232 104.713 140.36 104.105 140.36H92.9213C92.5053 140.36 92.1853 140.504 91.9613 140.792C91.7373 141.048 91.6253 141.384 91.6253 141.8C91.6253 142.216 91.7373 142.568 91.9613 142.856C92.1853 143.144 92.5053 143.304 92.9213 143.336L100.073 144.296C102.313 144.616 104.121 145.352 105.497 146.504C106.873 147.656 107.561 149.576 107.561 152.264V157.304C107.561 160.024 106.665 162.12 104.873 163.592C103.113 165.032 100.697 165.752 97.6253 165.752ZM121.98 165.752H114.54C113.932 165.752 113.484 165.624 113.196 165.368C112.94 165.08 112.812 164.632 112.812 164.024V132.92C112.812 132.312 112.94 131.88 113.196 131.624C113.484 131.336 113.932 131.192 114.54 131.192H121.98C122.588 131.192 123.02 131.336 123.276 131.624C123.564 131.88 123.708 132.312 123.708 132.92V143.96H125.628L130.572 132.776C130.796 132.2 131.1 131.8 131.484 131.576C131.868 131.32 132.364 131.192 132.972 131.192H140.364C140.908 131.192 141.276 131.336 141.468 131.624C141.66 131.88 141.644 132.264 141.42 132.776L136.524 143.96C138.316 144.056 139.74 144.696 140.796 145.88C141.884 147.032 142.428 148.568 142.428 150.488V164.024C142.428 164.632 142.284 165.08 141.996 165.368C141.74 165.624 141.308 165.752 140.7 165.752H133.308C132.7 165.752 132.252 165.624 131.964 165.368C131.708 165.08 131.58 164.632 131.58 164.024V154.664C131.58 154.152 131.452 153.752 131.196 153.464C130.94 153.176 130.556 153.032 130.044 153.032H123.708V164.024C123.708 164.632 123.564 165.08 123.276 165.368C123.02 165.624 122.588 165.752 121.98 165.752Z" fill="#FDEBE6"/>
<mask id="mask0_196_630" style="mask-type:alpha" maskUnits="userSpaceOnUse" x="115" y="30" width="164" height="165">
<path d="M261.817 65.9934C266.25 72.8577 269.577 80.3339 271.666 88.0958C280.39 119.285 267.127 153.941 241.292 170.913C209.465 193.506 161.724 184.689 140.213 153.172C117.27 122.681 124.247 74.6367 155.862 51.7477C180.23 32.7298 217.309 31.2949 244.047 49.5699C250.727 54.04 256.739 59.592 261.817 65.9934C257.39 59.1266 251.847 52.9272 245.399 47.7341C219.749 26.4656 179.091 24.3744 150.618 44.4331C113.687 68.2046 103.467 124.457 130.461 160.163C155.611 197.191 212.167 205.572 246.536 178.228C274.674 157.702 285.747 118.525 273.839 87.4046C270.991 79.6304 266.899 72.3904 261.817 65.9934Z" fill="#D1D1D1"/>
</mask>
<g mask="url(#mask0_196_630)">
<path d="M253.465 148.447C244.455 135.879 247.339 118.386 259.907 109.376L262.691 107.38C275.259 98.37 292.752 101.254 301.762 113.822L307.584 121.944C316.594 134.512 313.71 152.004 301.142 161.014L298.357 163.01C285.789 172.02 268.297 169.136 259.287 156.568L253.465 148.447Z" fill="#D1D1D1"/>
<path d="M235.479 133.656C224.538 118.395 228.04 97.1544 243.301 86.2136L246.086 84.2173C261.347 73.2766 282.588 76.7789 293.529 92.04L297.177 117.724C297.177 117.724 289.172 123.463 279.297 130.543L276.512 132.539C266.637 139.618 258.632 145.357 258.632 145.357L235.479 133.656ZM312.46 118.448C323.401 133.709 319.899 154.95 304.638 165.89L301.853 167.887C286.592 178.827 265.351 175.325 254.41 160.064L264.163 153.072C271.242 162.947 284.986 165.213 294.861 158.134L297.646 156.138C307.521 149.058 309.787 135.314 302.708 125.439L312.46 118.448ZM301.853 167.887C286.592 178.827 265.351 175.325 254.41 160.064L235.479 133.656C224.538 118.395 228.04 97.1544 243.301 86.2136L276.512 132.539C266.637 139.618 258.632 145.357 258.632 145.357L264.163 153.072C271.242 162.947 284.986 165.213 294.861 158.134L301.853 167.887ZM246.086 84.2173C261.347 73.2766 282.588 76.7789 293.529 92.04L312.46 118.448C323.401 133.709 319.899 154.95 304.638 165.89L297.646 156.138C307.521 149.058 309.787 135.314 302.708 125.439L297.177 117.724C297.177 117.724 289.172 123.463 279.297 130.543L246.086 84.2173Z" fill="#D1D1D1"/>
</g>
<mask id="mask1_196_630" style="mask-type:alpha" maskUnits="userSpaceOnUse" x="139" y="49" width="128" height="128">
<path d="M253.536 76.9803C256.854 82.2919 259.314 88.045 260.824 93.9878C267.132 117.882 256.718 143.892 237.204 156.474C213.127 173.219 177.598 166.417 161.551 142.925C144.455 120.185 149.419 84.3527 173.007 66.9271C191.188 52.4847 219.165 50.9729 239.769 64.6178C244.912 67.9565 249.571 72.1325 253.536 76.9803C250.222 71.6671 246.032 66.8437 241.121 62.782C221.605 46.1436 190.05 44.1292 167.763 59.6126C138.858 77.9206 130.652 121.961 151.798 149.917C171.485 178.918 215.829 185.286 242.448 163.788C264.266 147.653 272.489 117.121 262.997 93.2966C260.727 87.3415 257.504 81.8246 253.536 76.9803Z" fill="#D1D1D1"/>
</mask>
<g mask="url(#mask1_196_630)">
<path d="M247.903 141.192C240.581 130.978 242.925 116.762 253.139 109.44C263.353 102.118 277.568 104.462 284.891 114.675L287.821 118.762C295.143 128.976 292.799 143.192 282.585 150.514C272.371 157.836 258.156 155.492 250.833 145.279L247.903 141.192Z" fill="#D1D1D1"/>
<path d="M229.917 126.401C220.665 113.494 223.627 95.5302 236.533 86.2772C249.44 77.0242 267.404 79.9863 276.657 92.8931L287.821 118.762C287.96 118.956 288.096 119.153 288.229 119.351L269.744 132.603L251.26 145.854C251.115 145.665 250.972 145.473 250.833 145.279L229.917 126.401ZM292.697 115.266C301.95 128.173 298.988 146.137 286.081 155.39C273.174 164.643 255.21 161.681 245.957 148.774L255.71 141.783C261.101 149.303 271.569 151.029 279.089 145.638C286.61 140.246 288.336 129.779 282.944 122.258L292.697 115.266ZM286.081 155.39C273.174 164.643 255.21 161.681 245.957 148.774L229.917 126.401C220.665 113.494 223.627 95.5302 236.533 86.2772L269.744 132.603C262.224 137.994 256.127 142.365 256.127 142.365L255.71 141.783C261.101 149.303 271.569 151.029 279.089 145.638L286.081 155.39ZM236.533 86.2772C249.44 77.0242 267.404 79.9863 276.657 92.8931L292.697 115.266C301.95 128.173 298.988 146.137 286.081 155.39L279.089 145.638C286.61 140.246 288.336 129.779 282.944 122.258L283.361 122.84C283.361 122.84 277.265 127.211 269.744 132.603L236.533 86.2772Z" fill="#D1D1D1"/>
</g>
<mask id="mask2_196_630" style="mask-type:alpha" maskUnits="userSpaceOnUse" x="164" y="68" width="92" height="92">
<path d="M245.962 88.5532C248.186 92.34 249.792 96.401 250.735 100.557C254.671 117.287 247.055 134.809 233.746 143.079C217.281 154.082 193.744 149.257 183.062 133.646C171.707 118.518 174.693 94.6775 190.401 82.6169C202.506 72.6674 221.545 71.0802 236.125 80.1784C239.759 82.406 243.089 85.2309 245.962 88.5532C243.741 84.7655 240.879 81.2933 237.477 78.3426C223.985 66.2509 201.368 64.312 185.157 75.3023C164.133 88.2454 157.904 120.294 173.309 140.638C187.63 161.759 219.982 166.149 238.99 150.393C254.603 138.569 260.028 116.527 252.908 99.8663C251.205 95.6975 248.836 91.8727 245.962 88.5532Z" fill="#D1D1D1"/>
</mask>
<g mask="url(#mask2_196_630)">
<path d="M242.021 133.483C236.897 126.336 238.537 116.389 245.684 111.266C252.831 106.142 262.778 107.782 267.901 114.929L269.952 117.789C275.075 124.936 273.435 134.883 266.288 140.006C259.141 145.13 249.194 143.49 244.071 136.343L242.021 133.483Z" fill="#D1D1D1"/>
<path d="M224.035 118.693C216.98 108.853 219.239 95.1573 229.079 88.103L229.079 88.103C238.918 81.0487 252.614 83.3069 259.668 93.1469L269.952 117.789C271.837 120.419 272.877 123.562 272.931 126.798L262.289 134.428L251.646 142.059L251.647 142.057C248.599 140.967 245.957 138.973 244.071 136.343L224.035 118.693ZM274.828 114.293C281.882 124.133 279.624 137.828 269.784 144.883L269.784 144.883C259.944 151.937 246.249 149.679 239.194 139.839L248.947 132.847C252.14 137.301 258.339 138.323 262.792 135.13C267.246 131.937 268.268 125.738 265.075 121.285L274.828 114.293ZM269.784 144.883C259.944 151.937 246.249 149.679 239.194 139.839L224.035 118.693C216.98 108.853 219.239 95.1573 229.079 88.103L262.289 134.428C257.836 137.621 254.225 140.21 254.225 140.21L248.947 132.847C252.14 137.301 258.339 138.323 262.792 135.13L269.784 144.883ZM229.079 88.103C238.918 81.0487 252.614 83.3069 259.668 93.1469L274.828 114.293C281.882 124.133 279.624 137.828 269.784 144.883L262.792 135.13C267.246 131.937 268.268 125.738 265.075 121.285L270.353 128.647C270.353 128.647 266.743 131.236 262.289 134.428L229.079 88.103Z" fill="#D1D1D1"/>
</g>
</svg>
