<svg width="306" height="246" viewBox="0 0 306 246" fill="none" xmlns="http://www.w3.org/2000/svg">
<path d="M0 0H224.288V0.352154H224.64V11.8201H224.992V12.1723L225.279 12.2565C226.362 12.5972 227.337 13.0565 228.344 13.5809C228.562 13.6919 228.784 13.8029 229.006 13.9139L234.34 16.5819V16.934L234.711 16.9838C235.319 17.1369 235.771 17.3934 236.31 17.7149L236.869 18.0479C237.336 18.3465 237.336 18.3465 237.688 18.6986L238.14 18.8632L238.568 19.0508L238.748 19.579C239.276 19.7972 239.276 19.7972 239.804 19.9312V20.2833H240.332V20.6393L240.807 20.6814C241.392 20.8154 241.392 20.8154 241.897 21.1561L242.272 21.5197V21.8718L243.156 22.0479L243.332 22.58H243.86V22.9321L244.564 23.1082V23.4604H245.092V23.8125L245.513 23.9771C245.976 24.1647 245.976 24.1647 246.328 24.3408V24.6929H246.856V25.0489L247.74 25.401V25.7532L248.134 25.8948C248.601 26.0977 248.949 26.2967 249.324 26.6336V26.9896L250.208 27.3417V27.6939L250.912 27.87V28.2221L251.234 28.3752C251.617 28.5743 251.617 28.5743 252.148 28.9264V29.2824L252.443 29.4125C252.933 29.6767 253.342 29.9944 253.778 30.3389L254.253 30.714L254.617 31.0432V31.3992H254.969V31.7513H255.321V32.1035L255.65 32.2681L256.381 32.6317V32.9838L257.085 33.336V33.692H257.613C257.903 33.9676 257.903 33.9676 258.21 34.3389C258.776 35.0317 259.392 35.6518 260.031 36.2796C260.368 36.6087 260.705 36.9418 261.041 37.2748L261.386 37.6078C262.055 38.2738 262.637 38.9552 263.188 39.7207C263.525 40.1609 263.919 40.5322 264.313 40.9226C264.711 41.3743 265.09 41.8375 265.472 42.3006L265.794 42.6949C266.639 43.7284 267.447 44.7848 268.239 45.8604C268.56 46.2968 268.866 46.714 269.249 47.0968V47.625H269.605C269.903 48.0193 270.19 48.425 270.462 48.8384L270.719 49.2174C270.902 49.4892 271.082 49.7571 271.262 50.0289C271.541 50.4461 271.824 50.8633 272.104 51.2806C272.919 52.4901 273.734 53.7035 274.468 54.9667C274.648 55.2691 274.836 55.5715 275.023 55.8701C276.152 57.65 277.109 59.5064 278.065 61.382L278.276 61.7916C278.926 63.0739 279.562 64.3562 280.143 65.6653C280.392 66.2165 280.644 66.76 280.901 67.3036C281.272 68.1112 281.624 68.9304 281.949 69.761C282.137 70.2433 282.34 70.7179 282.542 71.1926C283.377 73.1945 284.107 75.2271 284.769 77.2902C284.896 77.7649 284.896 77.7649 285.122 77.9639C285.125 78.3161 285.129 78.6682 285.122 79.0204H285.474L285.558 79.3381C285.741 80.0079 285.921 80.6778 286.105 81.3476C286.354 82.2701 286.614 83.1888 286.882 84.1036C287.215 85.252 287.498 86.4118 287.777 87.5754L287.907 88.1228C288.037 88.674 288.167 89.2252 288.294 89.7802L288.424 90.3505C288.776 91.9314 289.044 93.5161 289.296 95.1161C289.361 95.541 289.43 95.9697 289.499 96.3946C290.337 101.662 290.444 106.898 290.444 112.219C290.444 112.816 290.444 113.417 290.444 114.018C290.459 117.539 290.417 121.022 290.058 124.529L290 125.095C289.22 132.525 287.448 139.671 285.122 146.753C285.003 147.116 284.884 147.484 284.766 147.851C284.303 149.279 283.824 150.688 283.224 152.066C283.009 152.556 282.814 153.053 282.619 153.551C282.179 154.684 281.678 155.79 281.119 156.869C280.928 157.252 280.763 157.646 280.625 158.052C280.354 158.833 279.94 159.53 279.531 160.242C279.328 160.636 279.206 160.961 279.125 161.39H278.773L278.712 161.777C278.306 163.522 277.093 165.172 276.183 166.695C275.877 167.216 275.578 167.74 275.291 168.272C274.924 168.942 274.507 169.574 274.071 170.202C273.845 170.55 273.657 170.898 273.481 171.269H273.129V171.798H272.777L272.701 172.131C272.601 172.506 272.601 172.506 272.425 172.858H272.073L272.008 173.172C271.889 173.578 271.744 173.834 271.503 174.179L271.262 174.531L271.002 174.894L270.738 175.277C270.118 176.161 269.49 177.038 268.847 177.911C268.572 178.29 268.304 178.676 268.04 179.063L267.665 179.56H267.313V180.089H266.957L266.429 181.145H266.077L265.954 181.52C265.675 182.14 265.277 182.604 264.829 183.109L264.301 183.721L264.034 184.027C263.682 184.441 263.341 184.866 263 185.291C261.332 187.338 259.457 189.206 257.59 191.071C257.215 191.446 256.84 191.821 256.465 192.196L255.405 193.256C254.639 194.018 253.844 194.73 253.029 195.434C252.814 195.626 252.596 195.813 252.382 196.005L251.762 196.548L251.444 196.827C250.882 197.317 250.404 197.677 249.68 197.903V198.255C249.42 198.485 249.42 198.485 249.083 198.718L248.75 198.956L248.444 199.139H248.092V199.492C247.725 199.775 247.35 200.047 246.967 200.307L246.646 200.533C246.367 200.72 246.083 200.9 245.8 201.076H245.448V201.432H244.916V201.784C244.557 202.045 244.185 202.29 243.807 202.523L243.125 202.948L242.781 203.162C242.146 203.561 241.522 203.978 240.898 204.391C240.508 204.605 240.508 204.606 239.98 204.606V204.958C239.574 205.245 239.574 205.245 239.1 205.486H238.568V205.842L238.178 206.052L237.654 206.336L237.141 206.615C236.808 206.799 236.479 206.994 236.157 207.197C235.748 207.427 235.748 207.427 235.22 207.427V207.783L234.868 207.951C233.992 208.38 233.131 208.82 232.281 209.302L231.853 209.543C231.573 209.704 231.294 209.865 231.015 210.029L230.62 210.255L230.268 210.458C229.932 210.604 229.932 210.604 229.224 210.604V210.956C226.591 212.322 226.591 212.322 225.168 212.544V212.896L224.816 213.249C224.758 213.746 224.758 213.746 224.762 214.336L224.754 215.028L224.751 215.779C224.747 216.035 224.743 216.292 224.739 216.544C224.731 217.218 224.728 217.892 224.72 218.565C224.712 219.645 224.701 220.724 224.689 221.804C224.685 222.179 224.682 222.558 224.678 222.933L224.67 223.626L224.666 224.238C224.64 224.713 224.64 224.713 224.464 225.065L156.225 225.241V225.421H151.741C144.237 225.425 136.733 225.425 129.229 225.425H128.85L116.315 225.429C112.017 225.429 107.72 225.432 103.423 225.432C98.3836 225.436 93.3479 225.436 88.3084 225.436H87.9372C85.9627 225.436 83.9844 225.436 82.0061 225.436C80.024 225.44 78.038 225.44 76.052 225.44C74.9768 225.44 73.9015 225.44 72.8225 225.44C71.8391 225.44 70.8556 225.44 69.8722 225.44C69.5164 225.44 69.1567 225.44 68.8008 225.44C68.3187 225.44 67.8365 225.44 67.3505 225.44L66.922 225.444C66.5967 225.44 66.2715 225.432 65.9462 225.421L65.7702 225.241C65.4258 225.226 65.0776 225.222 64.7332 225.222L64.0444 225.218L63.2791 225.222H62.4717C61.7332 225.222 60.9909 225.222 60.2485 225.222C59.4526 225.222 58.6529 225.222 57.8531 225.222C56.4718 225.222 55.0866 225.222 53.7014 225.226C51.7001 225.226 49.6988 225.226 47.6975 225.226C44.4527 225.226 41.2039 225.229 37.9591 225.229C34.806 225.229 31.6491 225.233 28.4961 225.233H24.9833C16.8903 225.237 8.79717 225.237 0.707906 225.241L0.528059 224.713H0V0Z" fill="#ED3B02"/>
<path d="M0 0H224.288V0.352154H224.64V11.8201H224.992V12.1723L225.279 12.2565C226.362 12.5972 227.337 13.0565 228.344 13.5809C228.562 13.6919 228.784 13.8029 229.006 13.9139L234.34 16.5819V16.934L234.711 16.9838C235.319 17.1369 235.771 17.3934 236.31 17.7149L236.869 18.0479C237.336 18.3465 237.336 18.3465 237.688 18.6986L238.14 18.8632L238.568 19.0508L238.748 19.579C239.276 19.7972 239.276 19.7972 239.804 19.9312V20.2833H240.332V20.6393L240.807 20.6814C241.392 20.8154 241.392 20.8154 241.897 21.1561L242.272 21.5197V21.8718L243.156 22.0479L243.332 22.58H243.86V22.9321L244.564 23.1082V23.4604H245.092V23.8125L245.513 23.9771C245.976 24.1647 245.976 24.1647 246.328 24.3408V24.6929H246.856V25.0489L247.74 25.401V25.7532L248.134 25.8948C248.601 26.0977 248.949 26.2967 249.324 26.6336V26.9896L250.208 27.3417V27.6939L250.912 27.87V28.2221L251.234 28.3752C251.617 28.5743 251.617 28.5743 252.148 28.9264V29.2824L252.443 29.4125C252.933 29.6767 253.342 29.9944 253.778 30.3389L254.253 30.714L254.617 31.0432V31.3992H254.969V31.7513H255.321V32.1035L255.65 32.2681L256.381 32.6317V32.9838L257.085 33.336V33.692H257.613C257.903 33.9676 257.903 33.9676 258.21 34.3389C258.776 35.0317 259.392 35.6518 260.031 36.2796C260.368 36.6087 260.705 36.9418 261.041 37.2748L261.386 37.6078C262.055 38.2738 262.637 38.9552 263.188 39.7207C263.525 40.1609 263.919 40.5322 264.313 40.9226C264.711 41.3743 265.09 41.8375 265.472 42.3006L265.794 42.6949C266.639 43.7284 267.447 44.7848 268.239 45.8604C268.56 46.2968 268.866 46.714 269.249 47.0968V47.625H269.605C269.903 48.0193 270.19 48.425 270.462 48.8384L270.719 49.2174C270.902 49.4892 271.082 49.7571 271.262 50.0289C271.541 50.4461 271.824 50.8633 272.104 51.2806C272.919 52.4901 273.734 53.7035 274.468 54.9667C274.648 55.2691 274.836 55.5715 275.023 55.8701C276.152 57.65 277.109 59.5064 278.065 61.382L278.276 61.7916C278.926 63.0739 279.562 64.3562 280.143 65.6653C280.392 66.2165 280.644 66.76 280.901 67.3036C281.272 68.1112 281.624 68.9304 281.949 69.761C282.137 70.2433 282.34 70.7179 282.542 71.1926C283.377 73.1945 284.107 75.2271 284.769 77.2902C284.896 77.7649 284.896 77.7649 285.122 77.9639C285.125 78.3161 285.129 78.6682 285.122 79.0204H285.474L285.558 79.3381C285.741 80.0079 285.921 80.6778 286.105 81.3476C286.354 82.2701 286.614 83.1888 286.882 84.1036C287.215 85.252 287.498 86.4118 287.777 87.5754L287.907 88.1228C288.037 88.674 288.167 89.2252 288.294 89.7802L288.424 90.3505C288.776 91.9314 289.044 93.5161 289.296 95.1161C289.361 95.541 289.43 95.9697 289.499 96.3946C290.337 101.662 290.444 106.898 290.444 112.219C290.444 112.816 290.444 113.417 290.444 114.018C290.459 117.539 290.417 121.022 290.058 124.529L290 125.095C289.22 132.525 287.448 139.671 285.122 146.753C285.003 147.116 284.884 147.484 284.766 147.851C284.303 149.279 283.824 150.688 283.224 152.066C283.009 152.556 282.814 153.053 282.619 153.551C282.179 154.684 281.678 155.79 281.119 156.869C280.928 157.252 280.763 157.646 280.625 158.052C280.354 158.833 279.94 159.53 279.531 160.242C279.328 160.636 279.206 160.961 279.125 161.39H278.773L278.712 161.777C278.306 163.522 277.093 165.172 276.183 166.695C275.877 167.216 275.578 167.74 275.291 168.272C274.924 168.942 274.507 169.574 274.071 170.202C273.845 170.55 273.657 170.898 273.481 171.269H273.129V171.798H272.777L272.701 172.131C272.601 172.506 272.601 172.506 272.425 172.858H272.073L272.008 173.172C271.889 173.578 271.744 173.834 271.503 174.179L271.262 174.531L271.002 174.894L270.738 175.277C270.118 176.161 269.49 177.038 268.847 177.911C268.572 178.29 268.304 178.676 268.04 179.063L267.665 179.56H267.313V180.089H266.957L266.429 181.145H266.077L265.954 181.52C265.675 182.14 265.277 182.604 264.829 183.109L264.301 183.721L264.034 184.027C263.682 184.441 263.341 184.866 263 185.291C261.332 187.338 259.457 189.206 257.59 191.071C257.215 191.446 256.84 191.821 256.465 192.196L255.405 193.256C254.639 194.018 253.844 194.73 253.029 195.434C252.814 195.626 252.596 195.813 252.382 196.005L251.762 196.548L251.444 196.827C250.882 197.317 250.404 197.677 249.68 197.903V198.255C249.42 198.485 249.42 198.485 249.083 198.718L248.75 198.956L248.444 199.139H248.092V199.492C247.725 199.775 247.35 200.047 246.967 200.307L246.646 200.533C246.367 200.72 246.083 200.9 245.8 201.076H245.448V201.432H244.916V201.784C244.557 202.045 244.185 202.29 243.807 202.523L243.125 202.948L242.781 203.162C242.146 203.561 241.522 203.978 240.898 204.391C240.508 204.605 240.508 204.606 239.98 204.606V204.958C239.574 205.245 239.574 205.245 239.1 205.486H238.568V205.842L238.178 206.052L237.654 206.336L237.141 206.615C236.808 206.799 236.479 206.994 236.157 207.197C235.748 207.427 235.748 207.427 235.22 207.427V207.783L234.868 207.951C233.992 208.38 233.131 208.82 232.281 209.302L231.853 209.543C231.573 209.704 231.294 209.865 231.015 210.029L230.62 210.255L230.268 210.458C229.932 210.604 229.932 210.604 229.224 210.604V210.956C226.591 212.322 226.591 212.322 225.168 212.544V212.896L224.816 213.249C224.758 213.746 224.758 213.746 224.762 214.336L224.754 215.028L224.751 215.779C224.747 216.035 224.743 216.292 224.739 216.544C224.731 217.218 224.728 217.892 224.72 218.565C224.712 219.645 224.701 220.724 224.689 221.804C224.685 222.179 224.682 222.558 224.678 222.933L224.67 223.626L224.666 224.238C224.64 224.713 224.64 224.713 224.464 225.065L156.225 225.241V225.421H151.741C144.237 225.425 136.733 225.425 129.229 225.425H128.85L116.315 225.429C112.017 225.429 107.72 225.432 103.423 225.432C98.3836 225.436 93.3479 225.436 88.3084 225.436H87.9372C85.9627 225.436 83.9844 225.436 82.0061 225.436C80.024 225.44 78.038 225.44 76.052 225.44C74.9768 225.44 73.9015 225.44 72.8225 225.44C71.8391 225.44 70.8556 225.44 69.8722 225.44C69.5164 225.44 69.1567 225.44 68.8008 225.44C68.3187 225.44 67.8365 225.44 67.3505 225.44L66.922 225.444C66.5967 225.44 66.2715 225.432 65.9462 225.421L65.7702 225.241C65.4258 225.226 65.0776 225.222 64.7332 225.222L64.0444 225.218L63.2791 225.222H62.4717C61.7332 225.222 60.9909 225.222 60.2485 225.222C59.4526 225.222 58.6529 225.222 57.8531 225.222C56.4718 225.222 55.0866 225.222 53.7014 225.226C51.7001 225.226 49.6988 225.226 47.6975 225.226C44.4527 225.226 41.2039 225.229 37.9591 225.229C34.806 225.229 31.6491 225.233 28.4961 225.233H24.9833C16.8903 225.237 8.79717 225.237 0.707906 225.241L0.528059 224.713H0V0Z" fill="#ED3B02"/>
<path d="M225.016 12.0229C225.273 12.1073 225.525 12.1878 225.781 12.2721L226.21 12.414C226.657 12.5711 227.074 12.7628 227.495 12.9813L227.946 13.2151L228.367 13.4336C228.585 13.5448 228.807 13.656 229.029 13.7672L234.361 16.4391V16.7917L234.732 16.8416C235.34 16.9949 235.792 17.2517 236.331 17.5737L236.889 17.9073C237.356 18.2063 237.356 18.2063 237.708 18.5589L238.159 18.7238L238.588 18.9116L238.767 19.4406C239.295 19.6591 239.295 19.6591 239.823 19.7933V20.146H240.351V20.5025L240.825 20.5446C241.411 20.6788 241.411 20.6788 241.915 21.02L242.29 21.3842V21.7368L243.174 21.9132L243.35 22.446H243.878V22.7987L244.581 22.975V23.3277H245.109V23.6804L245.53 23.8452C245.993 24.0331 245.993 24.0331 246.345 24.2094V24.5621H246.873V24.9186L247.756 25.2713V25.6239L248.15 25.7658C248.617 25.9689 248.965 26.1683 249.34 26.5056V26.8621L250.223 27.2148V27.5675L250.927 27.7438V28.0965L251.249 28.2498C251.631 28.4492 251.631 28.4492 252.163 28.8018V29.1583L252.457 29.2887C252.947 29.5532 253.356 29.8714 253.792 30.2164L254.267 30.592L254.63 30.9217V31.2782H254.982V31.6309H255.334V31.9836L255.663 32.1484L256.393 32.5126V32.8653L257.097 33.2179V33.5744H257.625C257.916 33.8504 257.916 33.8504 258.222 34.2223C258.788 34.9161 259.404 35.5372 260.042 36.1658C260.379 36.4955 260.716 36.829 261.052 37.1625L261.396 37.496C262.066 38.163 262.647 38.8454 263.198 39.6121C263.535 40.0529 263.929 40.4248 264.323 40.8158C264.72 41.2681 265.099 41.732 265.482 42.1958L265.803 42.5906C266.648 43.6257 267.455 44.6837 268.247 45.7609C268.568 46.1979 268.874 46.6157 269.257 46.9991V47.5281H269.613C269.911 47.9229 270.198 48.3293 270.469 48.7433L270.726 49.1228C270.909 49.395 271.089 49.6633 271.269 49.9355C271.548 50.3533 271.831 50.7712 272.11 51.189C272.925 52.4004 273.74 53.6156 274.474 54.8806C274.654 55.1834 274.841 55.4863 275.029 55.7853C276.157 57.5678 277.113 59.427 278.07 61.3054L278.28 61.7156C278.93 62.9998 279.565 64.284 280.147 65.595C280.395 66.147 280.648 66.6914 280.904 67.2357C281.275 68.0446 281.627 68.8649 281.952 69.6968C282.14 70.1798 282.342 70.6551 282.545 71.1305C283.379 73.1353 284.109 75.1709 284.771 77.2371C284.897 77.7125 284.897 77.7125 285.123 77.9118C285.127 78.2645 285.131 78.6171 285.123 78.9698H285.475L285.559 79.288L285.957 80.76L286.106 81.3005C286.355 82.2244 286.615 83.1444 286.883 84.0606C287.215 85.2106 287.498 86.3721 287.778 87.5375L287.908 88.0857C288.038 88.6377 288.168 89.1897 288.294 89.7456L288.424 90.3167C288.776 91.8999 289.044 93.487 289.296 95.0893C289.361 95.5149 289.43 95.9442 289.499 96.3697C290.337 101.644 290.444 106.889 290.444 112.217C290.444 112.815 290.444 113.417 290.444 114.019C290.459 117.546 290.417 121.034 290.057 124.545L290 125.113C289.22 132.553 287.449 139.71 285.123 146.802C285.005 147.166 284.886 147.534 284.767 147.902C284.305 149.332 283.826 150.743 283.226 152.123C283.012 152.614 282.817 153.112 282.622 153.61C282.182 154.745 281.681 155.853 281.122 156.934C280.931 157.317 280.766 157.712 280.629 158.118C280.357 158.9 279.944 159.598 279.535 160.311C279.332 160.706 279.21 161.032 279.129 161.461H278.777L278.716 161.848C278.311 163.596 277.098 165.249 276.188 166.774C275.882 167.296 275.583 167.821 275.297 168.354C274.929 169.025 274.512 169.657 274.076 170.286C273.851 170.635 273.663 170.983 273.487 171.355H273.135V171.884H272.784L272.707 172.218C272.608 172.593 272.608 172.593 272.432 172.946H272.08L272.015 173.26C271.896 173.667 271.751 173.924 271.51 174.269L271.269 174.621L271.009 174.986L270.745 175.369C270.125 176.254 269.498 177.132 268.855 178.006C268.58 178.386 268.312 178.773 268.048 179.16L267.673 179.658H267.321V180.187H266.966L266.438 181.245H266.086L265.963 181.621C265.684 182.242 265.286 182.706 264.839 183.212L264.311 183.825L264.043 184.132C263.691 184.546 263.351 184.972 263.011 185.397C261.343 187.448 259.469 189.319 257.602 191.186C257.227 191.561 256.852 191.937 256.477 192.313L255.418 193.374C254.653 194.137 253.857 194.85 253.042 195.556C252.828 195.747 252.61 195.935 252.396 196.127L251.776 196.671L251.459 196.951C250.897 197.442 250.419 197.802 249.696 198.028V198.381C249.435 198.611 249.435 198.611 249.099 198.845L248.766 199.082L248.46 199.266H248.108V199.619C247.741 199.903 247.366 200.175 246.984 200.436L246.662 200.662C246.383 200.85 246.1 201.03 245.817 201.206H245.465V201.563H244.933V201.915C244.574 202.176 244.203 202.421 243.824 202.655L243.143 203.081L242.799 203.295C242.164 203.694 241.541 204.112 240.917 204.526C240.527 204.741 240.527 204.741 239.999 204.741V205.093C239.594 205.381 239.594 205.381 239.119 205.622H238.588V205.979L238.198 206.19L237.673 206.473L237.161 206.753C236.828 206.937 236.499 207.133 236.178 207.336C235.769 207.566 235.769 207.566 235.241 207.566V207.922L234.889 208.091C234.013 208.52 233.152 208.961 232.303 209.444L231.875 209.686C231.595 209.847 231.316 210.008 231.037 210.172L230.643 210.399L230.291 210.602C229.955 210.747 229.955 210.747 229.247 210.747V211.1C226.615 212.469 226.615 212.469 225.192 212.691V213.044H224.84C224.837 183.112 224.837 183.112 224.833 157.754V129.517C224.833 120.286 224.833 111.052 224.829 101.821C224.825 95.0855 224.825 88.3502 224.825 81.6149V67.9641C224.825 63.6553 224.825 59.3427 224.821 55.0301C224.821 50.0773 224.821 45.1245 224.821 40.1679V39.8114C224.821 37.8372 224.821 35.8668 224.821 33.8926C224.818 32.1676 224.818 30.4425 224.821 28.7213C224.821 27.74 224.821 26.7625 224.818 25.7811C224.818 21.1925 224.867 16.6077 225.016 12.0229Z" fill="#070706"/>
<path d="M266.416 46.9675H266.769C267.045 47.3161 267.313 47.6761 267.566 48.0477L268.046 48.7333L268.295 49.0895C268.517 49.4112 268.748 49.7291 268.978 50.0471C270.128 51.6289 271.202 53.253 272.249 54.9076L272.483 55.2792C274.393 58.3166 276.184 61.442 277.753 64.6671C277.975 65.1191 278.213 65.5672 278.455 66.0115C280.345 69.4358 281.711 73.1205 283.03 76.7937L283.256 77.4219C286.236 85.7527 288.043 94.4665 288.86 103.268L288.925 103.943C289.447 109.91 289.477 116.019 288.86 121.979L288.756 123.105C287.59 135.132 284.173 146.845 279.141 157.807L278.884 158.363C277.703 160.921 276.407 163.392 274.988 165.824C274.742 166.245 274.5 166.667 274.259 167.088C273.273 168.8 272.207 170.443 271.095 172.075C270.849 172.435 270.608 172.795 270.366 173.155C268.456 175.99 266.37 178.709 264.118 181.283L263.781 181.67C263.102 182.451 262.412 183.217 261.717 183.983C261.484 184.244 261.253 184.504 261.023 184.768C260.31 185.596 259.57 186.381 258.795 187.155L258.446 187.507C258.204 187.752 257.959 187.994 257.717 188.235C257.349 188.603 256.985 188.974 256.617 189.342C255.405 190.56 254.196 191.732 252.808 192.755L252.455 192.402L252.808 191.87C252.754 191.491 252.754 191.491 252.632 191.165L251.746 190.989C252.275 190.341 252.793 189.748 253.429 189.212C254.3 188.461 255.109 187.656 255.922 186.844C256.175 186.588 256.432 186.331 256.689 186.078C257.61 185.155 258.5 184.213 259.347 183.221C259.597 182.945 259.846 182.669 260.099 182.394C263.363 178.778 266.293 174.879 269.02 170.846C269.235 170.528 269.449 170.214 269.668 169.899C273.335 164.572 276.265 158.681 278.731 152.717C278.93 152.238 279.134 151.767 279.337 151.292C281.435 146.378 282.923 141.13 284.089 135.921L284.173 135.554C284.986 131.934 285.611 128.318 286.033 124.626L286.106 124.013C286.62 119.758 286.762 115.491 286.915 111.212H286.562L286.57 111.806C286.578 113.212 286.562 114.583 286.386 115.977C285.627 116.207 285.044 116.092 284.265 115.977L284.089 115.449L283.747 115.38L283.383 115.272L283.03 114.388C282.693 114.211 282.693 114.211 282.321 114.211L281.791 114.388V114.035L280.733 113.683L280.368 113.606C280.023 113.507 280.023 113.507 279.67 113.154L279.13 112.921L278.612 112.622C278.543 112.331 278.485 112.036 278.432 111.741C277.991 111.442 277.991 111.442 277.55 111.212V110.86H277.02L276.844 109.975L276.832 110.431C276.733 114.46 276.614 118.497 276.134 122.508H275.781C275.808 121.952 275.835 121.397 275.858 120.842L275.881 120.382C275.923 119.501 275.969 118.62 276.027 117.739C276.13 116.092 276.173 114.449 276.169 112.798V112.388C276.153 105.892 275.766 99.1355 274.098 92.8386C273.983 92.3752 273.906 91.9117 273.837 91.4444H273.484L273.308 91.7968L273.005 91.6589L272.591 91.475L272.149 91.2797C271.889 91.1648 271.628 91.0537 271.363 90.9503C270.681 90.6822 270.27 90.3834 269.775 89.8549C269.48 89.6748 269.185 89.4986 268.889 89.3263C267.969 88.7096 267.229 88.0355 266.519 87.1852C266.224 86.8213 266.224 86.8213 265.764 86.4229C265.292 85.8982 265.085 85.3964 264.82 84.7491C264.605 84.2933 264.302 84.0252 263.942 83.6767C263.762 83.2668 263.585 82.857 263.413 82.4433L263.067 82.0335C262.649 81.4896 262.442 80.9687 262.201 80.329C262.047 79.9268 261.89 79.5285 261.725 79.1301L261.579 78.7778C261.484 78.5479 261.391 78.322 261.296 78.0921C260.13 75.2348 260.295 70.9602 260.628 67.919C260.747 67.1032 260.927 66.3026 261.115 65.4983L261.38 64.196C261.56 63.3533 261.786 62.5413 262.043 61.7178C262.251 60.9939 262.396 60.2547 262.55 59.5154C262.83 58.1825 263.16 56.8572 263.482 55.532C263.578 55.1221 263.673 54.7085 263.766 54.2948C264.068 52.9657 264.479 51.8588 265.135 50.6637C265.457 49.8977 265.445 49.1661 265.472 48.3426C265.534 47.8485 265.534 47.8485 265.725 47.5076C265.963 47.2625 265.963 47.2625 266.416 46.9675Z" fill="black"/>
<path d="M280.978 72.5178L281.439 72.7017C281.703 73.1691 281.887 73.5829 282.068 74.081L282.244 74.5484C282.451 75.1078 282.654 75.671 282.85 76.2342L283.092 76.897C286.144 85.3947 288.028 94.2641 288.86 103.245L288.925 103.919C289.447 109.888 289.477 115.999 288.86 121.96L288.756 123.087C287.59 135.117 284.173 146.833 279.141 157.798L278.884 158.354C277.703 160.913 276.407 163.384 274.988 165.817C274.742 166.238 274.5 166.66 274.259 167.081C273.273 168.794 272.207 170.437 271.095 172.07C270.849 172.43 270.608 172.79 270.366 173.15C268.456 175.985 266.37 178.705 264.118 181.28L263.781 181.667C263.102 182.448 262.412 183.215 261.717 183.981C261.484 184.241 261.25 184.502 261.023 184.766C260.31 185.594 259.57 186.379 258.795 187.153L258.446 187.506C258.204 187.751 257.959 187.992 257.717 188.234C257.349 188.601 256.985 188.973 256.617 189.341C255.405 190.559 254.196 191.732 252.808 192.755L252.455 192.402L252.808 191.87C252.754 191.49 252.754 191.49 252.632 191.165L251.746 190.988C252.275 190.341 252.793 189.747 253.429 189.211C254.3 188.46 255.109 187.655 255.922 186.843C256.175 186.586 256.432 186.33 256.689 186.077C257.61 185.153 258.5 184.211 259.347 183.219C259.597 182.943 259.846 182.667 260.099 182.391C263.363 178.774 266.293 174.874 269.02 170.84C269.235 170.522 269.449 170.208 269.668 169.893C273.335 164.564 276.265 158.672 278.731 152.706C278.93 152.227 279.134 151.756 279.337 151.281C281.435 146.366 282.923 141.117 284.089 135.906L284.173 135.538C284.986 131.918 285.615 128.301 286.033 124.608L286.11 123.941C286.628 119.401 286.808 114.873 286.739 110.306L286.731 109.773C286.536 97.1069 283.54 84.8775 279.141 73.0542L279.471 72.9814C279.855 72.8933 279.855 72.8933 280.188 72.6826C280.553 72.5255 280.553 72.5255 280.978 72.5178Z" fill="black"/>
<path d="M276.105 158.562L277.695 158.737L277.871 159.445L277.695 159.621L278.047 159.797C277.818 160.547 277.527 161.22 277.155 161.912L276.829 162.524L276.481 163.166L276.304 163.499C274.699 166.467 272.968 169.328 271.064 172.112C270.823 172.468 270.585 172.824 270.348 173.179C268.44 176.013 266.356 178.729 264.104 181.299L263.767 181.685C263.088 182.466 262.399 183.23 261.706 183.995C261.472 184.255 261.238 184.516 261.012 184.779C260.3 185.606 259.56 186.39 258.787 187.162L258.438 187.514C258.197 187.759 257.951 188 257.71 188.241C257.342 188.608 256.978 188.979 256.611 189.346C255.4 190.562 254.194 191.733 252.807 192.754L252.454 192.402L252.807 191.87C252.753 191.492 252.753 191.492 252.631 191.167L251.746 190.991C252.274 190.344 252.791 189.751 253.427 189.216C254.297 188.466 255.105 187.663 255.917 186.852C256.17 186.596 256.427 186.34 256.684 186.087C257.603 185.166 258.492 184.225 259.338 183.234C259.587 182.959 259.836 182.684 260.089 182.408C263.349 178.798 266.276 174.904 268.999 170.877C269.214 170.559 269.428 170.246 269.647 169.932C272.125 166.333 274.132 162.455 276.105 158.562Z" fill="black"/>
<path d="M255.162 125.873L255.503 126.046C255.399 127.208 255.199 128.307 254.929 129.439L254.817 129.909C254.599 130.838 254.317 131.748 253.965 132.636H253.624C253.939 131.177 254.284 129.728 254.628 128.28L254.762 127.72L254.884 127.212C254.984 126.768 255.077 126.32 255.162 125.873Z" fill="black"/>
<path d="M259.796 165.202H260.145C259.876 166.018 259.44 166.645 258.944 167.33L258.717 167.653C257.805 168.934 257.805 168.934 257.354 169.458H257.006C257.252 168.661 257.645 168.261 258.225 167.684C258.41 167.395 258.581 167.099 258.751 166.799C258.925 166.514 259.103 166.229 259.285 165.945L259.55 165.521L259.796 165.202ZM266.426 153.677H266.775C266.54 154.635 266.195 155.447 265.73 156.313L265.54 156.678C265.378 156.982 265.207 157.279 265.029 157.579L264.681 157.756C264.787 157.078 264.988 156.563 265.306 155.959C265.658 155.301 265.658 155.301 265.73 154.562H266.252L266.426 153.677Z" fill="black"/>
<path d="M254.869 140.527L255.224 140.702C254.881 141.795 254.468 142.833 253.979 143.872H253.624C253.99 142.734 254.41 141.63 254.869 140.527ZM263.039 160.057L263.394 160.408C263.197 160.76 263 161.107 262.804 161.455L262.472 162.043L262.149 162.52L261.617 162.695C261.86 162.046 262.16 161.474 262.526 160.882L262.815 160.412L263.039 160.057Z" fill="black"/>
<path d="M253.249 144.283L253.625 144.458C253.232 145.829 253.232 145.829 252.816 146.335C252.591 146.54 252.358 146.727 252.122 146.913C252.42 146 252.824 145.147 253.249 144.283Z" fill="black"/>
<path d="M25.975 25.275C25.975 26.0417 25.8583 26.7417 25.625 27.375C25.4083 27.9917 25.0083 28.525 24.425 28.975C23.8583 29.4083 23.0667 29.75 22.05 30C21.05 30.25 19.775 30.375 18.225 30.375C16.675 30.375 15.3917 30.25 14.375 30C13.3583 29.75 12.5583 29.4083 11.975 28.975C11.4083 28.525 11.0083 27.9917 10.775 27.375C10.5583 26.7417 10.45 26.0417 10.45 25.275V16.75C10.45 15.9833 10.5583 15.2917 10.775 14.675C11.0083 14.0417 11.4083 13.5 11.975 13.05C12.5583 12.6 13.3583 12.25 14.375 12C15.3917 11.75 16.675 11.625 18.225 11.625C19.775 11.625 21.05 11.75 22.05 12C23.0667 12.25 23.8583 12.6 24.425 13.05C25.0083 13.5 25.4083 14.0417 25.625 14.675C25.8583 15.2917 25.975 15.9833 25.975 16.75V25.275ZM16.125 24.375C16.125 24.7083 16.25 24.9917 16.5 25.225C16.75 25.4417 17.325 25.55 18.225 25.55C19.125 25.55 19.7 25.4417 19.95 25.225C20.2 24.9917 20.325 24.7083 20.325 24.375V17.65C20.325 17.3333 20.2 17.0667 19.95 16.85C19.7 16.6167 19.125 16.5 18.225 16.5C17.325 16.5 16.75 16.6167 16.5 16.85C16.25 17.0667 16.125 17.3333 16.125 17.65V24.375ZM34.8076 16.5V19.7H36.6826C37.116 19.7 37.4076 19.5917 37.5576 19.375C37.7076 19.1417 37.7826 18.8583 37.7826 18.525V17.675C37.7826 17.3417 37.7076 17.0667 37.5576 16.85C37.4076 16.6167 37.116 16.5 36.6826 16.5H34.8076ZM33.9076 30H30.0576C29.741 30 29.5076 29.9333 29.3576 29.8C29.2243 29.65 29.1576 29.4167 29.1576 29.1V12.9C29.1576 12.5833 29.2243 12.3583 29.3576 12.225C29.5076 12.075 29.741 12 30.0576 12H38.3826C40.2493 12 41.5326 12.3917 42.2326 13.175C42.9493 13.9417 43.3076 14.9417 43.3076 16.175V17.325C43.3076 18.025 43.1993 18.625 42.9826 19.125C42.7826 19.6083 42.4243 19.9583 41.9076 20.175C42.8076 20.275 43.5326 20.6417 44.0826 21.275C44.6493 21.9083 44.9326 22.75 44.9326 23.8V29.1C44.9326 29.4167 44.8576 29.65 44.7076 29.8C44.5743 29.9333 44.3493 30 44.0326 30H40.1576C39.841 30 39.6076 29.9333 39.4576 29.8C39.3243 29.65 39.2576 29.4167 39.2576 29.1V25.275C39.2576 24.9083 39.1826 24.6417 39.0326 24.475C38.8993 24.2917 38.6576 24.2 38.3076 24.2H34.8076V29.1C34.8076 29.4167 34.7326 29.65 34.5826 29.8C34.4493 29.9333 34.2243 30 33.9076 30ZM52.5117 30H48.6367C48.3201 30 48.0867 29.9333 47.9367 29.8C47.8034 29.65 47.7367 29.4167 47.7367 29.1V12.9C47.7367 12.5833 47.8034 12.3583 47.9367 12.225C48.0867 12.075 48.3201 12 48.6367 12H52.5117C52.8284 12 53.0534 12.075 53.1867 12.225C53.3367 12.3583 53.4117 12.5833 53.4117 12.9V18.65H54.4117L56.9867 12.825C57.1034 12.525 57.2617 12.3167 57.4617 12.2C57.6617 12.0667 57.9201 12 58.2367 12H62.0867C62.3701 12 62.5617 12.075 62.6617 12.225C62.7617 12.3583 62.7534 12.5583 62.6367 12.825L60.0867 18.65C61.0201 18.7 61.7617 19.0333 62.3117 19.65C62.8784 20.25 63.1617 21.05 63.1617 22.05V29.1C63.1617 29.4167 63.0867 29.65 62.9367 29.8C62.8034 29.9333 62.5784 30 62.2617 30H58.4117C58.0951 30 57.8617 29.9333 57.7117 29.8C57.5784 29.65 57.5117 29.4167 57.5117 29.1V24.225C57.5117 23.9583 57.4451 23.75 57.3117 23.6C57.1784 23.45 56.9784 23.375 56.7117 23.375H53.4117V29.1C53.4117 29.4167 53.3367 29.65 53.1867 29.8C53.0534 29.9333 52.8284 30 52.5117 30ZM78.8891 30H67.2891C66.9724 30 66.7391 29.9333 66.5891 29.8C66.4557 29.65 66.3891 29.4167 66.3891 29.1V12.9C66.3891 12.5833 66.4557 12.3583 66.5891 12.225C66.7391 12.075 66.9724 12 67.2891 12H78.8891C79.2057 12 79.4307 12.075 79.5641 12.225C79.7141 12.3583 79.7891 12.5833 79.7891 12.9V15.825C79.7891 16.1417 79.7141 16.375 79.5641 16.525C79.4307 16.6583 79.2057 16.725 78.8891 16.725H71.9891V18.65H76.8641C77.1807 18.65 77.4057 18.725 77.5391 18.875C77.6891 19.0083 77.7641 19.2333 77.7641 19.55V22.225C77.7641 22.5417 77.6891 22.775 77.5391 22.925C77.4057 23.0583 77.1807 23.125 76.8641 23.125H71.9891V25.275H78.8891C79.2057 25.275 79.4307 25.35 79.5641 25.5C79.7141 25.6333 79.7891 25.8583 79.7891 26.175V29.1C79.7891 29.4167 79.7141 29.65 79.5641 29.8C79.4307 29.9333 79.2057 30 78.8891 30ZM91.0965 30H83.1965C82.8798 30 82.6465 29.9333 82.4965 29.8C82.3632 29.65 82.2965 29.4167 82.2965 29.1V26.175C82.2965 25.8583 82.3632 25.6333 82.4965 25.5C82.6465 25.35 82.8798 25.275 83.1965 25.275H89.9215C90.1382 25.275 90.2965 25.2083 90.3965 25.075C90.5132 24.925 90.5715 24.75 90.5715 24.55C90.5715 24.2667 90.5132 24.0583 90.3965 23.925C90.2965 23.7917 90.1382 23.7167 89.9215 23.7L86.1715 23.175C85.0048 23.0083 84.0632 22.625 83.3465 22.025C82.6465 21.425 82.2965 20.425 82.2965 19.025V16.4C82.2965 14.9833 82.7548 13.9 83.6715 13.15C84.5882 12.3833 85.8548 12 87.4715 12H94.4715C94.7882 12 95.0132 12.075 95.1465 12.225C95.2965 12.3583 95.3715 12.5833 95.3715 12.9V15.875C95.3715 16.1917 95.2965 16.425 95.1465 16.575C95.0132 16.7083 94.7882 16.775 94.4715 16.775H88.6465C88.4298 16.775 88.2632 16.85 88.1465 17C88.0298 17.1333 87.9715 17.3083 87.9715 17.525C87.9715 17.7417 88.0298 17.925 88.1465 18.075C88.2632 18.225 88.4298 18.3083 88.6465 18.325L92.3715 18.825C93.5382 18.9917 94.4798 19.375 95.1965 19.975C95.9132 20.575 96.2715 21.575 96.2715 22.975V25.6C96.2715 27.0167 95.8048 28.1083 94.8715 28.875C93.9548 29.625 92.6965 30 91.0965 30ZM107.262 30H103.212C102.895 30 102.662 29.9333 102.512 29.8C102.379 29.65 102.312 29.4167 102.312 29.1V16.825H98.6371C98.3204 16.825 98.0871 16.7583 97.9371 16.625C97.8038 16.475 97.7371 16.2417 97.7371 15.925V12.9C97.7371 12.5833 97.8038 12.3583 97.9371 12.225C98.0871 12.075 98.3204 12 98.6371 12H111.837C112.154 12 112.379 12.075 112.512 12.225C112.662 12.3583 112.737 12.5833 112.737 12.9V15.925C112.737 16.2417 112.662 16.475 112.512 16.625C112.379 16.7583 112.154 16.825 111.837 16.825H108.162V29.1C108.162 29.4167 108.087 29.65 107.937 29.8C107.804 29.9333 107.579 30 107.262 30ZM120.818 16.5V19.7H122.693C123.127 19.7 123.418 19.5917 123.568 19.375C123.718 19.1417 123.793 18.8583 123.793 18.525V17.675C123.793 17.3417 123.718 17.0667 123.568 16.85C123.418 16.6167 123.127 16.5 122.693 16.5H120.818ZM119.918 30H116.068C115.752 30 115.518 29.9333 115.368 29.8C115.235 29.65 115.168 29.4167 115.168 29.1V12.9C115.168 12.5833 115.235 12.3583 115.368 12.225C115.518 12.075 115.752 12 116.068 12H124.393C126.26 12 127.543 12.3917 128.243 13.175C128.96 13.9417 129.318 14.9417 129.318 16.175V17.325C129.318 18.025 129.21 18.625 128.993 19.125C128.793 19.6083 128.435 19.9583 127.918 20.175C128.818 20.275 129.543 20.6417 130.093 21.275C130.66 21.9083 130.943 22.75 130.943 23.8V29.1C130.943 29.4167 130.868 29.65 130.718 29.8C130.585 29.9333 130.36 30 130.043 30H126.168C125.852 30 125.618 29.9333 125.468 29.8C125.335 29.65 125.268 29.4167 125.268 29.1V25.275C125.268 24.9083 125.193 24.6417 125.043 24.475C124.91 24.2917 124.668 24.2 124.318 24.2H120.818V29.1C120.818 29.4167 120.743 29.65 120.593 29.8C120.46 29.9333 120.235 30 119.918 30ZM140.272 17.25L139.097 21.05H143.022L141.847 17.25C141.781 17.1 141.706 16.9917 141.622 16.925C141.556 16.8583 141.472 16.825 141.372 16.825H140.747C140.647 16.825 140.556 16.8583 140.472 16.925C140.406 16.9917 140.339 17.1 140.272 17.25ZM138.847 29.1C138.847 29.4167 138.772 29.65 138.622 29.8C138.489 29.9333 138.264 30 137.947 30H134.272C133.956 30 133.722 29.9333 133.572 29.8C133.439 29.65 133.372 29.4167 133.372 29.1V22.5C133.372 22 133.447 21.425 133.597 20.775C133.764 20.125 134.014 19.3667 134.347 18.5L136.522 12.825C136.622 12.5417 136.772 12.3333 136.972 12.2C137.189 12.0667 137.464 12 137.797 12H144.522C144.839 12 145.097 12.0667 145.297 12.2C145.514 12.3333 145.672 12.5417 145.772 12.825L147.947 18.5C148.281 19.3667 148.522 20.125 148.672 20.775C148.839 21.425 148.922 22 148.922 22.5V29.1C148.922 29.4167 148.847 29.65 148.697 29.8C148.564 29.9333 148.339 30 148.022 30H144.247C143.914 30 143.664 29.9333 143.497 29.8C143.347 29.65 143.272 29.4167 143.272 29.1V25.6H138.847V29.1ZM165.634 30H152.909C152.593 30 152.359 29.9333 152.209 29.8C152.076 29.65 152.009 29.4167 152.009 29.1V12.9C152.009 12.5833 152.076 12.3583 152.209 12.225C152.359 12.075 152.593 12 152.909 12H156.784C157.101 12 157.326 12.075 157.459 12.225C157.609 12.3583 157.684 12.5833 157.684 12.9V25.275H161.109V21.225C161.109 20.9083 161.176 20.6833 161.309 20.55C161.459 20.4 161.693 20.325 162.009 20.325H165.634C165.951 20.325 166.176 20.4 166.309 20.55C166.459 20.6833 166.534 20.9083 166.534 21.225V29.1C166.534 29.4167 166.459 29.65 166.309 29.8C166.176 29.9333 165.951 30 165.634 30ZM15.35 60H11.625C11.3083 60 11.075 59.9333 10.925 59.8C10.7917 59.65 10.725 59.4167 10.725 59.1V42.9C10.725 42.5833 10.7917 42.3583 10.925 42.225C11.075 42.075 11.3083 42 11.625 42H15.65C15.9167 42 16.1333 42.0583 16.3 42.175C16.4833 42.2917 16.65 42.4833 16.8 42.75L19.05 46.825C19.1333 46.975 19.2 47.0833 19.25 47.15C19.3167 47.2167 19.4 47.25 19.5 47.25H19.725C19.825 47.25 19.9 47.2167 19.95 47.15C20.0167 47.0833 20.0917 46.975 20.175 46.825L22.4 42.75C22.55 42.4833 22.7083 42.2917 22.875 42.175C23.0583 42.0583 23.2833 42 23.55 42H27.6C27.9167 42 28.1417 42.075 28.275 42.225C28.425 42.3583 28.5 42.5833 28.5 42.9V59.1C28.5 59.4167 28.425 59.65 28.275 59.8C28.1417 59.9333 27.9167 60 27.6 60H23.75C23.4333 60 23.2 59.9333 23.05 59.8C22.9167 59.65 22.85 59.4167 22.85 59.1V50.3L21.375 53.025C21.225 53.3083 21.0417 53.5167 20.825 53.65C20.625 53.7667 20.3667 53.825 20.05 53.825H19.05C18.7333 53.825 18.4667 53.7667 18.25 53.65C18.05 53.5167 17.875 53.3083 17.725 53.025L16.25 50.3V59.1C16.25 59.4167 16.175 59.65 16.025 59.8C15.8917 59.9333 15.6667 60 15.35 60ZM47.2658 55.275C47.2658 56.0417 47.1492 56.7417 46.9158 57.375C46.6992 57.9917 46.2992 58.525 45.7158 58.975C45.1492 59.4083 44.3658 59.75 43.3658 60C42.3658 60.25 41.0908 60.375 39.5408 60.375C37.9908 60.375 36.7158 60.25 35.7158 60C34.7158 59.75 33.9242 59.4083 33.3408 58.975C32.7742 58.525 32.3742 57.9917 32.1408 57.375C31.9242 56.7417 31.8158 56.0417 31.8158 55.275V42.9C31.8158 42.5833 31.8825 42.3583 32.0158 42.225C32.1658 42.075 32.3992 42 32.7158 42H36.6408C36.9575 42 37.1825 42.075 37.3158 42.225C37.4658 42.3583 37.5408 42.5833 37.5408 42.9V54.3C37.5408 54.6333 37.6658 54.9167 37.9158 55.15C38.1658 55.3667 38.7242 55.475 39.5908 55.475C40.4742 55.475 41.0408 55.3667 41.2908 55.15C41.5408 54.9167 41.6658 54.6333 41.6658 54.3V42.9C41.6658 42.5833 41.7325 42.3583 41.8658 42.225C42.0158 42.075 42.2492 42 42.5658 42H46.3658C46.6825 42 46.9075 42.075 47.0408 42.225C47.1908 42.3583 47.2658 42.5833 47.2658 42.9V55.275ZM58.9432 60H51.0432C50.7265 60 50.4932 59.9333 50.3432 59.8C50.2098 59.65 50.1432 59.4167 50.1432 59.1V56.175C50.1432 55.8583 50.2098 55.6333 50.3432 55.5C50.4932 55.35 50.7265 55.275 51.0432 55.275H57.7682C57.9848 55.275 58.1432 55.2083 58.2432 55.075C58.3598 54.925 58.4182 54.75 58.4182 54.55C58.4182 54.2667 58.3598 54.0583 58.2432 53.925C58.1432 53.7917 57.9848 53.7167 57.7682 53.7L54.0182 53.175C52.8515 53.0083 51.9098 52.625 51.1932 52.025C50.4932 51.425 50.1432 50.425 50.1432 49.025V46.4C50.1432 44.9833 50.6015 43.9 51.5182 43.15C52.4348 42.3833 53.7015 42 55.3182 42H62.3182C62.6348 42 62.8598 42.075 62.9932 42.225C63.1432 42.3583 63.2182 42.5833 63.2182 42.9V45.875C63.2182 46.1917 63.1432 46.425 62.9932 46.575C62.8598 46.7083 62.6348 46.775 62.3182 46.775H56.4932C56.2765 46.775 56.1098 46.85 55.9932 47C55.8765 47.1333 55.8182 47.3083 55.8182 47.525C55.8182 47.7417 55.8765 47.925 55.9932 48.075C56.1098 48.225 56.2765 48.3083 56.4932 48.325L60.2182 48.825C61.3848 48.9917 62.3265 49.375 63.0432 49.975C63.7598 50.575 64.1182 51.575 64.1182 52.975V55.6C64.1182 57.0167 63.6515 58.1083 62.7182 58.875C61.8015 59.625 60.5432 60 58.9432 60ZM67.3529 60C67.0363 60 66.8029 59.9333 66.6529 59.8C66.5196 59.65 66.4529 59.4167 66.4529 59.1V56.125C66.4529 55.8083 66.5196 55.5833 66.6529 55.45C66.8029 55.3 67.0363 55.225 67.3529 55.225H69.8279V46.825H67.3529C67.0363 46.825 66.8029 46.7583 66.6529 46.625C66.5196 46.475 66.4529 46.2417 66.4529 45.925V42.9C66.4529 42.5833 66.5196 42.3583 66.6529 42.225C66.8029 42.075 67.0363 42 67.3529 42H78.0029C78.3196 42 78.5446 42.075 78.6779 42.225C78.8279 42.3583 78.9029 42.5833 78.9029 42.9V45.925C78.9029 46.2417 78.8279 46.475 78.6779 46.625C78.5446 46.7583 78.3196 46.825 78.0029 46.825H75.5779V55.225H78.0029C78.3196 55.225 78.5446 55.3 78.6779 55.45C78.8279 55.5833 78.9029 55.8083 78.9029 56.125V59.1C78.9029 59.4167 78.8279 59.65 78.6779 59.8C78.5446 59.9333 78.3196 60 78.0029 60H67.3529ZM86.7646 60H82.8896C82.573 60 82.3396 59.9333 82.1896 59.8C82.0563 59.65 81.9896 59.4167 81.9896 59.1V42.9C81.9896 42.5833 82.0563 42.3583 82.1896 42.225C82.3396 42.075 82.573 42 82.8896 42H86.7646C87.0813 42 87.3063 42.075 87.4396 42.225C87.5896 42.3583 87.6646 42.5833 87.6646 42.9V48.65H88.6646L91.2396 42.825C91.3563 42.525 91.5146 42.3167 91.7146 42.2C91.9146 42.0667 92.173 42 92.4896 42H96.3396C96.623 42 96.8146 42.075 96.9146 42.225C97.0146 42.3583 97.0063 42.5583 96.8896 42.825L94.3396 48.65C95.273 48.7 96.0146 49.0333 96.5646 49.65C97.1313 50.25 97.4146 51.05 97.4146 52.05V59.1C97.4146 59.4167 97.3396 59.65 97.1896 59.8C97.0563 59.9333 96.8313 60 96.5146 60H92.6646C92.348 60 92.1146 59.9333 91.9646 59.8C91.8313 59.65 91.7646 59.4167 91.7646 59.1V54.225C91.7646 53.9583 91.698 53.75 91.5646 53.6C91.4313 53.45 91.2313 53.375 90.9646 53.375H87.6646V59.1C87.6646 59.4167 87.5896 59.65 87.4396 59.8C87.3063 59.9333 87.0813 60 86.7646 60ZM110.882 60H107.157C106.841 60 106.607 59.9333 106.457 59.8C106.324 59.65 106.257 59.4167 106.257 59.1V42.9C106.257 42.5833 106.324 42.3583 106.457 42.225C106.607 42.075 106.841 42 107.157 42H111.182C111.449 42 111.666 42.0583 111.832 42.175C112.016 42.2917 112.182 42.4833 112.332 42.75L114.582 46.825C114.666 46.975 114.732 47.0833 114.782 47.15C114.849 47.2167 114.932 47.25 115.032 47.25H115.257C115.357 47.25 115.432 47.2167 115.482 47.15C115.549 47.0833 115.624 46.975 115.707 46.825L117.932 42.75C118.082 42.4833 118.241 42.2917 118.407 42.175C118.591 42.0583 118.816 42 119.082 42H123.132C123.449 42 123.674 42.075 123.807 42.225C123.957 42.3583 124.032 42.5833 124.032 42.9V59.1C124.032 59.4167 123.957 59.65 123.807 59.8C123.674 59.9333 123.449 60 123.132 60H119.282C118.966 60 118.732 59.9333 118.582 59.8C118.449 59.65 118.382 59.4167 118.382 59.1V50.3L116.907 53.025C116.757 53.3083 116.574 53.5167 116.357 53.65C116.157 53.7667 115.899 53.825 115.582 53.825H114.582C114.266 53.825 113.999 53.7667 113.782 53.65C113.582 53.5167 113.407 53.3083 113.257 53.025L111.782 50.3V59.1C111.782 59.4167 111.707 59.65 111.557 59.8C111.424 59.9333 111.199 60 110.882 60ZM139.973 60H128.373C128.056 60 127.823 59.9333 127.673 59.8C127.54 59.65 127.473 59.4167 127.473 59.1V42.9C127.473 42.5833 127.54 42.3583 127.673 42.225C127.823 42.075 128.056 42 128.373 42H139.973C140.29 42 140.515 42.075 140.648 42.225C140.798 42.3583 140.873 42.5833 140.873 42.9V45.825C140.873 46.1417 140.798 46.375 140.648 46.525C140.515 46.6583 140.29 46.725 139.973 46.725H133.073V48.65H137.948C138.265 48.65 138.49 48.725 138.623 48.875C138.773 49.0083 138.848 49.2333 138.848 49.55V52.225C138.848 52.5417 138.773 52.775 138.623 52.925C138.49 53.0583 138.265 53.125 137.948 53.125H133.073V55.275H139.973C140.29 55.275 140.515 55.35 140.648 55.5C140.798 55.6333 140.873 55.8583 140.873 56.175V59.1C140.873 59.4167 140.798 59.65 140.648 59.8C140.515 59.9333 140.29 60 139.973 60ZM153.155 60H144.73C144.414 60 144.18 59.9333 144.03 59.8C143.897 59.65 143.83 59.4167 143.83 59.1V42.9C143.83 42.5833 143.897 42.3583 144.03 42.225C144.18 42.075 144.414 42 144.73 42H153.155C155.239 42 156.78 42.4167 157.78 43.25C158.797 44.0833 159.305 45.3667 159.305 47.1V54.9C159.305 56.6333 158.797 57.9167 157.78 58.75C156.78 59.5833 155.239 60 153.155 60ZM149.505 46.775V55.275H152.48C152.88 55.275 153.172 55.175 153.355 54.975C153.555 54.775 153.655 54.4667 153.655 54.05V47.975C153.655 47.5583 153.555 47.2583 153.355 47.075C153.172 46.875 152.88 46.775 152.48 46.775H149.505ZM19.075 90H11.175C10.8583 90 10.625 89.9333 10.475 89.8C10.3417 89.65 10.275 89.4167 10.275 89.1V86.175C10.275 85.8583 10.3417 85.6333 10.475 85.5C10.625 85.35 10.8583 85.275 11.175 85.275H17.9C18.1167 85.275 18.275 85.2083 18.375 85.075C18.4917 84.925 18.55 84.75 18.55 84.55C18.55 84.2667 18.4917 84.0583 18.375 83.925C18.275 83.7917 18.1167 83.7167 17.9 83.7L14.15 83.175C12.9833 83.0083 12.0417 82.625 11.325 82.025C10.625 81.425 10.275 80.425 10.275 79.025V76.4C10.275 74.9833 10.7333 73.9 11.65 73.15C12.5667 72.3833 13.8333 72 15.45 72H22.45C22.7667 72 22.9917 72.075 23.125 72.225C23.275 72.3583 23.35 72.5833 23.35 72.9V75.875C23.35 76.1917 23.275 76.425 23.125 76.575C22.9917 76.7083 22.7667 76.775 22.45 76.775H16.625C16.4083 76.775 16.2417 76.85 16.125 77C16.0083 77.1333 15.95 77.3083 15.95 77.525C15.95 77.7417 16.0083 77.925 16.125 78.075C16.2417 78.225 16.4083 78.3083 16.625 78.325L20.35 78.825C21.5167 78.9917 22.4583 79.375 23.175 79.975C23.8917 80.575 24.25 81.575 24.25 82.975V85.6C24.25 87.0167 23.7833 88.1083 22.85 88.875C21.9333 89.625 20.675 90 19.075 90ZM35.2406 90H31.1906C30.874 90 30.6406 89.9333 30.4906 89.8C30.3573 89.65 30.2906 89.4167 30.2906 89.1V76.825H26.6156C26.299 76.825 26.0656 76.7583 25.9156 76.625C25.7823 76.475 25.7156 76.2417 25.7156 75.925V72.9C25.7156 72.5833 25.7823 72.3583 25.9156 72.225C26.0656 72.075 26.299 72 26.6156 72H39.8156C40.1323 72 40.3573 72.075 40.4906 72.225C40.6406 72.3583 40.7156 72.5833 40.7156 72.9V75.925C40.7156 76.2417 40.6406 76.475 40.4906 76.625C40.3573 76.7583 40.1323 76.825 39.8156 76.825H36.1406V89.1C36.1406 89.4167 36.0656 89.65 35.9156 89.8C35.7823 89.9333 35.5573 90 35.2406 90ZM48.7969 76.5V79.7H50.6719C51.1052 79.7 51.3969 79.5917 51.5469 79.375C51.6969 79.1417 51.7719 78.8583 51.7719 78.525V77.675C51.7719 77.3417 51.6969 77.0667 51.5469 76.85C51.3969 76.6167 51.1052 76.5 50.6719 76.5H48.7969ZM47.8969 90H44.0469C43.7302 90 43.4969 89.9333 43.3469 89.8C43.2135 89.65 43.1469 89.4167 43.1469 89.1V72.9C43.1469 72.5833 43.2135 72.3583 43.3469 72.225C43.4969 72.075 43.7302 72 44.0469 72H52.3719C54.2385 72 55.5219 72.3917 56.2219 73.175C56.9385 73.9417 57.2969 74.9417 57.2969 76.175V77.325C57.2969 78.025 57.1885 78.625 56.9719 79.125C56.7719 79.6083 56.4135 79.9583 55.8969 80.175C56.7969 80.275 57.5219 80.6417 58.0719 81.275C58.6385 81.9083 58.9219 82.75 58.9219 83.8V89.1C58.9219 89.4167 58.8469 89.65 58.6969 89.8C58.5635 89.9333 58.3385 90 58.0219 90H54.1469C53.8302 90 53.5969 89.9333 53.4469 89.8C53.3135 89.65 53.2469 89.4167 53.2469 89.1V85.275C53.2469 84.9083 53.1719 84.6417 53.0219 84.475C52.8885 84.2917 52.6469 84.2 52.2969 84.2H48.7969V89.1C48.7969 89.4167 48.7219 89.65 48.5719 89.8C48.4385 89.9333 48.2135 90 47.8969 90ZM77.051 85.275C77.051 86.0417 76.9343 86.7417 76.701 87.375C76.4843 87.9917 76.0843 88.525 75.501 88.975C74.9343 89.4083 74.151 89.75 73.151 90C72.151 90.25 70.876 90.375 69.326 90.375C67.776 90.375 66.501 90.25 65.501 90C64.501 89.75 63.7093 89.4083 63.126 88.975C62.5593 88.525 62.1593 87.9917 61.926 87.375C61.7093 86.7417 61.601 86.0417 61.601 85.275V72.9C61.601 72.5833 61.6676 72.3583 61.801 72.225C61.951 72.075 62.1843 72 62.501 72H66.426C66.7426 72 66.9676 72.075 67.101 72.225C67.251 72.3583 67.326 72.5833 67.326 72.9V84.3C67.326 84.6333 67.451 84.9167 67.701 85.15C67.951 85.3667 68.5093 85.475 69.376 85.475C70.2593 85.475 70.826 85.3667 71.076 85.15C71.326 84.9167 71.451 84.6333 71.451 84.3V72.9C71.451 72.5833 71.5176 72.3583 71.651 72.225C71.801 72.075 72.0343 72 72.351 72H76.151C76.4676 72 76.6926 72.075 76.826 72.225C76.976 72.3583 77.051 72.5833 77.051 72.9V85.275ZM85.1533 90H81.2783C80.9617 90 80.7283 89.9333 80.5783 89.8C80.445 89.65 80.3783 89.4167 80.3783 89.1V72.9C80.3783 72.5833 80.445 72.3583 80.5783 72.225C80.7283 72.075 80.9617 72 81.2783 72H85.1533C85.47 72 85.695 72.075 85.8283 72.225C85.9783 72.3583 86.0533 72.5833 86.0533 72.9V78.65H87.0533L89.6283 72.825C89.745 72.525 89.9033 72.3167 90.1033 72.2C90.3033 72.0667 90.5617 72 90.8783 72H94.7283C95.0117 72 95.2033 72.075 95.3033 72.225C95.4033 72.3583 95.395 72.5583 95.2783 72.825L92.7283 78.65C93.6617 78.7 94.4033 79.0333 94.9533 79.65C95.52 80.25 95.8033 81.05 95.8033 82.05V89.1C95.8033 89.4167 95.7283 89.65 95.5783 89.8C95.445 89.9333 95.22 90 94.9033 90H91.0533C90.7367 90 90.5033 89.9333 90.3533 89.8C90.22 89.65 90.1533 89.4167 90.1533 89.1V84.225C90.1533 83.9583 90.0867 83.75 89.9533 83.6C89.82 83.45 89.62 83.375 89.3533 83.375H86.0533V89.1C86.0533 89.4167 85.9783 89.65 85.8283 89.8C85.695 89.9333 85.47 90 85.1533 90ZM106.896 90H102.846C102.529 90 102.296 89.9333 102.146 89.8C102.013 89.65 101.946 89.4167 101.946 89.1V76.825H98.2709C97.9542 76.825 97.7209 76.7583 97.5709 76.625C97.4376 76.475 97.3709 76.2417 97.3709 75.925V72.9C97.3709 72.5833 97.4376 72.3583 97.5709 72.225C97.7209 72.075 97.9542 72 98.2709 72H111.471C111.788 72 112.013 72.075 112.146 72.225C112.296 72.3583 112.371 72.5833 112.371 72.9V75.925C112.371 76.2417 112.296 76.475 112.146 76.625C112.013 76.7583 111.788 76.825 111.471 76.825H107.796V89.1C107.796 89.4167 107.721 89.65 107.571 89.8C107.438 89.9333 107.213 90 106.896 90ZM130.127 85.275C130.127 86.0417 130.01 86.7417 129.777 87.375C129.56 87.9917 129.16 88.525 128.577 88.975C128.01 89.4083 127.227 89.75 126.227 90C125.227 90.25 123.952 90.375 122.402 90.375C120.852 90.375 119.577 90.25 118.577 90C117.577 89.75 116.785 89.4083 116.202 88.975C115.635 88.525 115.235 87.9917 115.002 87.375C114.785 86.7417 114.677 86.0417 114.677 85.275V72.9C114.677 72.5833 114.744 72.3583 114.877 72.225C115.027 72.075 115.26 72 115.577 72H119.502C119.819 72 120.044 72.075 120.177 72.225C120.327 72.3583 120.402 72.5833 120.402 72.9V84.3C120.402 84.6333 120.527 84.9167 120.777 85.15C121.027 85.3667 121.585 85.475 122.452 85.475C123.335 85.475 123.902 85.3667 124.152 85.15C124.402 84.9167 124.527 84.6333 124.527 84.3V72.9C124.527 72.5833 124.594 72.3583 124.727 72.225C124.877 72.075 125.11 72 125.427 72H129.227C129.544 72 129.769 72.075 129.902 72.225C130.052 72.3583 130.127 72.5833 130.127 72.9V85.275ZM139.104 76.5V79.7H140.979C141.413 79.7 141.704 79.5917 141.854 79.375C142.004 79.1417 142.079 78.8583 142.079 78.525V77.675C142.079 77.3417 142.004 77.0667 141.854 76.85C141.704 76.6167 141.413 76.5 140.979 76.5H139.104ZM138.204 90H134.354C134.038 90 133.804 89.9333 133.654 89.8C133.521 89.65 133.454 89.4167 133.454 89.1V72.9C133.454 72.5833 133.521 72.3583 133.654 72.225C133.804 72.075 134.038 72 134.354 72H142.679C144.546 72 145.829 72.3917 146.529 73.175C147.246 73.9417 147.604 74.9417 147.604 76.175V77.325C147.604 78.025 147.496 78.625 147.279 79.125C147.079 79.6083 146.721 79.9583 146.204 80.175C147.104 80.275 147.829 80.6417 148.379 81.275C148.946 81.9083 149.229 82.75 149.229 83.8V89.1C149.229 89.4167 149.154 89.65 149.004 89.8C148.871 89.9333 148.646 90 148.329 90H144.454C144.138 90 143.904 89.9333 143.754 89.8C143.621 89.65 143.554 89.4167 143.554 89.1V85.275C143.554 84.9083 143.479 84.6417 143.329 84.475C143.196 84.2917 142.954 84.2 142.604 84.2H139.104V89.1C139.104 89.4167 139.029 89.65 138.879 89.8C138.746 89.9333 138.521 90 138.204 90ZM164.534 90H152.934C152.617 90 152.384 89.9333 152.234 89.8C152.1 89.65 152.034 89.4167 152.034 89.1V72.9C152.034 72.5833 152.1 72.3583 152.234 72.225C152.384 72.075 152.617 72 152.934 72H164.534C164.85 72 165.075 72.075 165.209 72.225C165.359 72.3583 165.434 72.5833 165.434 72.9V75.825C165.434 76.1417 165.359 76.375 165.209 76.525C165.075 76.6583 164.85 76.725 164.534 76.725H157.634V78.65H162.509C162.825 78.65 163.05 78.725 163.184 78.875C163.334 79.0083 163.409 79.2333 163.409 79.55V82.225C163.409 82.5417 163.334 82.775 163.184 82.925C163.05 83.0583 162.825 83.125 162.509 83.125H157.634V85.275H164.534C164.85 85.275 165.075 85.35 165.209 85.5C165.359 85.6333 165.434 85.8583 165.434 86.175V89.1C165.434 89.4167 165.359 89.65 165.209 89.8C165.075 89.9333 164.85 90 164.534 90ZM174.041 76.5V79.7H175.916C176.349 79.7 176.641 79.5917 176.791 79.375C176.941 79.1417 177.016 78.8583 177.016 78.525V77.675C177.016 77.3417 176.941 77.0667 176.791 76.85C176.641 76.6167 176.349 76.5 175.916 76.5H174.041ZM173.141 90H169.291C168.974 90 168.741 89.9333 168.591 89.8C168.458 89.65 168.391 89.4167 168.391 89.1V72.9C168.391 72.5833 168.458 72.3583 168.591 72.225C168.741 72.075 168.974 72 169.291 72H177.616C179.483 72 180.766 72.3917 181.466 73.175C182.183 73.9417 182.541 74.9417 182.541 76.175V77.325C182.541 78.025 182.433 78.625 182.216 79.125C182.016 79.6083 181.658 79.9583 181.141 80.175C182.041 80.275 182.766 80.6417 183.316 81.275C183.883 81.9083 184.166 82.75 184.166 83.8V89.1C184.166 89.4167 184.091 89.65 183.941 89.8C183.808 89.9333 183.583 90 183.266 90H179.391C179.074 90 178.841 89.9333 178.691 89.8C178.558 89.65 178.491 89.4167 178.491 89.1V85.275C178.491 84.9083 178.416 84.6417 178.266 84.475C178.133 84.2917 177.891 84.2 177.541 84.2H174.041V89.1C174.041 89.4167 173.966 89.65 173.816 89.8C173.683 89.9333 173.458 90 173.141 90ZM23.225 120H11.625C11.3083 120 11.075 119.933 10.925 119.8C10.7917 119.65 10.725 119.417 10.725 119.1V102.9C10.725 102.583 10.7917 102.358 10.925 102.225C11.075 102.075 11.3083 102 11.625 102H23.225C23.5417 102 23.7667 102.075 23.9 102.225C24.05 102.358 24.125 102.583 24.125 102.9V105.825C24.125 106.142 24.05 106.375 23.9 106.525C23.7667 106.658 23.5417 106.725 23.225 106.725H16.325V108.65H21.2C21.5167 108.65 21.7417 108.725 21.875 108.875C22.025 109.008 22.1 109.233 22.1 109.55V112.225C22.1 112.542 22.025 112.775 21.875 112.925C21.7417 113.058 21.5167 113.125 21.2 113.125H16.325V115.275H23.225C23.5417 115.275 23.7667 115.35 23.9 115.5C24.05 115.633 24.125 115.858 24.125 116.175V119.1C24.125 119.417 24.05 119.65 23.9 119.8C23.7667 119.933 23.5417 120 23.225 120ZM36.4074 120H27.9824C27.6658 120 27.4324 119.933 27.2824 119.8C27.1491 119.65 27.0824 119.417 27.0824 119.1V102.9C27.0824 102.583 27.1491 102.358 27.2824 102.225C27.4324 102.075 27.6658 102 27.9824 102H36.4074C38.4908 102 40.0324 102.417 41.0324 103.25C42.0491 104.083 42.5574 105.367 42.5574 107.1V114.9C42.5574 116.633 42.0491 117.917 41.0324 118.75C40.0324 119.583 38.4908 120 36.4074 120ZM32.7574 106.775V115.275H35.7324C36.1324 115.275 36.4241 115.175 36.6074 114.975C36.8074 114.775 36.9074 114.467 36.9074 114.05V107.975C36.9074 107.558 36.8074 107.258 36.6074 107.075C36.4241 106.875 36.1324 106.775 35.7324 106.775H32.7574ZM58.2348 120H46.6348C46.3181 120 46.0848 119.933 45.9348 119.8C45.8014 119.65 45.7348 119.417 45.7348 119.1V102.9C45.7348 102.583 45.8014 102.358 45.9348 102.225C46.0848 102.075 46.3181 102 46.6348 102H58.2348C58.5514 102 58.7764 102.075 58.9098 102.225C59.0598 102.358 59.1348 102.583 59.1348 102.9V105.825C59.1348 106.142 59.0598 106.375 58.9098 106.525C58.7764 106.658 58.5514 106.725 58.2348 106.725H51.3348V108.65H56.2098C56.5264 108.65 56.7514 108.725 56.8848 108.875C57.0348 109.008 57.1098 109.233 57.1098 109.55V112.225C57.1098 112.542 57.0348 112.775 56.8848 112.925C56.7514 113.058 56.5264 113.125 56.2098 113.125H51.3348V115.275H58.2348C58.5514 115.275 58.7764 115.35 58.9098 115.5C59.0598 115.633 59.1348 115.858 59.1348 116.175V119.1C59.1348 119.417 59.0598 119.65 58.9098 119.8C58.7764 119.933 58.5514 120 58.2348 120ZM72.4824 120H68.6074C68.2908 120 68.0574 119.933 67.9074 119.8C67.7741 119.65 67.7074 119.417 67.7074 119.1V102.9C67.7074 102.583 67.7741 102.358 67.9074 102.225C68.0574 102.075 68.2908 102 68.6074 102H79.7574C80.0741 102 80.2991 102.075 80.4324 102.225C80.5824 102.358 80.6574 102.583 80.6574 102.9V105.875C80.6574 106.192 80.5824 106.425 80.4324 106.575C80.2991 106.708 80.0741 106.775 79.7574 106.775H73.3824V109.375H77.7324C78.0491 109.375 78.2741 109.45 78.4074 109.6C78.5574 109.733 78.6324 109.958 78.6324 110.275V113.275C78.6324 113.592 78.5574 113.825 78.4074 113.975C78.2741 114.108 78.0491 114.175 77.7324 114.175H73.3824V119.1C73.3824 119.417 73.3074 119.65 73.1574 119.8C73.0241 119.933 72.7991 120 72.4824 120ZM98.2895 115.275C98.2895 116.042 98.1728 116.742 97.9395 117.375C97.7228 117.992 97.3228 118.525 96.7395 118.975C96.1728 119.408 95.3811 119.75 94.3645 120C93.3645 120.25 92.0895 120.375 90.5395 120.375C88.9895 120.375 87.7061 120.25 86.6895 120C85.6728 119.75 84.8728 119.408 84.2895 118.975C83.7228 118.525 83.3228 117.992 83.0895 117.375C82.8728 116.742 82.7645 116.042 82.7645 115.275V106.75C82.7645 105.983 82.8728 105.292 83.0895 104.675C83.3228 104.042 83.7228 103.5 84.2895 103.05C84.8728 102.6 85.6728 102.25 86.6895 102C87.7061 101.75 88.9895 101.625 90.5395 101.625C92.0895 101.625 93.3645 101.75 94.3645 102C95.3811 102.25 96.1728 102.6 96.7395 103.05C97.3228 103.5 97.7228 104.042 97.9395 104.675C98.1728 105.292 98.2895 105.983 98.2895 106.75V115.275ZM88.4395 114.375C88.4395 114.708 88.5645 114.992 88.8145 115.225C89.0645 115.442 89.6395 115.55 90.5395 115.55C91.4395 115.55 92.0145 115.442 92.2645 115.225C92.5145 114.992 92.6395 114.708 92.6395 114.375V107.65C92.6395 107.333 92.5145 107.067 92.2645 106.85C92.0145 106.617 91.4395 106.5 90.5395 106.5C89.6395 106.5 89.0645 106.617 88.8145 106.85C88.5645 107.067 88.4395 107.333 88.4395 107.65V114.375ZM107.122 106.5V109.7H108.997C109.43 109.7 109.722 109.592 109.872 109.375C110.022 109.142 110.097 108.858 110.097 108.525V107.675C110.097 107.342 110.022 107.067 109.872 106.85C109.722 106.617 109.43 106.5 108.997 106.5H107.122ZM106.222 120H102.372C102.055 120 101.822 119.933 101.672 119.8C101.539 119.65 101.472 119.417 101.472 119.1V102.9C101.472 102.583 101.539 102.358 101.672 102.225C101.822 102.075 102.055 102 102.372 102H110.697C112.564 102 113.847 102.392 114.547 103.175C115.264 103.942 115.622 104.942 115.622 106.175V107.325C115.622 108.025 115.514 108.625 115.297 109.125C115.097 109.608 114.739 109.958 114.222 110.175C115.122 110.275 115.847 110.642 116.397 111.275C116.964 111.908 117.247 112.75 117.247 113.8V119.1C117.247 119.417 117.172 119.65 117.022 119.8C116.889 119.933 116.664 120 116.347 120H112.472C112.155 120 111.922 119.933 111.772 119.8C111.639 119.65 111.572 119.417 111.572 119.1V115.275C111.572 114.908 111.497 114.642 111.347 114.475C111.214 114.292 110.972 114.2 110.622 114.2H107.122V119.1C107.122 119.417 107.047 119.65 106.897 119.8C106.764 119.933 106.539 120 106.222 120ZM124.676 120H120.951C120.635 120 120.401 119.933 120.251 119.8C120.118 119.65 120.051 119.417 120.051 119.1V102.9C120.051 102.583 120.118 102.358 120.251 102.225C120.401 102.075 120.635 102 120.951 102H124.976C125.243 102 125.46 102.058 125.626 102.175C125.81 102.292 125.976 102.483 126.126 102.75L128.376 106.825C128.46 106.975 128.526 107.083 128.576 107.15C128.643 107.217 128.726 107.25 128.826 107.25H129.051C129.151 107.25 129.226 107.217 129.276 107.15C129.343 107.083 129.418 106.975 129.501 106.825L131.726 102.75C131.876 102.483 132.035 102.292 132.201 102.175C132.385 102.058 132.61 102 132.876 102H136.926C137.243 102 137.468 102.075 137.601 102.225C137.751 102.358 137.826 102.583 137.826 102.9V119.1C137.826 119.417 137.751 119.65 137.601 119.8C137.468 119.933 137.243 120 136.926 120H133.076C132.76 120 132.526 119.933 132.376 119.8C132.243 119.65 132.176 119.417 132.176 119.1V110.3L130.701 113.025C130.551 113.308 130.368 113.517 130.151 113.65C129.951 113.767 129.693 113.825 129.376 113.825H128.376C128.06 113.825 127.793 113.767 127.576 113.65C127.376 113.517 127.201 113.308 127.051 113.025L125.576 110.3V119.1C125.576 119.417 125.501 119.65 125.351 119.8C125.218 119.933 124.993 120 124.676 120ZM153.767 120H142.167C141.85 120 141.617 119.933 141.467 119.8C141.334 119.65 141.267 119.417 141.267 119.1V102.9C141.267 102.583 141.334 102.358 141.467 102.225C141.617 102.075 141.85 102 142.167 102H153.767C154.084 102 154.309 102.075 154.442 102.225C154.592 102.358 154.667 102.583 154.667 102.9V105.825C154.667 106.142 154.592 106.375 154.442 106.525C154.309 106.658 154.084 106.725 153.767 106.725H146.867V108.65H151.742C152.059 108.65 152.284 108.725 152.417 108.875C152.567 109.008 152.642 109.233 152.642 109.55V112.225C152.642 112.542 152.567 112.775 152.417 112.925C152.284 113.058 152.059 113.125 151.742 113.125H146.867V115.275H153.767C154.084 115.275 154.309 115.35 154.442 115.5C154.592 115.633 154.667 115.858 154.667 116.175V119.1C154.667 119.417 154.592 119.65 154.442 119.8C154.309 119.933 154.084 120 153.767 120ZM163.274 106.5V109.7H165.149C165.583 109.7 165.874 109.592 166.024 109.375C166.174 109.142 166.249 108.858 166.249 108.525V107.675C166.249 107.342 166.174 107.067 166.024 106.85C165.874 106.617 165.583 106.5 165.149 106.5H163.274ZM162.374 120H158.524C158.208 120 157.974 119.933 157.824 119.8C157.691 119.65 157.624 119.417 157.624 119.1V102.9C157.624 102.583 157.691 102.358 157.824 102.225C157.974 102.075 158.208 102 158.524 102H166.849C168.716 102 169.999 102.392 170.699 103.175C171.416 103.942 171.774 104.942 171.774 106.175V107.325C171.774 108.025 171.666 108.625 171.449 109.125C171.249 109.608 170.891 109.958 170.374 110.175C171.274 110.275 171.999 110.642 172.549 111.275C173.116 111.908 173.399 112.75 173.399 113.8V119.1C173.399 119.417 173.324 119.65 173.174 119.8C173.041 119.933 172.816 120 172.499 120H168.624C168.308 120 168.074 119.933 167.924 119.8C167.791 119.65 167.724 119.417 167.724 119.1V115.275C167.724 114.908 167.649 114.642 167.499 114.475C167.366 114.292 167.124 114.2 166.774 114.2H163.274V119.1C163.274 119.417 163.199 119.65 163.049 119.8C162.916 119.933 162.691 120 162.374 120ZM179.004 122.5H177.079C176.762 122.5 176.529 122.425 176.379 122.275C176.245 122.142 176.179 121.917 176.179 121.6V120.6C176.179 120.283 176.245 120.058 176.379 119.925C176.529 119.775 176.762 119.7 177.079 119.7H178.804C179.02 119.7 179.187 119.642 179.304 119.525C179.42 119.392 179.479 119.217 179.479 119V118.625H176.754C176.437 118.625 176.204 118.558 176.054 118.425C175.92 118.275 175.854 118.042 175.854 117.725V114.025C175.854 113.708 175.92 113.483 176.054 113.35C176.204 113.2 176.437 113.125 176.754 113.125H181.804C182.12 113.125 182.345 113.2 182.479 113.35C182.629 113.483 182.704 113.708 182.704 114.025V118.725C182.704 119.992 182.362 120.933 181.679 121.55C181.012 122.183 180.12 122.5 179.004 122.5ZM15.5 150H11.625C11.3083 150 11.075 149.933 10.925 149.8C10.7917 149.65 10.725 149.417 10.725 149.1V132.9C10.725 132.583 10.7917 132.358 10.925 132.225C11.075 132.075 11.3083 132 11.625 132H15.5C15.8167 132 16.0417 132.075 16.175 132.225C16.325 132.358 16.4 132.583 16.4 132.9V138.325H20.575V132.9C20.575 132.583 20.6417 132.358 20.775 132.225C20.925 132.075 21.1583 132 21.475 132H25.35C25.6667 132 25.8917 132.075 26.025 132.225C26.175 132.358 26.25 132.583 26.25 132.9V149.1C26.25 149.417 26.175 149.65 26.025 149.8C25.8917 149.933 25.6667 150 25.35 150H21.475C21.1583 150 20.925 149.933 20.775 149.8C20.6417 149.65 20.575 149.417 20.575 149.1V143.55H16.4V149.1C16.4 149.417 16.325 149.65 16.175 149.8C16.0417 149.933 15.8167 150 15.5 150ZM30.1947 150C29.8781 150 29.6447 149.933 29.4947 149.8C29.3614 149.65 29.2947 149.417 29.2947 149.1V146.125C29.2947 145.808 29.3614 145.583 29.4947 145.45C29.6447 145.3 29.8781 145.225 30.1947 145.225H32.6697V136.825H30.1947C29.8781 136.825 29.6447 136.758 29.4947 136.625C29.3614 136.475 29.2947 136.242 29.2947 135.925V132.9C29.2947 132.583 29.3614 132.358 29.4947 132.225C29.6447 132.075 29.8781 132 30.1947 132H40.8447C41.1614 132 41.3864 132.075 41.5197 132.225C41.6697 132.358 41.7447 132.583 41.7447 132.9V135.925C41.7447 136.242 41.6697 136.475 41.5197 136.625C41.3864 136.758 41.1614 136.825 40.8447 136.825H38.4197V145.225H40.8447C41.1614 145.225 41.3864 145.3 41.5197 145.45C41.6697 145.583 41.7447 145.808 41.7447 146.125V149.1C41.7447 149.417 41.6697 149.65 41.5197 149.8C41.3864 149.933 41.1614 150 40.8447 150H30.1947ZM53.1814 150H45.2814C44.9648 150 44.7314 149.933 44.5814 149.8C44.4481 149.65 44.3814 149.417 44.3814 149.1V146.175C44.3814 145.858 44.4481 145.633 44.5814 145.5C44.7314 145.35 44.9648 145.275 45.2814 145.275H52.0064C52.2231 145.275 52.3814 145.208 52.4814 145.075C52.5981 144.925 52.6564 144.75 52.6564 144.55C52.6564 144.267 52.5981 144.058 52.4814 143.925C52.3814 143.792 52.2231 143.717 52.0064 143.7L48.2564 143.175C47.0898 143.008 46.1481 142.625 45.4314 142.025C44.7314 141.425 44.3814 140.425 44.3814 139.025V136.4C44.3814 134.983 44.8398 133.9 45.7564 133.15C46.6731 132.383 47.9398 132 49.5564 132H56.5564C56.8731 132 57.0981 132.075 57.2314 132.225C57.3814 132.358 57.4564 132.583 57.4564 132.9V135.875C57.4564 136.192 57.3814 136.425 57.2314 136.575C57.0981 136.708 56.8731 136.775 56.5564 136.775H50.7314C50.5148 136.775 50.3481 136.85 50.2314 137C50.1148 137.133 50.0564 137.308 50.0564 137.525C50.0564 137.742 50.1148 137.925 50.2314 138.075C50.3481 138.225 50.5148 138.308 50.7314 138.325L54.4564 138.825C55.6231 138.992 56.5648 139.375 57.2814 139.975C57.9981 140.575 58.3564 141.575 58.3564 142.975V145.6C58.3564 147.017 57.8898 148.108 56.9564 148.875C56.0398 149.625 54.7814 150 53.1814 150ZM69.3471 150H65.2971C64.9804 150 64.7471 149.933 64.5971 149.8C64.4637 149.65 64.3971 149.417 64.3971 149.1V136.825H60.7221C60.4054 136.825 60.1721 136.758 60.0221 136.625C59.8887 136.475 59.8221 136.242 59.8221 135.925V132.9C59.8221 132.583 59.8887 132.358 60.0221 132.225C60.1721 132.075 60.4054 132 60.7221 132H73.9221C74.2387 132 74.4637 132.075 74.5971 132.225C74.7471 132.358 74.8221 132.583 74.8221 132.9V135.925C74.8221 136.242 74.7471 136.475 74.5971 136.625C74.4637 136.758 74.2387 136.825 73.9221 136.825H70.2471V149.1C70.2471 149.417 70.1721 149.65 70.0221 149.8C69.8887 149.933 69.6637 150 69.3471 150ZM92.3813 145.275C92.3813 146.042 92.2646 146.742 92.0313 147.375C91.8146 147.992 91.4146 148.525 90.8313 148.975C90.2646 149.408 89.4729 149.75 88.4563 150C87.4563 150.25 86.1813 150.375 84.6313 150.375C83.0813 150.375 81.7979 150.25 80.7813 150C79.7646 149.75 78.9646 149.408 78.3813 148.975C77.8146 148.525 77.4146 147.992 77.1813 147.375C76.9646 146.742 76.8563 146.042 76.8563 145.275V136.75C76.8563 135.983 76.9646 135.292 77.1813 134.675C77.4146 134.042 77.8146 133.5 78.3813 133.05C78.9646 132.6 79.7646 132.25 80.7813 132C81.7979 131.75 83.0813 131.625 84.6313 131.625C86.1813 131.625 87.4563 131.75 88.4563 132C89.4729 132.25 90.2646 132.6 90.8313 133.05C91.4146 133.5 91.8146 134.042 92.0313 134.675C92.2646 135.292 92.3813 135.983 92.3813 136.75V145.275ZM82.5313 144.375C82.5313 144.708 82.6563 144.992 82.9063 145.225C83.1563 145.442 83.7313 145.55 84.6313 145.55C85.5313 145.55 86.1063 145.442 86.3563 145.225C86.6063 144.992 86.7313 144.708 86.7313 144.375V137.65C86.7313 137.333 86.6063 137.067 86.3563 136.85C86.1063 136.617 85.5313 136.5 84.6313 136.5C83.7313 136.5 83.1563 136.617 82.9063 136.85C82.6563 137.067 82.5313 137.333 82.5313 137.65V144.375ZM101.214 136.5V139.7H103.089C103.522 139.7 103.814 139.592 103.964 139.375C104.114 139.142 104.189 138.858 104.189 138.525V137.675C104.189 137.342 104.114 137.067 103.964 136.85C103.814 136.617 103.522 136.5 103.089 136.5H101.214ZM100.314 150H96.4639C96.1472 150 95.9139 149.933 95.7639 149.8C95.6305 149.65 95.5639 149.417 95.5639 149.1V132.9C95.5639 132.583 95.6305 132.358 95.7639 132.225C95.9139 132.075 96.1472 132 96.4639 132H104.789C106.656 132 107.939 132.392 108.639 133.175C109.356 133.942 109.714 134.942 109.714 136.175V137.325C109.714 138.025 109.606 138.625 109.389 139.125C109.189 139.608 108.831 139.958 108.314 140.175C109.214 140.275 109.939 140.642 110.489 141.275C111.056 141.908 111.339 142.75 111.339 143.8V149.1C111.339 149.417 111.264 149.65 111.114 149.8C110.981 149.933 110.756 150 110.439 150H106.564C106.247 150 106.014 149.933 105.864 149.8C105.731 149.65 105.664 149.417 105.664 149.1V145.275C105.664 144.908 105.589 144.642 105.439 144.475C105.306 144.292 105.064 144.2 104.714 144.2H101.214V149.1C101.214 149.417 101.139 149.65 100.989 149.8C100.856 149.933 100.631 150 100.314 150ZM114.643 150C114.326 150 114.093 149.933 113.943 149.8C113.81 149.65 113.743 149.417 113.743 149.1V146.125C113.743 145.808 113.81 145.583 113.943 145.45C114.093 145.3 114.326 145.225 114.643 145.225H117.118V136.825H114.643C114.326 136.825 114.093 136.758 113.943 136.625C113.81 136.475 113.743 136.242 113.743 135.925V132.9C113.743 132.583 113.81 132.358 113.943 132.225C114.093 132.075 114.326 132 114.643 132H125.293C125.61 132 125.835 132.075 125.968 132.225C126.118 132.358 126.193 132.583 126.193 132.9V135.925C126.193 136.242 126.118 136.475 125.968 136.625C125.835 136.758 125.61 136.825 125.293 136.825H122.868V145.225H125.293C125.61 145.225 125.835 145.3 125.968 145.45C126.118 145.583 126.193 145.808 126.193 146.125V149.1C126.193 149.417 126.118 149.65 125.968 149.8C125.835 149.933 125.61 150 125.293 150H114.643ZM141.78 150H130.18C129.863 150 129.63 149.933 129.48 149.8C129.346 149.65 129.28 149.417 129.28 149.1V132.9C129.28 132.583 129.346 132.358 129.48 132.225C129.63 132.075 129.863 132 130.18 132H141.78C142.096 132 142.321 132.075 142.455 132.225C142.605 132.358 142.68 132.583 142.68 132.9V135.825C142.68 136.142 142.605 136.375 142.455 136.525C142.321 136.658 142.096 136.725 141.78 136.725H134.88V138.65H139.755C140.071 138.65 140.296 138.725 140.43 138.875C140.58 139.008 140.655 139.233 140.655 139.55V142.225C140.655 142.542 140.58 142.775 140.43 142.925C140.296 143.058 140.071 143.125 139.755 143.125H134.88V145.275H141.78C142.096 145.275 142.321 145.35 142.455 145.5C142.605 145.633 142.68 145.858 142.68 146.175V149.1C142.68 149.417 142.605 149.65 142.455 149.8C142.321 149.933 142.096 150 141.78 150ZM166.502 145.275C166.502 146.042 166.386 146.742 166.152 147.375C165.936 147.992 165.536 148.525 164.952 148.975C164.386 149.408 163.594 149.75 162.577 150C161.577 150.25 160.302 150.375 158.752 150.375C157.202 150.375 155.919 150.25 154.902 150C153.886 149.75 153.086 149.408 152.502 148.975C151.936 148.525 151.536 147.992 151.302 147.375C151.086 146.742 150.977 146.042 150.977 145.275V136.75C150.977 135.983 151.086 135.292 151.302 134.675C151.536 134.042 151.936 133.5 152.502 133.05C153.086 132.6 153.886 132.25 154.902 132C155.919 131.75 157.202 131.625 158.752 131.625C160.302 131.625 161.577 131.75 162.577 132C163.594 132.25 164.386 132.6 164.952 133.05C165.536 133.5 165.936 134.042 166.152 134.675C166.386 135.292 166.502 135.983 166.502 136.75V145.275ZM156.652 144.375C156.652 144.708 156.777 144.992 157.027 145.225C157.277 145.442 157.852 145.55 158.752 145.55C159.652 145.55 160.227 145.442 160.477 145.225C160.727 144.992 160.852 144.708 160.852 144.375V137.65C160.852 137.333 160.727 137.067 160.477 136.85C160.227 136.617 159.652 136.5 158.752 136.5C157.852 136.5 157.277 136.617 157.027 136.85C156.777 137.067 156.652 137.333 156.652 137.65V144.375ZM183.435 150H175.56C173.477 150 171.927 149.583 170.91 148.75C169.91 147.917 169.41 146.633 169.41 144.9V137.1C169.41 135.367 169.91 134.083 170.91 133.25C171.927 132.417 173.477 132 175.56 132H181.81C182.127 132 182.352 132.075 182.485 132.225C182.635 132.358 182.71 132.583 182.71 132.9V135.925C182.71 136.242 182.635 136.475 182.485 136.625C182.352 136.758 182.127 136.825 181.81 136.825H176.61C176.093 136.825 175.71 136.933 175.46 137.15C175.21 137.35 175.085 137.658 175.085 138.075V144.05C175.085 144.467 175.177 144.775 175.36 144.975C175.56 145.175 175.852 145.275 176.235 145.275H178.66V141.375C178.66 141.058 178.727 140.833 178.86 140.7C179.01 140.55 179.243 140.475 179.56 140.475H183.435C183.752 140.475 183.977 140.55 184.11 140.7C184.26 140.833 184.335 141.058 184.335 141.375V149.1C184.335 149.417 184.26 149.65 184.11 149.8C183.977 149.933 183.752 150 183.435 150ZM26.05 175.275C26.05 176.042 25.9333 176.742 25.7 177.375C25.4833 177.992 25.0833 178.525 24.5 178.975C23.9333 179.408 23.15 179.75 22.15 180C21.15 180.25 19.875 180.375 18.325 180.375C16.775 180.375 15.5 180.25 14.5 180C13.5 179.75 12.7083 179.408 12.125 178.975C11.5583 178.525 11.1583 177.992 10.925 177.375C10.7083 176.742 10.6 176.042 10.6 175.275V162.9C10.6 162.583 10.6667 162.358 10.8 162.225C10.95 162.075 11.1833 162 11.5 162H15.425C15.7417 162 15.9667 162.075 16.1 162.225C16.25 162.358 16.325 162.583 16.325 162.9V174.3C16.325 174.633 16.45 174.917 16.7 175.15C16.95 175.367 17.5083 175.475 18.375 175.475C19.2583 175.475 19.825 175.367 20.075 175.15C20.325 174.917 20.45 174.633 20.45 174.3V162.9C20.45 162.583 20.5167 162.358 20.65 162.225C20.8 162.075 21.0333 162 21.35 162H25.15C25.4667 162 25.6917 162.075 25.825 162.225C25.975 162.358 26.05 162.583 26.05 162.9V175.275ZM38.7023 180H30.2773C29.9607 180 29.7273 179.933 29.5773 179.8C29.444 179.65 29.3773 179.417 29.3773 179.1V162.9C29.3773 162.583 29.444 162.358 29.5773 162.225C29.7273 162.075 29.9607 162 30.2773 162H38.7023C40.7857 162 42.3273 162.417 43.3273 163.25C44.344 164.083 44.8523 165.367 44.8523 167.1V174.9C44.8523 176.633 44.344 177.917 43.3273 178.75C42.3273 179.583 40.7857 180 38.7023 180ZM35.0523 166.775V175.275H38.0273C38.4273 175.275 38.719 175.175 38.9023 174.975C39.1023 174.775 39.2023 174.467 39.2023 174.05V167.975C39.2023 167.558 39.1023 167.258 38.9023 167.075C38.719 166.875 38.4273 166.775 38.0273 166.775H35.0523ZM56.4076 180H52.3576C52.041 180 51.8076 179.933 51.6576 179.8C51.5243 179.65 51.4576 179.417 51.4576 179.1V166.825H47.7826C47.466 166.825 47.2326 166.758 47.0826 166.625C46.9493 166.475 46.8826 166.242 46.8826 165.925V162.9C46.8826 162.583 46.9493 162.358 47.0826 162.225C47.2326 162.075 47.466 162 47.7826 162H60.9826C61.2993 162 61.5243 162.075 61.6576 162.225C61.8076 162.358 61.8826 162.583 61.8826 162.9V165.925C61.8826 166.242 61.8076 166.475 61.6576 166.625C61.5243 166.758 61.2993 166.825 60.9826 166.825H57.3076V179.1C57.3076 179.417 57.2326 179.65 57.0826 179.8C56.9493 179.933 56.7243 180 56.4076 180ZM69.9639 166.5V169.7H71.8389C72.2722 169.7 72.5639 169.592 72.7139 169.375C72.8639 169.142 72.9389 168.858 72.9389 168.525V167.675C72.9389 167.342 72.8639 167.067 72.7139 166.85C72.5639 166.617 72.2722 166.5 71.8389 166.5H69.9639ZM69.0639 180H65.2139C64.8972 180 64.6639 179.933 64.5139 179.8C64.3805 179.65 64.3139 179.417 64.3139 179.1V162.9C64.3139 162.583 64.3805 162.358 64.5139 162.225C64.6639 162.075 64.8972 162 65.2139 162H73.5389C75.4055 162 76.6889 162.392 77.3889 163.175C78.1055 163.942 78.4639 164.942 78.4639 166.175V167.325C78.4639 168.025 78.3555 168.625 78.1389 169.125C77.9389 169.608 77.5805 169.958 77.0639 170.175C77.9639 170.275 78.6889 170.642 79.2389 171.275C79.8055 171.908 80.0889 172.75 80.0889 173.8V179.1C80.0889 179.417 80.0139 179.65 79.8639 179.8C79.7305 179.933 79.5055 180 79.1889 180H75.3139C74.9972 180 74.7639 179.933 74.6139 179.8C74.4805 179.65 74.4139 179.417 74.4139 179.1V175.275C74.4139 174.908 74.3389 174.642 74.1889 174.475C74.0555 174.292 73.8139 174.2 73.4639 174.2H69.9639V179.1C69.9639 179.417 69.8889 179.65 69.7389 179.8C69.6055 179.933 69.3805 180 69.0639 180ZM91.2611 180H87.2111C86.8945 180 86.6611 179.933 86.5111 179.8C86.3778 179.65 86.3111 179.417 86.3111 179.1V175.9L82.4861 170.775C82.1028 170.258 81.8445 169.808 81.7111 169.425C81.5945 169.042 81.5361 168.467 81.5361 167.7V162.9C81.5361 162.583 81.6028 162.358 81.7361 162.225C81.8861 162.075 82.1195 162 82.4361 162H86.2861C86.6028 162 86.8278 162.075 86.9611 162.225C87.1111 162.358 87.1861 162.583 87.1861 162.9V167C87.1861 167.167 87.1945 167.342 87.2111 167.525C87.2278 167.708 87.2945 167.883 87.4111 168.05L88.5611 169.85C88.6445 170 88.7278 170.108 88.8111 170.175C88.9111 170.242 89.0278 170.275 89.1611 170.275H89.4111C89.5445 170.275 89.6528 170.242 89.7361 170.175C89.8361 170.108 89.9278 170 90.0111 169.85L91.1611 168.05C91.2778 167.883 91.3445 167.708 91.3611 167.525C91.3778 167.342 91.3861 167.167 91.3861 167V162.9C91.3861 162.583 91.4528 162.358 91.5861 162.225C91.7361 162.075 91.9695 162 92.2861 162H96.0111C96.3278 162 96.5528 162.075 96.6861 162.225C96.8361 162.358 96.9111 162.583 96.9111 162.9V167.7C96.9111 168.467 96.8445 169.042 96.7111 169.425C96.5778 169.808 96.3278 170.258 95.9611 170.775L92.1611 175.925V179.1C92.1611 179.417 92.0861 179.65 91.9361 179.8C91.8028 179.933 91.5778 180 91.2611 180ZM104.538 180H100.663C100.346 180 100.113 179.933 99.9631 179.8C99.8298 179.65 99.7631 179.417 99.7631 179.1V162.9C99.7631 162.583 99.8298 162.358 99.9631 162.225C100.113 162.075 100.346 162 100.663 162H104.538C104.855 162 105.08 162.075 105.213 162.225C105.363 162.358 105.438 162.583 105.438 162.9V168.65H106.438L109.013 162.825C109.13 162.525 109.288 162.317 109.488 162.2C109.688 162.067 109.946 162 110.263 162H114.113C114.396 162 114.588 162.075 114.688 162.225C114.788 162.358 114.78 162.558 114.663 162.825L112.113 168.65C113.046 168.7 113.788 169.033 114.338 169.65C114.905 170.25 115.188 171.05 115.188 172.05V179.1C115.188 179.417 115.113 179.65 114.963 179.8C114.83 179.933 114.605 180 114.288 180H110.438C110.121 180 109.888 179.933 109.738 179.8C109.605 179.65 109.538 179.417 109.538 179.1V174.225C109.538 173.958 109.471 173.75 109.338 173.6C109.205 173.45 109.005 173.375 108.738 173.375H105.438V179.1C105.438 179.417 105.363 179.65 105.213 179.8C105.08 179.933 104.855 180 104.538 180ZM126.765 180H118.865C118.549 180 118.315 179.933 118.165 179.8C118.032 179.65 117.965 179.417 117.965 179.1V176.175C117.965 175.858 118.032 175.633 118.165 175.5C118.315 175.35 118.549 175.275 118.865 175.275H125.59C125.807 175.275 125.965 175.208 126.065 175.075C126.182 174.925 126.24 174.75 126.24 174.55C126.24 174.267 126.182 174.058 126.065 173.925C125.965 173.792 125.807 173.717 125.59 173.7L121.84 173.175C120.674 173.008 119.732 172.625 119.015 172.025C118.315 171.425 117.965 170.425 117.965 169.025V166.4C117.965 164.983 118.424 163.9 119.34 163.15C120.257 162.383 121.524 162 123.14 162H130.14C130.457 162 130.682 162.075 130.815 162.225C130.965 162.358 131.04 162.583 131.04 162.9V165.875C131.04 166.192 130.965 166.425 130.815 166.575C130.682 166.708 130.457 166.775 130.14 166.775H124.315C124.099 166.775 123.932 166.85 123.815 167C123.699 167.133 123.64 167.308 123.64 167.525C123.64 167.742 123.699 167.925 123.815 168.075C123.932 168.225 124.099 168.308 124.315 168.325L128.04 168.825C129.207 168.992 130.149 169.375 130.865 169.975C131.582 170.575 131.94 171.575 131.94 172.975V175.6C131.94 177.017 131.474 178.108 130.54 178.875C129.624 179.625 128.365 180 126.765 180ZM139.45 180H135.575C135.259 180 135.025 179.933 134.875 179.8C134.742 179.65 134.675 179.417 134.675 179.1V162.9C134.675 162.583 134.742 162.358 134.875 162.225C135.025 162.075 135.259 162 135.575 162H146.725C147.042 162 147.267 162.075 147.4 162.225C147.55 162.358 147.625 162.583 147.625 162.9V165.875C147.625 166.192 147.55 166.425 147.4 166.575C147.267 166.708 147.042 166.775 146.725 166.775H140.35V169.375H144.7C145.017 169.375 145.242 169.45 145.375 169.6C145.525 169.733 145.6 169.958 145.6 170.275V173.275C145.6 173.592 145.525 173.825 145.375 173.975C145.242 174.108 145.017 174.175 144.7 174.175H140.35V179.1C140.35 179.417 140.275 179.65 140.125 179.8C139.992 179.933 139.767 180 139.45 180ZM165.454 175.275C165.454 176.042 165.338 176.742 165.104 177.375C164.888 177.992 164.488 178.525 163.904 178.975C163.338 179.408 162.554 179.75 161.554 180C160.554 180.25 159.279 180.375 157.729 180.375C156.179 180.375 154.904 180.25 153.904 180C152.904 179.75 152.113 179.408 151.529 178.975C150.963 178.525 150.563 177.992 150.329 177.375C150.113 176.742 150.004 176.042 150.004 175.275V162.9C150.004 162.583 150.071 162.358 150.204 162.225C150.354 162.075 150.588 162 150.904 162H154.829C155.146 162 155.371 162.075 155.504 162.225C155.654 162.358 155.729 162.583 155.729 162.9V174.3C155.729 174.633 155.854 174.917 156.104 175.15C156.354 175.367 156.913 175.475 157.779 175.475C158.663 175.475 159.229 175.367 159.479 175.15C159.729 174.917 159.854 174.633 159.854 174.3V162.9C159.854 162.583 159.921 162.358 160.054 162.225C160.204 162.075 160.438 162 160.754 162H164.554C164.871 162 165.096 162.075 165.229 162.225C165.379 162.358 165.454 162.583 165.454 162.9V175.275ZM182.407 180H169.682C169.365 180 169.132 179.933 168.982 179.8C168.848 179.65 168.782 179.417 168.782 179.1V162.9C168.782 162.583 168.848 162.358 168.982 162.225C169.132 162.075 169.365 162 169.682 162H173.557C173.873 162 174.098 162.075 174.232 162.225C174.382 162.358 174.457 162.583 174.457 162.9V175.275H177.882V171.225C177.882 170.908 177.948 170.683 178.082 170.55C178.232 170.4 178.465 170.325 178.782 170.325H182.407C182.723 170.325 182.948 170.4 183.082 170.55C183.232 170.683 183.307 170.908 183.307 171.225V179.1C183.307 179.417 183.232 179.65 183.082 179.8C182.948 179.933 182.723 180 182.407 180ZM195.489 180H187.064C186.748 180 186.514 179.933 186.364 179.8C186.231 179.65 186.164 179.417 186.164 179.1V162.9C186.164 162.583 186.231 162.358 186.364 162.225C186.514 162.075 186.748 162 187.064 162H195.489C197.573 162 199.114 162.417 200.114 163.25C201.131 164.083 201.639 165.367 201.639 167.1V174.9C201.639 176.633 201.131 177.917 200.114 178.75C199.114 179.583 197.573 180 195.489 180ZM191.839 166.775V175.275H194.814C195.214 175.275 195.506 175.175 195.689 174.975C195.889 174.775 195.989 174.467 195.989 174.05V167.975C195.989 167.558 195.889 167.258 195.689 167.075C195.506 166.875 195.214 166.775 194.814 166.775H191.839ZM217.317 180H205.717C205.4 180 205.167 179.933 205.017 179.8C204.883 179.65 204.817 179.417 204.817 179.1V162.9C204.817 162.583 204.883 162.358 205.017 162.225C205.167 162.075 205.4 162 205.717 162H217.317C217.633 162 217.858 162.075 217.992 162.225C218.142 162.358 218.217 162.583 218.217 162.9V165.825C218.217 166.142 218.142 166.375 217.992 166.525C217.858 166.658 217.633 166.725 217.317 166.725H210.417V168.65H215.292C215.608 168.65 215.833 168.725 215.967 168.875C216.117 169.008 216.192 169.233 216.192 169.55V172.225C216.192 172.542 216.117 172.775 215.967 172.925C215.833 173.058 215.608 173.125 215.292 173.125H210.417V175.275H217.317C217.633 175.275 217.858 175.35 217.992 175.5C218.142 175.633 218.217 175.858 218.217 176.175V179.1C218.217 179.417 218.142 179.65 217.992 179.8C217.858 179.933 217.633 180 217.317 180ZM15.5 210H11.625C11.3083 210 11.075 209.933 10.925 209.8C10.7917 209.65 10.725 209.417 10.725 209.1V192.9C10.725 192.583 10.7917 192.358 10.925 192.225C11.075 192.075 11.3083 192 11.625 192H22.775C23.0917 192 23.3167 192.075 23.45 192.225C23.6 192.358 23.675 192.583 23.675 192.9V195.875C23.675 196.192 23.6 196.425 23.45 196.575C23.3167 196.708 23.0917 196.775 22.775 196.775H16.4V199.375H20.75C21.0667 199.375 21.2917 199.45 21.425 199.6C21.575 199.733 21.65 199.958 21.65 200.275V203.275C21.65 203.592 21.575 203.825 21.425 203.975C21.2917 204.108 21.0667 204.175 20.75 204.175H16.4V209.1C16.4 209.417 16.325 209.65 16.175 209.8C16.0417 209.933 15.8167 210 15.5 210ZM30.957 197.65V203.075L33.857 196.25C33.857 196.25 33.8404 196.25 33.807 196.25C33.7737 196.25 33.6904 196.25 33.557 196.25C32.4404 196.25 31.7237 196.383 31.407 196.65C31.107 196.917 30.957 197.25 30.957 197.65ZM33.557 205.8C34.6904 205.8 35.407 205.667 35.707 205.4C36.007 205.133 36.157 204.792 36.157 204.375V198.85L33.207 205.8C33.2237 205.8 33.2487 205.8 33.282 205.8C33.3154 205.8 33.407 205.8 33.557 205.8ZM31.707 210.85C31.557 211.117 31.407 211.333 31.257 211.5C31.107 211.667 30.8737 211.75 30.557 211.75H27.682C27.3654 211.75 27.1404 211.667 27.007 211.5C26.8737 211.333 26.882 211.117 27.032 210.85L27.707 209.225C26.9904 208.775 26.4904 208.217 26.207 207.55C25.9237 206.867 25.782 206.108 25.782 205.275V196.75C25.782 195.983 25.8904 195.292 26.107 194.675C26.3404 194.042 26.7404 193.5 27.307 193.05C27.8904 192.6 28.6904 192.25 29.707 192C30.7237 191.75 32.007 191.625 33.557 191.625C33.8404 191.625 34.1154 191.633 34.382 191.65C34.6487 191.65 34.907 191.658 35.157 191.675L35.382 191.15C35.532 190.883 35.682 190.667 35.832 190.5C35.982 190.333 36.2154 190.25 36.532 190.25H39.407C39.7237 190.25 39.9487 190.333 40.082 190.5C40.2154 190.667 40.207 190.883 40.057 191.15L39.382 192.775C40.1154 193.225 40.6154 193.792 40.882 194.475C41.1654 195.142 41.307 195.9 41.307 196.75V205.275C41.307 206.042 41.1904 206.742 40.957 207.375C40.7404 207.992 40.3404 208.525 39.757 208.975C39.1904 209.408 38.3987 209.75 37.382 210C36.382 210.25 35.107 210.375 33.557 210.375C33.2737 210.375 32.9904 210.367 32.707 210.35C32.4404 210.35 32.182 210.342 31.932 210.325L31.707 210.85ZM58.1146 210H45.3896C45.073 210 44.8396 209.933 44.6896 209.8C44.5563 209.65 44.4896 209.417 44.4896 209.1V192.9C44.4896 192.583 44.5563 192.358 44.6896 192.225C44.8396 192.075 45.073 192 45.3896 192H49.2646C49.5813 192 49.8063 192.075 49.9396 192.225C50.0896 192.358 50.1646 192.583 50.1646 192.9V205.275H53.5896V201.225C53.5896 200.908 53.6563 200.683 53.7896 200.55C53.9396 200.4 54.173 200.325 54.4896 200.325H58.1146C58.4313 200.325 58.6563 200.4 58.7896 200.55C58.9396 200.683 59.0146 200.908 59.0146 201.225V209.1C59.0146 209.417 58.9396 209.65 58.7896 209.8C58.6563 209.933 58.4313 210 58.1146 210ZM74.3725 210H62.7725C62.4558 210 62.2225 209.933 62.0725 209.8C61.9391 209.65 61.8725 209.417 61.8725 209.1V192.9C61.8725 192.583 61.9391 192.358 62.0725 192.225C62.2225 192.075 62.4558 192 62.7725 192H74.3725C74.6891 192 74.9141 192.075 75.0475 192.225C75.1975 192.358 75.2725 192.583 75.2725 192.9V195.825C75.2725 196.142 75.1975 196.375 75.0475 196.525C74.9141 196.658 74.6891 196.725 74.3725 196.725H67.4725V198.65H72.3475C72.6641 198.65 72.8891 198.725 73.0225 198.875C73.1725 199.008 73.2475 199.233 73.2475 199.55V202.225C73.2475 202.542 73.1725 202.775 73.0225 202.925C72.8891 203.058 72.6641 203.125 72.3475 203.125H67.4725V205.275H74.3725C74.6891 205.275 74.9141 205.35 75.0475 205.5C75.1975 205.633 75.2725 205.858 75.2725 206.175V209.1C75.2725 209.417 75.1975 209.65 75.0475 209.8C74.9141 209.933 74.6891 210 74.3725 210ZM91.8549 210H79.1299C78.8132 210 78.5799 209.933 78.4299 209.8C78.2965 209.65 78.2299 209.417 78.2299 209.1V192.9C78.2299 192.583 78.2965 192.358 78.4299 192.225C78.5799 192.075 78.8132 192 79.1299 192H83.0049C83.3215 192 83.5465 192.075 83.6799 192.225C83.8299 192.358 83.9049 192.583 83.9049 192.9V205.275H87.3299V201.225C87.3299 200.908 87.3966 200.683 87.5299 200.55C87.6799 200.4 87.9132 200.325 88.2299 200.325H91.8549C92.1715 200.325 92.3966 200.4 92.5299 200.55C92.6799 200.683 92.7549 200.908 92.7549 201.225V209.1C92.7549 209.417 92.6799 209.65 92.5299 209.8C92.3966 209.933 92.1715 210 91.8549 210ZM103.963 210H96.0627C95.746 210 95.5127 209.933 95.3627 209.8C95.2294 209.65 95.1627 209.417 95.1627 209.1V206.175C95.1627 205.858 95.2294 205.633 95.3627 205.5C95.5127 205.35 95.746 205.275 96.0627 205.275H102.788C103.004 205.275 103.163 205.208 103.263 205.075C103.379 204.925 103.438 204.75 103.438 204.55C103.438 204.267 103.379 204.058 103.263 203.925C103.163 203.792 103.004 203.717 102.788 203.7L99.0377 203.175C97.871 203.008 96.9294 202.625 96.2127 202.025C95.5127 201.425 95.1627 200.425 95.1627 199.025V196.4C95.1627 194.983 95.621 193.9 96.5377 193.15C97.4544 192.383 98.721 192 100.338 192H107.338C107.654 192 107.879 192.075 108.013 192.225C108.163 192.358 108.238 192.583 108.238 192.9V195.875C108.238 196.192 108.163 196.425 108.013 196.575C107.879 196.708 107.654 196.775 107.338 196.775H101.513C101.296 196.775 101.129 196.85 101.013 197C100.896 197.133 100.838 197.308 100.838 197.525C100.838 197.742 100.896 197.925 101.013 198.075C101.129 198.225 101.296 198.308 101.513 198.325L105.238 198.825C106.404 198.992 107.346 199.375 108.063 199.975C108.779 200.575 109.138 201.575 109.138 202.975V205.6C109.138 207.017 108.671 208.108 107.738 208.875C106.821 209.625 105.563 210 103.963 210ZM124.372 210H112.772C112.456 210 112.222 209.933 112.072 209.8C111.939 209.65 111.872 209.417 111.872 209.1V192.9C111.872 192.583 111.939 192.358 112.072 192.225C112.222 192.075 112.456 192 112.772 192H124.372C124.689 192 124.914 192.075 125.047 192.225C125.197 192.358 125.272 192.583 125.272 192.9V195.825C125.272 196.142 125.197 196.375 125.047 196.525C124.914 196.658 124.689 196.725 124.372 196.725H117.472V198.65H122.347C122.664 198.65 122.889 198.725 123.022 198.875C123.172 199.008 123.247 199.233 123.247 199.55V202.225C123.247 202.542 123.172 202.775 123.022 202.925C122.889 203.058 122.664 203.125 122.347 203.125H117.472V205.275H124.372C124.689 205.275 124.914 205.35 125.047 205.5C125.197 205.633 125.272 205.858 125.272 206.175V209.1C125.272 209.417 125.197 209.65 125.047 209.8C124.914 209.933 124.689 210 124.372 210ZM133.88 196.5V199.7H135.755C136.188 199.7 136.48 199.592 136.63 199.375C136.78 199.142 136.855 198.858 136.855 198.525V197.675C136.855 197.342 136.78 197.067 136.63 196.85C136.48 196.617 136.188 196.5 135.755 196.5H133.88ZM132.98 210H129.13C128.813 210 128.58 209.933 128.43 209.8C128.297 209.65 128.23 209.417 128.23 209.1V192.9C128.23 192.583 128.297 192.358 128.43 192.225C128.58 192.075 128.813 192 129.13 192H137.455C139.322 192 140.605 192.392 141.305 193.175C142.022 193.942 142.38 194.942 142.38 196.175V197.325C142.38 198.025 142.272 198.625 142.055 199.125C141.855 199.608 141.497 199.958 140.98 200.175C141.88 200.275 142.605 200.642 143.155 201.275C143.722 201.908 144.005 202.75 144.005 203.8V209.1C144.005 209.417 143.93 209.65 143.78 209.8C143.647 209.933 143.422 210 143.105 210H139.23C138.913 210 138.68 209.933 138.53 209.8C138.397 209.65 138.33 209.417 138.33 209.1V205.275C138.33 204.908 138.255 204.642 138.105 204.475C137.972 204.292 137.73 204.2 137.38 204.2H133.88V209.1C133.88 209.417 133.805 209.65 133.655 209.8C133.522 209.933 133.297 210 132.98 210ZM152.409 210H147.359C147.042 210 146.809 209.933 146.659 209.8C146.526 209.65 146.459 209.417 146.459 209.1V204.025C146.459 203.708 146.526 203.483 146.659 203.35C146.809 203.2 147.042 203.125 147.359 203.125H152.409C152.726 203.125 152.951 203.2 153.084 203.35C153.234 203.483 153.309 203.708 153.309 204.025V209.1C153.309 209.417 153.234 209.65 153.084 209.8C152.951 209.933 152.726 210 152.409 210Z" fill="#FDEBE6"/>
<mask id="mask0_209_785" style="mask-type:alpha" maskUnits="userSpaceOnUse" x="113" y="30" width="164" height="165">
<path d="M259.817 66.1499C264.25 73.0142 267.577 80.4904 269.666 88.2523C278.39 119.442 265.127 154.098 239.292 171.07C207.465 193.662 159.724 184.846 138.213 153.328C138.213 153.328 138.213 153.328 138.213 153.328C115.27 122.838 122.247 74.7932 153.862 51.9042C178.23 32.8863 215.309 31.4514 242.047 49.7264C248.727 54.1965 254.739 59.7485 259.817 66.1499C255.39 59.2831 249.847 53.0837 243.399 47.8906C217.749 26.6221 177.091 24.5309 148.618 44.5896C111.687 68.3611 101.467 124.614 128.461 160.32C153.611 197.348 210.167 205.728 244.536 178.384C272.674 157.858 283.747 118.682 271.839 87.5611C268.991 79.7869 264.899 72.5469 259.817 66.1499Z" fill="#D1D1D1"/>
</mask>
<g mask="url(#mask0_209_785)">
<path d="M251.465 148.603C242.455 136.035 245.339 118.543 257.907 109.533L260.691 107.537C273.259 98.5265 290.752 101.411 299.762 113.979L305.584 122.1C314.594 134.668 311.71 152.16 299.142 161.17L296.357 163.167C283.789 172.177 266.297 169.293 257.287 156.725L251.465 148.603Z" fill="#D1D1D1"/>
<path d="M233.479 133.813C222.538 118.552 226.04 97.3109 241.301 86.3701L244.086 84.3738C259.347 73.4331 280.588 76.9354 291.529 92.1965L295.177 117.881C295.177 117.881 287.172 123.62 277.297 130.699L274.512 132.696C264.637 139.775 256.632 145.514 256.632 145.514L233.479 133.813ZM310.46 118.604C321.401 133.865 317.899 155.106 302.638 166.047L299.853 168.043C284.592 178.984 263.351 175.482 252.41 160.22L262.163 153.229C269.242 163.104 282.986 165.37 292.861 158.29L295.646 156.294C305.521 149.215 307.787 135.471 300.708 125.596L310.46 118.604ZM299.853 168.043C284.592 178.984 263.351 175.482 252.41 160.22L233.479 133.813C222.538 118.552 226.04 97.3109 241.301 86.3701L274.512 132.696C264.637 139.775 256.632 145.514 256.632 145.514L262.163 153.229C269.242 163.104 282.986 165.37 292.861 158.29L299.853 168.043ZM244.086 84.3738C259.347 73.4331 280.588 76.9354 291.529 92.1965L310.46 118.604C321.401 133.865 317.899 155.106 302.638 166.047L295.646 156.294C305.521 149.215 307.787 135.471 300.708 125.596L295.177 117.881C295.177 117.881 287.172 123.62 277.297 130.699L244.086 84.3738Z" fill="#D1D1D1"/>
</g>
<mask id="mask1_209_785" style="mask-type:alpha" maskUnits="userSpaceOnUse" x="137" y="49" width="128" height="128">
<path d="M251.536 77.1368C254.854 82.4484 257.314 88.2015 258.824 94.1443C265.132 118.038 254.718 144.049 235.204 156.63C211.127 173.376 175.598 166.573 159.551 143.081C159.551 143.081 159.551 143.081 159.551 143.081C142.455 120.342 147.419 84.5092 171.007 67.0836C189.188 52.6412 217.165 51.1294 237.769 64.7743C242.912 68.1129 247.571 72.289 251.536 77.1368C248.222 71.8236 244.032 67.0002 239.121 62.9385C219.605 46.3001 188.05 44.2857 165.763 59.7691C136.858 78.0771 128.652 122.118 149.798 150.073C149.798 150.073 149.798 150.073 149.798 150.073C169.485 179.075 213.829 185.442 240.448 163.945C262.266 147.809 270.489 117.278 260.997 93.4531C258.727 87.498 255.504 81.9811 251.536 77.1368Z" fill="#D1D1D1"/>
</mask>
<g mask="url(#mask1_209_785)">
<path d="M245.903 141.348C238.581 131.134 240.925 116.919 251.139 109.596V109.596C261.353 102.274 275.568 104.618 282.891 114.832L285.821 118.919C293.143 129.133 290.799 143.348 280.585 150.67V150.67C270.371 157.993 256.156 155.649 248.833 145.435L245.903 141.348Z" fill="#D1D1D1"/>
<path d="M227.917 126.558C218.665 113.651 221.627 95.6867 234.533 86.4337C247.44 77.1807 265.404 80.1428 274.657 93.0496L285.821 118.919C285.96 119.113 286.096 119.309 286.229 119.507L267.744 132.759L249.26 146.011C249.115 145.821 248.972 145.629 248.833 145.435L227.917 126.558ZM290.697 115.423C299.95 128.33 296.988 146.294 284.081 155.547C271.174 164.8 253.21 161.838 243.957 148.931L253.71 141.939C259.101 149.46 269.569 151.186 277.089 145.794C284.61 140.403 286.336 129.935 280.944 122.415L290.697 115.423ZM284.081 155.547C271.174 164.8 253.21 161.838 243.957 148.931L227.917 126.558C218.665 113.651 221.627 95.6867 234.533 86.4337L267.744 132.759C260.224 138.151 254.127 142.521 254.127 142.521L253.71 141.939C259.101 149.46 269.569 151.186 277.089 145.794L284.081 155.547ZM234.533 86.4337C247.44 77.1807 265.404 80.1428 274.657 93.0496L290.697 115.423C299.95 128.33 296.988 146.294 284.081 155.547L277.089 145.794C284.61 140.403 286.336 129.935 280.944 122.415L281.361 122.997C281.361 122.997 275.265 127.368 267.744 132.759L234.533 86.4337Z" fill="#D1D1D1"/>
</g>
<mask id="mask2_209_785" style="mask-type:alpha" maskUnits="userSpaceOnUse" x="162" y="68" width="92" height="93">
<path d="M243.962 88.7097C246.186 92.4965 247.792 96.5575 248.735 100.714C252.671 117.443 245.055 134.965 231.746 143.235C215.281 154.239 191.744 149.413 181.062 133.803C181.062 133.803 181.062 133.803 181.062 133.803C169.707 118.675 172.693 94.834 188.401 82.7734C200.506 72.8239 219.545 71.2367 234.125 80.3349C237.759 82.5625 241.089 85.3874 243.962 88.7097C241.741 84.922 238.879 81.4497 235.477 78.4991C221.985 66.4074 199.368 64.4685 183.157 75.4588C162.133 88.4019 155.904 120.451 171.309 140.795C171.309 140.795 171.309 140.795 171.309 140.795C185.63 161.915 217.982 166.305 236.99 150.55C252.603 138.726 258.028 116.683 250.908 100.023C249.205 95.854 246.836 92.0291 243.962 88.7097Z" fill="#D1D1D1"/>
</mask>
<g mask="url(#mask2_209_785)">
<path d="M240.021 133.64C234.897 126.493 236.537 116.546 243.684 111.422V111.422C250.831 106.299 260.778 107.939 265.902 115.086L267.952 117.945C273.075 125.092 271.435 135.039 264.288 140.163V140.163C257.142 145.286 247.194 143.646 242.071 136.499L240.021 133.64Z" fill="#D1D1D1"/>
<path d="M222.035 118.849C214.98 109.009 217.239 95.3138 227.079 88.2595L227.079 88.2595C236.919 81.2052 250.614 83.4634 257.668 93.3033L267.952 117.945C269.837 120.576 270.877 123.719 270.931 126.955L260.289 134.585L249.646 142.215L249.647 142.214C246.599 141.123 243.957 139.13 242.071 136.499L222.035 118.849ZM272.828 114.449C279.882 124.289 277.624 137.985 267.784 145.039L267.784 145.039C257.944 152.093 244.249 149.835 237.195 139.995L246.947 133.004C250.14 137.457 256.339 138.479 260.792 135.286C265.246 132.094 266.268 125.895 263.075 121.441L272.828 114.449ZM267.784 145.039C257.944 152.093 244.249 149.835 237.195 139.995L222.035 118.849C214.98 109.009 217.239 95.3138 227.079 88.2595L260.289 134.585C255.836 137.778 252.225 140.366 252.225 140.366L246.947 133.004C250.14 137.457 256.339 138.479 260.792 135.286L267.784 145.039ZM227.079 88.2595C236.919 81.2052 250.614 83.4634 257.668 93.3033L272.828 114.449C279.882 124.289 277.624 137.985 267.784 145.039L260.792 135.286C265.246 132.094 266.268 125.895 263.075 121.441L268.354 128.804C268.354 128.804 264.743 131.392 260.289 134.585L227.079 88.2595Z" fill="#D1D1D1"/>
</g>
</svg>
