<svg width="253" height="82" viewBox="0 0 253 82" fill="none" xmlns="http://www.w3.org/2000/svg">
<mask id="mask0_163_1350" style="mask-type:luminance" maskUnits="userSpaceOnUse" x="92" y="10" width="161" height="63">
<path d="M92 10H253V72.5834H92V10Z" fill="white"/>
</mask>
<g mask="url(#mask0_163_1350)">
<path fill-rule="evenodd" clip-rule="evenodd" d="M135.064 -165.546C114.348 -159.808 99.5143 -145.171 93.5506 -124.582L92.0759 -119.489V7.64743L143.632 7.60948C192.553 7.57153 195.426 7.51189 199.836 6.44565C206.62 4.8029 206.47 4.91133 204.294 3.20895C202.512 1.81379 202.42 1.5662 202.785 -0.868101C203.134 -3.18674 203.002 -3.63855 201.542 -5.16382C200.644 -6.10176 199.322 -6.86982 198.607 -6.86982C197.255 -6.86982 195.479 -8.24872 195.479 -9.2969C195.479 -9.62942 195.871 -9.74869 196.35 -9.56436C197.465 -9.13605 197.515 -8.95172 195.457 -12.9185C194.486 -14.789 193.769 -16.3956 193.861 -16.4859C194.224 -16.851 195.923 -15.1667 197.7 -12.6818C198.966 -10.9198 200.259 -9.17581 201.576 -7.44993C202.68 -6.0114 203.589 -4.52588 203.598 -4.14817C203.606 -3.76866 204.088 -3.30782 204.67 -3.12349C205.252 -2.93915 206.84 -1.48798 208.198 0.100556L210.666 2.98846L213.46 1.57162C216.675 -0.0584745 224.627 -5.94996 227.029 -8.48185C228.377 -9.90411 228.505 -10.2656 227.755 -10.5529C226.741 -10.9414 226.524 -12.9944 227.439 -13.5583C227.762 -13.7589 227.903 -14.1275 227.748 -14.3787C227.594 -14.6281 228.113 -15.707 228.901 -16.7751C229.689 -17.845 230.345 -18.9943 230.358 -19.3323C230.37 -19.6702 231.14 -20.8341 232.069 -21.9202C233.354 -23.4238 233.679 -24.2786 233.433 -25.5057C233.231 -26.5213 233.536 -27.94 234.263 -29.3442C234.895 -30.5677 236.018 -32.9514 236.757 -34.6393C237.496 -36.3272 238.445 -37.9935 238.866 -38.3422C239.285 -38.691 239.629 -39.5097 239.629 -40.1603C239.629 -41.3964 244.042 -47.5517 244.927 -47.5517C245.207 -47.5517 245.437 -48.8927 245.437 -50.53V-53.5083L248.663 -53.2408C251.328 -53.0203 251.984 -53.1523 252.438 -54.0016C252.774 -54.6306 252.989 -76.8067 252.989 -110.863V-166.697L195.914 -166.645C142.844 -166.596 138.575 -166.518 135.064 -165.546ZM117.259 -129.006C113.685 -126.695 108.648 -120.754 107.97 -118.051C107.495 -116.16 108.691 -112.25 110.117 -111.028C110.739 -110.497 111.247 -109.584 111.247 -109C111.247 -106.674 113.506 -103.777 117.212 -101.347C118.532 -100.481 118.817 -100.517 121.759 -101.923C123.485 -102.747 126.073 -104.186 127.512 -105.118C128.95 -106.051 130.519 -106.989 130.998 -107.2C131.477 -107.412 133.502 -109.273 135.499 -111.339C139.681 -115.663 139.902 -116.679 137.65 -121.202C136.598 -123.311 135.671 -124.349 134.46 -124.772C133.342 -125.16 132.861 -125.654 133.07 -126.196C133.848 -128.227 128.336 -131.243 123.848 -131.243C121.206 -131.243 120.183 -130.896 117.259 -129.006ZM145.809 -106.251C143.359 -103.542 148.278 -92.8854 151.979 -92.8854C152.628 -92.8854 153.898 -91.5842 155.248 -89.5439C156.465 -87.706 158.377 -85.6783 159.499 -85.0385C163.448 -82.7922 165.851 -81.1422 165.851 -80.6796C165.851 -80.4229 166.652 -79.9332 167.631 -79.5916C169.247 -79.0296 169.393 -78.7694 169.229 -76.7742C169.072 -74.864 168.839 -74.5532 167.449 -74.3941C165.271 -74.1429 165.342 -72.3502 167.666 -68.8406C168.665 -67.3334 169.33 -65.9491 169.146 -65.7647C168.96 -65.5804 167.4 -65.6039 165.678 -65.8208C162.851 -66.1732 162.423 -66.4207 161.286 -68.3599C160.594 -69.5418 158.597 -72.4712 156.846 -74.8676C155.097 -77.2658 152.968 -80.2729 152.117 -81.5524C148.278 -87.3048 147.006 -89.1264 146.637 -89.3975C145.878 -89.9559 142.034 -95.2239 142.034 -95.7065C142.034 -95.9739 141.512 -96.6661 140.872 -97.2444C140.234 -97.8227 139.71 -98.6377 139.71 -99.057C139.71 -99.8088 137.191 -104.699 136.076 -106.107C134.999 -107.471 132.658 -106.909 130.68 -104.811C128.583 -102.588 128.48 -101.679 130.112 -99.8739C130.88 -99.0245 131.021 -98.4877 130.586 -98.0522C129.655 -97.1215 130.34 -95.298 131.505 -95.6034C132.639 -95.8998 134.263 -94.3077 134.574 -92.5945C134.697 -91.9186 135.329 -91.3547 136.087 -91.2463C136.802 -91.1451 137.388 -90.6933 137.388 -90.2433C137.388 -89.7933 138.04 -88.9963 138.839 -88.4722C139.638 -87.9481 140.292 -87.2524 140.292 -86.9235C140.292 -86.2927 143.035 -82.9476 150.147 -74.9038C152.53 -72.2056 153.969 -70.2448 153.342 -70.5448C152.715 -70.8448 150.349 -71.0869 148.085 -71.0815C143.301 -71.0725 142.088 -70.2791 141.629 -66.8581C141.402 -65.1647 141.602 -64.4527 142.544 -63.6015C143.558 -62.6816 144.002 -62.6148 145.359 -63.1732C146.482 -63.6358 147.575 -63.663 148.956 -63.2636C151.2 -62.613 153.148 -62.9401 155.686 -64.3894C157.639 -65.5045 162.954 -65.3689 162.938 -64.2033C162.922 -62.9401 161.903 -61.9136 161.008 -62.2569C160.515 -62.4467 158.74 -62.1178 157.066 -61.5268C155.257 -60.8907 153.551 -60.6287 152.867 -60.8817C151.381 -61.4311 147.253 -60.6811 146.682 -59.7576C146.44 -59.3672 146.384 -58.5124 146.554 -57.8582C146.803 -56.9022 146.646 -56.7287 145.757 -56.9799C142.809 -57.8076 142.905 -57.9016 142.905 -54.2366C142.905 -50.7921 142.932 -50.736 145.052 -49.6987C146.905 -48.7933 147.523 -48.7463 149.559 -49.3571C152.243 -50.1613 153.056 -49.7529 152.033 -48.1156C150.436 -45.5548 152.012 -40.9681 154.907 -39.7501C155.941 -39.3145 157.094 -39.076 157.469 -39.2205C158.189 -39.497 159.076 -37.876 158.615 -37.1296C158.465 -36.8874 158.592 -35.7941 158.894 -34.6971C159.481 -32.57 161.879 -30.7104 163.811 -30.8857C164.505 -30.949 165.215 -30.4068 165.68 -29.4617C166.092 -28.6213 167.279 -27.6039 168.318 -27.199C169.357 -26.7942 171.13 -25.8527 172.256 -25.1063C173.993 -23.9533 174.763 -23.8015 177.34 -24.1069C180.623 -24.4955 180.909 -24.9473 179.355 -27.2786C178.798 -28.1135 177.591 -29.9442 176.673 -31.3466C175.753 -32.749 174.484 -34.464 173.852 -35.1598C172.484 -36.6634 172.917 -37.6718 174.929 -37.6718C177.155 -37.6718 178.634 -36.6272 179.72 -34.2833C181.048 -31.4207 185.79 -24.2479 187.137 -23.066C187.731 -22.5437 188.805 -21.9383 189.524 -21.7196C190.536 -21.4106 190.847 -21.5588 190.899 -22.3774C191.036 -24.5678 190.697 -25.6232 189.092 -27.9798C188.183 -29.3135 187.525 -30.49 187.628 -30.593C187.733 -30.6978 188.936 -29.9731 190.303 -28.9827C192.531 -27.3689 193.088 -27.2189 195.719 -27.5189C197.333 -27.7032 199.05 -28.1785 199.534 -28.5743C202.281 -30.8171 203.248 -30.8803 207.446 -29.093C211.707 -27.2786 211.568 -27.2587 214.402 -30.0562C215.407 -31.0502 215.811 -32.0875 215.811 -33.6779C215.811 -35.6098 216.017 -35.9585 217.366 -36.2965C218.22 -36.5116 219.715 -36.3869 220.687 -36.02C222.1 -35.4851 222.617 -35.5158 223.268 -36.1664C224.202 -37.0989 223.7 -38.3459 222.565 -37.9103C221.419 -37.4712 220.098 -39.2892 220.947 -40.1368C221.318 -40.5073 221.62 -41.3964 221.62 -42.1121C221.62 -43.6807 222.635 -44.4434 223.53 -43.5488C224.305 -42.7735 227.43 -42.6795 227.43 -43.4331C227.43 -43.7241 226.646 -44.6223 225.686 -45.4301C224.728 -46.2361 223.955 -47.109 223.967 -47.3692C223.98 -47.6295 224.764 -48.7481 225.709 -49.8541C226.656 -50.9619 227.43 -52.3155 227.43 -52.8649C227.43 -53.8282 224.88 -56.2697 223.873 -56.2697C223.602 -56.2697 222.005 -57.1209 220.322 -58.1582C216.135 -60.7443 214.317 -61.7889 210.522 -63.7858C203.817 -67.3171 198.482 -71.152 196.122 -74.1375C194.806 -75.8037 192.943 -77.573 191.982 -78.07C191.02 -78.5688 188.212 -80.497 185.74 -82.3566C180.34 -86.4192 175.196 -89.3975 173.581 -89.3975C172.93 -89.3975 171.775 -89.8873 171.013 -90.4854C170.252 -91.0836 165.918 -93.789 161.384 -96.498C155.427 -100.056 152.608 -102.117 151.218 -103.924C148.829 -107.034 147.165 -107.75 145.809 -106.251ZM169.585 -69.2779C169.811 -68.3563 171.024 -65.9545 172.281 -63.9376C173.537 -61.9208 174.566 -59.7847 174.566 -59.1901C174.566 -58.5956 174.721 -57.7046 174.911 -57.2112C175.218 -56.407 175.402 -56.4106 176.68 -57.2492L178.106 -58.1835L176.626 -59.7287C175.813 -60.5781 175.148 -61.4708 175.148 -61.7112C175.148 -61.9533 174.332 -63.1624 173.339 -64.4003C172.345 -65.6382 171.358 -67.4996 171.145 -68.537C170.933 -69.5743 170.404 -70.5412 169.966 -70.6875C169.361 -70.8881 169.271 -70.5556 169.585 -69.2779ZM164.4 -55.1077C164.203 -54.7878 163.027 -54.5257 161.785 -54.5257C160.545 -54.5257 159.365 -54.2601 159.166 -53.9366C158.964 -53.6113 158.592 -53.4739 158.339 -53.6312C158.084 -53.7884 157.406 -53.4017 156.835 -52.7691C156.264 -52.1366 155.445 -51.6198 155.015 -51.6198C154.585 -51.6198 154.235 -51.3595 154.235 -51.0396C154.235 -50.7198 154.448 -50.4577 154.712 -50.4577C155.411 -50.4577 160.708 -52.1945 162.186 -52.9083C162.886 -53.2462 164.248 -53.3655 165.213 -53.1721C167.194 -52.7764 168.045 -53.5751 166.993 -54.842C166.182 -55.8215 164.921 -55.9498 164.4 -55.1077ZM172.231 -54.804C171.193 -53.5535 171.934 -53.0836 173.362 -54.083C174.02 -54.5438 174.385 -55.095 174.175 -55.3046C173.575 -55.9046 173.028 -55.7637 172.231 -54.804ZM180.114 -45.4409C181.243 -43.9608 182.582 -41.9332 183.088 -40.9374L184.008 -39.1248L182.59 -40.4332C179.949 -42.8675 179.521 -41.6223 181.917 -38.4778C182.949 -37.1242 183.764 -36.5712 184.382 -36.8079C185 -37.0465 186.034 -36.3381 187.523 -34.6574C189.824 -32.0604 189.497 -33.6001 187.115 -36.5875C186.443 -37.4296 184.849 -39.882 183.569 -42.0362C181.063 -46.2632 179.548 -48.1337 178.635 -48.1337C178.319 -48.1337 178.984 -46.921 180.114 -45.4409ZM165.387 -43.3681C165.004 -42.9849 164.691 -42.4428 164.691 -42.1645C164.691 -41.8862 165.103 -42.0705 165.609 -42.5765C166.113 -43.0807 166.768 -43.3464 167.06 -43.1639C167.355 -42.9831 167.595 -43.1114 167.595 -43.4494C167.595 -44.2807 166.249 -44.2301 165.387 -43.3681ZM168.515 -34.9736C167.962 -33.5297 168.571 -33.3327 169.31 -34.717C169.668 -35.3839 169.717 -35.9278 169.421 -35.9278C169.122 -35.9278 168.716 -35.4995 168.515 -34.9736ZM215.376 -26.7942C214.351 -26.4256 214.472 -25.0792 215.567 -24.6581C217.114 -24.0635 218.134 -24.2623 218.134 -25.1569C218.134 -26.1527 216.422 -27.1683 215.376 -26.7942ZM142.034 28.2929C142.034 36.4434 141.969 43.309 141.89 43.5493C141.808 43.7897 142.965 44.0644 144.458 44.1601L147.168 44.3354L147.362 36.7741C147.532 30.0242 147.678 29.117 148.715 28.3218C149.353 27.8339 150.392 27.4959 151.025 27.5718C153.013 27.814 153.635 30.1561 153.644 37.4464L153.653 44.2758H159.573L159.363 36.2844C159.138 27.6496 158.622 25.7936 155.89 23.7713C154.213 22.5297 149.874 22.2514 148.809 23.3177C147.532 24.5936 147.262 23.7894 147.262 18.7039V13.472H142.034V28.2929ZM215.618 13.8606C215.405 14.072 215.229 21.0045 215.229 29.2616V44.2758H221.04V37.0109C221.04 30.5212 221.163 29.6212 222.202 28.5839C223.519 27.2646 225.263 27.0712 226.129 28.1483C226.449 28.5477 226.9 33.935 227.132 40.121L227.551 51.3673L226.183 50.8721C223.749 49.992 220.022 50.3335 218.343 51.5877C215.672 53.5829 214.358 56.8232 214.358 61.4207C214.358 66.2405 215.689 69.4357 218.378 71.0766C220.584 72.423 224.647 72.5007 226.579 71.2338C227.903 70.3646 228.01 70.3682 228.01 71.2664C228.01 72.0525 228.487 72.2043 230.479 72.0597L232.947 71.8826L232.73 50.0878C232.497 26.708 232.347 25.4809 229.508 23.6195C227.822 22.5153 224.041 22.3671 222.232 23.3357C221.07 23.9592 221.04 23.84 221.04 18.7238V13.472H218.522C217.138 13.472 215.829 13.6474 215.618 13.8606ZM101.493 15.2919C98.6812 16.1015 95.2891 19.7973 94.118 23.3267C91.9476 29.8634 93.1078 37.1012 96.9716 41.1186C103.158 47.5541 113.264 44.9372 116.184 36.1398C117.539 32.0555 117.182 24.6207 115.468 21.3189C112.626 15.8341 107.408 13.5841 101.493 15.2919ZM174.97 28.1483C169.619 46.2565 169.834 44.2758 173.219 44.2758H176.066L177.186 40.1825L178.308 36.091L181.8 36.2591L185.293 36.4289L186.464 40.3487L187.637 44.2686L190.655 44.2722L193.675 44.2758L193.149 42.6764C192.86 41.7981 191.163 36.1091 189.379 30.0369C187.594 23.9628 185.862 18.1437 185.534 17.1045C184.955 15.2883 184.816 15.216 181.861 15.216H178.793L174.97 28.1483ZM102.332 20.5238C99.1981 22.3454 97.9746 31.2314 100.217 35.8651C102.097 39.7506 105.292 40.6505 108.279 38.1367C112.309 34.7446 112.318 24.8592 108.296 21.1111C106.853 19.7665 104.101 19.4955 102.332 20.5238ZM124.425 23.6122C119.585 26.1731 117.785 33.8934 120.686 39.6476C122.094 42.4397 125.8 44.8559 128.674 44.8559C130.994 44.8559 135.208 42.4469 136.627 40.3108C138.152 38.012 138.819 34.2241 138.27 30.9694C137.099 24.0351 130.376 20.4641 124.425 23.6122ZM199.256 22.9436C196.608 23.802 196.028 24.4671 196.431 26.1803C196.968 28.4646 197.403 28.6887 199.588 27.7959C201.788 26.8977 204.187 27.0622 204.885 28.1628C205.648 29.3646 205.431 29.6031 203.175 30.0242C197.573 31.076 194.904 33.7344 194.9 38.2741C194.895 43.0813 199.304 45.9439 203.808 44.0607C204.977 43.5728 205.935 43.421 205.935 43.7246C205.935 44.0282 207.112 44.2758 208.55 44.2758H211.163V36.6133C211.163 25.6743 209.746 23.0394 203.611 22.5749C202.174 22.4665 200.213 22.6328 199.256 22.9436ZM180.77 26.6321C179.449 31.3453 179.479 31.4898 181.827 31.4898C182.946 31.4898 183.86 31.2929 183.858 31.0543C183.856 30.814 183.381 28.9381 182.801 26.8833L181.746 23.1514L180.77 26.6321ZM127.694 27.4435C125.872 28.1519 125.021 30.1164 125.021 33.6151C125.021 37.4645 126.308 39.6259 128.598 39.6259C130.978 39.6259 132.317 37.8096 132.572 34.2404C132.901 29.6321 130.539 26.3393 127.694 27.4435ZM202.042 35.0916C200.069 36.0458 199.857 39.1759 201.717 39.8897C203.372 40.5259 205.355 38.6319 205.355 36.4163C205.355 34.226 204.522 33.8934 202.042 35.0916ZM135.32 50.9408C134.016 51.9275 133.089 52.0956 133.611 51.2498C133.831 50.8956 132.94 50.6679 131.321 50.6679H128.674V72.2368L134.193 71.8826L134.357 64.9321C134.54 57.2262 135.084 55.8997 138.058 55.8997C139.654 55.8997 139.71 55.7985 139.71 52.9938C139.71 50.1962 139.65 50.0878 138.078 50.0878C137.182 50.0878 135.94 50.4709 135.32 50.9408ZM146.971 50.9028C143.37 52.4932 141.449 56.3063 141.463 61.8382C141.481 68.5483 144.958 72.1718 151.379 72.1718C153.174 72.1718 155.473 71.8826 156.49 71.5284C157.997 71.0025 158.272 70.6537 157.983 69.6399C157.788 68.955 157.493 67.9176 157.33 67.3357C157.124 66.6038 156.736 66.4068 156.069 66.6978C154.498 67.3845 151.437 67.6773 149.888 67.2869C148.697 66.9887 146.682 64.4153 146.682 63.1936C146.682 63.0165 149.427 62.8737 152.782 62.8737H158.881L158.872 59.8232C158.848 52.7028 152.935 48.2697 146.971 50.9028ZM167.304 51.145C164.443 52.5022 163.074 53.9967 162.047 56.8774C160.184 62.102 161.825 68.2212 165.793 70.8597C167.306 71.8664 168.6 72.1718 171.345 72.1718C175.954 72.1718 176.995 71.4344 176.512 68.5086C176.223 66.7592 175.952 66.3833 175.211 66.7086C172.449 67.9194 170.545 67.6592 168.703 65.8159C166.993 64.1044 166.892 63.7737 167.145 60.7177C167.51 56.3081 168.961 55.0576 173.203 55.4949L176.198 55.8039L176.584 53.7419C176.796 52.607 176.729 51.4377 176.432 51.1414C175.285 49.9938 169.724 49.9956 167.304 51.145ZM184.731 50.9082C177.455 54.1431 176.525 66.4086 183.22 70.8597C185.555 72.4121 189.999 72.6326 192.535 71.3224C196.641 69.1971 198.78 63.9761 197.761 58.5708C196.516 51.9636 190.418 48.3782 184.731 50.9082ZM208.115 50.9878C207.196 51.492 206.517 51.613 206.517 51.2679C206.517 50.939 205.333 50.6679 203.889 50.6679H201.262L201.421 61.2761L201.578 71.8826L204.289 72.0561L207.001 72.2332L207.195 64.8906C207.408 56.7907 207.816 55.8997 211.306 55.8997C212.929 55.8997 212.965 55.831 212.793 53.1383C212.634 50.6715 212.461 50.3643 211.163 50.2432C210.364 50.1673 208.993 50.5034 208.115 50.9878ZM240.324 51.06C238.109 52.1516 236.724 54.4702 236.724 57.0907C236.724 59.0804 238.927 61.5852 242.587 63.7574C245.399 65.4255 245.281 67.1731 242.343 67.4152C241.056 67.5218 239.562 67.2327 238.794 66.7285C237.51 65.8881 237.442 65.9333 236.804 68.0658C236.441 69.2803 236.142 70.408 236.142 70.5706C236.142 71.4688 240.021 72.2838 243.2 72.0543C246.324 71.8284 246.98 71.5628 248.43 69.9417C251.587 66.4032 250.271 61.5454 245.496 59.1256C242.5 57.6075 241.633 56.4509 242.695 55.3883C243.566 54.5172 244.819 54.5732 246.729 55.569C248.287 56.3823 248.319 56.3624 248.905 54.2588C249.725 51.3022 249.758 51.3745 247.325 50.6986C244.318 49.8637 242.567 49.954 240.324 51.06ZM148.224 55.8003C146.371 57.8479 146.979 58.6593 150.313 58.5834C153.024 58.522 153.34 58.3864 153.161 57.3527C152.698 54.66 150.017 53.8178 148.224 55.8003ZM187.252 55.128C186 55.4588 184.442 58.7659 184.442 61.0918C184.442 63.4267 185.871 66.8586 187.03 67.3032C188.577 67.8977 190.605 67.0321 191.313 65.4761C191.687 64.6538 191.992 62.543 191.992 60.7846C191.992 58.1678 191.736 57.3328 190.567 56.1636C189.123 54.7178 188.974 54.6708 187.252 55.128ZM221.322 56.4889C219.973 57.9798 219.536 63.1918 220.591 65.1887C221.011 65.9821 222.073 66.8857 222.952 67.1947C224.28 67.661 224.768 67.5381 225.845 66.461C226.929 65.3749 227.139 64.5273 227.139 61.2039C227.139 58.6991 226.846 56.8865 226.342 56.2792C225.249 54.96 222.605 55.072 221.322 56.4889Z" fill="#FDF2EE"/>
</g>
<mask id="mask1_163_1350" style="mask-type:luminance" maskUnits="userSpaceOnUse" x="0" y="0" width="74" height="82">
<path d="M0 6.10352e-05H74V81.2332H0V6.10352e-05Z" fill="white"/>
</mask>
<g mask="url(#mask1_163_1350)">
<path fill-rule="evenodd" clip-rule="evenodd" d="M19.8227 0.570661C10.3292 3.19956 3.53006 9.90846 0.796801 19.344L0.120941 21.678V79.9469L23.7504 79.9287C46.1713 79.9121 47.4874 79.8848 49.5084 79.3953C52.6185 78.6424 52.5489 78.6929 51.5517 77.9119C50.7359 77.2724 50.6936 77.1598 50.8609 76.0441C51.02 74.9815 50.9603 74.7744 50.2903 74.0745C49.8794 73.6447 49.274 73.2935 48.9452 73.2935C48.3265 73.2935 47.5123 72.6607 47.5123 72.1803C47.5123 72.0287 47.692 71.9732 47.9115 72.0577C48.4225 72.254 48.4449 72.3393 47.5023 70.5213C47.0576 69.6641 46.7288 68.9277 46.7702 68.8855C46.9375 68.719 47.716 69.4909 48.5294 70.6298C49.1108 71.4374 49.703 72.2366 50.306 73.0268C50.8121 73.6861 51.2295 74.3677 51.2328 74.5408C51.237 74.714 51.4573 74.9252 51.7248 75.0096C51.9915 75.095 52.7187 75.7592 53.3416 76.4873L54.4721 77.8108L55.7526 77.1623C57.2261 76.4152 60.8705 73.7151 61.972 72.5539C62.5899 71.9028 62.6479 71.7372 62.305 71.6055C61.8395 71.4266 61.741 70.4865 62.1592 70.2273C62.3083 70.1353 62.3721 69.9664 62.3017 69.8521C62.2305 69.7378 62.4682 69.2433 62.8293 68.753C63.1904 68.2635 63.4911 67.7359 63.4969 67.5818C63.5035 67.4269 63.8563 66.8927 64.2812 66.3957C64.8701 65.7058 65.0192 65.3149 64.9074 64.7516C64.8138 64.2862 64.9546 63.636 65.2867 62.9933C65.5766 62.4325 66.091 61.34 66.4306 60.5656C66.7693 59.792 67.2041 59.0284 67.3963 58.8685C67.5885 58.7087 67.7458 58.3343 67.7458 58.0361C67.7458 57.4696 69.7684 54.6477 70.1751 54.6477C70.3035 54.6477 70.4087 54.034 70.4087 53.2827V51.9178L71.8871 52.0412C73.108 52.1422 73.4086 52.0818 73.6174 51.6917C73.7714 51.4042 73.87 41.2407 73.87 25.6313V0.0430603L47.7119 0.0670798C23.3884 0.0894429 21.4321 0.125058 19.8227 0.570661ZM11.6636 17.3172C10.0253 18.3766 7.71691 21.0991 7.40548 22.3381C7.18848 23.2037 7.73679 24.996 8.39028 25.5559C8.67438 25.7994 8.90712 26.2177 8.90712 26.4861C8.90712 27.5512 9.94244 28.8797 11.6412 29.9937C12.2458 30.3897 12.3775 30.3731 13.7251 29.7295C14.5169 29.351 15.703 28.6926 16.3615 28.2643C17.0207 27.837 17.7397 27.4079 17.9592 27.311C18.1787 27.2141 19.108 26.3602 20.0224 25.4135C21.9389 23.4314 22.0408 22.9668 21.008 20.8937C20.5268 19.9263 20.1019 19.4517 19.5461 19.2578C19.0342 19.0789 18.8139 18.8528 18.9092 18.6044C19.2662 17.6742 16.74 16.291 14.6834 16.291C13.4717 16.291 13.0037 16.45 11.6636 17.3172ZM24.7476 27.7459C23.6245 28.9874 25.879 33.8717 27.5753 33.8717C27.8726 33.8717 28.4557 34.4672 29.0744 35.4031C29.631 36.2454 30.5081 37.1748 31.0225 37.4671C32.8314 38.4967 33.9338 39.2537 33.9338 39.4657C33.9338 39.5833 34.3007 39.807 34.7488 39.9635C35.4893 40.2219 35.5564 40.3404 35.481 41.2548C35.4089 42.1311 35.3029 42.2727 34.666 42.3464C33.6679 42.4615 33.7002 43.2823 34.7654 44.8916C35.2226 45.5824 35.5274 46.2169 35.4429 46.3013C35.3584 46.3858 34.6436 46.3742 33.8535 46.2757C32.5581 46.1133 32.3626 46.0007 31.8416 45.1111C31.5236 44.5695 30.6083 43.2277 29.8066 42.1286C29.0048 41.0303 28.0291 39.6512 27.6382 39.0657C25.8798 36.4293 25.2959 35.5936 25.1269 35.4694C24.779 35.2143 23.0182 32.7999 23.0182 32.5787C23.0182 32.4562 22.778 32.1389 22.4856 31.8739C22.1924 31.6089 21.953 31.2345 21.953 31.0423C21.953 30.6986 20.7976 28.4573 20.2874 27.8113C19.7929 27.1859 18.7203 27.4435 17.8142 28.406C16.8534 29.4247 16.8054 29.8413 17.5541 30.6688C17.9062 31.0572 17.9699 31.3041 17.7711 31.5028C17.3446 31.9294 17.6585 32.7651 18.1927 32.6251C18.7121 32.4893 19.4558 33.2198 19.5983 34.005C19.6546 34.3139 19.9453 34.5732 20.2915 34.6229C20.6195 34.6693 20.8879 34.8763 20.8879 35.0826C20.8879 35.2888 21.1877 35.6541 21.5538 35.8934C21.9199 36.1336 22.2189 36.4533 22.2189 36.6033C22.2189 36.8931 23.4762 38.4263 26.7354 42.1128C27.8279 43.3486 28.4872 44.2481 28.1998 44.1106C27.9124 43.9731 26.8282 43.8621 25.7904 43.8638C23.598 43.8687 23.0422 44.2324 22.8318 45.8002C22.7283 46.5763 22.8194 46.9027 23.2509 47.2928C23.7156 47.7135 23.9201 47.7442 24.5422 47.4882C25.0565 47.277 25.5576 47.2646 26.1904 47.4477C27.2191 47.745 28.1111 47.5959 29.2748 46.9316C30.1702 46.4206 32.6053 46.4827 32.5986 47.017C32.5904 47.5951 32.1232 48.0664 31.7132 47.909C31.4871 47.822 30.6746 47.9719 29.9068 48.2428C29.0785 48.5352 28.2967 48.6553 27.9828 48.5385C27.3019 48.2867 25.4094 48.6304 25.1485 49.0536C25.0375 49.2326 25.011 49.6251 25.0888 49.925C25.2039 50.3623 25.1311 50.4418 24.7236 50.3275C23.3727 49.9473 23.4174 49.9051 23.4174 51.5848C23.4174 53.1626 23.4298 53.1891 24.4014 53.6637C25.2503 54.0795 25.5328 54.1011 26.4662 53.8211C27.6962 53.4525 28.0689 53.6389 27.6001 54.3901C26.8679 55.5629 27.591 57.6659 28.9179 58.2241C29.3916 58.4229 29.9192 58.5322 30.0915 58.466C30.4212 58.3401 30.8278 59.0822 30.6166 59.4251C30.5487 59.5353 30.6059 60.0372 30.745 60.54C31.0142 61.5148 32.1133 62.3671 32.9979 62.2859C33.3159 62.2569 33.6423 62.5054 33.8543 62.9394C34.0431 63.3237 34.5873 63.79 35.0644 63.9756C35.5406 64.1611 36.3531 64.5926 36.8683 64.9355C37.6651 65.464 38.0179 65.5335 39.1982 65.3927C40.7032 65.2146 40.8349 65.0084 40.1226 63.94C39.8666 63.5565 39.3133 62.7174 38.8926 62.0755C38.4718 61.4328 37.8904 60.6468 37.6005 60.3279C36.9727 59.6388 37.1715 59.1758 38.0933 59.1758C39.1146 59.1758 39.7913 59.6545 40.2899 60.7296C40.8978 62.0408 43.072 65.3289 43.689 65.8706C43.9607 66.1092 44.4535 66.3875 44.7832 66.4877C45.247 66.6293 45.3886 66.5606 45.4126 66.1862C45.4764 65.1815 45.3199 64.6978 44.5844 63.6186C44.1678 63.0073 43.8663 62.4681 43.9143 62.4201C43.9624 62.3729 44.5132 62.7042 45.1393 63.1581C46.1606 63.8985 46.4157 63.9673 47.6216 63.829C48.3612 63.7445 49.1481 63.5267 49.3709 63.3453C50.629 62.3182 51.073 62.2892 52.9962 63.1076C54.9501 63.94 54.8854 63.9482 56.1842 62.6669C56.6447 62.2114 56.8302 61.7351 56.8302 61.0071C56.8302 60.1217 56.9255 59.9618 57.5425 59.8061C57.9343 59.7084 58.6201 59.7647 59.0657 59.9337C59.7134 60.178 59.9503 60.1647 60.2484 59.8666C60.6758 59.4384 60.4456 58.8669 59.9262 59.0665C59.4011 59.2686 58.7957 58.4353 59.1841 58.0461C59.3539 57.8763 59.4931 57.4696 59.4931 57.1408C59.4931 56.4227 59.9585 56.0723 60.3677 56.4823C60.723 56.8376 62.1551 56.8807 62.1551 56.5361C62.1551 56.4028 61.7956 55.9912 61.3566 55.6209C60.9168 55.2507 60.5623 54.8515 60.569 54.7322C60.5748 54.6121 60.9342 54.0994 61.3674 53.5925C61.8006 53.0856 62.1551 52.4644 62.1551 52.2135C62.1551 51.772 60.9872 50.6522 60.5259 50.6522C60.4017 50.6522 59.6686 50.2629 58.8975 49.7867C56.9785 48.6014 56.1461 48.1235 54.4067 47.2075C51.333 45.5899 48.888 43.8323 47.8071 42.4632C47.2042 41.7004 46.3494 40.8887 45.9088 40.6609C45.4681 40.4331 44.181 39.5494 43.048 38.6971C40.5731 36.8343 38.2159 35.4694 37.4754 35.4694C37.1781 35.4694 36.6488 35.2457 36.2993 34.9716C35.9498 34.6974 33.9644 33.4575 31.8863 32.216C29.1564 30.5851 27.8635 29.6409 27.2266 28.8118C26.1324 27.3872 25.3688 27.0592 24.7476 27.7459ZM35.6442 44.6912C35.7477 45.1128 36.3035 46.2144 36.8799 47.1387C37.4564 48.0622 37.9277 49.0421 37.9277 49.3146C37.9277 49.587 37.9981 49.9946 38.085 50.2215C38.2267 50.5892 38.3103 50.5876 38.8967 50.2041L39.5494 49.7759L38.8719 49.0669C38.4983 48.6776 38.1935 48.2685 38.1935 48.1583C38.1935 48.0481 37.8208 47.4932 37.3653 46.9259C36.9097 46.3585 36.4567 45.5054 36.3598 45.03C36.2629 44.5554 36.0194 44.1114 35.8197 44.0452C35.5415 43.9524 35.5009 44.1048 35.6442 44.6912ZM33.2679 51.1848C33.1776 51.3314 32.6384 51.4515 32.0702 51.4515C31.5012 51.4515 30.9612 51.5732 30.8692 51.7223C30.7773 51.8714 30.6067 51.9335 30.4899 51.8614C30.3731 51.7894 30.0633 51.9675 29.8016 52.2574C29.5391 52.5464 29.1639 52.7833 28.9667 52.7833C28.7696 52.7833 28.6089 52.9034 28.6089 53.05C28.6089 53.1966 28.7075 53.3159 28.8276 53.3159C29.1489 53.3159 31.5757 52.5207 32.2541 52.1928C32.5746 52.0379 33.1991 51.984 33.6414 52.0718C34.5484 52.254 34.9385 51.888 34.4564 51.3065C34.0845 50.8584 33.5064 50.7988 33.2679 51.1848ZM36.8567 51.3247C36.3821 51.8971 36.7209 52.1132 37.376 51.6544C37.6775 51.4432 37.8448 51.1914 37.7479 51.0945C37.473 50.8195 37.222 50.8849 36.8567 51.3247ZM40.4696 55.6159C40.9881 56.2943 41.601 57.2236 41.8329 57.68L42.2545 58.5099L41.6051 57.9111C40.3942 56.7954 40.1979 57.3661 41.2962 58.8072C41.77 59.4276 42.1435 59.6802 42.4259 59.5717C42.7092 59.4632 43.183 59.7871 43.8655 60.5582C44.9198 61.7484 44.7707 61.0427 43.6783 59.6728C43.371 59.2868 42.6396 58.1637 42.0541 57.1764C40.9053 55.2391 40.2112 54.3818 39.7929 54.3818C39.6471 54.3818 39.9519 54.9368 40.4696 55.6159ZM33.7209 56.566C33.5453 56.7416 33.4012 56.99 33.4012 57.1176C33.4012 57.2451 33.5909 57.1598 33.822 56.9287C34.0539 56.6968 34.3529 56.5759 34.4879 56.6587C34.6221 56.7424 34.7322 56.6836 34.7322 56.5279C34.7322 56.1477 34.116 56.1701 33.7209 56.566ZM35.1538 60.4132C34.9004 61.0742 35.1803 61.1645 35.5191 60.5308C35.6823 60.2252 35.7046 59.9751 35.5688 59.9751C35.4329 59.9751 35.2466 60.1722 35.1538 60.4132ZM56.6306 64.1619C56.161 64.3309 56.2173 64.9479 56.7192 65.1409C57.4274 65.4134 57.8953 65.3223 57.8953 64.9123C57.8953 64.4551 57.111 63.9897 56.6306 64.1619ZM23.0182 89.4081C23.0182 93.1444 22.9884 96.2909 22.9511 96.4003C22.9146 96.5104 23.4439 96.6363 24.128 96.681L25.3713 96.7614L25.4591 93.2951C25.5377 90.2024 25.604 89.7858 26.0794 89.4222C26.3726 89.1977 26.8489 89.0428 27.1379 89.0785C28.0498 89.1894 28.3348 90.262 28.3389 93.6041L28.343 96.7332H31.0564L30.9603 93.0707C30.856 89.1141 30.6199 88.2634 29.3684 87.3366C28.599 86.7676 26.6103 86.6401 26.1225 87.1279C25.5377 87.7135 25.4143 87.3449 25.4143 85.0134V82.6164H23.0182V89.4081ZM56.7416 82.7936C56.6438 82.8914 56.5643 86.0677 56.5643 89.8529V96.7332H59.2264V93.4036C59.2264 90.4293 59.2835 90.0177 59.7589 89.5415C60.3627 88.9376 61.1628 88.849 61.5587 89.3418C61.7053 89.5249 61.9132 91.9948 62.0184 94.8291L62.2114 99.9841L61.5844 99.7572C60.4679 99.3538 58.7609 99.5096 57.9906 100.085C56.7664 101 56.1651 102.485 56.1651 104.591C56.1651 106.8 56.7747 108.265 58.0072 109.016C59.0185 109.634 60.8796 109.67 61.765 109.089C62.3721 108.691 62.421 108.692 62.421 109.104C62.421 109.464 62.6396 109.534 63.5532 109.468L64.6846 109.386L64.5852 99.3969C64.4783 88.6825 64.4096 88.1202 63.1084 87.2671C62.3356 86.7602 60.6021 86.6922 59.773 87.137C59.2404 87.4219 59.2264 87.3673 59.2264 85.0225V82.6164H58.0726C57.4381 82.6164 56.8393 82.6959 56.7416 82.7936ZM4.437 83.4496C3.14823 83.8215 1.59441 85.5153 1.05687 87.132C0.062963 90.1279 0.594706 93.4459 2.3647 95.2871C5.19983 98.2365 9.83145 97.0364 11.1699 93.0052C11.7919 91.1325 11.6279 87.7259 10.8428 86.2118C9.53908 83.6989 7.14872 82.6677 4.437 83.4496ZM38.1124 89.3418C35.6599 97.641 35.7585 96.7332 37.3106 96.7332H38.6151L39.1286 94.858L39.6422 92.982L41.2432 93.0599L42.8434 93.1378L43.3809 94.9342L43.9176 96.7307L45.3017 96.7316L46.6857 96.7332L46.4447 96.001C46.3121 95.5985 45.5344 92.9912 44.7161 90.2074C43.8978 87.4244 43.1051 84.7574 42.9535 84.2812C42.6885 83.4479 42.6247 83.4156 41.2713 83.4156H39.8641L38.1124 89.3418ZM4.82131 85.8482C3.38594 86.6831 2.82438 90.7549 3.85225 92.8793C4.71447 94.6601 6.17883 95.0726 7.54794 93.9196C9.39413 92.365 9.39827 87.8352 7.5554 86.1166C6.89445 85.5004 5.63218 85.3761 4.82131 85.8482ZM14.9468 87.2637C12.7287 88.4374 11.9046 91.9749 13.2339 94.6129C13.8783 95.8917 15.5771 96.9999 16.894 96.9999C17.9575 96.9999 19.889 95.8959 20.54 94.916C21.2391 93.8633 21.5439 92.1273 21.2921 90.6348C20.7554 87.4567 17.6751 85.8209 14.9468 87.2637ZM49.2425 86.9565C48.0291 87.3507 47.7641 87.6547 47.9479 88.4399C48.1939 89.4876 48.3944 89.5895 49.3949 89.1812C50.4029 88.7687 51.5028 88.8449 51.8225 89.3485C52.1729 89.9001 52.0735 90.0086 51.0398 90.2024C48.4714 90.6844 47.2489 91.9028 47.2464 93.9826C47.2448 96.1857 49.2649 97.4985 51.3289 96.6355C51.8656 96.4119 52.3046 96.3415 52.3046 96.4806C52.3046 96.6198 52.8438 96.7332 53.5023 96.7332H54.7007V93.2214C54.7007 88.208 54.0514 87.0012 51.2395 86.7883C50.5802 86.7378 49.6815 86.814 49.2425 86.9565ZM40.7711 88.6469C40.1648 90.807 40.1797 90.8733 41.2556 90.8733C41.7675 90.8733 42.1866 90.7838 42.1857 90.6737C42.1857 90.5635 41.9671 89.7038 41.702 88.7629L41.2183 87.0517L40.7711 88.6469ZM16.4459 89.0196C15.611 89.3435 15.2209 90.2438 15.2209 91.8482C15.2209 93.6123 15.8098 94.6029 16.8592 94.6029C17.9501 94.6029 18.5646 93.7705 18.6814 92.1347C18.8321 90.0218 17.7488 88.5128 16.4459 89.0196ZM50.5197 92.5248C49.6152 92.9622 49.5183 94.3959 50.3714 94.7239C51.1301 95.0146 52.0379 94.1474 52.0379 93.1311C52.0379 92.1273 51.6569 91.9749 50.5197 92.5248ZM19.9404 99.7878C19.3424 100.241 18.9183 100.317 19.1577 99.9303C19.2579 99.7671 18.8495 99.6636 18.1082 99.6636H16.894V109.548L19.4235 109.386L19.4989 106.201C19.5826 102.669 19.8319 102.061 21.1952 102.061C21.9265 102.061 21.953 102.015 21.953 100.729C21.953 99.4466 21.9249 99.3969 21.2051 99.3969C20.7935 99.3969 20.2245 99.5733 19.9404 99.7878ZM25.281 99.7713C23.6294 100.5 22.7498 102.248 22.7556 104.782C22.7639 107.858 24.3575 109.519 27.3003 109.519C28.1227 109.519 29.1771 109.387 29.6426 109.223C30.3334 108.982 30.4601 108.823 30.3267 108.358C30.2373 108.044 30.1031 107.569 30.0277 107.303C29.9341 106.966 29.7552 106.876 29.4504 107.01C28.7298 107.324 27.3276 107.458 26.6178 107.28C26.072 107.143 25.1476 105.963 25.1476 105.403C25.1476 105.323 26.4058 105.257 27.943 105.257H30.7392L30.7342 103.859C30.7243 100.596 28.0134 98.5637 25.281 99.7713ZM34.5989 99.8814C33.2878 100.504 32.6599 101.189 32.1895 102.51C31.3364 104.903 32.0876 107.708 33.9065 108.918C34.6005 109.379 35.1936 109.519 36.4517 109.519C38.5629 109.519 39.04 109.181 38.8189 107.84C38.6864 107.038 38.5629 106.866 38.2225 107.015C36.9578 107.57 36.0848 107.45 35.2408 106.606C34.4564 105.822 34.41 105.669 34.526 104.27C34.6941 102.249 35.3592 101.675 37.3023 101.875L38.6748 102.018L38.852 101.072C38.9497 100.552 38.9183 100.016 38.7824 99.8798C38.2573 99.3538 35.7079 99.3555 34.5989 99.8814ZM42.5866 99.7729C39.2512 101.256 38.8255 106.878 41.8934 108.918C42.9643 109.629 45.001 109.73 46.1622 109.129C48.044 108.156 49.0247 105.763 48.5575 103.285C47.9869 100.257 45.1932 98.6142 42.5866 99.7729ZM53.3026 99.8094C52.8827 100.041 52.5705 100.096 52.5705 99.9386C52.5705 99.787 52.0288 99.6636 51.3662 99.6636H50.1627L50.2348 104.525L50.3077 109.386L52.7924 109.546L52.8811 106.181C52.9788 102.47 53.166 102.061 54.7662 102.061C55.5091 102.061 55.5265 102.029 55.447 100.796C55.3741 99.6653 55.2954 99.5236 54.7007 99.4681C54.3347 99.4342 53.7052 99.5874 53.3026 99.8094ZM68.0655 99.8425C67.0493 100.344 66.4148 101.406 66.4148 102.607C66.4148 103.518 67.4253 104.666 69.1025 105.663C70.3905 106.427 70.3375 107.228 68.9907 107.339C68.4002 107.387 67.716 107.255 67.3632 107.024C66.7751 106.638 66.7445 106.66 66.4521 107.636C66.2848 108.193 66.1489 108.71 66.1489 108.785C66.1489 109.197 67.9256 109.57 69.3825 109.464C70.8145 109.361 71.1152 109.239 71.7795 108.496C73.2273 106.875 72.6235 104.649 70.436 103.54C69.0628 102.843 68.6652 102.313 69.1514 101.827C69.5506 101.427 70.1246 101.453 71.0001 101.91C71.714 102.283 71.7298 102.273 71.9973 101.309C72.3733 99.9535 72.3882 99.9875 71.2742 99.6777C69.896 99.295 69.0934 99.3356 68.0647 99.8425M25.855 102.015C25.0052 102.954 25.2843 103.325 26.8116 103.291C28.0548 103.263 28.1998 103.2 28.1178 102.727C27.9049 101.493 26.6766 101.107 25.855 102.015ZM43.7412 101.708C43.1672 101.859 42.4533 103.375 42.4533 104.44C42.4533 105.511 43.1093 107.083 43.6402 107.288C44.3483 107.559 45.2776 107.163 45.6023 106.45C45.7738 106.074 45.9146 105.106 45.9146 104.3C45.9146 103.1 45.7961 102.717 45.2611 102.182C44.5985 101.519 44.5306 101.498 43.7412 101.708ZM59.3556 102.331C58.7385 103.014 58.5381 105.403 59.0209 106.318C59.2131 106.682 59.7001 107.096 60.1035 107.237C60.7114 107.452 60.9359 107.395 61.4287 106.902C61.9265 106.404 62.0217 106.015 62.0217 104.492C62.0217 103.344 61.8876 102.514 61.6565 102.235C61.1554 101.631 59.9436 101.681 59.3556 102.331Z" fill="#FDF2EE"/>
</g>
</svg>
