<svg width="310" height="227" viewBox="0 0 310 227" fill="none" xmlns="http://www.w3.org/2000/svg">
<mask id="path-1-inside-1_196_631" fill="white">
<path d="M0 1.24438H224.288V1.59654H224.64V13.0645H224.992V13.4167L225.279 13.5009C226.361 13.8416 227.337 14.3009 228.344 14.8253C228.562 14.9363 228.784 15.0473 229.006 15.1583L234.34 17.8263V18.1784L234.711 18.2282C235.319 18.3813 235.771 18.6377 236.31 18.9593L236.869 19.2923C237.336 19.5909 237.336 19.5909 237.688 19.943L238.14 20.1076L238.568 20.2952L238.748 20.8234C239.276 21.0416 239.276 21.0416 239.804 21.1756V21.5277H240.332V21.8837L240.807 21.9258C241.392 22.0598 241.392 22.0598 241.897 22.4004L242.272 22.7641V23.1162L243.156 23.2923L243.332 23.8244H243.86V24.1765L244.564 24.3526V24.7048H245.092V25.0569L245.513 25.2215C245.976 25.4091 245.976 25.4091 246.328 25.5851V25.9373H246.856V26.2933L247.74 26.6454V26.9976L248.134 27.1392C248.601 27.3421 248.949 27.5411 249.324 27.878V28.234L250.208 28.5861V28.9383L250.912 29.1143V29.4665L251.234 29.6196C251.617 29.8186 251.617 29.8186 252.148 30.1708V30.5268L252.443 30.6569C252.933 30.921 253.342 31.2387 253.778 31.5832L254.253 31.9584L254.617 32.2876V32.6435H254.969V32.9957H255.321V33.3478L255.65 33.5124L256.381 33.8761V34.2282L257.085 34.5804V34.9364H257.613C257.903 35.212 257.903 35.212 258.21 35.5833C258.776 36.2761 259.392 36.8962 260.031 37.5239C260.368 37.8531 260.704 38.1861 261.041 38.5192L261.386 38.8522C262.055 39.5182 262.637 40.1995 263.188 40.9651C263.525 41.4053 263.919 41.7766 264.313 42.167C264.711 42.6187 265.09 43.0819 265.472 43.545L265.794 43.9393C266.639 44.9728 267.447 46.0292 268.239 47.1048C268.56 47.5412 268.866 47.9584 269.249 48.3412V48.8694H269.605C269.903 49.2637 270.19 49.6694 270.462 50.0828L270.719 50.4618C270.902 50.7336 271.082 51.0015 271.262 51.2733C271.541 51.6905 271.824 52.1077 272.104 52.5249C272.919 53.7345 273.734 54.9479 274.468 56.2111C274.648 56.5135 274.836 56.8159 275.023 57.1144C276.152 58.8943 277.109 60.7508 278.065 62.6264L278.276 63.036C278.926 64.3183 279.562 65.6006 280.143 66.9097C280.392 67.4609 280.645 68.0044 280.901 68.548C281.272 69.3556 281.624 70.1748 281.949 71.0054C282.137 71.4877 282.34 71.9623 282.542 72.437C283.377 74.4389 284.107 76.4714 284.769 78.5346C284.896 79.0092 284.896 79.0092 285.122 79.2083C285.125 79.5604 285.129 79.9126 285.122 80.2648H285.474L285.558 80.5825C285.741 81.2523 285.921 81.9222 286.105 82.592C286.354 83.5145 286.614 84.4332 286.882 85.348C287.215 86.4964 287.498 87.6562 287.777 88.8198L287.907 89.3672C288.037 89.9184 288.167 90.4696 288.294 91.0246L288.424 91.5949C288.776 93.1758 289.044 94.7605 289.296 96.3605C289.361 96.7854 289.43 97.2141 289.499 97.639C290.337 102.906 290.444 108.142 290.444 113.463C290.444 114.06 290.444 114.661 290.444 115.262C290.46 118.784 290.417 122.267 290.058 125.773L290 126.34C289.22 133.769 287.448 140.916 285.122 147.997C285.003 148.361 284.884 148.728 284.766 149.096C284.303 150.523 283.824 151.932 283.224 153.31C283.009 153.8 282.814 154.298 282.619 154.795C282.179 155.928 281.678 157.034 281.119 158.114C280.928 158.497 280.763 158.891 280.625 159.297C280.354 160.077 279.94 160.774 279.531 161.486C279.328 161.88 279.206 162.206 279.125 162.634H278.773L278.712 163.021C278.306 164.766 277.093 166.416 276.183 167.94C275.877 168.46 275.578 168.985 275.291 169.517C274.924 170.187 274.507 170.818 274.071 171.446C273.845 171.794 273.657 172.143 273.481 172.514H273.129V173.042H272.777L272.701 173.375C272.601 173.75 272.601 173.75 272.425 174.102H272.073L272.008 174.416C271.889 174.822 271.744 175.078 271.503 175.423L271.262 175.775L271.002 176.139L270.738 176.522C270.118 177.406 269.49 178.282 268.847 179.155C268.572 179.534 268.304 179.921 268.04 180.307L267.665 180.805H267.313V181.333H266.957L266.429 182.39H266.077L265.954 182.765C265.675 183.385 265.277 183.848 264.829 184.353L264.301 184.966L264.034 185.272C263.682 185.685 263.341 186.11 263 186.535C261.332 188.583 259.457 190.451 257.59 192.315C257.215 192.69 256.84 193.065 256.465 193.44L255.405 194.501C254.639 195.262 253.844 195.974 253.029 196.679C252.814 196.87 252.596 197.058 252.382 197.249L251.762 197.792L251.444 198.072C250.882 198.562 250.404 198.922 249.68 199.147V199.5C249.42 199.729 249.42 199.729 249.083 199.963L248.75 200.2L248.444 200.384H248.092V200.736C247.725 201.019 247.35 201.291 246.967 201.551L246.646 201.777C246.367 201.965 246.083 202.145 245.8 202.321H245.448V202.677H244.916V203.029C244.557 203.289 244.185 203.534 243.807 203.768L243.125 204.192L242.781 204.407C242.146 204.805 241.522 205.222 240.898 205.636C240.508 205.85 240.508 205.85 239.98 205.85V206.202C239.574 206.489 239.574 206.489 239.1 206.73H238.568V207.086L238.178 207.297L237.654 207.58L237.141 207.859C236.808 208.043 236.479 208.238 236.157 208.441C235.748 208.671 235.748 208.671 235.22 208.671V209.027L234.868 209.195C233.992 209.624 233.131 210.064 232.281 210.547L231.853 210.788C231.573 210.948 231.294 211.109 231.015 211.274L230.62 211.5L230.268 211.703C229.932 211.848 229.932 211.848 229.224 211.848V212.2C226.591 213.567 226.591 213.567 225.168 213.789V214.141L224.816 214.493C224.758 214.991 224.758 214.991 224.762 215.58L224.754 216.273L224.751 217.023C224.747 217.28 224.743 217.536 224.739 217.789C224.731 218.462 224.728 219.136 224.72 219.81C224.712 220.889 224.701 221.969 224.689 223.048C224.685 223.423 224.682 223.802 224.678 224.177L224.67 224.87L224.666 225.482C224.64 225.957 224.64 225.957 224.464 226.309L156.225 226.485V226.665H151.741C144.237 226.669 136.733 226.669 129.229 226.669H128.85L116.315 226.673C112.017 226.673 107.72 226.677 103.423 226.677C98.3836 226.681 93.3479 226.681 88.3084 226.681H87.9372C85.9627 226.681 83.9844 226.681 82.0061 226.681C80.024 226.684 78.038 226.684 76.052 226.684C74.9768 226.684 73.9015 226.684 72.8225 226.684C71.8391 226.684 70.8556 226.684 69.8722 226.684C69.5164 226.684 69.1567 226.684 68.8008 226.684C68.3187 226.684 67.8365 226.684 67.3505 226.684L66.922 226.688C66.5967 226.684 66.2715 226.677 65.9462 226.665L65.7702 226.485C65.4258 226.47 65.0776 226.466 64.7332 226.466L64.0444 226.462L63.2791 226.466H62.4717C61.7332 226.466 60.9909 226.466 60.2485 226.466C59.4526 226.466 58.6529 226.466 57.8531 226.466C56.4718 226.466 55.0866 226.466 53.7014 226.47C51.7001 226.47 49.6988 226.47 47.6975 226.47C44.4527 226.47 41.2039 226.474 37.9591 226.474C34.806 226.474 31.6491 226.478 28.4961 226.478H24.9833C16.8903 226.482 8.79717 226.482 0.707906 226.485L0.528059 225.957H0V1.24438Z"/>
</mask>
<path d="M0 1.24438H224.288V1.59654H224.64V13.0645H224.992V13.4167L225.279 13.5009C226.361 13.8416 227.337 14.3009 228.344 14.8253C228.562 14.9363 228.784 15.0473 229.006 15.1583L234.34 17.8263V18.1784L234.711 18.2282C235.319 18.3813 235.771 18.6377 236.31 18.9593L236.869 19.2923C237.336 19.5909 237.336 19.5909 237.688 19.943L238.14 20.1076L238.568 20.2952L238.748 20.8234C239.276 21.0416 239.276 21.0416 239.804 21.1756V21.5277H240.332V21.8837L240.807 21.9258C241.392 22.0598 241.392 22.0598 241.897 22.4004L242.272 22.7641V23.1162L243.156 23.2923L243.332 23.8244H243.86V24.1765L244.564 24.3526V24.7048H245.092V25.0569L245.513 25.2215C245.976 25.4091 245.976 25.4091 246.328 25.5851V25.9373H246.856V26.2933L247.74 26.6454V26.9976L248.134 27.1392C248.601 27.3421 248.949 27.5411 249.324 27.878V28.234L250.208 28.5861V28.9383L250.912 29.1143V29.4665L251.234 29.6196C251.617 29.8186 251.617 29.8186 252.148 30.1708V30.5268L252.443 30.6569C252.933 30.921 253.342 31.2387 253.778 31.5832L254.253 31.9584L254.617 32.2876V32.6435H254.969V32.9957H255.321V33.3478L255.65 33.5124L256.381 33.8761V34.2282L257.085 34.5804V34.9364H257.613C257.903 35.212 257.903 35.212 258.21 35.5833C258.776 36.2761 259.392 36.8962 260.031 37.5239C260.368 37.8531 260.704 38.1861 261.041 38.5192L261.386 38.8522C262.055 39.5182 262.637 40.1995 263.188 40.9651C263.525 41.4053 263.919 41.7766 264.313 42.167C264.711 42.6187 265.09 43.0819 265.472 43.545L265.794 43.9393C266.639 44.9728 267.447 46.0292 268.239 47.1048C268.56 47.5412 268.866 47.9584 269.249 48.3412V48.8694H269.605C269.903 49.2637 270.19 49.6694 270.462 50.0828L270.719 50.4618C270.902 50.7336 271.082 51.0015 271.262 51.2733C271.541 51.6905 271.824 52.1077 272.104 52.5249C272.919 53.7345 273.734 54.9479 274.468 56.2111C274.648 56.5135 274.836 56.8159 275.023 57.1144C276.152 58.8943 277.109 60.7508 278.065 62.6264L278.276 63.036C278.926 64.3183 279.562 65.6006 280.143 66.9097C280.392 67.4609 280.645 68.0044 280.901 68.548C281.272 69.3556 281.624 70.1748 281.949 71.0054C282.137 71.4877 282.34 71.9623 282.542 72.437C283.377 74.4389 284.107 76.4714 284.769 78.5346C284.896 79.0092 284.896 79.0092 285.122 79.2083C285.125 79.5604 285.129 79.9126 285.122 80.2648H285.474L285.558 80.5825C285.741 81.2523 285.921 81.9222 286.105 82.592C286.354 83.5145 286.614 84.4332 286.882 85.348C287.215 86.4964 287.498 87.6562 287.777 88.8198L287.907 89.3672C288.037 89.9184 288.167 90.4696 288.294 91.0246L288.424 91.5949C288.776 93.1758 289.044 94.7605 289.296 96.3605C289.361 96.7854 289.43 97.2141 289.499 97.639C290.337 102.906 290.444 108.142 290.444 113.463C290.444 114.06 290.444 114.661 290.444 115.262C290.46 118.784 290.417 122.267 290.058 125.773L290 126.34C289.22 133.769 287.448 140.916 285.122 147.997C285.003 148.361 284.884 148.728 284.766 149.096C284.303 150.523 283.824 151.932 283.224 153.31C283.009 153.8 282.814 154.298 282.619 154.795C282.179 155.928 281.678 157.034 281.119 158.114C280.928 158.497 280.763 158.891 280.625 159.297C280.354 160.077 279.94 160.774 279.531 161.486C279.328 161.88 279.206 162.206 279.125 162.634H278.773L278.712 163.021C278.306 164.766 277.093 166.416 276.183 167.94C275.877 168.46 275.578 168.985 275.291 169.517C274.924 170.187 274.507 170.818 274.071 171.446C273.845 171.794 273.657 172.143 273.481 172.514H273.129V173.042H272.777L272.701 173.375C272.601 173.75 272.601 173.75 272.425 174.102H272.073L272.008 174.416C271.889 174.822 271.744 175.078 271.503 175.423L271.262 175.775L271.002 176.139L270.738 176.522C270.118 177.406 269.49 178.282 268.847 179.155C268.572 179.534 268.304 179.921 268.04 180.307L267.665 180.805H267.313V181.333H266.957L266.429 182.39H266.077L265.954 182.765C265.675 183.385 265.277 183.848 264.829 184.353L264.301 184.966L264.034 185.272C263.682 185.685 263.341 186.11 263 186.535C261.332 188.583 259.457 190.451 257.59 192.315C257.215 192.69 256.84 193.065 256.465 193.44L255.405 194.501C254.639 195.262 253.844 195.974 253.029 196.679C252.814 196.87 252.596 197.058 252.382 197.249L251.762 197.792L251.444 198.072C250.882 198.562 250.404 198.922 249.68 199.147V199.5C249.42 199.729 249.42 199.729 249.083 199.963L248.75 200.2L248.444 200.384H248.092V200.736C247.725 201.019 247.35 201.291 246.967 201.551L246.646 201.777C246.367 201.965 246.083 202.145 245.8 202.321H245.448V202.677H244.916V203.029C244.557 203.289 244.185 203.534 243.807 203.768L243.125 204.192L242.781 204.407C242.146 204.805 241.522 205.222 240.898 205.636C240.508 205.85 240.508 205.85 239.98 205.85V206.202C239.574 206.489 239.574 206.489 239.1 206.73H238.568V207.086L238.178 207.297L237.654 207.58L237.141 207.859C236.808 208.043 236.479 208.238 236.157 208.441C235.748 208.671 235.748 208.671 235.22 208.671V209.027L234.868 209.195C233.992 209.624 233.131 210.064 232.281 210.547L231.853 210.788C231.573 210.948 231.294 211.109 231.015 211.274L230.62 211.5L230.268 211.703C229.932 211.848 229.932 211.848 229.224 211.848V212.2C226.591 213.567 226.591 213.567 225.168 213.789V214.141L224.816 214.493C224.758 214.991 224.758 214.991 224.762 215.58L224.754 216.273L224.751 217.023C224.747 217.28 224.743 217.536 224.739 217.789C224.731 218.462 224.728 219.136 224.72 219.81C224.712 220.889 224.701 221.969 224.689 223.048C224.685 223.423 224.682 223.802 224.678 224.177L224.67 224.87L224.666 225.482C224.64 225.957 224.64 225.957 224.464 226.309L156.225 226.485V226.665H151.741C144.237 226.669 136.733 226.669 129.229 226.669H128.85L116.315 226.673C112.017 226.673 107.72 226.677 103.423 226.677C98.3836 226.681 93.3479 226.681 88.3084 226.681H87.9372C85.9627 226.681 83.9844 226.681 82.0061 226.681C80.024 226.684 78.038 226.684 76.052 226.684C74.9768 226.684 73.9015 226.684 72.8225 226.684C71.8391 226.684 70.8556 226.684 69.8722 226.684C69.5164 226.684 69.1567 226.684 68.8008 226.684C68.3187 226.684 67.8365 226.684 67.3505 226.684L66.922 226.688C66.5967 226.684 66.2715 226.677 65.9462 226.665L65.7702 226.485C65.4258 226.47 65.0776 226.466 64.7332 226.466L64.0444 226.462L63.2791 226.466H62.4717C61.7332 226.466 60.9909 226.466 60.2485 226.466C59.4526 226.466 58.6529 226.466 57.8531 226.466C56.4718 226.466 55.0866 226.466 53.7014 226.47C51.7001 226.47 49.6988 226.47 47.6975 226.47C44.4527 226.47 41.2039 226.474 37.9591 226.474C34.806 226.474 31.6491 226.478 28.4961 226.478H24.9833C16.8903 226.482 8.79717 226.482 0.707906 226.485L0.528059 225.957H0V1.24438Z" fill="#FDEBE6" stroke="black" stroke-width="2" mask="url(#path-1-inside-1_196_631)"/>
<mask id="path-2-inside-2_196_631" fill="white">
<path d="M0 1.24438H224.288V1.59654H224.64V13.0645H224.992V13.4167L225.279 13.5009C226.361 13.8416 227.337 14.3009 228.344 14.8253C228.562 14.9363 228.784 15.0473 229.006 15.1583L234.34 17.8263V18.1784L234.711 18.2282C235.319 18.3813 235.771 18.6377 236.31 18.9593L236.869 19.2923C237.336 19.5909 237.336 19.5909 237.688 19.943L238.14 20.1076L238.568 20.2952L238.748 20.8234C239.276 21.0416 239.276 21.0416 239.804 21.1756V21.5277H240.332V21.8837L240.807 21.9258C241.392 22.0598 241.392 22.0598 241.897 22.4004L242.272 22.7641V23.1162L243.156 23.2923L243.332 23.8244H243.86V24.1765L244.564 24.3526V24.7048H245.092V25.0569L245.513 25.2215C245.976 25.4091 245.976 25.4091 246.328 25.5851V25.9373H246.856V26.2933L247.74 26.6454V26.9976L248.134 27.1392C248.601 27.3421 248.949 27.5411 249.324 27.878V28.234L250.208 28.5861V28.9383L250.912 29.1143V29.4665L251.234 29.6196C251.617 29.8186 251.617 29.8186 252.148 30.1708V30.5268L252.443 30.6569C252.933 30.921 253.342 31.2387 253.778 31.5832L254.253 31.9584L254.617 32.2876V32.6435H254.969V32.9957H255.321V33.3478L255.65 33.5124L256.381 33.8761V34.2282L257.085 34.5804V34.9364H257.613C257.903 35.212 257.903 35.212 258.21 35.5833C258.776 36.2761 259.392 36.8962 260.031 37.5239C260.368 37.8531 260.704 38.1861 261.041 38.5192L261.386 38.8522C262.055 39.5182 262.637 40.1995 263.188 40.9651C263.525 41.4053 263.919 41.7766 264.313 42.167C264.711 42.6187 265.09 43.0819 265.472 43.545L265.794 43.9393C266.639 44.9728 267.447 46.0292 268.239 47.1048C268.56 47.5412 268.866 47.9584 269.249 48.3412V48.8694H269.605C269.903 49.2637 270.19 49.6694 270.462 50.0828L270.719 50.4618C270.902 50.7336 271.082 51.0015 271.262 51.2733C271.541 51.6905 271.824 52.1077 272.104 52.5249C272.919 53.7345 273.734 54.9479 274.468 56.2111C274.648 56.5135 274.836 56.8159 275.023 57.1144C276.152 58.8943 277.109 60.7508 278.065 62.6264L278.276 63.036C278.926 64.3183 279.562 65.6006 280.143 66.9097C280.392 67.4609 280.645 68.0044 280.901 68.548C281.272 69.3556 281.624 70.1748 281.949 71.0054C282.137 71.4877 282.34 71.9623 282.542 72.437C283.377 74.4389 284.107 76.4714 284.769 78.5346C284.896 79.0092 284.896 79.0092 285.122 79.2083C285.125 79.5604 285.129 79.9126 285.122 80.2648H285.474L285.558 80.5825C285.741 81.2523 285.921 81.9222 286.105 82.592C286.354 83.5145 286.614 84.4332 286.882 85.348C287.215 86.4964 287.498 87.6562 287.777 88.8198L287.907 89.3672C288.037 89.9184 288.167 90.4696 288.294 91.0246L288.424 91.5949C288.776 93.1758 289.044 94.7605 289.296 96.3605C289.361 96.7854 289.43 97.2141 289.499 97.639C290.337 102.906 290.444 108.142 290.444 113.463C290.444 114.06 290.444 114.661 290.444 115.262C290.46 118.784 290.417 122.267 290.058 125.773L290 126.34C289.22 133.769 287.448 140.916 285.122 147.997C285.003 148.361 284.884 148.728 284.766 149.096C284.303 150.523 283.824 151.932 283.224 153.31C283.009 153.8 282.814 154.298 282.619 154.795C282.179 155.928 281.678 157.034 281.119 158.114C280.928 158.497 280.763 158.891 280.625 159.297C280.354 160.077 279.94 160.774 279.531 161.486C279.328 161.88 279.206 162.206 279.125 162.634H278.773L278.712 163.021C278.306 164.766 277.093 166.416 276.183 167.94C275.877 168.46 275.578 168.985 275.291 169.517C274.924 170.187 274.507 170.818 274.071 171.446C273.845 171.794 273.657 172.143 273.481 172.514H273.129V173.042H272.777L272.701 173.375C272.601 173.75 272.601 173.75 272.425 174.102H272.073L272.008 174.416C271.889 174.822 271.744 175.078 271.503 175.423L271.262 175.775L271.002 176.139L270.738 176.522C270.118 177.406 269.49 178.282 268.847 179.155C268.572 179.534 268.304 179.921 268.04 180.307L267.665 180.805H267.313V181.333H266.957L266.429 182.39H266.077L265.954 182.765C265.675 183.385 265.277 183.848 264.829 184.353L264.301 184.966L264.034 185.272C263.682 185.685 263.341 186.11 263 186.535C261.332 188.583 259.457 190.451 257.59 192.315C257.215 192.69 256.84 193.065 256.465 193.44L255.405 194.501C254.639 195.262 253.844 195.974 253.029 196.679C252.814 196.87 252.596 197.058 252.382 197.249L251.762 197.792L251.444 198.072C250.882 198.562 250.404 198.922 249.68 199.147V199.5C249.42 199.729 249.42 199.729 249.083 199.963L248.75 200.2L248.444 200.384H248.092V200.736C247.725 201.019 247.35 201.291 246.967 201.551L246.646 201.777C246.367 201.965 246.083 202.145 245.8 202.321H245.448V202.677H244.916V203.029C244.557 203.289 244.185 203.534 243.807 203.768L243.125 204.192L242.781 204.407C242.146 204.805 241.522 205.222 240.898 205.636C240.508 205.85 240.508 205.85 239.98 205.85V206.202C239.574 206.489 239.574 206.489 239.1 206.73H238.568V207.086L238.178 207.297L237.654 207.58L237.141 207.859C236.808 208.043 236.479 208.238 236.157 208.441C235.748 208.671 235.748 208.671 235.22 208.671V209.027L234.868 209.195C233.992 209.624 233.131 210.064 232.281 210.547L231.853 210.788C231.573 210.948 231.294 211.109 231.015 211.274L230.62 211.5L230.268 211.703C229.932 211.848 229.932 211.848 229.224 211.848V212.2C226.591 213.567 226.591 213.567 225.168 213.789V214.141L224.816 214.493C224.758 214.991 224.758 214.991 224.762 215.58L224.754 216.273L224.751 217.023C224.747 217.28 224.743 217.536 224.739 217.789C224.731 218.462 224.728 219.136 224.72 219.81C224.712 220.889 224.701 221.969 224.689 223.048C224.685 223.423 224.682 223.802 224.678 224.177L224.67 224.87L224.666 225.482C224.64 225.957 224.64 225.957 224.464 226.309L156.225 226.485V226.665H151.741C144.237 226.669 136.733 226.669 129.229 226.669H128.85L116.315 226.673C112.017 226.673 107.72 226.677 103.423 226.677C98.3836 226.681 93.3479 226.681 88.3084 226.681H87.9372C85.9627 226.681 83.9844 226.681 82.0061 226.681C80.024 226.684 78.038 226.684 76.052 226.684C74.9768 226.684 73.9015 226.684 72.8225 226.684C71.8391 226.684 70.8556 226.684 69.8722 226.684C69.5164 226.684 69.1567 226.684 68.8008 226.684C68.3187 226.684 67.8365 226.684 67.3505 226.684L66.922 226.688C66.5967 226.684 66.2715 226.677 65.9462 226.665L65.7702 226.485C65.4258 226.47 65.0776 226.466 64.7332 226.466L64.0444 226.462L63.2791 226.466H62.4717C61.7332 226.466 60.9909 226.466 60.2485 226.466C59.4526 226.466 58.6529 226.466 57.8531 226.466C56.4718 226.466 55.0866 226.466 53.7014 226.47C51.7001 226.47 49.6988 226.47 47.6975 226.47C44.4527 226.47 41.2039 226.474 37.9591 226.474C34.806 226.474 31.6491 226.478 28.4961 226.478H24.9833C16.8903 226.482 8.79717 226.482 0.707906 226.485L0.528059 225.957H0V1.24438Z"/>
</mask>
<path d="M0 1.24438H224.288V1.59654H224.64V13.0645H224.992V13.4167L225.279 13.5009C226.361 13.8416 227.337 14.3009 228.344 14.8253C228.562 14.9363 228.784 15.0473 229.006 15.1583L234.34 17.8263V18.1784L234.711 18.2282C235.319 18.3813 235.771 18.6377 236.31 18.9593L236.869 19.2923C237.336 19.5909 237.336 19.5909 237.688 19.943L238.14 20.1076L238.568 20.2952L238.748 20.8234C239.276 21.0416 239.276 21.0416 239.804 21.1756V21.5277H240.332V21.8837L240.807 21.9258C241.392 22.0598 241.392 22.0598 241.897 22.4004L242.272 22.7641V23.1162L243.156 23.2923L243.332 23.8244H243.86V24.1765L244.564 24.3526V24.7048H245.092V25.0569L245.513 25.2215C245.976 25.4091 245.976 25.4091 246.328 25.5851V25.9373H246.856V26.2933L247.74 26.6454V26.9976L248.134 27.1392C248.601 27.3421 248.949 27.5411 249.324 27.878V28.234L250.208 28.5861V28.9383L250.912 29.1143V29.4665L251.234 29.6196C251.617 29.8186 251.617 29.8186 252.148 30.1708V30.5268L252.443 30.6569C252.933 30.921 253.342 31.2387 253.778 31.5832L254.253 31.9584L254.617 32.2876V32.6435H254.969V32.9957H255.321V33.3478L255.65 33.5124L256.381 33.8761V34.2282L257.085 34.5804V34.9364H257.613C257.903 35.212 257.903 35.212 258.21 35.5833C258.776 36.2761 259.392 36.8962 260.031 37.5239C260.368 37.8531 260.704 38.1861 261.041 38.5192L261.386 38.8522C262.055 39.5182 262.637 40.1995 263.188 40.9651C263.525 41.4053 263.919 41.7766 264.313 42.167C264.711 42.6187 265.09 43.0819 265.472 43.545L265.794 43.9393C266.639 44.9728 267.447 46.0292 268.239 47.1048C268.56 47.5412 268.866 47.9584 269.249 48.3412V48.8694H269.605C269.903 49.2637 270.19 49.6694 270.462 50.0828L270.719 50.4618C270.902 50.7336 271.082 51.0015 271.262 51.2733C271.541 51.6905 271.824 52.1077 272.104 52.5249C272.919 53.7345 273.734 54.9479 274.468 56.2111C274.648 56.5135 274.836 56.8159 275.023 57.1144C276.152 58.8943 277.109 60.7508 278.065 62.6264L278.276 63.036C278.926 64.3183 279.562 65.6006 280.143 66.9097C280.392 67.4609 280.645 68.0044 280.901 68.548C281.272 69.3556 281.624 70.1748 281.949 71.0054C282.137 71.4877 282.34 71.9623 282.542 72.437C283.377 74.4389 284.107 76.4714 284.769 78.5346C284.896 79.0092 284.896 79.0092 285.122 79.2083C285.125 79.5604 285.129 79.9126 285.122 80.2648H285.474L285.558 80.5825C285.741 81.2523 285.921 81.9222 286.105 82.592C286.354 83.5145 286.614 84.4332 286.882 85.348C287.215 86.4964 287.498 87.6562 287.777 88.8198L287.907 89.3672C288.037 89.9184 288.167 90.4696 288.294 91.0246L288.424 91.5949C288.776 93.1758 289.044 94.7605 289.296 96.3605C289.361 96.7854 289.43 97.2141 289.499 97.639C290.337 102.906 290.444 108.142 290.444 113.463C290.444 114.06 290.444 114.661 290.444 115.262C290.46 118.784 290.417 122.267 290.058 125.773L290 126.34C289.22 133.769 287.448 140.916 285.122 147.997C285.003 148.361 284.884 148.728 284.766 149.096C284.303 150.523 283.824 151.932 283.224 153.31C283.009 153.8 282.814 154.298 282.619 154.795C282.179 155.928 281.678 157.034 281.119 158.114C280.928 158.497 280.763 158.891 280.625 159.297C280.354 160.077 279.94 160.774 279.531 161.486C279.328 161.88 279.206 162.206 279.125 162.634H278.773L278.712 163.021C278.306 164.766 277.093 166.416 276.183 167.94C275.877 168.46 275.578 168.985 275.291 169.517C274.924 170.187 274.507 170.818 274.071 171.446C273.845 171.794 273.657 172.143 273.481 172.514H273.129V173.042H272.777L272.701 173.375C272.601 173.75 272.601 173.75 272.425 174.102H272.073L272.008 174.416C271.889 174.822 271.744 175.078 271.503 175.423L271.262 175.775L271.002 176.139L270.738 176.522C270.118 177.406 269.49 178.282 268.847 179.155C268.572 179.534 268.304 179.921 268.04 180.307L267.665 180.805H267.313V181.333H266.957L266.429 182.39H266.077L265.954 182.765C265.675 183.385 265.277 183.848 264.829 184.353L264.301 184.966L264.034 185.272C263.682 185.685 263.341 186.11 263 186.535C261.332 188.583 259.457 190.451 257.59 192.315C257.215 192.69 256.84 193.065 256.465 193.44L255.405 194.501C254.639 195.262 253.844 195.974 253.029 196.679C252.814 196.87 252.596 197.058 252.382 197.249L251.762 197.792L251.444 198.072C250.882 198.562 250.404 198.922 249.68 199.147V199.5C249.42 199.729 249.42 199.729 249.083 199.963L248.75 200.2L248.444 200.384H248.092V200.736C247.725 201.019 247.35 201.291 246.967 201.551L246.646 201.777C246.367 201.965 246.083 202.145 245.8 202.321H245.448V202.677H244.916V203.029C244.557 203.289 244.185 203.534 243.807 203.768L243.125 204.192L242.781 204.407C242.146 204.805 241.522 205.222 240.898 205.636C240.508 205.85 240.508 205.85 239.98 205.85V206.202C239.574 206.489 239.574 206.489 239.1 206.73H238.568V207.086L238.178 207.297L237.654 207.58L237.141 207.859C236.808 208.043 236.479 208.238 236.157 208.441C235.748 208.671 235.748 208.671 235.22 208.671V209.027L234.868 209.195C233.992 209.624 233.131 210.064 232.281 210.547L231.853 210.788C231.573 210.948 231.294 211.109 231.015 211.274L230.62 211.5L230.268 211.703C229.932 211.848 229.932 211.848 229.224 211.848V212.2C226.591 213.567 226.591 213.567 225.168 213.789V214.141L224.816 214.493C224.758 214.991 224.758 214.991 224.762 215.58L224.754 216.273L224.751 217.023C224.747 217.28 224.743 217.536 224.739 217.789C224.731 218.462 224.728 219.136 224.72 219.81C224.712 220.889 224.701 221.969 224.689 223.048C224.685 223.423 224.682 223.802 224.678 224.177L224.67 224.87L224.666 225.482C224.64 225.957 224.64 225.957 224.464 226.309L156.225 226.485V226.665H151.741C144.237 226.669 136.733 226.669 129.229 226.669H128.85L116.315 226.673C112.017 226.673 107.72 226.677 103.423 226.677C98.3836 226.681 93.3479 226.681 88.3084 226.681H87.9372C85.9627 226.681 83.9844 226.681 82.0061 226.681C80.024 226.684 78.038 226.684 76.052 226.684C74.9768 226.684 73.9015 226.684 72.8225 226.684C71.8391 226.684 70.8556 226.684 69.8722 226.684C69.5164 226.684 69.1567 226.684 68.8008 226.684C68.3187 226.684 67.8365 226.684 67.3505 226.684L66.922 226.688C66.5967 226.684 66.2715 226.677 65.9462 226.665L65.7702 226.485C65.4258 226.47 65.0776 226.466 64.7332 226.466L64.0444 226.462L63.2791 226.466H62.4717C61.7332 226.466 60.9909 226.466 60.2485 226.466C59.4526 226.466 58.6529 226.466 57.8531 226.466C56.4718 226.466 55.0866 226.466 53.7014 226.47C51.7001 226.47 49.6988 226.47 47.6975 226.47C44.4527 226.47 41.2039 226.474 37.9591 226.474C34.806 226.474 31.6491 226.478 28.4961 226.478H24.9833C16.8903 226.482 8.79717 226.482 0.707906 226.485L0.528059 225.957H0V1.24438Z" fill="#FDEBE6" stroke="black" stroke-width="2" mask="url(#path-2-inside-2_196_631)"/>
<mask id="path-3-inside-3_196_631" fill="white">
<path d="M225.016 13.2673C225.273 13.3517 225.525 13.4322 225.781 13.5165L226.21 13.6583C226.657 13.8155 227.074 14.0072 227.495 14.2257L227.946 14.4595L228.367 14.678C228.585 14.7892 228.807 14.9004 229.029 15.0115L234.361 17.6834V18.0361L234.732 18.0859C235.34 18.2393 235.792 18.4961 236.331 18.8181L236.889 19.1516C237.356 19.4506 237.356 19.4506 237.708 19.8033L238.159 19.9682L238.588 20.156L238.768 20.685C239.295 20.9035 239.295 20.9035 239.823 21.0377V21.3904H240.351V21.7469L240.825 21.789C241.411 21.9232 241.411 21.9232 241.916 22.2644L242.29 22.6285V22.9812L243.174 23.1576L243.35 23.6904H243.878V24.0431L244.582 24.2194V24.5721H245.109V24.9248L245.53 25.0896C245.993 25.2774 245.993 25.2774 246.345 25.4538V25.8065H246.873V26.163L247.756 26.5156V26.8683L248.15 27.0101C248.617 27.2133 248.965 27.4127 249.34 27.75V28.1065L250.224 28.4592V28.8119L250.927 28.9882V29.3409L251.249 29.4942C251.631 29.6935 251.631 29.6935 252.163 30.0462V30.4027L252.457 30.5331C252.947 30.7976 253.356 31.1157 253.792 31.4607L254.267 31.8364L254.63 32.1661V32.5226H254.982V32.8753H255.334V33.228L255.663 33.3928L256.393 33.757V34.1096L257.097 34.4623V34.8188H257.625C257.916 35.0948 257.916 35.0948 258.222 35.4667C258.788 36.1605 259.404 36.7815 260.042 37.4102C260.379 37.7399 260.716 38.0734 261.052 38.4069L261.396 38.7404C262.066 39.4074 262.647 40.0898 263.198 40.8565C263.535 41.2973 263.929 41.6691 264.323 42.0602C264.72 42.5125 265.099 42.9763 265.482 43.4402L265.803 43.835C266.648 44.8701 267.455 45.9281 268.247 47.0053C268.568 47.4423 268.874 47.8601 269.257 48.2435V48.7725H269.613C269.911 49.1673 270.198 49.5737 270.469 49.9877L270.726 50.3672C270.909 50.6394 271.089 50.9077 271.269 51.1799C271.548 51.5977 271.831 52.0156 272.11 52.4334C272.925 53.6448 273.74 54.86 274.474 56.125C274.654 56.4278 274.841 56.7307 275.029 57.0297C276.157 58.8122 277.114 60.6714 278.07 62.5498L278.28 62.96C278.93 64.2442 279.565 65.5284 280.147 66.8394C280.395 67.3914 280.648 67.9357 280.904 68.4801C281.275 69.2889 281.627 70.1093 281.952 70.9412C282.14 71.4242 282.342 71.8995 282.545 72.3749C283.379 74.3797 284.11 76.4153 284.771 78.4815C284.898 78.9568 284.897 78.9568 285.123 79.1562C285.127 79.5089 285.131 79.8615 285.123 80.2142H285.475L285.559 80.5324L285.957 82.0044L286.106 82.5449C286.355 83.4688 286.615 84.3888 286.883 85.305C287.215 86.455 287.499 87.6165 287.778 88.7819L287.908 89.3301C288.038 89.8821 288.168 90.4341 288.294 90.9899L288.424 91.5611C288.776 93.1443 289.044 94.7314 289.296 96.3337C289.361 96.7592 289.43 97.1886 289.499 97.6141C290.337 102.889 290.444 108.133 290.444 113.461C290.444 114.059 290.444 114.661 290.444 115.263C290.459 118.79 290.417 122.278 290.057 125.79L290 126.357C289.22 133.798 287.449 140.955 285.123 148.047C285.005 148.411 284.886 148.779 284.767 149.147C284.305 150.577 283.826 151.987 283.226 153.367C283.012 153.858 282.817 154.356 282.622 154.855C282.182 155.989 281.681 157.097 281.122 158.178C280.931 158.562 280.766 158.956 280.629 159.363C280.357 160.145 279.944 160.843 279.535 161.556C279.332 161.95 279.21 162.276 279.129 162.706H278.777L278.716 163.093C278.311 164.841 277.098 166.493 276.188 168.019C275.882 168.54 275.584 169.065 275.297 169.598C274.929 170.269 274.513 170.901 274.076 171.53C273.851 171.879 273.663 172.228 273.487 172.6H273.136V173.129H272.784L272.707 173.462C272.608 173.838 272.608 173.838 272.432 174.191H272.08L272.015 174.505C271.896 174.911 271.751 175.168 271.51 175.513L271.269 175.866L271.009 176.23L270.745 176.613C270.125 177.499 269.498 178.377 268.855 179.251C268.58 179.63 268.312 180.017 268.048 180.404L267.673 180.903H267.321V181.432H266.966L266.438 182.49H266.086L265.964 182.866C265.684 183.487 265.287 183.95 264.839 184.456L264.311 185.07L264.043 185.376C263.691 185.79 263.351 186.216 263.011 186.641C261.343 188.692 259.469 190.563 257.602 192.43C257.227 192.806 256.852 193.181 256.477 193.557L255.418 194.619C254.653 195.382 253.857 196.095 253.043 196.8C252.828 196.992 252.61 197.18 252.396 197.371L251.776 197.916L251.459 198.195C250.897 198.686 250.419 199.046 249.696 199.273V199.625C249.436 199.855 249.436 199.855 249.099 200.089L248.766 200.327L248.46 200.511H248.108V200.863C247.741 201.147 247.366 201.419 246.984 201.68L246.662 201.906C246.383 202.094 246.1 202.274 245.817 202.45H245.465V202.807H244.933V203.16C244.574 203.42 244.203 203.666 243.824 203.9L243.143 204.325L242.799 204.54C242.164 204.938 241.541 205.356 240.917 205.77C240.527 205.985 240.527 205.985 239.999 205.985V206.338C239.594 206.625 239.594 206.625 239.119 206.867H238.588V207.223L238.198 207.434L237.674 207.718L237.161 207.997C236.828 208.181 236.499 208.377 236.178 208.58C235.769 208.81 235.769 208.81 235.241 208.81V209.167L234.889 209.335C234.013 209.765 233.152 210.206 232.303 210.689L231.875 210.93C231.596 211.091 231.316 211.252 231.037 211.417L230.643 211.643L230.291 211.846C229.955 211.992 229.955 211.992 229.247 211.992V212.345C226.615 213.713 226.615 213.713 225.192 213.935V214.288H224.841C224.837 184.357 224.837 184.357 224.833 158.999V130.762C224.833 121.531 224.833 112.296 224.829 103.065C224.825 96.3299 224.825 89.5946 224.825 82.8593V69.2084C224.825 64.8997 224.825 60.5871 224.821 56.2745C224.821 51.3217 224.821 46.3689 224.821 41.4123V41.0558C224.821 39.0816 224.821 37.1112 224.821 35.137C224.818 33.412 224.818 31.6869 224.821 29.9657C224.821 28.9844 224.821 28.0068 224.818 27.0255C224.818 22.4369 224.867 17.8521 225.016 13.2673Z"/>
</mask>
<path d="M225.016 13.2673C225.273 13.3517 225.525 13.4322 225.781 13.5165L226.21 13.6583C226.657 13.8155 227.074 14.0072 227.495 14.2257L227.946 14.4595L228.367 14.678C228.585 14.7892 228.807 14.9004 229.029 15.0115L234.361 17.6834V18.0361L234.732 18.0859C235.34 18.2393 235.792 18.4961 236.331 18.8181L236.889 19.1516C237.356 19.4506 237.356 19.4506 237.708 19.8033L238.159 19.9682L238.588 20.156L238.768 20.685C239.295 20.9035 239.295 20.9035 239.823 21.0377V21.3904H240.351V21.7469L240.825 21.789C241.411 21.9232 241.411 21.9232 241.916 22.2644L242.29 22.6285V22.9812L243.174 23.1576L243.35 23.6904H243.878V24.0431L244.582 24.2194V24.5721H245.109V24.9248L245.53 25.0896C245.993 25.2774 245.993 25.2774 246.345 25.4538V25.8065H246.873V26.163L247.756 26.5156V26.8683L248.15 27.0101C248.617 27.2133 248.965 27.4127 249.34 27.75V28.1065L250.224 28.4592V28.8119L250.927 28.9882V29.3409L251.249 29.4942C251.631 29.6935 251.631 29.6935 252.163 30.0462V30.4027L252.457 30.5331C252.947 30.7976 253.356 31.1157 253.792 31.4607L254.267 31.8364L254.63 32.1661V32.5226H254.982V32.8753H255.334V33.228L255.663 33.3928L256.393 33.757V34.1096L257.097 34.4623V34.8188H257.625C257.916 35.0948 257.916 35.0948 258.222 35.4667C258.788 36.1605 259.404 36.7815 260.042 37.4102C260.379 37.7399 260.716 38.0734 261.052 38.4069L261.396 38.7404C262.066 39.4074 262.647 40.0898 263.198 40.8565C263.535 41.2973 263.929 41.6691 264.323 42.0602C264.72 42.5125 265.099 42.9763 265.482 43.4402L265.803 43.835C266.648 44.8701 267.455 45.9281 268.247 47.0053C268.568 47.4423 268.874 47.8601 269.257 48.2435V48.7725H269.613C269.911 49.1673 270.198 49.5737 270.469 49.9877L270.726 50.3672C270.909 50.6394 271.089 50.9077 271.269 51.1799C271.548 51.5977 271.831 52.0156 272.11 52.4334C272.925 53.6448 273.74 54.86 274.474 56.125C274.654 56.4278 274.841 56.7307 275.029 57.0297C276.157 58.8122 277.114 60.6714 278.07 62.5498L278.28 62.96C278.93 64.2442 279.565 65.5284 280.147 66.8394C280.395 67.3914 280.648 67.9357 280.904 68.4801C281.275 69.2889 281.627 70.1093 281.952 70.9412C282.14 71.4242 282.342 71.8995 282.545 72.3749C283.379 74.3797 284.11 76.4153 284.771 78.4815C284.898 78.9568 284.897 78.9568 285.123 79.1562C285.127 79.5089 285.131 79.8615 285.123 80.2142H285.475L285.559 80.5324L285.957 82.0044L286.106 82.5449C286.355 83.4688 286.615 84.3888 286.883 85.305C287.215 86.455 287.499 87.6165 287.778 88.7819L287.908 89.3301C288.038 89.8821 288.168 90.4341 288.294 90.9899L288.424 91.5611C288.776 93.1443 289.044 94.7314 289.296 96.3337C289.361 96.7592 289.43 97.1886 289.499 97.6141C290.337 102.889 290.444 108.133 290.444 113.461C290.444 114.059 290.444 114.661 290.444 115.263C290.459 118.79 290.417 122.278 290.057 125.79L290 126.357C289.22 133.798 287.449 140.955 285.123 148.047C285.005 148.411 284.886 148.779 284.767 149.147C284.305 150.577 283.826 151.987 283.226 153.367C283.012 153.858 282.817 154.356 282.622 154.855C282.182 155.989 281.681 157.097 281.122 158.178C280.931 158.562 280.766 158.956 280.629 159.363C280.357 160.145 279.944 160.843 279.535 161.556C279.332 161.95 279.21 162.276 279.129 162.706H278.777L278.716 163.093C278.311 164.841 277.098 166.493 276.188 168.019C275.882 168.54 275.584 169.065 275.297 169.598C274.929 170.269 274.513 170.901 274.076 171.53C273.851 171.879 273.663 172.228 273.487 172.6H273.136V173.129H272.784L272.707 173.462C272.608 173.838 272.608 173.838 272.432 174.191H272.08L272.015 174.505C271.896 174.911 271.751 175.168 271.51 175.513L271.269 175.866L271.009 176.23L270.745 176.613C270.125 177.499 269.498 178.377 268.855 179.251C268.58 179.63 268.312 180.017 268.048 180.404L267.673 180.903H267.321V181.432H266.966L266.438 182.49H266.086L265.964 182.866C265.684 183.487 265.287 183.95 264.839 184.456L264.311 185.07L264.043 185.376C263.691 185.79 263.351 186.216 263.011 186.641C261.343 188.692 259.469 190.563 257.602 192.43C257.227 192.806 256.852 193.181 256.477 193.557L255.418 194.619C254.653 195.382 253.857 196.095 253.043 196.8C252.828 196.992 252.61 197.18 252.396 197.371L251.776 197.916L251.459 198.195C250.897 198.686 250.419 199.046 249.696 199.273V199.625C249.436 199.855 249.436 199.855 249.099 200.089L248.766 200.327L248.46 200.511H248.108V200.863C247.741 201.147 247.366 201.419 246.984 201.68L246.662 201.906C246.383 202.094 246.1 202.274 245.817 202.45H245.465V202.807H244.933V203.16C244.574 203.42 244.203 203.666 243.824 203.9L243.143 204.325L242.799 204.54C242.164 204.938 241.541 205.356 240.917 205.77C240.527 205.985 240.527 205.985 239.999 205.985V206.338C239.594 206.625 239.594 206.625 239.119 206.867H238.588V207.223L238.198 207.434L237.674 207.718L237.161 207.997C236.828 208.181 236.499 208.377 236.178 208.58C235.769 208.81 235.769 208.81 235.241 208.81V209.167L234.889 209.335C234.013 209.765 233.152 210.206 232.303 210.689L231.875 210.93C231.596 211.091 231.316 211.252 231.037 211.417L230.643 211.643L230.291 211.846C229.955 211.992 229.955 211.992 229.247 211.992V212.345C226.615 213.713 226.615 213.713 225.192 213.935V214.288H224.841C224.837 184.357 224.837 184.357 224.833 158.999V130.762C224.833 121.531 224.833 112.296 224.829 103.065C224.825 96.3299 224.825 89.5946 224.825 82.8593V69.2084C224.825 64.8997 224.825 60.5871 224.821 56.2745C224.821 51.3217 224.821 46.3689 224.821 41.4123V41.0558C224.821 39.0816 224.821 37.1112 224.821 35.137C224.818 33.412 224.818 31.6869 224.821 29.9657C224.821 28.9844 224.821 28.0068 224.818 27.0255C224.818 22.4369 224.867 17.8521 225.016 13.2673Z" fill="#070706" stroke="black" stroke-width="2" mask="url(#path-3-inside-3_196_631)"/>
<mask id="path-4-inside-4_196_631" fill="white">
<path d="M266.416 48.2119H266.769C267.045 48.5605 267.313 48.9205 267.566 49.292L268.046 49.9777L268.295 50.3339C268.517 50.6556 268.748 50.9735 268.978 51.2914C270.128 52.8733 271.202 54.4974 272.249 56.152L272.483 56.5236C274.393 59.5609 276.184 62.6864 277.753 65.9115C277.975 66.3635 278.213 66.8116 278.455 67.2559C280.346 70.6802 281.711 74.3649 283.03 78.0381L283.256 78.6662C286.237 86.997 288.043 95.7109 288.86 104.513L288.925 105.187C289.447 111.154 289.477 117.264 288.86 123.224L288.756 124.35C287.59 136.377 284.173 148.09 279.141 159.052L278.884 159.607C277.703 162.166 276.407 164.636 274.988 167.068C274.742 167.49 274.501 167.911 274.259 168.332C273.273 170.045 272.207 171.688 271.095 173.319C270.849 173.679 270.608 174.039 270.366 174.4C268.456 177.234 266.37 179.953 264.118 182.527L263.781 182.914C263.102 183.696 262.412 184.462 261.717 185.228C261.484 185.488 261.253 185.749 261.023 186.013C260.31 186.84 259.57 187.625 258.795 188.399L258.446 188.751C258.204 188.997 257.959 189.238 257.717 189.479C257.349 189.847 256.985 190.218 256.617 190.586C255.405 191.804 254.196 192.976 252.808 193.999L252.455 193.647L252.808 193.114C252.754 192.735 252.754 192.735 252.632 192.409L251.746 192.233C252.275 191.586 252.793 190.992 253.429 190.456C254.3 189.705 255.109 188.901 255.922 188.089C256.175 187.832 256.432 187.576 256.689 187.323C257.61 186.4 258.5 185.457 259.347 184.465C259.597 184.19 259.846 183.914 260.099 183.638C263.363 180.022 266.293 176.123 269.02 172.09C269.235 171.772 269.449 171.458 269.668 171.144C273.335 165.816 276.265 159.925 278.731 153.961C278.93 153.483 279.134 153.011 279.337 152.536C281.435 147.622 282.923 142.375 284.089 137.166L284.173 136.798C284.986 133.178 285.611 129.563 286.033 125.87L286.106 125.257C286.62 121.002 286.762 116.735 286.915 112.457H286.563L286.57 113.05C286.578 114.456 286.563 115.827 286.386 117.222C285.627 117.451 285.044 117.336 284.265 117.222L284.089 116.693L283.747 116.624L283.383 116.517L283.03 115.632C282.693 115.456 282.693 115.456 282.321 115.456L281.791 115.632V115.28L280.733 114.927L280.369 114.851C280.023 114.751 280.023 114.751 279.67 114.399L279.13 114.165L278.612 113.866C278.543 113.575 278.485 113.28 278.432 112.985C277.991 112.687 277.991 112.687 277.55 112.457V112.104H277.02L276.844 111.22L276.832 111.675C276.733 115.705 276.614 119.742 276.134 123.752H275.782C275.808 123.197 275.835 122.641 275.858 122.086L275.881 121.626C275.923 120.745 275.969 119.864 276.027 118.983C276.131 117.336 276.173 115.693 276.169 114.042V113.633C276.154 107.136 275.766 100.38 274.098 94.083C273.983 93.6195 273.906 93.1561 273.837 92.6888H273.484L273.308 93.0412L273.005 92.9033L272.591 92.7194L272.149 92.5241C271.889 92.4092 271.628 92.2981 271.363 92.1947C270.681 91.9266 270.27 91.6278 269.775 91.0992C269.48 90.9192 269.185 90.743 268.889 90.5707C267.969 89.954 267.229 89.2799 266.519 88.4296C266.224 88.0657 266.224 88.0657 265.764 87.6673C265.292 87.1426 265.085 86.6408 264.82 85.9935C264.605 85.5377 264.302 85.2696 263.942 84.921C263.762 84.5112 263.585 84.1014 263.413 83.6877L263.068 83.2779C262.649 82.734 262.442 82.2131 262.201 81.5734C262.047 81.1712 261.89 80.7729 261.725 80.3745L261.579 80.0221C261.484 79.7923 261.391 79.5664 261.296 79.3365C260.13 76.4792 260.295 72.2046 260.628 69.1634C260.747 68.3475 260.927 67.547 261.115 66.7427L261.38 65.4404C261.56 64.5977 261.787 63.7857 262.043 62.9622C262.251 62.2383 262.396 61.4991 262.55 60.7598C262.83 59.4269 263.16 58.1016 263.482 56.7764C263.578 56.3665 263.673 55.9529 263.766 55.5392C264.069 54.2101 264.479 53.1031 265.135 51.9081C265.457 51.1421 265.445 50.4105 265.472 49.587C265.534 49.0929 265.534 49.0929 265.725 48.752C265.963 48.5068 265.963 48.5068 266.416 48.2119Z"/>
</mask>
<path d="M266.416 48.2119H266.769C267.045 48.5605 267.313 48.9205 267.566 49.292L268.046 49.9777L268.295 50.3339C268.517 50.6556 268.748 50.9735 268.978 51.2914C270.128 52.8733 271.202 54.4974 272.249 56.152L272.483 56.5236C274.393 59.5609 276.184 62.6864 277.753 65.9115C277.975 66.3635 278.213 66.8116 278.455 67.2559C280.346 70.6802 281.711 74.3649 283.03 78.0381L283.256 78.6662C286.237 86.997 288.043 95.7109 288.86 104.513L288.925 105.187C289.447 111.154 289.477 117.264 288.86 123.224L288.756 124.35C287.59 136.377 284.173 148.09 279.141 159.052L278.884 159.607C277.703 162.166 276.407 164.636 274.988 167.068C274.742 167.49 274.501 167.911 274.259 168.332C273.273 170.045 272.207 171.688 271.095 173.319C270.849 173.679 270.608 174.039 270.366 174.4C268.456 177.234 266.37 179.953 264.118 182.527L263.781 182.914C263.102 183.696 262.412 184.462 261.717 185.228C261.484 185.488 261.253 185.749 261.023 186.013C260.31 186.84 259.57 187.625 258.795 188.399L258.446 188.751C258.204 188.997 257.959 189.238 257.717 189.479C257.349 189.847 256.985 190.218 256.617 190.586C255.405 191.804 254.196 192.976 252.808 193.999L252.455 193.647L252.808 193.114C252.754 192.735 252.754 192.735 252.632 192.409L251.746 192.233C252.275 191.586 252.793 190.992 253.429 190.456C254.3 189.705 255.109 188.901 255.922 188.089C256.175 187.832 256.432 187.576 256.689 187.323C257.61 186.4 258.5 185.457 259.347 184.465C259.597 184.19 259.846 183.914 260.099 183.638C263.363 180.022 266.293 176.123 269.02 172.09C269.235 171.772 269.449 171.458 269.668 171.144C273.335 165.816 276.265 159.925 278.731 153.961C278.93 153.483 279.134 153.011 279.337 152.536C281.435 147.622 282.923 142.375 284.089 137.166L284.173 136.798C284.986 133.178 285.611 129.563 286.033 125.87L286.106 125.257C286.62 121.002 286.762 116.735 286.915 112.457H286.563L286.57 113.05C286.578 114.456 286.563 115.827 286.386 117.222C285.627 117.451 285.044 117.336 284.265 117.222L284.089 116.693L283.747 116.624L283.383 116.517L283.03 115.632C282.693 115.456 282.693 115.456 282.321 115.456L281.791 115.632V115.28L280.733 114.927L280.369 114.851C280.023 114.751 280.023 114.751 279.67 114.399L279.13 114.165L278.612 113.866C278.543 113.575 278.485 113.28 278.432 112.985C277.991 112.687 277.991 112.687 277.55 112.457V112.104H277.02L276.844 111.22L276.832 111.675C276.733 115.705 276.614 119.742 276.134 123.752H275.782C275.808 123.197 275.835 122.641 275.858 122.086L275.881 121.626C275.923 120.745 275.969 119.864 276.027 118.983C276.131 117.336 276.173 115.693 276.169 114.042V113.633C276.154 107.136 275.766 100.38 274.098 94.083C273.983 93.6195 273.906 93.1561 273.837 92.6888H273.484L273.308 93.0412L273.005 92.9033L272.591 92.7194L272.149 92.5241C271.889 92.4092 271.628 92.2981 271.363 92.1947C270.681 91.9266 270.27 91.6278 269.775 91.0992C269.48 90.9192 269.185 90.743 268.889 90.5707C267.969 89.954 267.229 89.2799 266.519 88.4296C266.224 88.0657 266.224 88.0657 265.764 87.6673C265.292 87.1426 265.085 86.6408 264.82 85.9935C264.605 85.5377 264.302 85.2696 263.942 84.921C263.762 84.5112 263.585 84.1014 263.413 83.6877L263.068 83.2779C262.649 82.734 262.442 82.2131 262.201 81.5734C262.047 81.1712 261.89 80.7729 261.725 80.3745L261.579 80.0221C261.484 79.7923 261.391 79.5664 261.296 79.3365C260.13 76.4792 260.295 72.2046 260.628 69.1634C260.747 68.3475 260.927 67.547 261.115 66.7427L261.38 65.4404C261.56 64.5977 261.787 63.7857 262.043 62.9622C262.251 62.2383 262.396 61.4991 262.55 60.7598C262.83 59.4269 263.16 58.1016 263.482 56.7764C263.578 56.3665 263.673 55.9529 263.766 55.5392C264.069 54.2101 264.479 53.1031 265.135 51.9081C265.457 51.1421 265.445 50.4105 265.472 49.587C265.534 49.0929 265.534 49.0929 265.725 48.752C265.963 48.5068 265.963 48.5068 266.416 48.2119Z" fill="black" stroke="black" stroke-width="2" mask="url(#path-4-inside-4_196_631)"/>
<path d="M281.085 74.3433C281.29 74.7237 281.445 75.0749 281.597 75.4956L281.6 75.5015L281.776 75.9692C281.982 76.5251 282.184 77.0846 282.378 77.6431L282.38 77.6499L282.622 78.313C285.659 86.7673 287.533 95.594 288.362 104.535V104.537L288.427 105.211C288.946 111.152 288.976 117.229 288.363 123.153L288.362 123.159L288.258 124.283C287.099 136.25 283.698 147.912 278.687 158.833L278.43 159.388C277.256 161.932 275.967 164.389 274.555 166.809V166.81C274.309 167.233 274.066 167.656 273.825 168.077C272.848 169.774 271.789 171.407 270.681 173.033C270.435 173.394 270.193 173.755 269.952 174.115C268.053 176.933 265.979 179.636 263.742 182.195V182.196L263.404 182.583L263.403 182.583C262.728 183.361 262.041 184.123 261.347 184.889L261.345 184.891C261.112 185.15 260.875 185.415 260.644 185.684C259.941 186.5 259.21 187.277 258.442 188.043L258.44 188.045L258.09 188.398L257.364 189.125C257.179 189.309 256.995 189.496 256.812 189.68C256.629 189.865 256.446 190.049 256.263 190.232L256.262 190.233C255.291 191.209 254.334 192.14 253.295 192.986C253.273 192.837 253.258 192.726 253.231 192.62C253.201 192.498 253.157 192.386 253.099 192.233L253.002 191.973L252.729 191.918L252.676 191.908C252.95 191.597 253.228 191.304 253.531 191.03L253.752 190.837L253.756 190.833C254.643 190.069 255.464 189.252 256.276 188.441L256.278 188.438C256.529 188.183 256.785 187.928 257.04 187.677L257.044 187.674C257.967 186.748 258.862 185.798 259.717 184.797L259.718 184.798C259.968 184.522 260.216 184.247 260.467 183.973L260.47 183.97C263.343 180.786 265.957 177.387 268.398 173.875L269.434 172.364L270.079 171.423L270.08 171.421C273.772 166.054 276.718 160.127 279.192 154.141L279.797 152.722C281.911 147.769 283.407 142.487 284.577 137.259L284.576 137.258L284.661 136.895V136.892C285.477 133.256 286.11 129.622 286.53 125.91L286.607 125.243V125.242C287.062 121.248 287.257 117.265 287.253 113.26L287.239 111.542L287.231 111.01V111.009C287.037 98.4606 284.11 86.3514 279.806 74.6587C279.889 74.6372 279.966 74.6147 280.041 74.5835C280.167 74.5307 280.282 74.4582 280.42 74.3716C280.59 74.2984 280.627 74.2853 280.663 74.2778C280.698 74.2706 280.739 74.2675 280.888 74.2642L281.085 74.3433Z" fill="black" stroke="black"/>
<path d="M277.294 160.44L277.317 160.535L276.85 161.002L277.435 161.294C277.239 161.854 277.005 162.38 276.714 162.92L276.714 162.921L276.39 163.53L276.042 164.172L276.039 164.177L275.865 164.506C274.268 167.46 272.544 170.305 270.651 173.074L270.65 173.075C270.408 173.432 270.17 173.79 269.933 174.145C268.037 176.962 265.965 179.66 263.727 182.214V182.215L263.39 182.601L263.389 182.602C262.715 183.378 262.028 184.139 261.336 184.904L261.334 184.906C261.101 185.164 260.864 185.429 260.633 185.698C259.931 186.512 259.2 187.287 258.433 188.053L258.431 188.055L258.083 188.406L258.082 188.407C257.842 188.65 257.602 188.886 257.357 189.131C257.172 189.316 256.988 189.501 256.805 189.686C256.622 189.87 256.44 190.054 256.257 190.237L256.256 190.238C255.287 191.212 254.332 192.141 253.294 192.986C253.273 192.838 253.257 192.727 253.23 192.621C253.2 192.499 253.156 192.388 253.098 192.235L253.001 191.975L252.728 191.92L252.677 191.909C253.015 191.526 253.359 191.172 253.75 190.843L253.754 190.839C254.639 190.076 255.46 189.26 256.271 188.45L256.273 188.448C256.524 188.193 256.779 187.939 257.034 187.689L257.038 187.685C257.963 186.757 258.86 185.806 259.717 184.803C259.964 184.531 260.209 184.261 260.458 183.99L260.461 183.988C263.74 180.355 266.681 176.442 269.414 172.402C269.627 172.086 269.84 171.774 270.057 171.462L270.058 171.46C272.492 167.926 274.47 164.13 276.393 160.34L277.294 160.44Z" fill="black" stroke="black"/>
<mask id="path-7-inside-5_196_631" fill="white">
<path d="M255.162 127.117L255.503 127.29C255.399 128.453 255.199 129.551 254.929 130.683L254.817 131.153C254.599 132.082 254.317 132.993 253.965 133.881H253.624C253.939 132.421 254.284 130.973 254.628 129.525L254.762 128.964L254.884 128.456C254.984 128.012 255.077 127.565 255.162 127.117Z"/>
</mask>
<path d="M255.162 127.117L255.503 127.29C255.399 128.453 255.199 129.551 254.929 130.683L254.817 131.153C254.599 132.082 254.317 132.993 253.965 133.881H253.624C253.939 132.421 254.284 130.973 254.628 129.525L254.762 128.964L254.884 128.456C254.984 128.012 255.077 127.565 255.162 127.117Z" fill="black"/>
<path d="M255.162 127.117L255.615 126.225L254.429 125.623L254.18 126.93L255.162 127.117ZM255.503 127.29L256.499 127.379L256.559 126.705L255.956 126.399L255.503 127.29ZM254.929 130.683L253.956 130.451L253.955 130.453L254.929 130.683ZM254.817 131.153L253.844 130.923L253.844 130.924L254.817 131.153ZM253.965 133.881V134.881H254.644L254.895 134.249L253.965 133.881ZM253.624 133.881L252.647 133.67L252.385 134.881H253.624V133.881ZM254.628 129.525L253.656 129.293L253.656 129.293L254.628 129.525ZM254.762 128.964L253.79 128.73L253.789 128.733L254.762 128.964ZM254.884 128.456L255.856 128.69L255.858 128.683L255.86 128.676L254.884 128.456ZM255.162 127.117L254.709 128.009L255.05 128.182L255.503 127.29L255.956 126.399L255.615 126.225L255.162 127.117ZM255.503 127.29L254.507 127.201C254.408 128.304 254.218 129.353 253.956 130.451L254.929 130.683L255.901 130.916C256.18 129.749 256.39 128.601 256.499 127.379L255.503 127.29ZM254.929 130.683L253.955 130.453L253.844 130.923L254.817 131.153L255.791 131.383L255.902 130.913L254.929 130.683ZM254.817 131.153L253.844 130.924C253.636 131.809 253.369 132.672 253.036 133.512L253.965 133.881L254.895 134.249C255.266 133.313 255.562 132.356 255.791 131.382L254.817 131.153ZM253.965 133.881V132.881H253.624V133.881V134.881H253.965V133.881ZM253.624 133.881L254.602 134.091C254.914 132.644 255.256 131.206 255.601 129.756L254.628 129.525L253.656 129.293C253.311 130.74 252.964 132.198 252.647 133.67L253.624 133.881ZM254.628 129.525L255.601 129.756L255.735 129.196L254.762 128.964L253.789 128.733L253.656 129.293L254.628 129.525ZM254.762 128.964L255.734 129.198L255.856 128.69L254.884 128.456L253.912 128.222L253.79 128.73L254.762 128.964ZM254.884 128.456L255.86 128.676C255.962 128.221 256.057 127.762 256.144 127.304L255.162 127.117L254.18 126.93C254.096 127.367 254.006 127.804 253.909 128.236L254.884 128.456Z" fill="black" mask="url(#path-7-inside-5_196_631)"/>
<mask id="path-9-inside-6_196_631" fill="white">
<path d="M259.796 166.446H260.145C259.876 167.262 259.44 167.889 258.944 168.574L258.717 168.897C257.805 170.179 257.805 170.179 257.354 170.702H257.006C257.252 169.906 257.645 169.505 258.225 168.928C258.41 168.64 258.581 168.343 258.751 168.043C258.925 167.758 259.103 167.474 259.285 167.189L259.55 166.766L259.796 166.446ZM266.426 154.921H266.775C266.54 155.879 266.195 156.691 265.73 157.557L265.54 157.923C265.378 158.227 265.207 158.523 265.029 158.823L264.681 159C264.787 158.323 264.988 157.807 265.306 157.203C265.658 156.545 265.658 156.545 265.73 155.806H266.252L266.426 154.921Z"/>
</mask>
<path d="M259.796 166.446H260.145C259.876 167.262 259.44 167.889 258.944 168.574L258.717 168.897C257.805 170.179 257.805 170.179 257.354 170.702H257.006C257.252 169.906 257.645 169.505 258.225 168.928C258.41 168.64 258.581 168.343 258.751 168.043C258.925 167.758 259.103 167.474 259.285 167.189L259.55 166.766L259.796 166.446ZM266.426 154.921H266.775C266.54 155.879 266.195 156.691 265.73 157.557L265.54 157.923C265.378 158.227 265.207 158.523 265.029 158.823L264.681 159C264.787 158.323 264.988 157.807 265.306 157.203C265.658 156.545 265.658 156.545 265.73 155.806H266.252L266.426 154.921Z" fill="black"/>
<path d="M259.796 166.446V165.446H259.304L259.004 165.836L259.796 166.446ZM260.145 166.446L261.094 166.759L261.527 165.446H260.145V166.446ZM258.944 168.574L258.134 167.988L258.126 167.999L258.944 168.574ZM258.717 168.897L259.532 169.478L259.535 169.472L258.717 168.897ZM257.354 170.702V171.702H257.813L258.112 171.355L257.354 170.702ZM257.006 170.702L256.05 170.407L255.65 171.702H257.006V170.702ZM258.225 168.928L258.931 169.637L259.007 169.56L259.066 169.469L258.225 168.928ZM258.751 168.043L257.898 167.521L257.89 167.535L257.882 167.549L258.751 168.043ZM259.285 167.189L260.128 167.727L260.133 167.72L259.285 167.189ZM259.55 166.766L258.758 166.155L258.728 166.194L258.703 166.235L259.55 166.766ZM266.426 154.921V153.921H265.604L265.445 154.728L266.426 154.921ZM266.775 154.921L267.746 155.159L268.049 153.921H266.775V154.921ZM265.73 157.557L264.849 157.083L264.845 157.09L264.842 157.097L265.73 157.557ZM265.54 157.923L266.422 158.395L266.428 158.383L265.54 157.923ZM265.029 158.823L265.482 159.715L265.741 159.583L265.889 159.333L265.029 158.823ZM264.681 159L263.693 158.845L263.39 160.778L265.134 159.892L264.681 159ZM265.306 157.203L264.424 156.731L264.421 156.737L265.306 157.203ZM265.73 155.806V154.806H264.822L264.734 155.709L265.73 155.806ZM266.252 155.806V156.806H267.075L267.233 155.999L266.252 155.806ZM259.796 166.446V167.446H260.145V166.446V165.446H259.796V166.446ZM260.145 166.446L259.195 166.133C258.979 166.787 258.63 167.303 258.134 167.988L258.944 168.574L259.754 169.161C260.25 168.475 260.772 167.737 261.094 166.759L260.145 166.446ZM258.944 168.574L258.126 167.999L257.899 168.322L258.717 168.897L259.535 169.472L259.762 169.149L258.944 168.574ZM258.717 168.897L257.903 168.317C256.991 169.597 257.014 169.564 256.596 170.05L257.354 170.702L258.112 171.355C258.595 170.793 258.618 170.761 259.532 169.478L258.717 168.897ZM257.354 170.702V169.702H257.006V170.702V171.702H257.354V170.702ZM257.006 170.702L257.961 170.997C258.128 170.458 258.357 170.208 258.931 169.637L258.225 168.928L257.519 168.22C256.934 168.803 256.376 169.354 256.05 170.407L257.006 170.702ZM258.225 168.928L259.066 169.469C259.268 169.155 259.45 168.838 259.621 168.537L258.751 168.043L257.882 167.549C257.711 167.849 257.553 168.124 257.384 168.387L258.225 168.928ZM258.751 168.043L259.604 168.565C259.775 168.286 259.95 168.006 260.128 167.727L259.285 167.189L258.442 166.651C258.257 166.941 258.076 167.231 257.898 167.521L258.751 168.043ZM259.285 167.189L260.133 167.72L260.398 167.296L259.55 166.766L258.703 166.235L258.437 166.658L259.285 167.189ZM259.55 166.766L260.342 167.376L260.588 167.057L259.796 166.446L259.004 165.836L258.758 166.155L259.55 166.766ZM266.426 154.921V155.921H266.775V154.921V153.921H266.426V154.921ZM266.775 154.921L265.804 154.683C265.594 155.539 265.286 156.272 264.849 157.083L265.73 157.557L266.61 158.031C267.105 157.111 267.486 156.219 267.746 155.159L266.775 154.921ZM265.73 157.557L264.842 157.097L264.652 157.463L265.54 157.923L266.428 158.383L266.618 158.017L265.73 157.557ZM265.54 157.923L264.659 157.451C264.505 157.737 264.343 158.02 264.169 158.313L265.029 158.823L265.889 159.333C266.072 159.026 266.25 158.716 266.422 158.395L265.54 157.923ZM265.029 158.823L264.576 157.932L264.228 158.109L264.681 159L265.134 159.892L265.482 159.715L265.029 158.823ZM264.681 159L265.669 159.155C265.753 158.615 265.908 158.205 266.19 157.669L265.306 157.203L264.421 156.737C264.067 157.409 263.82 158.031 263.693 158.845L264.681 159ZM265.306 157.203L266.187 157.675C266.345 157.38 266.491 157.116 266.58 156.825C266.668 156.534 266.693 156.234 266.725 155.903L265.73 155.806L264.734 155.709C264.695 156.117 264.683 156.187 264.666 156.244C264.648 156.303 264.618 156.368 264.424 156.731L265.306 157.203ZM265.73 155.806V156.806H266.252V155.806V154.806H265.73V155.806ZM266.252 155.806L267.233 155.999L267.408 155.114L266.426 154.921L265.445 154.728L265.271 155.613L266.252 155.806Z" fill="black" mask="url(#path-9-inside-6_196_631)"/>
<mask id="path-11-inside-7_196_631" fill="white">
<path d="M254.869 141.771L255.224 141.947C254.881 143.039 254.468 144.077 253.979 145.116H253.624C253.99 143.978 254.41 142.875 254.869 141.771ZM263.039 161.301L263.394 161.653C263.197 162.004 263 162.351 262.804 162.699L262.472 163.287L262.149 163.764L261.617 163.94C261.86 163.291 262.16 162.718 262.526 162.126L262.815 161.657L263.039 161.301Z"/>
</mask>
<path d="M254.869 141.771L255.224 141.947C254.881 143.039 254.468 144.077 253.979 145.116H253.624C253.99 143.978 254.41 142.875 254.869 141.771ZM263.039 161.301L263.394 161.653C263.197 162.004 263 162.351 262.804 162.699L262.472 163.287L262.149 163.764L261.617 163.94C261.86 163.291 262.16 162.718 262.526 162.126L262.815 161.657L263.039 161.301Z" fill="black"/>
<path d="M254.869 141.771L255.313 140.875L254.356 140.401L253.946 141.387L254.869 141.771ZM255.224 141.947L256.178 142.247L256.434 141.43L255.667 141.051L255.224 141.947ZM253.979 145.116V146.116H254.613L254.883 145.542L253.979 145.116ZM253.624 145.116L252.672 144.81L252.252 146.116H253.624V145.116ZM263.039 161.301L263.743 160.591L262.857 159.713L262.193 160.769L263.039 161.301ZM263.394 161.653L264.266 162.141L264.637 161.478L264.097 160.942L263.394 161.653ZM262.804 162.699L261.933 162.207L261.933 162.208L262.804 162.699ZM262.472 163.287L263.3 163.848L263.323 163.814L263.344 163.778L262.472 163.287ZM262.149 163.764L262.462 164.714L262.785 164.607L262.976 164.326L262.149 163.764ZM261.617 163.94L260.68 163.59L259.949 165.544L261.931 164.889L261.617 163.94ZM262.526 162.126L263.377 162.652L263.378 162.65L262.526 162.126ZM262.815 161.657L261.969 161.124L261.964 161.132L262.815 161.657ZM254.869 141.771L254.425 142.667L254.78 142.843L255.224 141.947L255.667 141.051L255.313 140.875L254.869 141.771ZM255.224 141.947L254.27 141.647C253.941 142.692 253.546 143.689 253.074 144.69L253.979 145.116L254.883 145.542C255.391 144.466 255.82 143.385 256.178 142.247L255.224 141.947ZM253.979 145.116V144.116H253.624V145.116V146.116H253.979V145.116ZM253.624 145.116L254.576 145.422C254.932 144.317 255.341 143.24 255.792 142.155L254.869 141.771L253.946 141.387C253.479 142.509 253.049 143.639 252.672 144.81L253.624 145.116ZM263.039 161.301L262.335 162.012L262.69 162.363L263.394 161.653L264.097 160.942L263.743 160.591L263.039 161.301ZM263.394 161.653L262.521 161.164C262.326 161.513 262.13 161.859 261.933 162.207L262.804 162.699L263.674 163.191C263.871 162.844 264.068 162.495 264.266 162.141L263.394 161.653ZM262.804 162.699L261.933 162.208L261.601 162.796L262.472 163.287L263.344 163.778L263.675 163.19L262.804 162.699ZM262.472 163.287L261.645 162.726L261.321 163.203L262.149 163.764L262.976 164.326L263.3 163.848L262.472 163.287ZM262.149 163.764L261.835 162.815L261.303 162.99L261.617 163.94L261.931 164.889L262.462 164.714L262.149 163.764ZM261.617 163.94L262.554 164.29C262.768 163.718 263.035 163.205 263.377 162.652L262.526 162.126L261.676 161.6C261.285 162.231 260.952 162.864 260.68 163.59L261.617 163.94ZM262.526 162.126L263.378 162.65L263.667 162.181L262.815 161.657L261.964 161.132L261.675 161.602L262.526 162.126ZM262.815 161.657L263.662 162.189L263.885 161.834L263.039 161.301L262.193 160.769L261.969 161.124L262.815 161.657Z" fill="black" mask="url(#path-11-inside-7_196_631)"/>
<mask id="path-13-inside-8_196_631" fill="white">
<path d="M253.249 145.528L253.625 145.703C253.232 147.073 253.232 147.073 252.816 147.579C252.591 147.785 252.358 147.971 252.122 148.158C252.42 147.244 252.824 146.392 253.249 145.528Z"/>
</mask>
<path d="M253.249 145.528L253.625 145.703C253.232 147.073 253.232 147.073 252.816 147.579C252.591 147.785 252.358 147.971 252.122 148.158C252.42 147.244 252.824 146.392 253.249 145.528Z" fill="black"/>
<path d="M253.249 145.528L253.671 144.621L252.783 144.207L252.351 145.086L253.249 145.528ZM253.625 145.703L254.586 145.978L254.821 145.157L254.047 144.796L253.625 145.703ZM252.816 147.579L253.491 148.317L253.543 148.269L253.588 148.215L252.816 147.579ZM252.122 148.158L251.171 147.848L250.147 150.985L252.74 148.943L252.122 148.158ZM253.249 145.528L252.826 146.434L253.202 146.609L253.625 145.703L254.047 144.796L253.671 144.621L253.249 145.528ZM253.625 145.703L252.663 145.428C252.457 146.149 252.38 146.41 252.311 146.569C252.273 146.657 252.257 146.684 252.044 146.944L252.816 147.579L253.588 148.215C253.791 147.968 253.984 147.742 254.148 147.361C254.281 147.051 254.4 146.627 254.586 145.978L253.625 145.703ZM252.816 147.579L252.141 146.841C251.946 147.02 251.738 147.187 251.503 147.372L252.122 148.158L252.74 148.943C252.979 148.756 253.237 148.549 253.491 148.317L252.816 147.579ZM252.122 148.158L253.072 148.468C253.346 147.628 253.722 146.831 254.146 145.969L253.249 145.528L252.351 145.086C251.926 145.952 251.493 146.861 251.171 147.848L252.122 148.158Z" fill="black" mask="url(#path-13-inside-8_196_631)"/>
<path d="M32.1922 120.998H25.0402C24.4322 120.998 23.9842 120.87 23.6962 120.614C23.4402 120.326 23.3122 119.878 23.3122 119.27V88.1663C23.3122 87.5583 23.4402 87.1263 23.6962 86.8703C23.9842 86.5823 24.4322 86.4383 25.0402 86.4383H32.7682C33.2802 86.4383 33.6962 86.5503 34.0162 86.7743C34.3682 86.9983 34.6882 87.3663 34.9762 87.8783L39.2962 95.7023C39.4562 95.9903 39.5842 96.1983 39.6802 96.3263C39.8082 96.4543 39.9682 96.5183 40.1602 96.5183H40.5922C40.7842 96.5183 40.9282 96.4543 41.0242 96.3263C41.1522 96.1983 41.2962 95.9903 41.4562 95.7023L45.7282 87.8783C46.0162 87.3663 46.3202 86.9983 46.6402 86.7743C46.9922 86.5503 47.4242 86.4383 47.9362 86.4383H55.7122C56.3202 86.4383 56.7522 86.5823 57.0082 86.8703C57.2962 87.1263 57.4402 87.5583 57.4402 88.1663V119.27C57.4402 119.878 57.2962 120.326 57.0082 120.614C56.7522 120.87 56.3202 120.998 55.7122 120.998H48.3202C47.7122 120.998 47.2642 120.87 46.9762 120.614C46.7202 120.326 46.5922 119.878 46.5922 119.27V102.374L43.7602 107.606C43.4722 108.15 43.1202 108.55 42.7042 108.806C42.3202 109.03 41.8242 109.142 41.2162 109.142H39.2962C38.6882 109.142 38.1762 109.03 37.7602 108.806C37.3762 108.55 37.0402 108.15 36.7522 107.606L33.9202 102.374V119.27C33.9202 119.878 33.7762 120.326 33.4882 120.614C33.2322 120.87 32.8002 120.998 32.1922 120.998ZM88.0466 120.998H65.7746C65.1666 120.998 64.7186 120.87 64.4306 120.614C64.1746 120.326 64.0466 119.878 64.0466 119.27V88.1663C64.0466 87.5583 64.1746 87.1263 64.4306 86.8703C64.7186 86.5823 65.1666 86.4383 65.7746 86.4383H88.0466C88.6546 86.4383 89.0866 86.5823 89.3426 86.8703C89.6306 87.1263 89.7746 87.5583 89.7746 88.1663V93.7823C89.7746 94.3903 89.6306 94.8383 89.3426 95.1263C89.0866 95.3823 88.6546 95.5103 88.0466 95.5103H74.7986V99.2063H84.1586C84.7666 99.2063 85.1986 99.3503 85.4546 99.6383C85.7426 99.8943 85.8866 100.326 85.8866 100.934V106.07C85.8866 106.678 85.7426 107.126 85.4546 107.414C85.1986 107.67 84.7666 107.798 84.1586 107.798H74.7986V111.926H88.0466C88.6546 111.926 89.0866 112.07 89.3426 112.358C89.6306 112.614 89.7746 113.046 89.7746 113.654V119.27C89.7746 119.878 89.6306 120.326 89.3426 120.614C89.0866 120.87 88.6546 120.998 88.0466 120.998ZM111.773 120.998H103.997C103.389 120.998 102.941 120.87 102.653 120.614C102.397 120.326 102.269 119.878 102.269 119.27V95.7023H95.2129C94.6049 95.7023 94.1569 95.5743 93.8689 95.3183C93.6129 95.0303 93.4849 94.5823 93.4849 93.9743V88.1663C93.4849 87.5583 93.6129 87.1263 93.8689 86.8703C94.1569 86.5823 94.6049 86.4383 95.2129 86.4383H120.557C121.165 86.4383 121.597 86.5823 121.853 86.8703C122.141 87.1263 122.285 87.5583 122.285 88.1663V93.9743C122.285 94.5823 122.141 95.0303 121.853 95.3183C121.597 95.5743 121.165 95.7023 120.557 95.7023H113.501V119.27C113.501 119.878 113.357 120.326 113.069 120.614C112.813 120.87 112.381 120.998 111.773 120.998ZM137.559 96.5183L135.303 103.814H142.839L140.583 96.5183C140.455 96.2303 140.311 96.0223 140.151 95.8943C140.023 95.7663 139.863 95.7023 139.671 95.7023H138.471C138.279 95.7023 138.103 95.7663 137.943 95.8943C137.815 96.0223 137.687 96.2303 137.559 96.5183ZM134.823 119.27C134.823 119.878 134.679 120.326 134.391 120.614C134.135 120.87 133.703 120.998 133.095 120.998H126.039C125.431 120.998 124.983 120.87 124.695 120.614C124.439 120.326 124.311 119.878 124.311 119.27V106.598C124.311 105.638 124.455 104.534 124.743 103.286C125.063 102.038 125.543 100.582 126.183 98.9183L130.359 88.0223C130.551 87.4783 130.839 87.0783 131.223 86.8223C131.639 86.5663 132.167 86.4383 132.807 86.4383H145.719C146.327 86.4383 146.823 86.5663 147.207 86.8223C147.623 87.0783 147.927 87.4783 148.119 88.0223L152.295 98.9183C152.935 100.582 153.399 102.038 153.687 103.286C154.007 104.534 154.167 105.638 154.167 106.598V119.27C154.167 119.878 154.023 120.326 153.735 120.614C153.479 120.87 153.047 120.998 152.439 120.998H145.191C144.551 120.998 144.071 120.87 143.751 120.614C143.463 120.326 143.319 119.878 143.319 119.27V112.55H134.823V119.27ZM186.253 120.998H161.821C161.213 120.998 160.765 120.87 160.477 120.614C160.221 120.326 160.093 119.878 160.093 119.27V88.1663C160.093 87.5583 160.221 87.1263 160.477 86.8703C160.765 86.5823 161.213 86.4383 161.821 86.4383H169.261C169.869 86.4383 170.301 86.5823 170.557 86.8703C170.845 87.1263 170.989 87.5583 170.989 88.1663V111.926H177.565V104.15C177.565 103.542 177.693 103.11 177.949 102.854C178.237 102.566 178.685 102.422 179.293 102.422H186.253C186.861 102.422 187.293 102.566 187.549 102.854C187.837 103.11 187.981 103.542 187.981 104.15V119.27C187.981 119.878 187.837 120.326 187.549 120.614C187.293 120.87 186.861 120.998 186.253 120.998Z" fill="#ED3B02"/>
<mask id="mask0_196_631" style="mask-type:alpha" maskUnits="userSpaceOnUse" x="117" y="27" width="164" height="165">
<path d="M263.817 63.24C268.25 70.1043 271.578 77.5805 273.666 85.3423C282.39 116.532 269.127 151.188 243.293 168.16C211.465 190.752 163.724 181.936 142.214 150.418C119.27 119.928 126.248 71.8833 157.862 48.9943C182.23 29.9764 219.309 28.5415 246.047 46.8164C252.728 51.2866 258.739 56.8385 263.817 63.24C259.391 56.3732 253.848 50.1738 247.399 44.9807C221.749 23.7122 181.092 21.6209 152.618 41.6797C115.688 65.4512 105.468 121.704 132.461 157.41C157.611 194.438 214.167 202.819 248.536 175.474C276.675 154.948 287.747 115.772 275.839 84.6512C272.991 76.877 268.9 69.637 263.817 63.24Z" fill="#D1D1D1"/>
</mask>
<g mask="url(#mask0_196_631)">
<path d="M255.465 145.693C246.455 133.125 249.339 115.633 261.907 106.623L264.692 104.627C277.26 95.6166 294.752 98.5008 303.762 111.069L309.584 119.19C318.594 131.758 315.71 149.251 303.142 158.261L300.357 160.257C287.789 169.267 270.297 166.383 261.287 153.815L255.465 145.693Z" fill="#D1D1D1"/>
<path d="M237.479 130.903C226.538 115.642 230.04 94.401 245.302 83.4602L248.086 81.4639C263.347 70.5232 284.588 74.0255 295.529 89.2866L299.177 114.971C299.177 114.971 291.172 120.71 281.297 127.789L278.512 129.786C268.638 136.865 260.632 142.604 260.632 142.604L237.479 130.903ZM314.461 115.694C325.401 130.955 321.899 152.196 306.638 163.137L303.853 165.133C288.592 176.074 267.351 172.572 256.411 157.311L266.163 150.319C273.243 160.194 286.987 162.46 296.862 155.381L299.646 153.384C309.521 146.305 311.787 132.561 304.708 122.686L314.461 115.694ZM303.853 165.133C288.592 176.074 267.351 172.572 256.411 157.311L237.479 130.903C226.538 115.642 230.04 94.401 245.302 83.4602L278.512 129.786C268.638 136.865 260.632 142.604 260.632 142.604L266.163 150.319C273.243 160.194 286.987 162.46 296.862 155.381L303.853 165.133ZM248.086 81.4639C263.347 70.5232 284.588 74.0255 295.529 89.2866L314.461 115.694C325.401 130.955 321.899 152.196 306.638 163.137L299.646 153.384C309.521 146.305 311.787 132.561 304.708 122.686L299.177 114.971C299.177 114.971 291.172 120.71 281.297 127.789L248.086 81.4639Z" fill="#D1D1D1"/>
</g>
<mask id="mask1_196_631" style="mask-type:alpha" maskUnits="userSpaceOnUse" x="141" y="46" width="128" height="128">
<path d="M255.536 74.2269C258.855 79.5385 261.314 85.2915 262.825 91.2343C269.132 115.128 258.719 141.139 239.204 153.72C215.128 170.466 179.599 163.663 163.551 140.171C146.455 117.432 151.419 81.5993 175.007 64.1737C193.188 49.7313 221.165 48.2195 241.769 61.8644C246.912 65.203 251.571 69.3791 255.536 74.2269C252.222 68.9137 248.032 64.0903 243.121 60.0286C223.605 43.3902 192.05 41.3758 169.764 56.8591C140.859 75.1672 132.652 119.208 153.799 147.163C173.485 176.165 217.829 182.532 244.448 161.035C266.266 144.899 274.489 114.368 264.997 90.5432C262.727 84.5881 259.504 79.0712 255.536 74.2269Z" fill="#D1D1D1"/>
</mask>
<g mask="url(#mask1_196_631)">
<path d="M249.904 138.438C242.581 128.224 244.925 114.009 255.139 106.686C265.353 99.3642 279.569 101.708 286.891 111.922L289.821 116.009C297.143 126.223 294.799 140.438 284.585 147.761C274.372 155.083 260.156 152.739 252.834 142.525L249.904 138.438Z" fill="#D1D1D1"/>
<path d="M231.918 123.648C222.665 110.741 225.627 92.7768 238.534 83.5238C251.441 74.2708 269.405 77.2328 278.658 90.1397L289.821 116.009C289.96 116.203 290.096 116.399 290.229 116.598L271.745 129.849L253.26 143.101C253.115 142.911 252.973 142.719 252.834 142.525L231.918 123.648ZM294.697 112.513C303.95 125.42 300.988 143.384 288.081 152.637C275.174 161.89 257.21 158.928 247.957 146.021L257.71 139.029C263.101 146.55 273.569 148.276 281.089 142.884C288.61 137.493 290.336 127.025 284.944 119.505L294.697 112.513ZM288.081 152.637C275.174 161.89 257.21 158.928 247.957 146.021L231.918 123.648C222.665 110.741 225.627 92.7768 238.534 83.5238L271.745 129.849C264.224 135.241 258.127 139.611 258.127 139.611L257.71 139.029C263.101 146.55 273.569 148.276 281.089 142.884L288.081 152.637ZM238.534 83.5238C251.441 74.2708 269.405 77.2328 278.658 90.1397L294.697 112.513C303.95 125.42 300.988 143.384 288.081 152.637L281.089 142.884C288.61 137.493 290.336 127.025 284.944 119.505L285.362 120.087C285.362 120.087 279.265 124.458 271.745 129.849L238.534 83.5238Z" fill="#D1D1D1"/>
</g>
<mask id="mask2_196_631" style="mask-type:alpha" maskUnits="userSpaceOnUse" x="166" y="65" width="92" height="93">
<path d="M247.962 85.7998C250.186 89.5866 251.792 93.6476 252.735 97.804C256.671 114.533 249.055 132.055 235.746 140.325C219.281 151.329 195.744 146.503 185.062 130.893C173.707 115.765 176.694 91.9241 192.401 79.8634C204.506 69.914 223.545 68.3268 238.126 77.425C241.759 79.6526 245.09 82.4775 247.962 85.7998C245.741 82.0121 242.879 78.5398 239.478 75.5892C225.985 63.4975 203.368 61.5585 187.157 72.5489C166.133 85.492 159.904 117.541 175.309 137.885C189.631 159.005 221.983 163.395 240.99 147.64C256.603 135.816 262.028 113.773 254.908 97.1129C253.206 92.9441 250.836 89.1192 247.962 85.7998Z" fill="#D1D1D1"/>
</mask>
<g mask="url(#mask2_196_631)">
<path d="M244.021 130.73C238.897 123.583 240.537 113.636 247.684 108.512C254.831 103.389 264.778 105.029 269.902 112.176L271.952 115.035C277.075 122.182 275.435 132.129 268.288 137.253C261.142 142.376 251.195 140.736 246.071 133.589L244.021 130.73Z" fill="#D1D1D1"/>
<path d="M226.035 115.939C218.981 106.099 221.239 92.4039 231.079 85.3496L231.079 85.3496C240.919 78.2953 254.614 80.5535 261.668 90.3934L271.952 115.035C273.838 117.666 274.877 120.809 274.931 124.045L264.29 131.675L253.646 139.305L253.647 139.304C250.6 138.213 247.957 136.22 246.071 133.589L226.035 115.939ZM276.828 111.54C283.883 121.379 281.624 135.075 271.784 142.129L271.784 142.129C261.944 149.183 248.249 146.925 241.195 137.085L250.947 130.094C254.14 134.547 260.339 135.569 264.793 132.376C269.246 129.184 270.268 122.985 267.076 118.531L276.828 111.54ZM271.784 142.129C261.944 149.183 248.249 146.925 241.195 137.085L226.035 115.939C218.981 106.099 221.239 92.4039 231.079 85.3496L264.29 131.675C259.836 134.868 256.226 137.456 256.226 137.456L250.947 130.094C254.14 134.547 260.339 135.569 264.793 132.376L271.784 142.129ZM231.079 85.3496C240.919 78.2953 254.614 80.5535 261.668 90.3934L276.828 111.54C283.883 121.379 281.624 135.075 271.784 142.129L264.793 132.376C269.246 129.184 270.268 122.985 267.076 118.531L272.354 125.894C272.354 125.894 268.743 128.482 264.29 131.675L231.079 85.3496Z" fill="#D1D1D1"/>
</g>
</svg>
