<svg width="128" height="146" viewBox="0 0 128 146" fill="none" xmlns="http://www.w3.org/2000/svg">
<rect x="15" y="3" width="110" height="110" rx="9" stroke="#FDEBE6" stroke-width="6"/>
<path d="M96.3887 18.5039C96.5268 18.0203 97.2115 18.0204 97.3496 18.5039L99.2832 25.2734C99.4313 25.7919 99.8472 26.1907 100.371 26.3184L107.769 28.1211C108.245 28.2373 108.287 28.8987 107.829 29.0742L101.046 31.6729C100.636 31.8298 100.316 32.1588 100.169 32.5723L98.7559 36.5527L97.4561 40.0156C97.287 40.4653 96.6425 40.4407 96.5078 39.9795L95.5176 36.5889L94.4336 32.6699C94.304 32.2013 93.9553 31.8245 93.498 31.6592L86.2559 29.04C85.7917 28.8721 85.8258 28.2047 86.3047 28.085L93.374 26.3203C93.8944 26.1904 94.3058 25.792 94.4531 25.2764L96.3887 18.5039Z" stroke="#FDEBE6"/>
<path d="M111.444 12.5039C111.582 12.0204 112.268 12.0203 112.406 12.5039L113.03 14.6895C113.178 15.2079 113.593 15.6076 114.117 15.7354L116.769 16.3809C117.245 16.4971 117.287 17.1585 116.829 17.334L114.42 18.2568C114.01 18.4138 113.69 18.742 113.543 19.1553L112.803 21.2402L112.512 22.0156C112.343 22.4652 111.698 22.4406 111.563 21.9795L111.358 21.2764L110.799 19.2529C110.669 18.7845 110.32 18.4075 109.863 18.2422L107.256 17.2998C106.792 17.1319 106.826 16.4645 107.305 16.3447L109.74 15.7363C110.26 15.6064 110.672 15.2089 110.819 14.6934L111.444 12.5039Z" stroke="#FDEBE6"/>
<path d="M85.4443 10.5039C85.5825 10.0204 86.2681 10.0203 86.4062 10.5039L87.0303 12.6895C87.1784 13.2079 87.5934 13.6076 88.1172 13.7354L90.7686 14.3809C91.2446 14.4971 91.2867 15.1585 90.8291 15.334L88.4199 16.2568C88.0103 16.4138 87.6898 16.742 87.543 17.1553L86.8027 19.2402L86.5117 20.0156C86.3426 20.4652 85.6982 20.4406 85.5635 19.9795L85.3584 19.2764L84.7988 17.2529C84.6691 16.7845 84.3204 16.4075 83.8633 16.2422L81.2559 15.2998C80.7916 15.1319 80.8259 14.4645 81.3047 14.3447L83.7402 13.7363C84.2604 13.6064 84.6721 13.2089 84.8193 12.6934L85.4443 10.5039Z" stroke="#FDEBE6"/>
<circle cx="55.5" cy="90.5" r="52.5" fill="#ED3B02" stroke="#FDEBE6" stroke-width="6"/>
<path d="M55.5 78.5C61.4902 78.5 66.5 83.5623 66.5 90C66.5 96.4377 61.4902 101.5 55.5 101.5C49.5098 101.5 44.5 96.4377 44.5 90C44.5 83.5623 49.5098 78.5 55.5 78.5Z" stroke="#FDEBE6" stroke-width="5"/>
<path d="M87.4629 58.5039C87.601 58.0204 88.2867 58.0203 88.4248 58.5039L88.6123 59.1621C88.7605 59.6805 89.1763 60.0794 89.7002 60.207L90.7686 60.4678C91.2445 60.5841 91.2865 61.2443 90.8291 61.4199L89.8779 61.7842C89.4682 61.9412 89.1477 62.2701 89.001 62.6836L88.4854 64.1367L88.46 64.2031C88.3135 64.5927 87.7554 64.5715 87.6387 64.1719L87.2539 62.7812C87.1243 62.3126 86.7756 61.9359 86.3184 61.7705L85.2559 61.3857C84.7918 61.2177 84.8258 60.5503 85.3047 60.4307L86.1953 60.209C86.7156 60.0791 87.1271 59.6807 87.2744 59.165L87.4629 58.5039Z" stroke="#FDEBE6"/>
<path d="M75.915 63.2002C76.0613 62.7326 76.7238 62.7326 76.8701 63.2002L78.252 67.6191C78.4122 68.131 78.8339 68.5181 79.3574 68.6348L84.4678 69.7725C84.9589 69.8818 84.9993 70.5663 84.5244 70.7324L79.8867 72.3545C79.4728 72.4993 79.1423 72.8179 78.9834 73.2266L77.8643 76.1064L76.9727 78.2754C76.7952 78.7067 76.1763 78.6815 76.0342 78.2373L75.3643 76.1445L74.5117 73.3311C74.3702 72.8638 74.0105 72.4939 73.5469 72.3408L68.5684 70.6973C68.0876 70.5385 68.1199 69.8482 68.6133 69.7354L73.4336 68.6367C73.9542 68.5181 74.3728 68.1316 74.5322 67.6221L75.915 63.2002Z" stroke="#FDEBE6"/>
</svg>
