<svg width="471" height="151" viewBox="0 0 471 151" fill="none" xmlns="http://www.w3.org/2000/svg">
<mask id="mask0_213_898" style="mask-type:luminance" maskUnits="userSpaceOnUse" x="0" y="0" width="138" height="151">
<path d="M0 0H137.555V151H0V0Z" fill="white"/>
</mask>
<g mask="url(#mask0_213_898)">
<path fill-rule="evenodd" clip-rule="evenodd" d="M36.8474 1.06081C19.2005 5.94752 6.56184 18.4183 1.48113 35.9575L0.224815 40.2961V148.609L44.1483 148.575C85.8254 148.544 88.2718 148.494 92.0285 147.584C97.8097 146.184 97.6804 146.278 95.8267 144.826C94.3102 143.638 94.2317 143.428 94.5427 141.354C94.8383 139.379 94.7274 138.994 93.4819 137.693C92.7182 136.894 91.5928 136.241 90.9816 136.241C89.8315 136.241 88.318 135.065 88.318 134.172C88.318 133.89 88.6521 133.787 89.0601 133.944C90.0101 134.309 90.0516 134.468 88.2996 131.088C87.4728 129.495 86.8616 128.126 86.9385 128.048C87.2495 127.738 88.6968 129.173 90.2087 131.29C91.2895 132.791 92.3903 134.277 93.5111 135.746C94.4518 136.971 95.2278 138.238 95.2339 138.56C95.2416 138.882 95.6512 139.274 96.1485 139.431C96.6442 139.59 97.996 140.825 99.1538 142.178L101.255 144.638L103.636 143.433C106.375 142.044 113.149 137.025 115.196 134.866C116.345 133.656 116.453 133.348 115.815 133.104C114.95 132.771 114.767 131.024 115.544 130.542C115.822 130.371 115.94 130.057 115.809 129.844C115.677 129.632 116.119 128.713 116.79 127.801C117.461 126.891 118.02 125.911 118.031 125.624C118.043 125.336 118.699 124.343 119.489 123.42C120.584 122.137 120.861 121.41 120.653 120.363C120.479 119.498 120.741 118.29 121.358 117.095C121.897 116.052 122.853 114.022 123.484 112.582C124.114 111.144 124.922 109.725 125.279 109.428C125.637 109.13 125.929 108.435 125.929 107.88C125.929 106.827 129.689 101.582 130.445 101.582C130.683 101.582 130.879 100.441 130.879 99.0445V96.5072L133.627 96.7366C135.896 96.9244 136.455 96.812 136.843 96.0869C137.13 95.5526 137.313 76.6601 137.313 47.6447V0.0800781L88.6891 0.124727C43.4754 0.166296 39.8389 0.232499 36.8474 1.06081ZM21.6808 32.1901C18.6354 34.1593 14.3445 39.22 13.7657 41.5232C13.3623 43.1321 14.3815 46.4638 15.5962 47.5046C16.1243 47.9572 16.557 48.7347 16.557 49.2336C16.557 51.2135 18.4815 53.683 21.6392 55.7538C22.7631 56.4897 23.0079 56.4589 25.5129 55.2627C26.9847 54.5591 29.1894 53.3351 30.4134 52.5391C31.639 51.7447 32.9753 50.9471 33.3833 50.767C33.7913 50.5869 35.5188 48.9995 37.2185 47.2398C40.7811 43.5555 40.9705 42.6918 39.0506 38.8381C38.1561 37.0399 37.3663 36.1577 36.3332 35.7974C35.3817 35.4649 34.9722 35.0445 35.1493 34.5827C35.8128 32.8537 31.117 30.2825 27.2942 30.2825C25.0417 30.2825 24.1719 30.5781 21.6808 32.1901ZM46.0019 51.5753C43.9142 53.8832 48.105 62.9622 51.2582 62.9622C51.8109 62.9622 52.8948 64.0692 54.0448 65.809C55.0795 67.3747 56.7099 69.1022 57.666 69.6457C61.0285 71.5594 63.0777 72.9666 63.0777 73.3607C63.0777 73.5794 63.7598 73.9951 64.5927 74.286C65.9691 74.7664 66.0938 74.9866 65.9537 76.6863C65.8198 78.3152 65.6227 78.5785 64.4387 78.7155C62.5835 78.9295 62.6436 80.4552 64.6235 83.4467C65.4733 84.7307 66.0399 85.9101 65.8829 86.0671C65.7258 86.2242 64.3972 86.2026 62.9284 86.0194C60.5204 85.7176 60.1571 85.5082 59.1887 83.8547C58.5975 82.8478 56.8962 80.3536 55.4059 78.3106C53.9155 76.2691 52.1019 73.7056 51.3752 72.6171C48.1066 67.7165 47.0212 66.1631 46.7071 65.9321C46.0604 65.4579 42.7872 60.97 42.7872 60.5589C42.7872 60.331 42.3408 59.7414 41.7973 59.2487C41.2523 58.756 40.8073 58.0601 40.8073 57.7029C40.8073 57.064 38.6596 52.8978 37.7112 51.6969C36.792 50.5345 34.7982 51.0133 33.1139 52.8024C31.328 54.6961 31.2387 55.4705 32.6305 57.0086C33.2848 57.7307 33.4033 58.1895 33.0338 58.559C32.2409 59.3519 32.8244 60.9053 33.8175 60.6451C34.7828 60.3926 36.1654 61.7506 36.4302 63.2101C36.5349 63.7844 37.0753 64.2663 37.7189 64.3587C38.3285 64.4449 38.8274 64.8298 38.8274 65.2131C38.8274 65.5965 39.3847 66.2755 40.0652 66.7204C40.7457 67.1669 41.3015 67.7612 41.3015 68.0399C41.3015 68.5787 43.6386 71.4285 49.697 78.2813C51.7277 80.5784 52.9533 82.2504 52.419 81.9949C51.8848 81.7393 49.8694 81.533 47.9403 81.5361C43.865 81.5453 42.8319 82.2212 42.4408 85.1357C42.2484 86.5783 42.4177 87.1849 43.2199 87.91C44.0836 88.6921 44.4639 88.7491 45.6201 88.2734C46.5762 87.8808 47.5077 87.8577 48.6839 88.1979C50.5961 88.7506 52.2543 88.4735 54.4174 87.2388C56.0817 86.2888 60.6082 86.4043 60.5959 87.3973C60.5805 88.472 59.7121 89.348 58.95 89.0555C58.5297 88.8938 57.0194 89.1725 55.5922 89.676C54.0525 90.2194 52.5992 90.4427 52.0156 90.2256C50.7501 89.7576 47.2321 90.3965 46.7471 91.1832C46.5408 91.5158 46.4915 92.2456 46.6363 92.8029C46.8503 93.6158 46.7148 93.7636 45.9573 93.5511C43.4462 92.8445 43.5293 92.7659 43.5293 95.8883C43.5293 98.8212 43.5524 98.8705 45.3584 99.7527C46.9365 100.526 47.4615 100.566 49.1966 100.045C51.4829 99.3601 52.1758 99.7065 51.3043 101.103C49.9433 103.283 51.2874 107.192 53.7539 108.23C54.6345 108.599 55.6152 108.802 55.9355 108.679C56.5482 108.445 57.3042 109.825 56.9116 110.462C56.7853 110.667 56.8916 111.6 57.1502 112.534C57.6506 114.347 59.6937 115.931 61.338 115.78C61.9292 115.726 62.5358 116.188 62.9299 116.995C63.2809 117.709 64.2925 118.576 65.1793 118.921C66.0646 119.266 67.5749 120.068 68.5325 120.705C70.0136 121.687 70.6695 121.817 72.8635 121.555C75.6609 121.224 75.9057 120.841 74.5817 118.855C74.1059 118.142 73.0775 116.582 72.2953 115.389C71.5132 114.194 70.4324 112.733 69.8936 112.14C68.7265 110.859 69.096 109.999 70.8096 109.999C72.708 109.999 73.9658 110.889 74.8927 112.887C76.0227 115.324 80.0642 121.436 81.2112 122.443C81.7162 122.887 82.6323 123.404 83.245 123.59C84.1072 123.854 84.3705 123.726 84.4151 123.03C84.5337 121.162 84.2427 120.263 82.8755 118.257C82.1011 117.121 81.5407 116.119 81.63 116.029C81.7193 115.942 82.7431 116.557 83.9071 117.401C85.8054 118.778 86.2796 118.905 88.5213 118.648C89.8961 118.491 91.3588 118.086 91.7729 117.749C94.1116 115.84 94.9368 115.786 98.5118 117.307C102.144 118.855 102.024 118.87 104.438 116.488C105.294 115.641 105.639 114.756 105.639 113.403C105.639 111.757 105.816 111.46 106.963 111.17C107.691 110.989 108.966 111.093 109.794 111.408C110.998 111.862 111.438 111.837 111.993 111.283C112.787 110.487 112.359 109.424 111.394 109.796C110.418 110.171 109.292 108.622 110.014 107.899C110.33 107.583 110.588 106.827 110.588 106.216C110.588 104.881 111.454 104.23 112.214 104.992C112.875 105.652 115.537 105.733 115.537 105.092C115.537 104.844 114.869 104.079 114.053 103.391C113.235 102.703 112.576 101.96 112.588 101.739C112.599 101.516 113.267 100.563 114.073 99.6203C114.878 98.678 115.537 97.5233 115.537 97.0568C115.537 96.2362 113.366 94.1547 112.508 94.1547C112.277 94.1547 110.915 93.4311 109.481 92.5458C105.914 90.3426 104.367 89.4542 101.134 87.7514C95.4202 84.7446 90.8753 81.4775 88.8661 78.9326C87.7453 77.5146 86.1564 76.0058 85.3374 75.5824C84.5183 75.159 82.1257 73.5162 80.0196 71.932C75.4192 68.4694 71.0375 65.9321 69.6611 65.9321C69.1084 65.9321 68.1246 65.5164 67.4748 65.0068C66.8251 64.4972 63.1347 62.1924 59.2718 59.8846C54.1973 56.8531 51.7939 55.0979 50.61 53.5568C48.5762 50.9087 47.1566 50.299 46.0019 51.5753ZM66.257 83.0741C66.4495 83.8578 67.4825 85.9055 68.5541 87.6237C69.6257 89.3403 70.5017 91.1617 70.5017 91.6682C70.5017 92.1747 70.6326 92.9322 70.7942 93.3541C71.0575 94.0377 71.213 94.0346 72.303 93.3217L73.5163 92.5258L72.2569 91.2079C71.5625 90.4842 70.9959 89.7237 70.9959 89.5189C70.9959 89.3141 70.3031 88.2826 69.4563 87.228C68.6095 86.1733 67.7674 84.5876 67.5872 83.7038C67.4071 82.8216 66.9544 81.9964 66.5834 81.8732C66.0661 81.7008 65.9907 81.9841 66.257 83.0741ZM61.8399 95.1446C61.6721 95.4171 60.6698 95.6404 59.6136 95.6404C58.5559 95.6404 57.5521 95.8667 57.3812 96.1438C57.2103 96.421 56.8931 96.5364 56.676 96.4025C56.459 96.2685 55.8831 96.5996 55.3966 97.1384C54.9086 97.6757 54.2111 98.1161 53.8447 98.1161C53.4783 98.1161 53.1796 98.3393 53.1796 98.6118C53.1796 98.8843 53.3628 99.106 53.586 99.106C54.1834 99.106 58.6945 97.628 59.9554 97.0183C60.5512 96.7304 61.7121 96.6304 62.5342 96.7936C64.2201 97.1323 64.9453 96.4518 64.0492 95.371C63.3579 94.538 62.2833 94.4272 61.8399 95.1446ZM68.511 95.4048C67.6288 96.4687 68.2585 96.8705 69.4763 96.0176C70.0367 95.625 70.3477 95.157 70.1676 94.9768C69.6565 94.4657 69.19 94.5873 68.511 95.4048ZM75.2268 103.382C76.1906 104.642 77.3299 106.37 77.7609 107.218L78.5446 108.761L77.3376 107.648C75.0867 105.574 74.7218 106.635 76.7633 109.314C77.6439 110.467 78.3383 110.936 78.8633 110.735C79.3899 110.533 80.2705 111.135 81.5391 112.568C83.4991 114.781 83.2219 113.469 81.1912 110.923C80.62 110.205 79.2605 108.117 78.172 106.282C76.0366 102.681 74.7464 101.088 73.9689 101.088C73.6979 101.088 74.2645 102.119 75.2268 103.382ZM62.682 105.147C62.3556 105.474 62.0878 105.936 62.0878 106.173C62.0878 106.41 62.4403 106.251 62.8699 105.822C63.301 105.391 63.8568 105.166 64.1077 105.32C64.3571 105.475 64.5619 105.366 64.5619 105.077C64.5619 104.37 63.4164 104.412 62.682 105.147ZM65.3456 112.299C64.8744 113.528 65.3948 113.695 66.0245 112.518C66.3278 111.949 66.3694 111.484 66.1169 111.484C65.8644 111.484 65.518 111.851 65.3456 112.299ZM105.268 119.267C104.395 119.581 104.499 120.728 105.432 121.087C106.749 121.594 107.619 121.424 107.619 120.662C107.619 119.812 106.161 118.947 105.268 119.267ZM42.7872 166.196C42.7872 173.141 42.7318 178.99 42.6625 179.193C42.5948 179.398 43.5786 179.632 44.8503 179.715L47.1613 179.865L47.3245 173.421C47.4707 167.672 47.5939 166.898 48.4776 166.222C49.0227 165.805 49.9079 165.517 50.4452 165.583C52.1404 165.789 52.67 167.783 52.6777 173.996L52.6854 179.812H57.7291L57.5505 173.004C57.3565 165.649 56.9178 164.068 54.5914 162.345C53.1611 161.288 49.4645 161.051 48.5577 161.957C47.4707 163.046 47.2413 162.361 47.2413 158.027V153.571H42.7872V166.196ZM105.474 153.901C105.292 154.082 105.144 159.987 105.144 167.023V179.812H110.093V173.623C110.093 168.094 110.199 167.329 111.083 166.444C112.205 165.321 113.692 165.157 114.428 166.073C114.701 166.413 115.087 171.004 115.283 176.273L115.641 185.855L114.476 185.433C112.401 184.684 109.227 184.973 107.796 186.043C105.52 187.743 104.402 190.503 104.402 194.418C104.402 198.525 105.535 201.248 107.826 202.645C109.706 203.793 113.166 203.859 114.812 202.78C115.94 202.04 116.031 202.041 116.031 202.808C116.031 203.476 116.437 203.607 118.136 203.484L120.239 203.331L120.054 184.764C119.855 164.847 119.728 163.802 117.309 162.216C115.872 161.274 112.65 161.148 111.109 161.974C110.119 162.504 110.093 162.402 110.093 158.044V153.571H107.948C106.769 153.571 105.656 153.719 105.474 153.901ZM8.24771 155.12C5.85208 155.811 2.96378 158.96 1.96457 161.965C0.117043 167.534 1.10547 173.702 4.39561 177.124C9.66568 182.607 18.2752 180.376 20.7632 172.882C21.9194 169.401 21.6146 163.069 20.155 160.255C17.7317 155.583 13.2884 153.667 8.24771 155.12ZM70.845 166.073C66.2863 181.5 66.4695 179.812 69.3547 179.812H71.7796L72.7341 176.327L73.6887 172.839L76.6647 172.984L79.6393 173.129L80.6385 176.468L81.6361 179.808L84.2088 179.809L86.7815 179.812L86.3335 178.451C86.0871 177.703 84.6415 172.856 83.1203 167.682C81.5992 162.509 80.1258 157.551 79.844 156.666C79.3514 155.117 79.2328 155.057 76.7171 155.057H74.1013L70.845 166.073ZM8.96208 159.579C6.29395 161.131 5.25009 168.699 7.16074 172.648C8.76347 175.959 11.4855 176.725 14.0305 174.582C17.4623 171.692 17.47 163.272 14.0443 160.078C12.8157 158.932 10.4694 158.701 8.96208 159.579ZM27.7838 162.21C23.6607 164.392 22.1288 170.967 24.5999 175.871C25.7977 178.248 28.9554 180.308 31.4034 180.308C33.3802 180.308 36.9706 178.256 38.1807 176.434C39.4802 174.477 40.0467 171.25 39.5787 168.476C38.581 162.569 32.8552 159.528 27.7838 162.21ZM91.5343 161.639C89.2787 162.372 88.7861 162.937 89.1279 164.396C89.5851 166.344 89.9577 166.533 91.8176 165.774C93.6913 165.007 95.7359 165.149 96.3301 166.085C96.9814 167.11 96.7966 167.312 94.8752 167.672C90.1009 168.568 87.8284 170.833 87.8238 174.699C87.8207 178.795 91.5758 181.235 95.4125 179.631C96.4102 179.215 97.2262 179.084 97.2262 179.343C97.2262 179.601 98.2285 179.812 99.4525 179.812H101.68V173.284C101.68 163.965 100.473 161.722 95.2463 161.326C94.0207 161.232 92.3503 161.374 91.5343 161.639ZM75.7872 164.781C74.6602 168.796 74.6879 168.92 76.6878 168.92C77.6393 168.92 78.4184 168.753 78.4168 168.548C78.4168 168.344 78.0104 166.746 77.5177 164.997L76.6186 161.816L75.7872 164.781ZM30.5705 165.474C29.0185 166.076 28.2934 167.749 28.2934 170.732C28.2934 174.011 29.388 175.852 31.3387 175.852C33.3664 175.852 34.5088 174.305 34.7259 171.264C35.0061 167.337 32.9923 164.532 30.5705 165.474ZM93.9083 171.989C92.2271 172.802 92.047 175.467 93.6328 176.077C95.043 176.618 96.7304 175.006 96.7304 173.116C96.7304 171.25 96.0222 170.967 93.9083 171.989ZM37.0661 185.49C35.9545 186.332 35.1662 186.474 35.6111 185.755C35.7974 185.452 35.0384 185.259 33.6605 185.259H31.4034V203.633L36.1053 203.331L36.2455 197.411C36.401 190.847 36.8644 189.715 39.3986 189.715C40.758 189.715 40.8073 189.63 40.8073 187.239C40.8073 184.856 40.755 184.764 39.417 184.764C38.6519 184.764 37.5941 185.092 37.0661 185.49ZM46.9934 185.46C43.9235 186.814 42.2884 190.063 42.2992 194.774C42.3146 200.492 45.2768 203.579 50.747 203.579C52.2758 203.579 54.2358 203.333 55.101 203.029C56.385 202.581 56.6206 202.284 56.3727 201.421C56.2065 200.837 55.957 199.955 55.8169 199.459C55.643 198.834 55.3104 198.666 54.7438 198.916C53.4044 199.499 50.7978 199.749 49.4784 199.418C48.4638 199.162 46.7456 196.97 46.7456 195.929C46.7456 195.779 49.0842 195.656 51.9417 195.656H57.1395L57.1302 193.057C57.1117 186.993 52.0726 183.215 46.9934 185.46ZM64.314 185.664C61.8768 186.822 60.7098 188.095 59.8353 190.549C58.2495 194.999 59.6459 200.214 63.0269 202.461C64.3171 203.319 65.4195 203.579 67.7581 203.579C71.6826 203.579 72.5694 202.951 72.1583 200.458C71.912 198.966 71.6826 198.648 71.0498 198.925C68.6988 199.956 67.0761 199.733 65.5072 198.164C64.0492 196.706 63.963 196.423 64.1785 193.821C64.4911 190.064 65.7274 188.998 69.3393 189.37L71.8904 189.635L72.2199 187.878C72.4016 186.911 72.3431 185.914 72.0906 185.661C71.1145 184.684 66.3756 184.687 64.314 185.664ZM79.162 185.463C72.962 188.22 72.1706 198.669 77.8733 202.461C79.8641 203.784 83.6499 203.972 85.8085 202.854C89.3065 201.045 91.1294 196.597 90.261 191.991C89.2002 186.363 84.0071 183.309 79.162 185.463ZM99.0814 185.53C98.3008 185.961 97.7204 186.063 97.7204 185.771C97.7204 185.489 96.7135 185.259 95.4818 185.259H93.2448L93.3787 194.295L93.5142 203.331L98.133 203.63L98.2978 197.375C98.4794 190.476 98.8274 189.715 101.802 189.715C103.183 189.715 103.215 189.656 103.067 187.364C102.932 185.262 102.786 184.999 101.68 184.896C101 184.833 99.8297 185.118 99.0814 185.53ZM126.523 185.592C124.634 186.523 123.455 188.499 123.455 190.731C123.455 192.425 125.333 194.559 128.451 196.411C130.845 197.832 130.747 199.321 128.243 199.527C127.145 199.616 125.874 199.37 125.218 198.94C124.125 198.224 124.068 198.264 123.524 200.08C123.213 201.114 122.961 202.075 122.961 202.215C122.961 202.98 126.263 203.675 128.971 203.478C131.633 203.285 132.192 203.059 133.427 201.678C136.118 198.665 134.996 194.526 130.93 192.465C128.377 191.17 127.638 190.185 128.542 189.281C129.284 188.537 130.351 188.585 131.978 189.435C133.305 190.128 133.335 190.109 133.832 188.317C134.531 185.798 134.559 185.861 132.488 185.286C129.926 184.574 128.434 184.65 126.522 185.592M48.0604 189.63C46.4808 191.376 46.9996 192.066 49.8386 192.003C52.1496 191.95 52.419 191.833 52.2666 190.953C51.8709 188.66 49.5877 187.943 48.0604 189.63ZM81.3082 189.059C80.2413 189.341 78.9141 192.158 78.9141 194.138C78.9141 196.129 80.1335 199.051 81.1204 199.431C82.4367 199.936 84.1642 199.199 84.7677 197.873C85.0864 197.174 85.3481 195.376 85.3481 193.878C85.3481 191.647 85.128 190.936 84.1334 189.941C82.9017 188.708 82.7754 188.67 81.3082 189.059ZM110.333 190.218C109.186 191.487 108.813 195.929 109.711 197.629C110.068 198.306 110.973 199.074 111.723 199.338C112.853 199.736 113.27 199.63 114.187 198.714C115.112 197.789 115.289 197.065 115.289 194.234C115.289 192.1 115.039 190.557 114.61 190.04C113.678 188.916 111.426 189.01 110.333 190.218Z" fill="#ED3B02"/>
</g>
<mask id="mask1_213_898" style="mask-type:luminance" maskUnits="userSpaceOnUse" x="171" y="18" width="300" height="117">
<path d="M171.014 18.5884H470.288V134.921H171.014V18.5884Z" fill="white"/>
</mask>
<g mask="url(#mask1_213_898)">
<path fill-rule="evenodd" clip-rule="evenodd" d="M251.063 -307.725C212.555 -297.059 184.982 -269.852 173.896 -231.579L171.155 -222.113V14.2147L266.989 14.1441C357.926 14.0736 363.267 13.9627 371.464 11.9807C384.075 8.92713 383.796 9.12869 379.751 5.96422C376.439 3.37083 376.268 2.9106 376.946 -1.61439C377.595 -5.92438 377.349 -6.76422 374.635 -9.59948C372.966 -11.343 370.51 -12.7707 369.18 -12.7707C366.667 -12.7707 363.365 -15.3338 363.365 -17.2822C363.365 -17.9003 364.094 -18.122 364.984 -17.7794C367.056 -16.9832 367.151 -16.6406 363.324 -24.0143C361.52 -27.4912 360.187 -30.4776 360.358 -30.6456C361.033 -31.3241 364.191 -28.1933 367.493 -23.5742C369.848 -20.2989 372.25 -17.0571 374.699 -13.849C376.751 -11.175 378.441 -8.41363 378.458 -7.71154C378.471 -7.00608 379.368 -6.14946 380.45 -5.80681C381.532 -5.46416 384.485 -2.76664 387.007 0.186195L391.596 5.55437L396.79 2.92068C402.766 -0.109417 417.547 -11.0608 422.011 -15.7672C424.517 -18.4109 424.756 -19.0828 423.362 -19.6169C421.477 -20.3392 421.074 -24.1554 422.774 -25.2035C423.375 -25.5764 423.637 -26.2617 423.348 -26.7286C423.063 -27.1922 424.027 -29.1977 425.492 -31.183C426.956 -33.1718 428.176 -35.3083 428.199 -35.9365C428.223 -36.5647 429.654 -38.7281 431.381 -40.747C433.769 -43.5419 434.374 -45.1309 433.917 -47.4119C433.541 -49.2998 434.108 -51.9369 435.459 -54.5471C436.635 -56.8213 438.721 -61.2522 440.095 -64.3898C441.469 -67.5274 443.232 -70.6247 444.015 -71.2731C444.794 -71.9214 445.433 -73.4432 445.433 -74.6525C445.433 -76.9503 453.636 -88.3921 455.282 -88.3921C455.803 -88.3921 456.229 -90.8847 456.229 -93.9282V-99.4644L462.226 -98.9672C467.181 -98.5574 468.4 -98.8026 469.243 -100.381C469.868 -101.551 470.268 -142.773 470.268 -206.079V-309.865L364.174 -309.767C265.525 -309.677 257.59 -309.532 251.063 -307.725ZM217.967 -239.803C211.322 -235.506 201.96 -224.464 200.7 -219.439C199.817 -215.925 202.04 -208.655 204.691 -206.385C205.847 -205.397 206.79 -203.7 206.79 -202.615C206.79 -198.292 210.99 -192.907 217.88 -188.389C220.332 -186.78 220.863 -186.847 226.332 -189.46C229.54 -190.992 234.35 -193.666 237.024 -195.4C239.698 -197.133 242.614 -198.876 243.504 -199.27C244.395 -199.663 248.16 -203.123 251.872 -206.962C259.646 -215.001 260.056 -216.889 255.87 -225.297C253.915 -229.218 252.192 -231.146 249.941 -231.932C247.861 -232.654 246.968 -233.571 247.358 -234.579C248.802 -238.355 238.556 -243.962 230.215 -243.962C225.304 -243.962 223.402 -243.317 217.967 -239.803ZM271.037 -197.506C266.482 -192.47 275.626 -172.66 282.506 -172.66C283.712 -172.66 286.074 -170.242 288.583 -166.449C290.844 -163.033 294.398 -159.263 296.484 -158.074C303.824 -153.899 308.292 -150.832 308.292 -149.972C308.292 -149.495 309.78 -148.584 311.601 -147.949C314.604 -146.905 314.876 -146.421 314.571 -142.712C314.278 -139.161 313.845 -138.584 311.262 -138.288C307.214 -137.821 307.345 -134.489 311.665 -127.965C313.522 -125.163 314.759 -122.59 314.416 -122.247C314.07 -121.905 311.171 -121.948 307.97 -122.351C302.716 -123.006 301.919 -123.467 299.806 -127.071C298.52 -129.268 294.808 -134.714 291.553 -139.168C288.301 -143.626 284.344 -149.216 282.761 -151.594C275.626 -162.287 273.261 -165.673 272.576 -166.177C271.165 -167.215 264.02 -177.007 264.02 -177.904C264.02 -178.401 263.049 -179.688 261.86 -180.763C260.674 -181.838 259.7 -183.353 259.7 -184.132C259.7 -185.53 255.017 -194.62 252.944 -197.237C250.942 -199.773 246.592 -198.729 242.913 -194.829C239.016 -190.697 238.825 -189.007 241.858 -185.651C243.286 -184.072 243.548 -183.074 242.738 -182.265C241.008 -180.535 242.282 -177.145 244.448 -177.713C246.555 -178.264 249.575 -175.304 250.152 -172.12C250.381 -170.863 251.557 -169.815 252.964 -169.614C254.294 -169.425 255.383 -168.586 255.383 -167.749C255.383 -166.913 256.596 -165.431 258.08 -164.457C259.565 -163.483 260.781 -162.189 260.781 -161.578C260.781 -160.406 265.881 -154.188 279.1 -139.235C283.531 -134.22 286.205 -130.575 285.039 -131.133C283.873 -131.69 279.476 -132.14 275.267 -132.13C266.375 -132.114 264.12 -130.639 263.267 -124.28C262.844 -121.132 263.217 -119.808 264.967 -118.226C266.852 -116.516 267.678 -116.392 270.201 -117.43C272.287 -118.29 274.319 -118.34 276.886 -117.598C281.058 -116.389 284.679 -116.997 289.396 -119.691C293.027 -121.763 302.907 -121.512 302.877 -119.345C302.847 -116.997 300.952 -115.089 299.289 -115.727C298.372 -116.08 295.073 -115.468 291.962 -114.37C288.6 -113.187 285.429 -112.7 284.155 -113.17C281.394 -114.192 273.721 -112.797 272.66 -111.081C272.21 -110.355 272.106 -108.766 272.421 -107.55C272.885 -105.773 272.593 -105.451 270.94 -105.918C265.461 -107.456 265.639 -107.631 265.639 -100.818C265.639 -94.4154 265.689 -94.3112 269.63 -92.383C273.073 -90.7 274.222 -90.6126 278.008 -91.7481C282.996 -93.243 284.508 -92.4838 282.607 -89.4402C279.637 -84.6801 282.566 -76.1541 287.948 -73.89C289.87 -73.0804 292.013 -72.6369 292.712 -72.9057C294.049 -73.4197 295.698 -70.4064 294.841 -69.019C294.563 -68.5688 294.798 -66.5364 295.359 -64.4973C296.45 -60.5434 300.908 -57.0867 304.499 -57.4126C305.789 -57.5301 307.11 -56.5223 307.973 -54.7654C308.739 -53.2033 310.946 -51.312 312.878 -50.5596C314.809 -49.8071 318.105 -48.0569 320.197 -46.6695C323.426 -44.5262 324.857 -44.244 329.647 -44.8118C335.751 -45.534 336.282 -46.3739 333.393 -50.7074C332.358 -52.2594 330.114 -55.6624 328.408 -58.2692C326.698 -60.876 324.339 -64.064 323.164 -65.3573C320.621 -68.1523 321.427 -70.0268 325.166 -70.0268C329.305 -70.0268 332.052 -68.0851 334.071 -63.728C336.54 -58.4069 345.355 -45.0738 347.858 -42.8768C348.963 -41.906 350.959 -40.7806 352.296 -40.3741C354.177 -39.7997 354.755 -40.0751 354.852 -41.5969C355.107 -45.6684 354.476 -47.6302 351.493 -52.0108C349.803 -54.49 348.58 -56.6769 348.772 -56.8683C348.967 -57.0632 351.204 -55.7161 353.744 -53.8752C357.886 -50.8753 358.92 -50.5965 363.811 -51.1542C366.811 -51.4968 370.003 -52.3803 370.903 -53.116C376.009 -57.2849 377.806 -57.4025 385.61 -54.0801C393.531 -50.7074 393.273 -50.6704 398.54 -55.8706C400.408 -57.7182 401.16 -59.6465 401.16 -62.6027C401.16 -66.1938 401.543 -66.8421 404.049 -67.4703C405.638 -67.8701 408.416 -67.6383 410.224 -66.9564C412.851 -65.962 413.811 -66.0191 415.021 -67.2285C416.757 -68.9619 415.824 -71.2798 413.714 -70.4702C411.584 -69.6539 409.128 -73.0333 410.707 -74.6088C411.396 -75.2975 411.957 -76.9503 411.957 -78.2806C411.957 -81.1965 413.845 -82.6141 415.508 -80.9512C416.949 -79.5101 422.757 -79.3354 422.757 -80.7362C422.757 -81.2771 421.299 -82.9467 419.515 -84.4483C417.735 -85.9465 416.297 -87.5691 416.321 -88.0528C416.344 -88.5366 417.802 -90.616 419.559 -92.6719C421.319 -94.7311 422.757 -97.2473 422.757 -98.2685C422.757 -100.059 418.017 -104.597 416.146 -104.597C415.642 -104.597 412.673 -106.18 409.545 -108.108C401.762 -112.915 398.382 -114.857 391.327 -118.569C378.864 -125.133 368.948 -132.261 364.56 -137.811C362.115 -140.908 358.651 -144.197 356.864 -145.121C355.077 -146.048 349.857 -149.632 345.261 -153.089C335.224 -160.641 325.663 -166.177 322.66 -166.177C321.45 -166.177 319.304 -167.087 317.886 -168.199C316.472 -169.311 308.416 -174.34 299.988 -179.376C288.916 -185.99 283.675 -189.82 281.092 -193.179C276.651 -198.96 273.557 -200.291 271.037 -197.506ZM315.232 -128.778C315.652 -127.064 317.906 -122.6 320.244 -118.851C322.579 -115.102 324.491 -111.131 324.491 -110.026C324.491 -108.921 324.78 -107.265 325.132 -106.348C325.703 -104.853 326.046 -104.859 328.421 -106.418L331.072 -108.155L328.32 -111.027C326.809 -112.606 325.572 -114.266 325.572 -114.712C325.572 -115.162 324.057 -117.41 322.21 -119.711C320.362 -122.012 318.528 -125.472 318.131 -127.4C317.738 -129.329 316.754 -131.126 315.941 -131.398C314.816 -131.771 314.648 -131.153 315.232 -128.778ZM305.595 -102.437C305.228 -101.843 303.041 -101.356 300.734 -101.356C298.429 -101.356 296.235 -100.862 295.866 -100.261C295.49 -99.6559 294.798 -99.4006 294.327 -99.6928C293.854 -99.9851 292.594 -99.2662 291.532 -98.0904C290.471 -96.9147 288.949 -95.9539 288.15 -95.9539C287.35 -95.9539 286.698 -95.4702 286.698 -94.8756C286.698 -94.281 287.095 -93.7939 287.585 -93.7939C288.885 -93.7939 298.731 -97.0222 301.479 -98.3491C302.779 -98.9773 305.312 -99.199 307.106 -98.8396C310.788 -98.1039 312.37 -99.5887 310.415 -101.944C308.907 -103.764 306.562 -104.003 305.595 -102.437ZM320.15 -101.873C318.222 -99.5484 319.599 -98.675 322.253 -100.533C323.476 -101.389 324.155 -102.414 323.765 -102.804C322.65 -103.919 321.632 -103.657 320.15 -101.873ZM334.804 -84.4684C336.903 -81.7172 339.393 -77.948 340.333 -76.097L342.043 -72.7276L339.406 -75.1598C334.498 -79.6848 333.702 -77.3702 338.156 -71.525C340.074 -69.0089 341.59 -67.9809 342.738 -68.421C343.887 -68.8644 345.809 -67.5476 348.577 -64.4234C352.853 -59.5961 352.245 -62.4582 347.818 -68.0112C346.568 -69.5766 343.605 -74.1352 341.227 -78.1395C336.567 -85.9969 333.752 -89.4738 332.056 -89.4738C331.468 -89.4738 332.704 -87.2197 334.804 -84.4684ZM307.429 -80.6153C306.717 -79.9031 306.135 -78.8953 306.135 -78.378C306.135 -77.8607 306.901 -78.2033 307.842 -79.1439C308.779 -80.0812 309.995 -80.575 310.539 -80.2357C311.087 -79.8998 311.534 -80.1383 311.534 -80.7665C311.534 -82.3117 309.031 -82.2177 307.429 -80.6153ZM313.244 -65.0113C312.216 -62.3272 313.348 -61.9611 314.722 -64.5343C315.387 -65.7739 315.478 -66.785 314.927 -66.785C314.372 -66.785 313.617 -65.9889 313.244 -65.0113ZM400.351 -49.8071C398.446 -49.1218 398.671 -46.6191 400.707 -45.8364C403.582 -44.7311 405.477 -45.1007 405.477 -46.7635C405.477 -48.6145 402.296 -50.5024 400.351 -49.8071ZM264.02 52.5915C264.02 67.742 263.899 80.504 263.751 80.9508C263.6 81.3975 265.75 81.9081 268.525 82.0862L273.563 82.4121L273.923 68.3567C274.239 55.8097 274.511 54.1233 276.439 52.6452C277.625 51.7382 279.557 51.11 280.732 51.2511C284.428 51.7012 285.583 56.0549 285.6 69.6064L285.617 82.3012H296.622L296.232 67.4463C295.812 51.3955 294.855 47.9455 289.776 44.1865C286.658 41.8786 278.592 41.3613 276.614 43.3433C274.239 45.7149 273.738 44.22 273.738 34.7669V25.0417H264.02V52.5915ZM400.801 25.764C400.404 26.157 400.078 39.0433 400.078 54.392V82.3012H410.879V68.7968C410.879 56.7335 411.107 55.0605 413.039 53.1323C415.488 50.68 418.729 50.3206 420.339 52.3227C420.933 53.0651 421.773 63.0792 422.203 74.5781L422.982 95.4831L420.439 94.5627C415.914 92.9267 408.987 93.5616 405.867 95.8929C400.902 99.6016 398.459 105.625 398.459 114.171C398.459 123.13 400.932 129.07 405.93 132.12C410.032 134.622 417.584 134.767 421.175 132.412C423.637 130.796 423.836 130.803 423.836 132.472C423.836 133.934 424.722 134.216 428.424 133.947L433.013 133.618L432.61 93.1047C432.177 49.6453 431.898 47.3644 426.62 43.9043C423.486 41.8517 416.458 41.5763 413.096 43.3768C410.936 44.5358 410.879 44.3141 410.879 34.8039V25.0417H406.199C403.626 25.0417 401.194 25.3676 400.801 25.764ZM188.66 28.4246C183.433 29.9296 177.128 36.7993 174.951 43.3601C170.916 55.5107 173.073 68.9647 180.255 76.4325C191.754 88.395 210.539 83.5307 215.968 67.1776C218.488 59.5855 217.822 45.7653 214.638 39.6279C209.354 29.4323 199.655 25.25 188.66 28.4246ZM325.243 52.3227C315.296 85.983 315.696 82.3012 321.988 82.3012H327.279L329.362 74.6924L331.448 67.0869L337.938 67.3993L344.432 67.7151L346.608 75.0014L348.789 82.2877L354.399 82.2945L360.012 82.3012L359.034 79.3282C358.497 77.6956 355.343 67.1205 352.027 55.8332C348.708 44.5425 345.49 33.7256 344.878 31.794C343.803 28.4178 343.545 28.2835 338.052 28.2835H332.348L325.243 52.3227ZM190.219 38.1498C184.394 41.536 182.12 58.0537 186.289 66.6669C189.782 73.8895 195.722 75.5624 201.274 70.8896C208.766 64.5842 208.783 46.2088 201.305 39.2415C198.624 36.7422 193.508 36.2383 190.219 38.1498ZM231.287 43.8908C222.29 48.651 218.944 63.002 224.336 73.698C226.953 78.8881 233.843 83.3795 239.184 83.3795C243.498 83.3795 251.332 78.9016 253.969 74.9309C256.804 70.6578 258.043 63.6167 257.022 57.5666C254.845 44.6769 242.349 38.0389 231.287 43.8908ZM370.386 42.6479C365.464 44.2436 364.386 45.4798 365.135 48.6644C366.133 52.9106 366.942 53.3271 371.004 51.6676C375.092 49.9981 379.553 50.3038 380.85 52.3496C382.267 54.5835 381.864 55.0269 377.672 55.8097C367.258 57.7648 362.296 62.7063 362.29 71.1449C362.28 80.0807 370.476 85.4018 378.848 81.9014C381.021 80.9944 382.802 80.7122 382.802 81.2766C382.802 81.841 384.988 82.3012 387.662 82.3012H392.52V68.0577C392.52 47.7238 389.886 42.8259 378.481 41.9626C375.811 41.761 372.166 42.0701 370.386 42.6479ZM336.023 49.5042C333.568 58.2653 333.625 58.5341 337.988 58.5341C340.068 58.5341 341.768 58.1679 341.764 57.7245C341.761 57.2777 340.877 53.7907 339.799 49.9712L337.837 43.0342L336.023 49.5042ZM237.364 51.0126C233.977 52.3294 232.395 55.981 232.395 62.4846C232.395 69.6399 234.787 73.6577 239.043 73.6577C243.467 73.6577 245.957 70.2816 246.43 63.647C247.042 55.0807 242.651 48.96 237.364 51.0126ZM375.566 65.2292C371.897 67.0029 371.504 72.8212 374.961 74.1482C378.038 75.3306 381.723 71.8101 381.723 67.6915C381.723 63.6201 380.175 63.002 375.566 65.2292ZM251.54 94.6903C249.114 96.5245 247.391 96.8369 248.362 95.2648C248.772 94.6063 247.116 94.1831 244.106 94.1831H239.184V134.276L249.444 133.618L249.749 120.698C250.089 106.374 251.1 103.908 256.629 103.908C259.595 103.908 259.7 103.72 259.7 98.5065C259.7 93.3063 259.589 93.1047 256.666 93.1047C255 93.1047 252.692 93.8169 251.54 94.6903ZM273.197 94.6198C266.502 97.576 262.931 104.664 262.958 114.947C262.992 127.42 269.455 134.156 281.391 134.156C284.726 134.156 289 133.618 290.891 132.96C293.692 131.982 294.203 131.334 293.666 129.449C293.303 128.176 292.755 126.248 292.453 125.166C292.07 123.805 291.348 123.439 290.108 123.98C287.189 125.257 281.498 125.801 278.619 125.075C276.405 124.521 272.66 119.737 272.66 117.466C272.66 117.137 277.763 116.872 283.998 116.872H295.335L295.318 111.201C295.275 97.9656 284.283 89.7253 273.197 94.6198ZM310.993 95.0699C305.675 97.5928 303.129 100.371 301.221 105.726C297.757 115.437 300.808 126.812 308.185 131.717C310.996 133.588 313.402 134.156 318.504 134.156C327.071 134.156 329.006 132.785 328.109 127.346C327.571 124.094 327.067 123.396 325.69 124C320.557 126.251 317.016 125.767 313.593 122.341C310.415 119.16 310.227 118.545 310.697 112.864C311.376 104.667 314.073 102.343 321.958 103.156L327.524 103.73L328.243 99.8973C328.636 97.7876 328.512 95.6141 327.961 95.0632C325.828 92.93 315.491 92.9334 310.993 95.0699ZM343.387 94.6299C329.862 100.643 328.132 123.443 340.578 131.717C344.919 134.602 353.179 135.012 357.892 132.577C365.525 128.626 369.502 118.921 367.607 108.873C365.293 96.5917 353.959 89.9268 343.387 94.6299ZM386.853 94.7777C385.146 95.7149 383.883 95.94 383.883 95.2984C383.883 94.687 381.683 94.1831 378.999 94.1831H374.114L374.41 113.902L374.702 133.618L379.741 133.941L384.784 134.27L385.143 120.621C385.539 105.564 386.299 103.908 392.785 103.908C395.802 103.908 395.869 103.781 395.55 98.7752C395.255 94.1898 394.932 93.6187 392.52 93.3936C391.035 93.2525 388.486 93.8774 386.853 94.7777ZM446.726 94.912C442.607 96.9411 440.034 101.251 440.034 106.122C440.034 109.821 444.129 114.477 450.932 118.515C456.159 121.615 455.94 124.864 450.478 125.314C448.086 125.512 445.308 124.975 443.881 124.037C441.495 122.475 441.368 122.559 440.182 126.523C439.507 128.781 438.952 130.877 438.952 131.179C438.952 132.849 446.162 134.364 452.071 133.937C457.879 133.517 459.098 133.023 461.792 130.01C467.661 123.433 465.216 114.403 456.34 109.905C450.77 107.083 449.158 104.933 451.133 102.958C452.752 101.338 455.08 101.443 458.631 103.294C461.527 104.805 461.587 104.768 462.676 100.858C464.201 95.3622 464.261 95.4966 459.74 94.2402C454.15 92.6882 450.895 92.8561 446.726 94.912ZM275.525 103.724C272.082 107.53 273.211 109.038 279.409 108.897C284.448 108.783 285.036 108.531 284.703 106.609C283.843 101.604 278.858 100.038 275.525 103.724ZM348.073 102.474C345.745 103.089 342.849 109.236 342.849 113.56C342.849 117.9 345.506 124.279 347.66 125.106C350.535 126.211 354.305 124.602 355.621 121.709C356.317 120.181 356.884 116.257 356.884 112.989C356.884 108.124 356.407 106.572 354.234 104.399C351.55 101.711 351.274 101.624 348.073 102.474ZM411.403 105.003C408.897 107.775 408.084 117.463 410.046 121.175C410.825 122.65 412.8 124.33 414.433 124.904C416.902 125.771 417.809 125.542 419.811 123.54C421.827 121.521 422.216 119.946 422.216 113.768C422.216 109.112 421.672 105.742 420.735 104.614C418.703 102.161 413.788 102.37 411.403 105.003Z" fill="#ED3B02"/>
</g>
</svg>
