<svg width="1275" height="1275" viewBox="0 0 1275 1275" fill="none" xmlns="http://www.w3.org/2000/svg">
<circle cx="637.032" cy="637.032" r="530" transform="rotate(-103.201 637.032 637.032)" fill="url(#paint0_linear_276_1358)"/>
<circle cx="637.032" cy="637.033" r="149.742" transform="rotate(-103.201 637.032 637.033)" fill="#ED3B02"/>
<circle cx="637.032" cy="637.033" r="149.742" transform="rotate(-103.201 637.032 637.033)" fill="#ED3B02"/>
<circle cx="637.033" cy="637.033" r="16.7761" transform="rotate(-103.201 637.033 637.033)" fill="black"/>
<mask id="mask0_276_1358" style="mask-type:alpha" maskUnits="userSpaceOnUse" x="458" y="222" width="600" height="597">
<path d="M690.428 230.736C720.589 224.061 751.653 222.109 782.244 225.043C905.563 235.442 1014.63 331.485 1040.04 451.235C1077.87 601.012 973.937 766.873 823.577 798.356C823.577 798.356 823.577 798.356 823.577 798.356C674.901 837.019 508.058 734.674 475.338 583.698C444.846 465.141 499.827 330.617 605.658 266.465C631.754 250.234 660.445 238.169 690.428 230.736C660.264 237.389 631.153 248.774 604.477 264.515C496.294 326.519 436.689 463.004 466.576 585.754C498.082 741.98 671.275 850.455 826.317 810.038C826.317 810.038 826.317 810.038 826.317 810.038C983.16 777.295 1090.05 603.12 1048.8 449.179C1020.98 325.944 906.905 230.201 782.434 222.771C751.542 220.534 720.405 223.282 690.428 230.736Z" fill="#D1D1D1"/>
</mask>
<g mask="url(#mask0_276_1358)">
<path d="M890.904 396.868C875.849 400.4 860.781 391.058 857.25 376.003L818.672 211.543C815.14 196.488 824.482 181.42 839.537 177.889L1028.19 133.635C1043.25 130.103 1058.32 139.445 1061.85 154.5L1100.43 318.96C1103.96 334.015 1094.62 349.083 1079.56 352.615L890.904 396.868Z" fill="#D1D1D1"/>
<path d="M870.369 407.848C852.088 412.137 833.791 400.793 829.503 382.512L790.925 218.052C786.637 199.77 797.98 181.474 816.262 177.186L841.394 183.616C841.394 183.616 843.644 193.205 846.419 205.035L884.997 369.494C887.771 381.323 890.021 390.913 890.021 390.913L870.369 407.848ZM1026.82 127.793C1045.11 123.505 1063.4 134.849 1067.69 153.13L1106.27 317.59C1110.56 335.871 1099.21 354.168 1080.93 358.456L1078.19 346.773C1090.02 343.998 1097.36 332.16 1094.58 320.33L1056.01 155.871C1053.23 144.042 1041.39 136.702 1029.56 139.476L1026.82 127.793ZM1106.27 317.59C1110.56 335.871 1099.21 354.168 1080.93 358.456L870.369 407.848C852.088 412.137 833.791 400.793 829.503 382.512L884.997 369.494C887.771 381.323 890.021 390.913 890.021 390.913L1078.19 346.773C1090.02 343.998 1097.36 332.16 1094.58 320.33L1106.27 317.59ZM790.925 218.052C786.637 199.77 797.98 181.474 816.262 177.186L1026.82 127.793C1045.11 123.505 1063.4 134.849 1067.69 153.13L1056.01 155.871C1053.23 144.042 1041.39 136.702 1029.56 139.476L841.394 183.616C841.394 183.616 843.644 193.205 846.419 205.035L790.925 218.052Z" fill="#D1D1D1"/>
</g>
<mask id="mask1_276_1358" style="mask-type:alpha" maskUnits="userSpaceOnUse" x="538" y="268" width="462" height="460">
<path d="M716.903 275.582C740.022 270.561 763.803 269.159 787.195 271.488C881.501 279.8 964.439 353.387 983.615 444.686C1012.19 558.901 932.941 684.948 818.55 708.91C818.55 708.91 818.55 708.91 818.55 708.91C705.436 738.314 578.408 660.654 553.208 545.648C529.786 455.345 571.35 352.553 652.122 303.172C672.039 290.685 693.963 281.365 716.903 275.582C693.781 280.586 671.438 289.225 650.942 301.222C567.817 348.455 521.628 453.208 544.446 547.703C568.432 667.96 701.81 751.75 821.291 720.593C821.291 720.593 821.291 720.593 821.291 720.593C942.163 695.369 1024.37 561.009 992.378 442.63C970.795 347.845 882.843 274.558 787.386 269.216C763.692 267.585 739.838 269.782 716.903 275.582Z" fill="#D1D1D1"/>
</mask>
<g mask="url(#mask1_276_1358)">
<path d="M876.816 401.313C861.761 404.844 846.693 395.502 843.162 380.447L816.613 267.267C813.081 252.212 822.423 237.145 837.479 233.613L969.189 202.717C984.244 199.186 999.311 208.528 1002.84 223.583L1029.39 336.763C1032.92 351.818 1023.58 366.885 1008.53 370.417L876.816 401.313Z" fill="#D1D1D1"/>
<path d="M856.281 412.293C838 416.581 819.703 405.237 815.415 386.956L788.866 273.776C784.578 255.495 795.921 237.198 814.203 232.91L839.336 239.34C839.336 239.34 841.585 248.93 844.36 260.759L870.909 373.938C873.684 385.768 875.933 395.357 875.933 395.357L856.281 412.293ZM967.818 196.876C986.1 192.588 1004.4 203.931 1008.68 222.213L1035.23 335.392C1039.52 353.674 1028.18 371.97 1009.9 376.258L1007.16 364.576C1018.99 361.801 1026.33 349.962 1023.55 338.133L997.002 224.953C994.227 213.124 982.388 205.784 970.559 208.559L967.818 196.876ZM1035.23 335.392C1039.52 353.674 1028.18 371.97 1009.9 376.258L856.281 412.293C838 416.581 819.703 405.237 815.415 386.956L870.909 373.938C873.684 385.768 875.933 395.357 875.933 395.357L1007.16 364.576C1018.99 361.801 1026.33 349.962 1023.55 338.133L1035.23 335.392ZM788.866 273.776C784.578 255.495 795.921 237.198 814.203 232.91L967.818 196.876C986.1 192.588 1004.4 203.931 1008.68 222.213L997.002 224.953C994.227 213.124 982.388 205.784 970.559 208.559L839.336 239.34C839.336 239.34 841.585 248.93 844.36 260.759L788.866 273.776Z" fill="#D1D1D1"/>
</g>
<mask id="mask2_276_1358" style="mask-type:alpha" maskUnits="userSpaceOnUse" x="620" y="313" width="326" height="324">
<path d="M746.457 318.796C762.662 315.399 779.291 314.538 795.614 316.272C861.429 322.534 918.71 374.069 931.767 437.43C951.244 516.724 896.24 603.674 817.171 620.252C817.171 620.252 817.171 620.252 817.171 620.252C738.978 640.563 651.046 587.143 633.232 507.459C616.752 444.901 645.141 373.27 701.306 338.394C715.155 329.583 730.433 322.959 746.457 318.796C730.251 322.18 714.554 328.123 700.125 336.444C641.608 369.172 608.594 442.764 624.469 509.514C641.071 594.449 735.352 653.999 819.911 631.935C905.462 614.096 963.428 518.833 940.529 435.375C925.066 368.528 862.771 317.292 795.804 314C779.18 312.963 762.478 314.62 746.457 318.796Z" fill="#D1D1D1"/>
</mask>
<g mask="url(#mask2_276_1358)">
<path d="M866.538 404.853C851.483 408.385 836.415 399.043 832.884 383.987L818.147 321.164C814.615 306.109 823.957 291.041 839.012 287.509L914.802 269.731C929.857 266.2 944.925 275.541 948.457 290.597L963.193 353.42C966.725 368.476 957.383 383.543 942.328 387.075L866.538 404.853Z" fill="#D1D1D1"/>
<path d="M846.003 415.833C827.722 420.121 809.425 408.778 805.137 390.496L790.4 327.673C786.112 309.391 797.455 291.095 815.737 286.806L840.87 293.237C840.87 293.237 843.119 302.826 845.894 314.655L860.63 377.479C863.405 389.308 865.655 398.897 865.655 398.897L846.003 415.833ZM913.432 263.89C931.713 259.601 950.01 270.945 954.298 289.226L969.035 352.05C973.323 370.331 961.98 388.628 943.698 392.916L940.958 381.233C952.787 378.458 960.127 366.62 957.352 354.79L942.615 291.967C939.84 280.138 928.002 272.798 916.172 275.573L913.432 263.89ZM969.035 352.05C973.323 370.331 961.98 388.628 943.698 392.916L846.003 415.833C827.722 420.121 809.425 408.778 805.137 390.496L860.63 377.479C863.405 389.308 865.655 398.897 865.655 398.897L940.958 381.233C952.787 378.458 960.127 366.62 957.352 354.79L969.035 352.05ZM790.4 327.673C786.112 309.391 797.455 291.095 815.737 286.806L913.432 263.89C931.713 259.601 950.01 270.945 954.298 289.226L942.615 291.967C939.84 280.138 928.002 272.798 916.172 275.573L840.87 293.237C840.87 293.237 843.119 302.826 845.894 314.655L790.4 327.673Z" fill="#D1D1D1"/>
</g>
<mask id="mask3_276_1358" style="mask-type:alpha" maskUnits="userSpaceOnUse" x="216" y="475" width="600" height="597">
<path d="M533.239 1070.79C502.38 1072.18 471.443 1068.76 441.812 1060.61C322.118 1029.16 231.193 915.789 226.755 793.454C215.244 639.403 346.147 493.884 499.681 488.726C499.681 488.726 499.681 488.726 499.681 488.726C652.791 476.205 799.55 605.715 805.82 760.069C815.471 882.103 738.177 1005.17 622.89 1050.17C594.392 1061.67 564.054 1068.62 533.239 1070.79C564.098 1069.42 594.733 1063.21 623.718 1052.29C740.952 1009.81 823.139 885.611 814.805 759.551C810.633 600.233 658.673 463.592 498.99 476.746C498.99 476.746 498.99 476.746 498.99 476.746C338.854 482.031 203.605 635.231 217.77 793.972C223.978 920.155 319.895 1034.09 441.234 1062.81C471.281 1070.33 502.427 1072.97 533.239 1070.79Z" fill="#D1D1D1"/>
</mask>
<g mask="url(#mask3_276_1358)">
<path d="M364.317 872.655C379.755 871.765 392.992 883.558 393.882 898.997L403.605 1067.64C404.495 1083.08 392.701 1096.32 377.263 1097.21L183.807 1108.36C168.369 1109.25 155.132 1097.46 154.242 1082.02L144.519 913.373C143.629 897.935 155.422 884.698 170.861 883.808L364.317 872.655Z" fill="#D1D1D1"/>
<path d="M386.434 865.37C405.181 864.289 421.254 878.61 422.335 897.356L432.058 1066C433.138 1084.75 418.818 1100.82 400.071 1101.9L376.418 1091.24C376.418 1091.24 375.851 1081.41 375.152 1069.28L365.429 900.637C364.73 888.507 364.163 878.673 364.163 878.673L386.434 865.37ZM184.152 1114.35C165.406 1115.43 149.332 1101.11 148.252 1082.36L138.529 913.719C137.448 894.972 151.769 878.899 170.515 877.818L171.206 889.798C159.076 890.498 149.809 900.898 150.509 913.028L160.232 1081.67C160.931 1093.8 171.331 1103.07 183.462 1102.37L184.152 1114.35ZM138.529 913.719C137.448 894.972 151.769 878.899 170.515 877.818L386.434 865.37C405.181 864.289 421.254 878.61 422.335 897.356L365.429 900.637C364.73 888.507 364.163 878.673 364.163 878.673L171.206 889.798C159.076 890.498 149.809 900.898 150.509 913.028L138.529 913.719ZM432.058 1066C433.138 1084.75 418.818 1100.82 400.071 1101.9L184.152 1114.35C165.406 1115.43 149.332 1101.11 148.252 1082.36L160.232 1081.67C160.931 1093.8 171.331 1103.07 183.462 1102.37L376.418 1091.24C376.418 1091.24 375.851 1081.41 375.152 1069.28L432.058 1066Z" fill="#D1D1D1"/>
</g>
<mask id="mask4_276_1358" style="mask-type:alpha" maskUnits="userSpaceOnUse" x="271" y="565" width="461" height="458">
<path d="M514.872 1022.06C491.234 1023.03 467.566 1020.32 444.923 1014C353.451 989.597 284.403 902.844 281.212 809.608C272.708 692.181 372.447 581.639 489.254 577.704C489.254 577.704 489.254 577.704 489.254 577.704C605.739 568.189 717.521 666.536 722.569 784.162C730.114 877.147 671.493 971.261 583.432 1006.02C561.665 1014.89 538.465 1020.3 514.872 1022.06C538.51 1021.1 562.006 1016.43 584.26 1008.14C674.269 975.905 737.782 880.655 731.554 783.644C728.604 661.054 611.621 555.576 488.563 565.724C488.563 565.724 488.563 565.724 488.563 565.724C365.154 569.786 261.068 688.009 272.227 810.126C277.189 907.21 351.228 994.53 444.345 1016.21C467.405 1021.89 491.281 1023.83 514.872 1022.06Z" fill="#D1D1D1"/>
</mask>
<g mask="url(#mask4_276_1358)">
<path d="M378.962 870.7C394.4 869.81 407.637 881.603 408.527 897.042L415.218 1013.1C416.108 1028.54 404.315 1041.78 388.876 1042.67L253.816 1050.45C238.377 1051.34 225.14 1039.55 224.25 1024.11L217.559 908.052C216.669 892.613 228.463 879.377 243.901 878.487L378.962 870.7Z" fill="#D1D1D1"/>
<path d="M401.079 863.415C419.826 862.334 435.899 876.655 436.98 895.401L443.671 1011.46C444.752 1030.21 430.431 1046.28 411.684 1047.36L388.032 1036.7C388.032 1036.7 387.465 1026.87 386.766 1014.74L380.074 898.682C379.375 886.552 378.808 876.719 378.808 876.719L401.079 863.415ZM254.161 1056.44C235.414 1057.52 219.341 1043.2 218.26 1024.46L211.569 908.397C210.488 889.651 224.809 873.577 243.556 872.497L244.246 884.477C232.116 885.176 222.85 895.576 223.549 907.706L230.24 1023.77C230.94 1035.9 241.34 1045.16 253.47 1044.46L254.161 1056.44ZM211.569 908.397C210.488 889.651 224.809 873.577 243.556 872.497L401.079 863.415C419.826 862.334 435.899 876.655 436.98 895.401L380.074 898.682C379.375 886.552 378.808 876.719 378.808 876.719L244.246 884.477C232.116 885.176 222.85 895.576 223.549 907.706L211.569 908.397ZM443.671 1011.46C444.752 1030.21 430.431 1046.28 411.684 1047.36L254.161 1056.44C235.414 1057.52 219.341 1043.2 218.26 1024.46L230.24 1023.77C230.94 1035.9 241.34 1045.16 253.47 1044.46L388.032 1036.7C388.032 1036.7 387.465 1026.87 386.766 1014.74L443.671 1011.46Z" fill="#D1D1D1"/>
</g>
<mask id="mask5_276_1358" style="mask-type:alpha" maskUnits="userSpaceOnUse" x="321" y="652" width="326" height="323">
<path d="M493.188 974.404C476.64 974.963 460.111 972.952 444.329 968.437C380.571 950.951 333.006 890.333 331.039 825.671C325.487 744.208 394.624 668.012 475.365 665.278C475.365 665.278 475.365 665.278 475.365 665.278C555.886 658.715 633.322 726.46 637.169 808.021C642.646 872.481 602.362 938.164 541.036 962.861C525.878 969.16 509.69 973.058 493.188 974.404C509.734 973.857 526.22 970.702 541.864 964.986C605.138 942.808 650.315 875.989 646.154 807.503C644.405 720.979 561.769 646.103 474.675 653.298C387.331 656.16 313.847 740.037 322.053 826.189C325.791 894.699 378.348 955.883 443.751 970.642C459.949 974.522 476.688 975.762 493.188 974.404Z" fill="#D1D1D1"/>
</mask>
<g mask="url(#mask5_276_1358)">
<path d="M389.695 868.98C405.133 868.09 418.37 879.884 419.26 895.322L422.974 959.744C423.864 975.182 412.07 988.419 396.632 989.309L318.914 993.79C303.476 994.68 290.239 982.886 289.349 967.448L285.635 903.026C284.745 887.588 296.538 874.351 311.977 873.461L389.695 868.98Z" fill="#D1D1D1"/>
<path d="M411.812 861.695C430.558 860.614 446.632 874.935 447.712 893.682L451.427 958.103C452.507 976.85 438.187 992.923 419.44 994.004L395.787 983.348C395.787 983.348 395.221 973.514 394.521 961.384L390.807 896.962C390.108 884.832 389.541 874.999 389.541 874.999L411.812 861.695ZM319.259 999.78C300.513 1000.86 284.44 986.54 283.359 967.793L279.645 903.371C278.564 884.625 292.885 868.552 311.631 867.471L312.322 879.451C300.192 880.15 290.925 890.551 291.625 902.681L295.339 967.102C296.038 979.233 306.439 988.499 318.569 987.8L319.259 999.78ZM279.645 903.371C278.564 884.625 292.885 868.552 311.631 867.471L411.812 861.695C430.558 860.614 446.632 874.935 447.712 893.682L390.807 896.962C390.108 884.832 389.541 874.999 389.541 874.999L312.322 879.451C300.192 880.15 290.925 890.551 291.625 902.681L279.645 903.371ZM451.427 958.103C452.507 976.85 438.187 992.923 419.44 994.004L319.259 999.78C300.513 1000.86 284.44 986.54 283.359 967.793L295.339 967.102C296.038 979.233 306.439 988.499 318.569 987.8L395.787 983.348C395.787 983.348 395.221 973.514 394.521 961.384L451.427 958.103Z" fill="#D1D1D1"/>
</g>
<defs>
<linearGradient id="paint0_linear_276_1358" x1="211.417" y1="268.58" x2="1119.81" y2="1138.45" gradientUnits="userSpaceOnUse">
<stop/>
<stop offset="1" stop-color="#323131"/>
</linearGradient>
</defs>
</svg>
