<svg width="303" height="227" viewBox="0 0 303 227" fill="none" xmlns="http://www.w3.org/2000/svg">
<mask id="path-1-inside-1_196_626" fill="white">
<path d="M0 1.22485H224.288V1.57701H224.64V13.045H224.992V13.3971L225.279 13.4814C226.361 13.822 227.337 14.2814 228.344 14.8058C228.562 14.9168 228.784 15.0278 229.006 15.1388L234.34 17.8067V18.1589L234.711 18.2086C235.319 18.3618 235.771 18.6182 236.31 18.9397L236.869 19.2728C237.336 19.5713 237.336 19.5713 237.688 19.9235L238.14 20.0881L238.568 20.2756L238.748 20.8039C239.276 21.0221 239.276 21.0221 239.804 21.156V21.5082H240.332V21.8642L240.807 21.9063C241.392 22.0402 241.392 22.0402 241.897 22.3809L242.272 22.7445V23.0967L243.156 23.2728L243.332 23.8048H243.86V24.157L244.564 24.3331V24.6852H245.092V25.0374L245.513 25.202C245.976 25.3895 245.976 25.3895 246.328 25.5656V25.9178H246.856V26.2737L247.74 26.6259V26.9781L248.134 27.1197C248.601 27.3226 248.949 27.5216 249.324 27.8584V28.2144L250.208 28.5666V28.9187L250.912 29.0948V29.447L251.234 29.6001C251.617 29.7991 251.617 29.7991 252.148 30.1513V30.5072L252.443 30.6374C252.933 30.9015 253.342 31.2192 253.778 31.5637L254.253 31.9388L254.617 32.268V32.624H254.969V32.9762H255.321V33.3283L255.65 33.4929L256.381 33.8565V34.2087L257.085 34.5609V34.9168H257.613C257.903 35.1924 257.903 35.1924 258.21 35.5637C258.776 36.2566 259.392 36.8767 260.031 37.5044C260.368 37.8336 260.704 38.1666 261.041 38.4996L261.386 38.8326C262.055 39.4987 262.637 40.18 263.188 40.9456C263.525 41.3858 263.919 41.757 264.313 42.1475C264.711 42.5992 265.09 43.0623 265.472 43.5255L265.794 43.9197C266.639 44.9532 267.447 46.0097 268.239 47.0853C268.56 47.5217 268.866 47.9389 269.249 48.3217V48.8499H269.605C269.903 49.2442 270.19 49.6499 270.462 50.0633L270.719 50.4422C270.902 50.714 271.082 50.982 271.262 51.2537C271.541 51.671 271.824 52.0882 272.104 52.5054C272.919 53.715 273.734 54.9284 274.468 56.1916C274.648 56.4939 274.836 56.7963 275.023 57.0949C276.152 58.8748 277.109 60.7313 278.065 62.6069L278.276 63.0165C278.926 64.2988 279.562 65.5811 280.143 66.8902C280.392 67.4414 280.645 67.9849 280.901 68.5284C281.272 69.3361 281.624 70.1552 281.949 70.9859C282.137 71.4682 282.34 71.9428 282.542 72.4174C283.377 74.4194 284.107 76.4519 284.769 78.5151C284.896 78.9897 284.896 78.9897 285.122 79.1888C285.125 79.5409 285.129 79.8931 285.122 80.2452H285.474L285.558 80.5629C285.741 81.2328 285.921 81.9026 286.105 82.5725C286.354 83.495 286.614 84.4137 286.882 85.3285C287.215 86.4768 287.498 87.6366 287.777 88.8003L287.907 89.3476C288.037 89.8988 288.167 90.45 288.294 91.0051L288.424 91.5754C288.776 93.1563 289.044 94.741 289.296 96.341C289.361 96.7659 289.43 97.1946 289.499 97.6195C290.337 102.886 290.444 108.123 290.444 113.443C290.444 114.041 290.444 114.642 290.444 115.242C290.46 118.764 290.417 122.247 290.058 125.754L290 126.32C289.22 133.75 287.448 140.896 285.122 147.978C285.003 148.341 284.884 148.709 284.766 149.076C284.303 150.504 283.824 151.912 283.224 153.29C283.009 153.78 282.814 154.278 282.619 154.776C282.179 155.909 281.678 157.015 281.119 158.094C280.928 158.477 280.763 158.871 280.625 159.277C280.354 160.058 279.94 160.755 279.531 161.467C279.328 161.861 279.206 162.186 279.125 162.615H278.773L278.712 163.001C278.306 164.747 277.093 166.397 276.183 167.92C275.877 168.441 275.578 168.965 275.291 169.497C274.924 170.167 274.507 170.799 274.071 171.426C273.845 171.775 273.657 172.123 273.481 172.494H273.129V173.023H272.777L272.701 173.356C272.601 173.731 272.601 173.731 272.425 174.083H272.073L272.008 174.397C271.889 174.802 271.744 175.059 271.503 175.403L271.262 175.756L271.002 176.119L270.738 176.502C270.118 177.386 269.49 178.263 268.847 179.136C268.572 179.514 268.304 179.901 268.04 180.288L267.665 180.785H267.313V181.314H266.957L266.429 182.37H266.077L265.954 182.745C265.675 183.365 265.277 183.828 264.829 184.334L264.301 184.946L264.034 185.252C263.682 185.666 263.341 186.091 263 186.515C261.332 188.563 259.457 190.431 257.59 192.295C257.215 192.67 256.84 193.046 256.465 193.421L255.405 194.481C254.639 195.243 253.844 195.955 253.029 196.659C252.814 196.85 252.596 197.038 252.382 197.229L251.762 197.773L251.444 198.052C250.882 198.542 250.404 198.902 249.68 199.128V199.48C249.42 199.71 249.42 199.71 249.083 199.943L248.75 200.181L248.444 200.364H248.092V200.716C247.725 201 247.35 201.271 246.967 201.532L246.646 201.758C246.367 201.945 246.083 202.125 245.8 202.301H245.448V202.657H244.916V203.009C244.557 203.27 244.185 203.515 243.807 203.748L243.125 204.173L242.781 204.387C242.146 204.785 241.522 205.203 240.898 205.616C240.508 205.83 240.508 205.83 239.98 205.83V206.182C239.574 206.47 239.574 206.47 239.1 206.711H238.568V207.067L238.178 207.277L237.654 207.561L237.141 207.84C236.808 208.024 236.479 208.219 236.157 208.422C235.748 208.651 235.748 208.651 235.22 208.651V209.007L234.868 209.176C233.992 209.605 233.131 210.045 232.281 210.527L231.853 210.768C231.573 210.929 231.294 211.09 231.015 211.254L230.62 211.48L230.268 211.683C229.932 211.828 229.932 211.828 229.224 211.828V212.181C226.591 213.547 226.591 213.547 225.168 213.769V214.121L224.816 214.473C224.758 214.971 224.758 214.971 224.762 215.561L224.754 216.253L224.751 217.004C224.747 217.26 224.743 217.517 224.739 217.769C224.731 218.443 224.728 219.117 224.72 219.79C224.712 220.87 224.701 221.949 224.689 223.028C224.685 223.404 224.682 223.783 224.678 224.158L224.67 224.85L224.666 225.463C224.64 225.938 224.64 225.938 224.464 226.29L156.225 226.466V226.646H151.741C144.237 226.65 136.733 226.65 129.229 226.65H128.85L116.315 226.653C112.017 226.653 107.72 226.657 103.423 226.657C98.3836 226.661 93.3479 226.661 88.3084 226.661H87.9372C85.9627 226.661 83.9844 226.661 82.0061 226.661C80.024 226.665 78.038 226.665 76.052 226.665C74.9768 226.665 73.9015 226.665 72.8225 226.665C71.8391 226.665 70.8556 226.665 69.8722 226.665C69.5164 226.665 69.1567 226.665 68.8008 226.665C68.3187 226.665 67.8365 226.665 67.3505 226.665L66.922 226.669C66.5967 226.665 66.2715 226.657 65.9462 226.646L65.7702 226.466C65.4258 226.451 65.0776 226.447 64.7332 226.447L64.0444 226.443L63.2791 226.447H62.4717C61.7332 226.447 60.9909 226.447 60.2485 226.447C59.4526 226.447 58.6529 226.447 57.8531 226.447C56.4718 226.447 55.0866 226.447 53.7014 226.451C51.7001 226.451 49.6988 226.451 47.6975 226.451C44.4527 226.451 41.2039 226.454 37.9591 226.454C34.806 226.454 31.6491 226.458 28.4961 226.458H24.9833C16.8903 226.462 8.79717 226.462 0.707906 226.466L0.528059 225.938H0V1.22485Z"/>
</mask>
<path d="M0 1.22485H224.288V1.57701H224.64V13.045H224.992V13.3971L225.279 13.4814C226.361 13.822 227.337 14.2814 228.344 14.8058C228.562 14.9168 228.784 15.0278 229.006 15.1388L234.34 17.8067V18.1589L234.711 18.2086C235.319 18.3618 235.771 18.6182 236.31 18.9397L236.869 19.2728C237.336 19.5713 237.336 19.5713 237.688 19.9235L238.14 20.0881L238.568 20.2756L238.748 20.8039C239.276 21.0221 239.276 21.0221 239.804 21.156V21.5082H240.332V21.8642L240.807 21.9063C241.392 22.0402 241.392 22.0402 241.897 22.3809L242.272 22.7445V23.0967L243.156 23.2728L243.332 23.8048H243.86V24.157L244.564 24.3331V24.6852H245.092V25.0374L245.513 25.202C245.976 25.3895 245.976 25.3895 246.328 25.5656V25.9178H246.856V26.2737L247.74 26.6259V26.9781L248.134 27.1197C248.601 27.3226 248.949 27.5216 249.324 27.8584V28.2144L250.208 28.5666V28.9187L250.912 29.0948V29.447L251.234 29.6001C251.617 29.7991 251.617 29.7991 252.148 30.1513V30.5072L252.443 30.6374C252.933 30.9015 253.342 31.2192 253.778 31.5637L254.253 31.9388L254.617 32.268V32.624H254.969V32.9762H255.321V33.3283L255.65 33.4929L256.381 33.8565V34.2087L257.085 34.5609V34.9168H257.613C257.903 35.1924 257.903 35.1924 258.21 35.5637C258.776 36.2566 259.392 36.8767 260.031 37.5044C260.368 37.8336 260.704 38.1666 261.041 38.4996L261.386 38.8326C262.055 39.4987 262.637 40.18 263.188 40.9456C263.525 41.3858 263.919 41.757 264.313 42.1475C264.711 42.5992 265.09 43.0623 265.472 43.5255L265.794 43.9197C266.639 44.9532 267.447 46.0097 268.239 47.0853C268.56 47.5217 268.866 47.9389 269.249 48.3217V48.8499H269.605C269.903 49.2442 270.19 49.6499 270.462 50.0633L270.719 50.4422C270.902 50.714 271.082 50.982 271.262 51.2537C271.541 51.671 271.824 52.0882 272.104 52.5054C272.919 53.715 273.734 54.9284 274.468 56.1916C274.648 56.4939 274.836 56.7963 275.023 57.0949C276.152 58.8748 277.109 60.7313 278.065 62.6069L278.276 63.0165C278.926 64.2988 279.562 65.5811 280.143 66.8902C280.392 67.4414 280.645 67.9849 280.901 68.5284C281.272 69.3361 281.624 70.1552 281.949 70.9859C282.137 71.4682 282.34 71.9428 282.542 72.4174C283.377 74.4194 284.107 76.4519 284.769 78.5151C284.896 78.9897 284.896 78.9897 285.122 79.1888C285.125 79.5409 285.129 79.8931 285.122 80.2452H285.474L285.558 80.5629C285.741 81.2328 285.921 81.9026 286.105 82.5725C286.354 83.495 286.614 84.4137 286.882 85.3285C287.215 86.4768 287.498 87.6366 287.777 88.8003L287.907 89.3476C288.037 89.8988 288.167 90.45 288.294 91.0051L288.424 91.5754C288.776 93.1563 289.044 94.741 289.296 96.341C289.361 96.7659 289.43 97.1946 289.499 97.6195C290.337 102.886 290.444 108.123 290.444 113.443C290.444 114.041 290.444 114.642 290.444 115.242C290.46 118.764 290.417 122.247 290.058 125.754L290 126.32C289.22 133.75 287.448 140.896 285.122 147.978C285.003 148.341 284.884 148.709 284.766 149.076C284.303 150.504 283.824 151.912 283.224 153.29C283.009 153.78 282.814 154.278 282.619 154.776C282.179 155.909 281.678 157.015 281.119 158.094C280.928 158.477 280.763 158.871 280.625 159.277C280.354 160.058 279.94 160.755 279.531 161.467C279.328 161.861 279.206 162.186 279.125 162.615H278.773L278.712 163.001C278.306 164.747 277.093 166.397 276.183 167.92C275.877 168.441 275.578 168.965 275.291 169.497C274.924 170.167 274.507 170.799 274.071 171.426C273.845 171.775 273.657 172.123 273.481 172.494H273.129V173.023H272.777L272.701 173.356C272.601 173.731 272.601 173.731 272.425 174.083H272.073L272.008 174.397C271.889 174.802 271.744 175.059 271.503 175.403L271.262 175.756L271.002 176.119L270.738 176.502C270.118 177.386 269.49 178.263 268.847 179.136C268.572 179.514 268.304 179.901 268.04 180.288L267.665 180.785H267.313V181.314H266.957L266.429 182.37H266.077L265.954 182.745C265.675 183.365 265.277 183.828 264.829 184.334L264.301 184.946L264.034 185.252C263.682 185.666 263.341 186.091 263 186.515C261.332 188.563 259.457 190.431 257.59 192.295C257.215 192.67 256.84 193.046 256.465 193.421L255.405 194.481C254.639 195.243 253.844 195.955 253.029 196.659C252.814 196.85 252.596 197.038 252.382 197.229L251.762 197.773L251.444 198.052C250.882 198.542 250.404 198.902 249.68 199.128V199.48C249.42 199.71 249.42 199.71 249.083 199.943L248.75 200.181L248.444 200.364H248.092V200.716C247.725 201 247.35 201.271 246.967 201.532L246.646 201.758C246.367 201.945 246.083 202.125 245.8 202.301H245.448V202.657H244.916V203.009C244.557 203.27 244.185 203.515 243.807 203.748L243.125 204.173L242.781 204.387C242.146 204.785 241.522 205.203 240.898 205.616C240.508 205.83 240.508 205.83 239.98 205.83V206.182C239.574 206.47 239.574 206.47 239.1 206.711H238.568V207.067L238.178 207.277L237.654 207.561L237.141 207.84C236.808 208.024 236.479 208.219 236.157 208.422C235.748 208.651 235.748 208.651 235.22 208.651V209.007L234.868 209.176C233.992 209.605 233.131 210.045 232.281 210.527L231.853 210.768C231.573 210.929 231.294 211.09 231.015 211.254L230.62 211.48L230.268 211.683C229.932 211.828 229.932 211.828 229.224 211.828V212.181C226.591 213.547 226.591 213.547 225.168 213.769V214.121L224.816 214.473C224.758 214.971 224.758 214.971 224.762 215.561L224.754 216.253L224.751 217.004C224.747 217.26 224.743 217.517 224.739 217.769C224.731 218.443 224.728 219.117 224.72 219.79C224.712 220.87 224.701 221.949 224.689 223.028C224.685 223.404 224.682 223.783 224.678 224.158L224.67 224.85L224.666 225.463C224.64 225.938 224.64 225.938 224.464 226.29L156.225 226.466V226.646H151.741C144.237 226.65 136.733 226.65 129.229 226.65H128.85L116.315 226.653C112.017 226.653 107.72 226.657 103.423 226.657C98.3836 226.661 93.3479 226.661 88.3084 226.661H87.9372C85.9627 226.661 83.9844 226.661 82.0061 226.661C80.024 226.665 78.038 226.665 76.052 226.665C74.9768 226.665 73.9015 226.665 72.8225 226.665C71.8391 226.665 70.8556 226.665 69.8722 226.665C69.5164 226.665 69.1567 226.665 68.8008 226.665C68.3187 226.665 67.8365 226.665 67.3505 226.665L66.922 226.669C66.5967 226.665 66.2715 226.657 65.9462 226.646L65.7702 226.466C65.4258 226.451 65.0776 226.447 64.7332 226.447L64.0444 226.443L63.2791 226.447H62.4717C61.7332 226.447 60.9909 226.447 60.2485 226.447C59.4526 226.447 58.6529 226.447 57.8531 226.447C56.4718 226.447 55.0866 226.447 53.7014 226.451C51.7001 226.451 49.6988 226.451 47.6975 226.451C44.4527 226.451 41.2039 226.454 37.9591 226.454C34.806 226.454 31.6491 226.458 28.4961 226.458H24.9833C16.8903 226.462 8.79717 226.462 0.707906 226.466L0.528059 225.938H0V1.22485Z" fill="#FDEBE6" stroke="black" stroke-width="2" mask="url(#path-1-inside-1_196_626)"/>
<mask id="path-2-inside-2_196_626" fill="white">
<path d="M0 1.22485H224.288V1.57701H224.64V13.045H224.992V13.3971L225.279 13.4814C226.361 13.822 227.337 14.2814 228.344 14.8058C228.562 14.9168 228.784 15.0278 229.006 15.1388L234.34 17.8067V18.1589L234.711 18.2086C235.319 18.3618 235.771 18.6182 236.31 18.9397L236.869 19.2728C237.336 19.5713 237.336 19.5713 237.688 19.9235L238.14 20.0881L238.568 20.2756L238.748 20.8039C239.276 21.0221 239.276 21.0221 239.804 21.156V21.5082H240.332V21.8642L240.807 21.9063C241.392 22.0402 241.392 22.0402 241.897 22.3809L242.272 22.7445V23.0967L243.156 23.2728L243.332 23.8048H243.86V24.157L244.564 24.3331V24.6852H245.092V25.0374L245.513 25.202C245.976 25.3895 245.976 25.3895 246.328 25.5656V25.9178H246.856V26.2737L247.74 26.6259V26.9781L248.134 27.1197C248.601 27.3226 248.949 27.5216 249.324 27.8584V28.2144L250.208 28.5666V28.9187L250.912 29.0948V29.447L251.234 29.6001C251.617 29.7991 251.617 29.7991 252.148 30.1513V30.5072L252.443 30.6374C252.933 30.9015 253.342 31.2192 253.778 31.5637L254.253 31.9388L254.617 32.268V32.624H254.969V32.9762H255.321V33.3283L255.65 33.4929L256.381 33.8565V34.2087L257.085 34.5609V34.9168H257.613C257.903 35.1924 257.903 35.1924 258.21 35.5637C258.776 36.2566 259.392 36.8767 260.031 37.5044C260.368 37.8336 260.704 38.1666 261.041 38.4996L261.386 38.8326C262.055 39.4987 262.637 40.18 263.188 40.9456C263.525 41.3858 263.919 41.757 264.313 42.1475C264.711 42.5992 265.09 43.0623 265.472 43.5255L265.794 43.9197C266.639 44.9532 267.447 46.0097 268.239 47.0853C268.56 47.5217 268.866 47.9389 269.249 48.3217V48.8499H269.605C269.903 49.2442 270.19 49.6499 270.462 50.0633L270.719 50.4422C270.902 50.714 271.082 50.982 271.262 51.2537C271.541 51.671 271.824 52.0882 272.104 52.5054C272.919 53.715 273.734 54.9284 274.468 56.1916C274.648 56.4939 274.836 56.7963 275.023 57.0949C276.152 58.8748 277.109 60.7313 278.065 62.6069L278.276 63.0165C278.926 64.2988 279.562 65.5811 280.143 66.8902C280.392 67.4414 280.645 67.9849 280.901 68.5284C281.272 69.3361 281.624 70.1552 281.949 70.9859C282.137 71.4682 282.34 71.9428 282.542 72.4174C283.377 74.4194 284.107 76.4519 284.769 78.5151C284.896 78.9897 284.896 78.9897 285.122 79.1888C285.125 79.5409 285.129 79.8931 285.122 80.2452H285.474L285.558 80.5629C285.741 81.2328 285.921 81.9026 286.105 82.5725C286.354 83.495 286.614 84.4137 286.882 85.3285C287.215 86.4768 287.498 87.6366 287.777 88.8003L287.907 89.3476C288.037 89.8988 288.167 90.45 288.294 91.0051L288.424 91.5754C288.776 93.1563 289.044 94.741 289.296 96.341C289.361 96.7659 289.43 97.1946 289.499 97.6195C290.337 102.886 290.444 108.123 290.444 113.443C290.444 114.041 290.444 114.642 290.444 115.242C290.46 118.764 290.417 122.247 290.058 125.754L290 126.32C289.22 133.75 287.448 140.896 285.122 147.978C285.003 148.341 284.884 148.709 284.766 149.076C284.303 150.504 283.824 151.912 283.224 153.29C283.009 153.78 282.814 154.278 282.619 154.776C282.179 155.909 281.678 157.015 281.119 158.094C280.928 158.477 280.763 158.871 280.625 159.277C280.354 160.058 279.94 160.755 279.531 161.467C279.328 161.861 279.206 162.186 279.125 162.615H278.773L278.712 163.001C278.306 164.747 277.093 166.397 276.183 167.92C275.877 168.441 275.578 168.965 275.291 169.497C274.924 170.167 274.507 170.799 274.071 171.426C273.845 171.775 273.657 172.123 273.481 172.494H273.129V173.023H272.777L272.701 173.356C272.601 173.731 272.601 173.731 272.425 174.083H272.073L272.008 174.397C271.889 174.802 271.744 175.059 271.503 175.403L271.262 175.756L271.002 176.119L270.738 176.502C270.118 177.386 269.49 178.263 268.847 179.136C268.572 179.514 268.304 179.901 268.04 180.288L267.665 180.785H267.313V181.314H266.957L266.429 182.37H266.077L265.954 182.745C265.675 183.365 265.277 183.828 264.829 184.334L264.301 184.946L264.034 185.252C263.682 185.666 263.341 186.091 263 186.515C261.332 188.563 259.457 190.431 257.59 192.295C257.215 192.67 256.84 193.046 256.465 193.421L255.405 194.481C254.639 195.243 253.844 195.955 253.029 196.659C252.814 196.85 252.596 197.038 252.382 197.229L251.762 197.773L251.444 198.052C250.882 198.542 250.404 198.902 249.68 199.128V199.48C249.42 199.71 249.42 199.71 249.083 199.943L248.75 200.181L248.444 200.364H248.092V200.716C247.725 201 247.35 201.271 246.967 201.532L246.646 201.758C246.367 201.945 246.083 202.125 245.8 202.301H245.448V202.657H244.916V203.009C244.557 203.27 244.185 203.515 243.807 203.748L243.125 204.173L242.781 204.387C242.146 204.785 241.522 205.203 240.898 205.616C240.508 205.83 240.508 205.83 239.98 205.83V206.182C239.574 206.47 239.574 206.47 239.1 206.711H238.568V207.067L238.178 207.277L237.654 207.561L237.141 207.84C236.808 208.024 236.479 208.219 236.157 208.422C235.748 208.651 235.748 208.651 235.22 208.651V209.007L234.868 209.176C233.992 209.605 233.131 210.045 232.281 210.527L231.853 210.768C231.573 210.929 231.294 211.09 231.015 211.254L230.62 211.48L230.268 211.683C229.932 211.828 229.932 211.828 229.224 211.828V212.181C226.591 213.547 226.591 213.547 225.168 213.769V214.121L224.816 214.473C224.758 214.971 224.758 214.971 224.762 215.561L224.754 216.253L224.751 217.004C224.747 217.26 224.743 217.517 224.739 217.769C224.731 218.443 224.728 219.117 224.72 219.79C224.712 220.87 224.701 221.949 224.689 223.028C224.685 223.404 224.682 223.783 224.678 224.158L224.67 224.85L224.666 225.463C224.64 225.938 224.64 225.938 224.464 226.29L156.225 226.466V226.646H151.741C144.237 226.65 136.733 226.65 129.229 226.65H128.85L116.315 226.653C112.017 226.653 107.72 226.657 103.423 226.657C98.3836 226.661 93.3479 226.661 88.3084 226.661H87.9372C85.9627 226.661 83.9844 226.661 82.0061 226.661C80.024 226.665 78.038 226.665 76.052 226.665C74.9768 226.665 73.9015 226.665 72.8225 226.665C71.8391 226.665 70.8556 226.665 69.8722 226.665C69.5164 226.665 69.1567 226.665 68.8008 226.665C68.3187 226.665 67.8365 226.665 67.3505 226.665L66.922 226.669C66.5967 226.665 66.2715 226.657 65.9462 226.646L65.7702 226.466C65.4258 226.451 65.0776 226.447 64.7332 226.447L64.0444 226.443L63.2791 226.447H62.4717C61.7332 226.447 60.9909 226.447 60.2485 226.447C59.4526 226.447 58.6529 226.447 57.8531 226.447C56.4718 226.447 55.0866 226.447 53.7014 226.451C51.7001 226.451 49.6988 226.451 47.6975 226.451C44.4527 226.451 41.2039 226.454 37.9591 226.454C34.806 226.454 31.6491 226.458 28.4961 226.458H24.9833C16.8903 226.462 8.79717 226.462 0.707906 226.466L0.528059 225.938H0V1.22485Z"/>
</mask>
<path d="M0 1.22485H224.288V1.57701H224.64V13.045H224.992V13.3971L225.279 13.4814C226.361 13.822 227.337 14.2814 228.344 14.8058C228.562 14.9168 228.784 15.0278 229.006 15.1388L234.34 17.8067V18.1589L234.711 18.2086C235.319 18.3618 235.771 18.6182 236.31 18.9397L236.869 19.2728C237.336 19.5713 237.336 19.5713 237.688 19.9235L238.14 20.0881L238.568 20.2756L238.748 20.8039C239.276 21.0221 239.276 21.0221 239.804 21.156V21.5082H240.332V21.8642L240.807 21.9063C241.392 22.0402 241.392 22.0402 241.897 22.3809L242.272 22.7445V23.0967L243.156 23.2728L243.332 23.8048H243.86V24.157L244.564 24.3331V24.6852H245.092V25.0374L245.513 25.202C245.976 25.3895 245.976 25.3895 246.328 25.5656V25.9178H246.856V26.2737L247.74 26.6259V26.9781L248.134 27.1197C248.601 27.3226 248.949 27.5216 249.324 27.8584V28.2144L250.208 28.5666V28.9187L250.912 29.0948V29.447L251.234 29.6001C251.617 29.7991 251.617 29.7991 252.148 30.1513V30.5072L252.443 30.6374C252.933 30.9015 253.342 31.2192 253.778 31.5637L254.253 31.9388L254.617 32.268V32.624H254.969V32.9762H255.321V33.3283L255.65 33.4929L256.381 33.8565V34.2087L257.085 34.5609V34.9168H257.613C257.903 35.1924 257.903 35.1924 258.21 35.5637C258.776 36.2566 259.392 36.8767 260.031 37.5044C260.368 37.8336 260.704 38.1666 261.041 38.4996L261.386 38.8326C262.055 39.4987 262.637 40.18 263.188 40.9456C263.525 41.3858 263.919 41.757 264.313 42.1475C264.711 42.5992 265.09 43.0623 265.472 43.5255L265.794 43.9197C266.639 44.9532 267.447 46.0097 268.239 47.0853C268.56 47.5217 268.866 47.9389 269.249 48.3217V48.8499H269.605C269.903 49.2442 270.19 49.6499 270.462 50.0633L270.719 50.4422C270.902 50.714 271.082 50.982 271.262 51.2537C271.541 51.671 271.824 52.0882 272.104 52.5054C272.919 53.715 273.734 54.9284 274.468 56.1916C274.648 56.4939 274.836 56.7963 275.023 57.0949C276.152 58.8748 277.109 60.7313 278.065 62.6069L278.276 63.0165C278.926 64.2988 279.562 65.5811 280.143 66.8902C280.392 67.4414 280.645 67.9849 280.901 68.5284C281.272 69.3361 281.624 70.1552 281.949 70.9859C282.137 71.4682 282.34 71.9428 282.542 72.4174C283.377 74.4194 284.107 76.4519 284.769 78.5151C284.896 78.9897 284.896 78.9897 285.122 79.1888C285.125 79.5409 285.129 79.8931 285.122 80.2452H285.474L285.558 80.5629C285.741 81.2328 285.921 81.9026 286.105 82.5725C286.354 83.495 286.614 84.4137 286.882 85.3285C287.215 86.4768 287.498 87.6366 287.777 88.8003L287.907 89.3476C288.037 89.8988 288.167 90.45 288.294 91.0051L288.424 91.5754C288.776 93.1563 289.044 94.741 289.296 96.341C289.361 96.7659 289.43 97.1946 289.499 97.6195C290.337 102.886 290.444 108.123 290.444 113.443C290.444 114.041 290.444 114.642 290.444 115.242C290.46 118.764 290.417 122.247 290.058 125.754L290 126.32C289.22 133.75 287.448 140.896 285.122 147.978C285.003 148.341 284.884 148.709 284.766 149.076C284.303 150.504 283.824 151.912 283.224 153.29C283.009 153.78 282.814 154.278 282.619 154.776C282.179 155.909 281.678 157.015 281.119 158.094C280.928 158.477 280.763 158.871 280.625 159.277C280.354 160.058 279.94 160.755 279.531 161.467C279.328 161.861 279.206 162.186 279.125 162.615H278.773L278.712 163.001C278.306 164.747 277.093 166.397 276.183 167.92C275.877 168.441 275.578 168.965 275.291 169.497C274.924 170.167 274.507 170.799 274.071 171.426C273.845 171.775 273.657 172.123 273.481 172.494H273.129V173.023H272.777L272.701 173.356C272.601 173.731 272.601 173.731 272.425 174.083H272.073L272.008 174.397C271.889 174.802 271.744 175.059 271.503 175.403L271.262 175.756L271.002 176.119L270.738 176.502C270.118 177.386 269.49 178.263 268.847 179.136C268.572 179.514 268.304 179.901 268.04 180.288L267.665 180.785H267.313V181.314H266.957L266.429 182.37H266.077L265.954 182.745C265.675 183.365 265.277 183.828 264.829 184.334L264.301 184.946L264.034 185.252C263.682 185.666 263.341 186.091 263 186.515C261.332 188.563 259.457 190.431 257.59 192.295C257.215 192.67 256.84 193.046 256.465 193.421L255.405 194.481C254.639 195.243 253.844 195.955 253.029 196.659C252.814 196.85 252.596 197.038 252.382 197.229L251.762 197.773L251.444 198.052C250.882 198.542 250.404 198.902 249.68 199.128V199.48C249.42 199.71 249.42 199.71 249.083 199.943L248.75 200.181L248.444 200.364H248.092V200.716C247.725 201 247.35 201.271 246.967 201.532L246.646 201.758C246.367 201.945 246.083 202.125 245.8 202.301H245.448V202.657H244.916V203.009C244.557 203.27 244.185 203.515 243.807 203.748L243.125 204.173L242.781 204.387C242.146 204.785 241.522 205.203 240.898 205.616C240.508 205.83 240.508 205.83 239.98 205.83V206.182C239.574 206.47 239.574 206.47 239.1 206.711H238.568V207.067L238.178 207.277L237.654 207.561L237.141 207.84C236.808 208.024 236.479 208.219 236.157 208.422C235.748 208.651 235.748 208.651 235.22 208.651V209.007L234.868 209.176C233.992 209.605 233.131 210.045 232.281 210.527L231.853 210.768C231.573 210.929 231.294 211.09 231.015 211.254L230.62 211.48L230.268 211.683C229.932 211.828 229.932 211.828 229.224 211.828V212.181C226.591 213.547 226.591 213.547 225.168 213.769V214.121L224.816 214.473C224.758 214.971 224.758 214.971 224.762 215.561L224.754 216.253L224.751 217.004C224.747 217.26 224.743 217.517 224.739 217.769C224.731 218.443 224.728 219.117 224.72 219.79C224.712 220.87 224.701 221.949 224.689 223.028C224.685 223.404 224.682 223.783 224.678 224.158L224.67 224.85L224.666 225.463C224.64 225.938 224.64 225.938 224.464 226.29L156.225 226.466V226.646H151.741C144.237 226.65 136.733 226.65 129.229 226.65H128.85L116.315 226.653C112.017 226.653 107.72 226.657 103.423 226.657C98.3836 226.661 93.3479 226.661 88.3084 226.661H87.9372C85.9627 226.661 83.9844 226.661 82.0061 226.661C80.024 226.665 78.038 226.665 76.052 226.665C74.9768 226.665 73.9015 226.665 72.8225 226.665C71.8391 226.665 70.8556 226.665 69.8722 226.665C69.5164 226.665 69.1567 226.665 68.8008 226.665C68.3187 226.665 67.8365 226.665 67.3505 226.665L66.922 226.669C66.5967 226.665 66.2715 226.657 65.9462 226.646L65.7702 226.466C65.4258 226.451 65.0776 226.447 64.7332 226.447L64.0444 226.443L63.2791 226.447H62.4717C61.7332 226.447 60.9909 226.447 60.2485 226.447C59.4526 226.447 58.6529 226.447 57.8531 226.447C56.4718 226.447 55.0866 226.447 53.7014 226.451C51.7001 226.451 49.6988 226.451 47.6975 226.451C44.4527 226.451 41.2039 226.454 37.9591 226.454C34.806 226.454 31.6491 226.458 28.4961 226.458H24.9833C16.8903 226.462 8.79717 226.462 0.707906 226.466L0.528059 225.938H0V1.22485Z" fill="#FDEBE6" stroke="black" stroke-width="2" mask="url(#path-2-inside-2_196_626)"/>
<mask id="path-3-inside-3_196_626" fill="white">
<path d="M225.016 13.2478C225.273 13.3321 225.525 13.4126 225.781 13.497L226.21 13.6388C226.657 13.796 227.074 13.9877 227.495 14.2062L227.946 14.44L228.367 14.6585C228.585 14.7697 228.807 14.8808 229.029 14.992L234.361 17.6639V18.0166L234.732 18.0664C235.34 18.2197 235.792 18.4766 236.331 18.7986L236.889 19.1321C237.356 19.4311 237.356 19.4311 237.708 19.7838L238.159 19.9486L238.588 20.1365L238.767 20.6655C239.295 20.884 239.295 20.884 239.823 21.0181V21.3708H240.351V21.7273L240.825 21.7695C241.411 21.9037 241.411 21.9037 241.915 22.2448L242.29 22.609V22.9617L243.174 23.138L243.35 23.6709H243.878V24.0235L244.581 24.1999V24.5526H245.109V24.9052L245.53 25.0701C245.993 25.2579 245.993 25.2579 246.345 25.4342V25.7869H246.873V26.1434L247.756 26.4961V26.8488L248.15 26.9906C248.617 27.1938 248.965 27.3931 249.34 27.7305V28.087L250.223 28.4396V28.7923L250.927 28.9687V29.3213L251.249 29.4747C251.631 29.674 251.631 29.674 252.163 30.0267V30.3832L252.457 30.5135C252.947 30.778 253.356 31.0962 253.792 31.4412L254.267 31.8169L254.63 32.1466V32.5031H254.982V32.8558H255.334V33.2084L255.663 33.3733L256.393 33.7374V34.0901L257.097 34.4428V34.7993H257.625C257.916 35.0753 257.916 35.0753 258.222 35.4471C258.788 36.141 259.404 36.762 260.042 37.3907C260.379 37.7204 260.716 38.0539 261.052 38.3874L261.396 38.7209C262.066 39.3879 262.647 40.0702 263.198 40.8369C263.535 41.2778 263.929 41.6496 264.323 42.0406C264.72 42.493 265.099 42.9568 265.482 43.4207L265.803 43.8155C266.648 44.8505 267.455 45.9085 268.247 46.9857C268.568 47.4227 268.874 47.8406 269.257 48.2239V48.7529H269.613C269.911 49.1478 270.198 49.5541 270.469 49.9681L270.726 50.3476C270.909 50.6198 271.089 50.8882 271.269 51.1603C271.548 51.5782 271.831 51.996 272.11 52.4139C272.925 53.6252 273.74 54.8404 274.474 56.1054C274.654 56.4083 274.841 56.7111 275.029 57.0101C276.157 58.7927 277.113 60.6519 278.07 62.5303L278.28 62.9404C278.93 64.2246 279.565 65.5088 280.147 66.8199C280.395 67.3719 280.648 67.9162 280.904 68.4606C281.275 69.2694 281.627 70.0898 281.952 70.9216C282.14 71.4046 282.342 71.88 282.545 72.3553C283.379 74.3602 284.109 76.3957 284.771 78.462C284.897 78.9373 284.897 78.9373 285.123 79.1366C285.127 79.4893 285.131 79.842 285.123 80.1947H285.475L285.559 80.5128L285.957 81.9849L286.106 82.5254C286.355 83.4492 286.615 84.3693 286.883 85.2854C287.215 86.4355 287.498 87.597 287.778 88.7624L287.908 89.3105C288.038 89.8626 288.168 90.4146 288.294 90.9704L288.424 91.5416C288.776 93.1248 289.044 94.7118 289.296 96.3142C289.361 96.7397 289.43 97.1691 289.499 97.5946C290.337 102.869 290.444 108.113 290.444 113.442C290.444 114.04 290.444 114.642 290.444 115.244C290.459 118.77 290.417 122.259 290.057 125.77L290 126.338C289.22 133.778 287.449 140.935 285.123 148.027C285.005 148.391 284.886 148.759 284.767 149.127C284.305 150.557 283.826 151.968 283.226 153.348C283.012 153.839 282.817 154.337 282.622 154.835C282.182 155.97 281.681 157.078 281.122 158.159C280.931 158.542 280.766 158.937 280.629 159.343C280.357 160.125 279.944 160.823 279.535 161.536C279.332 161.931 279.21 162.257 279.129 162.686H278.777L278.716 163.073C278.311 164.821 277.098 166.473 276.188 167.999C275.882 168.521 275.583 169.046 275.297 169.579C274.929 170.249 274.512 170.882 274.076 171.511C273.851 171.859 273.663 172.208 273.487 172.58H273.135V173.109H272.784L272.707 173.443C272.608 173.818 272.608 173.818 272.432 174.171H272.08L272.015 174.485C271.896 174.892 271.751 175.148 271.51 175.494L271.269 175.846L271.009 176.21L270.745 176.594C270.125 177.479 269.498 178.357 268.855 179.231C268.58 179.611 268.312 179.998 268.048 180.385L267.673 180.883H267.321V181.412H266.966L266.438 182.47H266.086L265.963 182.846C265.684 183.467 265.286 183.931 264.839 184.437L264.311 185.05L264.043 185.357C263.691 185.771 263.351 186.196 263.011 186.622C261.343 188.673 259.469 190.544 257.602 192.41C257.227 192.786 256.852 193.162 256.477 193.537L255.418 194.599C254.653 195.362 253.857 196.075 253.042 196.78C252.828 196.972 252.61 197.16 252.396 197.352L251.776 197.896L251.459 198.176C250.897 198.667 250.419 199.027 249.696 199.253V199.606C249.435 199.836 249.435 199.836 249.099 200.07L248.766 200.307L248.46 200.491H248.108V200.844C247.741 201.128 247.366 201.4 246.984 201.66L246.662 201.887C246.383 202.074 246.1 202.255 245.817 202.431H245.465V202.787H244.933V203.14C244.574 203.401 244.203 203.646 243.824 203.88L243.143 204.306L242.799 204.52C242.164 204.919 241.541 205.337 240.917 205.751C240.527 205.965 240.527 205.965 239.999 205.965V206.318C239.594 206.606 239.594 206.606 239.119 206.847H238.588V207.204L238.198 207.414L237.673 207.698L237.161 207.978C236.828 208.162 236.499 208.357 236.178 208.561C235.769 208.791 235.769 208.791 235.241 208.791V209.147L234.889 209.316C234.013 209.745 233.152 210.186 232.303 210.669L231.875 210.91C231.595 211.071 231.316 211.232 231.037 211.397L230.643 211.624L230.291 211.827C229.955 211.972 229.955 211.972 229.247 211.972V212.325C226.615 213.694 226.615 213.694 225.192 213.916V214.269H224.84C224.837 184.337 224.837 184.337 224.833 158.979V130.742C224.833 121.511 224.833 112.277 224.829 103.046C224.825 96.3104 224.825 89.5751 224.825 82.8397V69.1889C224.825 64.8801 224.825 60.5676 224.821 56.255C224.821 51.3022 224.821 46.3494 224.821 41.3928V41.0363C224.821 39.0621 224.821 37.0917 224.821 35.1175C224.818 33.3924 224.818 31.6674 224.821 29.9462C224.821 28.9648 224.821 27.9873 224.818 27.0059C224.818 22.4173 224.867 17.8326 225.016 13.2478Z"/>
</mask>
<path d="M225.016 13.2478C225.273 13.3321 225.525 13.4126 225.781 13.497L226.21 13.6388C226.657 13.796 227.074 13.9877 227.495 14.2062L227.946 14.44L228.367 14.6585C228.585 14.7697 228.807 14.8808 229.029 14.992L234.361 17.6639V18.0166L234.732 18.0664C235.34 18.2197 235.792 18.4766 236.331 18.7986L236.889 19.1321C237.356 19.4311 237.356 19.4311 237.708 19.7838L238.159 19.9486L238.588 20.1365L238.767 20.6655C239.295 20.884 239.295 20.884 239.823 21.0181V21.3708H240.351V21.7273L240.825 21.7695C241.411 21.9037 241.411 21.9037 241.915 22.2448L242.29 22.609V22.9617L243.174 23.138L243.35 23.6709H243.878V24.0235L244.581 24.1999V24.5526H245.109V24.9052L245.53 25.0701C245.993 25.2579 245.993 25.2579 246.345 25.4342V25.7869H246.873V26.1434L247.756 26.4961V26.8488L248.15 26.9906C248.617 27.1938 248.965 27.3931 249.34 27.7305V28.087L250.223 28.4396V28.7923L250.927 28.9687V29.3213L251.249 29.4747C251.631 29.674 251.631 29.674 252.163 30.0267V30.3832L252.457 30.5135C252.947 30.778 253.356 31.0962 253.792 31.4412L254.267 31.8169L254.63 32.1466V32.5031H254.982V32.8558H255.334V33.2084L255.663 33.3733L256.393 33.7374V34.0901L257.097 34.4428V34.7993H257.625C257.916 35.0753 257.916 35.0753 258.222 35.4471C258.788 36.141 259.404 36.762 260.042 37.3907C260.379 37.7204 260.716 38.0539 261.052 38.3874L261.396 38.7209C262.066 39.3879 262.647 40.0702 263.198 40.8369C263.535 41.2778 263.929 41.6496 264.323 42.0406C264.72 42.493 265.099 42.9568 265.482 43.4207L265.803 43.8155C266.648 44.8505 267.455 45.9085 268.247 46.9857C268.568 47.4227 268.874 47.8406 269.257 48.2239V48.7529H269.613C269.911 49.1478 270.198 49.5541 270.469 49.9681L270.726 50.3476C270.909 50.6198 271.089 50.8882 271.269 51.1603C271.548 51.5782 271.831 51.996 272.11 52.4139C272.925 53.6252 273.74 54.8404 274.474 56.1054C274.654 56.4083 274.841 56.7111 275.029 57.0101C276.157 58.7927 277.113 60.6519 278.07 62.5303L278.28 62.9404C278.93 64.2246 279.565 65.5088 280.147 66.8199C280.395 67.3719 280.648 67.9162 280.904 68.4606C281.275 69.2694 281.627 70.0898 281.952 70.9216C282.14 71.4046 282.342 71.88 282.545 72.3553C283.379 74.3602 284.109 76.3957 284.771 78.462C284.897 78.9373 284.897 78.9373 285.123 79.1366C285.127 79.4893 285.131 79.842 285.123 80.1947H285.475L285.559 80.5128L285.957 81.9849L286.106 82.5254C286.355 83.4492 286.615 84.3693 286.883 85.2854C287.215 86.4355 287.498 87.597 287.778 88.7624L287.908 89.3105C288.038 89.8626 288.168 90.4146 288.294 90.9704L288.424 91.5416C288.776 93.1248 289.044 94.7118 289.296 96.3142C289.361 96.7397 289.43 97.1691 289.499 97.5946C290.337 102.869 290.444 108.113 290.444 113.442C290.444 114.04 290.444 114.642 290.444 115.244C290.459 118.77 290.417 122.259 290.057 125.77L290 126.338C289.22 133.778 287.449 140.935 285.123 148.027C285.005 148.391 284.886 148.759 284.767 149.127C284.305 150.557 283.826 151.968 283.226 153.348C283.012 153.839 282.817 154.337 282.622 154.835C282.182 155.97 281.681 157.078 281.122 158.159C280.931 158.542 280.766 158.937 280.629 159.343C280.357 160.125 279.944 160.823 279.535 161.536C279.332 161.931 279.21 162.257 279.129 162.686H278.777L278.716 163.073C278.311 164.821 277.098 166.473 276.188 167.999C275.882 168.521 275.583 169.046 275.297 169.579C274.929 170.249 274.512 170.882 274.076 171.511C273.851 171.859 273.663 172.208 273.487 172.58H273.135V173.109H272.784L272.707 173.443C272.608 173.818 272.608 173.818 272.432 174.171H272.08L272.015 174.485C271.896 174.892 271.751 175.148 271.51 175.494L271.269 175.846L271.009 176.21L270.745 176.594C270.125 177.479 269.498 178.357 268.855 179.231C268.58 179.611 268.312 179.998 268.048 180.385L267.673 180.883H267.321V181.412H266.966L266.438 182.47H266.086L265.963 182.846C265.684 183.467 265.286 183.931 264.839 184.437L264.311 185.05L264.043 185.357C263.691 185.771 263.351 186.196 263.011 186.622C261.343 188.673 259.469 190.544 257.602 192.41C257.227 192.786 256.852 193.162 256.477 193.537L255.418 194.599C254.653 195.362 253.857 196.075 253.042 196.78C252.828 196.972 252.61 197.16 252.396 197.352L251.776 197.896L251.459 198.176C250.897 198.667 250.419 199.027 249.696 199.253V199.606C249.435 199.836 249.435 199.836 249.099 200.07L248.766 200.307L248.46 200.491H248.108V200.844C247.741 201.128 247.366 201.4 246.984 201.66L246.662 201.887C246.383 202.074 246.1 202.255 245.817 202.431H245.465V202.787H244.933V203.14C244.574 203.401 244.203 203.646 243.824 203.88L243.143 204.306L242.799 204.52C242.164 204.919 241.541 205.337 240.917 205.751C240.527 205.965 240.527 205.965 239.999 205.965V206.318C239.594 206.606 239.594 206.606 239.119 206.847H238.588V207.204L238.198 207.414L237.673 207.698L237.161 207.978C236.828 208.162 236.499 208.357 236.178 208.561C235.769 208.791 235.769 208.791 235.241 208.791V209.147L234.889 209.316C234.013 209.745 233.152 210.186 232.303 210.669L231.875 210.91C231.595 211.071 231.316 211.232 231.037 211.397L230.643 211.624L230.291 211.827C229.955 211.972 229.955 211.972 229.247 211.972V212.325C226.615 213.694 226.615 213.694 225.192 213.916V214.269H224.84C224.837 184.337 224.837 184.337 224.833 158.979V130.742C224.833 121.511 224.833 112.277 224.829 103.046C224.825 96.3104 224.825 89.5751 224.825 82.8397V69.1889C224.825 64.8801 224.825 60.5676 224.821 56.255C224.821 51.3022 224.821 46.3494 224.821 41.3928V41.0363C224.821 39.0621 224.821 37.0917 224.821 35.1175C224.818 33.3924 224.818 31.6674 224.821 29.9462C224.821 28.9648 224.821 27.9873 224.818 27.0059C224.818 22.4173 224.867 17.8326 225.016 13.2478Z" fill="#070706" stroke="black" stroke-width="2" mask="url(#path-3-inside-3_196_626)"/>
<mask id="path-4-inside-4_196_626" fill="white">
<path d="M266.416 48.1924H266.769C267.045 48.5409 267.313 48.901 267.566 49.2725L268.046 49.9581L268.295 50.3143C268.517 50.6361 268.748 50.954 268.978 51.2719C270.128 52.8538 271.202 54.4778 272.249 56.1325L272.483 56.504C274.393 59.5414 276.184 62.6669 277.753 65.892C277.975 66.3439 278.213 66.7921 278.455 67.2364C280.346 70.6606 281.711 74.3453 283.03 78.0185L283.256 78.6467C286.237 86.9775 288.043 95.6913 288.86 104.493L288.925 105.167C289.447 111.135 289.477 117.244 288.86 123.204L288.756 124.33C287.59 136.357 284.173 148.07 279.141 159.032L278.884 159.588C277.703 162.146 276.407 164.617 274.988 167.049C274.742 167.47 274.501 167.892 274.259 168.313C273.273 170.025 272.207 171.668 271.095 173.3C270.849 173.66 270.608 174.02 270.366 174.38C268.456 177.214 266.37 179.934 264.118 182.508L263.781 182.895C263.102 183.676 262.412 184.442 261.717 185.208C261.484 185.469 261.253 185.729 261.023 185.993C260.31 186.821 259.57 187.606 258.795 188.38L258.446 188.732C258.204 188.977 257.959 189.218 257.717 189.46C257.349 189.827 256.985 190.199 256.617 190.567C255.405 191.785 254.196 192.957 252.808 193.979L252.455 193.627L252.808 193.095C252.754 192.715 252.754 192.715 252.632 192.39L251.746 192.214C252.275 191.566 252.793 190.973 253.429 190.436C254.3 189.686 255.109 188.881 255.922 188.069C256.175 187.813 256.432 187.556 256.689 187.303C257.61 186.38 258.5 185.438 259.347 184.446C259.597 184.17 259.846 183.894 260.099 183.619C263.363 180.003 266.293 176.104 269.02 172.07C269.235 171.752 269.449 171.438 269.668 171.124C273.335 165.796 276.265 159.905 278.731 153.942C278.93 153.463 279.134 152.992 279.337 152.517C281.435 147.603 282.923 142.355 284.089 137.146L284.173 136.778C284.986 133.159 285.611 129.543 286.033 125.851L286.106 125.238C286.62 120.982 286.762 116.716 286.915 112.437H286.563L286.57 113.031C286.578 114.437 286.563 115.808 286.386 117.202C285.627 117.432 285.044 117.317 284.265 117.202L284.089 116.673L283.747 116.604L283.383 116.497L283.03 115.612C282.693 115.436 282.693 115.436 282.321 115.436L281.791 115.612V115.26L280.733 114.908L280.369 114.831C280.023 114.732 280.023 114.732 279.67 114.379L279.13 114.145L278.612 113.847C278.543 113.556 278.485 113.261 278.432 112.966C277.991 112.667 277.991 112.667 277.55 112.437V112.085H277.02L276.844 111.2L276.832 111.656C276.733 115.685 276.614 119.722 276.134 123.733H275.782C275.808 123.177 275.835 122.622 275.858 122.066L275.881 121.607C275.923 120.726 275.969 119.845 276.027 118.964C276.131 117.317 276.173 115.674 276.169 114.023V113.613C276.154 107.117 275.766 100.36 274.098 94.0635C273.983 93.6 273.906 93.1365 273.837 92.6693H273.484L273.308 93.0216L273.005 92.8838L272.591 92.6999L272.149 92.5046C271.889 92.3896 271.628 92.2786 271.363 92.1752C270.681 91.907 270.27 91.6083 269.775 91.0797C269.48 90.8997 269.185 90.7235 268.889 90.5511C267.969 89.9345 267.229 89.2603 266.519 88.41C266.224 88.0461 266.224 88.0461 265.764 87.6478C265.292 87.1231 265.085 86.6213 264.82 85.974C264.605 85.5182 264.302 85.2501 263.942 84.9015C263.762 84.4917 263.585 84.0818 263.413 83.6682L263.068 83.2583C262.649 82.7144 262.442 82.1935 262.201 81.5539C262.047 81.1517 261.89 80.7533 261.725 80.355L261.579 80.0026C261.484 79.7728 261.391 79.5468 261.296 79.317C260.13 76.4596 260.295 72.1851 260.628 69.1439C260.747 68.328 260.927 67.5275 261.115 66.7231L261.38 65.4209C261.56 64.5782 261.787 63.7662 262.043 62.9427C262.251 62.2188 262.396 61.4795 262.55 60.7403C262.83 59.4074 263.16 58.0821 263.482 56.7568C263.578 56.347 263.673 55.9333 263.766 55.5197C264.069 54.1906 264.479 53.0836 265.135 51.8886C265.457 51.1225 265.445 50.3909 265.472 49.5674C265.534 49.0733 265.534 49.0733 265.725 48.7324C265.963 48.4873 265.963 48.4873 266.416 48.1924Z"/>
</mask>
<path d="M266.416 48.1924H266.769C267.045 48.5409 267.313 48.901 267.566 49.2725L268.046 49.9581L268.295 50.3143C268.517 50.6361 268.748 50.954 268.978 51.2719C270.128 52.8538 271.202 54.4778 272.249 56.1325L272.483 56.504C274.393 59.5414 276.184 62.6669 277.753 65.892C277.975 66.3439 278.213 66.7921 278.455 67.2364C280.346 70.6606 281.711 74.3453 283.03 78.0185L283.256 78.6467C286.237 86.9775 288.043 95.6913 288.86 104.493L288.925 105.167C289.447 111.135 289.477 117.244 288.86 123.204L288.756 124.33C287.59 136.357 284.173 148.07 279.141 159.032L278.884 159.588C277.703 162.146 276.407 164.617 274.988 167.049C274.742 167.47 274.501 167.892 274.259 168.313C273.273 170.025 272.207 171.668 271.095 173.3C270.849 173.66 270.608 174.02 270.366 174.38C268.456 177.214 266.37 179.934 264.118 182.508L263.781 182.895C263.102 183.676 262.412 184.442 261.717 185.208C261.484 185.469 261.253 185.729 261.023 185.993C260.31 186.821 259.57 187.606 258.795 188.38L258.446 188.732C258.204 188.977 257.959 189.218 257.717 189.46C257.349 189.827 256.985 190.199 256.617 190.567C255.405 191.785 254.196 192.957 252.808 193.979L252.455 193.627L252.808 193.095C252.754 192.715 252.754 192.715 252.632 192.39L251.746 192.214C252.275 191.566 252.793 190.973 253.429 190.436C254.3 189.686 255.109 188.881 255.922 188.069C256.175 187.813 256.432 187.556 256.689 187.303C257.61 186.38 258.5 185.438 259.347 184.446C259.597 184.17 259.846 183.894 260.099 183.619C263.363 180.003 266.293 176.104 269.02 172.07C269.235 171.752 269.449 171.438 269.668 171.124C273.335 165.796 276.265 159.905 278.731 153.942C278.93 153.463 279.134 152.992 279.337 152.517C281.435 147.603 282.923 142.355 284.089 137.146L284.173 136.778C284.986 133.159 285.611 129.543 286.033 125.851L286.106 125.238C286.62 120.982 286.762 116.716 286.915 112.437H286.563L286.57 113.031C286.578 114.437 286.563 115.808 286.386 117.202C285.627 117.432 285.044 117.317 284.265 117.202L284.089 116.673L283.747 116.604L283.383 116.497L283.03 115.612C282.693 115.436 282.693 115.436 282.321 115.436L281.791 115.612V115.26L280.733 114.908L280.369 114.831C280.023 114.732 280.023 114.732 279.67 114.379L279.13 114.145L278.612 113.847C278.543 113.556 278.485 113.261 278.432 112.966C277.991 112.667 277.991 112.667 277.55 112.437V112.085H277.02L276.844 111.2L276.832 111.656C276.733 115.685 276.614 119.722 276.134 123.733H275.782C275.808 123.177 275.835 122.622 275.858 122.066L275.881 121.607C275.923 120.726 275.969 119.845 276.027 118.964C276.131 117.317 276.173 115.674 276.169 114.023V113.613C276.154 107.117 275.766 100.36 274.098 94.0635C273.983 93.6 273.906 93.1365 273.837 92.6693H273.484L273.308 93.0216L273.005 92.8838L272.591 92.6999L272.149 92.5046C271.889 92.3896 271.628 92.2786 271.363 92.1752C270.681 91.907 270.27 91.6083 269.775 91.0797C269.48 90.8997 269.185 90.7235 268.889 90.5511C267.969 89.9345 267.229 89.2603 266.519 88.41C266.224 88.0461 266.224 88.0461 265.764 87.6478C265.292 87.1231 265.085 86.6213 264.82 85.974C264.605 85.5182 264.302 85.2501 263.942 84.9015C263.762 84.4917 263.585 84.0818 263.413 83.6682L263.068 83.2583C262.649 82.7144 262.442 82.1935 262.201 81.5539C262.047 81.1517 261.89 80.7533 261.725 80.355L261.579 80.0026C261.484 79.7728 261.391 79.5468 261.296 79.317C260.13 76.4596 260.295 72.1851 260.628 69.1439C260.747 68.328 260.927 67.5275 261.115 66.7231L261.38 65.4209C261.56 64.5782 261.787 63.7662 262.043 62.9427C262.251 62.2188 262.396 61.4795 262.55 60.7403C262.83 59.4074 263.16 58.0821 263.482 56.7568C263.578 56.347 263.673 55.9333 263.766 55.5197C264.069 54.1906 264.479 53.0836 265.135 51.8886C265.457 51.1225 265.445 50.3909 265.472 49.5674C265.534 49.0733 265.534 49.0733 265.725 48.7324C265.963 48.4873 265.963 48.4873 266.416 48.1924Z" fill="black" stroke="black" stroke-width="2" mask="url(#path-4-inside-4_196_626)"/>
<path d="M281.085 74.3237C281.29 74.7042 281.445 75.0554 281.597 75.4761L281.6 75.4819L281.776 75.9497C281.982 76.5056 282.184 77.0651 282.378 77.6235L282.38 77.6304L282.622 78.2935C285.659 86.7477 287.533 95.5744 288.362 104.515V104.517L288.427 105.192C288.946 111.132 288.976 117.209 288.363 123.133L288.362 123.139L288.258 124.263C287.099 136.231 283.698 147.892 278.687 158.813L278.43 159.369C277.256 161.913 275.967 164.37 274.555 166.79V166.791C274.309 167.214 274.066 167.636 273.825 168.057C272.848 169.755 271.789 171.387 270.681 173.013C270.435 173.375 270.193 173.736 269.952 174.095C268.053 176.913 265.979 179.617 263.742 182.175V182.176L263.404 182.563L263.403 182.564C262.728 183.341 262.041 184.104 261.347 184.87L261.345 184.872C261.112 185.131 260.875 185.395 260.644 185.665C259.941 186.481 259.21 187.257 258.442 188.024L258.44 188.026L258.09 188.378L257.364 189.105C257.179 189.29 256.995 189.476 256.812 189.661C256.629 189.846 256.446 190.03 256.263 190.212L256.262 190.213C255.291 191.19 254.334 192.12 253.295 192.966C253.273 192.817 253.258 192.706 253.231 192.6C253.201 192.478 253.157 192.367 253.099 192.213L253.002 191.954L252.729 191.899L252.676 191.888C252.95 191.577 253.228 191.285 253.531 191.01L253.752 190.818L253.756 190.814C254.643 190.049 255.464 189.232 256.276 188.421L256.278 188.418C256.529 188.164 256.785 187.909 257.04 187.658L257.044 187.655C257.967 186.728 258.862 185.779 259.717 184.778L259.718 184.779C259.968 184.503 260.216 184.228 260.467 183.954L260.47 183.951C263.343 180.767 265.957 177.368 268.398 173.856L269.434 172.344L270.079 171.404L270.08 171.402C273.772 166.034 276.718 160.107 279.192 154.122L279.797 152.703C281.911 147.749 283.407 142.467 284.577 137.24L284.576 137.239L284.661 136.875V136.873C285.477 133.237 286.11 129.603 286.53 125.89L286.607 125.223V125.222C287.062 121.228 287.257 117.246 287.253 113.241L287.239 111.523L287.231 110.991V110.99C287.037 98.441 284.11 86.3319 279.806 74.6392C279.889 74.6177 279.966 74.5951 280.041 74.564C280.167 74.5111 280.282 74.4387 280.42 74.3521C280.59 74.2789 280.627 74.2658 280.663 74.2583C280.698 74.251 280.739 74.2479 280.888 74.2446L281.085 74.3237Z" fill="black" stroke="black"/>
<path d="M277.294 160.42L277.317 160.516L276.85 160.983L277.435 161.275C277.239 161.834 277.005 162.36 276.714 162.901L276.714 162.902L276.39 163.51L276.042 164.153L276.039 164.157L275.865 164.487C274.268 167.44 272.544 170.286 270.651 173.055L270.65 173.056C270.408 173.413 270.17 173.77 269.933 174.125C268.037 176.942 265.965 179.641 263.727 182.195V182.196L263.39 182.581L263.389 182.582C262.715 183.358 262.028 184.12 261.336 184.884L261.334 184.886C261.101 185.145 260.864 185.409 260.633 185.678C259.931 186.493 259.2 187.268 258.433 188.033L258.431 188.035L258.083 188.387L258.082 188.388C257.842 188.631 257.602 188.867 257.357 189.112C257.172 189.296 256.988 189.482 256.805 189.666C256.622 189.851 256.44 190.035 256.257 190.217L256.256 190.218C255.287 191.192 254.332 192.121 253.294 192.966C253.273 192.818 253.257 192.708 253.23 192.602C253.2 192.48 253.156 192.368 253.098 192.215L253.001 191.955L252.728 191.901L252.677 191.89C253.015 191.507 253.359 191.152 253.75 190.823L253.754 190.82C254.639 190.056 255.46 189.24 256.271 188.431L256.273 188.428C256.524 188.174 256.779 187.92 257.034 187.669L257.038 187.665C257.963 186.737 258.86 185.786 259.717 184.783C259.964 184.511 260.209 184.241 260.458 183.971L260.461 183.968C263.74 180.336 266.681 176.423 269.414 172.382C269.627 172.066 269.84 171.754 270.057 171.443L270.058 171.441C272.492 167.907 274.47 164.11 276.393 160.321L277.294 160.42Z" fill="black" stroke="black"/>
<mask id="path-7-inside-5_196_626" fill="white">
<path d="M255.162 127.098L255.503 127.271C255.399 128.433 255.199 129.531 254.929 130.664L254.817 131.134C254.599 132.063 254.317 132.973 253.965 133.861H253.624C253.939 132.401 254.284 130.953 254.628 129.505L254.762 128.945L254.884 128.437C254.984 127.993 255.077 127.545 255.162 127.098Z"/>
</mask>
<path d="M255.162 127.098L255.503 127.271C255.399 128.433 255.199 129.531 254.929 130.664L254.817 131.134C254.599 132.063 254.317 132.973 253.965 133.861H253.624C253.939 132.401 254.284 130.953 254.628 129.505L254.762 128.945L254.884 128.437C254.984 127.993 255.077 127.545 255.162 127.098Z" fill="black"/>
<path d="M255.162 127.098L255.615 126.206L254.429 125.604L254.18 126.911L255.162 127.098ZM255.503 127.271L256.499 127.36L256.559 126.685L255.956 126.379L255.503 127.271ZM254.929 130.664L253.956 130.431L253.955 130.434L254.929 130.664ZM254.817 131.134L253.844 130.904L253.844 130.905L254.817 131.134ZM253.965 133.861V134.861H254.644L254.895 134.23L253.965 133.861ZM253.624 133.861L252.647 133.65L252.385 134.861H253.624V133.861ZM254.628 129.505L253.656 129.274L253.656 129.274L254.628 129.505ZM254.762 128.945L253.79 128.71L253.789 128.713L254.762 128.945ZM254.884 128.437L255.856 128.671L255.858 128.664L255.86 128.657L254.884 128.437ZM255.162 127.098L254.709 127.989L255.05 128.162L255.503 127.271L255.956 126.379L255.615 126.206L255.162 127.098ZM255.503 127.271L254.507 127.182C254.408 128.285 254.218 129.334 253.956 130.431L254.929 130.664L255.901 130.896C256.18 129.729 256.39 128.581 256.499 127.36L255.503 127.271ZM254.929 130.664L253.955 130.434L253.844 130.904L254.817 131.134L255.791 131.364L255.902 130.894L254.929 130.664ZM254.817 131.134L253.844 130.905C253.636 131.789 253.369 132.653 253.036 133.492L253.965 133.861L254.895 134.23C255.266 133.294 255.562 132.337 255.791 131.363L254.817 131.134ZM253.965 133.861V132.861H253.624V133.861V134.861H253.965V133.861ZM253.624 133.861L254.602 134.072C254.914 132.624 255.256 131.186 255.601 129.737L254.628 129.505L253.656 129.274C253.311 130.72 252.964 132.179 252.647 133.65L253.624 133.861ZM254.628 129.505L255.601 129.737L255.735 129.176L254.762 128.945L253.789 128.713L253.656 129.274L254.628 129.505ZM254.762 128.945L255.734 129.179L255.856 128.671L254.884 128.437L253.912 128.203L253.79 128.71L254.762 128.945ZM254.884 128.437L255.86 128.657C255.962 128.201 256.057 127.743 256.144 127.285L255.162 127.098L254.18 126.911C254.096 127.348 254.006 127.784 253.909 128.217L254.884 128.437Z" fill="black" mask="url(#path-7-inside-5_196_626)"/>
<mask id="path-9-inside-6_196_626" fill="white">
<path d="M259.796 166.427H260.145C259.876 167.242 259.44 167.87 258.944 168.555L258.717 168.878C257.804 170.159 257.804 170.159 257.354 170.683H257.005C257.252 169.886 257.645 169.486 258.225 168.909C258.41 168.62 258.581 168.324 258.751 168.024C258.925 167.739 259.103 167.454 259.285 167.169L259.55 166.746L259.796 166.427ZM266.426 154.902H266.775C266.54 155.86 266.195 156.672 265.73 157.538L265.54 157.903C265.378 158.207 265.207 158.503 265.029 158.804L264.681 158.981C264.787 158.303 264.987 157.788 265.306 157.184C265.658 156.526 265.658 156.526 265.73 155.787H266.252L266.426 154.902Z"/>
</mask>
<path d="M259.796 166.427H260.145C259.876 167.242 259.44 167.87 258.944 168.555L258.717 168.878C257.804 170.159 257.804 170.159 257.354 170.683H257.005C257.252 169.886 257.645 169.486 258.225 168.909C258.41 168.62 258.581 168.324 258.751 168.024C258.925 167.739 259.103 167.454 259.285 167.169L259.55 166.746L259.796 166.427ZM266.426 154.902H266.775C266.54 155.86 266.195 156.672 265.73 157.538L265.54 157.903C265.378 158.207 265.207 158.503 265.029 158.804L264.681 158.981C264.787 158.303 264.987 157.788 265.306 157.184C265.658 156.526 265.658 156.526 265.73 155.787H266.252L266.426 154.902Z" fill="black"/>
<path d="M259.796 166.427V165.427H259.304L259.004 165.816L259.796 166.427ZM260.145 166.427L261.094 166.74L261.527 165.427H260.145V166.427ZM258.944 168.555L258.134 167.968L258.126 167.98L258.944 168.555ZM258.717 168.878L259.532 169.458L259.535 169.453L258.717 168.878ZM257.354 170.683V171.683H257.812L258.112 171.335L257.354 170.683ZM257.005 170.683L256.05 170.387L255.65 171.683H257.005V170.683ZM258.225 168.909L258.931 169.617L259.007 169.541L259.066 169.449L258.225 168.909ZM258.751 168.024L257.898 167.502L257.889 167.516L257.881 167.53L258.751 168.024ZM259.285 167.169L260.128 167.707L260.133 167.7L259.285 167.169ZM259.55 166.746L258.758 166.136L258.728 166.174L258.702 166.215L259.55 166.746ZM266.426 154.902V153.902H265.604L265.445 154.709L266.426 154.902ZM266.775 154.902L267.746 155.14L268.049 153.902H266.775V154.902ZM265.73 157.538L264.849 157.064L264.845 157.071L264.842 157.078L265.73 157.538ZM265.54 157.903L266.422 158.375L266.428 158.363L265.54 157.903ZM265.029 158.804L265.482 159.695L265.741 159.563L265.889 159.314L265.029 158.804ZM264.681 158.981L263.693 158.826L263.39 160.758L265.134 159.872L264.681 158.981ZM265.306 157.184L264.424 156.712L264.421 156.718L265.306 157.184ZM265.73 155.787V154.787H264.822L264.734 155.69L265.73 155.787ZM266.252 155.787V156.787H267.075L267.233 155.98L266.252 155.787ZM259.796 166.427V167.427H260.145V166.427V165.427H259.796V166.427ZM260.145 166.427L259.195 166.114C258.979 166.767 258.63 167.284 258.134 167.968L258.944 168.555L259.754 169.141C260.25 168.456 260.772 167.718 261.094 166.74L260.145 166.427ZM258.944 168.555L258.126 167.98L257.899 168.303L258.717 168.878L259.535 169.453L259.762 169.13L258.944 168.555ZM258.717 168.878L257.902 168.298C256.991 169.578 257.014 169.545 256.596 170.03L257.354 170.683L258.112 171.335C258.595 170.774 258.618 170.741 259.532 169.458L258.717 168.878ZM257.354 170.683V169.683H257.005V170.683V171.683H257.354V170.683ZM257.005 170.683L257.961 170.978C258.128 170.438 258.357 170.188 258.931 169.617L258.225 168.909L257.519 168.2C256.934 168.783 256.375 169.334 256.05 170.387L257.005 170.683ZM258.225 168.909L259.066 169.449C259.268 169.136 259.45 168.818 259.621 168.517L258.751 168.024L257.881 167.53C257.711 167.829 257.553 168.105 257.384 168.368L258.225 168.909ZM258.751 168.024L259.604 168.545C259.775 168.266 259.95 167.987 260.128 167.707L259.285 167.169L258.442 166.631C258.257 166.921 258.076 167.212 257.898 167.502L258.751 168.024ZM259.285 167.169L260.133 167.7L260.398 167.277L259.55 166.746L258.702 166.215L258.437 166.639L259.285 167.169ZM259.55 166.746L260.342 167.356L260.588 167.037L259.796 166.427L259.004 165.816L258.758 166.136L259.55 166.746ZM266.426 154.902V155.902H266.775V154.902V153.902H266.426V154.902ZM266.775 154.902L265.803 154.664C265.594 155.52 265.286 156.252 264.849 157.064L265.73 157.538L266.61 158.011C267.105 157.091 267.486 156.2 267.746 155.14L266.775 154.902ZM265.73 157.538L264.842 157.078L264.652 157.443L265.54 157.903L266.428 158.363L266.618 157.997L265.73 157.538ZM265.54 157.903L264.659 157.431C264.505 157.718 264.343 158.001 264.169 158.294L265.029 158.804L265.889 159.314C266.071 159.006 266.25 158.697 266.422 158.375L265.54 157.903ZM265.029 158.804L264.576 157.912L264.228 158.089L264.681 158.981L265.134 159.872L265.482 159.695L265.029 158.804ZM264.681 158.981L265.669 159.135C265.753 158.595 265.908 158.185 266.19 157.649L265.306 157.184L264.421 156.718C264.067 157.39 263.82 158.012 263.693 158.826L264.681 158.981ZM265.306 157.184L266.187 157.655C266.345 157.361 266.491 157.097 266.58 156.806C266.668 156.515 266.693 156.215 266.725 155.884L265.73 155.787L264.734 155.69C264.695 156.098 264.683 156.167 264.666 156.225C264.648 156.283 264.618 156.349 264.424 156.712L265.306 157.184ZM265.73 155.787V156.787H266.252V155.787V154.787H265.73V155.787ZM266.252 155.787L267.233 155.98L267.408 155.095L266.426 154.902L265.445 154.709L265.271 155.594L266.252 155.787Z" fill="black" mask="url(#path-9-inside-6_196_626)"/>
<mask id="path-11-inside-7_196_626" fill="white">
<path d="M254.869 141.752L255.224 141.927C254.881 143.019 254.468 144.058 253.979 145.096H253.624C253.99 143.959 254.41 142.855 254.869 141.752ZM263.039 161.282L263.394 161.633C263.197 161.985 263 162.332 262.804 162.679L262.472 163.267L262.149 163.745L261.617 163.92C261.86 163.271 262.16 162.699 262.526 162.107L262.815 161.637L263.039 161.282Z"/>
</mask>
<path d="M254.869 141.752L255.224 141.927C254.881 143.019 254.468 144.058 253.979 145.096H253.624C253.99 143.959 254.41 142.855 254.869 141.752ZM263.039 161.282L263.394 161.633C263.197 161.985 263 162.332 262.804 162.679L262.472 163.267L262.149 163.745L261.617 163.92C261.86 163.271 262.16 162.699 262.526 162.107L262.815 161.637L263.039 161.282Z" fill="black"/>
<path d="M254.869 141.752L255.313 140.856L254.356 140.381L253.946 141.368L254.869 141.752ZM255.224 141.927L256.178 142.227L256.434 141.411L255.667 141.031L255.224 141.927ZM253.979 145.096V146.096H254.613L254.883 145.523L253.979 145.096ZM253.624 145.096L252.672 144.79L252.252 146.096H253.624V145.096ZM263.039 161.282L263.743 160.572L262.857 159.694L262.193 160.749L263.039 161.282ZM263.394 161.633L264.266 162.122L264.637 161.458L264.097 160.923L263.394 161.633ZM262.804 162.679L261.933 162.187L261.933 162.188L262.804 162.679ZM262.472 163.267L263.3 163.829L263.323 163.795L263.344 163.758L262.472 163.267ZM262.149 163.745L262.462 164.694L262.785 164.588L262.976 164.306L262.149 163.745ZM261.617 163.92L260.68 163.57L259.949 165.524L261.931 164.87L261.617 163.92ZM262.526 162.107L263.377 162.633L263.378 162.631L262.526 162.107ZM262.815 161.637L261.969 161.104L261.964 161.113L262.815 161.637ZM254.869 141.752L254.425 142.648L254.78 142.823L255.224 141.927L255.667 141.031L255.313 140.856L254.869 141.752ZM255.224 141.927L254.27 141.628C253.941 142.673 253.546 143.669 253.074 144.67L253.979 145.096L254.883 145.523C255.391 144.447 255.82 143.366 256.178 142.227L255.224 141.927ZM253.979 145.096V144.096H253.624V145.096V146.096H253.979V145.096ZM253.624 145.096L254.576 145.403C254.932 144.298 255.341 143.221 255.792 142.135L254.869 141.752L253.946 141.368C253.479 142.49 253.049 143.62 252.672 144.79L253.624 145.096ZM263.039 161.282L262.335 161.992L262.69 162.344L263.394 161.633L264.097 160.923L263.743 160.572L263.039 161.282ZM263.394 161.633L262.521 161.145C262.326 161.494 262.13 161.839 261.933 162.187L262.804 162.679L263.674 163.172C263.871 162.825 264.068 162.475 264.266 162.122L263.394 161.633ZM262.804 162.679L261.933 162.188L261.601 162.776L262.472 163.267L263.344 163.758L263.675 163.17L262.804 162.679ZM262.472 163.267L261.645 162.706L261.321 163.183L262.149 163.745L262.976 164.306L263.3 163.829L262.472 163.267ZM262.149 163.745L261.835 162.795L261.303 162.971L261.617 163.92L261.931 164.87L262.462 164.694L262.149 163.745ZM261.617 163.92L262.554 164.271C262.768 163.698 263.035 163.185 263.377 162.633L262.526 162.107L261.676 161.581C261.285 162.212 260.952 162.844 260.68 163.57L261.617 163.92ZM262.526 162.107L263.378 162.631L263.667 162.161L262.815 161.637L261.964 161.113L261.675 161.583L262.526 162.107ZM262.815 161.637L263.662 162.17L263.885 161.815L263.039 161.282L262.193 160.749L261.969 161.104L262.815 161.637Z" fill="black" mask="url(#path-11-inside-7_196_626)"/>
<mask id="path-13-inside-8_196_626" fill="white">
<path d="M253.249 145.508L253.625 145.683C253.232 147.053 253.232 147.053 252.816 147.56C252.591 147.765 252.358 147.952 252.122 148.138C252.42 147.225 252.824 146.372 253.249 145.508Z"/>
</mask>
<path d="M253.249 145.508L253.625 145.683C253.232 147.053 253.232 147.053 252.816 147.56C252.591 147.765 252.358 147.952 252.122 148.138C252.42 147.225 252.824 146.372 253.249 145.508Z" fill="black"/>
<path d="M253.249 145.508L253.671 144.602L252.783 144.188L252.351 145.067L253.249 145.508ZM253.625 145.683L254.586 145.958L254.821 145.137L254.047 144.777L253.625 145.683ZM252.816 147.56L253.491 148.297L253.543 148.25L253.588 148.195L252.816 147.56ZM252.122 148.138L251.171 147.828L250.147 150.966L252.74 148.924L252.122 148.138ZM253.249 145.508L252.826 146.414L253.202 146.59L253.625 145.683L254.047 144.777L253.671 144.602L253.249 145.508ZM253.625 145.683L252.663 145.408C252.457 146.129 252.38 146.39 252.311 146.55C252.273 146.638 252.257 146.665 252.044 146.924L252.816 147.56L253.588 148.195C253.791 147.948 253.984 147.722 254.148 147.341C254.281 147.032 254.4 146.607 254.586 145.958L253.625 145.683ZM252.816 147.56L252.141 146.822C251.946 147.001 251.738 147.167 251.503 147.353L252.122 148.138L252.74 148.924C252.979 148.736 253.237 148.53 253.491 148.297L252.816 147.56ZM252.122 148.138L253.072 148.448C253.346 147.608 253.722 146.811 254.146 145.949L253.249 145.508L252.351 145.067C251.926 145.933 251.493 146.841 251.171 147.828L252.122 148.138Z" fill="black" mask="url(#path-13-inside-8_196_626)"/>
<path d="M32.018 130.639H24.578C23.97 130.639 23.522 130.511 23.234 130.255C22.978 129.967 22.85 129.519 22.85 128.911V97.8069C22.85 97.1989 22.978 96.7669 23.234 96.5109C23.522 96.2229 23.97 96.0789 24.578 96.0789H39.266C43.618 96.0789 46.594 96.9429 48.194 98.6709C49.794 100.399 50.594 102.655 50.594 105.439V111.583C50.594 114.367 49.794 116.623 48.194 118.351C46.594 120.079 43.618 120.943 39.266 120.943H33.746V128.911C33.746 129.519 33.602 129.967 33.314 130.255C33.058 130.511 32.626 130.639 32.018 130.639ZM33.65 105.055V112.303H37.97C38.898 112.303 39.506 112.063 39.794 111.583C40.082 111.103 40.226 110.559 40.226 109.951V107.407C40.226 106.799 40.082 106.255 39.794 105.775C39.506 105.295 38.898 105.055 37.97 105.055H33.65ZM84.8488 121.567C84.8488 123.039 84.6248 124.383 84.1768 125.599C83.7608 126.783 82.9928 127.807 81.8728 128.671C80.7848 129.503 79.2648 130.159 77.3128 130.639C75.3928 131.119 72.9448 131.359 69.9688 131.359C66.9928 131.359 64.5288 131.119 62.5768 130.639C60.6248 130.159 59.0888 129.503 57.9688 128.671C56.8808 127.807 56.1128 126.783 55.6648 125.599C55.2488 124.383 55.0408 123.039 55.0408 121.567V105.199C55.0408 103.727 55.2488 102.399 55.6648 101.215C56.1128 99.9989 56.8808 98.9589 57.9688 98.0949C59.0888 97.2309 60.6248 96.5589 62.5768 96.0789C64.5288 95.5989 66.9928 95.3589 69.9688 95.3589C72.9448 95.3589 75.3928 95.5989 77.3128 96.0789C79.2648 96.5589 80.7848 97.2309 81.8728 98.0949C82.9928 98.9589 83.7608 99.9989 84.1768 101.215C84.6248 102.399 84.8488 103.727 84.8488 105.199V121.567ZM65.9368 119.839C65.9368 120.479 66.1768 121.023 66.6568 121.471C67.1368 121.887 68.2408 122.095 69.9688 122.095C71.6968 122.095 72.8008 121.887 73.2808 121.471C73.7608 121.023 74.0008 120.479 74.0008 119.839V106.927C74.0008 106.319 73.7608 105.807 73.2808 105.391C72.8008 104.943 71.6968 104.719 69.9688 104.719C68.2408 104.719 67.1368 104.943 66.6568 105.391C66.1768 105.807 65.9368 106.319 65.9368 106.927V119.839ZM100.127 130.639H92.6874C92.0794 130.639 91.6314 130.511 91.3434 130.255C91.0874 129.967 90.9594 129.519 90.9594 128.911V97.8069C90.9594 97.1989 91.0874 96.7669 91.3434 96.5109C91.6314 96.2229 92.0794 96.0789 92.6874 96.0789H107.375C111.727 96.0789 114.703 96.9429 116.303 98.6709C117.903 100.399 118.703 102.655 118.703 105.439V111.583C118.703 114.367 117.903 116.623 116.303 118.351C114.703 120.079 111.727 120.943 107.375 120.943H101.855V128.911C101.855 129.519 101.711 129.967 101.423 130.255C101.167 130.511 100.735 130.639 100.127 130.639ZM101.759 105.055V112.303H106.079C107.007 112.303 107.615 112.063 107.903 111.583C108.191 111.103 108.335 110.559 108.335 109.951V107.407C108.335 106.799 108.191 106.255 107.903 105.775C107.615 105.295 107.007 105.055 106.079 105.055H101.759Z" fill="#ED3B02"/>
<mask id="mask0_196_626" style="mask-type:alpha" maskUnits="userSpaceOnUse" x="110" y="27" width="165" height="165">
<path d="M257.509 63.24C261.941 70.1043 265.269 77.5805 267.358 85.3423C276.081 116.532 262.818 151.188 236.984 168.16C205.157 190.752 157.416 181.936 135.905 150.418C112.962 119.928 119.939 71.8833 151.554 48.9943C175.921 29.9764 213.001 28.5415 239.738 46.8164C246.419 51.2866 252.431 56.8385 257.509 63.24C253.082 56.3732 247.539 50.1738 241.091 44.9807C215.44 23.7122 174.783 21.6209 146.31 41.6797C109.379 65.4512 99.1588 121.704 126.152 157.41C151.302 194.438 207.858 202.819 242.228 175.474C270.366 154.948 281.438 115.772 269.53 84.6512C266.682 76.877 262.591 69.637 257.509 63.24Z" fill="#D1D1D1"/>
</mask>
<g mask="url(#mask0_196_626)">
<path d="M249.156 145.693C240.146 133.125 243.03 115.633 255.598 106.623L258.383 104.627C270.951 95.6166 288.443 98.5008 297.453 111.069L303.276 119.19C312.286 131.758 309.401 149.251 296.833 158.261L294.049 160.257C281.481 169.267 263.988 166.383 254.978 153.815L249.156 145.693Z" fill="#D1D1D1"/>
<path d="M231.17 130.903C220.229 115.642 223.732 94.401 238.993 83.4602L241.777 81.4639C257.039 70.5232 278.279 74.0255 289.22 89.2866L292.868 114.971C292.868 114.971 284.863 120.71 274.988 127.789L272.204 129.786C262.329 136.865 254.324 142.604 254.324 142.604L231.17 130.903ZM308.152 115.694C319.093 130.955 315.59 152.196 300.329 163.137L297.545 165.133C282.284 176.074 261.043 172.572 250.102 157.311L259.855 150.319C266.934 160.194 280.678 162.46 290.553 155.381L293.337 153.384C303.212 146.305 305.479 132.561 298.399 122.686L308.152 115.694ZM297.545 165.133C282.284 176.074 261.043 172.572 250.102 157.311L231.17 130.903C220.229 115.642 223.732 94.401 238.993 83.4602L272.204 129.786C262.329 136.865 254.324 142.604 254.324 142.604L259.855 150.319C266.934 160.194 280.678 162.46 290.553 155.381L297.545 165.133ZM241.777 81.4639C257.039 70.5232 278.279 74.0255 289.22 89.2866L308.152 115.694C319.093 130.955 315.59 152.196 300.329 163.137L293.337 153.384C303.212 146.305 305.479 132.561 298.399 122.686L292.868 114.971C292.868 114.971 284.863 120.71 274.988 127.789L241.777 81.4639Z" fill="#D1D1D1"/>
</g>
<mask id="mask1_196_626" style="mask-type:alpha" maskUnits="userSpaceOnUse" x="135" y="46" width="128" height="128">
<path d="M249.228 74.2269C252.546 79.5385 255.005 85.2915 256.516 91.2343C262.824 115.128 252.41 141.139 232.895 153.72C208.819 170.466 173.29 163.663 157.243 140.171C140.146 117.432 145.11 81.5993 168.699 64.1737C186.879 49.7313 214.857 48.2195 235.46 61.8644C240.604 65.203 245.263 69.3791 249.228 74.2269C245.914 68.9137 241.724 64.0903 236.813 60.0286C217.296 43.3902 185.741 41.3758 163.455 56.8591C134.55 75.1672 126.344 119.208 147.49 147.163C167.176 176.165 211.52 182.532 238.139 161.035C259.958 144.899 268.181 114.368 258.689 90.5432C256.419 84.5881 253.196 79.0712 249.228 74.2269Z" fill="#D1D1D1"/>
</mask>
<g mask="url(#mask1_196_626)">
<path d="M243.595 138.438C236.273 128.224 238.617 114.009 248.83 106.686C259.044 99.3642 273.26 101.708 280.582 111.922L283.512 116.009C290.834 126.223 288.49 140.438 278.277 147.761C268.063 155.083 253.847 152.739 246.525 142.525L243.595 138.438Z" fill="#D1D1D1"/>
<path d="M225.609 123.648C216.356 110.741 219.318 92.7768 232.225 83.5238C245.132 74.2708 263.096 77.2328 272.349 90.1397L283.512 116.009C283.651 116.203 283.787 116.399 283.92 116.598L265.436 129.849L246.951 143.101C246.806 142.911 246.664 142.719 246.525 142.525L225.609 123.648ZM288.388 112.513C297.641 125.42 294.679 143.384 281.772 152.637C268.866 161.89 250.902 158.928 241.649 146.021L251.401 139.029C256.793 146.55 267.26 148.276 274.781 142.884C282.301 137.493 284.027 127.025 278.636 119.505L288.388 112.513ZM281.772 152.637C268.866 161.89 250.902 158.928 241.649 146.021L225.609 123.648C216.356 110.741 219.318 92.7768 232.225 83.5238L265.436 129.849C257.915 135.241 251.819 139.611 251.819 139.611L251.401 139.029C256.793 146.55 267.26 148.276 274.781 142.884L281.772 152.637ZM232.225 83.5238C245.132 74.2708 263.096 77.2328 272.349 90.1397L288.388 112.513C297.641 125.42 294.679 143.384 281.772 152.637L274.781 142.884C282.301 137.493 284.027 127.025 278.636 119.505L279.053 120.087C279.053 120.087 272.956 124.458 265.436 129.849L232.225 83.5238Z" fill="#D1D1D1"/>
</g>
<mask id="mask2_196_626" style="mask-type:alpha" maskUnits="userSpaceOnUse" x="160" y="65" width="92" height="93">
<path d="M241.653 85.7998C243.877 89.5866 245.484 93.6476 246.427 97.804C250.362 114.533 242.747 132.055 229.438 140.325C212.973 151.329 189.435 146.503 178.753 130.893C167.399 115.765 170.385 91.9241 186.092 79.8634C198.197 69.914 217.237 68.3268 231.817 77.425C235.45 79.6526 238.781 82.4775 241.653 85.7998C239.432 82.0121 236.57 78.5398 233.169 75.5892C219.676 63.4975 197.059 61.5585 180.849 72.5489C159.825 85.492 153.596 117.541 169 137.885C183.322 159.005 215.674 163.395 234.681 147.64C250.294 135.816 255.719 113.773 248.599 97.1129C246.897 92.9441 244.527 89.1192 241.653 85.7998Z" fill="#D1D1D1"/>
</mask>
<g mask="url(#mask2_196_626)">
<path d="M237.712 130.73C232.589 123.583 234.229 113.636 241.376 108.512C248.522 103.389 258.469 105.029 263.593 112.176L265.643 115.035C270.767 122.182 269.127 132.129 261.98 137.253C254.833 142.376 244.886 140.736 239.762 133.589L237.712 130.73Z" fill="#D1D1D1"/>
<path d="M219.726 115.939C212.672 106.099 214.93 92.4039 224.77 85.3496L224.77 85.3496C234.61 78.2953 248.305 80.5535 255.36 90.3934L265.643 115.035C267.529 117.666 268.568 120.809 268.623 124.045L257.981 131.675L247.338 139.305L247.338 139.304C244.291 138.213 241.648 136.22 239.762 133.589L219.726 115.939ZM270.519 111.54C277.574 121.379 275.316 135.075 265.476 142.129L265.476 142.129C255.636 149.183 241.94 146.925 234.886 137.085L244.639 130.094C247.832 134.547 254.03 135.569 258.484 132.376C262.938 129.184 263.96 122.985 260.767 118.531L270.519 111.54ZM265.476 142.129C255.636 149.183 241.94 146.925 234.886 137.085L219.726 115.939C212.672 106.099 214.93 92.4039 224.77 85.3496L257.981 131.675C253.527 134.868 249.917 137.456 249.917 137.456L244.639 130.094C247.832 134.547 254.03 135.569 258.484 132.376L265.476 142.129ZM224.77 85.3496C234.61 78.2953 248.305 80.5535 255.36 90.3934L270.519 111.54C277.574 121.379 275.316 135.075 265.476 142.129L258.484 132.376C262.938 129.184 263.96 122.985 260.767 118.531L266.045 125.894C266.045 125.894 262.435 128.482 257.981 131.675L224.77 85.3496Z" fill="#D1D1D1"/>
</g>
</svg>
