<svg width="306" height="226" viewBox="0 0 306 226" fill="none" xmlns="http://www.w3.org/2000/svg">
<path d="M0 0H224.288V0.352154H224.64V11.8201H224.992V12.1723L225.279 12.2565C226.362 12.5972 227.337 13.0565 228.344 13.5809C228.562 13.6919 228.784 13.8029 229.006 13.9139L234.34 16.5819V16.934L234.711 16.9838C235.319 17.1369 235.771 17.3934 236.31 17.7149L236.869 18.0479C237.336 18.3465 237.336 18.3465 237.688 18.6986L238.14 18.8632L238.568 19.0508L238.748 19.579C239.276 19.7972 239.276 19.7972 239.804 19.9312V20.2833H240.332V20.6393L240.807 20.6814C241.392 20.8154 241.392 20.8154 241.897 21.1561L242.272 21.5197V21.8718L243.156 22.0479L243.332 22.58H243.86V22.9321L244.564 23.1082V23.4604H245.092V23.8125L245.513 23.9771C245.976 24.1647 245.976 24.1647 246.328 24.3408V24.6929H246.856V25.0489L247.74 25.401V25.7532L248.134 25.8948C248.601 26.0977 248.949 26.2967 249.324 26.6336V26.9896L250.208 27.3417V27.6939L250.912 27.87V28.2221L251.234 28.3752C251.617 28.5743 251.617 28.5743 252.148 28.9264V29.2824L252.443 29.4125C252.933 29.6767 253.342 29.9944 253.778 30.3389L254.253 30.714L254.617 31.0432V31.3992H254.969V31.7513H255.321V32.1035L255.65 32.2681L256.381 32.6317V32.9838L257.085 33.336V33.692H257.613C257.903 33.9676 257.903 33.9676 258.21 34.3389C258.776 35.0317 259.392 35.6518 260.031 36.2796C260.368 36.6087 260.705 36.9418 261.041 37.2748L261.386 37.6078C262.055 38.2738 262.637 38.9552 263.188 39.7207C263.525 40.1609 263.919 40.5322 264.313 40.9226C264.711 41.3743 265.09 41.8375 265.472 42.3006L265.794 42.6949C266.639 43.7284 267.447 44.7848 268.239 45.8604C268.56 46.2968 268.866 46.714 269.249 47.0968V47.625H269.605C269.903 48.0193 270.19 48.425 270.462 48.8384L270.719 49.2174C270.902 49.4892 271.082 49.7571 271.262 50.0289C271.541 50.4461 271.824 50.8633 272.104 51.2806C272.919 52.4901 273.734 53.7035 274.468 54.9667C274.648 55.2691 274.836 55.5715 275.023 55.8701C276.152 57.65 277.109 59.5064 278.065 61.382L278.276 61.7916C278.926 63.0739 279.562 64.3562 280.143 65.6653C280.392 66.2165 280.644 66.76 280.901 67.3036C281.272 68.1112 281.624 68.9304 281.949 69.761C282.137 70.2433 282.34 70.7179 282.542 71.1926C283.377 73.1945 284.107 75.2271 284.769 77.2902C284.896 77.7649 284.896 77.7649 285.122 77.9639C285.125 78.3161 285.129 78.6682 285.122 79.0204H285.474L285.558 79.3381C285.741 80.0079 285.921 80.6778 286.105 81.3476C286.354 82.2701 286.614 83.1888 286.882 84.1036C287.215 85.252 287.498 86.4118 287.777 87.5754L287.907 88.1228C288.037 88.674 288.167 89.2252 288.294 89.7802L288.424 90.3505C288.776 91.9314 289.044 93.5161 289.296 95.1161C289.361 95.541 289.43 95.9697 289.499 96.3946C290.337 101.662 290.444 106.898 290.444 112.219C290.444 112.816 290.444 113.417 290.444 114.018C290.459 117.539 290.417 121.022 290.058 124.529L290 125.095C289.22 132.525 287.448 139.671 285.122 146.753C285.003 147.116 284.884 147.484 284.766 147.851C284.303 149.279 283.824 150.688 283.224 152.066C283.009 152.556 282.814 153.053 282.619 153.551C282.179 154.684 281.678 155.79 281.119 156.869C280.928 157.252 280.763 157.646 280.625 158.052C280.354 158.833 279.94 159.53 279.531 160.242C279.328 160.636 279.206 160.961 279.125 161.39H278.773L278.712 161.777C278.306 163.522 277.093 165.172 276.183 166.695C275.877 167.216 275.578 167.74 275.291 168.272C274.924 168.942 274.507 169.574 274.071 170.202C273.845 170.55 273.657 170.898 273.481 171.269H273.129V171.798H272.777L272.701 172.131C272.601 172.506 272.601 172.506 272.425 172.858H272.073L272.008 173.172C271.889 173.578 271.744 173.834 271.503 174.179L271.262 174.531L271.002 174.894L270.738 175.277C270.118 176.161 269.49 177.038 268.847 177.911C268.572 178.29 268.304 178.676 268.04 179.063L267.665 179.56H267.313V180.089H266.957L266.429 181.145H266.077L265.954 181.52C265.675 182.14 265.277 182.604 264.829 183.109L264.301 183.721L264.034 184.027C263.682 184.441 263.341 184.866 263 185.291C261.332 187.338 259.457 189.206 257.59 191.071C257.215 191.446 256.84 191.821 256.465 192.196L255.405 193.256C254.639 194.018 253.844 194.73 253.029 195.434C252.814 195.626 252.596 195.813 252.382 196.005L251.762 196.548L251.444 196.827C250.882 197.317 250.404 197.677 249.68 197.903V198.255C249.42 198.485 249.42 198.485 249.083 198.718L248.75 198.956L248.444 199.139H248.092V199.492C247.725 199.775 247.35 200.047 246.967 200.307L246.646 200.533C246.367 200.72 246.083 200.9 245.8 201.076H245.448V201.432H244.916V201.784C244.557 202.045 244.185 202.29 243.807 202.523L243.125 202.948L242.781 203.162C242.146 203.561 241.522 203.978 240.898 204.391C240.508 204.605 240.508 204.606 239.98 204.606V204.958C239.574 205.245 239.574 205.245 239.1 205.486H238.568V205.842L238.178 206.052L237.654 206.336L237.141 206.615C236.808 206.799 236.479 206.994 236.157 207.197C235.748 207.427 235.748 207.427 235.22 207.427V207.783L234.868 207.951C233.992 208.38 233.131 208.82 232.281 209.302L231.853 209.543C231.573 209.704 231.294 209.865 231.015 210.029L230.62 210.255L230.268 210.458C229.932 210.604 229.932 210.604 229.224 210.604V210.956C226.591 212.322 226.591 212.322 225.168 212.544V212.896L224.816 213.249C224.758 213.746 224.758 213.746 224.762 214.336L224.754 215.028L224.751 215.779C224.747 216.035 224.743 216.292 224.739 216.544C224.731 217.218 224.728 217.892 224.72 218.565C224.712 219.645 224.701 220.724 224.689 221.804C224.685 222.179 224.682 222.558 224.678 222.933L224.67 223.626L224.666 224.238C224.64 224.713 224.64 224.713 224.464 225.065L156.225 225.241V225.421H151.741C144.237 225.425 136.733 225.425 129.229 225.425H128.85L116.315 225.429C112.017 225.429 107.72 225.432 103.423 225.432C98.3836 225.436 93.3479 225.436 88.3084 225.436H87.9372C85.9627 225.436 83.9844 225.436 82.0061 225.436C80.024 225.44 78.038 225.44 76.052 225.44C74.9768 225.44 73.9015 225.44 72.8225 225.44C71.8391 225.44 70.8556 225.44 69.8722 225.44C69.5164 225.44 69.1567 225.44 68.8008 225.44C68.3187 225.44 67.8365 225.44 67.3505 225.44L66.922 225.444C66.5967 225.44 66.2715 225.432 65.9462 225.421L65.7702 225.241C65.4258 225.226 65.0776 225.222 64.7332 225.222L64.0444 225.218L63.2791 225.222H62.4717C61.7332 225.222 60.9909 225.222 60.2485 225.222C59.4526 225.222 58.6529 225.222 57.8531 225.222C56.4718 225.222 55.0866 225.222 53.7014 225.226C51.7001 225.226 49.6988 225.226 47.6975 225.226C44.4527 225.226 41.2039 225.229 37.9591 225.229C34.806 225.229 31.6491 225.233 28.4961 225.233H24.9833C16.8903 225.237 8.79717 225.237 0.707906 225.241L0.528059 224.713H0V0Z" fill="#ED3B02"/>
<path d="M0 0H224.288V0.352154H224.64V11.8201H224.992V12.1723L225.279 12.2565C226.362 12.5972 227.337 13.0565 228.344 13.5809C228.562 13.6919 228.784 13.8029 229.006 13.9139L234.34 16.5819V16.934L234.711 16.9838C235.319 17.1369 235.771 17.3934 236.31 17.7149L236.869 18.0479C237.336 18.3465 237.336 18.3465 237.688 18.6986L238.14 18.8632L238.568 19.0508L238.748 19.579C239.276 19.7972 239.276 19.7972 239.804 19.9312V20.2833H240.332V20.6393L240.807 20.6814C241.392 20.8154 241.392 20.8154 241.897 21.1561L242.272 21.5197V21.8718L243.156 22.0479L243.332 22.58H243.86V22.9321L244.564 23.1082V23.4604H245.092V23.8125L245.513 23.9771C245.976 24.1647 245.976 24.1647 246.328 24.3408V24.6929H246.856V25.0489L247.74 25.401V25.7532L248.134 25.8948C248.601 26.0977 248.949 26.2967 249.324 26.6336V26.9896L250.208 27.3417V27.6939L250.912 27.87V28.2221L251.234 28.3752C251.617 28.5743 251.617 28.5743 252.148 28.9264V29.2824L252.443 29.4125C252.933 29.6767 253.342 29.9944 253.778 30.3389L254.253 30.714L254.617 31.0432V31.3992H254.969V31.7513H255.321V32.1035L255.65 32.2681L256.381 32.6317V32.9838L257.085 33.336V33.692H257.613C257.903 33.9676 257.903 33.9676 258.21 34.3389C258.776 35.0317 259.392 35.6518 260.031 36.2796C260.368 36.6087 260.705 36.9418 261.041 37.2748L261.386 37.6078C262.055 38.2738 262.637 38.9552 263.188 39.7207C263.525 40.1609 263.919 40.5322 264.313 40.9226C264.711 41.3743 265.09 41.8375 265.472 42.3006L265.794 42.6949C266.639 43.7284 267.447 44.7848 268.239 45.8604C268.56 46.2968 268.866 46.714 269.249 47.0968V47.625H269.605C269.903 48.0193 270.19 48.425 270.462 48.8384L270.719 49.2174C270.902 49.4892 271.082 49.7571 271.262 50.0289C271.541 50.4461 271.824 50.8633 272.104 51.2806C272.919 52.4901 273.734 53.7035 274.468 54.9667C274.648 55.2691 274.836 55.5715 275.023 55.8701C276.152 57.65 277.109 59.5064 278.065 61.382L278.276 61.7916C278.926 63.0739 279.562 64.3562 280.143 65.6653C280.392 66.2165 280.644 66.76 280.901 67.3036C281.272 68.1112 281.624 68.9304 281.949 69.761C282.137 70.2433 282.34 70.7179 282.542 71.1926C283.377 73.1945 284.107 75.2271 284.769 77.2902C284.896 77.7649 284.896 77.7649 285.122 77.9639C285.125 78.3161 285.129 78.6682 285.122 79.0204H285.474L285.558 79.3381C285.741 80.0079 285.921 80.6778 286.105 81.3476C286.354 82.2701 286.614 83.1888 286.882 84.1036C287.215 85.252 287.498 86.4118 287.777 87.5754L287.907 88.1228C288.037 88.674 288.167 89.2252 288.294 89.7802L288.424 90.3505C288.776 91.9314 289.044 93.5161 289.296 95.1161C289.361 95.541 289.43 95.9697 289.499 96.3946C290.337 101.662 290.444 106.898 290.444 112.219C290.444 112.816 290.444 113.417 290.444 114.018C290.459 117.539 290.417 121.022 290.058 124.529L290 125.095C289.22 132.525 287.448 139.671 285.122 146.753C285.003 147.116 284.884 147.484 284.766 147.851C284.303 149.279 283.824 150.688 283.224 152.066C283.009 152.556 282.814 153.053 282.619 153.551C282.179 154.684 281.678 155.79 281.119 156.869C280.928 157.252 280.763 157.646 280.625 158.052C280.354 158.833 279.94 159.53 279.531 160.242C279.328 160.636 279.206 160.961 279.125 161.39H278.773L278.712 161.777C278.306 163.522 277.093 165.172 276.183 166.695C275.877 167.216 275.578 167.74 275.291 168.272C274.924 168.942 274.507 169.574 274.071 170.202C273.845 170.55 273.657 170.898 273.481 171.269H273.129V171.798H272.777L272.701 172.131C272.601 172.506 272.601 172.506 272.425 172.858H272.073L272.008 173.172C271.889 173.578 271.744 173.834 271.503 174.179L271.262 174.531L271.002 174.894L270.738 175.277C270.118 176.161 269.49 177.038 268.847 177.911C268.572 178.29 268.304 178.676 268.04 179.063L267.665 179.56H267.313V180.089H266.957L266.429 181.145H266.077L265.954 181.52C265.675 182.14 265.277 182.604 264.829 183.109L264.301 183.721L264.034 184.027C263.682 184.441 263.341 184.866 263 185.291C261.332 187.338 259.457 189.206 257.59 191.071C257.215 191.446 256.84 191.821 256.465 192.196L255.405 193.256C254.639 194.018 253.844 194.73 253.029 195.434C252.814 195.626 252.596 195.813 252.382 196.005L251.762 196.548L251.444 196.827C250.882 197.317 250.404 197.677 249.68 197.903V198.255C249.42 198.485 249.42 198.485 249.083 198.718L248.75 198.956L248.444 199.139H248.092V199.492C247.725 199.775 247.35 200.047 246.967 200.307L246.646 200.533C246.367 200.72 246.083 200.9 245.8 201.076H245.448V201.432H244.916V201.784C244.557 202.045 244.185 202.29 243.807 202.523L243.125 202.948L242.781 203.162C242.146 203.561 241.522 203.978 240.898 204.391C240.508 204.605 240.508 204.606 239.98 204.606V204.958C239.574 205.245 239.574 205.245 239.1 205.486H238.568V205.842L238.178 206.052L237.654 206.336L237.141 206.615C236.808 206.799 236.479 206.994 236.157 207.197C235.748 207.427 235.748 207.427 235.22 207.427V207.783L234.868 207.951C233.992 208.38 233.131 208.82 232.281 209.302L231.853 209.543C231.573 209.704 231.294 209.865 231.015 210.029L230.62 210.255L230.268 210.458C229.932 210.604 229.932 210.604 229.224 210.604V210.956C226.591 212.322 226.591 212.322 225.168 212.544V212.896L224.816 213.249C224.758 213.746 224.758 213.746 224.762 214.336L224.754 215.028L224.751 215.779C224.747 216.035 224.743 216.292 224.739 216.544C224.731 217.218 224.728 217.892 224.72 218.565C224.712 219.645 224.701 220.724 224.689 221.804C224.685 222.179 224.682 222.558 224.678 222.933L224.67 223.626L224.666 224.238C224.64 224.713 224.64 224.713 224.464 225.065L156.225 225.241V225.421H151.741C144.237 225.425 136.733 225.425 129.229 225.425H128.85L116.315 225.429C112.017 225.429 107.72 225.432 103.423 225.432C98.3836 225.436 93.3479 225.436 88.3084 225.436H87.9372C85.9627 225.436 83.9844 225.436 82.0061 225.436C80.024 225.44 78.038 225.44 76.052 225.44C74.9768 225.44 73.9015 225.44 72.8225 225.44C71.8391 225.44 70.8556 225.44 69.8722 225.44C69.5164 225.44 69.1567 225.44 68.8008 225.44C68.3187 225.44 67.8365 225.44 67.3505 225.44L66.922 225.444C66.5967 225.44 66.2715 225.432 65.9462 225.421L65.7702 225.241C65.4258 225.226 65.0776 225.222 64.7332 225.222L64.0444 225.218L63.2791 225.222H62.4717C61.7332 225.222 60.9909 225.222 60.2485 225.222C59.4526 225.222 58.6529 225.222 57.8531 225.222C56.4718 225.222 55.0866 225.222 53.7014 225.226C51.7001 225.226 49.6988 225.226 47.6975 225.226C44.4527 225.226 41.2039 225.229 37.9591 225.229C34.806 225.229 31.6491 225.233 28.4961 225.233H24.9833C16.8903 225.237 8.79717 225.237 0.707906 225.241L0.528059 224.713H0V0Z" fill="#ED3B02"/>
<path d="M225.016 12.0229C225.273 12.1073 225.525 12.1878 225.781 12.2721L226.21 12.414C226.657 12.5711 227.074 12.7628 227.495 12.9813L227.946 13.2151L228.367 13.4336C228.585 13.5448 228.807 13.656 229.029 13.7672L234.361 16.4391V16.7917L234.732 16.8416C235.34 16.9949 235.792 17.2517 236.331 17.5737L236.889 17.9073C237.356 18.2063 237.356 18.2063 237.708 18.5589L238.159 18.7238L238.588 18.9116L238.767 19.4406C239.295 19.6591 239.295 19.6591 239.823 19.7933V20.146H240.351V20.5025L240.825 20.5446C241.411 20.6788 241.411 20.6788 241.915 21.02L242.29 21.3842V21.7368L243.174 21.9132L243.35 22.446H243.878V22.7987L244.581 22.975V23.3277H245.109V23.6804L245.53 23.8452C245.993 24.0331 245.993 24.0331 246.345 24.2094V24.5621H246.873V24.9186L247.756 25.2713V25.6239L248.15 25.7658C248.617 25.9689 248.965 26.1683 249.34 26.5056V26.8621L250.223 27.2148V27.5675L250.927 27.7438V28.0965L251.249 28.2498C251.631 28.4492 251.631 28.4492 252.163 28.8018V29.1583L252.457 29.2887C252.947 29.5532 253.356 29.8714 253.792 30.2164L254.267 30.592L254.63 30.9217V31.2782H254.982V31.6309H255.334V31.9836L255.663 32.1484L256.393 32.5126V32.8653L257.097 33.2179V33.5744H257.625C257.916 33.8504 257.916 33.8504 258.222 34.2223C258.788 34.9161 259.404 35.5372 260.042 36.1658C260.379 36.4955 260.716 36.829 261.052 37.1625L261.396 37.496C262.066 38.163 262.647 38.8454 263.198 39.6121C263.535 40.0529 263.929 40.4248 264.323 40.8158C264.72 41.2681 265.099 41.732 265.482 42.1958L265.803 42.5906C266.648 43.6257 267.455 44.6837 268.247 45.7609C268.568 46.1979 268.874 46.6157 269.257 46.9991V47.5281H269.613C269.911 47.9229 270.198 48.3293 270.469 48.7433L270.726 49.1228C270.909 49.395 271.089 49.6633 271.269 49.9355C271.548 50.3533 271.831 50.7712 272.11 51.189C272.925 52.4004 273.74 53.6156 274.474 54.8806C274.654 55.1834 274.841 55.4863 275.029 55.7853C276.157 57.5678 277.113 59.427 278.07 61.3054L278.28 61.7156C278.93 62.9998 279.565 64.284 280.147 65.595C280.395 66.147 280.648 66.6914 280.904 67.2357C281.275 68.0446 281.627 68.8649 281.952 69.6968C282.14 70.1798 282.342 70.6551 282.545 71.1305C283.379 73.1353 284.109 75.1709 284.771 77.2371C284.897 77.7125 284.897 77.7125 285.123 77.9118C285.127 78.2645 285.131 78.6171 285.123 78.9698H285.475L285.559 79.288L285.957 80.76L286.106 81.3005C286.355 82.2244 286.615 83.1444 286.883 84.0606C287.215 85.2106 287.498 86.3721 287.778 87.5375L287.908 88.0857C288.038 88.6377 288.168 89.1897 288.294 89.7456L288.424 90.3167C288.776 91.8999 289.044 93.487 289.296 95.0893C289.361 95.5149 289.43 95.9442 289.499 96.3697C290.337 101.644 290.444 106.889 290.444 112.217C290.444 112.815 290.444 113.417 290.444 114.019C290.459 117.546 290.417 121.034 290.057 124.545L290 125.113C289.22 132.553 287.449 139.71 285.123 146.802C285.005 147.166 284.886 147.534 284.767 147.902C284.305 149.332 283.826 150.743 283.226 152.123C283.012 152.614 282.817 153.112 282.622 153.61C282.182 154.745 281.681 155.853 281.122 156.934C280.931 157.317 280.766 157.712 280.629 158.118C280.357 158.9 279.944 159.598 279.535 160.311C279.332 160.706 279.21 161.032 279.129 161.461H278.777L278.716 161.848C278.311 163.596 277.098 165.249 276.188 166.774C275.882 167.296 275.583 167.821 275.297 168.354C274.929 169.025 274.512 169.657 274.076 170.286C273.851 170.635 273.663 170.983 273.487 171.355H273.135V171.884H272.784L272.707 172.218C272.608 172.593 272.608 172.593 272.432 172.946H272.08L272.015 173.26C271.896 173.667 271.751 173.924 271.51 174.269L271.269 174.621L271.009 174.986L270.745 175.369C270.125 176.254 269.498 177.132 268.855 178.006C268.58 178.386 268.312 178.773 268.048 179.16L267.673 179.658H267.321V180.187H266.966L266.438 181.245H266.086L265.963 181.621C265.684 182.242 265.286 182.706 264.839 183.212L264.311 183.825L264.043 184.132C263.691 184.546 263.351 184.972 263.011 185.397C261.343 187.448 259.469 189.319 257.602 191.186C257.227 191.561 256.852 191.937 256.477 192.313L255.418 193.374C254.653 194.137 253.857 194.85 253.042 195.556C252.828 195.747 252.61 195.935 252.396 196.127L251.776 196.671L251.459 196.951C250.897 197.442 250.419 197.802 249.696 198.028V198.381C249.435 198.611 249.435 198.611 249.099 198.845L248.766 199.082L248.46 199.266H248.108V199.619C247.741 199.903 247.366 200.175 246.984 200.436L246.662 200.662C246.383 200.85 246.1 201.03 245.817 201.206H245.465V201.563H244.933V201.915C244.574 202.176 244.203 202.421 243.824 202.655L243.143 203.081L242.799 203.295C242.164 203.694 241.541 204.112 240.917 204.526C240.527 204.741 240.527 204.741 239.999 204.741V205.093C239.594 205.381 239.594 205.381 239.119 205.622H238.588V205.979L238.198 206.19L237.673 206.473L237.161 206.753C236.828 206.937 236.499 207.133 236.178 207.336C235.769 207.566 235.769 207.566 235.241 207.566V207.922L234.889 208.091C234.013 208.52 233.152 208.961 232.303 209.444L231.875 209.686C231.595 209.847 231.316 210.008 231.037 210.172L230.643 210.399L230.291 210.602C229.955 210.747 229.955 210.747 229.247 210.747V211.1C226.615 212.469 226.615 212.469 225.192 212.691V213.044H224.84C224.837 183.112 224.837 183.112 224.833 157.754V129.517C224.833 120.286 224.833 111.052 224.829 101.821C224.825 95.0855 224.825 88.3502 224.825 81.6149V67.9641C224.825 63.6553 224.825 59.3427 224.821 55.0301C224.821 50.0773 224.821 45.1245 224.821 40.1679V39.8114C224.821 37.8372 224.821 35.8668 224.821 33.8926C224.818 32.1676 224.818 30.4425 224.821 28.7213C224.821 27.74 224.821 26.7625 224.818 25.7811C224.818 21.1925 224.867 16.6077 225.016 12.0229Z" fill="#070706"/>
<path d="M266.416 46.9675H266.769C267.045 47.3161 267.313 47.6761 267.566 48.0477L268.046 48.7333L268.295 49.0895C268.517 49.4112 268.748 49.7291 268.978 50.0471C270.128 51.6289 271.202 53.253 272.249 54.9076L272.483 55.2792C274.393 58.3166 276.184 61.442 277.753 64.6671C277.975 65.1191 278.213 65.5672 278.455 66.0115C280.345 69.4358 281.711 73.1205 283.03 76.7937L283.256 77.4219C286.236 85.7527 288.043 94.4665 288.86 103.268L288.925 103.943C289.447 109.91 289.477 116.019 288.86 121.979L288.756 123.105C287.59 135.132 284.173 146.845 279.141 157.807L278.884 158.363C277.703 160.921 276.407 163.392 274.988 165.824C274.742 166.245 274.5 166.667 274.259 167.088C273.273 168.8 272.207 170.443 271.095 172.075C270.849 172.435 270.608 172.795 270.366 173.155C268.456 175.99 266.37 178.709 264.118 181.283L263.781 181.67C263.102 182.451 262.412 183.217 261.717 183.983C261.484 184.244 261.253 184.504 261.023 184.768C260.31 185.596 259.57 186.381 258.795 187.155L258.446 187.507C258.204 187.752 257.959 187.994 257.717 188.235C257.349 188.603 256.985 188.974 256.617 189.342C255.405 190.56 254.196 191.732 252.808 192.755L252.455 192.402L252.808 191.87C252.754 191.491 252.754 191.491 252.632 191.165L251.746 190.989C252.275 190.341 252.793 189.748 253.429 189.212C254.3 188.461 255.109 187.656 255.922 186.844C256.175 186.588 256.432 186.331 256.689 186.078C257.61 185.155 258.5 184.213 259.347 183.221C259.597 182.945 259.846 182.669 260.099 182.394C263.363 178.778 266.293 174.879 269.02 170.846C269.235 170.528 269.449 170.214 269.668 169.899C273.335 164.572 276.265 158.681 278.731 152.717C278.93 152.238 279.134 151.767 279.337 151.292C281.435 146.378 282.923 141.13 284.089 135.921L284.173 135.554C284.986 131.934 285.611 128.318 286.033 124.626L286.106 124.013C286.62 119.758 286.762 115.491 286.915 111.212H286.562L286.57 111.806C286.578 113.212 286.562 114.583 286.386 115.977C285.627 116.207 285.044 116.092 284.265 115.977L284.089 115.449L283.747 115.38L283.383 115.272L283.03 114.388C282.693 114.211 282.693 114.211 282.321 114.211L281.791 114.388V114.035L280.733 113.683L280.368 113.606C280.023 113.507 280.023 113.507 279.67 113.154L279.13 112.921L278.612 112.622C278.543 112.331 278.485 112.036 278.432 111.741C277.991 111.442 277.991 111.442 277.55 111.212V110.86H277.02L276.844 109.975L276.832 110.431C276.733 114.46 276.614 118.497 276.134 122.508H275.781C275.808 121.952 275.835 121.397 275.858 120.842L275.881 120.382C275.923 119.501 275.969 118.62 276.027 117.739C276.13 116.092 276.173 114.449 276.169 112.798V112.388C276.153 105.892 275.766 99.1355 274.098 92.8386C273.983 92.3752 273.906 91.9117 273.837 91.4444H273.484L273.308 91.7968L273.005 91.6589L272.591 91.475L272.149 91.2797C271.889 91.1648 271.628 91.0537 271.363 90.9503C270.681 90.6822 270.27 90.3834 269.775 89.8549C269.48 89.6748 269.185 89.4986 268.889 89.3263C267.969 88.7096 267.229 88.0355 266.519 87.1852C266.224 86.8213 266.224 86.8213 265.764 86.4229C265.292 85.8982 265.085 85.3964 264.82 84.7491C264.605 84.2933 264.302 84.0252 263.942 83.6767C263.762 83.2668 263.585 82.857 263.413 82.4433L263.067 82.0335C262.649 81.4896 262.442 80.9687 262.201 80.329C262.047 79.9268 261.89 79.5285 261.725 79.1301L261.579 78.7778C261.484 78.5479 261.391 78.322 261.296 78.0921C260.13 75.2348 260.295 70.9602 260.628 67.919C260.747 67.1032 260.927 66.3026 261.115 65.4983L261.38 64.196C261.56 63.3533 261.786 62.5413 262.043 61.7178C262.251 60.9939 262.396 60.2547 262.55 59.5154C262.83 58.1825 263.16 56.8572 263.482 55.532C263.578 55.1221 263.673 54.7085 263.766 54.2948C264.068 52.9657 264.479 51.8588 265.135 50.6637C265.457 49.8977 265.445 49.1661 265.472 48.3426C265.534 47.8485 265.534 47.8485 265.725 47.5076C265.963 47.2625 265.963 47.2625 266.416 46.9675Z" fill="black"/>
<path d="M280.978 72.5178L281.439 72.7017C281.703 73.1691 281.887 73.5829 282.068 74.081L282.244 74.5484C282.451 75.1078 282.654 75.671 282.85 76.2342L283.092 76.897C286.144 85.3947 288.028 94.2641 288.86 103.245L288.925 103.919C289.447 109.888 289.477 115.999 288.86 121.96L288.756 123.087C287.59 135.117 284.173 146.833 279.141 157.798L278.884 158.354C277.703 160.913 276.407 163.384 274.988 165.817C274.742 166.238 274.5 166.66 274.259 167.081C273.273 168.794 272.207 170.437 271.095 172.07C270.849 172.43 270.608 172.79 270.366 173.15C268.456 175.985 266.37 178.705 264.118 181.28L263.781 181.667C263.102 182.448 262.412 183.215 261.717 183.981C261.484 184.241 261.25 184.502 261.023 184.766C260.31 185.594 259.57 186.379 258.795 187.153L258.446 187.506C258.204 187.751 257.959 187.992 257.717 188.234C257.349 188.601 256.985 188.973 256.617 189.341C255.405 190.559 254.196 191.732 252.808 192.755L252.455 192.402L252.808 191.87C252.754 191.49 252.754 191.49 252.632 191.165L251.746 190.988C252.275 190.341 252.793 189.747 253.429 189.211C254.3 188.46 255.109 187.655 255.922 186.843C256.175 186.586 256.432 186.33 256.689 186.077C257.61 185.153 258.5 184.211 259.347 183.219C259.597 182.943 259.846 182.667 260.099 182.391C263.363 178.774 266.293 174.874 269.02 170.84C269.235 170.522 269.449 170.208 269.668 169.893C273.335 164.564 276.265 158.672 278.731 152.706C278.93 152.227 279.134 151.756 279.337 151.281C281.435 146.366 282.923 141.117 284.089 135.906L284.173 135.538C284.986 131.918 285.615 128.301 286.033 124.608L286.11 123.941C286.628 119.401 286.808 114.873 286.739 110.306L286.731 109.773C286.536 97.1069 283.54 84.8775 279.141 73.0542L279.471 72.9814C279.855 72.8933 279.855 72.8933 280.188 72.6826C280.553 72.5255 280.553 72.5255 280.978 72.5178Z" fill="black"/>
<path d="M276.105 158.562L277.695 158.737L277.871 159.445L277.695 159.621L278.047 159.797C277.818 160.547 277.527 161.22 277.155 161.912L276.829 162.524L276.481 163.166L276.304 163.499C274.699 166.467 272.968 169.328 271.064 172.112C270.823 172.468 270.585 172.824 270.348 173.179C268.44 176.013 266.356 178.729 264.104 181.299L263.767 181.685C263.088 182.466 262.399 183.23 261.706 183.995C261.472 184.255 261.238 184.516 261.012 184.779C260.3 185.606 259.56 186.39 258.787 187.162L258.438 187.514C258.197 187.759 257.951 188 257.71 188.241C257.342 188.608 256.978 188.979 256.611 189.346C255.4 190.562 254.194 191.733 252.807 192.754L252.454 192.402L252.807 191.87C252.753 191.492 252.753 191.492 252.631 191.167L251.746 190.991C252.274 190.344 252.791 189.751 253.427 189.216C254.297 188.466 255.105 187.663 255.917 186.852C256.17 186.596 256.427 186.34 256.684 186.087C257.603 185.166 258.492 184.225 259.338 183.234C259.587 182.959 259.836 182.684 260.089 182.408C263.349 178.798 266.276 174.904 268.999 170.877C269.214 170.559 269.428 170.246 269.647 169.932C272.125 166.333 274.132 162.455 276.105 158.562Z" fill="black"/>
<path d="M255.162 125.873L255.503 126.046C255.399 127.208 255.199 128.307 254.929 129.439L254.817 129.909C254.599 130.838 254.317 131.748 253.965 132.636H253.624C253.939 131.177 254.284 129.728 254.628 128.28L254.762 127.72L254.884 127.212C254.984 126.768 255.077 126.32 255.162 125.873Z" fill="black"/>
<path d="M259.796 165.202H260.145C259.876 166.018 259.44 166.645 258.944 167.33L258.717 167.653C257.805 168.934 257.805 168.934 257.354 169.458H257.006C257.252 168.661 257.645 168.261 258.225 167.684C258.41 167.395 258.581 167.099 258.751 166.799C258.925 166.514 259.103 166.229 259.285 165.945L259.55 165.521L259.796 165.202ZM266.426 153.677H266.775C266.54 154.635 266.195 155.447 265.73 156.313L265.54 156.678C265.378 156.982 265.207 157.279 265.029 157.579L264.681 157.756C264.787 157.078 264.988 156.563 265.306 155.959C265.658 155.301 265.658 155.301 265.73 154.562H266.252L266.426 153.677Z" fill="black"/>
<path d="M254.869 140.527L255.224 140.702C254.881 141.795 254.468 142.833 253.979 143.872H253.624C253.99 142.734 254.41 141.63 254.869 140.527ZM263.039 160.057L263.394 160.408C263.197 160.76 263 161.107 262.804 161.455L262.472 162.043L262.149 162.52L261.617 162.695C261.86 162.046 262.16 161.474 262.526 160.882L262.815 160.412L263.039 160.057Z" fill="black"/>
<path d="M253.249 144.283L253.625 144.458C253.232 145.829 253.232 145.829 252.816 146.335C252.591 146.54 252.358 146.727 252.122 146.913C252.42 146 252.824 145.147 253.249 144.283Z" fill="black"/>
<path d="M23.225 30H11.625C11.3083 30 11.075 29.9333 10.925 29.8C10.7917 29.65 10.725 29.4167 10.725 29.1V12.9C10.725 12.5833 10.7917 12.3583 10.925 12.225C11.075 12.075 11.3083 12 11.625 12H23.225C23.5417 12 23.7667 12.075 23.9 12.225C24.05 12.3583 24.125 12.5833 24.125 12.9V15.825C24.125 16.1417 24.05 16.375 23.9 16.525C23.7667 16.6583 23.5417 16.725 23.225 16.725H16.325V18.65H21.2C21.5167 18.65 21.7417 18.725 21.875 18.875C22.025 19.0083 22.1 19.2333 22.1 19.55V22.225C22.1 22.5417 22.025 22.775 21.875 22.925C21.7417 23.0583 21.5167 23.125 21.2 23.125H16.325V25.275H23.225C23.5417 25.275 23.7667 25.35 23.9 25.5C24.05 25.6333 24.125 25.8583 24.125 26.175V29.1C24.125 29.4167 24.05 29.65 23.9 29.8C23.7667 29.9333 23.5417 30 23.225 30ZM31.7324 30H27.9824C27.6658 30 27.4324 29.9333 27.2824 29.8C27.1491 29.65 27.0824 29.4167 27.0824 29.1V12.9C27.0824 12.5833 27.1491 12.3583 27.2824 12.225C27.4324 12.075 27.6658 12 27.9824 12H30.5824C30.8991 12 31.1658 12.05 31.3824 12.15C31.6158 12.25 31.8408 12.425 32.0574 12.675L36.9074 18.225V12.9C36.9074 12.5833 36.9741 12.3583 37.1074 12.225C37.2574 12.075 37.4908 12 37.8074 12H41.5574C41.8741 12 42.0991 12.075 42.2324 12.225C42.3824 12.3583 42.4574 12.5833 42.4574 12.9V29.1C42.4574 29.4167 42.3824 29.65 42.2324 29.8C42.0991 29.9333 41.8741 30 41.5574 30H37.8074C37.4908 30 37.2574 29.9333 37.1074 29.8C36.9741 29.65 36.9074 29.4167 36.9074 29.1V26.025L32.6324 20.85V29.1C32.6324 29.4167 32.5574 29.65 32.4074 29.8C32.2741 29.9333 32.0491 30 31.7324 30ZM58.4057 30H46.8057C46.489 30 46.2557 29.9333 46.1057 29.8C45.9723 29.65 45.9057 29.4167 45.9057 29.1V12.9C45.9057 12.5833 45.9723 12.3583 46.1057 12.225C46.2557 12.075 46.489 12 46.8057 12H58.4057C58.7223 12 58.9473 12.075 59.0807 12.225C59.2307 12.3583 59.3057 12.5833 59.3057 12.9V15.825C59.3057 16.1417 59.2307 16.375 59.0807 16.525C58.9473 16.6583 58.7223 16.725 58.4057 16.725H51.5057V18.65H56.3807C56.6973 18.65 56.9223 18.725 57.0557 18.875C57.2057 19.0083 57.2807 19.2333 57.2807 19.55V22.225C57.2807 22.5417 57.2057 22.775 57.0557 22.925C56.9223 23.0583 56.6973 23.125 56.3807 23.125H51.5057V25.275H58.4057C58.7223 25.275 58.9473 25.35 59.0807 25.5C59.2307 25.6333 59.3057 25.8583 59.3057 26.175V29.1C59.3057 29.4167 59.2307 29.65 59.0807 29.8C58.9473 29.9333 58.7223 30 58.4057 30ZM67.9131 16.5V19.7H69.7881C70.2214 19.7 70.5131 19.5917 70.6631 19.375C70.8131 19.1417 70.8881 18.8583 70.8881 18.525V17.675C70.8881 17.3417 70.8131 17.0667 70.6631 16.85C70.5131 16.6167 70.2214 16.5 69.7881 16.5H67.9131ZM67.0131 30H63.1631C62.8464 30 62.6131 29.9333 62.4631 29.8C62.3298 29.65 62.2631 29.4167 62.2631 29.1V12.9C62.2631 12.5833 62.3298 12.3583 62.4631 12.225C62.6131 12.075 62.8464 12 63.1631 12H71.4881C73.3548 12 74.6381 12.3917 75.3381 13.175C76.0548 13.9417 76.4131 14.9417 76.4131 16.175V17.325C76.4131 18.025 76.3048 18.625 76.0881 19.125C75.8881 19.6083 75.5298 19.9583 75.0131 20.175C75.9131 20.275 76.6381 20.6417 77.1881 21.275C77.7548 21.9083 78.0381 22.75 78.0381 23.8V29.1C78.0381 29.4167 77.9631 29.65 77.8131 29.8C77.6798 29.9333 77.4548 30 77.1381 30H73.2631C72.9464 30 72.7131 29.9333 72.5631 29.8C72.4298 29.65 72.3631 29.4167 72.3631 29.1V25.275C72.3631 24.9083 72.2881 24.6417 72.1381 24.475C72.0048 24.2917 71.7631 24.2 71.4131 24.2H67.9131V29.1C67.9131 29.4167 67.8381 29.65 67.6881 29.8C67.5548 29.9333 67.3298 30 67.0131 30ZM94.4701 30H86.5951C84.5118 30 82.9618 29.5833 81.9451 28.75C80.9451 27.9167 80.4451 26.6333 80.4451 24.9V17.1C80.4451 15.3667 80.9451 14.0833 81.9451 13.25C82.9618 12.4167 84.5118 12 86.5951 12H92.8451C93.1618 12 93.3868 12.075 93.5201 12.225C93.6701 12.3583 93.7451 12.5833 93.7451 12.9V15.925C93.7451 16.2417 93.6701 16.475 93.5201 16.625C93.3868 16.7583 93.1618 16.825 92.8451 16.825H87.6451C87.1285 16.825 86.7451 16.9333 86.4951 17.15C86.2451 17.35 86.1201 17.6583 86.1201 18.075V24.05C86.1201 24.4667 86.2118 24.775 86.3951 24.975C86.5951 25.175 86.8868 25.275 87.2701 25.275H89.6951V21.375C89.6951 21.0583 89.7618 20.8333 89.8951 20.7C90.0451 20.55 90.2785 20.475 90.5951 20.475H94.4701C94.7868 20.475 95.0118 20.55 95.1451 20.7C95.2951 20.8333 95.3701 21.0583 95.3701 21.375V29.1C95.3701 29.4167 95.2951 29.65 95.1451 29.8C95.0118 29.9333 94.7868 30 94.4701 30ZM98.9203 30C98.6036 30 98.3703 29.9333 98.2203 29.8C98.087 29.65 98.0203 29.4167 98.0203 29.1V26.125C98.0203 25.8083 98.087 25.5833 98.2203 25.45C98.3703 25.3 98.6036 25.225 98.9203 25.225H101.395V16.825H98.9203C98.6036 16.825 98.3703 16.7583 98.2203 16.625C98.087 16.475 98.0203 16.2417 98.0203 15.925V12.9C98.0203 12.5833 98.087 12.3583 98.2203 12.225C98.3703 12.075 98.6036 12 98.9203 12H109.57C109.887 12 110.112 12.075 110.245 12.225C110.395 12.3583 110.47 12.5833 110.47 12.9V15.925C110.47 16.2417 110.395 16.475 110.245 16.625C110.112 16.7583 109.887 16.825 109.57 16.825H107.145V25.225H109.57C109.887 25.225 110.112 25.3 110.245 25.45C110.395 25.5833 110.47 25.8083 110.47 26.125V29.1C110.47 29.4167 110.395 29.65 110.245 29.8C110.112 29.9333 109.887 30 109.57 30H98.9203ZM121.907 30H114.007C113.69 30 113.457 29.9333 113.307 29.8C113.174 29.65 113.107 29.4167 113.107 29.1V26.175C113.107 25.8583 113.174 25.6333 113.307 25.5C113.457 25.35 113.69 25.275 114.007 25.275H120.732C120.949 25.275 121.107 25.2083 121.207 25.075C121.324 24.925 121.382 24.75 121.382 24.55C121.382 24.2667 121.324 24.0583 121.207 23.925C121.107 23.7917 120.949 23.7167 120.732 23.7L116.982 23.175C115.815 23.0083 114.874 22.625 114.157 22.025C113.457 21.425 113.107 20.425 113.107 19.025V16.4C113.107 14.9833 113.565 13.9 114.482 13.15C115.399 12.3833 116.665 12 118.282 12H125.282C125.599 12 125.824 12.075 125.957 12.225C126.107 12.3583 126.182 12.5833 126.182 12.9V15.875C126.182 16.1917 126.107 16.425 125.957 16.575C125.824 16.7083 125.599 16.775 125.282 16.775H119.457C119.24 16.775 119.074 16.85 118.957 17C118.84 17.1333 118.782 17.3083 118.782 17.525C118.782 17.7417 118.84 17.925 118.957 18.075C119.074 18.225 119.24 18.3083 119.457 18.325L123.182 18.825C124.349 18.9917 125.29 19.375 126.007 19.975C126.724 20.575 127.082 21.575 127.082 22.975V25.6C127.082 27.0167 126.615 28.1083 125.682 28.875C124.765 29.625 123.507 30 121.907 30ZM134.592 30H130.717C130.4 30 130.167 29.9333 130.017 29.8C129.883 29.65 129.817 29.4167 129.817 29.1V12.9C129.817 12.5833 129.883 12.3583 130.017 12.225C130.167 12.075 130.4 12 130.717 12H134.592C134.908 12 135.133 12.075 135.267 12.225C135.417 12.3583 135.492 12.5833 135.492 12.9V18.65H136.492L139.067 12.825C139.183 12.525 139.342 12.3167 139.542 12.2C139.742 12.0667 140 12 140.317 12H144.167C144.45 12 144.642 12.075 144.742 12.225C144.842 12.3583 144.833 12.5583 144.717 12.825L142.167 18.65C143.1 18.7 143.842 19.0333 144.392 19.65C144.958 20.25 145.242 21.05 145.242 22.05V29.1C145.242 29.4167 145.167 29.65 145.017 29.8C144.883 29.9333 144.658 30 144.342 30H140.492C140.175 30 139.942 29.9333 139.792 29.8C139.658 29.65 139.592 29.4167 139.592 29.1V24.225C139.592 23.9583 139.525 23.75 139.392 23.6C139.258 23.45 139.058 23.375 138.792 23.375H135.492V29.1C135.492 29.4167 135.417 29.65 135.267 29.8C135.133 29.9333 134.908 30 134.592 30ZM15.35 60H11.625C11.3083 60 11.075 59.9333 10.925 59.8C10.7917 59.65 10.725 59.4167 10.725 59.1V42.9C10.725 42.5833 10.7917 42.3583 10.925 42.225C11.075 42.075 11.3083 42 11.625 42H15.65C15.9167 42 16.1333 42.0583 16.3 42.175C16.4833 42.2917 16.65 42.4833 16.8 42.75L19.05 46.825C19.1333 46.975 19.2 47.0833 19.25 47.15C19.3167 47.2167 19.4 47.25 19.5 47.25H19.725C19.825 47.25 19.9 47.2167 19.95 47.15C20.0167 47.0833 20.0917 46.975 20.175 46.825L22.4 42.75C22.55 42.4833 22.7083 42.2917 22.875 42.175C23.0583 42.0583 23.2833 42 23.55 42H27.6C27.9167 42 28.1417 42.075 28.275 42.225C28.425 42.3583 28.5 42.5833 28.5 42.9V59.1C28.5 59.4167 28.425 59.65 28.275 59.8C28.1417 59.9333 27.9167 60 27.6 60H23.75C23.4333 60 23.2 59.9333 23.05 59.8C22.9167 59.65 22.85 59.4167 22.85 59.1V50.3L21.375 53.025C21.225 53.3083 21.0417 53.5167 20.825 53.65C20.625 53.7667 20.3667 53.825 20.05 53.825H19.05C18.7333 53.825 18.4667 53.7667 18.25 53.65C18.05 53.5167 17.875 53.3083 17.725 53.025L16.25 50.3V59.1C16.25 59.4167 16.175 59.65 16.025 59.8C15.8917 59.9333 15.6667 60 15.35 60ZM47.2658 55.275C47.2658 56.0417 47.1492 56.7417 46.9158 57.375C46.6992 57.9917 46.2992 58.525 45.7158 58.975C45.1492 59.4083 44.3658 59.75 43.3658 60C42.3658 60.25 41.0908 60.375 39.5408 60.375C37.9908 60.375 36.7158 60.25 35.7158 60C34.7158 59.75 33.9242 59.4083 33.3408 58.975C32.7742 58.525 32.3742 57.9917 32.1408 57.375C31.9242 56.7417 31.8158 56.0417 31.8158 55.275V42.9C31.8158 42.5833 31.8825 42.3583 32.0158 42.225C32.1658 42.075 32.3992 42 32.7158 42H36.6408C36.9575 42 37.1825 42.075 37.3158 42.225C37.4658 42.3583 37.5408 42.5833 37.5408 42.9V54.3C37.5408 54.6333 37.6658 54.9167 37.9158 55.15C38.1658 55.3667 38.7242 55.475 39.5908 55.475C40.4742 55.475 41.0408 55.3667 41.2908 55.15C41.5408 54.9167 41.6658 54.6333 41.6658 54.3V42.9C41.6658 42.5833 41.7325 42.3583 41.8658 42.225C42.0158 42.075 42.2492 42 42.5658 42H46.3658C46.6825 42 46.9075 42.075 47.0408 42.225C47.1908 42.3583 47.2658 42.5833 47.2658 42.9V55.275ZM58.9432 60H51.0432C50.7265 60 50.4932 59.9333 50.3432 59.8C50.2098 59.65 50.1432 59.4167 50.1432 59.1V56.175C50.1432 55.8583 50.2098 55.6333 50.3432 55.5C50.4932 55.35 50.7265 55.275 51.0432 55.275H57.7682C57.9848 55.275 58.1432 55.2083 58.2432 55.075C58.3598 54.925 58.4182 54.75 58.4182 54.55C58.4182 54.2667 58.3598 54.0583 58.2432 53.925C58.1432 53.7917 57.9848 53.7167 57.7682 53.7L54.0182 53.175C52.8515 53.0083 51.9098 52.625 51.1932 52.025C50.4932 51.425 50.1432 50.425 50.1432 49.025V46.4C50.1432 44.9833 50.6015 43.9 51.5182 43.15C52.4348 42.3833 53.7015 42 55.3182 42H62.3182C62.6348 42 62.8598 42.075 62.9932 42.225C63.1432 42.3583 63.2182 42.5833 63.2182 42.9V45.875C63.2182 46.1917 63.1432 46.425 62.9932 46.575C62.8598 46.7083 62.6348 46.775 62.3182 46.775H56.4932C56.2765 46.775 56.1098 46.85 55.9932 47C55.8765 47.1333 55.8182 47.3083 55.8182 47.525C55.8182 47.7417 55.8765 47.925 55.9932 48.075C56.1098 48.225 56.2765 48.3083 56.4932 48.325L60.2182 48.825C61.3848 48.9917 62.3265 49.375 63.0432 49.975C63.7598 50.575 64.1182 51.575 64.1182 52.975V55.6C64.1182 57.0167 63.6515 58.1083 62.7182 58.875C61.8015 59.625 60.5432 60 58.9432 60ZM67.3529 60C67.0363 60 66.8029 59.9333 66.6529 59.8C66.5196 59.65 66.4529 59.4167 66.4529 59.1V56.125C66.4529 55.8083 66.5196 55.5833 66.6529 55.45C66.8029 55.3 67.0363 55.225 67.3529 55.225H69.8279V46.825H67.3529C67.0363 46.825 66.8029 46.7583 66.6529 46.625C66.5196 46.475 66.4529 46.2417 66.4529 45.925V42.9C66.4529 42.5833 66.5196 42.3583 66.6529 42.225C66.8029 42.075 67.0363 42 67.3529 42H78.0029C78.3196 42 78.5446 42.075 78.6779 42.225C78.8279 42.3583 78.9029 42.5833 78.9029 42.9V45.925C78.9029 46.2417 78.8279 46.475 78.6779 46.625C78.5446 46.7583 78.3196 46.825 78.0029 46.825H75.5779V55.225H78.0029C78.3196 55.225 78.5446 55.3 78.6779 55.45C78.8279 55.5833 78.9029 55.8083 78.9029 56.125V59.1C78.9029 59.4167 78.8279 59.65 78.6779 59.8C78.5446 59.9333 78.3196 60 78.0029 60H67.3529ZM86.7646 60H82.8896C82.573 60 82.3396 59.9333 82.1896 59.8C82.0563 59.65 81.9896 59.4167 81.9896 59.1V42.9C81.9896 42.5833 82.0563 42.3583 82.1896 42.225C82.3396 42.075 82.573 42 82.8896 42H86.7646C87.0813 42 87.3063 42.075 87.4396 42.225C87.5896 42.3583 87.6646 42.5833 87.6646 42.9V48.65H88.6646L91.2396 42.825C91.3563 42.525 91.5146 42.3167 91.7146 42.2C91.9146 42.0667 92.173 42 92.4896 42H96.3396C96.623 42 96.8146 42.075 96.9146 42.225C97.0146 42.3583 97.0063 42.5583 96.8896 42.825L94.3396 48.65C95.273 48.7 96.0146 49.0333 96.5646 49.65C97.1313 50.25 97.4146 51.05 97.4146 52.05V59.1C97.4146 59.4167 97.3396 59.65 97.1896 59.8C97.0563 59.9333 96.8313 60 96.5146 60H92.6646C92.348 60 92.1146 59.9333 91.9646 59.8C91.8313 59.65 91.7646 59.4167 91.7646 59.1V54.225C91.7646 53.9583 91.698 53.75 91.5646 53.6C91.4313 53.45 91.2313 53.375 90.9646 53.375H87.6646V59.1C87.6646 59.4167 87.5896 59.65 87.4396 59.8C87.3063 59.9333 87.0813 60 86.7646 60ZM110.882 60H107.157C106.841 60 106.607 59.9333 106.457 59.8C106.324 59.65 106.257 59.4167 106.257 59.1V42.9C106.257 42.5833 106.324 42.3583 106.457 42.225C106.607 42.075 106.841 42 107.157 42H111.182C111.449 42 111.666 42.0583 111.832 42.175C112.016 42.2917 112.182 42.4833 112.332 42.75L114.582 46.825C114.666 46.975 114.732 47.0833 114.782 47.15C114.849 47.2167 114.932 47.25 115.032 47.25H115.257C115.357 47.25 115.432 47.2167 115.482 47.15C115.549 47.0833 115.624 46.975 115.707 46.825L117.932 42.75C118.082 42.4833 118.241 42.2917 118.407 42.175C118.591 42.0583 118.816 42 119.082 42H123.132C123.449 42 123.674 42.075 123.807 42.225C123.957 42.3583 124.032 42.5833 124.032 42.9V59.1C124.032 59.4167 123.957 59.65 123.807 59.8C123.674 59.9333 123.449 60 123.132 60H119.282C118.966 60 118.732 59.9333 118.582 59.8C118.449 59.65 118.382 59.4167 118.382 59.1V50.3L116.907 53.025C116.757 53.3083 116.574 53.5167 116.357 53.65C116.157 53.7667 115.899 53.825 115.582 53.825H114.582C114.266 53.825 113.999 53.7667 113.782 53.65C113.582 53.5167 113.407 53.3083 113.257 53.025L111.782 50.3V59.1C111.782 59.4167 111.707 59.65 111.557 59.8C111.424 59.9333 111.199 60 110.882 60ZM139.973 60H128.373C128.056 60 127.823 59.9333 127.673 59.8C127.54 59.65 127.473 59.4167 127.473 59.1V42.9C127.473 42.5833 127.54 42.3583 127.673 42.225C127.823 42.075 128.056 42 128.373 42H139.973C140.29 42 140.515 42.075 140.648 42.225C140.798 42.3583 140.873 42.5833 140.873 42.9V45.825C140.873 46.1417 140.798 46.375 140.648 46.525C140.515 46.6583 140.29 46.725 139.973 46.725H133.073V48.65H137.948C138.265 48.65 138.49 48.725 138.623 48.875C138.773 49.0083 138.848 49.2333 138.848 49.55V52.225C138.848 52.5417 138.773 52.775 138.623 52.925C138.49 53.0583 138.265 53.125 137.948 53.125H133.073V55.275H139.973C140.29 55.275 140.515 55.35 140.648 55.5C140.798 55.6333 140.873 55.8583 140.873 56.175V59.1C140.873 59.4167 140.798 59.65 140.648 59.8C140.515 59.9333 140.29 60 139.973 60ZM153.155 60H144.73C144.414 60 144.18 59.9333 144.03 59.8C143.897 59.65 143.83 59.4167 143.83 59.1V42.9C143.83 42.5833 143.897 42.3583 144.03 42.225C144.18 42.075 144.414 42 144.73 42H153.155C155.239 42 156.78 42.4167 157.78 43.25C158.797 44.0833 159.305 45.3667 159.305 47.1V54.9C159.305 56.6333 158.797 57.9167 157.78 58.75C156.78 59.5833 155.239 60 153.155 60ZM149.505 46.775V55.275H152.48C152.88 55.275 153.172 55.175 153.355 54.975C153.555 54.775 153.655 54.4667 153.655 54.05V47.975C153.655 47.5583 153.555 47.2583 153.355 47.075C153.172 46.875 152.88 46.775 152.48 46.775H149.505ZM15.5 90H11.625C11.3083 90 11.075 89.9333 10.925 89.8C10.7917 89.65 10.725 89.4167 10.725 89.1V72.9C10.725 72.5833 10.7917 72.3583 10.925 72.225C11.075 72.075 11.3083 72 11.625 72H22.775C23.0917 72 23.3167 72.075 23.45 72.225C23.6 72.3583 23.675 72.5833 23.675 72.9V75.875C23.675 76.1917 23.6 76.425 23.45 76.575C23.3167 76.7083 23.0917 76.775 22.775 76.775H16.4V79.375H20.75C21.0667 79.375 21.2917 79.45 21.425 79.6C21.575 79.7333 21.65 79.9583 21.65 80.275V83.275C21.65 83.5917 21.575 83.825 21.425 83.975C21.2917 84.1083 21.0667 84.175 20.75 84.175H16.4V89.1C16.4 89.4167 16.325 89.65 16.175 89.8C16.0417 89.9333 15.8167 90 15.5 90ZM41.307 85.275C41.307 86.0417 41.1904 86.7417 40.957 87.375C40.7404 87.9917 40.3404 88.525 39.757 88.975C39.1904 89.4083 38.3987 89.75 37.382 90C36.382 90.25 35.107 90.375 33.557 90.375C32.007 90.375 30.7237 90.25 29.707 90C28.6904 89.75 27.8904 89.4083 27.307 88.975C26.7404 88.525 26.3404 87.9917 26.107 87.375C25.8904 86.7417 25.782 86.0417 25.782 85.275V76.75C25.782 75.9833 25.8904 75.2917 26.107 74.675C26.3404 74.0417 26.7404 73.5 27.307 73.05C27.8904 72.6 28.6904 72.25 29.707 72C30.7237 71.75 32.007 71.625 33.557 71.625C35.107 71.625 36.382 71.75 37.382 72C38.3987 72.25 39.1904 72.6 39.757 73.05C40.3404 73.5 40.7404 74.0417 40.957 74.675C41.1904 75.2917 41.307 75.9833 41.307 76.75V85.275ZM31.457 84.375C31.457 84.7083 31.582 84.9917 31.832 85.225C32.082 85.4417 32.657 85.55 33.557 85.55C34.457 85.55 35.032 85.4417 35.282 85.225C35.532 84.9917 35.657 84.7083 35.657 84.375V77.65C35.657 77.3333 35.532 77.0667 35.282 76.85C35.032 76.6167 34.457 76.5 33.557 76.5C32.657 76.5 32.082 76.6167 31.832 76.85C31.582 77.0667 31.457 77.3333 31.457 77.65V84.375ZM50.1396 76.5V79.7H52.0146C52.448 79.7 52.7396 79.5917 52.8896 79.375C53.0396 79.1417 53.1146 78.8583 53.1146 78.525V77.675C53.1146 77.3417 53.0396 77.0667 52.8896 76.85C52.7396 76.6167 52.448 76.5 52.0146 76.5H50.1396ZM49.2396 90H45.3896C45.073 90 44.8396 89.9333 44.6896 89.8C44.5563 89.65 44.4896 89.4167 44.4896 89.1V72.9C44.4896 72.5833 44.5563 72.3583 44.6896 72.225C44.8396 72.075 45.073 72 45.3896 72H53.7146C55.5813 72 56.8646 72.3917 57.5646 73.175C58.2813 73.9417 58.6396 74.9417 58.6396 76.175V77.325C58.6396 78.025 58.5313 78.625 58.3146 79.125C58.1146 79.6083 57.7563 79.9583 57.2396 80.175C58.1396 80.275 58.8646 80.6417 59.4146 81.275C59.9813 81.9083 60.2646 82.75 60.2646 83.8V89.1C60.2646 89.4167 60.1896 89.65 60.0396 89.8C59.9063 89.9333 59.6813 90 59.3646 90H55.4896C55.173 90 54.9396 89.9333 54.7896 89.8C54.6563 89.65 54.5896 89.4167 54.5896 89.1V85.275C54.5896 84.9083 54.5146 84.6417 54.3646 84.475C54.2313 84.2917 53.9896 84.2 53.6396 84.2H50.1396V89.1C50.1396 89.4167 50.0646 89.65 49.9146 89.8C49.7813 89.9333 49.5563 90 49.2396 90ZM73.4746 90H66.9746C66.6579 90 66.3913 89.9417 66.1746 89.825C65.9746 89.7083 65.8163 89.4917 65.6996 89.175L63.2496 83.05C63.0996 82.6833 62.9746 82.3667 62.8746 82.1C62.7746 81.8167 62.6913 81.55 62.6246 81.3C62.5579 81.05 62.5079 80.7917 62.4746 80.525C62.4579 80.2417 62.4496 79.9 62.4496 79.5V72.9C62.4496 72.5833 62.5163 72.3583 62.6496 72.225C62.7996 72.075 63.0329 72 63.3496 72H67.3246C67.6413 72 67.8829 72.075 68.0496 72.225C68.2163 72.3583 68.2996 72.5833 68.2996 72.9V79.8C68.2996 79.9667 68.3163 80.1333 68.3496 80.3C68.3829 80.4667 68.4329 80.6417 68.4996 80.825L69.6746 84.325C69.7246 84.4917 69.7829 84.6083 69.8496 84.675C69.9163 84.725 70.0163 84.75 70.1496 84.75H70.4246C70.5579 84.75 70.6579 84.725 70.7246 84.675C70.7913 84.6083 70.8496 84.4917 70.8996 84.325L72.0746 80.8C72.1413 80.6167 72.1913 80.4417 72.2246 80.275C72.2579 80.1083 72.2746 79.9417 72.2746 79.775V72.9C72.2746 72.5833 72.3413 72.3583 72.4746 72.225C72.6246 72.075 72.8579 72 73.1746 72H77.0996C77.4163 72 77.6413 72.075 77.7746 72.225C77.9246 72.3583 77.9996 72.5833 77.9996 72.9V79.5C77.9996 79.9 77.9829 80.2417 77.9496 80.525C77.9329 80.7917 77.8913 81.05 77.8246 81.3C77.7579 81.55 77.6746 81.8167 77.5746 82.1C77.4746 82.3667 77.3496 82.6833 77.1996 83.05L74.7496 89.175C74.6329 89.4917 74.4663 89.7083 74.2496 89.825C74.0496 89.9417 73.7913 90 73.4746 90ZM86.7363 76.5V79.7H88.6113C89.0447 79.7 89.3363 79.5917 89.4863 79.375C89.6363 79.1417 89.7113 78.8583 89.7113 78.525V77.675C89.7113 77.3417 89.6363 77.0667 89.4863 76.85C89.3363 76.6167 89.0447 76.5 88.6113 76.5H86.7363ZM85.8363 90H81.9863C81.6697 90 81.4363 89.9333 81.2863 89.8C81.153 89.65 81.0863 89.4167 81.0863 89.1V72.9C81.0863 72.5833 81.153 72.3583 81.2863 72.225C81.4363 72.075 81.6697 72 81.9863 72H90.3113C92.178 72 93.4613 72.3917 94.1613 73.175C94.878 73.9417 95.2363 74.9417 95.2363 76.175V77.325C95.2363 78.025 95.128 78.625 94.9113 79.125C94.7113 79.6083 94.353 79.9583 93.8363 80.175C94.7363 80.275 95.4613 80.6417 96.0113 81.275C96.578 81.9083 96.8613 82.75 96.8613 83.8V89.1C96.8613 89.4167 96.7863 89.65 96.6363 89.8C96.503 89.9333 96.278 90 95.9613 90H92.0863C91.7697 90 91.5363 89.9333 91.3863 89.8C91.253 89.65 91.1863 89.4167 91.1863 89.1V85.275C91.1863 84.9083 91.1113 84.6417 90.9613 84.475C90.828 84.2917 90.5863 84.2 90.2363 84.2H86.7363V89.1C86.7363 89.4167 86.6613 89.65 86.5113 89.8C86.378 89.9333 86.153 90 85.8363 90ZM106.29 77.15L104.99 81.05H108.94V76.725H106.765C106.632 76.725 106.532 76.7583 106.465 76.825C106.415 76.875 106.357 76.9833 106.29 77.15ZM104.74 89.1C104.74 89.4167 104.665 89.65 104.515 89.8C104.382 89.9333 104.157 90 103.84 90H100.19C99.8738 90 99.6404 89.9333 99.4904 89.8C99.3571 89.65 99.2904 89.4167 99.2904 89.1V82.75C99.2904 82.0167 99.3488 81.3667 99.4654 80.8C99.5988 80.2167 99.7821 79.6167 100.015 79L102.19 73.025C102.324 72.6417 102.507 72.375 102.74 72.225C102.99 72.075 103.324 72 103.74 72H120.94C121.257 72 121.482 72.075 121.615 72.225C121.765 72.3583 121.84 72.5833 121.84 72.9V75.825C121.84 76.1417 121.765 76.375 121.615 76.525C121.482 76.6583 121.257 76.725 120.94 76.725H114.615V78.65H118.915C119.232 78.65 119.457 78.725 119.59 78.875C119.74 79.0083 119.815 79.2333 119.815 79.55V82.225C119.815 82.5417 119.74 82.775 119.59 82.925C119.457 83.0583 119.232 83.125 118.915 83.125H114.615V85.275H120.94C121.257 85.275 121.482 85.35 121.615 85.5C121.765 85.6333 121.84 85.8583 121.84 86.175V89.1C121.84 89.4167 121.765 89.65 121.615 89.8C121.482 89.9333 121.257 90 120.94 90H109.84C109.524 90 109.29 89.9333 109.14 89.8C109.007 89.65 108.94 89.4167 108.94 89.1V85.6H104.74V89.1ZM129.438 90H125.688C125.371 90 125.138 89.9333 124.988 89.8C124.854 89.65 124.788 89.4167 124.788 89.1V72.9C124.788 72.5833 124.854 72.3583 124.988 72.225C125.138 72.075 125.371 72 125.688 72H128.288C128.604 72 128.871 72.05 129.088 72.15C129.321 72.25 129.546 72.425 129.763 72.675L134.613 78.225V72.9C134.613 72.5833 134.679 72.3583 134.813 72.225C134.963 72.075 135.196 72 135.513 72H139.263C139.579 72 139.804 72.075 139.938 72.225C140.088 72.3583 140.163 72.5833 140.163 72.9V89.1C140.163 89.4167 140.088 89.65 139.938 89.8C139.804 89.9333 139.579 90 139.263 90H135.513C135.196 90 134.963 89.9333 134.813 89.8C134.679 89.65 134.613 89.4167 134.613 89.1V86.025L130.338 80.85V89.1C130.338 89.4167 130.263 89.65 130.113 89.8C129.979 89.9333 129.754 90 129.438 90ZM157.361 90H149.486C147.402 90 145.852 89.5833 144.836 88.75C143.836 87.9167 143.336 86.6333 143.336 84.9V77.1C143.336 75.3667 143.836 74.0833 144.836 73.25C145.852 72.4167 147.402 72 149.486 72H155.736C156.052 72 156.277 72.075 156.411 72.225C156.561 72.3583 156.636 72.5833 156.636 72.9V75.925C156.636 76.2417 156.561 76.475 156.411 76.625C156.277 76.7583 156.052 76.825 155.736 76.825H150.536C150.019 76.825 149.636 76.9333 149.386 77.15C149.136 77.35 149.011 77.6583 149.011 78.075V84.05C149.011 84.4667 149.102 84.775 149.286 84.975C149.486 85.175 149.777 85.275 150.161 85.275H152.586V81.375C152.586 81.0583 152.652 80.8333 152.786 80.7C152.936 80.55 153.169 80.475 153.486 80.475H157.361C157.677 80.475 157.902 80.55 158.036 80.7C158.186 80.8333 158.261 81.0583 158.261 81.375V89.1C158.261 89.4167 158.186 89.65 158.036 89.8C157.902 89.9333 157.677 90 157.361 90ZM173.811 90H162.211C161.894 90 161.661 89.9333 161.511 89.8C161.378 89.65 161.311 89.4167 161.311 89.1V72.9C161.311 72.5833 161.378 72.3583 161.511 72.225C161.661 72.075 161.894 72 162.211 72H173.811C174.128 72 174.353 72.075 174.486 72.225C174.636 72.3583 174.711 72.5833 174.711 72.9V75.825C174.711 76.1417 174.636 76.375 174.486 76.525C174.353 76.6583 174.128 76.725 173.811 76.725H166.911V78.65H171.786C172.103 78.65 172.328 78.725 172.461 78.875C172.611 79.0083 172.686 79.2333 172.686 79.55V82.225C172.686 82.5417 172.611 82.775 172.461 82.925C172.328 83.0583 172.103 83.125 171.786 83.125H166.911V85.275H173.811C174.128 85.275 174.353 85.35 174.486 85.5C174.636 85.6333 174.711 85.8583 174.711 86.175V89.1C174.711 89.4167 174.636 89.65 174.486 89.8C174.353 89.9333 174.128 90 173.811 90ZM186.993 90H178.568C178.252 90 178.018 89.9333 177.868 89.8C177.735 89.65 177.668 89.4167 177.668 89.1V72.9C177.668 72.5833 177.735 72.3583 177.868 72.225C178.018 72.075 178.252 72 178.568 72H186.993C189.077 72 190.618 72.4167 191.618 73.25C192.635 74.0833 193.143 75.3667 193.143 77.1V84.9C193.143 86.6333 192.635 87.9167 191.618 88.75C190.618 89.5833 189.077 90 186.993 90ZM183.343 76.775V85.275H186.318C186.718 85.275 187.01 85.175 187.193 84.975C187.393 84.775 187.493 84.4667 187.493 84.05V77.975C187.493 77.5583 187.393 77.2583 187.193 77.075C187.01 76.875 186.718 76.775 186.318 76.775H183.343ZM208.821 90H197.221C196.904 90 196.671 89.9333 196.521 89.8C196.387 89.65 196.321 89.4167 196.321 89.1V72.9C196.321 72.5833 196.387 72.3583 196.521 72.225C196.671 72.075 196.904 72 197.221 72H208.821C209.137 72 209.362 72.075 209.496 72.225C209.646 72.3583 209.721 72.5833 209.721 72.9V75.825C209.721 76.1417 209.646 76.375 209.496 76.525C209.362 76.6583 209.137 76.725 208.821 76.725H201.921V78.65H206.796C207.112 78.65 207.337 78.725 207.471 78.875C207.621 79.0083 207.696 79.2333 207.696 79.55V82.225C207.696 82.5417 207.621 82.775 207.471 82.925C207.337 83.0583 207.112 83.125 206.796 83.125H201.921V85.275H208.821C209.137 85.275 209.362 85.35 209.496 85.5C209.646 85.6333 209.721 85.8583 209.721 86.175V89.1C209.721 89.4167 209.646 89.65 209.496 89.8C209.362 89.9333 209.137 90 208.821 90ZM24.475 120H16.6C14.5167 120 12.9667 119.583 11.95 118.75C10.95 117.917 10.45 116.633 10.45 114.9V107.1C10.45 105.367 10.95 104.083 11.95 103.25C12.9667 102.417 14.5167 102 16.6 102H22.85C23.1667 102 23.3917 102.075 23.525 102.225C23.675 102.358 23.75 102.583 23.75 102.9V105.925C23.75 106.242 23.675 106.475 23.525 106.625C23.3917 106.758 23.1667 106.825 22.85 106.825H17.65C17.1333 106.825 16.75 106.933 16.5 107.15C16.25 107.35 16.125 107.658 16.125 108.075V114.05C16.125 114.467 16.2167 114.775 16.4 114.975C16.6 115.175 16.8917 115.275 17.275 115.275H19.7V111.375C19.7 111.058 19.7667 110.833 19.9 110.7C20.05 110.55 20.2833 110.475 20.6 110.475H24.475C24.7917 110.475 25.0167 110.55 25.15 110.7C25.3 110.833 25.375 111.058 25.375 111.375V119.1C25.375 119.417 25.3 119.65 25.15 119.8C25.0167 119.933 24.7917 120 24.475 120ZM43.7502 115.275C43.7502 116.042 43.6335 116.742 43.4002 117.375C43.1835 117.992 42.7835 118.525 42.2002 118.975C41.6335 119.408 40.8502 119.75 39.8502 120C38.8502 120.25 37.5752 120.375 36.0252 120.375C34.4752 120.375 33.2002 120.25 32.2002 120C31.2002 119.75 30.4085 119.408 29.8252 118.975C29.2585 118.525 28.8585 117.992 28.6252 117.375C28.4085 116.742 28.3002 116.042 28.3002 115.275V102.9C28.3002 102.583 28.3669 102.358 28.5002 102.225C28.6502 102.075 28.8835 102 29.2002 102H33.1252C33.4419 102 33.6669 102.075 33.8002 102.225C33.9502 102.358 34.0252 102.583 34.0252 102.9V114.3C34.0252 114.633 34.1502 114.917 34.4002 115.15C34.6502 115.367 35.2085 115.475 36.0752 115.475C36.9585 115.475 37.5252 115.367 37.7752 115.15C38.0252 114.917 38.1502 114.633 38.1502 114.3V102.9C38.1502 102.583 38.2169 102.358 38.3502 102.225C38.5002 102.075 38.7335 102 39.0502 102H42.8502C43.1669 102 43.3919 102.075 43.5252 102.225C43.6752 102.358 43.7502 102.583 43.7502 102.9V115.275ZM47.5775 120C47.2609 120 47.0275 119.933 46.8775 119.8C46.7442 119.65 46.6775 119.417 46.6775 119.1V116.125C46.6775 115.808 46.7442 115.583 46.8775 115.45C47.0275 115.3 47.2609 115.225 47.5775 115.225H50.0525V106.825H47.5775C47.2609 106.825 47.0275 106.758 46.8775 106.625C46.7442 106.475 46.6775 106.242 46.6775 105.925V102.9C46.6775 102.583 46.7442 102.358 46.8775 102.225C47.0275 102.075 47.2609 102 47.5775 102H58.2275C58.5442 102 58.7692 102.075 58.9025 102.225C59.0525 102.358 59.1275 102.583 59.1275 102.9V105.925C59.1275 106.242 59.0525 106.475 58.9025 106.625C58.7692 106.758 58.5442 106.825 58.2275 106.825H55.8025V115.225H58.2275C58.5442 115.225 58.7692 115.3 58.9025 115.45C59.0525 115.583 59.1275 115.808 59.1275 116.125V119.1C59.1275 119.417 59.0525 119.65 58.9025 119.8C58.7692 119.933 58.5442 120 58.2275 120H47.5775ZM70.7143 120H66.6643C66.3476 120 66.1143 119.933 65.9643 119.8C65.8309 119.65 65.7643 119.417 65.7643 119.1V106.825H62.0893C61.7726 106.825 61.5393 106.758 61.3893 106.625C61.2559 106.475 61.1893 106.242 61.1893 105.925V102.9C61.1893 102.583 61.2559 102.358 61.3893 102.225C61.5393 102.075 61.7726 102 62.0893 102H75.2893C75.6059 102 75.8309 102.075 75.9643 102.225C76.1143 102.358 76.1893 102.583 76.1893 102.9V105.925C76.1893 106.242 76.1143 106.475 75.9643 106.625C75.8309 106.758 75.6059 106.825 75.2893 106.825H71.6143V119.1C71.6143 119.417 71.5393 119.65 71.3893 119.8C71.2559 119.933 71.0309 120 70.7143 120ZM84.1445 107.25L82.9695 111.05H86.8945L85.7195 107.25C85.6529 107.1 85.5779 106.992 85.4945 106.925C85.4279 106.858 85.3445 106.825 85.2445 106.825H84.6195C84.5195 106.825 84.4279 106.858 84.3445 106.925C84.2779 106.992 84.2112 107.1 84.1445 107.25ZM82.7195 119.1C82.7195 119.417 82.6445 119.65 82.4945 119.8C82.3612 119.933 82.1362 120 81.8195 120H78.1445C77.8279 120 77.5945 119.933 77.4445 119.8C77.3112 119.65 77.2445 119.417 77.2445 119.1V112.5C77.2445 112 77.3195 111.425 77.4695 110.775C77.6362 110.125 77.8862 109.367 78.2195 108.5L80.3945 102.825C80.4945 102.542 80.6445 102.333 80.8445 102.2C81.0612 102.067 81.3362 102 81.6695 102H88.3945C88.7112 102 88.9695 102.067 89.1695 102.2C89.3862 102.333 89.5445 102.542 89.6445 102.825L91.8195 108.5C92.1529 109.367 92.3945 110.125 92.5445 110.775C92.7112 111.425 92.7945 112 92.7945 112.5V119.1C92.7945 119.417 92.7195 119.65 92.5695 119.8C92.4362 119.933 92.2112 120 91.8945 120H88.1195C87.7862 120 87.5362 119.933 87.3695 119.8C87.2195 119.65 87.1445 119.417 87.1445 119.1V115.6H82.7195V119.1ZM101.531 106.5V109.7H103.406C103.84 109.7 104.131 109.592 104.281 109.375C104.431 109.142 104.506 108.858 104.506 108.525V107.675C104.506 107.342 104.431 107.067 104.281 106.85C104.131 106.617 103.84 106.5 103.406 106.5H101.531ZM100.631 120H96.7813C96.4646 120 96.2313 119.933 96.0813 119.8C95.9479 119.65 95.8813 119.417 95.8813 119.1V102.9C95.8813 102.583 95.9479 102.358 96.0813 102.225C96.2313 102.075 96.4646 102 96.7813 102H105.106C106.973 102 108.256 102.392 108.956 103.175C109.673 103.942 110.031 104.942 110.031 106.175V107.325C110.031 108.025 109.923 108.625 109.706 109.125C109.506 109.608 109.148 109.958 108.631 110.175C109.531 110.275 110.256 110.642 110.806 111.275C111.373 111.908 111.656 112.75 111.656 113.8V119.1C111.656 119.417 111.581 119.65 111.431 119.8C111.298 119.933 111.073 120 110.756 120H106.881C106.565 120 106.331 119.933 106.181 119.8C106.048 119.65 105.981 119.417 105.981 119.1V115.275C105.981 114.908 105.906 114.642 105.756 114.475C105.623 114.292 105.381 114.2 105.031 114.2H101.531V119.1C101.531 119.417 101.456 119.65 101.306 119.8C101.173 119.933 100.948 120 100.631 120ZM126.96 120H115.36C115.044 120 114.81 119.933 114.66 119.8C114.527 119.65 114.46 119.417 114.46 119.1V102.9C114.46 102.583 114.527 102.358 114.66 102.225C114.81 102.075 115.044 102 115.36 102H126.96C127.277 102 127.502 102.075 127.635 102.225C127.785 102.358 127.86 102.583 127.86 102.9V105.825C127.86 106.142 127.785 106.375 127.635 106.525C127.502 106.658 127.277 106.725 126.96 106.725H120.06V108.65H124.935C125.252 108.65 125.477 108.725 125.61 108.875C125.76 109.008 125.835 109.233 125.835 109.55V112.225C125.835 112.542 125.76 112.775 125.61 112.925C125.477 113.058 125.252 113.125 124.935 113.125H120.06V115.275H126.96C127.277 115.275 127.502 115.35 127.635 115.5C127.785 115.633 127.86 115.858 127.86 116.175V119.1C127.86 119.417 127.785 119.65 127.635 119.8C127.502 119.933 127.277 120 126.96 120ZM136.468 106.5V109.7H138.343C138.776 109.7 139.068 109.592 139.218 109.375C139.368 109.142 139.443 108.858 139.443 108.525V107.675C139.443 107.342 139.368 107.067 139.218 106.85C139.068 106.617 138.776 106.5 138.343 106.5H136.468ZM135.568 120H131.718C131.401 120 131.168 119.933 131.018 119.8C130.884 119.65 130.818 119.417 130.818 119.1V102.9C130.818 102.583 130.884 102.358 131.018 102.225C131.168 102.075 131.401 102 131.718 102H140.043C141.909 102 143.193 102.392 143.893 103.175C144.609 103.942 144.968 104.942 144.968 106.175V107.325C144.968 108.025 144.859 108.625 144.643 109.125C144.443 109.608 144.084 109.958 143.568 110.175C144.468 110.275 145.193 110.642 145.743 111.275C146.309 111.908 146.593 112.75 146.593 113.8V119.1C146.593 119.417 146.518 119.65 146.368 119.8C146.234 119.933 146.009 120 145.693 120H141.818C141.501 120 141.268 119.933 141.118 119.8C140.984 119.65 140.918 119.417 140.918 119.1V115.275C140.918 114.908 140.843 114.642 140.693 114.475C140.559 114.292 140.318 114.2 139.968 114.2H136.468V119.1C136.468 119.417 136.393 119.65 136.243 119.8C136.109 119.933 135.884 120 135.568 120ZM152.197 122.5H150.272C149.955 122.5 149.722 122.425 149.572 122.275C149.439 122.142 149.372 121.917 149.372 121.6V120.6C149.372 120.283 149.439 120.058 149.572 119.925C149.722 119.775 149.955 119.7 150.272 119.7H151.997C152.214 119.7 152.38 119.642 152.497 119.525C152.614 119.392 152.672 119.217 152.672 119V118.625H149.947C149.63 118.625 149.397 118.558 149.247 118.425C149.114 118.275 149.047 118.042 149.047 117.725V114.025C149.047 113.708 149.114 113.483 149.247 113.35C149.397 113.2 149.63 113.125 149.947 113.125H154.997C155.314 113.125 155.539 113.2 155.672 113.35C155.822 113.483 155.897 113.708 155.897 114.025V118.725C155.897 119.992 155.555 120.933 154.872 121.55C154.205 122.183 153.314 122.5 152.197 122.5ZM19.075 150H11.175C10.8583 150 10.625 149.933 10.475 149.8C10.3417 149.65 10.275 149.417 10.275 149.1V146.175C10.275 145.858 10.3417 145.633 10.475 145.5C10.625 145.35 10.8583 145.275 11.175 145.275H17.9C18.1167 145.275 18.275 145.208 18.375 145.075C18.4917 144.925 18.55 144.75 18.55 144.55C18.55 144.267 18.4917 144.058 18.375 143.925C18.275 143.792 18.1167 143.717 17.9 143.7L14.15 143.175C12.9833 143.008 12.0417 142.625 11.325 142.025C10.625 141.425 10.275 140.425 10.275 139.025V136.4C10.275 134.983 10.7333 133.9 11.65 133.15C12.5667 132.383 13.8333 132 15.45 132H22.45C22.7667 132 22.9917 132.075 23.125 132.225C23.275 132.358 23.35 132.583 23.35 132.9V135.875C23.35 136.192 23.275 136.425 23.125 136.575C22.9917 136.708 22.7667 136.775 22.45 136.775H16.625C16.4083 136.775 16.2417 136.85 16.125 137C16.0083 137.133 15.95 137.308 15.95 137.525C15.95 137.742 16.0083 137.925 16.125 138.075C16.2417 138.225 16.4083 138.308 16.625 138.325L20.35 138.825C21.5167 138.992 22.4583 139.375 23.175 139.975C23.8917 140.575 24.25 141.575 24.25 142.975V145.6C24.25 147.017 23.7833 148.108 22.85 148.875C21.9333 149.625 20.675 150 19.075 150ZM35.2406 150H31.1906C30.874 150 30.6406 149.933 30.4906 149.8C30.3573 149.65 30.2906 149.417 30.2906 149.1V136.825H26.6156C26.299 136.825 26.0656 136.758 25.9156 136.625C25.7823 136.475 25.7156 136.242 25.7156 135.925V132.9C25.7156 132.583 25.7823 132.358 25.9156 132.225C26.0656 132.075 26.299 132 26.6156 132H39.8156C40.1323 132 40.3573 132.075 40.4906 132.225C40.6406 132.358 40.7156 132.583 40.7156 132.9V135.925C40.7156 136.242 40.6406 136.475 40.4906 136.625C40.3573 136.758 40.1323 136.825 39.8156 136.825H36.1406V149.1C36.1406 149.417 36.0656 149.65 35.9156 149.8C35.7823 149.933 35.5573 150 35.2406 150ZM48.7709 137.15L47.4709 141.05H51.4209V136.725H49.2459C49.1126 136.725 49.0126 136.758 48.9459 136.825C48.8959 136.875 48.8376 136.983 48.7709 137.15ZM47.2209 149.1C47.2209 149.417 47.1459 149.65 46.9959 149.8C46.8626 149.933 46.6376 150 46.3209 150H42.6709C42.3542 150 42.1209 149.933 41.9709 149.8C41.8376 149.65 41.7709 149.417 41.7709 149.1V142.75C41.7709 142.017 41.8292 141.367 41.9459 140.8C42.0792 140.217 42.2626 139.617 42.4959 139L44.6709 133.025C44.8042 132.642 44.9876 132.375 45.2209 132.225C45.4709 132.075 45.8042 132 46.2209 132H63.4209C63.7376 132 63.9626 132.075 64.0959 132.225C64.2459 132.358 64.3209 132.583 64.3209 132.9V135.825C64.3209 136.142 64.2459 136.375 64.0959 136.525C63.9626 136.658 63.7376 136.725 63.4209 136.725H57.0959V138.65H61.3959C61.7126 138.65 61.9376 138.725 62.0709 138.875C62.2209 139.008 62.2959 139.233 62.2959 139.55V142.225C62.2959 142.542 62.2209 142.775 62.0709 142.925C61.9376 143.058 61.7126 143.125 61.3959 143.125H57.0959V145.275H63.4209C63.7376 145.275 63.9626 145.35 64.0959 145.5C64.2459 145.633 64.3209 145.858 64.3209 146.175V149.1C64.3209 149.417 64.2459 149.65 64.0959 149.8C63.9626 149.933 63.7376 150 63.4209 150H52.3209C52.0042 150 51.7709 149.933 51.6209 149.8C51.4876 149.65 51.4209 149.417 51.4209 149.1V145.6H47.2209V149.1ZM72.918 136.5V139.7H74.793C75.2263 139.7 75.518 139.592 75.668 139.375C75.818 139.142 75.893 138.858 75.893 138.525V137.675C75.893 137.342 75.818 137.067 75.668 136.85C75.518 136.617 75.2263 136.5 74.793 136.5H72.918ZM72.018 150H68.168C67.8513 150 67.618 149.933 67.468 149.8C67.3346 149.65 67.268 149.417 67.268 149.1V132.9C67.268 132.583 67.3346 132.358 67.468 132.225C67.618 132.075 67.8513 132 68.168 132H76.493C78.3596 132 79.643 132.392 80.343 133.175C81.0596 133.942 81.418 134.942 81.418 136.175V137.325C81.418 138.025 81.3096 138.625 81.093 139.125C80.893 139.608 80.5346 139.958 80.018 140.175C80.918 140.275 81.643 140.642 82.193 141.275C82.7596 141.908 83.043 142.75 83.043 143.8V149.1C83.043 149.417 82.968 149.65 82.818 149.8C82.6846 149.933 82.4596 150 82.143 150H78.268C77.9513 150 77.718 149.933 77.568 149.8C77.4346 149.65 77.368 149.417 77.368 149.1V145.275C77.368 144.908 77.293 144.642 77.143 144.475C77.0096 144.292 76.768 144.2 76.418 144.2H72.918V149.1C72.918 149.417 72.843 149.65 72.693 149.8C72.5596 149.933 72.3346 150 72.018 150ZM90.6221 150H86.7471C86.4304 150 86.1971 149.933 86.0471 149.8C85.9137 149.65 85.8471 149.417 85.8471 149.1V132.9C85.8471 132.583 85.9137 132.358 86.0471 132.225C86.1971 132.075 86.4304 132 86.7471 132H90.6221C90.9387 132 91.1637 132.075 91.2971 132.225C91.4471 132.358 91.5221 132.583 91.5221 132.9V138.65H92.5221L95.0971 132.825C95.2137 132.525 95.3721 132.317 95.5721 132.2C95.7721 132.067 96.0304 132 96.3471 132H100.197C100.48 132 100.672 132.075 100.772 132.225C100.872 132.358 100.864 132.558 100.747 132.825L98.1971 138.65C99.1304 138.7 99.8721 139.033 100.422 139.65C100.989 140.25 101.272 141.05 101.272 142.05V149.1C101.272 149.417 101.197 149.65 101.047 149.8C100.914 149.933 100.689 150 100.372 150H96.5221C96.2054 150 95.9721 149.933 95.8221 149.8C95.6887 149.65 95.6221 149.417 95.6221 149.1V144.225C95.6221 143.958 95.5554 143.75 95.4221 143.6C95.2887 143.45 95.0887 143.375 94.8221 143.375H91.5221V149.1C91.5221 149.417 91.4471 149.65 91.2971 149.8C91.1637 149.933 90.9387 150 90.6221 150ZM115.765 136.5V139.7H117.64C118.073 139.7 118.365 139.592 118.515 139.375C118.665 139.142 118.74 138.858 118.74 138.525V137.675C118.74 137.342 118.665 137.067 118.515 136.85C118.365 136.617 118.073 136.5 117.64 136.5H115.765ZM114.865 150H111.015C110.698 150 110.465 149.933 110.315 149.8C110.181 149.65 110.115 149.417 110.115 149.1V132.9C110.115 132.583 110.181 132.358 110.315 132.225C110.465 132.075 110.698 132 111.015 132H119.34C121.206 132 122.49 132.392 123.19 133.175C123.906 133.942 124.265 134.942 124.265 136.175V137.325C124.265 138.025 124.156 138.625 123.94 139.125C123.74 139.608 123.381 139.958 122.865 140.175C123.765 140.275 124.49 140.642 125.04 141.275C125.606 141.908 125.89 142.75 125.89 143.8V149.1C125.89 149.417 125.815 149.65 125.665 149.8C125.531 149.933 125.306 150 124.99 150H121.115C120.798 150 120.565 149.933 120.415 149.8C120.281 149.65 120.215 149.417 120.215 149.1V145.275C120.215 144.908 120.14 144.642 119.99 144.475C119.856 144.292 119.615 144.2 119.265 144.2H115.765V149.1C115.765 149.417 115.69 149.65 115.54 149.8C115.406 149.933 115.181 150 114.865 150ZM137.062 150H133.012C132.695 150 132.462 149.933 132.312 149.8C132.179 149.65 132.112 149.417 132.112 149.1V145.9L128.287 140.775C127.904 140.258 127.645 139.808 127.512 139.425C127.395 139.042 127.337 138.467 127.337 137.7V132.9C127.337 132.583 127.404 132.358 127.537 132.225C127.687 132.075 127.92 132 128.237 132H132.087C132.404 132 132.629 132.075 132.762 132.225C132.912 132.358 132.987 132.583 132.987 132.9V137C132.987 137.167 132.995 137.342 133.012 137.525C133.029 137.708 133.095 137.883 133.212 138.05L134.362 139.85C134.445 140 134.529 140.108 134.612 140.175C134.712 140.242 134.829 140.275 134.962 140.275H135.212C135.345 140.275 135.454 140.242 135.537 140.175C135.637 140.108 135.729 140 135.812 139.85L136.962 138.05C137.079 137.883 137.145 137.708 137.162 137.525C137.179 137.342 137.187 137.167 137.187 137V132.9C137.187 132.583 137.254 132.358 137.387 132.225C137.537 132.075 137.77 132 138.087 132H141.812C142.129 132 142.354 132.075 142.487 132.225C142.637 132.358 142.712 132.583 142.712 132.9V137.7C142.712 138.467 142.645 139.042 142.512 139.425C142.379 139.808 142.129 140.258 141.762 140.775L137.962 145.925V149.1C137.962 149.417 137.887 149.65 137.737 149.8C137.604 149.933 137.379 150 137.062 150ZM154.064 150H150.014C149.697 150 149.464 149.933 149.314 149.8C149.181 149.65 149.114 149.417 149.114 149.1V136.825H145.439C145.122 136.825 144.889 136.758 144.739 136.625C144.606 136.475 144.539 136.242 144.539 135.925V132.9C144.539 132.583 144.606 132.358 144.739 132.225C144.889 132.075 145.122 132 145.439 132H158.639C158.956 132 159.181 132.075 159.314 132.225C159.464 132.358 159.539 132.583 159.539 132.9V135.925C159.539 136.242 159.464 136.475 159.314 136.625C159.181 136.758 158.956 136.825 158.639 136.825H154.964V149.1C154.964 149.417 154.889 149.65 154.739 149.8C154.606 149.933 154.381 150 154.064 150ZM166.595 150H162.87C162.553 150 162.32 149.933 162.17 149.8C162.037 149.65 161.97 149.417 161.97 149.1V132.9C161.97 132.583 162.037 132.358 162.17 132.225C162.32 132.075 162.553 132 162.87 132H166.895C167.162 132 167.378 132.058 167.545 132.175C167.728 132.292 167.895 132.483 168.045 132.75L170.295 136.825C170.378 136.975 170.445 137.083 170.495 137.15C170.562 137.217 170.645 137.25 170.745 137.25H170.97C171.07 137.25 171.145 137.217 171.195 137.15C171.262 137.083 171.337 136.975 171.42 136.825L173.645 132.75C173.795 132.483 173.953 132.292 174.12 132.175C174.303 132.058 174.528 132 174.795 132H178.845C179.162 132 179.387 132.075 179.52 132.225C179.67 132.358 179.745 132.583 179.745 132.9V149.1C179.745 149.417 179.67 149.65 179.52 149.8C179.387 149.933 179.162 150 178.845 150H174.995C174.678 150 174.445 149.933 174.295 149.8C174.162 149.65 174.095 149.417 174.095 149.1V140.3L172.62 143.025C172.47 143.308 172.287 143.517 172.07 143.65C171.87 143.767 171.612 143.825 171.295 143.825H170.295C169.978 143.825 169.712 143.767 169.495 143.65C169.295 143.517 169.12 143.308 168.97 143.025L167.495 140.3V149.1C167.495 149.417 167.42 149.65 167.27 149.8C167.137 149.933 166.912 150 166.595 150ZM195.686 150H184.086C183.769 150 183.536 149.933 183.386 149.8C183.253 149.65 183.186 149.417 183.186 149.1V132.9C183.186 132.583 183.253 132.358 183.386 132.225C183.536 132.075 183.769 132 184.086 132H195.686C196.003 132 196.228 132.075 196.361 132.225C196.511 132.358 196.586 132.583 196.586 132.9V135.825C196.586 136.142 196.511 136.375 196.361 136.525C196.228 136.658 196.003 136.725 195.686 136.725H188.786V138.65H193.661C193.978 138.65 194.203 138.725 194.336 138.875C194.486 139.008 194.561 139.233 194.561 139.55V142.225C194.561 142.542 194.486 142.775 194.336 142.925C194.203 143.058 193.978 143.125 193.661 143.125H188.786V145.275H195.686C196.003 145.275 196.228 145.35 196.361 145.5C196.511 145.633 196.586 145.858 196.586 146.175V149.1C196.586 149.417 196.511 149.65 196.361 149.8C196.228 149.933 196.003 150 195.686 150ZM25.975 175.275C25.975 176.042 25.8583 176.742 25.625 177.375C25.4083 177.992 25.0083 178.525 24.425 178.975C23.8583 179.408 23.0667 179.75 22.05 180C21.05 180.25 19.775 180.375 18.225 180.375C16.675 180.375 15.3917 180.25 14.375 180C13.3583 179.75 12.5583 179.408 11.975 178.975C11.4083 178.525 11.0083 177.992 10.775 177.375C10.5583 176.742 10.45 176.042 10.45 175.275V166.75C10.45 165.983 10.5583 165.292 10.775 164.675C11.0083 164.042 11.4083 163.5 11.975 163.05C12.5583 162.6 13.3583 162.25 14.375 162C15.3917 161.75 16.675 161.625 18.225 161.625C19.775 161.625 21.05 161.75 22.05 162C23.0667 162.25 23.8583 162.6 24.425 163.05C25.0083 163.5 25.4083 164.042 25.625 164.675C25.8583 165.292 25.975 165.983 25.975 166.75V175.275ZM16.125 174.375C16.125 174.708 16.25 174.992 16.5 175.225C16.75 175.442 17.325 175.55 18.225 175.55C19.125 175.55 19.7 175.442 19.95 175.225C20.2 174.992 20.325 174.708 20.325 174.375V167.65C20.325 167.333 20.2 167.067 19.95 166.85C19.7 166.617 19.125 166.5 18.225 166.5C17.325 166.5 16.75 166.617 16.5 166.85C16.25 167.067 16.125 167.333 16.125 167.65V174.375ZM42.9076 180H35.0326C32.9493 180 31.3993 179.583 30.3826 178.75C29.3826 177.917 28.8826 176.633 28.8826 174.9V167.1C28.8826 165.367 29.3826 164.083 30.3826 163.25C31.3993 162.417 32.9493 162 35.0326 162H41.2826C41.5993 162 41.8243 162.075 41.9576 162.225C42.1076 162.358 42.1826 162.583 42.1826 162.9V165.925C42.1826 166.242 42.1076 166.475 41.9576 166.625C41.8243 166.758 41.5993 166.825 41.2826 166.825H36.0826C35.566 166.825 35.1826 166.933 34.9326 167.15C34.6826 167.35 34.5576 167.658 34.5576 168.075V174.05C34.5576 174.467 34.6493 174.775 34.8326 174.975C35.0326 175.175 35.3243 175.275 35.7076 175.275H38.1326V171.375C38.1326 171.058 38.1993 170.833 38.3326 170.7C38.4826 170.55 38.716 170.475 39.0326 170.475H42.9076C43.2243 170.475 43.4493 170.55 43.5826 170.7C43.7326 170.833 43.8076 171.058 43.8076 171.375V179.1C43.8076 179.417 43.7326 179.65 43.5826 179.8C43.4493 179.933 43.2243 180 42.9076 180ZM67.723 175.275C67.723 176.042 67.6064 176.742 67.373 177.375C67.1564 177.992 66.7564 178.525 66.173 178.975C65.6064 179.408 64.8147 179.75 63.798 180C62.798 180.25 61.523 180.375 59.973 180.375C58.423 180.375 57.1397 180.25 56.123 180C55.1064 179.75 54.3064 179.408 53.723 178.975C53.1564 178.525 52.7564 177.992 52.523 177.375C52.3064 176.742 52.198 176.042 52.198 175.275V166.75C52.198 165.983 52.3064 165.292 52.523 164.675C52.7564 164.042 53.1564 163.5 53.723 163.05C54.3064 162.6 55.1064 162.25 56.123 162C57.1397 161.75 58.423 161.625 59.973 161.625C61.523 161.625 62.798 161.75 63.798 162C64.8147 162.25 65.6064 162.6 66.173 163.05C66.7564 163.5 67.1564 164.042 67.373 164.675C67.6064 165.292 67.723 165.983 67.723 166.75V175.275ZM57.873 174.375C57.873 174.708 57.998 174.992 58.248 175.225C58.498 175.442 59.073 175.55 59.973 175.55C60.873 175.55 61.448 175.442 61.698 175.225C61.948 174.992 62.073 174.708 62.073 174.375V167.65C62.073 167.333 61.948 167.067 61.698 166.85C61.448 166.617 60.873 166.5 59.973 166.5C59.073 166.5 58.498 166.617 58.248 166.85C57.998 167.067 57.873 167.333 57.873 167.65V174.375ZM75.6807 180H71.8057C71.489 180 71.2557 179.933 71.1057 179.8C70.9723 179.65 70.9057 179.417 70.9057 179.1V162.9C70.9057 162.583 70.9723 162.358 71.1057 162.225C71.2557 162.075 71.489 162 71.8057 162H79.4557C81.7223 162 83.2723 162.45 84.1057 163.35C84.939 164.25 85.3557 165.425 85.3557 166.875V170.075C85.3557 171.525 84.939 172.7 84.1057 173.6C83.2723 174.5 81.7223 174.95 79.4557 174.95H76.5807V179.1C76.5807 179.417 76.5057 179.65 76.3557 179.8C76.2223 179.933 75.9973 180 75.6807 180ZM76.5307 166.675V170.45H78.7807C79.264 170.45 79.5807 170.325 79.7307 170.075C79.8807 169.825 79.9557 169.542 79.9557 169.225V167.9C79.9557 167.583 79.8807 167.3 79.7307 167.05C79.5807 166.8 79.264 166.675 78.7807 166.675H76.5307ZM93.5967 166.5V169.7H95.4717C95.905 169.7 96.1967 169.592 96.3467 169.375C96.4967 169.142 96.5717 168.858 96.5717 168.525V167.675C96.5717 167.342 96.4967 167.067 96.3467 166.85C96.1967 166.617 95.905 166.5 95.4717 166.5H93.5967ZM92.6967 180H88.8467C88.53 180 88.2967 179.933 88.1467 179.8C88.0133 179.65 87.9467 179.417 87.9467 179.1V162.9C87.9467 162.583 88.0133 162.358 88.1467 162.225C88.2967 162.075 88.53 162 88.8467 162H97.1717C99.0383 162 100.322 162.392 101.022 163.175C101.738 163.942 102.097 164.942 102.097 166.175V167.325C102.097 168.025 101.988 168.625 101.772 169.125C101.572 169.608 101.213 169.958 100.697 170.175C101.597 170.275 102.322 170.642 102.872 171.275C103.438 171.908 103.722 172.75 103.722 173.8V179.1C103.722 179.417 103.647 179.65 103.497 179.8C103.363 179.933 103.138 180 102.822 180H98.9467C98.63 180 98.3967 179.933 98.2467 179.8C98.1133 179.65 98.0467 179.417 98.0467 179.1V175.275C98.0467 174.908 97.9717 174.642 97.8217 174.475C97.6883 174.292 97.4467 174.2 97.0967 174.2H93.5967V179.1C93.5967 179.417 93.5217 179.65 93.3717 179.8C93.2383 179.933 93.0133 180 92.6967 180ZM111.304 167.65V173.075L114.204 166.25C114.204 166.25 114.187 166.25 114.154 166.25C114.12 166.25 114.037 166.25 113.904 166.25C112.787 166.25 112.07 166.383 111.754 166.65C111.454 166.917 111.304 167.25 111.304 167.65ZM113.904 175.8C115.037 175.8 115.754 175.667 116.054 175.4C116.354 175.133 116.504 174.792 116.504 174.375V168.85L113.554 175.8C113.57 175.8 113.595 175.8 113.629 175.8C113.662 175.8 113.754 175.8 113.904 175.8ZM112.054 180.85C111.904 181.117 111.754 181.333 111.604 181.5C111.454 181.667 111.22 181.75 110.904 181.75H108.029C107.712 181.75 107.487 181.667 107.354 181.5C107.22 181.333 107.229 181.117 107.379 180.85L108.054 179.225C107.337 178.775 106.837 178.217 106.554 177.55C106.27 176.867 106.129 176.108 106.129 175.275V166.75C106.129 165.983 106.237 165.292 106.454 164.675C106.687 164.042 107.087 163.5 107.654 163.05C108.237 162.6 109.037 162.25 110.054 162C111.07 161.75 112.354 161.625 113.904 161.625C114.187 161.625 114.462 161.633 114.729 161.65C114.995 161.65 115.254 161.658 115.504 161.675L115.729 161.15C115.879 160.883 116.029 160.667 116.179 160.5C116.329 160.333 116.562 160.25 116.879 160.25H119.754C120.07 160.25 120.295 160.333 120.429 160.5C120.562 160.667 120.554 160.883 120.404 161.15L119.729 162.775C120.462 163.225 120.962 163.792 121.229 164.475C121.512 165.142 121.654 165.9 121.654 166.75V175.275C121.654 176.042 121.537 176.742 121.304 177.375C121.087 177.992 120.687 178.525 120.104 178.975C119.537 179.408 118.745 179.75 117.729 180C116.729 180.25 115.454 180.375 113.904 180.375C113.62 180.375 113.337 180.367 113.054 180.35C112.787 180.35 112.529 180.342 112.279 180.325L112.054 180.85ZM130.486 166.5V169.7H132.361C132.795 169.7 133.086 169.592 133.236 169.375C133.386 169.142 133.461 168.858 133.461 168.525V167.675C133.461 167.342 133.386 167.067 133.236 166.85C133.086 166.617 132.795 166.5 132.361 166.5H130.486ZM129.586 180H125.736C125.42 180 125.186 179.933 125.036 179.8C124.903 179.65 124.836 179.417 124.836 179.1V162.9C124.836 162.583 124.903 162.358 125.036 162.225C125.186 162.075 125.42 162 125.736 162H134.061C135.928 162 137.211 162.392 137.911 163.175C138.628 163.942 138.986 164.942 138.986 166.175V167.325C138.986 168.025 138.878 168.625 138.661 169.125C138.461 169.608 138.103 169.958 137.586 170.175C138.486 170.275 139.211 170.642 139.761 171.275C140.328 171.908 140.611 172.75 140.611 173.8V179.1C140.611 179.417 140.536 179.65 140.386 179.8C140.253 179.933 140.028 180 139.711 180H135.836C135.52 180 135.286 179.933 135.136 179.8C135.003 179.65 134.936 179.417 134.936 179.1V175.275C134.936 174.908 134.861 174.642 134.711 174.475C134.578 174.292 134.336 174.2 133.986 174.2H130.486V179.1C130.486 179.417 130.411 179.65 130.261 179.8C130.128 179.933 129.903 180 129.586 180ZM151.765 180H143.865C143.549 180 143.315 179.933 143.165 179.8C143.032 179.65 142.965 179.417 142.965 179.1V176.175C142.965 175.858 143.032 175.633 143.165 175.5C143.315 175.35 143.549 175.275 143.865 175.275H150.59C150.807 175.275 150.965 175.208 151.065 175.075C151.182 174.925 151.24 174.75 151.24 174.55C151.24 174.267 151.182 174.058 151.065 173.925C150.965 173.792 150.807 173.717 150.59 173.7L146.84 173.175C145.674 173.008 144.732 172.625 144.015 172.025C143.315 171.425 142.965 170.425 142.965 169.025V166.4C142.965 164.983 143.424 163.9 144.34 163.15C145.257 162.383 146.524 162 148.14 162H155.14C155.457 162 155.682 162.075 155.815 162.225C155.965 162.358 156.04 162.583 156.04 162.9V165.875C156.04 166.192 155.965 166.425 155.815 166.575C155.682 166.708 155.457 166.775 155.14 166.775H149.315C149.099 166.775 148.932 166.85 148.815 167C148.699 167.133 148.64 167.308 148.64 167.525C148.64 167.742 148.699 167.925 148.815 168.075C148.932 168.225 149.099 168.308 149.315 168.325L153.04 168.825C154.207 168.992 155.149 169.375 155.865 169.975C156.582 170.575 156.94 171.575 156.94 172.975V175.6C156.94 177.017 156.474 178.108 155.54 178.875C154.624 179.625 153.365 180 151.765 180ZM164.45 180H160.575C160.259 180 160.025 179.933 159.875 179.8C159.742 179.65 159.675 179.417 159.675 179.1V162.9C159.675 162.583 159.742 162.358 159.875 162.225C160.025 162.075 160.259 162 160.575 162H164.45C164.767 162 164.992 162.075 165.125 162.225C165.275 162.358 165.35 162.583 165.35 162.9V168.65H166.35L168.925 162.825C169.042 162.525 169.2 162.317 169.4 162.2C169.6 162.067 169.859 162 170.175 162H174.025C174.309 162 174.5 162.075 174.6 162.225C174.7 162.358 174.692 162.558 174.575 162.825L172.025 168.65C172.959 168.7 173.7 169.033 174.25 169.65C174.817 170.25 175.1 171.05 175.1 172.05V179.1C175.1 179.417 175.025 179.65 174.875 179.8C174.742 179.933 174.517 180 174.2 180H170.35C170.034 180 169.8 179.933 169.65 179.8C169.517 179.65 169.45 179.417 169.45 179.1V174.225C169.45 173.958 169.384 173.75 169.25 173.6C169.117 173.45 168.917 173.375 168.65 173.375H165.35V179.1C165.35 179.417 165.275 179.65 165.125 179.8C164.992 179.933 164.767 180 164.45 180ZM17.25 197.25L16.075 201.05H20L18.825 197.25C18.7583 197.1 18.6833 196.992 18.6 196.925C18.5333 196.858 18.45 196.825 18.35 196.825H17.725C17.625 196.825 17.5333 196.858 17.45 196.925C17.3833 196.992 17.3167 197.1 17.25 197.25ZM15.825 209.1C15.825 209.417 15.75 209.65 15.6 209.8C15.4667 209.933 15.2417 210 14.925 210H11.25C10.9333 210 10.7 209.933 10.55 209.8C10.4167 209.65 10.35 209.417 10.35 209.1V202.5C10.35 202 10.425 201.425 10.575 200.775C10.7417 200.125 10.9917 199.367 11.325 198.5L13.5 192.825C13.6 192.542 13.75 192.333 13.95 192.2C14.1667 192.067 14.4417 192 14.775 192H21.5C21.8167 192 22.075 192.067 22.275 192.2C22.4917 192.333 22.65 192.542 22.75 192.825L24.925 198.5C25.2583 199.367 25.5 200.125 25.65 200.775C25.8167 201.425 25.9 202 25.9 202.5V209.1C25.9 209.417 25.825 209.65 25.675 209.8C25.5417 209.933 25.3167 210 25 210H21.225C20.8917 210 20.6417 209.933 20.475 209.8C20.325 209.65 20.25 209.417 20.25 209.1V205.6H15.825V209.1ZM36.4857 210H32.4357C32.1191 210 31.8857 209.933 31.7357 209.8C31.6024 209.65 31.5357 209.417 31.5357 209.1V196.825H27.8607C27.5441 196.825 27.3107 196.758 27.1607 196.625C27.0274 196.475 26.9607 196.242 26.9607 195.925V192.9C26.9607 192.583 27.0274 192.358 27.1607 192.225C27.3107 192.075 27.5441 192 27.8607 192H41.0607C41.3774 192 41.6024 192.075 41.7357 192.225C41.8857 192.358 41.9607 192.583 41.9607 192.9V195.925C41.9607 196.242 41.8857 196.475 41.7357 196.625C41.6024 196.758 41.3774 196.825 41.0607 196.825H37.3857V209.1C37.3857 209.417 37.3107 209.65 37.1607 209.8C37.0274 209.933 36.8024 210 36.4857 210ZM52.892 210H48.842C48.5253 210 48.292 209.933 48.142 209.8C48.0087 209.65 47.942 209.417 47.942 209.1V196.825H44.267C43.9503 196.825 43.717 196.758 43.567 196.625C43.4337 196.475 43.367 196.242 43.367 195.925V192.9C43.367 192.583 43.4337 192.358 43.567 192.225C43.717 192.075 43.9503 192 44.267 192H57.467C57.7837 192 58.0087 192.075 58.142 192.225C58.292 192.358 58.367 192.583 58.367 192.9V195.925C58.367 196.242 58.292 196.475 58.142 196.625C58.0087 196.758 57.7837 196.825 57.467 196.825H53.792V209.1C53.792 209.417 53.717 209.65 53.567 209.8C53.4337 209.933 53.2087 210 52.892 210ZM61.2982 210C60.9816 210 60.7482 209.933 60.5982 209.8C60.4649 209.65 60.3982 209.417 60.3982 209.1V206.125C60.3982 205.808 60.4649 205.583 60.5982 205.45C60.7482 205.3 60.9816 205.225 61.2982 205.225H63.7732V196.825H61.2982C60.9816 196.825 60.7482 196.758 60.5982 196.625C60.4649 196.475 60.3982 196.242 60.3982 195.925V192.9C60.3982 192.583 60.4649 192.358 60.5982 192.225C60.7482 192.075 60.9816 192 61.2982 192H71.9482C72.2649 192 72.4899 192.075 72.6232 192.225C72.7732 192.358 72.8482 192.583 72.8482 192.9V195.925C72.8482 196.242 72.7732 196.475 72.6232 196.625C72.4899 196.758 72.2649 196.825 71.9482 196.825H69.5232V205.225H71.9482C72.2649 205.225 72.4899 205.3 72.6232 205.45C72.7732 205.583 72.8482 205.808 72.8482 206.125V209.1C72.8482 209.417 72.7732 209.65 72.6232 209.8C72.4899 209.933 72.2649 210 71.9482 210H61.2982ZM84.435 210H80.385C80.0683 210 79.835 209.933 79.685 209.8C79.5516 209.65 79.485 209.417 79.485 209.1V196.825H75.81C75.4933 196.825 75.26 196.758 75.11 196.625C74.9766 196.475 74.91 196.242 74.91 195.925V192.9C74.91 192.583 74.9766 192.358 75.11 192.225C75.26 192.075 75.4933 192 75.81 192H89.01C89.3266 192 89.5516 192.075 89.685 192.225C89.835 192.358 89.91 192.583 89.91 192.9V195.925C89.91 196.242 89.835 196.475 89.685 196.625C89.5516 196.758 89.3266 196.825 89.01 196.825H85.335V209.1C85.335 209.417 85.26 209.65 85.11 209.8C84.9766 209.933 84.7516 210 84.435 210ZM107.666 205.275C107.666 206.042 107.55 206.742 107.316 207.375C107.1 207.992 106.7 208.525 106.116 208.975C105.55 209.408 104.766 209.75 103.766 210C102.766 210.25 101.491 210.375 99.9412 210.375C98.3912 210.375 97.1162 210.25 96.1162 210C95.1162 209.75 94.3245 209.408 93.7412 208.975C93.1745 208.525 92.7745 207.992 92.5412 207.375C92.3245 206.742 92.2162 206.042 92.2162 205.275V192.9C92.2162 192.583 92.2829 192.358 92.4162 192.225C92.5662 192.075 92.7995 192 93.1162 192H97.0412C97.3579 192 97.5829 192.075 97.7162 192.225C97.8662 192.358 97.9412 192.583 97.9412 192.9V204.3C97.9412 204.633 98.0662 204.917 98.3162 205.15C98.5662 205.367 99.1245 205.475 99.9912 205.475C100.875 205.475 101.441 205.367 101.691 205.15C101.941 204.917 102.066 204.633 102.066 204.3V192.9C102.066 192.583 102.133 192.358 102.266 192.225C102.416 192.075 102.65 192 102.966 192H106.766C107.083 192 107.308 192.075 107.441 192.225C107.591 192.358 107.666 192.583 107.666 192.9V205.275ZM120.319 210H111.894C111.577 210 111.344 209.933 111.194 209.8C111.06 209.65 110.994 209.417 110.994 209.1V192.9C110.994 192.583 111.06 192.358 111.194 192.225C111.344 192.075 111.577 192 111.894 192H120.319C122.402 192 123.944 192.417 124.944 193.25C125.96 194.083 126.469 195.367 126.469 197.1V204.9C126.469 206.633 125.96 207.917 124.944 208.75C123.944 209.583 122.402 210 120.319 210ZM116.669 196.775V205.275H119.644C120.044 205.275 120.335 205.175 120.519 204.975C120.719 204.775 120.819 204.467 120.819 204.05V197.975C120.819 197.558 120.719 197.258 120.519 197.075C120.335 196.875 120.044 196.775 119.644 196.775H116.669ZM142.146 210H130.546C130.229 210 129.996 209.933 129.846 209.8C129.713 209.65 129.646 209.417 129.646 209.1V192.9C129.646 192.583 129.713 192.358 129.846 192.225C129.996 192.075 130.229 192 130.546 192H142.146C142.463 192 142.688 192.075 142.821 192.225C142.971 192.358 143.046 192.583 143.046 192.9V195.825C143.046 196.142 142.971 196.375 142.821 196.525C142.688 196.658 142.463 196.725 142.146 196.725H135.246V198.65H140.121C140.438 198.65 140.663 198.725 140.796 198.875C140.946 199.008 141.021 199.233 141.021 199.55V202.225C141.021 202.542 140.946 202.775 140.796 202.925C140.663 203.058 140.438 203.125 140.121 203.125H135.246V205.275H142.146C142.463 205.275 142.688 205.35 142.821 205.5C142.971 205.633 143.046 205.858 143.046 206.175V209.1C143.046 209.417 142.971 209.65 142.821 209.8C142.688 209.933 142.463 210 142.146 210ZM151.603 210H146.553C146.237 210 146.003 209.933 145.853 209.8C145.72 209.65 145.653 209.417 145.653 209.1V204.025C145.653 203.708 145.72 203.483 145.853 203.35C146.003 203.2 146.237 203.125 146.553 203.125H151.603C151.92 203.125 152.145 203.2 152.278 203.35C152.428 203.483 152.503 203.708 152.503 204.025V209.1C152.503 209.417 152.428 209.65 152.278 209.8C152.145 209.933 151.92 210 151.603 210Z" fill="#FDEBE6"/>
<mask id="mask0_209_633" style="mask-type:alpha" maskUnits="userSpaceOnUse" x="113" y="30" width="164" height="165">
<path d="M259.817 66.1499C264.25 73.0142 267.577 80.4904 269.666 88.2523C278.39 119.442 265.127 154.098 239.292 171.07C207.465 193.662 159.724 184.846 138.213 153.328C138.213 153.328 138.213 153.328 138.213 153.328C115.27 122.838 122.247 74.7932 153.862 51.9042C178.23 32.8863 215.309 31.4514 242.047 49.7264C248.727 54.1965 254.739 59.7485 259.817 66.1499C255.39 59.2831 249.847 53.0837 243.399 47.8906C217.749 26.6221 177.091 24.5309 148.618 44.5896C111.687 68.3611 101.467 124.614 128.461 160.32C153.611 197.348 210.167 205.728 244.536 178.384C272.674 157.858 283.747 118.682 271.839 87.5611C268.991 79.7869 264.899 72.5469 259.817 66.1499Z" fill="#D1D1D1"/>
</mask>
<g mask="url(#mask0_209_633)">
<path d="M251.465 148.603C242.455 136.035 245.339 118.543 257.907 109.533L260.691 107.537C273.259 98.5265 290.752 101.411 299.762 113.979L305.584 122.1C314.594 134.668 311.71 152.16 299.142 161.17L296.357 163.167C283.789 172.177 266.297 169.293 257.287 156.725L251.465 148.603Z" fill="#D1D1D1"/>
<path d="M233.479 133.813C222.538 118.552 226.04 97.3109 241.301 86.3701L244.086 84.3738C259.347 73.4331 280.588 76.9354 291.529 92.1965L295.177 117.881C295.177 117.881 287.172 123.62 277.297 130.699L274.512 132.696C264.637 139.775 256.632 145.514 256.632 145.514L233.479 133.813ZM310.46 118.604C321.401 133.865 317.899 155.106 302.638 166.047L299.853 168.043C284.592 178.984 263.351 175.482 252.41 160.22L262.163 153.229C269.242 163.104 282.986 165.37 292.861 158.29L295.646 156.294C305.521 149.215 307.787 135.471 300.708 125.596L310.46 118.604ZM299.853 168.043C284.592 178.984 263.351 175.482 252.41 160.22L233.479 133.813C222.538 118.552 226.04 97.3109 241.301 86.3701L274.512 132.696C264.637 139.775 256.632 145.514 256.632 145.514L262.163 153.229C269.242 163.104 282.986 165.37 292.861 158.29L299.853 168.043ZM244.086 84.3738C259.347 73.4331 280.588 76.9354 291.529 92.1965L310.46 118.604C321.401 133.865 317.899 155.106 302.638 166.047L295.646 156.294C305.521 149.215 307.787 135.471 300.708 125.596L295.177 117.881C295.177 117.881 287.172 123.62 277.297 130.699L244.086 84.3738Z" fill="#D1D1D1"/>
</g>
<mask id="mask1_209_633" style="mask-type:alpha" maskUnits="userSpaceOnUse" x="137" y="49" width="128" height="128">
<path d="M251.536 77.1368C254.854 82.4484 257.314 88.2015 258.824 94.1443C265.132 118.038 254.718 144.049 235.204 156.63C211.127 173.376 175.598 166.573 159.551 143.081C159.551 143.081 159.551 143.081 159.551 143.081C142.455 120.342 147.419 84.5092 171.007 67.0836C189.188 52.6412 217.165 51.1294 237.769 64.7743C242.912 68.1129 247.571 72.289 251.536 77.1368C248.222 71.8236 244.032 67.0002 239.121 62.9385C219.605 46.3001 188.05 44.2857 165.763 59.7691C136.858 78.0771 128.652 122.118 149.798 150.073C149.798 150.073 149.798 150.073 149.798 150.073C169.485 179.075 213.829 185.442 240.448 163.945C262.266 147.809 270.489 117.278 260.997 93.4531C258.727 87.498 255.504 81.9811 251.536 77.1368Z" fill="#D1D1D1"/>
</mask>
<g mask="url(#mask1_209_633)">
<path d="M245.903 141.348C238.581 131.134 240.925 116.919 251.139 109.596V109.596C261.353 102.274 275.568 104.618 282.891 114.832L285.821 118.919C293.143 129.133 290.799 143.348 280.585 150.67V150.67C270.371 157.993 256.156 155.649 248.833 145.435L245.903 141.348Z" fill="#D1D1D1"/>
<path d="M227.917 126.558C218.665 113.651 221.627 95.6867 234.533 86.4337C247.44 77.1807 265.404 80.1428 274.657 93.0496L285.821 118.919C285.96 119.113 286.096 119.309 286.229 119.507L267.744 132.759L249.26 146.011C249.115 145.821 248.972 145.629 248.833 145.435L227.917 126.558ZM290.697 115.423C299.95 128.33 296.988 146.294 284.081 155.547C271.174 164.8 253.21 161.838 243.957 148.931L253.71 141.939C259.101 149.46 269.569 151.186 277.089 145.794C284.61 140.403 286.336 129.935 280.944 122.415L290.697 115.423ZM284.081 155.547C271.174 164.8 253.21 161.838 243.957 148.931L227.917 126.558C218.665 113.651 221.627 95.6867 234.533 86.4337L267.744 132.759C260.224 138.151 254.127 142.521 254.127 142.521L253.71 141.939C259.101 149.46 269.569 151.186 277.089 145.794L284.081 155.547ZM234.533 86.4337C247.44 77.1807 265.404 80.1428 274.657 93.0496L290.697 115.423C299.95 128.33 296.988 146.294 284.081 155.547L277.089 145.794C284.61 140.403 286.336 129.935 280.944 122.415L281.361 122.997C281.361 122.997 275.265 127.368 267.744 132.759L234.533 86.4337Z" fill="#D1D1D1"/>
</g>
<mask id="mask2_209_633" style="mask-type:alpha" maskUnits="userSpaceOnUse" x="162" y="68" width="92" height="93">
<path d="M243.962 88.7097C246.186 92.4965 247.792 96.5575 248.735 100.714C252.671 117.443 245.055 134.965 231.746 143.235C215.281 154.239 191.744 149.413 181.062 133.803C181.062 133.803 181.062 133.803 181.062 133.803C169.707 118.675 172.693 94.834 188.401 82.7734C200.506 72.8239 219.545 71.2367 234.125 80.3349C237.759 82.5625 241.089 85.3874 243.962 88.7097C241.741 84.922 238.879 81.4497 235.477 78.4991C221.985 66.4074 199.368 64.4685 183.157 75.4588C162.133 88.4019 155.904 120.451 171.309 140.795C171.309 140.795 171.309 140.795 171.309 140.795C185.63 161.915 217.982 166.305 236.99 150.55C252.603 138.726 258.028 116.683 250.908 100.023C249.205 95.854 246.836 92.0291 243.962 88.7097Z" fill="#D1D1D1"/>
</mask>
<g mask="url(#mask2_209_633)">
<path d="M240.021 133.64C234.897 126.493 236.537 116.546 243.684 111.422V111.422C250.831 106.299 260.778 107.939 265.902 115.086L267.952 117.945C273.075 125.092 271.435 135.039 264.288 140.163V140.163C257.142 145.286 247.194 143.646 242.071 136.499L240.021 133.64Z" fill="#D1D1D1"/>
<path d="M222.035 118.849C214.98 109.009 217.239 95.3138 227.079 88.2595L227.079 88.2595C236.919 81.2052 250.614 83.4634 257.668 93.3033L267.952 117.945C269.837 120.576 270.877 123.719 270.931 126.955L260.289 134.585L249.646 142.215L249.647 142.214C246.599 141.123 243.957 139.13 242.071 136.499L222.035 118.849ZM272.828 114.449C279.882 124.289 277.624 137.985 267.784 145.039L267.784 145.039C257.944 152.093 244.249 149.835 237.195 139.995L246.947 133.004C250.14 137.457 256.339 138.479 260.792 135.286C265.246 132.094 266.268 125.895 263.075 121.441L272.828 114.449ZM267.784 145.039C257.944 152.093 244.249 149.835 237.195 139.995L222.035 118.849C214.98 109.009 217.239 95.3138 227.079 88.2595L260.289 134.585C255.836 137.778 252.225 140.366 252.225 140.366L246.947 133.004C250.14 137.457 256.339 138.479 260.792 135.286L267.784 145.039ZM227.079 88.2595C236.919 81.2052 250.614 83.4634 257.668 93.3033L272.828 114.449C279.882 124.289 277.624 137.985 267.784 145.039L260.792 135.286C265.246 132.094 266.268 125.895 263.075 121.441L268.354 128.804C268.354 128.804 264.743 131.392 260.289 134.585L227.079 88.2595Z" fill="#D1D1D1"/>
</g>
</svg>
