<svg width="306" height="226" viewBox="0 0 306 226" fill="none" xmlns="http://www.w3.org/2000/svg">
<path d="M0 0H224.288V0.352154H224.64V11.8201H224.992V12.1723L225.279 12.2565C226.361 12.5972 227.337 13.0565 228.344 13.5809C228.562 13.6919 228.784 13.8029 229.006 13.9139L234.34 16.5819V16.934L234.711 16.9838C235.319 17.1369 235.771 17.3934 236.31 17.7149L236.869 18.0479C237.336 18.3465 237.336 18.3465 237.688 18.6986L238.14 18.8632L238.568 19.0508L238.748 19.579C239.276 19.7972 239.276 19.7972 239.804 19.9312V20.2833H240.332V20.6393L240.807 20.6814C241.392 20.8154 241.392 20.8154 241.897 21.1561L242.272 21.5197V21.8718L243.156 22.0479L243.332 22.58H243.86V22.9321L244.564 23.1082V23.4604H245.092V23.8125L245.513 23.9771C245.976 24.1647 245.976 24.1647 246.328 24.3408V24.6929H246.856V25.0489L247.74 25.401V25.7532L248.134 25.8948C248.601 26.0977 248.949 26.2967 249.324 26.6336V26.9896L250.208 27.3417V27.6939L250.912 27.87V28.2221L251.234 28.3752C251.617 28.5743 251.617 28.5743 252.148 28.9264V29.2824L252.443 29.4125C252.933 29.6767 253.342 29.9944 253.778 30.3389L254.253 30.714L254.617 31.0432V31.3992H254.969V31.7513H255.321V32.1035L255.65 32.2681L256.381 32.6317V32.9838L257.085 33.336V33.692H257.613C257.903 33.9676 257.903 33.9676 258.21 34.3389C258.776 35.0317 259.392 35.6518 260.031 36.2796C260.368 36.6087 260.704 36.9418 261.041 37.2748L261.386 37.6078C262.055 38.2738 262.637 38.9552 263.188 39.7207C263.525 40.1609 263.919 40.5322 264.313 40.9226C264.711 41.3743 265.09 41.8375 265.472 42.3006L265.794 42.6949C266.639 43.7284 267.447 44.7848 268.239 45.8604C268.56 46.2968 268.866 46.714 269.249 47.0968V47.625H269.605C269.903 48.0193 270.19 48.425 270.462 48.8384L270.719 49.2174C270.902 49.4892 271.082 49.7571 271.262 50.0289C271.541 50.4461 271.824 50.8633 272.104 51.2806C272.919 52.4901 273.734 53.7035 274.468 54.9667C274.648 55.2691 274.836 55.5715 275.023 55.87C276.152 57.65 277.109 59.5064 278.065 61.382L278.276 61.7916C278.926 63.0739 279.562 64.3562 280.143 65.6653C280.392 66.2165 280.645 66.76 280.901 67.3036C281.272 68.1112 281.624 68.9304 281.949 69.761C282.137 70.2433 282.34 70.7179 282.542 71.1926C283.377 73.1945 284.107 75.2271 284.769 77.2902C284.896 77.7649 284.896 77.7649 285.122 77.9639C285.125 78.3161 285.129 78.6682 285.122 79.0204H285.474L285.558 79.3381C285.741 80.0079 285.921 80.6778 286.105 81.3476C286.354 82.2701 286.614 83.1888 286.882 84.1036C287.215 85.252 287.498 86.4118 287.777 87.5754L287.907 88.1228C288.037 88.674 288.167 89.2252 288.294 89.7802L288.424 90.3505C288.776 91.9314 289.044 93.5161 289.296 95.1161C289.361 95.541 289.43 95.9697 289.499 96.3946C290.337 101.662 290.444 106.898 290.444 112.219C290.444 112.816 290.444 113.417 290.444 114.018C290.46 117.539 290.417 121.022 290.058 124.529L290 125.095C289.22 132.525 287.448 139.671 285.122 146.753C285.003 147.116 284.884 147.484 284.766 147.851C284.303 149.279 283.824 150.688 283.224 152.066C283.009 152.556 282.814 153.053 282.619 153.551C282.179 154.684 281.678 155.79 281.119 156.869C280.928 157.252 280.763 157.646 280.625 158.052C280.354 158.833 279.94 159.53 279.531 160.242C279.328 160.636 279.206 160.961 279.125 161.39H278.773L278.712 161.777C278.306 163.522 277.093 165.172 276.183 166.695C275.877 167.216 275.578 167.74 275.291 168.272C274.924 168.942 274.507 169.574 274.071 170.202C273.845 170.55 273.657 170.898 273.481 171.269H273.129V171.798H272.777L272.701 172.131C272.601 172.506 272.601 172.506 272.425 172.858H272.073L272.008 173.172C271.889 173.578 271.744 173.834 271.503 174.179L271.262 174.531L271.002 174.894L270.738 175.277C270.118 176.161 269.49 177.038 268.847 177.911C268.572 178.29 268.304 178.676 268.04 179.063L267.665 179.56H267.313V180.089H266.957L266.429 181.145H266.077L265.954 181.52C265.675 182.14 265.277 182.604 264.829 183.109L264.301 183.721L264.034 184.027C263.682 184.441 263.341 184.866 263 185.291C261.332 187.338 259.457 189.206 257.59 191.071C257.215 191.446 256.84 191.821 256.465 192.196L255.405 193.256C254.639 194.018 253.844 194.73 253.029 195.434C252.814 195.626 252.596 195.813 252.382 196.005L251.762 196.548L251.444 196.827C250.882 197.317 250.404 197.677 249.68 197.903V198.255C249.42 198.485 249.42 198.485 249.083 198.718L248.75 198.956L248.444 199.139H248.092V199.492C247.725 199.775 247.35 200.047 246.967 200.307L246.646 200.533C246.367 200.72 246.083 200.9 245.8 201.076H245.448V201.432H244.916V201.784C244.557 202.045 244.185 202.29 243.807 202.523L243.125 202.948L242.781 203.162C242.146 203.561 241.522 203.978 240.898 204.391C240.508 204.605 240.508 204.605 239.98 204.605V204.958C239.574 205.245 239.574 205.245 239.1 205.486H238.568V205.842L238.178 206.052L237.654 206.336L237.141 206.615C236.808 206.799 236.479 206.994 236.157 207.197C235.748 207.427 235.748 207.427 235.22 207.427V207.783L234.868 207.951C233.992 208.38 233.131 208.82 232.281 209.302L231.853 209.543C231.573 209.704 231.294 209.865 231.015 210.029L230.62 210.255L230.268 210.458C229.932 210.604 229.932 210.604 229.224 210.604V210.956C226.591 212.322 226.591 212.322 225.168 212.544V212.896L224.816 213.249C224.758 213.746 224.758 213.746 224.762 214.336L224.754 215.029L224.751 215.779C224.747 216.035 224.743 216.292 224.739 216.544C224.731 217.218 224.728 217.892 224.72 218.565C224.712 219.645 224.701 220.724 224.689 221.804C224.685 222.179 224.682 222.558 224.678 222.933L224.67 223.626L224.666 224.238C224.64 224.713 224.64 224.713 224.464 225.065L156.225 225.241V225.421H151.741C144.237 225.425 136.733 225.425 129.229 225.425H128.85L116.315 225.429C112.017 225.429 107.72 225.432 103.423 225.432C98.3836 225.436 93.3479 225.436 88.3084 225.436H87.9372C85.9627 225.436 83.9844 225.436 82.0061 225.436C80.024 225.44 78.038 225.44 76.052 225.44C74.9768 225.44 73.9015 225.44 72.8225 225.44C71.8391 225.44 70.8556 225.44 69.8722 225.44C69.5164 225.44 69.1567 225.44 68.8008 225.44C68.3187 225.44 67.8365 225.44 67.3505 225.44L66.922 225.444C66.5967 225.44 66.2715 225.432 65.9462 225.421L65.7702 225.241C65.4258 225.226 65.0776 225.222 64.7332 225.222L64.0444 225.218L63.2791 225.222H62.4717C61.7332 225.222 60.9909 225.222 60.2485 225.222C59.4526 225.222 58.6529 225.222 57.8531 225.222C56.4718 225.222 55.0866 225.222 53.7014 225.226C51.7001 225.226 49.6988 225.226 47.6975 225.226C44.4527 225.226 41.2039 225.229 37.9591 225.229C34.806 225.229 31.6491 225.233 28.4961 225.233H24.9833C16.8903 225.237 8.79717 225.237 0.707906 225.241L0.528059 224.713H0V0Z" fill="#ED3B02"/>
<path d="M0 0H224.288V0.352154H224.64V11.8201H224.992V12.1723L225.279 12.2565C226.361 12.5972 227.337 13.0565 228.344 13.5809C228.562 13.6919 228.784 13.8029 229.006 13.9139L234.34 16.5819V16.934L234.711 16.9838C235.319 17.1369 235.771 17.3934 236.31 17.7149L236.869 18.0479C237.336 18.3465 237.336 18.3465 237.688 18.6986L238.14 18.8632L238.568 19.0508L238.748 19.579C239.276 19.7972 239.276 19.7972 239.804 19.9312V20.2833H240.332V20.6393L240.807 20.6814C241.392 20.8154 241.392 20.8154 241.897 21.1561L242.272 21.5197V21.8718L243.156 22.0479L243.332 22.58H243.86V22.9321L244.564 23.1082V23.4604H245.092V23.8125L245.513 23.9771C245.976 24.1647 245.976 24.1647 246.328 24.3408V24.6929H246.856V25.0489L247.74 25.401V25.7532L248.134 25.8948C248.601 26.0977 248.949 26.2967 249.324 26.6336V26.9896L250.208 27.3417V27.6939L250.912 27.87V28.2221L251.234 28.3752C251.617 28.5743 251.617 28.5743 252.148 28.9264V29.2824L252.443 29.4125C252.933 29.6767 253.342 29.9944 253.778 30.3389L254.253 30.714L254.617 31.0432V31.3992H254.969V31.7513H255.321V32.1035L255.65 32.2681L256.381 32.6317V32.9838L257.085 33.336V33.692H257.613C257.903 33.9676 257.903 33.9676 258.21 34.3389C258.776 35.0317 259.392 35.6518 260.031 36.2796C260.368 36.6087 260.704 36.9418 261.041 37.2748L261.386 37.6078C262.055 38.2738 262.637 38.9552 263.188 39.7207C263.525 40.1609 263.919 40.5322 264.313 40.9226C264.711 41.3743 265.09 41.8375 265.472 42.3006L265.794 42.6949C266.639 43.7284 267.447 44.7848 268.239 45.8604C268.56 46.2968 268.866 46.714 269.249 47.0968V47.625H269.605C269.903 48.0193 270.19 48.425 270.462 48.8384L270.719 49.2174C270.902 49.4892 271.082 49.7571 271.262 50.0289C271.541 50.4461 271.824 50.8633 272.104 51.2806C272.919 52.4901 273.734 53.7035 274.468 54.9667C274.648 55.2691 274.836 55.5715 275.023 55.87C276.152 57.65 277.109 59.5064 278.065 61.382L278.276 61.7916C278.926 63.0739 279.562 64.3562 280.143 65.6653C280.392 66.2165 280.645 66.76 280.901 67.3036C281.272 68.1112 281.624 68.9304 281.949 69.761C282.137 70.2433 282.34 70.7179 282.542 71.1926C283.377 73.1945 284.107 75.2271 284.769 77.2902C284.896 77.7649 284.896 77.7649 285.122 77.9639C285.125 78.3161 285.129 78.6682 285.122 79.0204H285.474L285.558 79.3381C285.741 80.0079 285.921 80.6778 286.105 81.3476C286.354 82.2701 286.614 83.1888 286.882 84.1036C287.215 85.252 287.498 86.4118 287.777 87.5754L287.907 88.1228C288.037 88.674 288.167 89.2252 288.294 89.7802L288.424 90.3505C288.776 91.9314 289.044 93.5161 289.296 95.1161C289.361 95.541 289.43 95.9697 289.499 96.3946C290.337 101.662 290.444 106.898 290.444 112.219C290.444 112.816 290.444 113.417 290.444 114.018C290.46 117.539 290.417 121.022 290.058 124.529L290 125.095C289.22 132.525 287.448 139.671 285.122 146.753C285.003 147.116 284.884 147.484 284.766 147.851C284.303 149.279 283.824 150.688 283.224 152.066C283.009 152.556 282.814 153.053 282.619 153.551C282.179 154.684 281.678 155.79 281.119 156.869C280.928 157.252 280.763 157.646 280.625 158.052C280.354 158.833 279.94 159.53 279.531 160.242C279.328 160.636 279.206 160.961 279.125 161.39H278.773L278.712 161.777C278.306 163.522 277.093 165.172 276.183 166.695C275.877 167.216 275.578 167.74 275.291 168.272C274.924 168.942 274.507 169.574 274.071 170.202C273.845 170.55 273.657 170.898 273.481 171.269H273.129V171.798H272.777L272.701 172.131C272.601 172.506 272.601 172.506 272.425 172.858H272.073L272.008 173.172C271.889 173.578 271.744 173.834 271.503 174.179L271.262 174.531L271.002 174.894L270.738 175.277C270.118 176.161 269.49 177.038 268.847 177.911C268.572 178.29 268.304 178.676 268.04 179.063L267.665 179.56H267.313V180.089H266.957L266.429 181.145H266.077L265.954 181.52C265.675 182.14 265.277 182.604 264.829 183.109L264.301 183.721L264.034 184.027C263.682 184.441 263.341 184.866 263 185.291C261.332 187.338 259.457 189.206 257.59 191.071C257.215 191.446 256.84 191.821 256.465 192.196L255.405 193.256C254.639 194.018 253.844 194.73 253.029 195.434C252.814 195.626 252.596 195.813 252.382 196.005L251.762 196.548L251.444 196.827C250.882 197.317 250.404 197.677 249.68 197.903V198.255C249.42 198.485 249.42 198.485 249.083 198.718L248.75 198.956L248.444 199.139H248.092V199.492C247.725 199.775 247.35 200.047 246.967 200.307L246.646 200.533C246.367 200.72 246.083 200.9 245.8 201.076H245.448V201.432H244.916V201.784C244.557 202.045 244.185 202.29 243.807 202.523L243.125 202.948L242.781 203.162C242.146 203.561 241.522 203.978 240.898 204.391C240.508 204.605 240.508 204.605 239.98 204.605V204.958C239.574 205.245 239.574 205.245 239.1 205.486H238.568V205.842L238.178 206.052L237.654 206.336L237.141 206.615C236.808 206.799 236.479 206.994 236.157 207.197C235.748 207.427 235.748 207.427 235.22 207.427V207.783L234.868 207.951C233.992 208.38 233.131 208.82 232.281 209.302L231.853 209.543C231.573 209.704 231.294 209.865 231.015 210.029L230.62 210.255L230.268 210.458C229.932 210.604 229.932 210.604 229.224 210.604V210.956C226.591 212.322 226.591 212.322 225.168 212.544V212.896L224.816 213.249C224.758 213.746 224.758 213.746 224.762 214.336L224.754 215.029L224.751 215.779C224.747 216.035 224.743 216.292 224.739 216.544C224.731 217.218 224.728 217.892 224.72 218.565C224.712 219.645 224.701 220.724 224.689 221.804C224.685 222.179 224.682 222.558 224.678 222.933L224.67 223.626L224.666 224.238C224.64 224.713 224.64 224.713 224.464 225.065L156.225 225.241V225.421H151.741C144.237 225.425 136.733 225.425 129.229 225.425H128.85L116.315 225.429C112.017 225.429 107.72 225.432 103.423 225.432C98.3836 225.436 93.3479 225.436 88.3084 225.436H87.9372C85.9627 225.436 83.9844 225.436 82.0061 225.436C80.024 225.44 78.038 225.44 76.052 225.44C74.9768 225.44 73.9015 225.44 72.8225 225.44C71.8391 225.44 70.8556 225.44 69.8722 225.44C69.5164 225.44 69.1567 225.44 68.8008 225.44C68.3187 225.44 67.8365 225.44 67.3505 225.44L66.922 225.444C66.5967 225.44 66.2715 225.432 65.9462 225.421L65.7702 225.241C65.4258 225.226 65.0776 225.222 64.7332 225.222L64.0444 225.218L63.2791 225.222H62.4717C61.7332 225.222 60.9909 225.222 60.2485 225.222C59.4526 225.222 58.6529 225.222 57.8531 225.222C56.4718 225.222 55.0866 225.222 53.7014 225.226C51.7001 225.226 49.6988 225.226 47.6975 225.226C44.4527 225.226 41.2039 225.229 37.9591 225.229C34.806 225.229 31.6491 225.233 28.4961 225.233H24.9833C16.8903 225.237 8.79717 225.237 0.707906 225.241L0.528059 224.713H0V0Z" fill="#ED3B02"/>
<path d="M225.016 12.0229C225.273 12.1073 225.525 12.1878 225.781 12.2721L226.21 12.414C226.657 12.5711 227.074 12.7628 227.495 12.9813L227.946 13.2151L228.367 13.4336C228.585 13.5448 228.807 13.656 229.029 13.7672L234.361 16.4391V16.7917L234.732 16.8416C235.34 16.9949 235.792 17.2517 236.331 17.5737L236.889 17.9073C237.356 18.2063 237.356 18.2063 237.708 18.5589L238.159 18.7238L238.588 18.9116L238.767 19.4406C239.295 19.6591 239.295 19.6591 239.823 19.7933V20.146H240.351V20.5025L240.825 20.5446C241.411 20.6788 241.411 20.6788 241.915 21.02L242.29 21.3842V21.7368L243.174 21.9132L243.35 22.446H243.878V22.7987L244.582 22.975V23.3277H245.109V23.6804L245.53 23.8452C245.993 24.0331 245.993 24.0331 246.345 24.2094V24.5621H246.873V24.9186L247.756 25.2713V25.6239L248.15 25.7658C248.617 25.9689 248.965 26.1683 249.34 26.5056V26.8621L250.223 27.2148V27.5675L250.927 27.7438V28.0965L251.249 28.2498C251.631 28.4492 251.631 28.4492 252.163 28.8018V29.1583L252.457 29.2887C252.947 29.5532 253.356 29.8714 253.792 30.2164L254.267 30.592L254.63 30.9217V31.2782H254.982V31.6309H255.334V31.9836L255.663 32.1484L256.393 32.5126V32.8653L257.097 33.2179V33.5744H257.625C257.916 33.8504 257.916 33.8504 258.222 34.2223C258.788 34.9161 259.404 35.5372 260.042 36.1658C260.379 36.4955 260.716 36.829 261.052 37.1625L261.396 37.496C262.066 38.163 262.647 38.8454 263.198 39.6121C263.535 40.0529 263.929 40.4248 264.323 40.8158C264.72 41.2681 265.099 41.732 265.482 42.1958L265.803 42.5906C266.648 43.6257 267.455 44.6837 268.247 45.7609C268.568 46.1979 268.874 46.6157 269.257 46.9991V47.5281H269.613C269.911 47.9229 270.198 48.3293 270.469 48.7433L270.726 49.1228C270.909 49.395 271.089 49.6633 271.269 49.9355C271.548 50.3533 271.831 50.7712 272.11 51.189C272.925 52.4004 273.74 53.6156 274.474 54.8806C274.654 55.1834 274.841 55.4863 275.029 55.7853C276.157 57.5678 277.113 59.427 278.07 61.3054L278.28 61.7156C278.93 62.9998 279.565 64.284 280.147 65.595C280.395 66.147 280.648 66.6914 280.904 67.2357C281.275 68.0446 281.627 68.8649 281.952 69.6968C282.14 70.1798 282.342 70.6551 282.545 71.1305C283.379 73.1353 284.11 75.1709 284.771 77.2371C284.897 77.7125 284.897 77.7124 285.123 77.9118C285.127 78.2645 285.131 78.6171 285.123 78.9698H285.475L285.559 79.288L285.957 80.76L286.106 81.3005C286.355 82.2244 286.615 83.1444 286.883 84.0606C287.215 85.2106 287.498 86.3721 287.778 87.5375L287.908 88.0857C288.038 88.6377 288.168 89.1897 288.294 89.7456L288.424 90.3167C288.776 91.8999 289.044 93.487 289.296 95.0893C289.361 95.5149 289.43 95.9442 289.499 96.3697C290.337 101.644 290.444 106.889 290.444 112.217C290.444 112.815 290.444 113.417 290.444 114.019C290.459 117.546 290.417 121.034 290.057 124.545L290 125.113C289.22 132.553 287.449 139.71 285.123 146.802C285.005 147.166 284.886 147.534 284.767 147.902C284.305 149.332 283.826 150.743 283.226 152.123C283.012 152.614 282.817 153.112 282.622 153.61C282.182 154.745 281.681 155.853 281.122 156.934C280.931 157.317 280.766 157.712 280.629 158.118C280.357 158.9 279.944 159.598 279.535 160.311C279.332 160.706 279.21 161.032 279.129 161.461H278.777L278.716 161.848C278.311 163.596 277.098 165.249 276.188 166.774C275.882 167.296 275.583 167.821 275.297 168.354C274.929 169.025 274.512 169.657 274.076 170.286C273.851 170.635 273.663 170.983 273.487 171.355H273.135V171.884H272.784L272.707 172.218C272.608 172.593 272.608 172.593 272.432 172.946H272.08L272.015 173.26C271.896 173.667 271.751 173.924 271.51 174.269L271.269 174.621L271.009 174.986L270.745 175.369C270.125 176.254 269.498 177.132 268.855 178.006C268.58 178.386 268.312 178.773 268.048 179.16L267.673 179.658H267.321V180.187H266.966L266.438 181.245H266.086L265.964 181.621C265.684 182.242 265.286 182.706 264.839 183.212L264.311 183.825L264.043 184.132C263.691 184.546 263.351 184.972 263.011 185.397C261.343 187.448 259.469 189.319 257.602 191.186C257.227 191.561 256.852 191.937 256.477 192.313L255.418 193.374C254.653 194.137 253.857 194.85 253.043 195.556C252.828 195.747 252.61 195.935 252.396 196.127L251.776 196.671L251.459 196.951C250.897 197.442 250.419 197.802 249.696 198.028V198.381C249.436 198.611 249.436 198.611 249.099 198.845L248.766 199.082L248.46 199.266H248.108V199.619C247.741 199.903 247.366 200.175 246.984 200.436L246.662 200.662C246.383 200.85 246.1 201.03 245.817 201.206H245.465V201.563H244.933V201.915C244.574 202.176 244.203 202.421 243.824 202.655L243.143 203.081L242.799 203.295C242.164 203.694 241.541 204.112 240.917 204.526C240.527 204.741 240.527 204.741 239.999 204.741V205.093C239.594 205.381 239.594 205.381 239.119 205.622H238.588V205.979L238.198 206.19L237.673 206.473L237.161 206.753C236.828 206.937 236.499 207.133 236.178 207.336C235.769 207.566 235.769 207.566 235.241 207.566V207.922L234.889 208.091C234.013 208.52 233.152 208.961 232.303 209.444L231.875 209.686C231.596 209.847 231.316 210.008 231.037 210.172L230.643 210.399L230.291 210.602C229.955 210.747 229.955 210.747 229.247 210.747V211.1C226.615 212.469 226.615 212.469 225.192 212.691V213.044H224.84C224.837 183.112 224.837 183.112 224.833 157.754V129.517C224.833 120.286 224.833 111.052 224.829 101.821C224.825 95.0855 224.825 88.3502 224.825 81.6149V67.9641C224.825 63.6553 224.825 59.3427 224.821 55.0301C224.821 50.0773 224.821 45.1245 224.821 40.1679V39.8114C224.821 37.8372 224.821 35.8668 224.821 33.8926C224.818 32.1676 224.818 30.4425 224.821 28.7213C224.821 27.74 224.821 26.7625 224.818 25.7811C224.818 21.1925 224.867 16.6077 225.016 12.0229Z" fill="#070706"/>
<path d="M266.416 46.9675H266.769C267.045 47.3161 267.313 47.6761 267.566 48.0477L268.046 48.7333L268.295 49.0895C268.517 49.4112 268.748 49.7291 268.978 50.0471C270.128 51.6289 271.202 53.253 272.249 54.9076L272.483 55.2792C274.393 58.3166 276.184 61.442 277.753 64.6671C277.975 65.1191 278.213 65.5672 278.455 66.0115C280.345 69.4358 281.711 73.1205 283.03 76.7937L283.256 77.4219C286.236 85.7527 288.043 94.4665 288.86 103.268L288.925 103.943C289.447 109.91 289.477 116.019 288.86 121.979L288.756 123.105C287.59 135.132 284.173 146.845 279.141 157.807L278.884 158.363C277.703 160.921 276.407 163.392 274.988 165.824C274.742 166.245 274.5 166.667 274.259 167.088C273.273 168.8 272.207 170.443 271.095 172.075C270.849 172.435 270.608 172.795 270.366 173.155C268.456 175.99 266.37 178.709 264.118 181.283L263.781 181.67C263.102 182.451 262.412 183.217 261.717 183.983C261.484 184.244 261.253 184.504 261.023 184.768C260.31 185.596 259.57 186.381 258.795 187.155L258.446 187.507C258.204 187.752 257.959 187.994 257.717 188.235C257.349 188.603 256.985 188.974 256.617 189.342C255.405 190.56 254.196 191.732 252.808 192.755L252.455 192.402L252.808 191.87C252.754 191.491 252.754 191.491 252.632 191.165L251.746 190.989C252.275 190.341 252.793 189.748 253.429 189.212C254.3 188.461 255.109 187.656 255.922 186.844C256.175 186.588 256.432 186.331 256.689 186.078C257.61 185.155 258.5 184.213 259.347 183.221C259.597 182.945 259.846 182.669 260.099 182.394C263.363 178.778 266.293 174.879 269.02 170.846C269.235 170.528 269.449 170.214 269.668 169.899C273.335 164.572 276.265 158.681 278.731 152.717C278.93 152.238 279.134 151.767 279.337 151.292C281.435 146.378 282.923 141.13 284.089 135.921L284.173 135.554C284.986 131.934 285.611 128.318 286.033 124.626L286.106 124.013C286.62 119.758 286.762 115.491 286.915 111.212H286.562L286.57 111.806C286.578 113.212 286.562 114.583 286.386 115.977C285.627 116.207 285.044 116.092 284.265 115.977L284.089 115.449L283.747 115.38L283.383 115.272L283.03 114.388C282.693 114.211 282.693 114.211 282.321 114.211L281.791 114.388V114.035L280.733 113.683L280.368 113.606C280.023 113.507 280.023 113.507 279.67 113.154L279.13 112.921L278.612 112.622C278.543 112.331 278.485 112.036 278.432 111.741C277.991 111.442 277.991 111.442 277.55 111.212V110.86H277.02L276.844 109.975L276.832 110.431C276.733 114.46 276.614 118.497 276.134 122.508H275.781C275.808 121.952 275.835 121.397 275.858 120.842L275.881 120.382C275.923 119.501 275.969 118.62 276.027 117.739C276.13 116.092 276.173 114.449 276.169 112.798V112.388C276.153 105.892 275.766 99.1355 274.098 92.8386C273.983 92.3752 273.906 91.9117 273.837 91.4444H273.484L273.308 91.7968L273.005 91.6589L272.591 91.475L272.149 91.2797C271.889 91.1648 271.628 91.0537 271.363 90.9503C270.681 90.6822 270.27 90.3834 269.775 89.8549C269.48 89.6748 269.185 89.4986 268.889 89.3263C267.969 88.7096 267.229 88.0355 266.519 87.1852C266.224 86.8213 266.224 86.8213 265.764 86.4229C265.292 85.8982 265.085 85.3964 264.82 84.7491C264.605 84.2933 264.302 84.0252 263.942 83.6767C263.762 83.2668 263.585 82.857 263.413 82.4433L263.067 82.0335C262.649 81.4896 262.442 80.9687 262.201 80.329C262.047 79.9268 261.89 79.5285 261.725 79.1301L261.579 78.7778C261.484 78.5479 261.391 78.322 261.296 78.0921C260.13 75.2348 260.295 70.9602 260.628 67.919C260.747 67.1032 260.927 66.3026 261.115 65.4983L261.38 64.196C261.56 63.3533 261.786 62.5413 262.043 61.7178C262.251 60.9939 262.396 60.2547 262.55 59.5154C262.83 58.1825 263.16 56.8572 263.482 55.532C263.578 55.1221 263.673 54.7085 263.766 54.2948C264.068 52.9657 264.479 51.8588 265.135 50.6637C265.457 49.8977 265.445 49.1661 265.472 48.3426C265.534 47.8485 265.534 47.8485 265.725 47.5076C265.963 47.2625 265.963 47.2625 266.416 46.9675Z" fill="black"/>
<path d="M280.978 72.5178L281.439 72.7017C281.703 73.1691 281.887 73.5829 282.068 74.081L282.244 74.5484C282.451 75.1078 282.654 75.671 282.85 76.2342L283.092 76.897C286.144 85.3947 288.028 94.2641 288.86 103.245L288.925 103.919C289.447 109.888 289.477 115.999 288.86 121.96L288.756 123.087C287.59 135.117 284.173 146.833 279.141 157.798L278.884 158.354C277.703 160.913 276.407 163.384 274.988 165.817C274.742 166.238 274.5 166.66 274.259 167.081C273.273 168.794 272.207 170.437 271.095 172.07C270.849 172.43 270.608 172.79 270.366 173.15C268.456 175.985 266.37 178.705 264.118 181.28L263.781 181.667C263.102 182.448 262.412 183.215 261.717 183.981C261.484 184.241 261.25 184.502 261.023 184.766C260.31 185.594 259.57 186.379 258.795 187.153L258.446 187.506C258.204 187.751 257.959 187.992 257.717 188.234C257.349 188.601 256.985 188.973 256.617 189.341C255.405 190.559 254.196 191.732 252.808 192.755L252.455 192.402L252.808 191.87C252.754 191.49 252.754 191.49 252.632 191.165L251.746 190.988C252.275 190.341 252.793 189.747 253.429 189.211C254.3 188.46 255.109 187.655 255.922 186.843C256.175 186.586 256.432 186.33 256.689 186.077C257.61 185.153 258.5 184.211 259.347 183.219C259.597 182.943 259.846 182.667 260.099 182.391C263.363 178.774 266.293 174.874 269.02 170.84C269.235 170.522 269.449 170.208 269.668 169.893C273.335 164.564 276.265 158.672 278.731 152.706C278.93 152.227 279.134 151.756 279.337 151.281C281.435 146.366 282.923 141.117 284.089 135.906L284.173 135.538C284.986 131.918 285.615 128.301 286.033 124.608L286.11 123.941C286.628 119.401 286.808 114.873 286.739 110.306L286.731 109.773C286.536 97.1069 283.54 84.8775 279.141 73.0542L279.471 72.9814C279.855 72.8933 279.855 72.8933 280.188 72.6826C280.553 72.5255 280.553 72.5255 280.978 72.5178Z" fill="black"/>
<path d="M276.105 158.562L277.695 158.737L277.871 159.445L277.695 159.621L278.047 159.797C277.818 160.547 277.527 161.22 277.155 161.912L276.829 162.524L276.481 163.166L276.304 163.499C274.699 166.467 272.968 169.328 271.064 172.112C270.823 172.468 270.585 172.824 270.348 173.179C268.44 176.013 266.356 178.729 264.104 181.299L263.767 181.685C263.088 182.466 262.399 183.23 261.706 183.995C261.472 184.255 261.238 184.516 261.012 184.779C260.3 185.606 259.56 186.39 258.787 187.162L258.438 187.514C258.197 187.759 257.951 188 257.71 188.241C257.342 188.608 256.978 188.979 256.611 189.346C255.4 190.562 254.194 191.733 252.807 192.754L252.454 192.402L252.807 191.87C252.753 191.492 252.753 191.492 252.631 191.167L251.746 190.991C252.274 190.344 252.791 189.751 253.427 189.216C254.297 188.466 255.105 187.663 255.917 186.852C256.17 186.596 256.427 186.34 256.684 186.087C257.603 185.166 258.492 184.225 259.338 183.234C259.587 182.959 259.836 182.684 260.089 182.408C263.349 178.798 266.276 174.904 268.999 170.877C269.214 170.559 269.428 170.246 269.647 169.932C272.125 166.333 274.132 162.455 276.105 158.562Z" fill="black"/>
<path d="M255.162 125.873L255.503 126.046C255.399 127.208 255.199 128.307 254.929 129.439L254.817 129.909C254.599 130.838 254.317 131.748 253.965 132.636H253.624C253.939 131.177 254.284 129.728 254.628 128.28L254.762 127.72L254.884 127.212C254.984 126.768 255.077 126.32 255.162 125.873Z" fill="black"/>
<path d="M259.796 165.202H260.145C259.876 166.018 259.44 166.645 258.944 167.33L258.717 167.653C257.805 168.934 257.805 168.934 257.354 169.458H257.006C257.252 168.661 257.645 168.261 258.225 167.684C258.41 167.395 258.581 167.099 258.751 166.799C258.925 166.514 259.103 166.229 259.285 165.945L259.55 165.521L259.796 165.202ZM266.426 153.677H266.775C266.54 154.635 266.195 155.447 265.73 156.313L265.54 156.678C265.378 156.982 265.207 157.279 265.029 157.579L264.681 157.756C264.787 157.078 264.988 156.563 265.306 155.959C265.658 155.301 265.658 155.301 265.73 154.562H266.252L266.426 153.677Z" fill="black"/>
<path d="M254.869 140.527L255.224 140.702C254.881 141.795 254.468 142.833 253.979 143.872H253.624C253.99 142.734 254.41 141.63 254.869 140.527ZM263.039 160.057L263.394 160.408C263.197 160.76 263 161.107 262.804 161.455L262.472 162.043L262.149 162.52L261.617 162.695C261.86 162.046 262.16 161.474 262.526 160.882L262.815 160.412L263.039 160.057Z" fill="black"/>
<path d="M253.249 144.283L253.625 144.458C253.232 145.829 253.232 145.829 252.816 146.335C252.591 146.54 252.358 146.727 252.122 146.913C252.42 146 252.824 145.147 253.249 144.283Z" fill="black"/>
<path d="M33.698 103.494V109.638H37.298C38.13 109.638 38.69 109.43 38.978 109.014C39.266 108.566 39.41 108.022 39.41 107.382V105.75C39.41 105.11 39.266 104.582 38.978 104.166C38.69 103.718 38.13 103.494 37.298 103.494H33.698ZM31.97 129.414H24.578C23.97 129.414 23.522 129.286 23.234 129.03C22.978 128.742 22.85 128.294 22.85 127.686V96.5821C22.85 95.9741 22.978 95.5421 23.234 95.2861C23.522 94.9981 23.97 94.8541 24.578 94.8541H40.562C44.146 94.8541 46.61 95.6061 47.954 97.1101C49.33 98.5821 50.018 100.502 50.018 102.87V105.078C50.018 106.422 49.81 107.574 49.394 108.534C49.01 109.462 48.322 110.134 47.33 110.55C49.058 110.742 50.45 111.446 51.506 112.662C52.594 113.878 53.138 115.494 53.138 117.51V127.686C53.138 128.294 52.994 128.742 52.706 129.03C52.45 129.286 52.018 129.414 51.41 129.414H43.97C43.362 129.414 42.914 129.286 42.626 129.03C42.37 128.742 42.242 128.294 42.242 127.686V120.342C42.242 119.638 42.098 119.126 41.81 118.806C41.554 118.454 41.09 118.278 40.418 118.278H33.698V127.686C33.698 128.294 33.554 128.742 33.266 129.03C33.01 129.286 32.578 129.414 31.97 129.414ZM87.5675 120.342C87.5675 121.814 87.3435 123.158 86.8955 124.374C86.4795 125.558 85.7115 126.582 84.5915 127.446C83.5035 128.278 81.9835 128.934 80.0315 129.414C78.1115 129.894 75.6635 130.134 72.6875 130.134C69.7115 130.134 67.2475 129.894 65.2955 129.414C63.3435 128.934 61.8075 128.278 60.6875 127.446C59.5995 126.582 58.8315 125.558 58.3835 124.374C57.9675 123.158 57.7595 121.814 57.7595 120.342V103.974C57.7595 102.502 57.9675 101.174 58.3835 99.9901C58.8315 98.7741 59.5995 97.7341 60.6875 96.8701C61.8075 96.0061 63.3435 95.3341 65.2955 94.8541C67.2475 94.3741 69.7115 94.1341 72.6875 94.1341C75.6635 94.1341 78.1115 94.3741 80.0315 94.8541C81.9835 95.3341 83.5035 96.0061 84.5915 96.8701C85.7115 97.7341 86.4795 98.7741 86.8955 99.9901C87.3435 101.174 87.5675 102.502 87.5675 103.974V120.342ZM68.6555 118.614C68.6555 119.254 68.8955 119.798 69.3755 120.246C69.8555 120.662 70.9595 120.87 72.6875 120.87C74.4155 120.87 75.5195 120.662 75.9995 120.246C76.4795 119.798 76.7195 119.254 76.7195 118.614V105.702C76.7195 105.094 76.4795 104.582 75.9995 104.166C75.5195 103.718 74.4155 103.494 72.6875 103.494C70.9595 103.494 69.8555 103.718 69.3755 104.166C68.8955 104.582 68.6555 105.094 68.6555 105.702V118.614ZM116.67 129.414H104.958C100.958 129.414 97.9822 128.614 96.0302 127.014C94.1102 125.414 93.1502 122.95 93.1502 119.622V104.694C93.1502 101.366 94.1102 98.9021 96.0302 97.3021C97.9822 95.6701 100.958 94.8541 104.958 94.8541H116.67C117.278 94.8541 117.71 94.9981 117.966 95.2861C118.254 95.5421 118.398 95.9741 118.398 96.5821V102.39C118.398 102.998 118.254 103.446 117.966 103.734C117.71 103.99 117.278 104.118 116.67 104.118H107.022C106.03 104.118 105.294 104.326 104.814 104.742C104.334 105.126 104.094 105.718 104.094 106.518V117.942C104.094 118.742 104.334 119.334 104.814 119.718C105.294 120.07 106.03 120.246 107.022 120.246H116.67C117.278 120.246 117.71 120.39 117.966 120.678C118.254 120.934 118.398 121.366 118.398 121.974V127.686C118.398 128.294 118.254 128.742 117.966 129.03C117.71 129.286 117.278 129.414 116.67 129.414ZM132.987 129.414H125.547C124.939 129.414 124.491 129.286 124.203 129.03C123.947 128.742 123.819 128.294 123.819 127.686V96.5821C123.819 95.9741 123.947 95.5421 124.203 95.2861C124.491 94.9981 124.939 94.8541 125.547 94.8541H132.987C133.595 94.8541 134.027 94.9981 134.283 95.2861C134.571 95.5421 134.715 95.9741 134.715 96.5821V107.622H136.635L141.579 96.4381C141.803 95.8621 142.107 95.4621 142.491 95.2381C142.875 94.9821 143.371 94.8541 143.979 94.8541H151.371C151.915 94.8541 152.283 94.9981 152.475 95.2861C152.667 95.5421 152.651 95.9261 152.427 96.4381L147.531 107.622C149.323 107.718 150.747 108.358 151.803 109.542C152.891 110.694 153.435 112.23 153.435 114.15V127.686C153.435 128.294 153.291 128.742 153.003 129.03C152.747 129.286 152.315 129.414 151.707 129.414H144.315C143.707 129.414 143.259 129.286 142.971 129.03C142.715 128.742 142.587 128.294 142.587 127.686V118.326C142.587 117.814 142.459 117.414 142.203 117.126C141.947 116.838 141.563 116.694 141.051 116.694H134.715V127.686C134.715 128.294 134.571 128.742 134.283 129.03C134.027 129.286 133.595 129.414 132.987 129.414Z" fill="#FDEBE6"/>
<mask id="mask0_196_625" style="mask-type:alpha" maskUnits="userSpaceOnUse" x="113" y="30" width="164" height="165">
<path d="M259.817 66.1499C264.25 73.0142 267.577 80.4904 269.666 88.2523C278.39 119.442 265.127 154.098 239.292 171.07C207.465 193.662 159.724 184.846 138.213 153.328C115.27 122.838 122.247 74.7932 153.862 51.9042C178.23 32.8863 215.309 31.4514 242.047 49.7264C248.727 54.1965 254.739 59.7485 259.817 66.1499C255.39 59.2831 249.847 53.0837 243.399 47.8906C217.749 26.6221 177.091 24.5309 148.618 44.5896C111.687 68.3611 101.467 124.614 128.461 160.32C153.611 197.348 210.167 205.728 244.536 178.384C272.674 157.858 283.747 118.682 271.839 87.5611C268.991 79.7869 264.899 72.5469 259.817 66.1499Z" fill="#D1D1D1"/>
</mask>
<g mask="url(#mask0_196_625)">
<path d="M251.465 148.603C242.455 136.035 245.339 118.543 257.907 109.533L260.691 107.537C273.259 98.5265 290.752 101.411 299.762 113.979L305.584 122.1C314.594 134.668 311.71 152.16 299.142 161.17L296.357 163.167C283.789 172.177 266.297 169.293 257.287 156.725L251.465 148.603Z" fill="#D1D1D1"/>
<path d="M233.479 133.813C222.538 118.552 226.04 97.3109 241.301 86.3701L244.086 84.3738C259.347 73.4331 280.588 76.9354 291.529 92.1965L295.177 117.881C295.177 117.881 287.172 123.62 277.297 130.699L274.512 132.696C264.637 139.775 256.632 145.514 256.632 145.514L233.479 133.813ZM310.46 118.604C321.401 133.865 317.899 155.106 302.638 166.047L299.853 168.043C284.592 178.984 263.351 175.482 252.41 160.22L262.163 153.229C269.242 163.104 282.986 165.37 292.861 158.29L295.646 156.294C305.521 149.215 307.787 135.471 300.708 125.596L310.46 118.604ZM299.853 168.043C284.592 178.984 263.351 175.482 252.41 160.22L233.479 133.813C222.538 118.552 226.04 97.3109 241.301 86.3701L274.512 132.696C264.637 139.775 256.632 145.514 256.632 145.514L262.163 153.229C269.242 163.104 282.986 165.37 292.861 158.29L299.853 168.043ZM244.086 84.3738C259.347 73.4331 280.588 76.9354 291.529 92.1965L310.46 118.604C321.401 133.865 317.899 155.106 302.638 166.047L295.646 156.294C305.521 149.215 307.787 135.471 300.708 125.596L295.177 117.881C295.177 117.881 287.172 123.62 277.297 130.699L244.086 84.3738Z" fill="#D1D1D1"/>
</g>
<mask id="mask1_196_625" style="mask-type:alpha" maskUnits="userSpaceOnUse" x="137" y="49" width="128" height="128">
<path d="M251.536 77.1368C254.854 82.4484 257.314 88.2015 258.824 94.1443C265.132 118.038 254.718 144.049 235.204 156.63C211.127 173.376 175.598 166.573 159.551 143.081C142.455 120.342 147.418 84.5092 171.007 67.0836C189.188 52.6412 217.165 51.1294 237.769 64.7743C242.912 68.1129 247.571 72.289 251.536 77.1368C248.222 71.8236 244.032 67.0002 239.121 62.9385C219.605 46.3001 188.05 44.2857 165.763 59.7691C136.858 78.0771 128.652 122.118 149.798 150.073C169.485 179.075 213.829 185.442 240.447 163.945C262.266 147.809 270.489 117.278 260.997 93.4531C258.727 87.498 255.504 81.9811 251.536 77.1368Z" fill="#D1D1D1"/>
</mask>
<g mask="url(#mask1_196_625)">
<path d="M245.903 141.348C238.581 131.134 240.925 116.919 251.139 109.596C261.353 102.274 275.568 104.618 282.891 114.832L285.82 118.919C293.143 129.133 290.799 143.348 280.585 150.67C270.371 157.993 256.156 155.649 248.833 145.435L245.903 141.348Z" fill="#D1D1D1"/>
<path d="M227.917 126.558C218.664 113.651 221.627 95.6867 234.533 86.4337C247.44 77.1807 265.404 80.1428 274.657 93.0496L285.82 118.919C285.96 119.113 286.096 119.309 286.229 119.507L267.744 132.759L249.26 146.011C249.115 145.821 248.972 145.629 248.833 145.435L227.917 126.558ZM290.697 115.423C299.95 128.33 296.988 146.294 284.081 155.547C271.174 164.8 253.21 161.838 243.957 148.931L253.71 141.939C259.101 149.46 269.569 151.186 277.089 145.794C284.61 140.403 286.336 129.935 280.944 122.415L290.697 115.423ZM284.081 155.547C271.174 164.8 253.21 161.838 243.957 148.931L227.917 126.558C218.664 113.651 221.627 95.6867 234.533 86.4337L267.744 132.759C260.224 138.151 254.127 142.521 254.127 142.521L253.71 141.939C259.101 149.46 269.569 151.186 277.089 145.794L284.081 155.547ZM234.533 86.4337C247.44 77.1807 265.404 80.1428 274.657 93.0496L290.697 115.423C299.95 128.33 296.988 146.294 284.081 155.547L277.089 145.794C284.61 140.403 286.336 129.935 280.944 122.415L281.361 122.997C281.361 122.997 275.265 127.368 267.744 132.759L234.533 86.4337Z" fill="#D1D1D1"/>
</g>
<mask id="mask2_196_625" style="mask-type:alpha" maskUnits="userSpaceOnUse" x="162" y="68" width="92" height="93">
<path d="M243.962 88.7097C246.186 92.4965 247.792 96.5575 248.735 100.714C252.671 117.443 245.055 134.965 231.746 143.235C215.281 154.239 191.744 149.413 181.062 133.803C169.707 118.675 172.693 94.834 188.401 82.7734C200.506 72.8239 219.545 71.2367 234.125 80.3349C237.759 82.5625 241.089 85.3874 243.962 88.7097C241.741 84.922 238.879 81.4497 235.477 78.4991C221.985 66.4074 199.368 64.4685 183.157 75.4588C162.133 88.4019 155.904 120.451 171.309 140.795C185.63 161.915 217.982 166.305 236.99 150.55C252.603 138.726 258.028 116.683 250.908 100.023C249.205 95.854 246.836 92.0291 243.962 88.7097Z" fill="#D1D1D1"/>
</mask>
<g mask="url(#mask2_196_625)">
<path d="M240.021 133.64C234.897 126.493 236.537 116.546 243.684 111.422C250.831 106.299 260.778 107.939 265.901 115.086L267.952 117.945C273.075 125.092 271.435 135.039 264.288 140.163C257.141 145.286 247.194 143.646 242.071 136.499L240.021 133.64Z" fill="#D1D1D1"/>
<path d="M222.035 118.849C214.98 109.009 217.239 95.3138 227.079 88.2595L227.079 88.2595C236.918 81.2052 250.614 83.4634 257.668 93.3033L267.952 117.945C269.837 120.576 270.877 123.719 270.931 126.955L260.289 134.585L249.646 142.215L249.647 142.214C246.599 141.123 243.957 139.13 242.071 136.499L222.035 118.849ZM272.828 114.449C279.882 124.289 277.624 137.985 267.784 145.039L267.784 145.039C257.944 152.093 244.249 149.835 237.194 139.995L246.947 133.004C250.14 137.457 256.339 138.479 260.792 135.286C265.246 132.094 266.268 125.895 263.075 121.441L272.828 114.449ZM267.784 145.039C257.944 152.093 244.249 149.835 237.194 139.995L222.035 118.849C214.98 109.009 217.239 95.3138 227.079 88.2595L260.289 134.585C255.836 137.778 252.225 140.366 252.225 140.366L246.947 133.004C250.14 137.457 256.339 138.479 260.792 135.286L267.784 145.039ZM227.079 88.2595C236.918 81.2052 250.614 83.4634 257.668 93.3033L272.828 114.449C279.882 124.289 277.624 137.985 267.784 145.039L260.792 135.286C265.246 132.094 266.268 125.895 263.075 121.441L268.353 128.804C268.353 128.804 264.743 131.392 260.289 134.585L227.079 88.2595Z" fill="#D1D1D1"/>
</g>
</svg>
