<svg width="306" height="246" viewBox="0 0 306 246" fill="none" xmlns="http://www.w3.org/2000/svg">
<path d="M0 0H224.288V0.352154H224.64V11.8201H224.992V12.1723L225.279 12.2565C226.362 12.5972 227.337 13.0565 228.344 13.5809C228.562 13.6919 228.784 13.8029 229.006 13.9139L234.34 16.5819V16.934L234.711 16.9838C235.319 17.1369 235.771 17.3934 236.31 17.7149L236.869 18.0479C237.336 18.3465 237.336 18.3465 237.688 18.6986L238.14 18.8632L238.568 19.0508L238.748 19.579C239.276 19.7972 239.276 19.7972 239.804 19.9312V20.2833H240.332V20.6393L240.807 20.6814C241.392 20.8154 241.392 20.8154 241.897 21.1561L242.272 21.5197V21.8718L243.156 22.0479L243.332 22.58H243.86V22.9321L244.564 23.1082V23.4604H245.092V23.8125L245.513 23.9771C245.976 24.1647 245.976 24.1647 246.328 24.3408V24.6929H246.856V25.0489L247.74 25.401V25.7532L248.134 25.8948C248.601 26.0977 248.949 26.2967 249.324 26.6336V26.9896L250.208 27.3417V27.6939L250.912 27.87V28.2221L251.234 28.3752C251.617 28.5743 251.617 28.5743 252.148 28.9264V29.2824L252.443 29.4125C252.933 29.6767 253.342 29.9944 253.778 30.3389L254.253 30.714L254.617 31.0432V31.3992H254.969V31.7513H255.321V32.1035L255.65 32.2681L256.381 32.6317V32.9838L257.085 33.336V33.692H257.613C257.903 33.9676 257.903 33.9676 258.21 34.3389C258.776 35.0317 259.392 35.6518 260.031 36.2796C260.368 36.6087 260.705 36.9418 261.041 37.2748L261.386 37.6078C262.055 38.2738 262.637 38.9552 263.188 39.7207C263.525 40.1609 263.919 40.5322 264.313 40.9226C264.711 41.3743 265.09 41.8375 265.472 42.3006L265.794 42.6949C266.639 43.7284 267.447 44.7848 268.239 45.8604C268.56 46.2968 268.866 46.714 269.249 47.0968V47.625H269.605C269.903 48.0193 270.19 48.425 270.462 48.8384L270.719 49.2174C270.902 49.4892 271.082 49.7571 271.262 50.0289C271.541 50.4461 271.824 50.8633 272.104 51.2806C272.919 52.4901 273.734 53.7035 274.468 54.9667C274.648 55.2691 274.836 55.5715 275.023 55.8701C276.152 57.65 277.109 59.5064 278.065 61.382L278.276 61.7916C278.926 63.0739 279.562 64.3562 280.143 65.6653C280.392 66.2165 280.644 66.76 280.901 67.3036C281.272 68.1112 281.624 68.9304 281.949 69.761C282.137 70.2433 282.34 70.7179 282.542 71.1926C283.377 73.1945 284.107 75.2271 284.769 77.2902C284.896 77.7649 284.896 77.7649 285.122 77.9639C285.125 78.3161 285.129 78.6682 285.122 79.0204H285.474L285.558 79.3381C285.741 80.0079 285.921 80.6778 286.105 81.3476C286.354 82.2701 286.614 83.1888 286.882 84.1036C287.215 85.252 287.498 86.4118 287.777 87.5754L287.907 88.1228C288.037 88.674 288.167 89.2252 288.294 89.7802L288.424 90.3505C288.776 91.9314 289.044 93.5161 289.296 95.1161C289.361 95.541 289.43 95.9697 289.499 96.3946C290.337 101.662 290.444 106.898 290.444 112.219C290.444 112.816 290.444 113.417 290.444 114.018C290.459 117.539 290.417 121.022 290.058 124.529L290 125.095C289.22 132.525 287.448 139.671 285.122 146.753C285.003 147.116 284.884 147.484 284.766 147.851C284.303 149.279 283.824 150.688 283.224 152.066C283.009 152.556 282.814 153.053 282.619 153.551C282.179 154.684 281.678 155.79 281.119 156.869C280.928 157.252 280.763 157.646 280.625 158.052C280.354 158.833 279.94 159.53 279.531 160.242C279.328 160.636 279.206 160.961 279.125 161.39H278.773L278.712 161.777C278.306 163.522 277.093 165.172 276.183 166.695C275.877 167.216 275.578 167.74 275.291 168.272C274.924 168.942 274.507 169.574 274.071 170.202C273.845 170.55 273.657 170.898 273.481 171.269H273.129V171.798H272.777L272.701 172.131C272.601 172.506 272.601 172.506 272.425 172.858H272.073L272.008 173.172C271.889 173.578 271.744 173.834 271.503 174.179L271.262 174.531L271.002 174.894L270.738 175.277C270.118 176.161 269.49 177.038 268.847 177.911C268.572 178.29 268.304 178.676 268.04 179.063L267.665 179.56H267.313V180.089H266.957L266.429 181.145H266.077L265.954 181.52C265.675 182.14 265.277 182.604 264.829 183.109L264.301 183.721L264.034 184.027C263.682 184.441 263.341 184.866 263 185.291C261.332 187.338 259.457 189.206 257.59 191.071C257.215 191.446 256.84 191.821 256.465 192.196L255.405 193.256C254.639 194.018 253.844 194.73 253.029 195.434C252.814 195.626 252.596 195.813 252.382 196.005L251.762 196.548L251.444 196.827C250.882 197.317 250.404 197.677 249.68 197.903V198.255C249.42 198.485 249.42 198.485 249.083 198.718L248.75 198.956L248.444 199.139H248.092V199.492C247.725 199.775 247.35 200.047 246.967 200.307L246.646 200.533C246.367 200.72 246.083 200.9 245.8 201.076H245.448V201.432H244.916V201.784C244.557 202.045 244.185 202.29 243.807 202.523L243.125 202.948L242.781 203.162C242.146 203.561 241.522 203.978 240.898 204.391C240.508 204.605 240.508 204.606 239.98 204.606V204.958C239.574 205.245 239.574 205.245 239.1 205.486H238.568V205.842L238.178 206.052L237.654 206.336L237.141 206.615C236.808 206.799 236.479 206.994 236.157 207.197C235.748 207.427 235.748 207.427 235.22 207.427V207.783L234.868 207.951C233.992 208.38 233.131 208.82 232.281 209.302L231.853 209.543C231.573 209.704 231.294 209.865 231.015 210.029L230.62 210.255L230.268 210.458C229.932 210.604 229.932 210.604 229.224 210.604V210.956C226.591 212.322 226.591 212.322 225.168 212.544V212.896L224.816 213.249C224.758 213.746 224.758 213.746 224.762 214.336L224.754 215.028L224.751 215.779C224.747 216.035 224.743 216.292 224.739 216.544C224.731 217.218 224.728 217.892 224.72 218.565C224.712 219.645 224.701 220.724 224.689 221.804C224.685 222.179 224.682 222.558 224.678 222.933L224.67 223.626L224.666 224.238C224.64 224.713 224.64 224.713 224.464 225.065L156.225 225.241V225.421H151.741C144.237 225.425 136.733 225.425 129.229 225.425H128.85L116.315 225.429C112.017 225.429 107.72 225.432 103.423 225.432C98.3836 225.436 93.3479 225.436 88.3084 225.436H87.9372C85.9627 225.436 83.9844 225.436 82.0061 225.436C80.024 225.44 78.038 225.44 76.052 225.44C74.9768 225.44 73.9015 225.44 72.8225 225.44C71.8391 225.44 70.8556 225.44 69.8722 225.44C69.5164 225.44 69.1567 225.44 68.8008 225.44C68.3187 225.44 67.8365 225.44 67.3505 225.44L66.922 225.444C66.5967 225.44 66.2715 225.432 65.9462 225.421L65.7702 225.241C65.4258 225.226 65.0776 225.222 64.7332 225.222L64.0444 225.218L63.2791 225.222H62.4717C61.7332 225.222 60.9909 225.222 60.2485 225.222C59.4526 225.222 58.6529 225.222 57.8531 225.222C56.4718 225.222 55.0866 225.222 53.7014 225.226C51.7001 225.226 49.6988 225.226 47.6975 225.226C44.4527 225.226 41.2039 225.229 37.9591 225.229C34.806 225.229 31.6491 225.233 28.4961 225.233H24.9833C16.8903 225.237 8.79717 225.237 0.707906 225.241L0.528059 224.713H0V0Z" fill="#ED3B02"/>
<path d="M0 0H224.288V0.352154H224.64V11.8201H224.992V12.1723L225.279 12.2565C226.362 12.5972 227.337 13.0565 228.344 13.5809C228.562 13.6919 228.784 13.8029 229.006 13.9139L234.34 16.5819V16.934L234.711 16.9838C235.319 17.1369 235.771 17.3934 236.31 17.7149L236.869 18.0479C237.336 18.3465 237.336 18.3465 237.688 18.6986L238.14 18.8632L238.568 19.0508L238.748 19.579C239.276 19.7972 239.276 19.7972 239.804 19.9312V20.2833H240.332V20.6393L240.807 20.6814C241.392 20.8154 241.392 20.8154 241.897 21.1561L242.272 21.5197V21.8718L243.156 22.0479L243.332 22.58H243.86V22.9321L244.564 23.1082V23.4604H245.092V23.8125L245.513 23.9771C245.976 24.1647 245.976 24.1647 246.328 24.3408V24.6929H246.856V25.0489L247.74 25.401V25.7532L248.134 25.8948C248.601 26.0977 248.949 26.2967 249.324 26.6336V26.9896L250.208 27.3417V27.6939L250.912 27.87V28.2221L251.234 28.3752C251.617 28.5743 251.617 28.5743 252.148 28.9264V29.2824L252.443 29.4125C252.933 29.6767 253.342 29.9944 253.778 30.3389L254.253 30.714L254.617 31.0432V31.3992H254.969V31.7513H255.321V32.1035L255.65 32.2681L256.381 32.6317V32.9838L257.085 33.336V33.692H257.613C257.903 33.9676 257.903 33.9676 258.21 34.3389C258.776 35.0317 259.392 35.6518 260.031 36.2796C260.368 36.6087 260.705 36.9418 261.041 37.2748L261.386 37.6078C262.055 38.2738 262.637 38.9552 263.188 39.7207C263.525 40.1609 263.919 40.5322 264.313 40.9226C264.711 41.3743 265.09 41.8375 265.472 42.3006L265.794 42.6949C266.639 43.7284 267.447 44.7848 268.239 45.8604C268.56 46.2968 268.866 46.714 269.249 47.0968V47.625H269.605C269.903 48.0193 270.19 48.425 270.462 48.8384L270.719 49.2174C270.902 49.4892 271.082 49.7571 271.262 50.0289C271.541 50.4461 271.824 50.8633 272.104 51.2806C272.919 52.4901 273.734 53.7035 274.468 54.9667C274.648 55.2691 274.836 55.5715 275.023 55.8701C276.152 57.65 277.109 59.5064 278.065 61.382L278.276 61.7916C278.926 63.0739 279.562 64.3562 280.143 65.6653C280.392 66.2165 280.644 66.76 280.901 67.3036C281.272 68.1112 281.624 68.9304 281.949 69.761C282.137 70.2433 282.34 70.7179 282.542 71.1926C283.377 73.1945 284.107 75.2271 284.769 77.2902C284.896 77.7649 284.896 77.7649 285.122 77.9639C285.125 78.3161 285.129 78.6682 285.122 79.0204H285.474L285.558 79.3381C285.741 80.0079 285.921 80.6778 286.105 81.3476C286.354 82.2701 286.614 83.1888 286.882 84.1036C287.215 85.252 287.498 86.4118 287.777 87.5754L287.907 88.1228C288.037 88.674 288.167 89.2252 288.294 89.7802L288.424 90.3505C288.776 91.9314 289.044 93.5161 289.296 95.1161C289.361 95.541 289.43 95.9697 289.499 96.3946C290.337 101.662 290.444 106.898 290.444 112.219C290.444 112.816 290.444 113.417 290.444 114.018C290.459 117.539 290.417 121.022 290.058 124.529L290 125.095C289.22 132.525 287.448 139.671 285.122 146.753C285.003 147.116 284.884 147.484 284.766 147.851C284.303 149.279 283.824 150.688 283.224 152.066C283.009 152.556 282.814 153.053 282.619 153.551C282.179 154.684 281.678 155.79 281.119 156.869C280.928 157.252 280.763 157.646 280.625 158.052C280.354 158.833 279.94 159.53 279.531 160.242C279.328 160.636 279.206 160.961 279.125 161.39H278.773L278.712 161.777C278.306 163.522 277.093 165.172 276.183 166.695C275.877 167.216 275.578 167.74 275.291 168.272C274.924 168.942 274.507 169.574 274.071 170.202C273.845 170.55 273.657 170.898 273.481 171.269H273.129V171.798H272.777L272.701 172.131C272.601 172.506 272.601 172.506 272.425 172.858H272.073L272.008 173.172C271.889 173.578 271.744 173.834 271.503 174.179L271.262 174.531L271.002 174.894L270.738 175.277C270.118 176.161 269.49 177.038 268.847 177.911C268.572 178.29 268.304 178.676 268.04 179.063L267.665 179.56H267.313V180.089H266.957L266.429 181.145H266.077L265.954 181.52C265.675 182.14 265.277 182.604 264.829 183.109L264.301 183.721L264.034 184.027C263.682 184.441 263.341 184.866 263 185.291C261.332 187.338 259.457 189.206 257.59 191.071C257.215 191.446 256.84 191.821 256.465 192.196L255.405 193.256C254.639 194.018 253.844 194.73 253.029 195.434C252.814 195.626 252.596 195.813 252.382 196.005L251.762 196.548L251.444 196.827C250.882 197.317 250.404 197.677 249.68 197.903V198.255C249.42 198.485 249.42 198.485 249.083 198.718L248.75 198.956L248.444 199.139H248.092V199.492C247.725 199.775 247.35 200.047 246.967 200.307L246.646 200.533C246.367 200.72 246.083 200.9 245.8 201.076H245.448V201.432H244.916V201.784C244.557 202.045 244.185 202.29 243.807 202.523L243.125 202.948L242.781 203.162C242.146 203.561 241.522 203.978 240.898 204.391C240.508 204.605 240.508 204.606 239.98 204.606V204.958C239.574 205.245 239.574 205.245 239.1 205.486H238.568V205.842L238.178 206.052L237.654 206.336L237.141 206.615C236.808 206.799 236.479 206.994 236.157 207.197C235.748 207.427 235.748 207.427 235.22 207.427V207.783L234.868 207.951C233.992 208.38 233.131 208.82 232.281 209.302L231.853 209.543C231.573 209.704 231.294 209.865 231.015 210.029L230.62 210.255L230.268 210.458C229.932 210.604 229.932 210.604 229.224 210.604V210.956C226.591 212.322 226.591 212.322 225.168 212.544V212.896L224.816 213.249C224.758 213.746 224.758 213.746 224.762 214.336L224.754 215.028L224.751 215.779C224.747 216.035 224.743 216.292 224.739 216.544C224.731 217.218 224.728 217.892 224.72 218.565C224.712 219.645 224.701 220.724 224.689 221.804C224.685 222.179 224.682 222.558 224.678 222.933L224.67 223.626L224.666 224.238C224.64 224.713 224.64 224.713 224.464 225.065L156.225 225.241V225.421H151.741C144.237 225.425 136.733 225.425 129.229 225.425H128.85L116.315 225.429C112.017 225.429 107.72 225.432 103.423 225.432C98.3836 225.436 93.3479 225.436 88.3084 225.436H87.9372C85.9627 225.436 83.9844 225.436 82.0061 225.436C80.024 225.44 78.038 225.44 76.052 225.44C74.9768 225.44 73.9015 225.44 72.8225 225.44C71.8391 225.44 70.8556 225.44 69.8722 225.44C69.5164 225.44 69.1567 225.44 68.8008 225.44C68.3187 225.44 67.8365 225.44 67.3505 225.44L66.922 225.444C66.5967 225.44 66.2715 225.432 65.9462 225.421L65.7702 225.241C65.4258 225.226 65.0776 225.222 64.7332 225.222L64.0444 225.218L63.2791 225.222H62.4717C61.7332 225.222 60.9909 225.222 60.2485 225.222C59.4526 225.222 58.6529 225.222 57.8531 225.222C56.4718 225.222 55.0866 225.222 53.7014 225.226C51.7001 225.226 49.6988 225.226 47.6975 225.226C44.4527 225.226 41.2039 225.229 37.9591 225.229C34.806 225.229 31.6491 225.233 28.4961 225.233H24.9833C16.8903 225.237 8.79717 225.237 0.707906 225.241L0.528059 224.713H0V0Z" fill="#ED3B02"/>
<path d="M225.016 12.0229C225.273 12.1073 225.525 12.1878 225.781 12.2721L226.21 12.414C226.657 12.5711 227.074 12.7628 227.495 12.9813L227.946 13.2151L228.367 13.4336C228.585 13.5448 228.807 13.656 229.029 13.7672L234.361 16.4391V16.7917L234.732 16.8416C235.34 16.9949 235.792 17.2517 236.331 17.5737L236.889 17.9073C237.356 18.2063 237.356 18.2063 237.708 18.5589L238.159 18.7238L238.588 18.9116L238.767 19.4406C239.295 19.6591 239.295 19.6591 239.823 19.7933V20.146H240.351V20.5025L240.825 20.5446C241.411 20.6788 241.411 20.6788 241.915 21.02L242.29 21.3842V21.7368L243.174 21.9132L243.35 22.446H243.878V22.7987L244.581 22.975V23.3277H245.109V23.6804L245.53 23.8452C245.993 24.0331 245.993 24.0331 246.345 24.2094V24.5621H246.873V24.9186L247.756 25.2713V25.6239L248.15 25.7658C248.617 25.9689 248.965 26.1683 249.34 26.5056V26.8621L250.223 27.2148V27.5675L250.927 27.7438V28.0965L251.249 28.2498C251.631 28.4492 251.631 28.4492 252.163 28.8018V29.1583L252.457 29.2887C252.947 29.5532 253.356 29.8714 253.792 30.2164L254.267 30.592L254.63 30.9217V31.2782H254.982V31.6309H255.334V31.9836L255.663 32.1484L256.393 32.5126V32.8653L257.097 33.2179V33.5744H257.625C257.916 33.8504 257.916 33.8504 258.222 34.2223C258.788 34.9161 259.404 35.5372 260.042 36.1658C260.379 36.4955 260.716 36.829 261.052 37.1625L261.396 37.496C262.066 38.163 262.647 38.8454 263.198 39.6121C263.535 40.0529 263.929 40.4248 264.323 40.8158C264.72 41.2681 265.099 41.732 265.482 42.1958L265.803 42.5906C266.648 43.6257 267.455 44.6837 268.247 45.7609C268.568 46.1979 268.874 46.6157 269.257 46.9991V47.5281H269.613C269.911 47.9229 270.198 48.3293 270.469 48.7433L270.726 49.1228C270.909 49.395 271.089 49.6633 271.269 49.9355C271.548 50.3533 271.831 50.7712 272.11 51.189C272.925 52.4004 273.74 53.6156 274.474 54.8806C274.654 55.1834 274.841 55.4863 275.029 55.7853C276.157 57.5678 277.113 59.427 278.07 61.3054L278.28 61.7156C278.93 62.9998 279.565 64.284 280.147 65.595C280.395 66.147 280.648 66.6914 280.904 67.2357C281.275 68.0446 281.627 68.8649 281.952 69.6968C282.14 70.1798 282.342 70.6551 282.545 71.1305C283.379 73.1353 284.109 75.1709 284.771 77.2371C284.897 77.7125 284.897 77.7125 285.123 77.9118C285.127 78.2645 285.131 78.6171 285.123 78.9698H285.475L285.559 79.288L285.957 80.76L286.106 81.3005C286.355 82.2244 286.615 83.1444 286.883 84.0606C287.215 85.2106 287.498 86.3721 287.778 87.5375L287.908 88.0857C288.038 88.6377 288.168 89.1897 288.294 89.7456L288.424 90.3167C288.776 91.8999 289.044 93.487 289.296 95.0893C289.361 95.5149 289.43 95.9442 289.499 96.3697C290.337 101.644 290.444 106.889 290.444 112.217C290.444 112.815 290.444 113.417 290.444 114.019C290.459 117.546 290.417 121.034 290.057 124.545L290 125.113C289.22 132.553 287.449 139.71 285.123 146.802C285.005 147.166 284.886 147.534 284.767 147.902C284.305 149.332 283.826 150.743 283.226 152.123C283.012 152.614 282.817 153.112 282.622 153.61C282.182 154.745 281.681 155.853 281.122 156.934C280.931 157.317 280.766 157.712 280.629 158.118C280.357 158.9 279.944 159.598 279.535 160.311C279.332 160.706 279.21 161.032 279.129 161.461H278.777L278.716 161.848C278.311 163.596 277.098 165.249 276.188 166.774C275.882 167.296 275.583 167.821 275.297 168.354C274.929 169.025 274.512 169.657 274.076 170.286C273.851 170.635 273.663 170.983 273.487 171.355H273.135V171.884H272.784L272.707 172.218C272.608 172.593 272.608 172.593 272.432 172.946H272.08L272.015 173.26C271.896 173.667 271.751 173.924 271.51 174.269L271.269 174.621L271.009 174.986L270.745 175.369C270.125 176.254 269.498 177.132 268.855 178.006C268.58 178.386 268.312 178.773 268.048 179.16L267.673 179.658H267.321V180.187H266.966L266.438 181.245H266.086L265.963 181.621C265.684 182.242 265.286 182.706 264.839 183.212L264.311 183.825L264.043 184.132C263.691 184.546 263.351 184.972 263.011 185.397C261.343 187.448 259.469 189.319 257.602 191.186C257.227 191.561 256.852 191.937 256.477 192.313L255.418 193.374C254.653 194.137 253.857 194.85 253.042 195.556C252.828 195.747 252.61 195.935 252.396 196.127L251.776 196.671L251.459 196.951C250.897 197.442 250.419 197.802 249.696 198.028V198.381C249.435 198.611 249.435 198.611 249.099 198.845L248.766 199.082L248.46 199.266H248.108V199.619C247.741 199.903 247.366 200.175 246.984 200.436L246.662 200.662C246.383 200.85 246.1 201.03 245.817 201.206H245.465V201.563H244.933V201.915C244.574 202.176 244.203 202.421 243.824 202.655L243.143 203.081L242.799 203.295C242.164 203.694 241.541 204.112 240.917 204.526C240.527 204.741 240.527 204.741 239.999 204.741V205.093C239.594 205.381 239.594 205.381 239.119 205.622H238.588V205.979L238.198 206.19L237.673 206.473L237.161 206.753C236.828 206.937 236.499 207.133 236.178 207.336C235.769 207.566 235.769 207.566 235.241 207.566V207.922L234.889 208.091C234.013 208.52 233.152 208.961 232.303 209.444L231.875 209.686C231.595 209.847 231.316 210.008 231.037 210.172L230.643 210.399L230.291 210.602C229.955 210.747 229.955 210.747 229.247 210.747V211.1C226.615 212.469 226.615 212.469 225.192 212.691V213.044H224.84C224.837 183.112 224.837 183.112 224.833 157.754V129.517C224.833 120.286 224.833 111.052 224.829 101.821C224.825 95.0855 224.825 88.3502 224.825 81.6149V67.9641C224.825 63.6553 224.825 59.3427 224.821 55.0301C224.821 50.0773 224.821 45.1245 224.821 40.1679V39.8114C224.821 37.8372 224.821 35.8668 224.821 33.8926C224.818 32.1676 224.818 30.4425 224.821 28.7213C224.821 27.74 224.821 26.7625 224.818 25.7811C224.818 21.1925 224.867 16.6077 225.016 12.0229Z" fill="#070706"/>
<path d="M266.416 46.9675H266.769C267.045 47.3161 267.313 47.6761 267.566 48.0477L268.046 48.7333L268.295 49.0895C268.517 49.4112 268.748 49.7291 268.978 50.0471C270.128 51.6289 271.202 53.253 272.249 54.9076L272.483 55.2792C274.393 58.3166 276.184 61.442 277.753 64.6671C277.975 65.1191 278.213 65.5672 278.455 66.0115C280.345 69.4358 281.711 73.1205 283.03 76.7937L283.256 77.4219C286.236 85.7527 288.043 94.4665 288.86 103.268L288.925 103.943C289.447 109.91 289.477 116.019 288.86 121.979L288.756 123.105C287.59 135.132 284.173 146.845 279.141 157.807L278.884 158.363C277.703 160.921 276.407 163.392 274.988 165.824C274.742 166.245 274.5 166.667 274.259 167.088C273.273 168.8 272.207 170.443 271.095 172.075C270.849 172.435 270.608 172.795 270.366 173.155C268.456 175.99 266.37 178.709 264.118 181.283L263.781 181.67C263.102 182.451 262.412 183.217 261.717 183.983C261.484 184.244 261.253 184.504 261.023 184.768C260.31 185.596 259.57 186.381 258.795 187.155L258.446 187.507C258.204 187.752 257.959 187.994 257.717 188.235C257.349 188.603 256.985 188.974 256.617 189.342C255.405 190.56 254.196 191.732 252.808 192.755L252.455 192.402L252.808 191.87C252.754 191.491 252.754 191.491 252.632 191.165L251.746 190.989C252.275 190.341 252.793 189.748 253.429 189.212C254.3 188.461 255.109 187.656 255.922 186.844C256.175 186.588 256.432 186.331 256.689 186.078C257.61 185.155 258.5 184.213 259.347 183.221C259.597 182.945 259.846 182.669 260.099 182.394C263.363 178.778 266.293 174.879 269.02 170.846C269.235 170.528 269.449 170.214 269.668 169.899C273.335 164.572 276.265 158.681 278.731 152.717C278.93 152.238 279.134 151.767 279.337 151.292C281.435 146.378 282.923 141.13 284.089 135.921L284.173 135.554C284.986 131.934 285.611 128.318 286.033 124.626L286.106 124.013C286.62 119.758 286.762 115.491 286.915 111.212H286.562L286.57 111.806C286.578 113.212 286.562 114.583 286.386 115.977C285.627 116.207 285.044 116.092 284.265 115.977L284.089 115.449L283.747 115.38L283.383 115.272L283.03 114.388C282.693 114.211 282.693 114.211 282.321 114.211L281.791 114.388V114.035L280.733 113.683L280.368 113.606C280.023 113.507 280.023 113.507 279.67 113.154L279.13 112.921L278.612 112.622C278.543 112.331 278.485 112.036 278.432 111.741C277.991 111.442 277.991 111.442 277.55 111.212V110.86H277.02L276.844 109.975L276.832 110.431C276.733 114.46 276.614 118.497 276.134 122.508H275.781C275.808 121.952 275.835 121.397 275.858 120.842L275.881 120.382C275.923 119.501 275.969 118.62 276.027 117.739C276.13 116.092 276.173 114.449 276.169 112.798V112.388C276.153 105.892 275.766 99.1355 274.098 92.8386C273.983 92.3752 273.906 91.9117 273.837 91.4444H273.484L273.308 91.7968L273.005 91.6589L272.591 91.475L272.149 91.2797C271.889 91.1648 271.628 91.0537 271.363 90.9503C270.681 90.6822 270.27 90.3834 269.775 89.8549C269.48 89.6748 269.185 89.4986 268.889 89.3263C267.969 88.7096 267.229 88.0355 266.519 87.1852C266.224 86.8213 266.224 86.8213 265.764 86.4229C265.292 85.8982 265.085 85.3964 264.82 84.7491C264.605 84.2933 264.302 84.0252 263.942 83.6767C263.762 83.2668 263.585 82.857 263.413 82.4433L263.067 82.0335C262.649 81.4896 262.442 80.9687 262.201 80.329C262.047 79.9268 261.89 79.5285 261.725 79.1301L261.579 78.7778C261.484 78.5479 261.391 78.322 261.296 78.0921C260.13 75.2348 260.295 70.9602 260.628 67.919C260.747 67.1032 260.927 66.3026 261.115 65.4983L261.38 64.196C261.56 63.3533 261.786 62.5413 262.043 61.7178C262.251 60.9939 262.396 60.2547 262.55 59.5154C262.83 58.1825 263.16 56.8572 263.482 55.532C263.578 55.1221 263.673 54.7085 263.766 54.2948C264.068 52.9657 264.479 51.8588 265.135 50.6637C265.457 49.8977 265.445 49.1661 265.472 48.3426C265.534 47.8485 265.534 47.8485 265.725 47.5076C265.963 47.2625 265.963 47.2625 266.416 46.9675Z" fill="black"/>
<path d="M280.978 72.5178L281.439 72.7017C281.703 73.1691 281.887 73.5829 282.068 74.081L282.244 74.5484C282.451 75.1078 282.654 75.671 282.85 76.2342L283.092 76.897C286.144 85.3947 288.028 94.2641 288.86 103.245L288.925 103.919C289.447 109.888 289.477 115.999 288.86 121.96L288.756 123.087C287.59 135.117 284.173 146.833 279.141 157.798L278.884 158.354C277.703 160.913 276.407 163.384 274.988 165.817C274.742 166.238 274.5 166.66 274.259 167.081C273.273 168.794 272.207 170.437 271.095 172.07C270.849 172.43 270.608 172.79 270.366 173.15C268.456 175.985 266.37 178.705 264.118 181.28L263.781 181.667C263.102 182.448 262.412 183.215 261.717 183.981C261.484 184.241 261.25 184.502 261.023 184.766C260.31 185.594 259.57 186.379 258.795 187.153L258.446 187.506C258.204 187.751 257.959 187.992 257.717 188.234C257.349 188.601 256.985 188.973 256.617 189.341C255.405 190.559 254.196 191.732 252.808 192.755L252.455 192.402L252.808 191.87C252.754 191.49 252.754 191.49 252.632 191.165L251.746 190.988C252.275 190.341 252.793 189.747 253.429 189.211C254.3 188.46 255.109 187.655 255.922 186.843C256.175 186.586 256.432 186.33 256.689 186.077C257.61 185.153 258.5 184.211 259.347 183.219C259.597 182.943 259.846 182.667 260.099 182.391C263.363 178.774 266.293 174.874 269.02 170.84C269.235 170.522 269.449 170.208 269.668 169.893C273.335 164.564 276.265 158.672 278.731 152.706C278.93 152.227 279.134 151.756 279.337 151.281C281.435 146.366 282.923 141.117 284.089 135.906L284.173 135.538C284.986 131.918 285.615 128.301 286.033 124.608L286.11 123.941C286.628 119.401 286.808 114.873 286.739 110.306L286.731 109.773C286.536 97.1069 283.54 84.8775 279.141 73.0542L279.471 72.9814C279.855 72.8933 279.855 72.8933 280.188 72.6826C280.553 72.5255 280.553 72.5255 280.978 72.5178Z" fill="black"/>
<path d="M276.105 158.562L277.695 158.737L277.871 159.445L277.695 159.621L278.047 159.797C277.818 160.547 277.527 161.22 277.155 161.912L276.829 162.524L276.481 163.166L276.304 163.499C274.699 166.467 272.968 169.328 271.064 172.112C270.823 172.468 270.585 172.824 270.348 173.179C268.44 176.013 266.356 178.729 264.104 181.299L263.767 181.685C263.088 182.466 262.399 183.23 261.706 183.995C261.472 184.255 261.238 184.516 261.012 184.779C260.3 185.606 259.56 186.39 258.787 187.162L258.438 187.514C258.197 187.759 257.951 188 257.71 188.241C257.342 188.608 256.978 188.979 256.611 189.346C255.4 190.562 254.194 191.733 252.807 192.754L252.454 192.402L252.807 191.87C252.753 191.492 252.753 191.492 252.631 191.167L251.746 190.991C252.274 190.344 252.791 189.751 253.427 189.216C254.297 188.466 255.105 187.663 255.917 186.852C256.17 186.596 256.427 186.34 256.684 186.087C257.603 185.166 258.492 184.225 259.338 183.234C259.587 182.959 259.836 182.684 260.089 182.408C263.349 178.798 266.276 174.904 268.999 170.877C269.214 170.559 269.428 170.246 269.647 169.932C272.125 166.333 274.132 162.455 276.105 158.562Z" fill="black"/>
<path d="M255.162 125.873L255.503 126.046C255.399 127.208 255.199 128.307 254.929 129.439L254.817 129.909C254.599 130.838 254.317 131.748 253.965 132.636H253.624C253.939 131.177 254.284 129.728 254.628 128.28L254.762 127.72L254.884 127.212C254.984 126.768 255.077 126.32 255.162 125.873Z" fill="black"/>
<path d="M259.796 165.202H260.145C259.876 166.018 259.44 166.645 258.944 167.33L258.717 167.653C257.805 168.934 257.805 168.934 257.354 169.458H257.006C257.252 168.661 257.645 168.261 258.225 167.684C258.41 167.395 258.581 167.099 258.751 166.799C258.925 166.514 259.103 166.229 259.285 165.945L259.55 165.521L259.796 165.202ZM266.426 153.677H266.775C266.54 154.635 266.195 155.447 265.73 156.313L265.54 156.678C265.378 156.982 265.207 157.279 265.029 157.579L264.681 157.756C264.787 157.078 264.988 156.563 265.306 155.959C265.658 155.301 265.658 155.301 265.73 154.562H266.252L266.426 153.677Z" fill="black"/>
<path d="M254.869 140.527L255.224 140.702C254.881 141.795 254.468 142.833 253.979 143.872H253.624C253.99 142.734 254.41 141.63 254.869 140.527ZM263.039 160.057L263.394 160.408C263.197 160.76 263 161.107 262.804 161.455L262.472 162.043L262.149 162.52L261.617 162.695C261.86 162.046 262.16 161.474 262.526 160.882L262.815 160.412L263.039 160.057Z" fill="black"/>
<path d="M253.249 144.283L253.625 144.458C253.232 145.829 253.232 145.829 252.816 146.335C252.591 146.54 252.358 146.727 252.122 146.913C252.42 146 252.824 145.147 253.249 144.283Z" fill="black"/>
<path d="M15.35 30H11.625C11.3083 30 11.075 29.9333 10.925 29.8C10.7917 29.65 10.725 29.4167 10.725 29.1V12.9C10.725 12.5833 10.7917 12.3583 10.925 12.225C11.075 12.075 11.3083 12 11.625 12H15.65C15.9167 12 16.1333 12.0583 16.3 12.175C16.4833 12.2917 16.65 12.4833 16.8 12.75L19.05 16.825C19.1333 16.975 19.2 17.0833 19.25 17.15C19.3167 17.2167 19.4 17.25 19.5 17.25H19.725C19.825 17.25 19.9 17.2167 19.95 17.15C20.0167 17.0833 20.0917 16.975 20.175 16.825L22.4 12.75C22.55 12.4833 22.7083 12.2917 22.875 12.175C23.0583 12.0583 23.2833 12 23.55 12H27.6C27.9167 12 28.1417 12.075 28.275 12.225C28.425 12.3583 28.5 12.5833 28.5 12.9V29.1C28.5 29.4167 28.425 29.65 28.275 29.8C28.1417 29.9333 27.9167 30 27.6 30H23.75C23.4333 30 23.2 29.9333 23.05 29.8C22.9167 29.65 22.85 29.4167 22.85 29.1V20.3L21.375 23.025C21.225 23.3083 21.0417 23.5167 20.825 23.65C20.625 23.7667 20.3667 23.825 20.05 23.825H19.05C18.7333 23.825 18.4667 23.7667 18.25 23.65C18.05 23.5167 17.875 23.3083 17.725 23.025L16.25 20.3V29.1C16.25 29.4167 16.175 29.65 16.025 29.8C15.8917 29.9333 15.6667 30 15.35 30ZM47.2658 25.275C47.2658 26.0417 47.1492 26.7417 46.9158 27.375C46.6992 27.9917 46.2992 28.525 45.7158 28.975C45.1492 29.4083 44.3658 29.75 43.3658 30C42.3658 30.25 41.0908 30.375 39.5408 30.375C37.9908 30.375 36.7158 30.25 35.7158 30C34.7158 29.75 33.9242 29.4083 33.3408 28.975C32.7742 28.525 32.3742 27.9917 32.1408 27.375C31.9242 26.7417 31.8158 26.0417 31.8158 25.275V12.9C31.8158 12.5833 31.8825 12.3583 32.0158 12.225C32.1658 12.075 32.3992 12 32.7158 12H36.6408C36.9575 12 37.1825 12.075 37.3158 12.225C37.4658 12.3583 37.5408 12.5833 37.5408 12.9V24.3C37.5408 24.6333 37.6658 24.9167 37.9158 25.15C38.1658 25.3667 38.7242 25.475 39.5908 25.475C40.4742 25.475 41.0408 25.3667 41.2908 25.15C41.5408 24.9167 41.6658 24.6333 41.6658 24.3V12.9C41.6658 12.5833 41.7325 12.3583 41.8658 12.225C42.0158 12.075 42.2492 12 42.5658 12H46.3658C46.6825 12 46.9075 12.075 47.0408 12.225C47.1908 12.3583 47.2658 12.5833 47.2658 12.9V25.275ZM58.9432 30H51.0432C50.7265 30 50.4932 29.9333 50.3432 29.8C50.2098 29.65 50.1432 29.4167 50.1432 29.1V26.175C50.1432 25.8583 50.2098 25.6333 50.3432 25.5C50.4932 25.35 50.7265 25.275 51.0432 25.275H57.7682C57.9848 25.275 58.1432 25.2083 58.2432 25.075C58.3598 24.925 58.4182 24.75 58.4182 24.55C58.4182 24.2667 58.3598 24.0583 58.2432 23.925C58.1432 23.7917 57.9848 23.7167 57.7682 23.7L54.0182 23.175C52.8515 23.0083 51.9098 22.625 51.1932 22.025C50.4932 21.425 50.1432 20.425 50.1432 19.025V16.4C50.1432 14.9833 50.6015 13.9 51.5182 13.15C52.4348 12.3833 53.7015 12 55.3182 12H62.3182C62.6348 12 62.8598 12.075 62.9932 12.225C63.1432 12.3583 63.2182 12.5833 63.2182 12.9V15.875C63.2182 16.1917 63.1432 16.425 62.9932 16.575C62.8598 16.7083 62.6348 16.775 62.3182 16.775H56.4932C56.2765 16.775 56.1098 16.85 55.9932 17C55.8765 17.1333 55.8182 17.3083 55.8182 17.525C55.8182 17.7417 55.8765 17.925 55.9932 18.075C56.1098 18.225 56.2765 18.3083 56.4932 18.325L60.2182 18.825C61.3848 18.9917 62.3265 19.375 63.0432 19.975C63.7598 20.575 64.1182 21.575 64.1182 22.975V25.6C64.1182 27.0167 63.6515 28.1083 62.7182 28.875C61.8015 29.625 60.5432 30 58.9432 30ZM67.3529 30C67.0363 30 66.8029 29.9333 66.6529 29.8C66.5196 29.65 66.4529 29.4167 66.4529 29.1V26.125C66.4529 25.8083 66.5196 25.5833 66.6529 25.45C66.8029 25.3 67.0363 25.225 67.3529 25.225H69.8279V16.825H67.3529C67.0363 16.825 66.8029 16.7583 66.6529 16.625C66.5196 16.475 66.4529 16.2417 66.4529 15.925V12.9C66.4529 12.5833 66.5196 12.3583 66.6529 12.225C66.8029 12.075 67.0363 12 67.3529 12H78.0029C78.3196 12 78.5446 12.075 78.6779 12.225C78.8279 12.3583 78.9029 12.5833 78.9029 12.9V15.925C78.9029 16.2417 78.8279 16.475 78.6779 16.625C78.5446 16.7583 78.3196 16.825 78.0029 16.825H75.5779V25.225H78.0029C78.3196 25.225 78.5446 25.3 78.6779 25.45C78.8279 25.5833 78.9029 25.8083 78.9029 26.125V29.1C78.9029 29.4167 78.8279 29.65 78.6779 29.8C78.5446 29.9333 78.3196 30 78.0029 30H67.3529ZM86.7646 30H82.8896C82.573 30 82.3396 29.9333 82.1896 29.8C82.0563 29.65 81.9896 29.4167 81.9896 29.1V12.9C81.9896 12.5833 82.0563 12.3583 82.1896 12.225C82.3396 12.075 82.573 12 82.8896 12H86.7646C87.0813 12 87.3063 12.075 87.4396 12.225C87.5896 12.3583 87.6646 12.5833 87.6646 12.9V18.65H88.6646L91.2396 12.825C91.3563 12.525 91.5146 12.3167 91.7146 12.2C91.9146 12.0667 92.173 12 92.4896 12H96.3396C96.623 12 96.8146 12.075 96.9146 12.225C97.0146 12.3583 97.0063 12.5583 96.8896 12.825L94.3396 18.65C95.273 18.7 96.0146 19.0333 96.5646 19.65C97.1313 20.25 97.4146 21.05 97.4146 22.05V29.1C97.4146 29.4167 97.3396 29.65 97.1896 29.8C97.0563 29.9333 96.8313 30 96.5146 30H92.6646C92.348 30 92.1146 29.9333 91.9646 29.8C91.8313 29.65 91.7646 29.4167 91.7646 29.1V24.225C91.7646 23.9583 91.698 23.75 91.5646 23.6C91.4313 23.45 91.2313 23.375 90.9646 23.375H87.6646V29.1C87.6646 29.4167 87.5896 29.65 87.4396 29.8C87.3063 29.9333 87.0813 30 86.7646 30ZM15.5 60H11.625C11.3083 60 11.075 59.9333 10.925 59.8C10.7917 59.65 10.725 59.4167 10.725 59.1V42.9C10.725 42.5833 10.7917 42.3583 10.925 42.225C11.075 42.075 11.3083 42 11.625 42H15.5C15.8167 42 16.0417 42.075 16.175 42.225C16.325 42.3583 16.4 42.5833 16.4 42.9V48.65H17.4L19.975 42.825C20.0917 42.525 20.25 42.3167 20.45 42.2C20.65 42.0667 20.9083 42 21.225 42H25.075C25.3583 42 25.55 42.075 25.65 42.225C25.75 42.3583 25.7417 42.5583 25.625 42.825L23.075 48.65C24.0083 48.7 24.75 49.0333 25.3 49.65C25.8667 50.25 26.15 51.05 26.15 52.05V59.1C26.15 59.4167 26.075 59.65 25.925 59.8C25.7917 59.9333 25.5667 60 25.25 60H21.4C21.0833 60 20.85 59.9333 20.7 59.8C20.5667 59.65 20.5 59.4167 20.5 59.1V54.225C20.5 53.9583 20.4333 53.75 20.3 53.6C20.1667 53.45 19.9667 53.375 19.7 53.375H16.4V59.1C16.4 59.4167 16.325 59.65 16.175 59.8C16.0417 59.9333 15.8167 60 15.5 60ZM44.6273 55.275C44.6273 56.0417 44.5107 56.7417 44.2773 57.375C44.0607 57.9917 43.6607 58.525 43.0773 58.975C42.5107 59.4083 41.719 59.75 40.7023 60C39.7023 60.25 38.4273 60.375 36.8773 60.375C35.3273 60.375 34.044 60.25 33.0273 60C32.0107 59.75 31.2107 59.4083 30.6273 58.975C30.0607 58.525 29.6607 57.9917 29.4273 57.375C29.2107 56.7417 29.1023 56.0417 29.1023 55.275V46.75C29.1023 45.9833 29.2107 45.2917 29.4273 44.675C29.6607 44.0417 30.0607 43.5 30.6273 43.05C31.2107 42.6 32.0107 42.25 33.0273 42C34.044 41.75 35.3273 41.625 36.8773 41.625C38.4273 41.625 39.7023 41.75 40.7023 42C41.719 42.25 42.5107 42.6 43.0773 43.05C43.6607 43.5 44.0607 44.0417 44.2773 44.675C44.5107 45.2917 44.6273 45.9833 44.6273 46.75V55.275ZM34.7773 54.375C34.7773 54.7083 34.9023 54.9917 35.1523 55.225C35.4023 55.4417 35.9773 55.55 36.8773 55.55C37.7773 55.55 38.3523 55.4417 38.6023 55.225C38.8523 54.9917 38.9773 54.7083 38.9773 54.375V47.65C38.9773 47.3333 38.8523 47.0667 38.6023 46.85C38.3523 46.6167 37.7773 46.5 36.8773 46.5C35.9773 46.5 35.4023 46.6167 35.1523 46.85C34.9023 47.0667 34.7773 47.3333 34.7773 47.65V54.375ZM52.435 60H48.71C48.3933 60 48.16 59.9333 48.01 59.8C47.8766 59.65 47.81 59.4167 47.81 59.1V42.9C47.81 42.5833 47.8766 42.3583 48.01 42.225C48.16 42.075 48.3933 42 48.71 42H52.735C53.0016 42 53.2183 42.0583 53.385 42.175C53.5683 42.2917 53.735 42.4833 53.885 42.75L56.135 46.825C56.2183 46.975 56.285 47.0833 56.335 47.15C56.4016 47.2167 56.485 47.25 56.585 47.25H56.81C56.91 47.25 56.985 47.2167 57.035 47.15C57.1016 47.0833 57.1766 46.975 57.26 46.825L59.485 42.75C59.635 42.4833 59.7933 42.2917 59.96 42.175C60.1433 42.0583 60.3683 42 60.635 42H64.685C65.0016 42 65.2266 42.075 65.36 42.225C65.51 42.3583 65.585 42.5833 65.585 42.9V59.1C65.585 59.4167 65.51 59.65 65.36 59.8C65.2266 59.9333 65.0016 60 64.685 60H60.835C60.5183 60 60.285 59.9333 60.135 59.8C60.0016 59.65 59.935 59.4167 59.935 59.1V50.3L58.46 53.025C58.31 53.3083 58.1266 53.5167 57.91 53.65C57.71 53.7667 57.4516 53.825 57.135 53.825H56.135C55.8183 53.825 55.5516 53.7667 55.335 53.65C55.135 53.5167 54.96 53.3083 54.81 53.025L53.335 50.3V59.1C53.335 59.4167 53.26 59.65 53.11 59.8C52.9766 59.9333 52.7516 60 52.435 60ZM73.8008 60H69.9258C69.6091 60 69.3758 59.9333 69.2258 59.8C69.0924 59.65 69.0258 59.4167 69.0258 59.1V42.9C69.0258 42.5833 69.0924 42.3583 69.2258 42.225C69.3758 42.075 69.6091 42 69.9258 42H77.5758C79.8424 42 81.3924 42.45 82.2258 43.35C83.0591 44.25 83.4758 45.425 83.4758 46.875V50.075C83.4758 51.525 83.0591 52.7 82.2258 53.6C81.3924 54.5 79.8424 54.95 77.5758 54.95H74.7008V59.1C74.7008 59.4167 74.6258 59.65 74.4758 59.8C74.3424 59.9333 74.1174 60 73.8008 60ZM74.6508 46.675V50.45H76.9008C77.3841 50.45 77.7008 50.325 77.8508 50.075C78.0008 49.825 78.0758 49.5417 78.0758 49.225V47.9C78.0758 47.5833 78.0008 47.3 77.8508 47.05C77.7008 46.8 77.3841 46.675 76.9008 46.675H74.6508ZM101.317 55.275C101.317 56.0417 101.2 56.7417 100.967 57.375C100.75 57.9917 100.35 58.525 99.7668 58.975C99.2001 59.4083 98.4085 59.75 97.3918 60C96.3918 60.25 95.1168 60.375 93.5668 60.375C92.0168 60.375 90.7335 60.25 89.7168 60C88.7001 59.75 87.9001 59.4083 87.3168 58.975C86.7501 58.525 86.3501 57.9917 86.1168 57.375C85.9001 56.7417 85.7918 56.0417 85.7918 55.275V46.75C85.7918 45.9833 85.9001 45.2917 86.1168 44.675C86.3501 44.0417 86.7501 43.5 87.3168 43.05C87.9001 42.6 88.7001 42.25 89.7168 42C90.7335 41.75 92.0168 41.625 93.5668 41.625C95.1168 41.625 96.3918 41.75 97.3918 42C98.4085 42.25 99.2001 42.6 99.7668 43.05C100.35 43.5 100.75 44.0417 100.967 44.675C101.2 45.2917 101.317 45.9833 101.317 46.75V55.275ZM91.4668 54.375C91.4668 54.7083 91.5918 54.9917 91.8418 55.225C92.0918 55.4417 92.6668 55.55 93.5668 55.55C94.4668 55.55 95.0418 55.4417 95.2918 55.225C95.5418 54.9917 95.6668 54.7083 95.6668 54.375V47.65C95.6668 47.3333 95.5418 47.0667 95.2918 46.85C95.0418 46.6167 94.4668 46.5 93.5668 46.5C92.6668 46.5 92.0918 46.6167 91.8418 46.85C91.5918 47.0667 91.4668 47.3333 91.4668 47.65V54.375ZM109.149 60H105.399C105.083 60 104.849 59.9333 104.699 59.8C104.566 59.65 104.499 59.4167 104.499 59.1V42.9C104.499 42.5833 104.566 42.3583 104.699 42.225C104.849 42.075 105.083 42 105.399 42H107.999C108.316 42 108.583 42.05 108.799 42.15C109.033 42.25 109.258 42.425 109.474 42.675L114.324 48.225V42.9C114.324 42.5833 114.391 42.3583 114.524 42.225C114.674 42.075 114.908 42 115.224 42H118.974C119.291 42 119.516 42.075 119.649 42.225C119.799 42.3583 119.874 42.5833 119.874 42.9V59.1C119.874 59.4167 119.799 59.65 119.649 59.8C119.516 59.9333 119.291 60 118.974 60H115.224C114.908 60 114.674 59.9333 114.524 59.8C114.391 59.65 114.324 59.4167 114.324 59.1V56.025L110.049 50.85V59.1C110.049 59.4167 109.974 59.65 109.824 59.8C109.691 59.9333 109.466 60 109.149 60ZM135.823 60H124.223C123.906 60 123.673 59.9333 123.523 59.8C123.389 59.65 123.323 59.4167 123.323 59.1V42.9C123.323 42.5833 123.389 42.3583 123.523 42.225C123.673 42.075 123.906 42 124.223 42H135.823C136.139 42 136.364 42.075 136.498 42.225C136.648 42.3583 136.723 42.5833 136.723 42.9V45.825C136.723 46.1417 136.648 46.375 136.498 46.525C136.364 46.6583 136.139 46.725 135.823 46.725H128.923V48.65H133.798C134.114 48.65 134.339 48.725 134.473 48.875C134.623 49.0083 134.698 49.2333 134.698 49.55V52.225C134.698 52.5417 134.623 52.775 134.473 52.925C134.339 53.0583 134.114 53.125 133.798 53.125H128.923V55.275H135.823C136.139 55.275 136.364 55.35 136.498 55.5C136.648 55.6333 136.723 55.8583 136.723 56.175V59.1C136.723 59.4167 136.648 59.65 136.498 59.8C136.364 59.9333 136.139 60 135.823 60ZM145.33 46.5V49.7H147.205C147.638 49.7 147.93 49.5917 148.08 49.375C148.23 49.1417 148.305 48.8583 148.305 48.525V47.675C148.305 47.3417 148.23 47.0667 148.08 46.85C147.93 46.6167 147.638 46.5 147.205 46.5H145.33ZM144.43 60H140.58C140.263 60 140.03 59.9333 139.88 59.8C139.747 59.65 139.68 59.4167 139.68 59.1V42.9C139.68 42.5833 139.747 42.3583 139.88 42.225C140.03 42.075 140.263 42 140.58 42H148.905C150.772 42 152.055 42.3917 152.755 43.175C153.472 43.9417 153.83 44.9417 153.83 46.175V47.325C153.83 48.025 153.722 48.625 153.505 49.125C153.305 49.6083 152.947 49.9583 152.43 50.175C153.33 50.275 154.055 50.6417 154.605 51.275C155.172 51.9083 155.455 52.75 155.455 53.8V59.1C155.455 59.4167 155.38 59.65 155.23 59.8C155.097 59.9333 154.872 60 154.555 60H150.68C150.363 60 150.13 59.9333 149.98 59.8C149.847 59.65 149.78 59.4167 149.78 59.1V55.275C149.78 54.9083 149.705 54.6417 149.555 54.475C149.422 54.2917 149.18 54.2 148.83 54.2H145.33V59.1C145.33 59.4167 145.255 59.65 145.105 59.8C144.972 59.9333 144.747 60 144.43 60ZM170.759 60H159.159C158.843 60 158.609 59.9333 158.459 59.8C158.326 59.65 158.259 59.4167 158.259 59.1V42.9C158.259 42.5833 158.326 42.3583 158.459 42.225C158.609 42.075 158.843 42 159.159 42H170.759C171.076 42 171.301 42.075 171.434 42.225C171.584 42.3583 171.659 42.5833 171.659 42.9V45.825C171.659 46.1417 171.584 46.375 171.434 46.525C171.301 46.6583 171.076 46.725 170.759 46.725H163.859V48.65H168.734C169.051 48.65 169.276 48.725 169.409 48.875C169.559 49.0083 169.634 49.2333 169.634 49.55V52.225C169.634 52.5417 169.559 52.775 169.409 52.925C169.276 53.0583 169.051 53.125 168.734 53.125H163.859V55.275H170.759C171.076 55.275 171.301 55.35 171.434 55.5C171.584 55.6333 171.659 55.8583 171.659 56.175V59.1C171.659 59.4167 171.584 59.65 171.434 59.8C171.301 59.9333 171.076 60 170.759 60ZM183.117 60H179.067C178.75 60 178.517 59.9333 178.367 59.8C178.233 59.65 178.167 59.4167 178.167 59.1V46.825H174.492C174.175 46.825 173.942 46.7583 173.792 46.625C173.658 46.475 173.592 46.2417 173.592 45.925V42.9C173.592 42.5833 173.658 42.3583 173.792 42.225C173.942 42.075 174.175 42 174.492 42H187.692C188.008 42 188.233 42.075 188.367 42.225C188.517 42.3583 188.592 42.5833 188.592 42.9V45.925C188.592 46.2417 188.517 46.475 188.367 46.625C188.233 46.7583 188.008 46.825 187.692 46.825H184.017V59.1C184.017 59.4167 183.942 59.65 183.792 59.8C183.658 59.9333 183.433 60 183.117 60ZM19.225 90H15.175C14.8583 90 14.625 89.9333 14.475 89.8C14.3417 89.65 14.275 89.4167 14.275 89.1V76.825H10.6C10.2833 76.825 10.05 76.7583 9.9 76.625C9.76667 76.475 9.7 76.2417 9.7 75.925V72.9C9.7 72.5833 9.76667 72.3583 9.9 72.225C10.05 72.075 10.2833 72 10.6 72H23.8C24.1167 72 24.3417 72.075 24.475 72.225C24.625 72.3583 24.7 72.5833 24.7 72.9V75.925C24.7 76.2417 24.625 76.475 24.475 76.625C24.3417 76.7583 24.1167 76.825 23.8 76.825H20.125V89.1C20.125 89.4167 20.05 89.65 19.9 89.8C19.7667 89.9333 19.5417 90 19.225 90ZM27.6313 90C27.3146 90 27.0813 89.9333 26.9313 89.8C26.7979 89.65 26.7313 89.4167 26.7313 89.1V86.125C26.7313 85.8083 26.7979 85.5833 26.9313 85.45C27.0813 85.3 27.3146 85.225 27.6313 85.225H30.1063V76.825H27.6313C27.3146 76.825 27.0813 76.7583 26.9313 76.625C26.7979 76.475 26.7313 76.2417 26.7313 75.925V72.9C26.7313 72.5833 26.7979 72.3583 26.9313 72.225C27.0813 72.075 27.3146 72 27.6313 72H38.2813C38.5979 72 38.8229 72.075 38.9563 72.225C39.1063 72.3583 39.1812 72.5833 39.1812 72.9V75.925C39.1812 76.2417 39.1063 76.475 38.9563 76.625C38.8229 76.7583 38.5979 76.825 38.2813 76.825H35.8563V85.225H38.2813C38.5979 85.225 38.8229 85.3 38.9563 85.45C39.1063 85.5833 39.1812 85.8083 39.1812 86.125V89.1C39.1812 89.4167 39.1063 89.65 38.9563 89.8C38.8229 89.9333 38.5979 90 38.2813 90H27.6313ZM55.893 90H43.168C42.8513 90 42.618 89.9333 42.468 89.8C42.3346 89.65 42.268 89.4167 42.268 89.1V72.9C42.268 72.5833 42.3346 72.3583 42.468 72.225C42.618 72.075 42.8513 72 43.168 72H47.043C47.3596 72 47.5846 72.075 47.718 72.225C47.868 72.3583 47.943 72.5833 47.943 72.9V85.275H51.368V81.225C51.368 80.9083 51.4346 80.6833 51.568 80.55C51.718 80.4 51.9513 80.325 52.268 80.325H55.893C56.2096 80.325 56.4346 80.4 56.568 80.55C56.718 80.6833 56.793 80.9083 56.793 81.225V89.1C56.793 89.4167 56.718 89.65 56.568 89.8C56.4346 89.9333 56.2096 90 55.893 90ZM69.6469 90H65.9219C65.6052 90 65.3719 89.9333 65.2219 89.8C65.0885 89.65 65.0219 89.4167 65.0219 89.1V72.9C65.0219 72.5833 65.0885 72.3583 65.2219 72.225C65.3719 72.075 65.6052 72 65.9219 72H69.9469C70.2135 72 70.4302 72.0583 70.5969 72.175C70.7802 72.2917 70.9469 72.4833 71.0969 72.75L73.3469 76.825C73.4302 76.975 73.4969 77.0833 73.5469 77.15C73.6135 77.2167 73.6969 77.25 73.7969 77.25H74.0219C74.1219 77.25 74.1969 77.2167 74.2469 77.15C74.3135 77.0833 74.3885 76.975 74.4719 76.825L76.6969 72.75C76.8469 72.4833 77.0052 72.2917 77.1719 72.175C77.3552 72.0583 77.5802 72 77.8469 72H81.8969C82.2135 72 82.4385 72.075 82.5719 72.225C82.7219 72.3583 82.7969 72.5833 82.7969 72.9V89.1C82.7969 89.4167 82.7219 89.65 82.5719 89.8C82.4385 89.9333 82.2135 90 81.8969 90H78.0469C77.7302 90 77.4969 89.9333 77.3469 89.8C77.2135 89.65 77.1469 89.4167 77.1469 89.1V80.3L75.6719 83.025C75.5219 83.3083 75.3385 83.5167 75.1219 83.65C74.9219 83.7667 74.6635 83.825 74.3469 83.825H73.3469C73.0302 83.825 72.7635 83.7667 72.5469 83.65C72.3469 83.5167 72.1719 83.3083 72.0219 83.025L70.5469 80.3V89.1C70.5469 89.4167 70.4719 89.65 70.3219 89.8C70.1885 89.9333 69.9635 90 69.6469 90ZM98.7377 90H87.1377C86.821 90 86.5877 89.9333 86.4377 89.8C86.3044 89.65 86.2377 89.4167 86.2377 89.1V72.9C86.2377 72.5833 86.3044 72.3583 86.4377 72.225C86.5877 72.075 86.821 72 87.1377 72H98.7377C99.0544 72 99.2794 72.075 99.4127 72.225C99.5627 72.3583 99.6377 72.5833 99.6377 72.9V75.825C99.6377 76.1417 99.5627 76.375 99.4127 76.525C99.2794 76.6583 99.0544 76.725 98.7377 76.725H91.8377V78.65H96.7127C97.0294 78.65 97.2544 78.725 97.3877 78.875C97.5377 79.0083 97.6127 79.2333 97.6127 79.55V82.225C97.6127 82.5417 97.5377 82.775 97.3877 82.925C97.2544 83.0583 97.0294 83.125 96.7127 83.125H91.8377V85.275H98.7377C99.0544 85.275 99.2794 85.35 99.4127 85.5C99.5627 85.6333 99.6377 85.8583 99.6377 86.175V89.1C99.6377 89.4167 99.5627 89.65 99.4127 89.8C99.2794 89.9333 99.0544 90 98.7377 90ZM111.92 90H103.495C103.178 90 102.945 89.9333 102.795 89.8C102.662 89.65 102.595 89.4167 102.595 89.1V72.9C102.595 72.5833 102.662 72.3583 102.795 72.225C102.945 72.075 103.178 72 103.495 72H111.92C114.003 72 115.545 72.4167 116.545 73.25C117.562 74.0833 118.07 75.3667 118.07 77.1V84.9C118.07 86.6333 117.562 87.9167 116.545 88.75C115.545 89.5833 114.003 90 111.92 90ZM108.27 76.775V85.275H111.245C111.645 85.275 111.937 85.175 112.12 84.975C112.32 84.775 112.42 84.4667 112.42 84.05V77.975C112.42 77.5583 112.32 77.2583 112.12 77.075C111.937 76.875 111.645 76.775 111.245 76.775H108.27ZM121.747 90C121.431 90 121.197 89.9333 121.047 89.8C120.914 89.65 120.847 89.4167 120.847 89.1V86.125C120.847 85.8083 120.914 85.5833 121.047 85.45C121.197 85.3 121.431 85.225 121.747 85.225H124.222V76.825H121.747C121.431 76.825 121.197 76.7583 121.047 76.625C120.914 76.475 120.847 76.2417 120.847 75.925V72.9C120.847 72.5833 120.914 72.3583 121.047 72.225C121.197 72.075 121.431 72 121.747 72H132.397C132.714 72 132.939 72.075 133.072 72.225C133.222 72.3583 133.297 72.5833 133.297 72.9V75.925C133.297 76.2417 133.222 76.475 133.072 76.625C132.939 76.7583 132.714 76.825 132.397 76.825H129.972V85.225H132.397C132.714 85.225 132.939 85.3 133.072 85.45C133.222 85.5833 133.297 85.8083 133.297 86.125V89.1C133.297 89.4167 133.222 89.65 133.072 89.8C132.939 89.9333 132.714 90 132.397 90H121.747ZM148.884 90H137.284C136.968 90 136.734 89.9333 136.584 89.8C136.451 89.65 136.384 89.4167 136.384 89.1V72.9C136.384 72.5833 136.451 72.3583 136.584 72.225C136.734 72.075 136.968 72 137.284 72H148.884C149.201 72 149.426 72.075 149.559 72.225C149.709 72.3583 149.784 72.5833 149.784 72.9V75.825C149.784 76.1417 149.709 76.375 149.559 76.525C149.426 76.6583 149.201 76.725 148.884 76.725H141.984V78.65H146.859C147.176 78.65 147.401 78.725 147.534 78.875C147.684 79.0083 147.759 79.2333 147.759 79.55V82.225C147.759 82.5417 147.684 82.775 147.534 82.925C147.401 83.0583 147.176 83.125 146.859 83.125H141.984V85.275H148.884C149.201 85.275 149.426 85.35 149.559 85.5C149.709 85.6333 149.784 85.8583 149.784 86.175V89.1C149.784 89.4167 149.709 89.65 149.559 89.8C149.426 89.9333 149.201 90 148.884 90ZM158.392 76.5V79.7H160.267C160.7 79.7 160.992 79.5917 161.142 79.375C161.292 79.1417 161.367 78.8583 161.367 78.525V77.675C161.367 77.3417 161.292 77.0667 161.142 76.85C160.992 76.6167 160.7 76.5 160.267 76.5H158.392ZM157.492 90H153.642C153.325 90 153.092 89.9333 152.942 89.8C152.808 89.65 152.742 89.4167 152.742 89.1V72.9C152.742 72.5833 152.808 72.3583 152.942 72.225C153.092 72.075 153.325 72 153.642 72H161.967C163.833 72 165.117 72.3917 165.817 73.175C166.533 73.9417 166.892 74.9417 166.892 76.175V77.325C166.892 78.025 166.783 78.625 166.567 79.125C166.367 79.6083 166.008 79.9583 165.492 80.175C166.392 80.275 167.117 80.6417 167.667 81.275C168.233 81.9083 168.517 82.75 168.517 83.8V89.1C168.517 89.4167 168.442 89.65 168.292 89.8C168.158 89.9333 167.933 90 167.617 90H163.742C163.425 90 163.192 89.9333 163.042 89.8C162.908 89.65 162.842 89.4167 162.842 89.1V85.275C162.842 84.9083 162.767 84.6417 162.617 84.475C162.483 84.2917 162.242 84.2 161.892 84.2H158.392V89.1C158.392 89.4167 158.317 89.65 158.167 89.8C158.033 89.9333 157.808 90 157.492 90ZM174.121 92.5H172.196C171.879 92.5 171.646 92.425 171.496 92.275C171.362 92.1417 171.296 91.9167 171.296 91.6V90.6C171.296 90.2833 171.362 90.0583 171.496 89.925C171.646 89.775 171.879 89.7 172.196 89.7H173.921C174.137 89.7 174.304 89.6417 174.421 89.525C174.537 89.3917 174.596 89.2167 174.596 89V88.625H171.871C171.554 88.625 171.321 88.5583 171.171 88.425C171.037 88.275 170.971 88.0417 170.971 87.725V84.025C170.971 83.7083 171.037 83.4833 171.171 83.35C171.321 83.2 171.554 83.125 171.871 83.125H176.921C177.237 83.125 177.462 83.2 177.596 83.35C177.746 83.4833 177.821 83.7083 177.821 84.025V88.725C177.821 89.9917 177.479 90.9333 176.796 91.55C176.129 92.1833 175.237 92.5 174.121 92.5ZM15.5 120H11.625C11.3083 120 11.075 119.933 10.925 119.8C10.7917 119.65 10.725 119.417 10.725 119.1V102.9C10.725 102.583 10.7917 102.358 10.925 102.225C11.075 102.075 11.3083 102 11.625 102H22.775C23.0917 102 23.3167 102.075 23.45 102.225C23.6 102.358 23.675 102.583 23.675 102.9V105.875C23.675 106.192 23.6 106.425 23.45 106.575C23.3167 106.708 23.0917 106.775 22.775 106.775H16.4V109.375H20.75C21.0667 109.375 21.2917 109.45 21.425 109.6C21.575 109.733 21.65 109.958 21.65 110.275V113.275C21.65 113.592 21.575 113.825 21.425 113.975C21.2917 114.108 21.0667 114.175 20.75 114.175H16.4V119.1C16.4 119.417 16.325 119.65 16.175 119.8C16.0417 119.933 15.8167 120 15.5 120ZM31.8291 106.5V109.7H33.7041C34.1374 109.7 34.4291 109.592 34.5791 109.375C34.7291 109.142 34.8041 108.858 34.8041 108.525V107.675C34.8041 107.342 34.7291 107.067 34.5791 106.85C34.4291 106.617 34.1374 106.5 33.7041 106.5H31.8291ZM30.9291 120H27.0791C26.7624 120 26.5291 119.933 26.3791 119.8C26.2458 119.65 26.1791 119.417 26.1791 119.1V102.9C26.1791 102.583 26.2458 102.358 26.3791 102.225C26.5291 102.075 26.7624 102 27.0791 102H35.4041C37.2708 102 38.5541 102.392 39.2541 103.175C39.9708 103.942 40.3291 104.942 40.3291 106.175V107.325C40.3291 108.025 40.2208 108.625 40.0041 109.125C39.8041 109.608 39.4458 109.958 38.9291 110.175C39.8291 110.275 40.5541 110.642 41.1041 111.275C41.6708 111.908 41.9541 112.75 41.9541 113.8V119.1C41.9541 119.417 41.8791 119.65 41.7291 119.8C41.5958 119.933 41.3708 120 41.0541 120H37.1791C36.8624 120 36.6291 119.933 36.4791 119.8C36.3458 119.65 36.2791 119.417 36.2791 119.1V115.275C36.2791 114.908 36.2041 114.642 36.0541 114.475C35.9208 114.292 35.6791 114.2 35.3291 114.2H31.8291V119.1C31.8291 119.417 31.7541 119.65 31.6041 119.8C31.4708 119.933 31.2458 120 30.9291 120ZM57.2582 120H45.6582C45.3415 120 45.1082 119.933 44.9582 119.8C44.8249 119.65 44.7582 119.417 44.7582 119.1V102.9C44.7582 102.583 44.8249 102.358 44.9582 102.225C45.1082 102.075 45.3415 102 45.6582 102H57.2582C57.5749 102 57.7999 102.075 57.9332 102.225C58.0832 102.358 58.1582 102.583 58.1582 102.9V105.825C58.1582 106.142 58.0832 106.375 57.9332 106.525C57.7999 106.658 57.5749 106.725 57.2582 106.725H50.3582V108.65H55.2332C55.5499 108.65 55.7749 108.725 55.9082 108.875C56.0582 109.008 56.1332 109.233 56.1332 109.55V112.225C56.1332 112.542 56.0582 112.775 55.9082 112.925C55.7749 113.058 55.5499 113.125 55.2332 113.125H50.3582V115.275H57.2582C57.5749 115.275 57.7999 115.35 57.9332 115.5C58.0832 115.633 58.1582 115.858 58.1582 116.175V119.1C58.1582 119.417 58.0832 119.65 57.9332 119.8C57.7999 119.933 57.5749 120 57.2582 120ZM65.7406 120H62.0156C61.699 120 61.4656 119.933 61.3156 119.8C61.1823 119.65 61.1156 119.417 61.1156 119.1V102.9C61.1156 102.583 61.1823 102.358 61.3156 102.225C61.4656 102.075 61.699 102 62.0156 102H66.0406C66.3073 102 66.524 102.058 66.6906 102.175C66.874 102.292 67.0406 102.483 67.1906 102.75L69.4406 106.825C69.524 106.975 69.5906 107.083 69.6406 107.15C69.7073 107.217 69.7906 107.25 69.8906 107.25H70.1156C70.2156 107.25 70.2906 107.217 70.3406 107.15C70.4073 107.083 70.4823 106.975 70.5656 106.825L72.7906 102.75C72.9406 102.483 73.099 102.292 73.2656 102.175C73.449 102.058 73.674 102 73.9406 102H77.9906C78.3073 102 78.5323 102.075 78.6656 102.225C78.8156 102.358 78.8906 102.583 78.8906 102.9V119.1C78.8906 119.417 78.8156 119.65 78.6656 119.8C78.5323 119.933 78.3073 120 77.9906 120H74.1406C73.824 120 73.5906 119.933 73.4406 119.8C73.3073 119.65 73.2406 119.417 73.2406 119.1V110.3L71.7656 113.025C71.6156 113.308 71.4323 113.517 71.2156 113.65C71.0156 113.767 70.7573 113.825 70.4406 113.825H69.4406C69.124 113.825 68.8573 113.767 68.6406 113.65C68.4406 113.517 68.2656 113.308 68.1156 113.025L66.6406 110.3V119.1C66.6406 119.417 66.5656 119.65 66.4156 119.8C66.2823 119.933 66.0573 120 65.7406 120ZM87.1064 120H83.2314C82.9148 120 82.6814 119.933 82.5314 119.8C82.3981 119.65 82.3314 119.417 82.3314 119.1V102.9C82.3314 102.583 82.3981 102.358 82.5314 102.225C82.6814 102.075 82.9148 102 83.2314 102H87.1064C87.4231 102 87.6481 102.075 87.7814 102.225C87.9314 102.358 88.0064 102.583 88.0064 102.9V108.325H92.1814V102.9C92.1814 102.583 92.2481 102.358 92.3814 102.225C92.5314 102.075 92.7648 102 93.0814 102H96.9564C97.2731 102 97.4981 102.075 97.6314 102.225C97.7814 102.358 97.8564 102.583 97.8564 102.9V119.1C97.8564 119.417 97.7814 119.65 97.6314 119.8C97.4981 119.933 97.2731 120 96.9564 120H93.0814C92.7648 120 92.5314 119.933 92.3814 119.8C92.2481 119.65 92.1814 119.417 92.1814 119.1V113.55H88.0064V119.1C88.0064 119.417 87.9314 119.65 87.7814 119.8C87.6481 119.933 87.4231 120 87.1064 120ZM107.926 107.15L106.626 111.05H110.576V106.725H108.401C108.268 106.725 108.168 106.758 108.101 106.825C108.051 106.875 107.993 106.983 107.926 107.15ZM106.376 119.1C106.376 119.417 106.301 119.65 106.151 119.8C106.018 119.933 105.793 120 105.476 120H101.826C101.51 120 101.276 119.933 101.126 119.8C100.993 119.65 100.926 119.417 100.926 119.1V112.75C100.926 112.017 100.985 111.367 101.101 110.8C101.235 110.217 101.418 109.617 101.651 109L103.826 103.025C103.96 102.642 104.143 102.375 104.376 102.225C104.626 102.075 104.96 102 105.376 102H122.576C122.893 102 123.118 102.075 123.251 102.225C123.401 102.358 123.476 102.583 123.476 102.9V105.825C123.476 106.142 123.401 106.375 123.251 106.525C123.118 106.658 122.893 106.725 122.576 106.725H116.251V108.65H120.551C120.868 108.65 121.093 108.725 121.226 108.875C121.376 109.008 121.451 109.233 121.451 109.55V112.225C121.451 112.542 121.376 112.775 121.226 112.925C121.093 113.058 120.868 113.125 120.551 113.125H116.251V115.275H122.576C122.893 115.275 123.118 115.35 123.251 115.5C123.401 115.633 123.476 115.858 123.476 116.175V119.1C123.476 119.417 123.401 119.65 123.251 119.8C123.118 119.933 122.893 120 122.576 120H111.476C111.16 120 110.926 119.933 110.776 119.8C110.643 119.65 110.576 119.417 110.576 119.1V115.6H106.376V119.1ZM137.073 120H130.573C130.257 120 129.99 119.942 129.773 119.825C129.573 119.708 129.415 119.492 129.298 119.175L126.848 113.05C126.698 112.683 126.573 112.367 126.473 112.1C126.373 111.817 126.29 111.55 126.223 111.3C126.157 111.05 126.107 110.792 126.073 110.525C126.057 110.242 126.048 109.9 126.048 109.5V102.9C126.048 102.583 126.115 102.358 126.248 102.225C126.398 102.075 126.632 102 126.948 102H130.923C131.24 102 131.482 102.075 131.648 102.225C131.815 102.358 131.898 102.583 131.898 102.9V109.8C131.898 109.967 131.915 110.133 131.948 110.3C131.982 110.467 132.032 110.642 132.098 110.825L133.273 114.325C133.323 114.492 133.382 114.608 133.448 114.675C133.515 114.725 133.615 114.75 133.748 114.75H134.023C134.157 114.75 134.257 114.725 134.323 114.675C134.39 114.608 134.448 114.492 134.498 114.325L135.673 110.8C135.74 110.617 135.79 110.442 135.823 110.275C135.857 110.108 135.873 109.942 135.873 109.775V102.9C135.873 102.583 135.94 102.358 136.073 102.225C136.223 102.075 136.457 102 136.773 102H140.698C141.015 102 141.24 102.075 141.373 102.225C141.523 102.358 141.598 102.583 141.598 102.9V109.5C141.598 109.9 141.582 110.242 141.548 110.525C141.532 110.792 141.49 111.05 141.423 111.3C141.357 111.55 141.273 111.817 141.173 112.1C141.073 112.367 140.948 112.683 140.798 113.05L138.348 119.175C138.232 119.492 138.065 119.708 137.848 119.825C137.648 119.942 137.39 120 137.073 120ZM157.185 120H145.585C145.268 120 145.035 119.933 144.885 119.8C144.752 119.65 144.685 119.417 144.685 119.1V102.9C144.685 102.583 144.752 102.358 144.885 102.225C145.035 102.075 145.268 102 145.585 102H157.185C157.502 102 157.727 102.075 157.86 102.225C158.01 102.358 158.085 102.583 158.085 102.9V105.825C158.085 106.142 158.01 106.375 157.86 106.525C157.727 106.658 157.502 106.725 157.185 106.725H150.285V108.65H155.16C155.477 108.65 155.702 108.725 155.835 108.875C155.985 109.008 156.06 109.233 156.06 109.55V112.225C156.06 112.542 155.985 112.775 155.835 112.925C155.702 113.058 155.477 113.125 155.16 113.125H150.285V115.275H157.185C157.502 115.275 157.727 115.35 157.86 115.5C158.01 115.633 158.085 115.858 158.085 116.175V119.1C158.085 119.417 158.01 119.65 157.86 119.8C157.727 119.933 157.502 120 157.185 120ZM166.692 106.5V109.7H168.567C169.001 109.7 169.292 109.592 169.442 109.375C169.592 109.142 169.667 108.858 169.667 108.525V107.675C169.667 107.342 169.592 107.067 169.442 106.85C169.292 106.617 169.001 106.5 168.567 106.5H166.692ZM165.792 120H161.942C161.626 120 161.392 119.933 161.242 119.8C161.109 119.65 161.042 119.417 161.042 119.1V102.9C161.042 102.583 161.109 102.358 161.242 102.225C161.392 102.075 161.626 102 161.942 102H170.267C172.134 102 173.417 102.392 174.117 103.175C174.834 103.942 175.192 104.942 175.192 106.175V107.325C175.192 108.025 175.084 108.625 174.867 109.125C174.667 109.608 174.309 109.958 173.792 110.175C174.692 110.275 175.417 110.642 175.967 111.275C176.534 111.908 176.817 112.75 176.817 113.8V119.1C176.817 119.417 176.742 119.65 176.592 119.8C176.459 119.933 176.234 120 175.917 120H172.042C171.726 120 171.492 119.933 171.342 119.8C171.209 119.65 171.142 119.417 171.142 119.1V115.275C171.142 114.908 171.067 114.642 170.917 114.475C170.784 114.292 170.542 114.2 170.192 114.2H166.692V119.1C166.692 119.417 166.617 119.65 166.467 119.8C166.334 119.933 166.109 120 165.792 120ZM15.5 150H11.625C11.3083 150 11.075 149.933 10.925 149.8C10.7917 149.65 10.725 149.417 10.725 149.1V132.9C10.725 132.583 10.7917 132.358 10.925 132.225C11.075 132.075 11.3083 132 11.625 132H22.775C23.0917 132 23.3167 132.075 23.45 132.225C23.6 132.358 23.675 132.583 23.675 132.9V135.875C23.675 136.192 23.6 136.425 23.45 136.575C23.3167 136.708 23.0917 136.775 22.775 136.775H16.4V139.375H20.75C21.0667 139.375 21.2917 139.45 21.425 139.6C21.575 139.733 21.65 139.958 21.65 140.275V143.275C21.65 143.592 21.575 143.825 21.425 143.975C21.2917 144.108 21.0667 144.175 20.75 144.175H16.4V149.1C16.4 149.417 16.325 149.65 16.175 149.8C16.0417 149.933 15.8167 150 15.5 150ZM30.957 137.65V143.075L33.857 136.25C33.857 136.25 33.8404 136.25 33.807 136.25C33.7737 136.25 33.6904 136.25 33.557 136.25C32.4404 136.25 31.7237 136.383 31.407 136.65C31.107 136.917 30.957 137.25 30.957 137.65ZM33.557 145.8C34.6904 145.8 35.407 145.667 35.707 145.4C36.007 145.133 36.157 144.792 36.157 144.375V138.85L33.207 145.8C33.2237 145.8 33.2487 145.8 33.282 145.8C33.3154 145.8 33.407 145.8 33.557 145.8ZM31.707 150.85C31.557 151.117 31.407 151.333 31.257 151.5C31.107 151.667 30.8737 151.75 30.557 151.75H27.682C27.3654 151.75 27.1404 151.667 27.007 151.5C26.8737 151.333 26.882 151.117 27.032 150.85L27.707 149.225C26.9904 148.775 26.4904 148.217 26.207 147.55C25.9237 146.867 25.782 146.108 25.782 145.275V136.75C25.782 135.983 25.8904 135.292 26.107 134.675C26.3404 134.042 26.7404 133.5 27.307 133.05C27.8904 132.6 28.6904 132.25 29.707 132C30.7237 131.75 32.007 131.625 33.557 131.625C33.8404 131.625 34.1154 131.633 34.382 131.65C34.6487 131.65 34.907 131.658 35.157 131.675L35.382 131.15C35.532 130.883 35.682 130.667 35.832 130.5C35.982 130.333 36.2154 130.25 36.532 130.25H39.407C39.7237 130.25 39.9487 130.333 40.082 130.5C40.2154 130.667 40.207 130.883 40.057 131.15L39.382 132.775C40.1154 133.225 40.6154 133.792 40.882 134.475C41.1654 135.142 41.307 135.9 41.307 136.75V145.275C41.307 146.042 41.1904 146.742 40.957 147.375C40.7404 147.992 40.3404 148.525 39.757 148.975C39.1904 149.408 38.3987 149.75 37.382 150C36.382 150.25 35.107 150.375 33.557 150.375C33.2737 150.375 32.9904 150.367 32.707 150.35C32.4404 150.35 32.182 150.342 31.932 150.325L31.707 150.85ZM58.1146 150H45.3896C45.073 150 44.8396 149.933 44.6896 149.8C44.5563 149.65 44.4896 149.417 44.4896 149.1V132.9C44.4896 132.583 44.5563 132.358 44.6896 132.225C44.8396 132.075 45.073 132 45.3896 132H49.2646C49.5813 132 49.8063 132.075 49.9396 132.225C50.0896 132.358 50.1646 132.583 50.1646 132.9V145.275H53.5896V141.225C53.5896 140.908 53.6563 140.683 53.7896 140.55C53.9396 140.4 54.173 140.325 54.4896 140.325H58.1146C58.4313 140.325 58.6563 140.4 58.7896 140.55C58.9396 140.683 59.0146 140.908 59.0146 141.225V149.1C59.0146 149.417 58.9396 149.65 58.7896 149.8C58.6563 149.933 58.4313 150 58.1146 150ZM74.3725 150H62.7725C62.4558 150 62.2225 149.933 62.0725 149.8C61.9391 149.65 61.8725 149.417 61.8725 149.1V132.9C61.8725 132.583 61.9391 132.358 62.0725 132.225C62.2225 132.075 62.4558 132 62.7725 132H74.3725C74.6891 132 74.9141 132.075 75.0475 132.225C75.1975 132.358 75.2725 132.583 75.2725 132.9V135.825C75.2725 136.142 75.1975 136.375 75.0475 136.525C74.9141 136.658 74.6891 136.725 74.3725 136.725H67.4725V138.65H72.3475C72.6641 138.65 72.8891 138.725 73.0225 138.875C73.1725 139.008 73.2475 139.233 73.2475 139.55V142.225C73.2475 142.542 73.1725 142.775 73.0225 142.925C72.8891 143.058 72.6641 143.125 72.3475 143.125H67.4725V145.275H74.3725C74.6891 145.275 74.9141 145.35 75.0475 145.5C75.1975 145.633 75.2725 145.858 75.2725 146.175V149.1C75.2725 149.417 75.1975 149.65 75.0475 149.8C74.9141 149.933 74.6891 150 74.3725 150ZM91.8549 150H79.1299C78.8132 150 78.5799 149.933 78.4299 149.8C78.2965 149.65 78.2299 149.417 78.2299 149.1V132.9C78.2299 132.583 78.2965 132.358 78.4299 132.225C78.5799 132.075 78.8132 132 79.1299 132H83.0049C83.3215 132 83.5465 132.075 83.6799 132.225C83.8299 132.358 83.9049 132.583 83.9049 132.9V145.275H87.3299V141.225C87.3299 140.908 87.3966 140.683 87.5299 140.55C87.6799 140.4 87.9132 140.325 88.2299 140.325H91.8549C92.1715 140.325 92.3966 140.4 92.5299 140.55C92.6799 140.683 92.7549 140.908 92.7549 141.225V149.1C92.7549 149.417 92.6799 149.65 92.5299 149.8C92.3966 149.933 92.1715 150 91.8549 150ZM103.963 150H96.0627C95.746 150 95.5127 149.933 95.3627 149.8C95.2294 149.65 95.1627 149.417 95.1627 149.1V146.175C95.1627 145.858 95.2294 145.633 95.3627 145.5C95.5127 145.35 95.746 145.275 96.0627 145.275H102.788C103.004 145.275 103.163 145.208 103.263 145.075C103.379 144.925 103.438 144.75 103.438 144.55C103.438 144.267 103.379 144.058 103.263 143.925C103.163 143.792 103.004 143.717 102.788 143.7L99.0377 143.175C97.871 143.008 96.9294 142.625 96.2127 142.025C95.5127 141.425 95.1627 140.425 95.1627 139.025V136.4C95.1627 134.983 95.621 133.9 96.5377 133.15C97.4544 132.383 98.721 132 100.338 132H107.338C107.654 132 107.879 132.075 108.013 132.225C108.163 132.358 108.238 132.583 108.238 132.9V135.875C108.238 136.192 108.163 136.425 108.013 136.575C107.879 136.708 107.654 136.775 107.338 136.775H101.513C101.296 136.775 101.129 136.85 101.013 137C100.896 137.133 100.838 137.308 100.838 137.525C100.838 137.742 100.896 137.925 101.013 138.075C101.129 138.225 101.296 138.308 101.513 138.325L105.238 138.825C106.404 138.992 107.346 139.375 108.063 139.975C108.779 140.575 109.138 141.575 109.138 142.975V145.6C109.138 147.017 108.671 148.108 107.738 148.875C106.821 149.625 105.563 150 103.963 150ZM124.372 150H112.772C112.456 150 112.222 149.933 112.072 149.8C111.939 149.65 111.872 149.417 111.872 149.1V132.9C111.872 132.583 111.939 132.358 112.072 132.225C112.222 132.075 112.456 132 112.772 132H124.372C124.689 132 124.914 132.075 125.047 132.225C125.197 132.358 125.272 132.583 125.272 132.9V135.825C125.272 136.142 125.197 136.375 125.047 136.525C124.914 136.658 124.689 136.725 124.372 136.725H117.472V138.65H122.347C122.664 138.65 122.889 138.725 123.022 138.875C123.172 139.008 123.247 139.233 123.247 139.55V142.225C123.247 142.542 123.172 142.775 123.022 142.925C122.889 143.058 122.664 143.125 122.347 143.125H117.472V145.275H124.372C124.689 145.275 124.914 145.35 125.047 145.5C125.197 145.633 125.272 145.858 125.272 146.175V149.1C125.272 149.417 125.197 149.65 125.047 149.8C124.914 149.933 124.689 150 124.372 150ZM133.88 136.5V139.7H135.755C136.188 139.7 136.48 139.592 136.63 139.375C136.78 139.142 136.855 138.858 136.855 138.525V137.675C136.855 137.342 136.78 137.067 136.63 136.85C136.48 136.617 136.188 136.5 135.755 136.5H133.88ZM132.98 150H129.13C128.813 150 128.58 149.933 128.43 149.8C128.297 149.65 128.23 149.417 128.23 149.1V132.9C128.23 132.583 128.297 132.358 128.43 132.225C128.58 132.075 128.813 132 129.13 132H137.455C139.322 132 140.605 132.392 141.305 133.175C142.022 133.942 142.38 134.942 142.38 136.175V137.325C142.38 138.025 142.272 138.625 142.055 139.125C141.855 139.608 141.497 139.958 140.98 140.175C141.88 140.275 142.605 140.642 143.155 141.275C143.722 141.908 144.005 142.75 144.005 143.8V149.1C144.005 149.417 143.93 149.65 143.78 149.8C143.647 149.933 143.422 150 143.105 150H139.23C138.913 150 138.68 149.933 138.53 149.8C138.397 149.65 138.33 149.417 138.33 149.1V145.275C138.33 144.908 138.255 144.642 138.105 144.475C137.972 144.292 137.73 144.2 137.38 144.2H133.88V149.1C133.88 149.417 133.805 149.65 133.655 149.8C133.522 149.933 133.297 150 132.98 150ZM167.674 145.275C167.674 146.042 167.558 146.742 167.324 147.375C167.108 147.992 166.708 148.525 166.124 148.975C165.558 149.408 164.766 149.75 163.749 150C162.749 150.25 161.474 150.375 159.924 150.375C158.374 150.375 157.091 150.25 156.074 150C155.058 149.75 154.258 149.408 153.674 148.975C153.108 148.525 152.708 147.992 152.474 147.375C152.258 146.742 152.149 146.042 152.149 145.275V136.75C152.149 135.983 152.258 135.292 152.474 134.675C152.708 134.042 153.108 133.5 153.674 133.05C154.258 132.6 155.058 132.25 156.074 132C157.091 131.75 158.374 131.625 159.924 131.625C161.474 131.625 162.749 131.75 163.749 132C164.766 132.25 165.558 132.6 166.124 133.05C166.708 133.5 167.108 134.042 167.324 134.675C167.558 135.292 167.674 135.983 167.674 136.75V145.275ZM157.824 144.375C157.824 144.708 157.949 144.992 158.199 145.225C158.449 145.442 159.024 145.55 159.924 145.55C160.824 145.55 161.399 145.442 161.649 145.225C161.899 144.992 162.024 144.708 162.024 144.375V137.65C162.024 137.333 161.899 137.067 161.649 136.85C161.399 136.617 160.824 136.5 159.924 136.5C159.024 136.5 158.449 136.617 158.199 136.85C157.949 137.067 157.824 137.333 157.824 137.65V144.375ZM184.607 150H176.732C174.649 150 173.099 149.583 172.082 148.75C171.082 147.917 170.582 146.633 170.582 144.9V137.1C170.582 135.367 171.082 134.083 172.082 133.25C173.099 132.417 174.649 132 176.732 132H182.982C183.299 132 183.524 132.075 183.657 132.225C183.807 132.358 183.882 132.583 183.882 132.9V135.925C183.882 136.242 183.807 136.475 183.657 136.625C183.524 136.758 183.299 136.825 182.982 136.825H177.782C177.265 136.825 176.882 136.933 176.632 137.15C176.382 137.35 176.257 137.658 176.257 138.075V144.05C176.257 144.467 176.349 144.775 176.532 144.975C176.732 145.175 177.024 145.275 177.407 145.275H179.832V141.375C179.832 141.058 179.899 140.833 180.032 140.7C180.182 140.55 180.415 140.475 180.732 140.475H184.607C184.924 140.475 185.149 140.55 185.282 140.7C185.432 140.833 185.507 141.058 185.507 141.375V149.1C185.507 149.417 185.432 149.65 185.282 149.8C185.149 149.933 184.924 150 184.607 150ZM15.5 180H11.625C11.3083 180 11.075 179.933 10.925 179.8C10.7917 179.65 10.725 179.417 10.725 179.1V162.9C10.725 162.583 10.7917 162.358 10.925 162.225C11.075 162.075 11.3083 162 11.625 162H15.5C15.8167 162 16.0417 162.075 16.175 162.225C16.325 162.358 16.4 162.583 16.4 162.9V168.325H20.575V162.9C20.575 162.583 20.6417 162.358 20.775 162.225C20.925 162.075 21.1583 162 21.475 162H25.35C25.6667 162 25.8917 162.075 26.025 162.225C26.175 162.358 26.25 162.583 26.25 162.9V179.1C26.25 179.417 26.175 179.65 26.025 179.8C25.8917 179.933 25.6667 180 25.35 180H21.475C21.1583 180 20.925 179.933 20.775 179.8C20.6417 179.65 20.575 179.417 20.575 179.1V173.55H16.4V179.1C16.4 179.417 16.325 179.65 16.175 179.8C16.0417 179.933 15.8167 180 15.5 180ZM30.1947 180C29.8781 180 29.6447 179.933 29.4947 179.8C29.3614 179.65 29.2947 179.417 29.2947 179.1V176.125C29.2947 175.808 29.3614 175.583 29.4947 175.45C29.6447 175.3 29.8781 175.225 30.1947 175.225H32.6697V166.825H30.1947C29.8781 166.825 29.6447 166.758 29.4947 166.625C29.3614 166.475 29.2947 166.242 29.2947 165.925V162.9C29.2947 162.583 29.3614 162.358 29.4947 162.225C29.6447 162.075 29.8781 162 30.1947 162H40.8447C41.1614 162 41.3864 162.075 41.5197 162.225C41.6697 162.358 41.7447 162.583 41.7447 162.9V165.925C41.7447 166.242 41.6697 166.475 41.5197 166.625C41.3864 166.758 41.1614 166.825 40.8447 166.825H38.4197V175.225H40.8447C41.1614 175.225 41.3864 175.3 41.5197 175.45C41.6697 175.583 41.7447 175.808 41.7447 176.125V179.1C41.7447 179.417 41.6697 179.65 41.5197 179.8C41.3864 179.933 41.1614 180 40.8447 180H30.1947ZM53.1814 180H45.2814C44.9648 180 44.7314 179.933 44.5814 179.8C44.4481 179.65 44.3814 179.417 44.3814 179.1V176.175C44.3814 175.858 44.4481 175.633 44.5814 175.5C44.7314 175.35 44.9648 175.275 45.2814 175.275H52.0064C52.2231 175.275 52.3814 175.208 52.4814 175.075C52.5981 174.925 52.6564 174.75 52.6564 174.55C52.6564 174.267 52.5981 174.058 52.4814 173.925C52.3814 173.792 52.2231 173.717 52.0064 173.7L48.2564 173.175C47.0898 173.008 46.1481 172.625 45.4314 172.025C44.7314 171.425 44.3814 170.425 44.3814 169.025V166.4C44.3814 164.983 44.8398 163.9 45.7564 163.15C46.6731 162.383 47.9398 162 49.5564 162H56.5564C56.8731 162 57.0981 162.075 57.2314 162.225C57.3814 162.358 57.4564 162.583 57.4564 162.9V165.875C57.4564 166.192 57.3814 166.425 57.2314 166.575C57.0981 166.708 56.8731 166.775 56.5564 166.775H50.7314C50.5148 166.775 50.3481 166.85 50.2314 167C50.1148 167.133 50.0564 167.308 50.0564 167.525C50.0564 167.742 50.1148 167.925 50.2314 168.075C50.3481 168.225 50.5148 168.308 50.7314 168.325L54.4564 168.825C55.6231 168.992 56.5648 169.375 57.2814 169.975C57.9981 170.575 58.3564 171.575 58.3564 172.975V175.6C58.3564 177.017 57.8898 178.108 56.9564 178.875C56.0398 179.625 54.7814 180 53.1814 180ZM69.3471 180H65.2971C64.9804 180 64.7471 179.933 64.5971 179.8C64.4637 179.65 64.3971 179.417 64.3971 179.1V166.825H60.7221C60.4054 166.825 60.1721 166.758 60.0221 166.625C59.8887 166.475 59.8221 166.242 59.8221 165.925V162.9C59.8221 162.583 59.8887 162.358 60.0221 162.225C60.1721 162.075 60.4054 162 60.7221 162H73.9221C74.2387 162 74.4637 162.075 74.5971 162.225C74.7471 162.358 74.8221 162.583 74.8221 162.9V165.925C74.8221 166.242 74.7471 166.475 74.5971 166.625C74.4637 166.758 74.2387 166.825 73.9221 166.825H70.2471V179.1C70.2471 179.417 70.1721 179.65 70.0221 179.8C69.8887 179.933 69.6637 180 69.3471 180ZM92.3813 175.275C92.3813 176.042 92.2646 176.742 92.0313 177.375C91.8146 177.992 91.4146 178.525 90.8313 178.975C90.2646 179.408 89.4729 179.75 88.4563 180C87.4563 180.25 86.1813 180.375 84.6313 180.375C83.0813 180.375 81.7979 180.25 80.7813 180C79.7646 179.75 78.9646 179.408 78.3813 178.975C77.8146 178.525 77.4146 177.992 77.1813 177.375C76.9646 176.742 76.8563 176.042 76.8563 175.275V166.75C76.8563 165.983 76.9646 165.292 77.1813 164.675C77.4146 164.042 77.8146 163.5 78.3813 163.05C78.9646 162.6 79.7646 162.25 80.7813 162C81.7979 161.75 83.0813 161.625 84.6313 161.625C86.1813 161.625 87.4563 161.75 88.4563 162C89.4729 162.25 90.2646 162.6 90.8313 163.05C91.4146 163.5 91.8146 164.042 92.0313 164.675C92.2646 165.292 92.3813 165.983 92.3813 166.75V175.275ZM82.5313 174.375C82.5313 174.708 82.6563 174.992 82.9063 175.225C83.1563 175.442 83.7313 175.55 84.6313 175.55C85.5313 175.55 86.1063 175.442 86.3563 175.225C86.6063 174.992 86.7313 174.708 86.7313 174.375V167.65C86.7313 167.333 86.6063 167.067 86.3563 166.85C86.1063 166.617 85.5313 166.5 84.6313 166.5C83.7313 166.5 83.1563 166.617 82.9063 166.85C82.6563 167.067 82.5313 167.333 82.5313 167.65V174.375ZM101.214 166.5V169.7H103.089C103.522 169.7 103.814 169.592 103.964 169.375C104.114 169.142 104.189 168.858 104.189 168.525V167.675C104.189 167.342 104.114 167.067 103.964 166.85C103.814 166.617 103.522 166.5 103.089 166.5H101.214ZM100.314 180H96.4639C96.1472 180 95.9139 179.933 95.7639 179.8C95.6305 179.65 95.5639 179.417 95.5639 179.1V162.9C95.5639 162.583 95.6305 162.358 95.7639 162.225C95.9139 162.075 96.1472 162 96.4639 162H104.789C106.656 162 107.939 162.392 108.639 163.175C109.356 163.942 109.714 164.942 109.714 166.175V167.325C109.714 168.025 109.606 168.625 109.389 169.125C109.189 169.608 108.831 169.958 108.314 170.175C109.214 170.275 109.939 170.642 110.489 171.275C111.056 171.908 111.339 172.75 111.339 173.8V179.1C111.339 179.417 111.264 179.65 111.114 179.8C110.981 179.933 110.756 180 110.439 180H106.564C106.247 180 106.014 179.933 105.864 179.8C105.731 179.65 105.664 179.417 105.664 179.1V175.275C105.664 174.908 105.589 174.642 105.439 174.475C105.306 174.292 105.064 174.2 104.714 174.2H101.214V179.1C101.214 179.417 101.139 179.65 100.989 179.8C100.856 179.933 100.631 180 100.314 180ZM114.643 180C114.326 180 114.093 179.933 113.943 179.8C113.81 179.65 113.743 179.417 113.743 179.1V176.125C113.743 175.808 113.81 175.583 113.943 175.45C114.093 175.3 114.326 175.225 114.643 175.225H117.118V166.825H114.643C114.326 166.825 114.093 166.758 113.943 166.625C113.81 166.475 113.743 166.242 113.743 165.925V162.9C113.743 162.583 113.81 162.358 113.943 162.225C114.093 162.075 114.326 162 114.643 162H125.293C125.61 162 125.835 162.075 125.968 162.225C126.118 162.358 126.193 162.583 126.193 162.9V165.925C126.193 166.242 126.118 166.475 125.968 166.625C125.835 166.758 125.61 166.825 125.293 166.825H122.868V175.225H125.293C125.61 175.225 125.835 175.3 125.968 175.45C126.118 175.583 126.193 175.808 126.193 176.125V179.1C126.193 179.417 126.118 179.65 125.968 179.8C125.835 179.933 125.61 180 125.293 180H114.643ZM141.78 180H130.18C129.863 180 129.63 179.933 129.48 179.8C129.346 179.65 129.28 179.417 129.28 179.1V162.9C129.28 162.583 129.346 162.358 129.48 162.225C129.63 162.075 129.863 162 130.18 162H141.78C142.096 162 142.321 162.075 142.455 162.225C142.605 162.358 142.68 162.583 142.68 162.9V165.825C142.68 166.142 142.605 166.375 142.455 166.525C142.321 166.658 142.096 166.725 141.78 166.725H134.88V168.65H139.755C140.071 168.65 140.296 168.725 140.43 168.875C140.58 169.008 140.655 169.233 140.655 169.55V172.225C140.655 172.542 140.58 172.775 140.43 172.925C140.296 173.058 140.071 173.125 139.755 173.125H134.88V175.275H141.78C142.096 175.275 142.321 175.35 142.455 175.5C142.605 175.633 142.68 175.858 142.68 176.175V179.1C142.68 179.417 142.605 179.65 142.455 179.8C142.321 179.933 142.096 180 141.78 180ZM150.287 180H146.537C146.22 180 145.987 179.933 145.837 179.8C145.704 179.65 145.637 179.417 145.637 179.1V162.9C145.637 162.583 145.704 162.358 145.837 162.225C145.987 162.075 146.22 162 146.537 162H149.137C149.454 162 149.72 162.05 149.937 162.15C150.17 162.25 150.395 162.425 150.612 162.675L155.462 168.225V162.9C155.462 162.583 155.529 162.358 155.662 162.225C155.812 162.075 156.045 162 156.362 162H160.112C160.429 162 160.654 162.075 160.787 162.225C160.937 162.358 161.012 162.583 161.012 162.9V179.1C161.012 179.417 160.937 179.65 160.787 179.8C160.654 179.933 160.429 180 160.112 180H156.362C156.045 180 155.812 179.933 155.662 179.8C155.529 179.65 155.462 179.417 155.462 179.1V176.025L151.187 170.85V179.1C151.187 179.417 151.112 179.65 150.962 179.8C150.829 179.933 150.604 180 150.287 180ZM172.81 180H164.91C164.594 180 164.36 179.933 164.21 179.8C164.077 179.65 164.01 179.417 164.01 179.1V176.175C164.01 175.858 164.077 175.633 164.21 175.5C164.36 175.35 164.594 175.275 164.91 175.275H171.635C171.852 175.275 172.01 175.208 172.11 175.075C172.227 174.925 172.285 174.75 172.285 174.55C172.285 174.267 172.227 174.058 172.11 173.925C172.01 173.792 171.852 173.717 171.635 173.7L167.885 173.175C166.719 173.008 165.777 172.625 165.06 172.025C164.36 171.425 164.01 170.425 164.01 169.025V166.4C164.01 164.983 164.469 163.9 165.385 163.15C166.302 162.383 167.569 162 169.185 162H176.185C176.502 162 176.727 162.075 176.86 162.225C177.01 162.358 177.085 162.583 177.085 162.9V165.875C177.085 166.192 177.01 166.425 176.86 166.575C176.727 166.708 176.502 166.775 176.185 166.775H170.36C170.144 166.775 169.977 166.85 169.86 167C169.744 167.133 169.685 167.308 169.685 167.525C169.685 167.742 169.744 167.925 169.86 168.075C169.977 168.225 170.144 168.308 170.36 168.325L174.085 168.825C175.252 168.992 176.194 169.375 176.91 169.975C177.627 170.575 177.985 171.575 177.985 172.975V175.6C177.985 177.017 177.519 178.108 176.585 178.875C175.669 179.625 174.41 180 172.81 180ZM26.05 205.275C26.05 206.042 25.9333 206.742 25.7 207.375C25.4833 207.992 25.0833 208.525 24.5 208.975C23.9333 209.408 23.15 209.75 22.15 210C21.15 210.25 19.875 210.375 18.325 210.375C16.775 210.375 15.5 210.25 14.5 210C13.5 209.75 12.7083 209.408 12.125 208.975C11.5583 208.525 11.1583 207.992 10.925 207.375C10.7083 206.742 10.6 206.042 10.6 205.275V192.9C10.6 192.583 10.6667 192.358 10.8 192.225C10.95 192.075 11.1833 192 11.5 192H15.425C15.7417 192 15.9667 192.075 16.1 192.225C16.25 192.358 16.325 192.583 16.325 192.9V204.3C16.325 204.633 16.45 204.917 16.7 205.15C16.95 205.367 17.5083 205.475 18.375 205.475C19.2583 205.475 19.825 205.367 20.075 205.15C20.325 204.917 20.45 204.633 20.45 204.3V192.9C20.45 192.583 20.5167 192.358 20.65 192.225C20.8 192.075 21.0333 192 21.35 192H25.15C25.4667 192 25.6917 192.075 25.825 192.225C25.975 192.358 26.05 192.583 26.05 192.9V205.275ZM38.7023 210H30.2773C29.9607 210 29.7273 209.933 29.5773 209.8C29.444 209.65 29.3773 209.417 29.3773 209.1V192.9C29.3773 192.583 29.444 192.358 29.5773 192.225C29.7273 192.075 29.9607 192 30.2773 192H38.7023C40.7857 192 42.3273 192.417 43.3273 193.25C44.344 194.083 44.8523 195.367 44.8523 197.1V204.9C44.8523 206.633 44.344 207.917 43.3273 208.75C42.3273 209.583 40.7857 210 38.7023 210ZM35.0523 196.775V205.275H38.0273C38.4273 205.275 38.719 205.175 38.9023 204.975C39.1023 204.775 39.2023 204.467 39.2023 204.05V197.975C39.2023 197.558 39.1023 197.258 38.9023 197.075C38.719 196.875 38.4273 196.775 38.0273 196.775H35.0523ZM58.6797 210H52.1797C51.863 210 51.5964 209.942 51.3797 209.825C51.1797 209.708 51.0214 209.492 50.9047 209.175L48.4547 203.05C48.3047 202.683 48.1797 202.367 48.0797 202.1C47.9797 201.817 47.8964 201.55 47.8297 201.3C47.763 201.05 47.713 200.792 47.6797 200.525C47.663 200.242 47.6547 199.9 47.6547 199.5V192.9C47.6547 192.583 47.7214 192.358 47.8547 192.225C48.0047 192.075 48.238 192 48.5547 192H52.5297C52.8464 192 53.088 192.075 53.2547 192.225C53.4214 192.358 53.5047 192.583 53.5047 192.9V199.8C53.5047 199.967 53.5214 200.133 53.5547 200.3C53.588 200.467 53.638 200.642 53.7047 200.825L54.8797 204.325C54.9297 204.492 54.988 204.608 55.0547 204.675C55.1214 204.725 55.2214 204.75 55.3547 204.75H55.6297C55.763 204.75 55.863 204.725 55.9297 204.675C55.9964 204.608 56.0547 204.492 56.1047 204.325L57.2797 200.8C57.3464 200.617 57.3964 200.442 57.4297 200.275C57.463 200.108 57.4797 199.942 57.4797 199.775V192.9C57.4797 192.583 57.5464 192.358 57.6797 192.225C57.8297 192.075 58.063 192 58.3797 192H62.3047C62.6214 192 62.8464 192.075 62.9797 192.225C63.1297 192.358 63.2047 192.583 63.2047 192.9V199.5C63.2047 199.9 63.188 200.242 63.1547 200.525C63.138 200.792 63.0964 201.05 63.0297 201.3C62.963 201.55 62.8797 201.817 62.7797 202.1C62.6797 202.367 62.5547 202.683 62.4047 203.05L59.9547 209.175C59.838 209.492 59.6714 209.708 59.4547 209.825C59.2547 209.942 58.9964 210 58.6797 210ZM66.7914 210C66.4747 210 66.2414 209.933 66.0914 209.8C65.9581 209.65 65.8914 209.417 65.8914 209.1V206.125C65.8914 205.808 65.9581 205.583 66.0914 205.45C66.2414 205.3 66.4747 205.225 66.7914 205.225H69.2664V196.825H66.7914C66.4747 196.825 66.2414 196.758 66.0914 196.625C65.9581 196.475 65.8914 196.242 65.8914 195.925V192.9C65.8914 192.583 65.9581 192.358 66.0914 192.225C66.2414 192.075 66.4747 192 66.7914 192H77.4414C77.7581 192 77.9831 192.075 78.1164 192.225C78.2664 192.358 78.3414 192.583 78.3414 192.9V195.925C78.3414 196.242 78.2664 196.475 78.1164 196.625C77.9831 196.758 77.7581 196.825 77.4414 196.825H75.0164V205.225H77.4414C77.7581 205.225 77.9831 205.3 78.1164 205.45C78.2664 205.583 78.3414 205.808 78.3414 206.125V209.1C78.3414 209.417 78.2664 209.65 78.1164 209.8C77.9831 209.933 77.7581 210 77.4414 210H66.7914ZM86.2031 210H82.3281C82.0115 210 81.7781 209.933 81.6281 209.8C81.4948 209.65 81.4281 209.417 81.4281 209.1V192.9C81.4281 192.583 81.4948 192.358 81.6281 192.225C81.7781 192.075 82.0115 192 82.3281 192H86.2031C86.5198 192 86.7448 192.075 86.8781 192.225C87.0281 192.358 87.1031 192.583 87.1031 192.9V198.65H88.1031L90.6781 192.825C90.7948 192.525 90.9531 192.317 91.1531 192.2C91.3531 192.067 91.6115 192 91.9281 192H95.7781C96.0615 192 96.2531 192.075 96.3531 192.225C96.4531 192.358 96.4448 192.558 96.3281 192.825L93.7781 198.65C94.7115 198.7 95.4531 199.033 96.0031 199.65C96.5698 200.25 96.8531 201.05 96.8531 202.05V209.1C96.8531 209.417 96.7781 209.65 96.6281 209.8C96.4948 209.933 96.2698 210 95.9531 210H92.1031C91.7865 210 91.5531 209.933 91.4031 209.8C91.2698 209.65 91.2031 209.417 91.2031 209.1V204.225C91.2031 203.958 91.1365 203.75 91.0031 203.6C90.8698 203.45 90.6698 203.375 90.4031 203.375H87.1031V209.1C87.1031 209.417 87.0281 209.65 86.8781 209.8C86.7448 209.933 86.5198 210 86.2031 210ZM113.705 210H100.98C100.664 210 100.43 209.933 100.28 209.8C100.147 209.65 100.08 209.417 100.08 209.1V192.9C100.08 192.583 100.147 192.358 100.28 192.225C100.43 192.075 100.664 192 100.98 192H104.855C105.172 192 105.397 192.075 105.53 192.225C105.68 192.358 105.755 192.583 105.755 192.9V205.275H109.18V201.225C109.18 200.908 109.247 200.683 109.38 200.55C109.53 200.4 109.764 200.325 110.08 200.325H113.705C114.022 200.325 114.247 200.4 114.38 200.55C114.53 200.683 114.605 200.908 114.605 201.225V209.1C114.605 209.417 114.53 209.65 114.38 209.8C114.247 209.933 114.022 210 113.705 210ZM117.963 210C117.647 210 117.413 209.933 117.263 209.8C117.13 209.65 117.063 209.417 117.063 209.1V206.125C117.063 205.808 117.13 205.583 117.263 205.45C117.413 205.3 117.647 205.225 117.963 205.225H120.438V196.825H117.963C117.647 196.825 117.413 196.758 117.263 196.625C117.13 196.475 117.063 196.242 117.063 195.925V192.9C117.063 192.583 117.13 192.358 117.263 192.225C117.413 192.075 117.647 192 117.963 192H128.613C128.93 192 129.155 192.075 129.288 192.225C129.438 192.358 129.513 192.583 129.513 192.9V195.925C129.513 196.242 129.438 196.475 129.288 196.625C129.155 196.758 128.93 196.825 128.613 196.825H126.188V205.225H128.613C128.93 205.225 129.155 205.3 129.288 205.45C129.438 205.583 129.513 205.808 129.513 206.125V209.1C129.513 209.417 129.438 209.65 129.288 209.8C129.155 209.933 128.93 210 128.613 210H117.963ZM137.25 210H133.5C133.183 210 132.95 209.933 132.8 209.8C132.667 209.65 132.6 209.417 132.6 209.1V192.9C132.6 192.583 132.667 192.358 132.8 192.225C132.95 192.075 133.183 192 133.5 192H136.1C136.417 192 136.683 192.05 136.9 192.15C137.133 192.25 137.358 192.425 137.575 192.675L142.425 198.225V192.9C142.425 192.583 142.492 192.358 142.625 192.225C142.775 192.075 143.008 192 143.325 192H147.075C147.392 192 147.617 192.075 147.75 192.225C147.9 192.358 147.975 192.583 147.975 192.9V209.1C147.975 209.417 147.9 209.65 147.75 209.8C147.617 209.933 147.392 210 147.075 210H143.325C143.008 210 142.775 209.933 142.625 209.8C142.492 209.65 142.425 209.417 142.425 209.1V206.025L138.15 200.85V209.1C138.15 209.417 138.075 209.65 137.925 209.8C137.792 209.933 137.567 210 137.25 210ZM165.173 210H157.298C155.215 210 153.665 209.583 152.648 208.75C151.648 207.917 151.148 206.633 151.148 204.9V197.1C151.148 195.367 151.648 194.083 152.648 193.25C153.665 192.417 155.215 192 157.298 192H163.548C163.865 192 164.09 192.075 164.223 192.225C164.373 192.358 164.448 192.583 164.448 192.9V195.925C164.448 196.242 164.373 196.475 164.223 196.625C164.09 196.758 163.865 196.825 163.548 196.825H158.348C157.832 196.825 157.448 196.933 157.198 197.15C156.948 197.35 156.823 197.658 156.823 198.075V204.05C156.823 204.467 156.915 204.775 157.098 204.975C157.298 205.175 157.59 205.275 157.973 205.275H160.398V201.375C160.398 201.058 160.465 200.833 160.598 200.7C160.748 200.55 160.982 200.475 161.298 200.475H165.173C165.49 200.475 165.715 200.55 165.848 200.7C165.998 200.833 166.073 201.058 166.073 201.375V209.1C166.073 209.417 165.998 209.65 165.848 209.8C165.715 209.933 165.49 210 165.173 210ZM174.723 210H169.673C169.357 210 169.123 209.933 168.973 209.8C168.84 209.65 168.773 209.417 168.773 209.1V204.025C168.773 203.708 168.84 203.483 168.973 203.35C169.123 203.2 169.357 203.125 169.673 203.125H174.723C175.04 203.125 175.265 203.2 175.398 203.35C175.548 203.483 175.623 203.708 175.623 204.025V209.1C175.623 209.417 175.548 209.65 175.398 209.8C175.265 209.933 175.04 210 174.723 210Z" fill="#FDEBE6"/>
<mask id="mask0_209_785" style="mask-type:alpha" maskUnits="userSpaceOnUse" x="113" y="30" width="164" height="165">
<path d="M259.817 66.1499C264.25 73.0142 267.577 80.4904 269.666 88.2523C278.39 119.442 265.127 154.098 239.292 171.07C207.465 193.662 159.724 184.846 138.213 153.328C138.213 153.328 138.213 153.328 138.213 153.328C115.27 122.838 122.247 74.7932 153.862 51.9042C178.23 32.8863 215.309 31.4514 242.047 49.7264C248.727 54.1965 254.739 59.7485 259.817 66.1499C255.39 59.2831 249.847 53.0837 243.399 47.8906C217.749 26.6221 177.091 24.5309 148.618 44.5896C111.687 68.3611 101.467 124.614 128.461 160.32C153.611 197.348 210.167 205.728 244.536 178.384C272.674 157.858 283.747 118.682 271.839 87.5611C268.991 79.7869 264.899 72.5469 259.817 66.1499Z" fill="#D1D1D1"/>
</mask>
<g mask="url(#mask0_209_785)">
<path d="M251.465 148.603C242.455 136.035 245.339 118.543 257.907 109.533L260.691 107.537C273.259 98.5265 290.752 101.411 299.762 113.979L305.584 122.1C314.594 134.668 311.71 152.16 299.142 161.17L296.357 163.167C283.789 172.177 266.297 169.293 257.287 156.725L251.465 148.603Z" fill="#D1D1D1"/>
<path d="M233.479 133.813C222.538 118.552 226.04 97.3109 241.301 86.3701L244.086 84.3738C259.347 73.4331 280.588 76.9354 291.529 92.1965L295.177 117.881C295.177 117.881 287.172 123.62 277.297 130.699L274.512 132.696C264.637 139.775 256.632 145.514 256.632 145.514L233.479 133.813ZM310.46 118.604C321.401 133.865 317.899 155.106 302.638 166.047L299.853 168.043C284.592 178.984 263.351 175.482 252.41 160.22L262.163 153.229C269.242 163.104 282.986 165.37 292.861 158.29L295.646 156.294C305.521 149.215 307.787 135.471 300.708 125.596L310.46 118.604ZM299.853 168.043C284.592 178.984 263.351 175.482 252.41 160.22L233.479 133.813C222.538 118.552 226.04 97.3109 241.301 86.3701L274.512 132.696C264.637 139.775 256.632 145.514 256.632 145.514L262.163 153.229C269.242 163.104 282.986 165.37 292.861 158.29L299.853 168.043ZM244.086 84.3738C259.347 73.4331 280.588 76.9354 291.529 92.1965L310.46 118.604C321.401 133.865 317.899 155.106 302.638 166.047L295.646 156.294C305.521 149.215 307.787 135.471 300.708 125.596L295.177 117.881C295.177 117.881 287.172 123.62 277.297 130.699L244.086 84.3738Z" fill="#D1D1D1"/>
</g>
<mask id="mask1_209_785" style="mask-type:alpha" maskUnits="userSpaceOnUse" x="137" y="49" width="128" height="128">
<path d="M251.536 77.1368C254.854 82.4484 257.314 88.2015 258.824 94.1443C265.132 118.038 254.718 144.049 235.204 156.63C211.127 173.376 175.598 166.573 159.551 143.081C159.551 143.081 159.551 143.081 159.551 143.081C142.455 120.342 147.419 84.5092 171.007 67.0836C189.188 52.6412 217.165 51.1294 237.769 64.7743C242.912 68.1129 247.571 72.289 251.536 77.1368C248.222 71.8236 244.032 67.0002 239.121 62.9385C219.605 46.3001 188.05 44.2857 165.763 59.7691C136.858 78.0771 128.652 122.118 149.798 150.073C149.798 150.073 149.798 150.073 149.798 150.073C169.485 179.075 213.829 185.442 240.448 163.945C262.266 147.809 270.489 117.278 260.997 93.4531C258.727 87.498 255.504 81.9811 251.536 77.1368Z" fill="#D1D1D1"/>
</mask>
<g mask="url(#mask1_209_785)">
<path d="M245.903 141.348C238.581 131.134 240.925 116.919 251.139 109.596V109.596C261.353 102.274 275.568 104.618 282.891 114.832L285.821 118.919C293.143 129.133 290.799 143.348 280.585 150.67V150.67C270.371 157.993 256.156 155.649 248.833 145.435L245.903 141.348Z" fill="#D1D1D1"/>
<path d="M227.917 126.558C218.665 113.651 221.627 95.6867 234.533 86.4337C247.44 77.1807 265.404 80.1428 274.657 93.0496L285.821 118.919C285.96 119.113 286.096 119.309 286.229 119.507L267.744 132.759L249.26 146.011C249.115 145.821 248.972 145.629 248.833 145.435L227.917 126.558ZM290.697 115.423C299.95 128.33 296.988 146.294 284.081 155.547C271.174 164.8 253.21 161.838 243.957 148.931L253.71 141.939C259.101 149.46 269.569 151.186 277.089 145.794C284.61 140.403 286.336 129.935 280.944 122.415L290.697 115.423ZM284.081 155.547C271.174 164.8 253.21 161.838 243.957 148.931L227.917 126.558C218.665 113.651 221.627 95.6867 234.533 86.4337L267.744 132.759C260.224 138.151 254.127 142.521 254.127 142.521L253.71 141.939C259.101 149.46 269.569 151.186 277.089 145.794L284.081 155.547ZM234.533 86.4337C247.44 77.1807 265.404 80.1428 274.657 93.0496L290.697 115.423C299.95 128.33 296.988 146.294 284.081 155.547L277.089 145.794C284.61 140.403 286.336 129.935 280.944 122.415L281.361 122.997C281.361 122.997 275.265 127.368 267.744 132.759L234.533 86.4337Z" fill="#D1D1D1"/>
</g>
<mask id="mask2_209_785" style="mask-type:alpha" maskUnits="userSpaceOnUse" x="162" y="68" width="92" height="93">
<path d="M243.962 88.7097C246.186 92.4965 247.792 96.5575 248.735 100.714C252.671 117.443 245.055 134.965 231.746 143.235C215.281 154.239 191.744 149.413 181.062 133.803C181.062 133.803 181.062 133.803 181.062 133.803C169.707 118.675 172.693 94.834 188.401 82.7734C200.506 72.8239 219.545 71.2367 234.125 80.3349C237.759 82.5625 241.089 85.3874 243.962 88.7097C241.741 84.922 238.879 81.4497 235.477 78.4991C221.985 66.4074 199.368 64.4685 183.157 75.4588C162.133 88.4019 155.904 120.451 171.309 140.795C171.309 140.795 171.309 140.795 171.309 140.795C185.63 161.915 217.982 166.305 236.99 150.55C252.603 138.726 258.028 116.683 250.908 100.023C249.205 95.854 246.836 92.0291 243.962 88.7097Z" fill="#D1D1D1"/>
</mask>
<g mask="url(#mask2_209_785)">
<path d="M240.021 133.64C234.897 126.493 236.537 116.546 243.684 111.422V111.422C250.831 106.299 260.778 107.939 265.902 115.086L267.952 117.945C273.075 125.092 271.435 135.039 264.288 140.163V140.163C257.142 145.286 247.194 143.646 242.071 136.499L240.021 133.64Z" fill="#D1D1D1"/>
<path d="M222.035 118.849C214.98 109.009 217.239 95.3138 227.079 88.2595L227.079 88.2595C236.919 81.2052 250.614 83.4634 257.668 93.3033L267.952 117.945C269.837 120.576 270.877 123.719 270.931 126.955L260.289 134.585L249.646 142.215L249.647 142.214C246.599 141.123 243.957 139.13 242.071 136.499L222.035 118.849ZM272.828 114.449C279.882 124.289 277.624 137.985 267.784 145.039L267.784 145.039C257.944 152.093 244.249 149.835 237.195 139.995L246.947 133.004C250.14 137.457 256.339 138.479 260.792 135.286C265.246 132.094 266.268 125.895 263.075 121.441L272.828 114.449ZM267.784 145.039C257.944 152.093 244.249 149.835 237.195 139.995L222.035 118.849C214.98 109.009 217.239 95.3138 227.079 88.2595L260.289 134.585C255.836 137.778 252.225 140.366 252.225 140.366L246.947 133.004C250.14 137.457 256.339 138.479 260.792 135.286L267.784 145.039ZM227.079 88.2595C236.919 81.2052 250.614 83.4634 257.668 93.3033L272.828 114.449C279.882 124.289 277.624 137.985 267.784 145.039L260.792 135.286C265.246 132.094 266.268 125.895 263.075 121.441L268.354 128.804C268.354 128.804 264.743 131.392 260.289 134.585L227.079 88.2595Z" fill="#D1D1D1"/>
</g>
</svg>
