<svg width="308" height="227" viewBox="0 0 308 227" fill="none" xmlns="http://www.w3.org/2000/svg">
<path d="M0 1.24658H224.288V1.59874H224.64V13.0667H224.992V13.4189L225.279 13.5031C226.361 13.8438 227.337 14.3031 228.344 14.8275C228.562 14.9385 228.784 15.0495 229.006 15.1605L234.34 17.8285V18.1806L234.711 18.2304C235.319 18.3835 235.771 18.6399 236.31 18.9615L236.869 19.2945C237.336 19.5931 237.336 19.5931 237.688 19.9452L238.14 20.1098L238.568 20.2974L238.748 20.8256C239.276 21.0438 239.276 21.0438 239.804 21.1778V21.5299H240.332V21.8859L240.807 21.928C241.392 22.062 241.392 22.062 241.897 22.4026L242.272 22.7663V23.1184L243.156 23.2945L243.332 23.8266H243.86V24.1787L244.564 24.3548V24.7069H245.092V25.0591L245.513 25.2237C245.976 25.4113 245.976 25.4113 246.328 25.5873V25.9395H246.856V26.2955L247.74 26.6476V26.9998L248.134 27.1414C248.601 27.3443 248.949 27.5433 249.324 27.8802V28.2362L250.208 28.5883V28.9405L250.912 29.1165V29.4687L251.234 29.6218C251.617 29.8208 251.617 29.8208 252.148 30.173V30.529L252.443 30.6591C252.933 30.9232 253.342 31.2409 253.778 31.5854L254.253 31.9606L254.617 32.2898V32.6457H254.969V32.9979H255.321V33.35L255.65 33.5146L256.381 33.8783V34.2304L257.085 34.5826V34.9386H257.613C257.903 35.2142 257.903 35.2142 258.21 35.5855C258.776 36.2783 259.392 36.8984 260.031 37.5261C260.368 37.8553 260.704 38.1883 261.041 38.5214L261.386 38.8544C262.055 39.5204 262.637 40.2017 263.188 40.9673C263.525 41.4075 263.919 41.7788 264.313 42.1692C264.711 42.6209 265.09 43.084 265.472 43.5472L265.794 43.9415C266.639 44.975 267.447 46.0314 268.239 47.107C268.56 47.5434 268.866 47.9606 269.249 48.3434V48.8716H269.605C269.903 49.2659 270.19 49.6716 270.462 50.085L270.719 50.464C270.902 50.7357 271.082 51.0037 271.262 51.2755C271.541 51.6927 271.824 52.1099 272.104 52.5271C272.919 53.7367 273.734 54.9501 274.468 56.2133C274.648 56.5157 274.836 56.8181 275.023 57.1166C276.152 58.8965 277.109 60.753 278.065 62.6286L278.276 63.0382C278.926 64.3205 279.562 65.6028 280.143 66.9119C280.392 67.4631 280.645 68.0066 280.901 68.5502C281.272 69.3578 281.624 70.177 281.949 71.0076C282.137 71.4899 282.34 71.9645 282.542 72.4392C283.377 74.4411 284.107 76.4736 284.769 78.5368C284.896 79.0114 284.896 79.0114 285.122 79.2105C285.125 79.5626 285.129 79.9148 285.122 80.267H285.474L285.558 80.5847C285.741 81.2545 285.921 81.9244 286.105 82.5942C286.354 83.5167 286.614 84.4354 286.882 85.3502C287.215 86.4986 287.498 87.6584 287.777 88.822L287.907 89.3694C288.037 89.9206 288.167 90.4718 288.294 91.0268L288.424 91.5971C288.776 93.178 289.044 94.7627 289.296 96.3627C289.361 96.7876 289.43 97.2163 289.499 97.6412C290.337 102.908 290.444 108.145 290.444 113.465C290.444 114.062 290.444 114.663 290.444 115.264C290.46 118.786 290.417 122.269 290.058 125.775L290 126.342C289.22 133.771 287.448 140.918 285.122 147.999C285.003 148.363 284.884 148.73 284.766 149.098C284.303 150.526 283.824 151.934 283.224 153.312C283.009 153.802 282.814 154.3 282.619 154.797C282.179 155.93 281.678 157.037 281.119 158.116C280.928 158.499 280.763 158.893 280.625 159.299C280.354 160.08 279.94 160.776 279.531 161.488C279.328 161.883 279.206 162.208 279.125 162.637H278.773L278.712 163.023C278.306 164.769 277.093 166.418 276.183 167.942C275.877 168.462 275.578 168.987 275.291 169.519C274.924 170.189 274.507 170.82 274.071 171.448C273.845 171.796 273.657 172.145 273.481 172.516H273.129V173.044H272.777L272.701 173.377C272.601 173.752 272.601 173.752 272.425 174.105H272.073L272.008 174.418C271.889 174.824 271.744 175.081 271.503 175.425L271.262 175.777L271.002 176.141L270.738 176.524C270.118 177.408 269.49 178.285 268.847 179.157C268.572 179.536 268.304 179.923 268.04 180.309L267.665 180.807H267.313V181.335H266.957L266.429 182.392H266.077L265.954 182.767C265.675 183.387 265.277 183.85 264.829 184.355L264.301 184.968L264.034 185.274C263.682 185.687 263.341 186.112 263 186.537C261.332 188.585 259.457 190.453 257.59 192.317C257.215 192.692 256.84 193.067 256.465 193.442L255.405 194.503C254.639 195.264 253.844 195.976 253.029 196.681C252.814 196.872 252.596 197.06 252.382 197.251L251.762 197.795L251.444 198.074C250.882 198.564 250.404 198.924 249.68 199.15V199.502C249.42 199.731 249.42 199.731 249.083 199.965L248.75 200.202L248.444 200.386H248.092V200.738C247.725 201.021 247.35 201.293 246.967 201.553L246.646 201.779C246.367 201.967 246.083 202.147 245.8 202.323H245.448V202.679H244.916V203.031C244.557 203.291 244.185 203.536 243.807 203.77L243.125 204.195L242.781 204.409C242.146 204.807 241.522 205.224 240.898 205.638C240.508 205.852 240.508 205.852 239.98 205.852V206.204C239.574 206.491 239.574 206.491 239.1 206.732H238.568V207.088L238.178 207.299L237.654 207.582L237.141 207.862C236.808 208.045 236.479 208.241 236.157 208.443C235.748 208.673 235.748 208.673 235.22 208.673V209.029L234.868 209.198C233.992 209.626 233.131 210.066 232.281 210.549L231.853 210.79C231.573 210.951 231.294 211.111 231.015 211.276L230.62 211.502L230.268 211.705C229.932 211.85 229.932 211.85 229.224 211.85V212.202C226.591 213.569 226.591 213.569 225.168 213.791V214.143L224.816 214.495C224.758 214.993 224.758 214.993 224.762 215.582L224.754 216.275L224.751 217.025C224.747 217.282 224.743 217.538 224.739 217.791C224.731 218.465 224.728 219.138 224.72 219.812C224.712 220.891 224.701 221.971 224.689 223.05C224.685 223.425 224.682 223.804 224.678 224.179L224.67 224.872L224.666 225.485C224.64 225.959 224.64 225.959 224.464 226.311L156.225 226.488V226.667H151.741C144.237 226.671 136.733 226.671 129.229 226.671H128.85L116.315 226.675C112.017 226.675 107.72 226.679 103.423 226.679C98.3836 226.683 93.3479 226.683 88.3084 226.683H87.9372C85.9627 226.683 83.9844 226.683 82.0061 226.683C80.024 226.687 78.038 226.687 76.052 226.687C74.9768 226.687 73.9015 226.687 72.8225 226.687C71.8391 226.687 70.8556 226.687 69.8722 226.687C69.5164 226.687 69.1567 226.687 68.8008 226.687C68.3187 226.687 67.8365 226.687 67.3505 226.687L66.922 226.69C66.5967 226.687 66.2715 226.679 65.9462 226.667L65.7702 226.488C65.4258 226.472 65.0776 226.468 64.7332 226.468L64.0444 226.465L63.2791 226.468H62.4717C61.7332 226.468 60.9909 226.468 60.2485 226.468C59.4526 226.468 58.6529 226.468 57.8531 226.468C56.4718 226.468 55.0866 226.468 53.7014 226.472C51.7001 226.472 49.6988 226.472 47.6975 226.472C44.4527 226.472 41.2039 226.476 37.9591 226.476C34.806 226.476 31.6491 226.48 28.4961 226.48H24.9833C16.8903 226.484 8.79717 226.484 0.707906 226.488L0.528059 225.959H0V1.24658Z" fill="#ED3B02"/>
<path d="M0 1.24658H224.288V1.59874H224.64V13.0667H224.992V13.4189L225.279 13.5031C226.361 13.8438 227.337 14.3031 228.344 14.8275C228.562 14.9385 228.784 15.0495 229.006 15.1605L234.34 17.8285V18.1806L234.711 18.2304C235.319 18.3835 235.771 18.6399 236.31 18.9615L236.869 19.2945C237.336 19.5931 237.336 19.5931 237.688 19.9452L238.14 20.1098L238.568 20.2974L238.748 20.8256C239.276 21.0438 239.276 21.0438 239.804 21.1778V21.5299H240.332V21.8859L240.807 21.928C241.392 22.062 241.392 22.062 241.897 22.4026L242.272 22.7663V23.1184L243.156 23.2945L243.332 23.8266H243.86V24.1787L244.564 24.3548V24.7069H245.092V25.0591L245.513 25.2237C245.976 25.4113 245.976 25.4113 246.328 25.5873V25.9395H246.856V26.2955L247.74 26.6476V26.9998L248.134 27.1414C248.601 27.3443 248.949 27.5433 249.324 27.8802V28.2362L250.208 28.5883V28.9405L250.912 29.1165V29.4687L251.234 29.6218C251.617 29.8208 251.617 29.8208 252.148 30.173V30.529L252.443 30.6591C252.933 30.9232 253.342 31.2409 253.778 31.5854L254.253 31.9606L254.617 32.2898V32.6457H254.969V32.9979H255.321V33.35L255.65 33.5146L256.381 33.8783V34.2304L257.085 34.5826V34.9386H257.613C257.903 35.2142 257.903 35.2142 258.21 35.5855C258.776 36.2783 259.392 36.8984 260.031 37.5261C260.368 37.8553 260.704 38.1883 261.041 38.5214L261.386 38.8544C262.055 39.5204 262.637 40.2017 263.188 40.9673C263.525 41.4075 263.919 41.7788 264.313 42.1692C264.711 42.6209 265.09 43.084 265.472 43.5472L265.794 43.9415C266.639 44.975 267.447 46.0314 268.239 47.107C268.56 47.5434 268.866 47.9606 269.249 48.3434V48.8716H269.605C269.903 49.2659 270.19 49.6716 270.462 50.085L270.719 50.464C270.902 50.7357 271.082 51.0037 271.262 51.2755C271.541 51.6927 271.824 52.1099 272.104 52.5271C272.919 53.7367 273.734 54.9501 274.468 56.2133C274.648 56.5157 274.836 56.8181 275.023 57.1166C276.152 58.8965 277.109 60.753 278.065 62.6286L278.276 63.0382C278.926 64.3205 279.562 65.6028 280.143 66.9119C280.392 67.4631 280.645 68.0066 280.901 68.5502C281.272 69.3578 281.624 70.177 281.949 71.0076C282.137 71.4899 282.34 71.9645 282.542 72.4392C283.377 74.4411 284.107 76.4736 284.769 78.5368C284.896 79.0114 284.896 79.0114 285.122 79.2105C285.125 79.5626 285.129 79.9148 285.122 80.267H285.474L285.558 80.5847C285.741 81.2545 285.921 81.9244 286.105 82.5942C286.354 83.5167 286.614 84.4354 286.882 85.3502C287.215 86.4986 287.498 87.6584 287.777 88.822L287.907 89.3694C288.037 89.9206 288.167 90.4718 288.294 91.0268L288.424 91.5971C288.776 93.178 289.044 94.7627 289.296 96.3627C289.361 96.7876 289.43 97.2163 289.499 97.6412C290.337 102.908 290.444 108.145 290.444 113.465C290.444 114.062 290.444 114.663 290.444 115.264C290.46 118.786 290.417 122.269 290.058 125.775L290 126.342C289.22 133.771 287.448 140.918 285.122 147.999C285.003 148.363 284.884 148.73 284.766 149.098C284.303 150.526 283.824 151.934 283.224 153.312C283.009 153.802 282.814 154.3 282.619 154.797C282.179 155.93 281.678 157.037 281.119 158.116C280.928 158.499 280.763 158.893 280.625 159.299C280.354 160.08 279.94 160.776 279.531 161.488C279.328 161.883 279.206 162.208 279.125 162.637H278.773L278.712 163.023C278.306 164.769 277.093 166.418 276.183 167.942C275.877 168.462 275.578 168.987 275.291 169.519C274.924 170.189 274.507 170.82 274.071 171.448C273.845 171.796 273.657 172.145 273.481 172.516H273.129V173.044H272.777L272.701 173.377C272.601 173.752 272.601 173.752 272.425 174.105H272.073L272.008 174.418C271.889 174.824 271.744 175.081 271.503 175.425L271.262 175.777L271.002 176.141L270.738 176.524C270.118 177.408 269.49 178.285 268.847 179.157C268.572 179.536 268.304 179.923 268.04 180.309L267.665 180.807H267.313V181.335H266.957L266.429 182.392H266.077L265.954 182.767C265.675 183.387 265.277 183.85 264.829 184.355L264.301 184.968L264.034 185.274C263.682 185.687 263.341 186.112 263 186.537C261.332 188.585 259.457 190.453 257.59 192.317C257.215 192.692 256.84 193.067 256.465 193.442L255.405 194.503C254.639 195.264 253.844 195.976 253.029 196.681C252.814 196.872 252.596 197.06 252.382 197.251L251.762 197.795L251.444 198.074C250.882 198.564 250.404 198.924 249.68 199.15V199.502C249.42 199.731 249.42 199.731 249.083 199.965L248.75 200.202L248.444 200.386H248.092V200.738C247.725 201.021 247.35 201.293 246.967 201.553L246.646 201.779C246.367 201.967 246.083 202.147 245.8 202.323H245.448V202.679H244.916V203.031C244.557 203.291 244.185 203.536 243.807 203.77L243.125 204.195L242.781 204.409C242.146 204.807 241.522 205.224 240.898 205.638C240.508 205.852 240.508 205.852 239.98 205.852V206.204C239.574 206.491 239.574 206.491 239.1 206.732H238.568V207.088L238.178 207.299L237.654 207.582L237.141 207.862C236.808 208.045 236.479 208.241 236.157 208.443C235.748 208.673 235.748 208.673 235.22 208.673V209.029L234.868 209.198C233.992 209.626 233.131 210.066 232.281 210.549L231.853 210.79C231.573 210.951 231.294 211.111 231.015 211.276L230.62 211.502L230.268 211.705C229.932 211.85 229.932 211.85 229.224 211.85V212.202C226.591 213.569 226.591 213.569 225.168 213.791V214.143L224.816 214.495C224.758 214.993 224.758 214.993 224.762 215.582L224.754 216.275L224.751 217.025C224.747 217.282 224.743 217.538 224.739 217.791C224.731 218.465 224.728 219.138 224.72 219.812C224.712 220.891 224.701 221.971 224.689 223.05C224.685 223.425 224.682 223.804 224.678 224.179L224.67 224.872L224.666 225.485C224.64 225.959 224.64 225.959 224.464 226.311L156.225 226.488V226.667H151.741C144.237 226.671 136.733 226.671 129.229 226.671H128.85L116.315 226.675C112.017 226.675 107.72 226.679 103.423 226.679C98.3836 226.683 93.3479 226.683 88.3084 226.683H87.9372C85.9627 226.683 83.9844 226.683 82.0061 226.683C80.024 226.687 78.038 226.687 76.052 226.687C74.9768 226.687 73.9015 226.687 72.8225 226.687C71.8391 226.687 70.8556 226.687 69.8722 226.687C69.5164 226.687 69.1567 226.687 68.8008 226.687C68.3187 226.687 67.8365 226.687 67.3505 226.687L66.922 226.69C66.5967 226.687 66.2715 226.679 65.9462 226.667L65.7702 226.488C65.4258 226.472 65.0776 226.468 64.7332 226.468L64.0444 226.465L63.2791 226.468H62.4717C61.7332 226.468 60.9909 226.468 60.2485 226.468C59.4526 226.468 58.6529 226.468 57.8531 226.468C56.4718 226.468 55.0866 226.468 53.7014 226.472C51.7001 226.472 49.6988 226.472 47.6975 226.472C44.4527 226.472 41.2039 226.476 37.9591 226.476C34.806 226.476 31.6491 226.48 28.4961 226.48H24.9833C16.8903 226.484 8.79717 226.484 0.707906 226.488L0.528059 225.959H0V1.24658Z" fill="#ED3B02"/>
<path d="M225.016 13.2695C225.273 13.3539 225.525 13.4344 225.781 13.5187L226.21 13.6605C226.657 13.8177 227.074 14.0094 227.495 14.2279L227.946 14.4617L228.367 14.6802C228.585 14.7914 228.807 14.9026 229.029 15.0137L234.361 17.6856V18.0383L234.732 18.0881C235.34 18.2415 235.792 18.4983 236.331 18.8203L236.889 19.1538C237.356 19.4528 237.356 19.4528 237.708 19.8055L238.159 19.9704L238.588 20.1582L238.767 20.6872C239.295 20.9057 239.295 20.9057 239.823 21.0399V21.3926H240.351V21.7491L240.825 21.7912C241.411 21.9254 241.411 21.9254 241.915 22.2666L242.29 22.6307V22.9834L243.174 23.1598L243.35 23.6926H243.878V24.0453L244.581 24.2216V24.5743H245.109V24.927L245.53 25.0918C245.993 25.2796 245.993 25.2796 246.345 25.456V25.8087H246.873V26.1652L247.756 26.5178V26.8705L248.15 27.0123C248.617 27.2155 248.965 27.4149 249.34 27.7522V28.1087L250.223 28.4614V28.8141L250.927 28.9904V29.3431L251.249 29.4964C251.631 29.6957 251.631 29.6957 252.163 30.0484V30.4049L252.457 30.5353C252.947 30.7998 253.356 31.1179 253.792 31.4629L254.267 31.8386L254.63 32.1683V32.5248H254.982V32.8775H255.334V33.2302L255.663 33.395L256.393 33.7592V34.1118L257.097 34.4645V34.821H257.625C257.916 35.097 257.916 35.097 258.222 35.4689C258.788 36.1627 259.404 36.7837 260.042 37.4124C260.379 37.7421 260.716 38.0756 261.052 38.4091L261.396 38.7426C262.066 39.4096 262.647 40.092 263.198 40.8587C263.535 41.2995 263.929 41.6713 264.323 42.0624C264.72 42.5147 265.099 42.9785 265.482 43.4424L265.803 43.8372C266.648 44.8723 267.455 45.9303 268.247 47.0075C268.568 47.4445 268.874 47.8623 269.257 48.2457V48.7747H269.613C269.911 49.1695 270.198 49.5759 270.469 49.9899L270.726 50.3694C270.909 50.6415 271.089 50.9099 271.269 51.1821C271.548 51.5999 271.831 52.0177 272.11 52.4356C272.925 53.647 273.74 54.8621 274.474 56.1272C274.654 56.43 274.841 56.7329 275.029 57.0319C276.157 58.8144 277.113 60.6736 278.07 62.552L278.28 62.9622C278.93 64.2464 279.565 65.5306 280.147 66.8416C280.395 67.3936 280.648 67.9379 280.904 68.4823C281.275 69.2911 281.627 70.1115 281.952 70.9433C282.14 71.4264 282.342 71.9017 282.545 72.377C283.379 74.3819 284.109 76.4175 284.771 78.4837C284.897 78.959 284.897 78.959 285.123 79.1584C285.127 79.511 285.131 79.8637 285.123 80.2164H285.475L285.559 80.5346L285.957 82.0066L286.106 82.5471C286.355 83.471 286.615 84.391 286.883 85.3072C287.215 86.4572 287.498 87.6187 287.778 88.7841L287.908 89.3323C288.038 89.8843 288.168 90.4363 288.294 90.9921L288.424 91.5633C288.776 93.1465 289.044 94.7336 289.296 96.3359C289.361 96.7614 289.43 97.1908 289.499 97.6163C290.337 102.891 290.444 108.135 290.444 113.464C290.444 114.062 290.444 114.664 290.444 115.265C290.459 118.792 290.417 122.281 290.057 125.792L290 126.359C289.22 133.8 287.449 140.957 285.123 148.049C285.005 148.413 284.886 148.781 284.767 149.149C284.305 150.579 283.826 151.99 283.226 153.37C283.012 153.86 282.817 154.359 282.622 154.857C282.182 155.992 281.681 157.099 281.122 158.181C280.931 158.564 280.766 158.959 280.629 159.365C280.357 160.147 279.944 160.845 279.535 161.558C279.332 161.953 279.21 162.278 279.129 162.708H278.777L278.716 163.095C278.311 164.843 277.098 166.495 276.188 168.021C275.882 168.542 275.583 169.067 275.297 169.6C274.929 170.271 274.512 170.904 274.076 171.532C273.851 171.881 273.663 172.23 273.487 172.602H273.135V173.131H272.784L272.707 173.464C272.608 173.84 272.608 173.84 272.432 174.193H272.08L272.015 174.507C271.896 174.913 271.751 175.17 271.51 175.515L271.269 175.868L271.009 176.232L270.745 176.615C270.125 177.501 269.498 178.379 268.855 179.253C268.58 179.632 268.312 180.02 268.048 180.407L267.673 180.905H267.321V181.434H266.966L266.438 182.492H266.086L265.963 182.868C265.684 183.489 265.286 183.953 264.839 184.459L264.311 185.072L264.043 185.379C263.691 185.793 263.351 186.218 263.011 186.644C261.343 188.695 259.469 190.565 257.602 192.432C257.227 192.808 256.852 193.183 256.477 193.559L255.418 194.621C254.653 195.384 253.857 196.097 253.042 196.802C252.828 196.994 252.61 197.182 252.396 197.373L251.776 197.918L251.459 198.198C250.897 198.688 250.419 199.049 249.696 199.275V199.627C249.435 199.857 249.435 199.857 249.099 200.091L248.766 200.329L248.46 200.513H248.108V200.866C247.741 201.149 247.366 201.421 246.984 201.682L246.662 201.908C246.383 202.096 246.1 202.276 245.817 202.453H245.465V202.809H244.933V203.162C244.574 203.423 244.203 203.668 243.824 203.902L243.143 204.327L242.799 204.542C242.164 204.941 241.541 205.358 240.917 205.772C240.527 205.987 240.527 205.987 239.999 205.987V206.34C239.594 206.627 239.594 206.627 239.119 206.869H238.588V207.225L238.198 207.436L237.673 207.72L237.161 208C236.828 208.184 236.499 208.379 236.178 208.582C235.769 208.812 235.769 208.812 235.241 208.812V209.169L234.889 209.338C234.013 209.767 233.152 210.208 232.303 210.691L231.875 210.932C231.595 211.093 231.316 211.254 231.037 211.419L230.643 211.645L230.291 211.848C229.955 211.994 229.955 211.994 229.247 211.994V212.347C226.615 213.715 226.615 213.715 225.192 213.938V214.29H224.84C224.837 184.359 224.837 184.359 224.833 159.001V130.764C224.833 121.533 224.833 112.298 224.829 103.067C224.825 96.3321 224.825 89.5968 224.825 82.8615V69.2106C224.825 64.9019 224.825 60.5893 224.821 56.2767C224.821 51.3239 224.821 46.3711 224.821 41.4145V41.058C224.821 39.0838 224.821 37.1134 224.821 35.1392C224.818 33.4142 224.818 31.6891 224.821 29.9679C224.821 28.9866 224.821 28.009 224.818 27.0277C224.818 22.4391 224.867 17.8543 225.016 13.2695Z" fill="#070706"/>
<path d="M266.416 48.2141H266.769C267.045 48.5627 267.313 48.9227 267.566 49.2942L268.046 49.9799L268.295 50.3361C268.517 50.6578 268.748 50.9757 268.978 51.2936C270.128 52.8755 271.202 54.4996 272.249 56.1542L272.483 56.5258C274.393 59.5631 276.184 62.6886 277.753 65.9137C277.975 66.3657 278.213 66.8138 278.455 67.2581C280.346 70.6824 281.711 74.3671 283.03 78.0403L283.256 78.6684C286.237 86.9992 288.043 95.7131 288.86 104.515L288.925 105.189C289.447 111.157 289.477 117.266 288.86 123.226L288.756 124.352C287.59 136.379 284.173 148.092 279.141 159.054L278.884 159.609C277.703 162.168 276.407 164.638 274.988 167.071C274.742 167.492 274.501 167.913 274.259 168.335C273.273 170.047 272.207 171.69 271.095 173.322C270.849 173.682 270.608 174.042 270.366 174.402C268.456 177.236 266.37 179.956 264.118 182.53L263.781 182.916C263.102 183.698 262.412 184.464 261.717 185.23C261.484 185.49 261.253 185.751 261.023 186.015C260.31 186.842 259.57 187.628 258.795 188.401L258.446 188.754C258.204 188.999 257.959 189.24 257.717 189.481C257.349 189.849 256.985 190.221 256.617 190.588C255.405 191.806 254.196 192.978 252.808 194.001L252.455 193.649L252.808 193.116C252.754 192.737 252.754 192.737 252.632 192.412L251.746 192.235C252.275 191.588 252.793 190.994 253.429 190.458C254.3 189.707 255.109 188.903 255.922 188.091C256.175 187.834 256.432 187.578 256.689 187.325C257.61 186.402 258.5 185.46 259.347 184.468C259.597 184.192 259.846 183.916 260.099 183.64C263.363 180.025 266.293 176.125 269.02 172.092C269.235 171.774 269.449 171.46 269.668 171.146C273.335 165.818 276.265 159.927 278.731 153.964C278.93 153.485 279.134 153.014 279.337 152.539C281.435 147.624 282.923 142.377 284.089 137.168L284.173 136.8C284.986 133.181 285.611 129.565 286.033 125.872L286.106 125.26C286.62 121.004 286.762 116.737 286.915 112.459H286.563L286.57 113.053C286.578 114.458 286.563 115.83 286.386 117.224C285.627 117.454 285.044 117.339 284.265 117.224L284.089 116.695L283.747 116.626L283.383 116.519L283.03 115.634C282.693 115.458 282.693 115.458 282.321 115.458L281.791 115.634V115.282L280.733 114.929L280.369 114.853C280.023 114.753 280.023 114.753 279.67 114.401L279.13 114.167L278.612 113.868C278.543 113.577 278.485 113.282 278.432 112.987C277.991 112.689 277.991 112.689 277.55 112.459V112.107H277.02L276.844 111.222L276.832 111.678C276.733 115.707 276.614 119.744 276.134 123.754H275.782C275.808 123.199 275.835 122.644 275.858 122.088L275.881 121.629C275.923 120.748 275.969 119.867 276.027 118.986C276.131 117.339 276.173 115.695 276.169 114.045V113.635C276.154 107.139 275.766 100.382 274.098 94.0852C273.983 93.6217 273.906 93.1583 273.837 92.691H273.484L273.308 93.0434L273.005 92.9055L272.591 92.7216L272.149 92.5263C271.889 92.4114 271.628 92.3003 271.363 92.1969C270.681 91.9288 270.27 91.63 269.775 91.1014C269.48 90.9214 269.185 90.7452 268.889 90.5729C267.969 89.9562 267.229 89.2821 266.519 88.4317C266.224 88.0679 266.224 88.0679 265.764 87.6695C265.292 87.1448 265.085 86.643 264.82 85.9957C264.605 85.5399 264.302 85.2718 263.942 84.9232C263.762 84.5134 263.585 84.1036 263.413 83.6899L263.068 83.2801C262.649 82.7362 262.442 82.2153 262.201 81.5756C262.047 81.1734 261.89 80.7751 261.725 80.3767L261.579 80.0243C261.484 79.7945 261.391 79.5685 261.296 79.3387C260.13 76.4814 260.295 72.2068 260.628 69.1656C260.747 68.3497 260.927 67.5492 261.115 66.7449L261.38 65.4426C261.56 64.5999 261.787 63.7879 262.043 62.9644C262.251 62.2405 262.396 61.5013 262.55 60.762C262.83 59.4291 263.16 58.1038 263.482 56.7786C263.578 56.3687 263.673 55.955 263.766 55.5414C264.069 54.2123 264.479 53.1053 265.135 51.9103C265.457 51.1443 265.445 50.4127 265.472 49.5892C265.534 49.0951 265.534 49.0951 265.725 48.7542C265.963 48.509 265.963 48.509 266.416 48.2141Z" fill="black"/>
<path d="M280.978 73.7644L281.439 73.9483C281.703 74.4157 281.887 74.8295 282.068 75.3276L282.244 75.795C282.451 76.3543 282.654 76.9175 282.85 77.4807L283.092 78.1435C286.144 86.6413 288.028 95.5107 288.86 104.491L288.925 105.165C289.447 111.135 289.477 117.245 288.86 123.207L288.756 124.333C287.59 136.364 284.173 148.08 279.141 159.045L278.884 159.6C277.703 162.159 276.407 164.631 274.988 167.063C274.742 167.485 274.501 167.906 274.259 168.328C273.273 170.04 272.207 171.684 271.095 173.316C270.849 173.676 270.608 174.036 270.366 174.397C268.456 177.232 266.37 179.952 264.118 182.526L263.781 182.913C263.102 183.695 262.412 184.461 261.717 185.228C261.484 185.488 261.25 185.749 261.023 186.013C260.31 186.84 259.57 187.626 258.795 188.4L258.446 188.752C258.204 188.997 257.959 189.239 257.717 189.48C257.349 189.848 256.985 190.22 256.617 190.587C255.405 191.806 254.196 192.978 252.808 194.001L252.455 193.649L252.808 193.116C252.754 192.737 252.754 192.737 252.632 192.411L251.746 192.235C252.275 191.587 252.793 190.994 253.429 190.457C254.3 189.706 255.109 188.902 255.922 188.089C256.175 187.833 256.432 187.576 256.689 187.323C257.61 186.4 258.5 185.457 259.347 184.465C259.597 184.189 259.846 183.913 260.099 183.638C263.363 180.021 266.293 176.121 269.02 172.086C269.235 171.768 269.449 171.454 269.668 171.14C273.335 165.811 276.265 159.918 278.731 153.953C278.93 153.474 279.134 153.003 279.337 152.528C281.435 147.612 282.923 142.363 284.089 137.153L284.173 136.785C284.986 133.164 285.615 129.548 286.033 125.854L286.11 125.188C286.628 120.648 286.808 116.119 286.739 111.552L286.731 111.02C286.536 98.3535 283.54 86.1241 279.141 74.3008L279.471 74.228C279.855 74.1399 279.855 74.1399 280.188 73.9291C280.553 73.7721 280.553 73.7721 280.978 73.7644Z" fill="black"/>
<path d="M276.105 159.808L277.695 159.984L277.871 160.692L277.695 160.868L278.048 161.043C277.818 161.793 277.527 162.466 277.155 163.158L276.829 163.77L276.481 164.413L276.305 164.746C274.699 167.714 272.968 170.574 271.064 173.359C270.823 173.715 270.585 174.07 270.348 174.426C268.44 177.26 266.356 179.975 264.104 182.546L263.767 182.932C263.089 183.712 262.399 184.477 261.706 185.242C261.472 185.502 261.238 185.762 261.012 186.026C260.3 186.852 259.56 187.636 258.787 188.409L258.438 188.761C258.197 189.005 257.952 189.246 257.71 189.487C257.342 189.855 256.979 190.225 256.611 190.593C255.4 191.809 254.194 192.979 252.807 194L252.454 193.649L252.807 193.117C252.753 192.738 252.753 192.738 252.631 192.413L251.746 192.237C252.274 191.591 252.792 190.998 253.427 190.463C254.297 189.713 255.105 188.91 255.917 188.099C256.17 187.843 256.427 187.586 256.684 187.334C257.603 186.412 258.492 185.471 259.338 184.481C259.587 184.206 259.836 183.93 260.089 183.655C263.349 180.044 266.276 176.151 268.999 172.123C269.214 171.806 269.428 171.492 269.647 171.179C272.125 167.58 274.133 163.702 276.105 159.808Z" fill="black"/>
<path d="M255.162 127.119L255.503 127.292C255.399 128.455 255.199 129.553 254.929 130.685L254.817 131.156C254.599 132.085 254.317 132.995 253.965 133.883H253.624C253.939 132.423 254.284 130.975 254.628 129.527L254.762 128.966L254.884 128.459C254.984 128.015 255.077 127.567 255.162 127.119Z" fill="black"/>
<path d="M259.796 166.448H260.145C259.876 167.264 259.44 167.891 258.944 168.576L258.717 168.9C257.805 170.181 257.805 170.181 257.354 170.704H257.006C257.252 169.908 257.646 169.508 258.225 168.93C258.41 168.642 258.581 168.346 258.751 168.045C258.925 167.761 259.103 167.476 259.285 167.191L259.55 166.768L259.796 166.448ZM266.426 154.923H266.775C266.54 155.882 266.196 156.693 265.73 157.559L265.54 157.925C265.378 158.229 265.207 158.525 265.029 158.825L264.681 159.002C264.787 158.325 264.988 157.809 265.306 157.205C265.658 156.547 265.658 156.547 265.73 155.808H266.252L266.426 154.923Z" fill="black"/>
<path d="M254.869 141.773L255.224 141.949C254.881 143.041 254.468 144.08 253.979 145.118H253.624C253.99 143.98 254.41 142.877 254.869 141.773ZM263.039 161.304L263.394 161.655C263.197 162.006 263 162.354 262.804 162.701L262.472 163.289L262.149 163.766L261.617 163.942C261.86 163.293 262.16 162.72 262.526 162.128L262.815 161.659L263.039 161.304Z" fill="black"/>
<path d="M253.249 145.53L253.625 145.705C253.232 147.075 253.232 147.075 252.816 147.581C252.591 147.787 252.358 147.973 252.122 148.16C252.42 147.246 252.824 146.394 253.249 145.53Z" fill="black"/>
<path d="M37.344 108.999H22.176C21.568 108.999 21.12 108.871 20.832 108.615C20.576 108.327 20.448 107.879 20.448 107.271V101.655C20.448 101.047 20.576 100.615 20.832 100.359C21.12 100.071 21.568 99.9265 22.176 99.9265H35.088C35.504 99.9265 35.808 99.7985 36 99.5425C36.224 99.2545 36.336 98.9185 36.336 98.5345C36.336 97.9905 36.224 97.5905 36 97.3345C35.808 97.0785 35.504 96.9345 35.088 96.9025L27.888 95.8945C25.648 95.5745 23.84 94.8385 22.464 93.6865C21.12 92.5345 20.448 90.6145 20.448 87.9265V82.8865C20.448 80.1665 21.328 78.0865 23.088 76.6465C24.848 75.1745 27.28 74.4385 30.384 74.4385H43.824C44.432 74.4385 44.864 74.5825 45.12 74.8705C45.408 75.1265 45.552 75.5585 45.552 76.1665V81.8785C45.552 82.4865 45.408 82.9345 45.12 83.2225C44.864 83.4785 44.432 83.6065 43.824 83.6065H32.64C32.224 83.6065 31.904 83.7505 31.68 84.0385C31.456 84.2945 31.344 84.6305 31.344 85.0465C31.344 85.4625 31.456 85.8145 31.68 86.1025C31.904 86.3905 32.224 86.5505 32.64 86.5825L39.792 87.5425C42.032 87.8625 43.84 88.5985 45.216 89.7505C46.592 90.9025 47.28 92.8225 47.28 95.5105V100.551C47.28 103.271 46.384 105.367 44.592 106.839C42.832 108.279 40.416 108.999 37.344 108.999ZM81.8108 99.9265C81.8108 101.399 81.5868 102.743 81.1388 103.959C80.7228 105.143 79.9548 106.167 78.8348 107.031C77.7468 107.863 76.2268 108.519 74.2748 108.999C72.3548 109.479 69.9068 109.719 66.9308 109.719C63.9548 109.719 61.4908 109.479 59.5388 108.999C57.5868 108.519 56.0508 107.863 54.9308 107.031C53.8428 106.167 53.0748 105.143 52.6268 103.959C52.2108 102.743 52.0028 101.399 52.0028 99.9265V83.5585C52.0028 82.0865 52.2108 80.7585 52.6268 79.5745C53.0748 78.3585 53.8428 77.3185 54.9308 76.4545C56.0508 75.5905 57.5868 74.9185 59.5388 74.4385C61.4908 73.9585 63.9548 73.7185 66.9308 73.7185C69.9068 73.7185 72.3548 73.9585 74.2748 74.4385C76.2268 74.9185 77.7468 75.5905 78.8348 76.4545C79.9548 77.3185 80.7228 78.3585 81.1388 79.5745C81.5868 80.7585 81.8108 82.0865 81.8108 83.5585V99.9265ZM62.8988 98.1985C62.8988 98.8385 63.1388 99.3825 63.6188 99.8305C64.0988 100.247 65.2028 100.455 66.9308 100.455C68.6588 100.455 69.7628 100.247 70.2428 99.8305C70.7228 99.3825 70.9628 98.8385 70.9628 98.1985V85.2865C70.9628 84.6785 70.7228 84.1665 70.2428 83.7505C69.7628 83.3025 68.6588 83.0785 66.9308 83.0785C65.2028 83.0785 64.0988 83.3025 63.6188 83.7505C63.1388 84.1665 62.8988 84.6785 62.8988 85.2865V98.1985ZM117.345 99.9265C117.345 101.399 117.121 102.743 116.673 103.959C116.257 105.143 115.489 106.167 114.369 107.031C113.281 107.863 111.777 108.519 109.857 108.999C107.937 109.479 105.489 109.719 102.513 109.719C99.5374 109.719 97.0894 109.479 95.1694 108.999C93.2494 108.519 91.7294 107.863 90.6094 107.031C89.5214 106.167 88.7534 105.143 88.3054 103.959C87.8894 102.743 87.6814 101.399 87.6814 99.9265V76.1665C87.6814 75.5585 87.8094 75.1265 88.0654 74.8705C88.3534 74.5825 88.8014 74.4385 89.4094 74.4385H96.9454C97.5534 74.4385 97.9854 74.5825 98.2414 74.8705C98.5294 75.1265 98.6734 75.5585 98.6734 76.1665V98.0545C98.6734 98.6945 98.9134 99.2385 99.3934 99.6865C99.8734 100.103 100.945 100.311 102.609 100.311C104.305 100.311 105.393 100.103 105.873 99.6865C106.353 99.2385 106.593 98.6945 106.593 98.0545V76.1665C106.593 75.5585 106.721 75.1265 106.977 74.8705C107.265 74.5825 107.713 74.4385 108.321 74.4385H115.617C116.225 74.4385 116.657 74.5825 116.913 74.8705C117.201 75.1265 117.345 75.5585 117.345 76.1665V99.9265ZM132.662 108.999H125.462C124.854 108.999 124.406 108.871 124.118 108.615C123.862 108.327 123.734 107.879 123.734 107.271V76.1665C123.734 75.5585 123.862 75.1265 124.118 74.8705C124.406 74.5825 124.854 74.4385 125.462 74.4385H130.454C131.062 74.4385 131.574 74.5345 131.99 74.7265C132.438 74.9185 132.87 75.2545 133.286 75.7345L142.598 86.3905V76.1665C142.598 75.5585 142.726 75.1265 142.982 74.8705C143.27 74.5825 143.718 74.4385 144.326 74.4385H151.526C152.134 74.4385 152.566 74.5825 152.822 74.8705C153.11 75.1265 153.254 75.5585 153.254 76.1665V107.271C153.254 107.879 153.11 108.327 152.822 108.615C152.566 108.871 152.134 108.999 151.526 108.999H144.326C143.718 108.999 143.27 108.871 142.982 108.615C142.726 108.327 142.598 107.879 142.598 107.271V101.367L134.39 91.4305V107.271C134.39 107.879 134.246 108.327 133.958 108.615C133.702 108.871 133.27 108.999 132.662 108.999ZM177.779 108.999H161.603C160.995 108.999 160.547 108.871 160.259 108.615C160.003 108.327 159.875 107.879 159.875 107.271V76.1665C159.875 75.5585 160.003 75.1265 160.259 74.8705C160.547 74.5825 160.995 74.4385 161.603 74.4385H177.779C181.779 74.4385 184.739 75.2385 186.659 76.8385C188.611 78.4385 189.587 80.9025 189.587 84.2305V99.2065C189.587 102.535 188.611 104.999 186.659 106.599C184.739 108.199 181.779 108.999 177.779 108.999ZM170.771 83.6065V99.9265H176.483C177.251 99.9265 177.811 99.7345 178.163 99.3505C178.547 98.9665 178.739 98.3745 178.739 97.5745V85.9105C178.739 85.1105 178.547 84.5345 178.163 84.1825C177.811 83.7985 177.251 83.6065 176.483 83.6065H170.771ZM196.023 96.6625C195.415 96.6625 194.967 96.5345 194.679 96.2785C194.423 95.9905 194.295 95.5425 194.295 94.9345V88.5025C194.295 87.8945 194.423 87.4625 194.679 87.2065C194.967 86.9185 195.415 86.7745 196.023 86.7745H208.887C209.495 86.7745 209.927 86.9185 210.183 87.2065C210.471 87.4625 210.615 87.8945 210.615 88.5025V94.9345C210.615 95.5425 210.471 95.9905 210.183 96.2785C209.927 96.5345 209.495 96.6625 208.887 96.6625H196.023ZM37.632 166.999H29.856C29.248 166.999 28.8 166.871 28.512 166.615C28.256 166.327 28.128 165.879 28.128 165.271V141.703H21.072C20.464 141.703 20.016 141.575 19.728 141.319C19.472 141.031 19.344 140.583 19.344 139.975V134.167C19.344 133.559 19.472 133.127 19.728 132.871C20.016 132.583 20.464 132.439 21.072 132.439H46.416C47.024 132.439 47.456 132.583 47.712 132.871C48 133.127 48.144 133.559 48.144 134.167V139.975C48.144 140.583 48 141.031 47.712 141.319C47.456 141.575 47.024 141.703 46.416 141.703H39.36V165.271C39.36 165.879 39.216 166.327 38.928 166.615C38.672 166.871 38.24 166.999 37.632 166.999ZM63.66 141.079V147.223H67.26C68.092 147.223 68.652 147.015 68.94 146.599C69.228 146.151 69.372 145.607 69.372 144.967V143.335C69.372 142.695 69.228 142.167 68.94 141.751C68.652 141.303 68.092 141.079 67.26 141.079H63.66ZM61.932 166.999H54.54C53.932 166.999 53.484 166.871 53.196 166.615C52.94 166.327 52.812 165.879 52.812 165.271V134.167C52.812 133.559 52.94 133.127 53.196 132.871C53.484 132.583 53.932 132.439 54.54 132.439H70.524C74.108 132.439 76.572 133.191 77.916 134.695C79.292 136.167 79.98 138.087 79.98 140.455V142.663C79.98 144.007 79.772 145.159 79.356 146.119C78.972 147.047 78.284 147.719 77.292 148.135C79.02 148.327 80.412 149.031 81.468 150.247C82.556 151.463 83.1 153.079 83.1 155.095V165.271C83.1 165.879 82.956 166.327 82.668 166.615C82.412 166.871 81.98 166.999 81.372 166.999H73.932C73.324 166.999 72.876 166.871 72.588 166.615C72.332 166.327 72.204 165.879 72.204 165.271V157.927C72.204 157.223 72.06 156.711 71.772 156.391C71.516 156.039 71.052 155.863 70.38 155.863H63.66V165.271C63.66 165.879 63.516 166.327 63.228 166.615C62.972 166.871 62.54 166.999 61.932 166.999ZM101.012 142.519L98.7559 149.815H106.292L104.036 142.519C103.908 142.231 103.764 142.023 103.604 141.895C103.476 141.767 103.316 141.703 103.124 141.703H101.924C101.732 141.703 101.556 141.767 101.396 141.895C101.268 142.023 101.14 142.231 101.012 142.519ZM98.2759 165.271C98.2759 165.879 98.1319 166.327 97.8439 166.615C97.5879 166.871 97.1559 166.999 96.5479 166.999H89.4919C88.8839 166.999 88.4359 166.871 88.1479 166.615C87.8919 166.327 87.7639 165.879 87.7639 165.271V152.599C87.7639 151.639 87.9079 150.535 88.1959 149.287C88.5159 148.039 88.9959 146.583 89.6359 144.919L93.8119 134.023C94.0039 133.479 94.2919 133.079 94.6759 132.823C95.0919 132.567 95.6199 132.439 96.2599 132.439H109.172C109.78 132.439 110.276 132.567 110.66 132.823C111.076 133.079 111.38 133.479 111.572 134.023L115.748 144.919C116.388 146.583 116.852 148.039 117.14 149.287C117.46 150.535 117.62 151.639 117.62 152.599V165.271C117.62 165.879 117.476 166.327 117.188 166.615C116.932 166.871 116.5 166.999 115.892 166.999H108.644C108.004 166.999 107.524 166.871 107.204 166.615C106.916 166.327 106.772 165.879 106.772 165.271V158.551H98.2759V165.271ZM146.538 166.999H134.826C130.826 166.999 127.85 166.199 125.898 164.599C123.978 162.999 123.018 160.535 123.018 157.207V142.279C123.018 138.951 123.978 136.487 125.898 134.887C127.85 133.255 130.826 132.439 134.826 132.439H146.538C147.146 132.439 147.578 132.583 147.834 132.871C148.122 133.127 148.266 133.559 148.266 134.167V139.975C148.266 140.583 148.122 141.031 147.834 141.319C147.578 141.575 147.146 141.703 146.538 141.703H136.89C135.898 141.703 135.162 141.911 134.682 142.327C134.202 142.711 133.962 143.303 133.962 144.103V155.527C133.962 156.327 134.202 156.919 134.682 157.303C135.162 157.655 135.898 157.831 136.89 157.831H146.538C147.146 157.831 147.578 157.975 147.834 158.263C148.122 158.519 148.266 158.951 148.266 159.559V165.271C148.266 165.879 148.122 166.327 147.834 166.615C147.578 166.871 147.146 166.999 146.538 166.999ZM162.855 166.999H155.415C154.807 166.999 154.359 166.871 154.071 166.615C153.815 166.327 153.687 165.879 153.687 165.271V134.167C153.687 133.559 153.815 133.127 154.071 132.871C154.359 132.583 154.807 132.439 155.415 132.439H162.855C163.463 132.439 163.895 132.583 164.151 132.871C164.439 133.127 164.583 133.559 164.583 134.167V145.207H166.503L171.447 134.023C171.671 133.447 171.975 133.047 172.359 132.823C172.743 132.567 173.239 132.439 173.847 132.439H181.239C181.783 132.439 182.151 132.583 182.343 132.871C182.535 133.127 182.519 133.511 182.295 134.023L177.399 145.207C179.191 145.303 180.615 145.943 181.671 147.127C182.759 148.279 183.303 149.815 183.303 151.735V165.271C183.303 165.879 183.159 166.327 182.871 166.615C182.615 166.871 182.183 166.999 181.575 166.999H174.183C173.575 166.999 173.127 166.871 172.839 166.615C172.583 166.327 172.455 165.879 172.455 165.271V155.911C172.455 155.399 172.327 154.999 172.071 154.711C171.815 154.423 171.431 154.279 170.919 154.279H164.583V165.271C164.583 165.879 164.439 166.327 164.151 166.615C163.895 166.871 163.463 166.999 162.855 166.999ZM205.532 166.999H190.364C189.756 166.999 189.308 166.871 189.02 166.615C188.764 166.327 188.636 165.879 188.636 165.271V159.655C188.636 159.047 188.764 158.615 189.02 158.359C189.308 158.071 189.756 157.927 190.364 157.927H203.276C203.692 157.927 203.996 157.799 204.188 157.543C204.412 157.255 204.524 156.919 204.524 156.535C204.524 155.991 204.412 155.591 204.188 155.335C203.996 155.079 203.692 154.935 203.276 154.903L196.076 153.895C193.836 153.575 192.028 152.839 190.652 151.687C189.308 150.535 188.636 148.615 188.636 145.927V140.887C188.636 138.167 189.516 136.087 191.276 134.647C193.036 133.175 195.468 132.439 198.572 132.439H212.012C212.62 132.439 213.052 132.583 213.307 132.871C213.595 133.127 213.74 133.559 213.74 134.167V139.879C213.74 140.487 213.595 140.935 213.307 141.223C213.052 141.479 212.62 141.607 212.012 141.607H200.828C200.412 141.607 200.092 141.751 199.868 142.039C199.644 142.295 199.532 142.631 199.532 143.047C199.532 143.463 199.644 143.815 199.868 144.103C200.092 144.391 200.412 144.551 200.828 144.583L207.98 145.543C210.22 145.863 212.028 146.599 213.404 147.751C214.78 148.903 215.468 150.823 215.468 153.511V158.551C215.468 161.271 214.572 163.367 212.78 164.839C211.02 166.279 208.604 166.999 205.532 166.999Z" fill="#FDEBE6"/>
<mask id="mask0_196_632" style="mask-type:alpha" maskUnits="userSpaceOnUse" x="115" y="27" width="164" height="165">
<path d="M261.817 63.2402C266.25 70.1046 269.577 77.5807 271.666 85.3426C280.39 116.532 267.127 151.188 241.292 168.16C209.465 190.753 161.724 181.936 140.213 150.419C117.27 119.928 124.247 71.8836 155.862 48.9945C180.23 29.9767 217.309 28.5417 244.047 46.8167C250.727 51.2868 256.739 56.8388 261.817 63.2402C257.39 56.3735 251.847 50.1741 245.399 44.9809C219.749 23.7124 179.091 21.6212 150.618 41.68C113.687 65.4514 103.467 121.704 130.461 157.41C155.611 194.438 212.167 202.819 246.536 175.475C274.674 154.948 285.747 115.772 273.839 84.6514C270.991 76.8772 266.899 69.6372 261.817 63.2402Z" fill="#D1D1D1"/>
</mask>
<g mask="url(#mask0_196_632)">
<path d="M253.465 145.694C244.455 133.126 247.339 115.633 259.907 106.623L262.691 104.627C275.259 95.6168 292.752 98.5011 301.762 111.069L307.584 119.19C316.594 131.758 313.71 149.251 301.142 158.261L298.357 160.257C285.789 169.267 268.297 166.383 259.287 153.815L253.465 145.694Z" fill="#D1D1D1"/>
<path d="M235.479 130.903C224.538 115.642 228.04 94.4012 243.301 83.4605L246.086 81.4642C261.347 70.5234 282.588 74.0257 293.529 89.2868L297.177 114.971C297.177 114.971 289.172 120.71 279.297 127.79L276.512 129.786C266.637 136.865 258.632 142.604 258.632 142.604L235.479 130.903ZM312.46 115.695C323.401 130.956 319.899 152.196 304.638 163.137L301.853 165.133C286.592 176.074 265.351 172.572 254.41 157.311L264.163 150.319C271.243 160.194 284.987 162.46 294.861 155.381L297.646 153.384C307.521 146.305 309.787 132.561 302.708 122.686L312.46 115.695ZM301.853 165.133C286.592 176.074 265.351 172.572 254.41 157.311L235.479 130.903C224.538 115.642 228.04 94.4012 243.301 83.4605L276.512 129.786C266.637 136.865 258.632 142.604 258.632 142.604L264.163 150.319C271.243 160.194 284.987 162.46 294.861 155.381L301.853 165.133ZM246.086 81.4642C261.347 70.5234 282.588 74.0257 293.529 89.2868L312.46 115.695C323.401 130.956 319.899 152.196 304.638 163.137L297.646 153.384C307.521 146.305 309.787 132.561 302.708 122.686L297.177 114.971C297.177 114.971 289.172 120.71 279.297 127.79L246.086 81.4642Z" fill="#D1D1D1"/>
</g>
<mask id="mask1_196_632" style="mask-type:alpha" maskUnits="userSpaceOnUse" x="139" y="46" width="128" height="128">
<path d="M253.536 74.2272C256.854 79.5387 259.314 85.2918 260.824 91.2346C267.132 115.128 256.718 141.139 237.204 153.721C213.127 170.466 177.598 163.663 161.551 140.172C144.455 117.432 149.419 81.5996 173.007 64.1739C191.188 49.7315 219.165 48.2197 239.769 61.8646C244.912 65.2033 249.571 69.3793 253.536 74.2272C250.222 68.914 246.032 64.0905 241.121 60.0288C221.605 43.3904 190.05 41.376 167.763 56.8594C138.858 75.1674 130.652 119.208 151.798 147.163C171.485 176.165 215.829 182.532 242.448 161.035C264.266 144.9 272.489 114.368 262.997 90.5434C260.727 84.5883 257.504 79.0714 253.536 74.2272Z" fill="#D1D1D1"/>
</mask>
<g mask="url(#mask1_196_632)">
<path d="M247.903 138.438C240.581 128.225 242.925 114.009 253.139 106.687C263.353 99.3644 277.568 101.708 284.891 111.922L287.821 116.009C295.143 126.223 292.799 140.439 282.585 147.761C272.371 155.083 258.156 152.739 250.833 142.525L247.903 138.438Z" fill="#D1D1D1"/>
<path d="M229.917 123.648C220.665 110.741 223.627 92.777 236.533 83.524C249.44 74.271 267.404 77.2331 276.657 90.1399L287.821 116.009C287.96 116.203 288.096 116.399 288.229 116.598L269.744 129.849L251.26 143.101C251.115 142.911 250.972 142.719 250.833 142.525L229.917 123.648ZM292.697 112.513C301.95 125.42 298.988 143.384 286.081 152.637C273.174 161.89 255.21 158.928 245.957 146.021L255.71 139.029C261.101 146.55 271.569 148.276 279.089 142.884C286.61 137.493 288.336 127.026 282.944 119.505L292.697 112.513ZM286.081 152.637C273.174 161.89 255.21 158.928 245.957 146.021L229.917 123.648C220.665 110.741 223.627 92.777 236.533 83.524L269.744 129.849C262.224 135.241 256.127 139.612 256.127 139.612L255.71 139.029C261.101 146.55 271.569 148.276 279.089 142.884L286.081 152.637ZM236.533 83.524C249.44 74.271 267.404 77.2331 276.657 90.1399L292.697 112.513C301.95 125.42 298.988 143.384 286.081 152.637L279.089 142.884C286.61 137.493 288.336 127.026 282.944 119.505L283.361 120.087C283.361 120.087 277.265 124.458 269.744 129.849L236.533 83.524Z" fill="#D1D1D1"/>
</g>
<mask id="mask2_196_632" style="mask-type:alpha" maskUnits="userSpaceOnUse" x="164" y="65" width="92" height="93">
<path d="M245.961 85.8C248.186 89.5868 249.792 93.6478 250.735 97.8043C254.671 114.534 247.055 132.055 233.746 140.325C217.281 151.329 193.744 146.504 183.062 130.893C171.707 115.765 174.693 91.9243 190.401 79.8637C202.506 69.9143 221.545 68.327 236.125 77.4252C239.759 79.6528 243.089 82.4777 245.961 85.8C243.74 82.0124 240.879 78.5401 237.477 75.5894C223.985 63.4977 201.367 61.5588 185.157 72.5492C164.133 85.4922 157.904 117.541 173.309 137.885C187.63 159.006 219.982 163.395 238.99 147.64C254.603 135.816 260.028 113.774 252.908 97.1131C251.205 92.9443 248.836 89.1195 245.961 85.8Z" fill="#D1D1D1"/>
</mask>
<g mask="url(#mask2_196_632)">
<path d="M242.021 130.73C236.897 123.583 238.537 113.636 245.684 108.513C252.831 103.389 262.778 105.029 267.901 112.176L269.952 115.036C275.075 122.182 273.435 132.13 266.288 137.253C259.141 142.377 249.194 140.737 244.071 133.59L242.021 130.73Z" fill="#D1D1D1"/>
<path d="M224.035 115.94C216.98 106.1 219.239 92.4041 229.079 85.3498L229.079 85.3498C238.918 78.2955 252.614 80.5538 259.668 90.3937L269.952 115.036C271.837 117.666 272.877 120.809 272.931 124.045L262.289 131.675L251.646 139.305L251.647 139.304C248.599 138.214 245.957 136.22 244.071 133.59L224.035 115.94ZM274.828 111.54C281.882 121.38 279.624 135.075 269.784 142.129L269.784 142.129C259.944 149.184 246.249 146.926 239.194 137.086L248.947 130.094C252.14 134.547 258.339 135.57 262.792 132.377C267.246 129.184 268.268 122.985 265.075 118.532L274.828 111.54ZM269.784 142.129C259.944 149.184 246.249 146.926 239.194 137.086L224.035 115.94C216.98 106.1 219.239 92.4041 229.079 85.3498L262.289 131.675C257.836 134.868 254.225 137.456 254.225 137.456L248.947 130.094C252.14 134.547 258.339 135.57 262.792 132.377L269.784 142.129ZM229.079 85.3498C238.918 78.2955 252.614 80.5538 259.668 90.3937L274.828 111.54C281.882 121.38 279.624 135.075 269.784 142.129L262.792 132.377C267.246 129.184 268.268 122.985 265.075 118.532L270.353 125.894C270.353 125.894 266.743 128.482 262.289 131.675L229.079 85.3498Z" fill="#D1D1D1"/>
</g>
</svg>
